G04 #@! TF.FileFunction,Soldermask,Top*
%FSLAX46Y46*%
G04 Gerber Fmt 4.6, Leading zero omitted, Abs format (unit mm)*
G04 Created by KiCad (PCBNEW 4.0.1-stable) date 24/01/2016 09:13:41*
%MOMM*%
G01*
G04 APERTURE LIST*
%ADD10C,0.100000*%
%ADD11R,1.800860X3.500120*%
%ADD12R,1.250000X1.500000*%
%ADD13R,1.500000X1.250000*%
%ADD14R,1.249680X0.899160*%
%ADD15R,1.998980X0.500380*%
%ADD16R,0.899160X1.249680*%
%ADD17R,0.500380X1.998980*%
%ADD18R,2.032000X2.032000*%
%ADD19O,2.032000X2.032000*%
%ADD20R,2.032000X1.727200*%
%ADD21O,2.032000X1.727200*%
%ADD22R,1.727200X1.727200*%
%ADD23O,1.727200X1.727200*%
%ADD24C,1.778000*%
%ADD25R,1.778000X1.778000*%
%ADD26R,1.500000X1.300000*%
%ADD27R,1.300000X1.500000*%
%ADD28R,1.500000X0.450000*%
%ADD29C,6.350000*%
%ADD30R,0.600000X1.550000*%
%ADD31R,0.910000X1.220000*%
%ADD32R,1.220000X0.910000*%
%ADD33R,1.998980X0.899160*%
%ADD34R,1.998980X1.000760*%
G04 APERTURE END LIST*
D10*
D11*
X157800000Y-112550260D03*
X157800000Y-118549740D03*
D12*
X136900000Y-116300000D03*
X136900000Y-118800000D03*
X133900000Y-116350000D03*
X133900000Y-118850000D03*
D13*
X153850000Y-125750000D03*
X156350000Y-125750000D03*
D14*
X117411500Y-120784620D03*
X117411500Y-123182380D03*
D15*
X117411500Y-121983500D03*
D16*
X148201120Y-108500000D03*
X150598880Y-108500000D03*
D17*
X149400000Y-108500000D03*
D14*
X122682000Y-124086620D03*
X122682000Y-126484380D03*
D15*
X122682000Y-125285500D03*
D18*
X160650000Y-125600000D03*
D19*
X160650000Y-123060000D03*
D20*
X104076500Y-128206500D03*
D21*
X104076500Y-125666500D03*
X104076500Y-123126500D03*
D22*
X143700000Y-104800000D03*
D23*
X143700000Y-102260000D03*
X141160000Y-104800000D03*
X141160000Y-102260000D03*
X138620000Y-104800000D03*
X138620000Y-102260000D03*
X136080000Y-104800000D03*
X136080000Y-102260000D03*
X133540000Y-104800000D03*
X133540000Y-102260000D03*
X131000000Y-104800000D03*
X131000000Y-102260000D03*
D22*
X158900000Y-104800000D03*
D23*
X158900000Y-102260000D03*
X156360000Y-104800000D03*
X156360000Y-102260000D03*
X153820000Y-104800000D03*
X153820000Y-102260000D03*
X151280000Y-104800000D03*
X151280000Y-102260000D03*
X148740000Y-104800000D03*
X148740000Y-102260000D03*
X146200000Y-104800000D03*
X146200000Y-102260000D03*
D24*
X152500000Y-117640000D03*
D25*
X152500000Y-115100000D03*
D24*
X152500000Y-112560000D03*
X144350000Y-117690000D03*
D25*
X144350000Y-115150000D03*
D24*
X144350000Y-112610000D03*
D12*
X149650000Y-132900000D03*
X149650000Y-130400000D03*
D18*
X119062500Y-135572500D03*
D19*
X119062500Y-133032500D03*
D26*
X141398000Y-137922000D03*
X144098000Y-137922000D03*
X143336000Y-134620000D03*
X140636000Y-134620000D03*
D27*
X152650000Y-133150000D03*
X152650000Y-130450000D03*
X137900000Y-129800000D03*
X137900000Y-132500000D03*
X130250000Y-124750000D03*
X130250000Y-127450000D03*
X147150000Y-124750000D03*
X147150000Y-127450000D03*
X149350000Y-124750000D03*
X149350000Y-127450000D03*
D26*
X139850000Y-121800000D03*
X142550000Y-121800000D03*
D28*
X132100000Y-109425000D03*
X132100000Y-110075000D03*
X132100000Y-110725000D03*
X132100000Y-111375000D03*
X132100000Y-112025000D03*
X132100000Y-112675000D03*
X132100000Y-113325000D03*
X132100000Y-113975000D03*
X138000000Y-113975000D03*
X138000000Y-113325000D03*
X138000000Y-112675000D03*
X138000000Y-112025000D03*
X138000000Y-111375000D03*
X138000000Y-110725000D03*
X138000000Y-110075000D03*
X138000000Y-109425000D03*
D29*
X103568500Y-136144000D03*
X160400000Y-136400000D03*
D30*
X141145000Y-130200000D03*
X142415000Y-130200000D03*
X143685000Y-130200000D03*
X144955000Y-130200000D03*
X144955000Y-124800000D03*
X143685000Y-124800000D03*
X142415000Y-124800000D03*
X141145000Y-124800000D03*
D13*
X138918000Y-137922000D03*
X136418000Y-137922000D03*
D31*
X146701000Y-136398000D03*
X149971000Y-136398000D03*
D32*
X134250000Y-129485000D03*
X134250000Y-126215000D03*
D27*
X153100000Y-123450000D03*
X153100000Y-120750000D03*
X140000000Y-115600000D03*
X140000000Y-118300000D03*
D20*
X105092500Y-104521000D03*
D21*
X105092500Y-107061000D03*
X105092500Y-109601000D03*
X105092500Y-112141000D03*
X105092500Y-114681000D03*
D26*
X109808000Y-99377500D03*
X107108000Y-99377500D03*
X122825500Y-99949000D03*
X120125500Y-99949000D03*
X125492500Y-104076500D03*
X122792500Y-104076500D03*
X125492500Y-108458000D03*
X122792500Y-108458000D03*
D33*
X109928660Y-104663240D03*
D34*
X109928660Y-102014020D03*
X117528340Y-102014020D03*
X117528340Y-104614980D03*
D33*
X109801660Y-111584740D03*
D34*
X109801660Y-108935520D03*
X117401340Y-108935520D03*
X117401340Y-111536480D03*
D33*
X109865160Y-117807740D03*
D34*
X109865160Y-115158520D03*
X117464840Y-115158520D03*
X117464840Y-117759480D03*
M02*
