M48
;DRILL file {KiCad 4.0.1-stable} date 24/01/2016 09:13:44
;FORMAT={3:3/ absolute / metric / keep zeros}
FMAT,2
METRIC,TZ
T1C0.635
T2C1.016
T3C1.143
T4C3.900
%
G90
G05
M71
T1
X113284Y-099949
X117221Y-107188
X117348Y-113284
X118047Y-099949
X119571Y-117729
X119698Y-104584
X119888Y-122936
X129476Y-110109
X132100Y-108200
X133800Y-111500
X135500Y-120350
X135950Y-114350
X136250Y-112650
X137900Y-134400
X139550Y-119850
X139550Y-124100
X141097Y-106934
X147050Y-129400
X152550Y-127450
T2
X104076Y-123126
X104076Y-125667
X104076Y-128207
X105093Y-104521
X105093Y-107061
X105093Y-109601
X105093Y-112141
X105093Y-114681
X119063Y-133033
X119063Y-135573
X131000Y-102260
X131000Y-104800
X133540Y-102260
X133540Y-104800
X136080Y-102260
X136080Y-104800
X138620Y-102260
X138620Y-104800
X141160Y-102260
X141160Y-104800
X143700Y-102260
X143700Y-104800
X146200Y-102260
X146200Y-104800
X148740Y-102260
X148740Y-104800
X151280Y-102260
X151280Y-104800
X153820Y-102260
X153820Y-104800
X156360Y-102260
X156360Y-104800
X158900Y-102260
X158900Y-104800
X160650Y-123060
X160650Y-125600
T3
X144350Y-112610
X144350Y-115150
X144350Y-117690
X152500Y-112560
X152500Y-115100
X152500Y-117640
T4
X103568Y-136144
X160400Y-136400
T0
M30
