M48
;DRILL file {kicad (2014-10-27 BZR 5228)-product} date 28/06/2015 08:06:53
;FORMAT={3:3/ absolute / metric / keep zeros}
FMAT,2
METRIC,TZ
T1C0.635
T2C1.016
T3C1.143
T4C3.900
%
G90
G05
M71
T1
X117602Y-097282
X123190Y-114554
X127000Y-102108
X127000Y-104902
X127000Y-106172
X127000Y-110236
X127508Y-112268
X127508Y-115824
X128016Y-099314
X128016Y-108966
X128270Y-120396
X129286Y-098298
X132100Y-108200
X133800Y-111500
X135500Y-120350
X135950Y-114350
X136250Y-112650
X137900Y-134400
X139550Y-119850
X139550Y-124100
X147050Y-129400
X152550Y-127450
T2
X120650Y-102616
X120650Y-105156
X120650Y-107696
X120650Y-110236
X120650Y-112776
X120650Y-115316
X120650Y-117856
X120650Y-120396
X120650Y-124714
X120650Y-127254
X120650Y-129794
X128016Y-134366
X128016Y-136906
X131000Y-102260
X131000Y-104800
X133540Y-102260
X133540Y-104800
X136080Y-102260
X136080Y-104800
X138620Y-102260
X138620Y-104800
X141160Y-102260
X141160Y-104800
X143700Y-102260
X143700Y-104800
X146200Y-102260
X146200Y-104800
X148740Y-102260
X148740Y-104800
X151280Y-102260
X151280Y-104800
X153820Y-102260
X153820Y-104800
X156360Y-102260
X156360Y-104800
X158900Y-102260
X158900Y-104800
X160650Y-123060
X160650Y-125600
T3
X144350Y-112610
X144350Y-115150
X144350Y-117690
X152500Y-112560
X152500Y-115100
X152500Y-117640
T4
X118618Y-136398
X160400Y-136400
T0
M30
