G04 #@! TF.FileFunction,Legend,Bot*
%FSLAX46Y46*%
G04 Gerber Fmt 4.6, Leading zero omitted, Abs format (unit mm)*
G04 Created by KiCad (PCBNEW 4.0.1-stable) date 24/01/2016 09:13:41*
%MOMM*%
G01*
G04 APERTURE LIST*
%ADD10C,0.100000*%
%ADD11C,0.150000*%
%ADD12C,0.127000*%
G04 APERTURE END LIST*
D10*
D11*
X154111905Y-137027381D02*
X154111905Y-136027381D01*
X154111905Y-136503571D02*
X153540476Y-136503571D01*
X153540476Y-137027381D02*
X153540476Y-136027381D01*
X152683333Y-136979762D02*
X152778571Y-137027381D01*
X152969048Y-137027381D01*
X153064286Y-136979762D01*
X153111905Y-136884524D01*
X153111905Y-136503571D01*
X153064286Y-136408333D01*
X152969048Y-136360714D01*
X152778571Y-136360714D01*
X152683333Y-136408333D01*
X152635714Y-136503571D01*
X152635714Y-136598810D01*
X153111905Y-136694048D01*
X152207143Y-137027381D02*
X152207143Y-136360714D01*
X152207143Y-136551190D02*
X152159524Y-136455952D01*
X152111905Y-136408333D01*
X152016667Y-136360714D01*
X151921428Y-136360714D01*
X151588095Y-137027381D02*
X151588095Y-136360714D01*
X151588095Y-136455952D02*
X151540476Y-136408333D01*
X151445238Y-136360714D01*
X151302380Y-136360714D01*
X151207142Y-136408333D01*
X151159523Y-136503571D01*
X151159523Y-137027381D01*
X151159523Y-136503571D02*
X151111904Y-136408333D01*
X151016666Y-136360714D01*
X150873809Y-136360714D01*
X150778571Y-136408333D01*
X150730952Y-136503571D01*
X150730952Y-137027381D01*
X149873809Y-136979762D02*
X149969047Y-137027381D01*
X150159524Y-137027381D01*
X150254762Y-136979762D01*
X150302381Y-136884524D01*
X150302381Y-136503571D01*
X150254762Y-136408333D01*
X150159524Y-136360714D01*
X149969047Y-136360714D01*
X149873809Y-136408333D01*
X149826190Y-136503571D01*
X149826190Y-136598810D01*
X150302381Y-136694048D01*
X149445238Y-136979762D02*
X149350000Y-137027381D01*
X149159524Y-137027381D01*
X149064285Y-136979762D01*
X149016666Y-136884524D01*
X149016666Y-136836905D01*
X149064285Y-136741667D01*
X149159524Y-136694048D01*
X149302381Y-136694048D01*
X149397619Y-136646429D01*
X149445238Y-136551190D01*
X149445238Y-136503571D01*
X149397619Y-136408333D01*
X149302381Y-136360714D01*
X149159524Y-136360714D01*
X149064285Y-136408333D01*
X147349999Y-137027381D02*
X147826190Y-137027381D01*
X147826190Y-136027381D01*
X147016666Y-137027381D02*
X147016666Y-136360714D01*
X147016666Y-136027381D02*
X147064285Y-136075000D01*
X147016666Y-136122619D01*
X146969047Y-136075000D01*
X147016666Y-136027381D01*
X147016666Y-136122619D01*
X146683333Y-136360714D02*
X146302381Y-136360714D01*
X146540476Y-136027381D02*
X146540476Y-136884524D01*
X146492857Y-136979762D01*
X146397619Y-137027381D01*
X146302381Y-137027381D01*
X145588094Y-136979762D02*
X145683332Y-137027381D01*
X145873809Y-137027381D01*
X145969047Y-136979762D01*
X146016666Y-136884524D01*
X146016666Y-136503571D01*
X145969047Y-136408333D01*
X145873809Y-136360714D01*
X145683332Y-136360714D01*
X145588094Y-136408333D01*
X145540475Y-136503571D01*
X145540475Y-136598810D01*
X146016666Y-136694048D01*
X144397618Y-136741667D02*
X143921427Y-136741667D01*
X144492856Y-137027381D02*
X144159523Y-136027381D01*
X143826189Y-137027381D01*
X143492856Y-137027381D02*
X143492856Y-136027381D01*
X143254761Y-136027381D01*
X143111903Y-136075000D01*
X143016665Y-136170238D01*
X142969046Y-136265476D01*
X142921427Y-136455952D01*
X142921427Y-136598810D01*
X142969046Y-136789286D01*
X143016665Y-136884524D01*
X143111903Y-136979762D01*
X143254761Y-137027381D01*
X143492856Y-137027381D01*
X141921427Y-136932143D02*
X141969046Y-136979762D01*
X142111903Y-137027381D01*
X142207141Y-137027381D01*
X142349999Y-136979762D01*
X142445237Y-136884524D01*
X142492856Y-136789286D01*
X142540475Y-136598810D01*
X142540475Y-136455952D01*
X142492856Y-136265476D01*
X142445237Y-136170238D01*
X142349999Y-136075000D01*
X142207141Y-136027381D01*
X142111903Y-136027381D01*
X141969046Y-136075000D01*
X141921427Y-136122619D01*
X140730951Y-137027381D02*
X140730951Y-136027381D01*
X139540475Y-135979762D02*
X140397618Y-137265476D01*
X139016666Y-136027381D02*
X138826189Y-136027381D01*
X138730951Y-136075000D01*
X138635713Y-136170238D01*
X138588094Y-136360714D01*
X138588094Y-136694048D01*
X138635713Y-136884524D01*
X138730951Y-136979762D01*
X138826189Y-137027381D01*
X139016666Y-137027381D01*
X139111904Y-136979762D01*
X139207142Y-136884524D01*
X139254761Y-136694048D01*
X139254761Y-136360714D01*
X139207142Y-136170238D01*
X139111904Y-136075000D01*
X139016666Y-136027381D01*
X136969046Y-137027381D02*
X136969046Y-136503571D01*
X137016665Y-136408333D01*
X137111903Y-136360714D01*
X137302380Y-136360714D01*
X137397618Y-136408333D01*
X136969046Y-136979762D02*
X137064284Y-137027381D01*
X137302380Y-137027381D01*
X137397618Y-136979762D01*
X137445237Y-136884524D01*
X137445237Y-136789286D01*
X137397618Y-136694048D01*
X137302380Y-136646429D01*
X137064284Y-136646429D01*
X136969046Y-136598810D01*
X136492856Y-136360714D02*
X136492856Y-137027381D01*
X136492856Y-136455952D02*
X136445237Y-136408333D01*
X136349999Y-136360714D01*
X136207141Y-136360714D01*
X136111903Y-136408333D01*
X136064284Y-136503571D01*
X136064284Y-137027381D01*
X135159522Y-137027381D02*
X135159522Y-136027381D01*
X135159522Y-136979762D02*
X135254760Y-137027381D01*
X135445237Y-137027381D01*
X135540475Y-136979762D01*
X135588094Y-136932143D01*
X135635713Y-136836905D01*
X135635713Y-136551190D01*
X135588094Y-136455952D01*
X135540475Y-136408333D01*
X135445237Y-136360714D01*
X135254760Y-136360714D01*
X135159522Y-136408333D01*
X133921427Y-137027381D02*
X133921427Y-136027381D01*
X133540474Y-136027381D01*
X133445236Y-136075000D01*
X133397617Y-136122619D01*
X133349998Y-136217857D01*
X133349998Y-136360714D01*
X133397617Y-136455952D01*
X133445236Y-136503571D01*
X133540474Y-136551190D01*
X133921427Y-136551190D01*
X133016665Y-136360714D02*
X132826189Y-137027381D01*
X132635712Y-136551190D01*
X132445236Y-137027381D01*
X132254760Y-136360714D01*
X131873808Y-137027381D02*
X131873808Y-136360714D01*
X131873808Y-136551190D02*
X131826189Y-136455952D01*
X131778570Y-136408333D01*
X131683332Y-136360714D01*
X131588093Y-136360714D01*
X151778571Y-137815476D02*
X151873809Y-137767857D01*
X152064285Y-137767857D01*
X152159523Y-137815476D01*
X152254761Y-137910714D01*
X152302380Y-138005952D01*
X152302380Y-138196429D01*
X152254761Y-138291667D01*
X152159523Y-138386905D01*
X152064285Y-138434524D01*
X151873809Y-138434524D01*
X151778571Y-138386905D01*
X151969047Y-137434524D02*
X152207142Y-137482143D01*
X152445238Y-137625000D01*
X152588095Y-137863095D01*
X152635714Y-138101190D01*
X152588095Y-138339286D01*
X152445238Y-138577381D01*
X152207142Y-138720238D01*
X151969047Y-138767857D01*
X151730952Y-138720238D01*
X151492857Y-138577381D01*
X151350000Y-138339286D01*
X151302380Y-138101190D01*
X151350000Y-137863095D01*
X151492857Y-137625000D01*
X151730952Y-137482143D01*
X151969047Y-137434524D01*
X150159523Y-137672619D02*
X150111904Y-137625000D01*
X150016666Y-137577381D01*
X149778570Y-137577381D01*
X149683332Y-137625000D01*
X149635713Y-137672619D01*
X149588094Y-137767857D01*
X149588094Y-137863095D01*
X149635713Y-138005952D01*
X150207142Y-138577381D01*
X149588094Y-138577381D01*
X148969047Y-137577381D02*
X148873808Y-137577381D01*
X148778570Y-137625000D01*
X148730951Y-137672619D01*
X148683332Y-137767857D01*
X148635713Y-137958333D01*
X148635713Y-138196429D01*
X148683332Y-138386905D01*
X148730951Y-138482143D01*
X148778570Y-138529762D01*
X148873808Y-138577381D01*
X148969047Y-138577381D01*
X149064285Y-138529762D01*
X149111904Y-138482143D01*
X149159523Y-138386905D01*
X149207142Y-138196429D01*
X149207142Y-137958333D01*
X149159523Y-137767857D01*
X149111904Y-137672619D01*
X149064285Y-137625000D01*
X148969047Y-137577381D01*
X147683332Y-138577381D02*
X148254761Y-138577381D01*
X147969047Y-138577381D02*
X147969047Y-137577381D01*
X148064285Y-137720238D01*
X148159523Y-137815476D01*
X148254761Y-137863095D01*
X146826189Y-137577381D02*
X147016666Y-137577381D01*
X147111904Y-137625000D01*
X147159523Y-137672619D01*
X147254761Y-137815476D01*
X147302380Y-138005952D01*
X147302380Y-138386905D01*
X147254761Y-138482143D01*
X147207142Y-138529762D01*
X147111904Y-138577381D01*
X146921427Y-138577381D01*
X146826189Y-138529762D01*
X146778570Y-138482143D01*
X146730951Y-138386905D01*
X146730951Y-138148810D01*
X146778570Y-138053571D01*
X146826189Y-138005952D01*
X146921427Y-137958333D01*
X147111904Y-137958333D01*
X147207142Y-138005952D01*
X147254761Y-138053571D01*
X147302380Y-138148810D01*
X145635713Y-137577381D02*
X145397618Y-138577381D01*
X145207141Y-137863095D01*
X145016665Y-138577381D01*
X144778570Y-137577381D01*
X144349999Y-138577381D02*
X144159523Y-138577381D01*
X144064284Y-138529762D01*
X144016665Y-138482143D01*
X143921427Y-138339286D01*
X143873808Y-138148810D01*
X143873808Y-137767857D01*
X143921427Y-137672619D01*
X143969046Y-137625000D01*
X144064284Y-137577381D01*
X144254761Y-137577381D01*
X144349999Y-137625000D01*
X144397618Y-137672619D01*
X144445237Y-137767857D01*
X144445237Y-138005952D01*
X144397618Y-138101190D01*
X144349999Y-138148810D01*
X144254761Y-138196429D01*
X144064284Y-138196429D01*
X143969046Y-138148810D01*
X143921427Y-138101190D01*
X143873808Y-138005952D01*
X143159522Y-137577381D02*
X143159522Y-138291667D01*
X143207142Y-138434524D01*
X143302380Y-138529762D01*
X143445237Y-138577381D01*
X143540475Y-138577381D01*
X142730951Y-138529762D02*
X142588094Y-138577381D01*
X142349998Y-138577381D01*
X142254760Y-138529762D01*
X142207141Y-138482143D01*
X142159522Y-138386905D01*
X142159522Y-138291667D01*
X142207141Y-138196429D01*
X142254760Y-138148810D01*
X142349998Y-138101190D01*
X142540475Y-138053571D01*
X142635713Y-138005952D01*
X142683332Y-137958333D01*
X142730951Y-137863095D01*
X142730951Y-137767857D01*
X142683332Y-137672619D01*
X142635713Y-137625000D01*
X142540475Y-137577381D01*
X142302379Y-137577381D01*
X142159522Y-137625000D01*
X141826189Y-137577381D02*
X141588094Y-138577381D01*
X141397617Y-137863095D01*
X141207141Y-138577381D01*
X140969046Y-137577381D01*
X139921427Y-137910714D02*
X139683332Y-138577381D01*
X139445236Y-137910714D01*
X138683331Y-138529762D02*
X138778569Y-138577381D01*
X138969046Y-138577381D01*
X139064284Y-138529762D01*
X139111903Y-138434524D01*
X139111903Y-138053571D01*
X139064284Y-137958333D01*
X138969046Y-137910714D01*
X138778569Y-137910714D01*
X138683331Y-137958333D01*
X138635712Y-138053571D01*
X138635712Y-138148810D01*
X139111903Y-138244048D01*
X138207141Y-138577381D02*
X138207141Y-137910714D01*
X138207141Y-138101190D02*
X138159522Y-138005952D01*
X138111903Y-137958333D01*
X138016665Y-137910714D01*
X137921426Y-137910714D01*
X136302378Y-138577381D02*
X136873807Y-138577381D01*
X136588093Y-138577381D02*
X136588093Y-137577381D01*
X136683331Y-137720238D01*
X136778569Y-137815476D01*
X136873807Y-137863095D01*
X135873807Y-138482143D02*
X135826188Y-138529762D01*
X135873807Y-138577381D01*
X135921426Y-138529762D01*
X135873807Y-138482143D01*
X135873807Y-138577381D01*
X134969045Y-137910714D02*
X134969045Y-138577381D01*
X135207141Y-137529762D02*
X135445236Y-138244048D01*
X134826188Y-138244048D01*
D12*
X147835000Y-109135000D02*
X147835000Y-107865000D01*
X146565000Y-109135000D02*
X146565000Y-107890400D01*
X146184000Y-109135000D02*
X148216000Y-109135000D01*
X148216000Y-109135000D02*
X148216000Y-107865000D01*
X148216000Y-107865000D02*
X146184000Y-107865000D01*
X146184000Y-107865000D02*
X146184000Y-109135000D01*
D11*
X146900000Y-123450000D02*
X145900000Y-123450000D01*
X145900000Y-121750000D02*
X146900000Y-121750000D01*
X148600000Y-126725000D02*
X149800000Y-126725000D01*
X149800000Y-124975000D02*
X148600000Y-124975000D01*
X147000000Y-119225000D02*
X145800000Y-119225000D01*
X145800000Y-120975000D02*
X147000000Y-120975000D01*
X141401800Y-124547680D02*
X140700760Y-124547680D01*
X140700760Y-124547680D02*
X140700760Y-124796600D01*
X140700760Y-127346660D02*
X140700760Y-127547320D01*
X140700760Y-127547320D02*
X141401800Y-127547320D01*
X110440500Y-102778000D02*
X110440500Y-103978000D01*
X112190500Y-103978000D02*
X112190500Y-102778000D01*
X147466666Y-107257143D02*
X147514285Y-107304762D01*
X147657142Y-107352381D01*
X147752380Y-107352381D01*
X147895238Y-107304762D01*
X147990476Y-107209524D01*
X148038095Y-107114286D01*
X148085714Y-106923810D01*
X148085714Y-106780952D01*
X148038095Y-106590476D01*
X147990476Y-106495238D01*
X147895238Y-106400000D01*
X147752380Y-106352381D01*
X147657142Y-106352381D01*
X147514285Y-106400000D01*
X147466666Y-106447619D01*
X146895238Y-106780952D02*
X146990476Y-106733333D01*
X147038095Y-106685714D01*
X147085714Y-106590476D01*
X147085714Y-106542857D01*
X147038095Y-106447619D01*
X146990476Y-106400000D01*
X146895238Y-106352381D01*
X146704761Y-106352381D01*
X146609523Y-106400000D01*
X146561904Y-106447619D01*
X146514285Y-106542857D01*
X146514285Y-106590476D01*
X146561904Y-106685714D01*
X146609523Y-106733333D01*
X146704761Y-106780952D01*
X146895238Y-106780952D01*
X146990476Y-106828571D01*
X147038095Y-106876190D01*
X147085714Y-106971429D01*
X147085714Y-107161905D01*
X147038095Y-107257143D01*
X146990476Y-107304762D01*
X146895238Y-107352381D01*
X146704761Y-107352381D01*
X146609523Y-107304762D01*
X146561904Y-107257143D01*
X146514285Y-107161905D01*
X146514285Y-106971429D01*
X146561904Y-106876190D01*
X146609523Y-106828571D01*
X146704761Y-106780952D01*
X147042857Y-124557143D02*
X147090476Y-124604762D01*
X147233333Y-124652381D01*
X147328571Y-124652381D01*
X147471429Y-124604762D01*
X147566667Y-124509524D01*
X147614286Y-124414286D01*
X147661905Y-124223810D01*
X147661905Y-124080952D01*
X147614286Y-123890476D01*
X147566667Y-123795238D01*
X147471429Y-123700000D01*
X147328571Y-123652381D01*
X147233333Y-123652381D01*
X147090476Y-123700000D01*
X147042857Y-123747619D01*
X146090476Y-124652381D02*
X146661905Y-124652381D01*
X146376191Y-124652381D02*
X146376191Y-123652381D01*
X146471429Y-123795238D01*
X146566667Y-123890476D01*
X146661905Y-123938095D01*
X145138095Y-124652381D02*
X145709524Y-124652381D01*
X145423810Y-124652381D02*
X145423810Y-123652381D01*
X145519048Y-123795238D01*
X145614286Y-123890476D01*
X145709524Y-123938095D01*
X149316666Y-124752381D02*
X149650000Y-124276190D01*
X149888095Y-124752381D02*
X149888095Y-123752381D01*
X149507142Y-123752381D01*
X149411904Y-123800000D01*
X149364285Y-123847619D01*
X149316666Y-123942857D01*
X149316666Y-124085714D01*
X149364285Y-124180952D01*
X149411904Y-124228571D01*
X149507142Y-124276190D01*
X149888095Y-124276190D01*
X148840476Y-124752381D02*
X148650000Y-124752381D01*
X148554761Y-124704762D01*
X148507142Y-124657143D01*
X148411904Y-124514286D01*
X148364285Y-124323810D01*
X148364285Y-123942857D01*
X148411904Y-123847619D01*
X148459523Y-123800000D01*
X148554761Y-123752381D01*
X148745238Y-123752381D01*
X148840476Y-123800000D01*
X148888095Y-123847619D01*
X148935714Y-123942857D01*
X148935714Y-124180952D01*
X148888095Y-124276190D01*
X148840476Y-124323810D01*
X148745238Y-124371429D01*
X148554761Y-124371429D01*
X148459523Y-124323810D01*
X148411904Y-124276190D01*
X148364285Y-124180952D01*
X147092857Y-118902381D02*
X147426191Y-118426190D01*
X147664286Y-118902381D02*
X147664286Y-117902381D01*
X147283333Y-117902381D01*
X147188095Y-117950000D01*
X147140476Y-117997619D01*
X147092857Y-118092857D01*
X147092857Y-118235714D01*
X147140476Y-118330952D01*
X147188095Y-118378571D01*
X147283333Y-118426190D01*
X147664286Y-118426190D01*
X146140476Y-118902381D02*
X146711905Y-118902381D01*
X146426191Y-118902381D02*
X146426191Y-117902381D01*
X146521429Y-118045238D01*
X146616667Y-118140476D01*
X146711905Y-118188095D01*
X145521429Y-117902381D02*
X145426190Y-117902381D01*
X145330952Y-117950000D01*
X145283333Y-117997619D01*
X145235714Y-118092857D01*
X145188095Y-118283333D01*
X145188095Y-118521429D01*
X145235714Y-118711905D01*
X145283333Y-118807143D01*
X145330952Y-118854762D01*
X145426190Y-118902381D01*
X145521429Y-118902381D01*
X145616667Y-118854762D01*
X145664286Y-118807143D01*
X145711905Y-118711905D01*
X145759524Y-118521429D01*
X145759524Y-118283333D01*
X145711905Y-118092857D01*
X145664286Y-117997619D01*
X145616667Y-117950000D01*
X145521429Y-117902381D01*
X137993381Y-125309405D02*
X136993381Y-125309405D01*
X136993381Y-125547500D01*
X137041000Y-125690358D01*
X137136238Y-125785596D01*
X137231476Y-125833215D01*
X137421952Y-125880834D01*
X137564810Y-125880834D01*
X137755286Y-125833215D01*
X137850524Y-125785596D01*
X137945762Y-125690358D01*
X137993381Y-125547500D01*
X137993381Y-125309405D01*
X136993381Y-126214167D02*
X136993381Y-126833215D01*
X137374333Y-126499881D01*
X137374333Y-126642739D01*
X137421952Y-126737977D01*
X137469571Y-126785596D01*
X137564810Y-126833215D01*
X137802905Y-126833215D01*
X137898143Y-126785596D01*
X137945762Y-126737977D01*
X137993381Y-126642739D01*
X137993381Y-126357024D01*
X137945762Y-126261786D01*
X137898143Y-126214167D01*
X113867881Y-102735143D02*
X113391690Y-102401809D01*
X113867881Y-102163714D02*
X112867881Y-102163714D01*
X112867881Y-102544667D01*
X112915500Y-102639905D01*
X112963119Y-102687524D01*
X113058357Y-102735143D01*
X113201214Y-102735143D01*
X113296452Y-102687524D01*
X113344071Y-102639905D01*
X113391690Y-102544667D01*
X113391690Y-102163714D01*
X113867881Y-103687524D02*
X113867881Y-103116095D01*
X113867881Y-103401809D02*
X112867881Y-103401809D01*
X113010738Y-103306571D01*
X113105976Y-103211333D01*
X113153595Y-103116095D01*
X112867881Y-104592286D02*
X112867881Y-104116095D01*
X113344071Y-104068476D01*
X113296452Y-104116095D01*
X113248833Y-104211333D01*
X113248833Y-104449429D01*
X113296452Y-104544667D01*
X113344071Y-104592286D01*
X113439310Y-104639905D01*
X113677405Y-104639905D01*
X113772643Y-104592286D01*
X113820262Y-104544667D01*
X113867881Y-104449429D01*
X113867881Y-104211333D01*
X113820262Y-104116095D01*
X113772643Y-104068476D01*
M02*
