%FSLAX46Y46*%
G04 Gerber Fmt 4.6, Leading zero omitted, Abs format (unit mm)*
G04 Created by KiCad (PCBNEW (2014-10-27 BZR 5228)-product) date 28/06/2015 08:06:50*
%MOMM*%
G01*
G04 APERTURE LIST*
%ADD10C,0.100000*%
%ADD11R,0.899160X1.249680*%
%ADD12R,0.500380X1.998980*%
%ADD13R,2.032000X2.032000*%
%ADD14O,2.032000X2.032000*%
%ADD15R,2.032000X1.727200*%
%ADD16O,2.032000X1.727200*%
%ADD17R,1.727200X1.727200*%
%ADD18O,1.727200X1.727200*%
%ADD19C,1.778000*%
%ADD20R,1.778000X1.778000*%
%ADD21C,6.350000*%
%ADD22R,1.500000X1.250000*%
%ADD23R,0.910000X1.220000*%
%ADD24R,1.500000X1.300000*%
G04 APERTURE END LIST*
D10*
D11*
X148398880Y-108500000D03*
X146001120Y-108500000D03*
D12*
X147200000Y-108500000D03*
D13*
X160650000Y-125600000D03*
D14*
X160650000Y-123060000D03*
D15*
X120650000Y-129794000D03*
D16*
X120650000Y-127254000D03*
X120650000Y-124714000D03*
D17*
X143700000Y-104800000D03*
D18*
X143700000Y-102260000D03*
X141160000Y-104800000D03*
X141160000Y-102260000D03*
X138620000Y-104800000D03*
X138620000Y-102260000D03*
X136080000Y-104800000D03*
X136080000Y-102260000D03*
X133540000Y-104800000D03*
X133540000Y-102260000D03*
X131000000Y-104800000D03*
X131000000Y-102260000D03*
D17*
X158900000Y-104800000D03*
D18*
X158900000Y-102260000D03*
X156360000Y-104800000D03*
X156360000Y-102260000D03*
X153820000Y-104800000D03*
X153820000Y-102260000D03*
X151280000Y-104800000D03*
X151280000Y-102260000D03*
X148740000Y-104800000D03*
X148740000Y-102260000D03*
X146200000Y-104800000D03*
X146200000Y-102260000D03*
D19*
X152500000Y-117640000D03*
D20*
X152500000Y-115100000D03*
D19*
X152500000Y-112560000D03*
X144350000Y-117690000D03*
D20*
X144350000Y-115150000D03*
D19*
X144350000Y-112610000D03*
D13*
X128016000Y-136906000D03*
D14*
X128016000Y-134366000D03*
D21*
X118618000Y-136398000D03*
X160400000Y-136400000D03*
D22*
X145150000Y-122600000D03*
X147650000Y-122600000D03*
D23*
X141665000Y-125850000D03*
X144935000Y-125850000D03*
D24*
X150550000Y-125850000D03*
X147850000Y-125850000D03*
X145050000Y-120100000D03*
X147750000Y-120100000D03*
D15*
X120650000Y-102616000D03*
D16*
X120650000Y-105156000D03*
X120650000Y-107696000D03*
X120650000Y-110236000D03*
X120650000Y-112776000D03*
X120650000Y-115316000D03*
X120650000Y-117856000D03*
X120650000Y-120396000D03*
M02*
