G04 #@! TF.FileFunction,Copper,L2,Bot,Signal*
%FSLAX46Y46*%
G04 Gerber Fmt 4.6, Leading zero omitted, Abs format (unit mm)*
G04 Created by KiCad (PCBNEW 4.0.1-stable) date 24/01/2016 09:13:41*
%MOMM*%
G01*
G04 APERTURE LIST*
%ADD10C,0.100000*%
%ADD11R,0.899160X1.249680*%
%ADD12R,0.500380X1.998980*%
%ADD13R,2.032000X2.032000*%
%ADD14O,2.032000X2.032000*%
%ADD15R,2.032000X1.727200*%
%ADD16O,2.032000X1.727200*%
%ADD17R,1.727200X1.727200*%
%ADD18O,1.727200X1.727200*%
%ADD19C,1.778000*%
%ADD20R,1.778000X1.778000*%
%ADD21C,6.350000*%
%ADD22R,1.500000X1.250000*%
%ADD23R,1.500000X1.300000*%
%ADD24R,1.800860X0.800100*%
%ADD25R,1.300000X1.500000*%
%ADD26C,0.889000*%
%ADD27C,0.780000*%
%ADD28C,0.254000*%
%ADD29C,0.350000*%
G04 APERTURE END LIST*
D10*
D11*
X148398880Y-108500000D03*
X146001120Y-108500000D03*
D12*
X147200000Y-108500000D03*
D13*
X160650000Y-125600000D03*
D14*
X160650000Y-123060000D03*
D15*
X104076500Y-128206500D03*
D16*
X104076500Y-125666500D03*
X104076500Y-123126500D03*
D17*
X143700000Y-104800000D03*
D18*
X143700000Y-102260000D03*
X141160000Y-104800000D03*
X141160000Y-102260000D03*
X138620000Y-104800000D03*
X138620000Y-102260000D03*
X136080000Y-104800000D03*
X136080000Y-102260000D03*
X133540000Y-104800000D03*
X133540000Y-102260000D03*
X131000000Y-104800000D03*
X131000000Y-102260000D03*
D17*
X158900000Y-104800000D03*
D18*
X158900000Y-102260000D03*
X156360000Y-104800000D03*
X156360000Y-102260000D03*
X153820000Y-104800000D03*
X153820000Y-102260000D03*
X151280000Y-104800000D03*
X151280000Y-102260000D03*
X148740000Y-104800000D03*
X148740000Y-102260000D03*
X146200000Y-104800000D03*
X146200000Y-102260000D03*
D19*
X152500000Y-117640000D03*
D20*
X152500000Y-115100000D03*
D19*
X152500000Y-112560000D03*
X144350000Y-117690000D03*
D20*
X144350000Y-115150000D03*
D19*
X144350000Y-112610000D03*
D13*
X119062500Y-135572500D03*
D14*
X119062500Y-133032500D03*
D21*
X103568500Y-136144000D03*
X160400000Y-136400000D03*
D22*
X145150000Y-122600000D03*
X147650000Y-122600000D03*
D23*
X150550000Y-125850000D03*
X147850000Y-125850000D03*
X145050000Y-120100000D03*
X147750000Y-120100000D03*
D24*
X142852140Y-125097500D03*
X142852140Y-126997500D03*
X139849860Y-126047500D03*
D15*
X105092500Y-104521000D03*
D16*
X105092500Y-107061000D03*
X105092500Y-109601000D03*
X105092500Y-112141000D03*
X105092500Y-114681000D03*
D25*
X111315500Y-104728000D03*
X111315500Y-102028000D03*
D26*
X119888000Y-122936000D03*
X119697500Y-104584500D03*
X119570500Y-117729000D03*
X137900000Y-134400000D03*
X133800000Y-111500000D03*
X136250000Y-112650000D03*
X147050000Y-129400000D03*
X135500000Y-120350000D03*
X141097000Y-106934000D03*
X129476500Y-110109000D03*
X152550000Y-127450000D03*
X139550000Y-124100000D03*
X139550000Y-119850000D03*
X132100000Y-108200000D03*
X135950000Y-114350000D03*
X117221000Y-107188000D03*
X117348000Y-113284000D03*
X113284000Y-99949000D03*
X118046500Y-99949000D03*
D27*
X148398880Y-108500000D02*
X148398880Y-110698880D01*
X150260000Y-112560000D02*
X152500000Y-112560000D01*
X148398880Y-110698880D02*
X150260000Y-112560000D01*
X146001120Y-108500000D02*
X146001120Y-104998880D01*
X146001120Y-104998880D02*
X146200000Y-104800000D01*
X146200000Y-104800000D02*
X148740000Y-104800000D01*
D28*
X137795000Y-110236000D02*
X141097000Y-106934000D01*
X129603500Y-110236000D02*
X137795000Y-110236000D01*
X129476500Y-110109000D02*
X129603500Y-110236000D01*
X152550000Y-127450000D02*
X150950000Y-125850000D01*
X150950000Y-125850000D02*
X150550000Y-125850000D01*
X139550000Y-124100000D02*
X139550000Y-119850000D01*
X143700000Y-104800000D02*
X143612000Y-104800000D01*
X143700000Y-102260000D02*
X143700000Y-102044000D01*
D29*
X138620000Y-106230000D02*
X138620000Y-104800000D01*
X137050000Y-107800000D02*
X138620000Y-106230000D01*
X132500000Y-107800000D02*
X137050000Y-107800000D01*
X132100000Y-108200000D02*
X132500000Y-107800000D01*
D28*
X139849860Y-126047500D02*
X144716500Y-126047500D01*
X144716500Y-126047500D02*
X144935000Y-125829000D01*
X145050000Y-120100000D02*
X141700000Y-120100000D01*
X141700000Y-120100000D02*
X135950000Y-114350000D01*
X145150000Y-122600000D02*
X145150000Y-120200000D01*
X145150000Y-120200000D02*
X145050000Y-120100000D01*
X144935000Y-125850000D02*
X144935000Y-125829000D01*
X144935000Y-125829000D02*
X144935000Y-125095000D01*
X144935000Y-125095000D02*
X144935000Y-122815000D01*
X144935000Y-122815000D02*
X145150000Y-122600000D01*
X147850000Y-125850000D02*
X144935000Y-125850000D01*
X141160000Y-104800000D02*
X141160000Y-104966000D01*
X136080000Y-102260000D02*
X136080000Y-101790000D01*
X105092500Y-104521000D02*
X105854500Y-104521000D01*
X105854500Y-104521000D02*
X108347500Y-102028000D01*
X108347500Y-102028000D02*
X111315500Y-102028000D01*
X117221000Y-107188000D02*
X111315500Y-107188000D01*
X106680000Y-108648500D02*
X106680000Y-109029500D01*
X111315500Y-107188000D02*
X108140500Y-107188000D01*
X108140500Y-107188000D02*
X106680000Y-108648500D01*
X106680000Y-109029500D02*
X106108500Y-109601000D01*
X106108500Y-109601000D02*
X105092500Y-109601000D01*
X111315500Y-104728000D02*
X111315500Y-107188000D01*
X105854500Y-109474000D02*
X105664000Y-109664500D01*
X108267500Y-113284000D02*
X117348000Y-113284000D01*
X105092500Y-114681000D02*
X106997500Y-114681000D01*
X108394500Y-113284000D02*
X108331000Y-113284000D01*
X106997500Y-114681000D02*
X108394500Y-113284000D01*
X118046500Y-99949000D02*
X113284000Y-99949000D01*
G36*
X163315000Y-139315000D02*
X100360432Y-139315000D01*
X100345656Y-137191750D01*
X126365000Y-137191750D01*
X126365000Y-138048310D01*
X126461673Y-138281699D01*
X126640302Y-138460327D01*
X126873691Y-138557000D01*
X127730250Y-138557000D01*
X127889000Y-138398250D01*
X127889000Y-137033000D01*
X128143000Y-137033000D01*
X128143000Y-138398250D01*
X128301750Y-138557000D01*
X129158309Y-138557000D01*
X129391698Y-138460327D01*
X129570327Y-138281699D01*
X129667000Y-138048310D01*
X129667000Y-137191750D01*
X129508250Y-137033000D01*
X128143000Y-137033000D01*
X127889000Y-137033000D01*
X126523750Y-137033000D01*
X126365000Y-137191750D01*
X100345656Y-137191750D01*
X100325990Y-134366000D01*
X126332655Y-134366000D01*
X126458330Y-134997810D01*
X126682966Y-135334001D01*
X126640302Y-135351673D01*
X126461673Y-135530301D01*
X126365000Y-135763690D01*
X126365000Y-136620250D01*
X126523750Y-136779000D01*
X127889000Y-136779000D01*
X127889000Y-136759000D01*
X128143000Y-136759000D01*
X128143000Y-136779000D01*
X129508250Y-136779000D01*
X129667000Y-136620250D01*
X129667000Y-135763690D01*
X129570327Y-135530301D01*
X129391698Y-135351673D01*
X129349034Y-135334001D01*
X129573670Y-134997810D01*
X129699345Y-134366000D01*
X129573670Y-133734190D01*
X129215778Y-133198567D01*
X128680155Y-132840675D01*
X128048345Y-132715000D01*
X127983655Y-132715000D01*
X127351845Y-132840675D01*
X126816222Y-133198567D01*
X126458330Y-133734190D01*
X126332655Y-134366000D01*
X100325990Y-134366000D01*
X100285111Y-128492250D01*
X102425500Y-128492250D01*
X102425500Y-129196410D01*
X102522173Y-129429799D01*
X102700802Y-129608427D01*
X102934191Y-129705100D01*
X103790750Y-129705100D01*
X103949500Y-129546350D01*
X103949500Y-128333500D01*
X104203500Y-128333500D01*
X104203500Y-129546350D01*
X104362250Y-129705100D01*
X105218809Y-129705100D01*
X105452198Y-129608427D01*
X105630827Y-129429799D01*
X105727500Y-129196410D01*
X105727500Y-128492250D01*
X105568750Y-128333500D01*
X104203500Y-128333500D01*
X103949500Y-128333500D01*
X102584250Y-128333500D01*
X102425500Y-128492250D01*
X100285111Y-128492250D01*
X100247767Y-123126500D01*
X102393155Y-123126500D01*
X102507229Y-123699989D01*
X102832085Y-124186170D01*
X103146866Y-124396500D01*
X102832085Y-124606830D01*
X102507229Y-125093011D01*
X102393155Y-125666500D01*
X102507229Y-126239989D01*
X102832085Y-126726170D01*
X102854280Y-126741000D01*
X102700802Y-126804573D01*
X102522173Y-126983201D01*
X102425500Y-127216590D01*
X102425500Y-127920750D01*
X102584250Y-128079500D01*
X103949500Y-128079500D01*
X103949500Y-128059500D01*
X104203500Y-128059500D01*
X104203500Y-128079500D01*
X105568750Y-128079500D01*
X105727500Y-127920750D01*
X105727500Y-127283250D01*
X141316710Y-127283250D01*
X141316710Y-127523859D01*
X141413383Y-127757248D01*
X141592011Y-127935877D01*
X141825400Y-128032550D01*
X142566390Y-128032550D01*
X142725140Y-127873800D01*
X142725140Y-127124500D01*
X142979140Y-127124500D01*
X142979140Y-127873800D01*
X143137890Y-128032550D01*
X143878880Y-128032550D01*
X144112269Y-127935877D01*
X144290897Y-127757248D01*
X144387570Y-127523859D01*
X144387570Y-127283250D01*
X144228820Y-127124500D01*
X142979140Y-127124500D01*
X142725140Y-127124500D01*
X141475460Y-127124500D01*
X141316710Y-127283250D01*
X105727500Y-127283250D01*
X105727500Y-127216590D01*
X105630827Y-126983201D01*
X105452198Y-126804573D01*
X105298720Y-126741000D01*
X105320915Y-126726170D01*
X105645771Y-126239989D01*
X105759845Y-125666500D01*
X105645771Y-125093011D01*
X105320915Y-124606830D01*
X105006134Y-124396500D01*
X105320915Y-124186170D01*
X105645771Y-123699989D01*
X105759845Y-123126500D01*
X105645771Y-122553011D01*
X105320915Y-122066830D01*
X104834734Y-121741974D01*
X104261245Y-121627900D01*
X103891755Y-121627900D01*
X103318266Y-121741974D01*
X102832085Y-122066830D01*
X102507229Y-122553011D01*
X102393155Y-123126500D01*
X100247767Y-123126500D01*
X100191000Y-114969982D01*
X100191000Y-107061000D01*
X103409155Y-107061000D01*
X103523229Y-107634489D01*
X103848085Y-108120670D01*
X104162866Y-108331000D01*
X103848085Y-108541330D01*
X103523229Y-109027511D01*
X103409155Y-109601000D01*
X103523229Y-110174489D01*
X103848085Y-110660670D01*
X104162866Y-110871000D01*
X103848085Y-111081330D01*
X103523229Y-111567511D01*
X103409155Y-112141000D01*
X103523229Y-112714489D01*
X103848085Y-113200670D01*
X104162866Y-113411000D01*
X103848085Y-113621330D01*
X103523229Y-114107511D01*
X103409155Y-114681000D01*
X103523229Y-115254489D01*
X103848085Y-115740670D01*
X104334266Y-116065526D01*
X104907755Y-116179600D01*
X105277245Y-116179600D01*
X105850734Y-116065526D01*
X106336915Y-115740670D01*
X106535812Y-115443000D01*
X106997500Y-115443000D01*
X107289105Y-115384996D01*
X107536315Y-115219815D01*
X108192346Y-114563784D01*
X134870313Y-114563784D01*
X135034311Y-114960689D01*
X135337714Y-115264622D01*
X135734332Y-115429313D01*
X135951872Y-115429502D01*
X139305411Y-118783041D01*
X138939311Y-118934311D01*
X138635378Y-119237714D01*
X138470687Y-119634332D01*
X138470313Y-120063784D01*
X138634311Y-120460689D01*
X138788000Y-120614646D01*
X138788000Y-123335358D01*
X138635378Y-123487714D01*
X138470687Y-123884332D01*
X138470313Y-124313784D01*
X138634311Y-124710689D01*
X138927287Y-125004177D01*
X138714113Y-125044288D01*
X138497989Y-125183360D01*
X138352999Y-125395560D01*
X138301990Y-125647450D01*
X138301990Y-126447550D01*
X138346268Y-126682867D01*
X138485340Y-126898991D01*
X138697540Y-127043981D01*
X138949430Y-127094990D01*
X140750290Y-127094990D01*
X140985607Y-127050712D01*
X141201731Y-126911640D01*
X141271520Y-126809500D01*
X141414460Y-126809500D01*
X141475460Y-126870500D01*
X142725140Y-126870500D01*
X142725140Y-126850500D01*
X142979140Y-126850500D01*
X142979140Y-126870500D01*
X144228820Y-126870500D01*
X144289820Y-126809500D01*
X144716500Y-126809500D01*
X145008105Y-126751496D01*
X145216875Y-126612000D01*
X146473634Y-126612000D01*
X146496838Y-126735317D01*
X146635910Y-126951441D01*
X146848110Y-127096431D01*
X147100000Y-127147440D01*
X148600000Y-127147440D01*
X148835317Y-127103162D01*
X149051441Y-126964090D01*
X149196431Y-126751890D01*
X149199081Y-126738803D01*
X149335910Y-126951441D01*
X149548110Y-127096431D01*
X149800000Y-127147440D01*
X151169810Y-127147440D01*
X151470501Y-127448131D01*
X151470313Y-127663784D01*
X151634311Y-128060689D01*
X151937714Y-128364622D01*
X152334332Y-128529313D01*
X152763784Y-128529687D01*
X153160689Y-128365689D01*
X153464622Y-128062286D01*
X153629313Y-127665668D01*
X153629687Y-127236216D01*
X153465689Y-126839311D01*
X153162286Y-126535378D01*
X152765668Y-126370687D01*
X152548128Y-126370498D01*
X152063380Y-125885750D01*
X158999000Y-125885750D01*
X158999000Y-126742310D01*
X159095673Y-126975699D01*
X159274302Y-127154327D01*
X159507691Y-127251000D01*
X160364250Y-127251000D01*
X160523000Y-127092250D01*
X160523000Y-125727000D01*
X160777000Y-125727000D01*
X160777000Y-127092250D01*
X160935750Y-127251000D01*
X161792309Y-127251000D01*
X162025698Y-127154327D01*
X162204327Y-126975699D01*
X162301000Y-126742310D01*
X162301000Y-125885750D01*
X162142250Y-125727000D01*
X160777000Y-125727000D01*
X160523000Y-125727000D01*
X159157750Y-125727000D01*
X158999000Y-125885750D01*
X152063380Y-125885750D01*
X151947440Y-125769810D01*
X151947440Y-125200000D01*
X151903162Y-124964683D01*
X151764090Y-124748559D01*
X151551890Y-124603569D01*
X151300000Y-124552560D01*
X149800000Y-124552560D01*
X149564683Y-124596838D01*
X149348559Y-124735910D01*
X149203569Y-124948110D01*
X149200919Y-124961197D01*
X149064090Y-124748559D01*
X148851890Y-124603569D01*
X148600000Y-124552560D01*
X147100000Y-124552560D01*
X146864683Y-124596838D01*
X146648559Y-124735910D01*
X146503569Y-124948110D01*
X146475241Y-125088000D01*
X145697000Y-125088000D01*
X145697000Y-123872440D01*
X145900000Y-123872440D01*
X146135317Y-123828162D01*
X146351441Y-123689090D01*
X146397969Y-123620994D01*
X146540302Y-123763327D01*
X146773691Y-123860000D01*
X147364250Y-123860000D01*
X147523000Y-123701250D01*
X147523000Y-122727000D01*
X147777000Y-122727000D01*
X147777000Y-123701250D01*
X147935750Y-123860000D01*
X148526309Y-123860000D01*
X148759698Y-123763327D01*
X148938327Y-123584699D01*
X149035000Y-123351310D01*
X149035000Y-123060000D01*
X158966655Y-123060000D01*
X159092330Y-123691810D01*
X159316966Y-124028001D01*
X159274302Y-124045673D01*
X159095673Y-124224301D01*
X158999000Y-124457690D01*
X158999000Y-125314250D01*
X159157750Y-125473000D01*
X160523000Y-125473000D01*
X160523000Y-125453000D01*
X160777000Y-125453000D01*
X160777000Y-125473000D01*
X162142250Y-125473000D01*
X162301000Y-125314250D01*
X162301000Y-124457690D01*
X162204327Y-124224301D01*
X162025698Y-124045673D01*
X161983034Y-124028001D01*
X162207670Y-123691810D01*
X162333345Y-123060000D01*
X162207670Y-122428190D01*
X161849778Y-121892567D01*
X161314155Y-121534675D01*
X160682345Y-121409000D01*
X160617655Y-121409000D01*
X159985845Y-121534675D01*
X159450222Y-121892567D01*
X159092330Y-122428190D01*
X158966655Y-123060000D01*
X149035000Y-123060000D01*
X149035000Y-122885750D01*
X148876250Y-122727000D01*
X147777000Y-122727000D01*
X147523000Y-122727000D01*
X147503000Y-122727000D01*
X147503000Y-122473000D01*
X147523000Y-122473000D01*
X147523000Y-121498750D01*
X147777000Y-121498750D01*
X147777000Y-122473000D01*
X148876250Y-122473000D01*
X149035000Y-122314250D01*
X149035000Y-121848690D01*
X148938327Y-121615301D01*
X148759698Y-121436673D01*
X148630629Y-121383211D01*
X148859698Y-121288327D01*
X149038327Y-121109699D01*
X149135000Y-120876310D01*
X149135000Y-120385750D01*
X148976250Y-120227000D01*
X147877000Y-120227000D01*
X147877000Y-121226250D01*
X147990750Y-121340000D01*
X147935750Y-121340000D01*
X147777000Y-121498750D01*
X147523000Y-121498750D01*
X147409250Y-121385000D01*
X147464250Y-121385000D01*
X147623000Y-121226250D01*
X147623000Y-120227000D01*
X147603000Y-120227000D01*
X147603000Y-119973000D01*
X147623000Y-119973000D01*
X147623000Y-118973750D01*
X147877000Y-118973750D01*
X147877000Y-119973000D01*
X148976250Y-119973000D01*
X149135000Y-119814250D01*
X149135000Y-119323690D01*
X149038327Y-119090301D01*
X148859698Y-118911673D01*
X148626309Y-118815000D01*
X148035750Y-118815000D01*
X147877000Y-118973750D01*
X147623000Y-118973750D01*
X147464250Y-118815000D01*
X146873691Y-118815000D01*
X146640302Y-118911673D01*
X146461673Y-119090301D01*
X146405346Y-119226287D01*
X146403162Y-119214683D01*
X146264090Y-118998559D01*
X146051890Y-118853569D01*
X145800000Y-118802560D01*
X145392642Y-118802560D01*
X145641231Y-118554404D01*
X145873735Y-117994472D01*
X145873780Y-117941812D01*
X150975736Y-117941812D01*
X151207262Y-118502149D01*
X151635596Y-118931231D01*
X152195528Y-119163735D01*
X152801812Y-119164264D01*
X153362149Y-118932738D01*
X153791231Y-118504404D01*
X154023735Y-117944472D01*
X154024264Y-117338188D01*
X153792738Y-116777851D01*
X153602926Y-116587708D01*
X153748698Y-116527327D01*
X153927327Y-116348699D01*
X154024000Y-116115310D01*
X154024000Y-115385750D01*
X153865250Y-115227000D01*
X152627000Y-115227000D01*
X152627000Y-115247000D01*
X152373000Y-115247000D01*
X152373000Y-115227000D01*
X151134750Y-115227000D01*
X150976000Y-115385750D01*
X150976000Y-116115310D01*
X151072673Y-116348699D01*
X151251302Y-116527327D01*
X151397011Y-116587682D01*
X151208769Y-116775596D01*
X150976265Y-117335528D01*
X150975736Y-117941812D01*
X145873780Y-117941812D01*
X145874264Y-117388188D01*
X145642738Y-116827851D01*
X145452926Y-116637708D01*
X145598698Y-116577327D01*
X145777327Y-116398699D01*
X145874000Y-116165310D01*
X145874000Y-115435750D01*
X145715250Y-115277000D01*
X144477000Y-115277000D01*
X144477000Y-115297000D01*
X144223000Y-115297000D01*
X144223000Y-115277000D01*
X142984750Y-115277000D01*
X142826000Y-115435750D01*
X142826000Y-116165310D01*
X142922673Y-116398699D01*
X143101302Y-116577327D01*
X143247011Y-116637682D01*
X143058769Y-116825596D01*
X142826265Y-117385528D01*
X142825736Y-117991812D01*
X143057262Y-118552149D01*
X143485596Y-118981231D01*
X143770830Y-119099670D01*
X143703569Y-119198110D01*
X143675241Y-119338000D01*
X142015630Y-119338000D01*
X137029499Y-114351869D01*
X137029687Y-114136216D01*
X136865689Y-113739311D01*
X136562286Y-113435378D01*
X136165668Y-113270687D01*
X135736216Y-113270313D01*
X135339311Y-113434311D01*
X135035378Y-113737714D01*
X134870687Y-114134332D01*
X134870313Y-114563784D01*
X108192346Y-114563784D01*
X108710131Y-114046000D01*
X116583358Y-114046000D01*
X116735714Y-114198622D01*
X117132332Y-114363313D01*
X117561784Y-114363687D01*
X117958689Y-114199689D01*
X118262622Y-113896286D01*
X118427313Y-113499668D01*
X118427687Y-113070216D01*
X118362236Y-112911812D01*
X142825736Y-112911812D01*
X143057262Y-113472149D01*
X143247074Y-113662292D01*
X143101302Y-113722673D01*
X142922673Y-113901301D01*
X142826000Y-114134690D01*
X142826000Y-114864250D01*
X142984750Y-115023000D01*
X144223000Y-115023000D01*
X144223000Y-115003000D01*
X144477000Y-115003000D01*
X144477000Y-115023000D01*
X145715250Y-115023000D01*
X145874000Y-114864250D01*
X145874000Y-114134690D01*
X145777327Y-113901301D01*
X145598698Y-113722673D01*
X145452989Y-113662318D01*
X145641231Y-113474404D01*
X145873735Y-112914472D01*
X145874264Y-112308188D01*
X145642738Y-111747851D01*
X145214404Y-111318769D01*
X144654472Y-111086265D01*
X144048188Y-111085736D01*
X143487851Y-111317262D01*
X143058769Y-111745596D01*
X142826265Y-112305528D01*
X142825736Y-112911812D01*
X118362236Y-112911812D01*
X118263689Y-112673311D01*
X117960286Y-112369378D01*
X117563668Y-112204687D01*
X117134216Y-112204313D01*
X116737311Y-112368311D01*
X116583354Y-112522000D01*
X108267500Y-112522000D01*
X107975895Y-112580004D01*
X107728685Y-112745185D01*
X107563504Y-112992395D01*
X107552338Y-113048531D01*
X106681870Y-113919000D01*
X106535812Y-113919000D01*
X106336915Y-113621330D01*
X106022134Y-113411000D01*
X106336915Y-113200670D01*
X106661771Y-112714489D01*
X106775845Y-112141000D01*
X106661771Y-111567511D01*
X106336915Y-111081330D01*
X106022134Y-110871000D01*
X106336915Y-110660670D01*
X106562683Y-110322784D01*
X128396813Y-110322784D01*
X128560811Y-110719689D01*
X128864214Y-111023622D01*
X129260832Y-111188313D01*
X129690284Y-111188687D01*
X130087189Y-111024689D01*
X130113925Y-110998000D01*
X137795000Y-110998000D01*
X138086605Y-110939996D01*
X138333815Y-110774815D01*
X141095131Y-108013499D01*
X141310784Y-108013687D01*
X141707689Y-107849689D01*
X142011622Y-107546286D01*
X142176313Y-107149668D01*
X142176687Y-106720216D01*
X142012689Y-106323311D01*
X141829613Y-106139915D01*
X142228442Y-105873426D01*
X142233238Y-105898917D01*
X142372310Y-106115041D01*
X142584510Y-106260031D01*
X142836400Y-106311040D01*
X144563600Y-106311040D01*
X144798917Y-106266762D01*
X144976120Y-106152735D01*
X144976120Y-107592519D01*
X144955109Y-107623270D01*
X144904100Y-107875160D01*
X144904100Y-109124840D01*
X144948378Y-109360157D01*
X145087450Y-109576281D01*
X145299650Y-109721271D01*
X145551540Y-109772280D01*
X146375484Y-109772280D01*
X146411483Y-109859189D01*
X146590112Y-110037817D01*
X146823501Y-110134490D01*
X146916155Y-110134490D01*
X147074905Y-109975740D01*
X147074905Y-109239578D01*
X147098140Y-109124840D01*
X147098140Y-107875160D01*
X147301860Y-107875160D01*
X147301860Y-109124840D01*
X147325095Y-109248323D01*
X147325095Y-109975740D01*
X147373880Y-110024525D01*
X147373880Y-110698880D01*
X147421841Y-110939996D01*
X147451903Y-111091131D01*
X147674096Y-111423664D01*
X149535215Y-113284784D01*
X149819000Y-113474404D01*
X149867749Y-113506977D01*
X150260000Y-113585000D01*
X151369829Y-113585000D01*
X151397074Y-113612292D01*
X151251302Y-113672673D01*
X151072673Y-113851301D01*
X150976000Y-114084690D01*
X150976000Y-114814250D01*
X151134750Y-114973000D01*
X152373000Y-114973000D01*
X152373000Y-114953000D01*
X152627000Y-114953000D01*
X152627000Y-114973000D01*
X153865250Y-114973000D01*
X154024000Y-114814250D01*
X154024000Y-114084690D01*
X153927327Y-113851301D01*
X153748698Y-113672673D01*
X153602989Y-113612318D01*
X153791231Y-113424404D01*
X154023735Y-112864472D01*
X154024264Y-112258188D01*
X153792738Y-111697851D01*
X153364404Y-111268769D01*
X152804472Y-111036265D01*
X152198188Y-111035736D01*
X151637851Y-111267262D01*
X151369645Y-111535000D01*
X150684569Y-111535000D01*
X149423880Y-110274312D01*
X149423880Y-109407481D01*
X149444891Y-109376730D01*
X149495900Y-109124840D01*
X149495900Y-107875160D01*
X149451622Y-107639843D01*
X149312550Y-107423719D01*
X149100350Y-107278729D01*
X148848460Y-107227720D01*
X148024516Y-107227720D01*
X147988517Y-107140811D01*
X147809888Y-106962183D01*
X147576499Y-106865510D01*
X147483845Y-106865510D01*
X147325095Y-107024260D01*
X147325095Y-107760422D01*
X147301860Y-107875160D01*
X147098140Y-107875160D01*
X147074905Y-107751677D01*
X147074905Y-107024260D01*
X147026120Y-106975475D01*
X147026120Y-106035340D01*
X147289029Y-105859670D01*
X147312195Y-105825000D01*
X147627805Y-105825000D01*
X147650971Y-105859670D01*
X148137152Y-106184526D01*
X148710641Y-106298600D01*
X148769359Y-106298600D01*
X149342848Y-106184526D01*
X149829029Y-105859670D01*
X150010000Y-105588828D01*
X150190971Y-105859670D01*
X150677152Y-106184526D01*
X151250641Y-106298600D01*
X151309359Y-106298600D01*
X151882848Y-106184526D01*
X152369029Y-105859670D01*
X152550000Y-105588828D01*
X152730971Y-105859670D01*
X153217152Y-106184526D01*
X153790641Y-106298600D01*
X153849359Y-106298600D01*
X154422848Y-106184526D01*
X154909029Y-105859670D01*
X155090000Y-105588828D01*
X155270971Y-105859670D01*
X155757152Y-106184526D01*
X156330641Y-106298600D01*
X156389359Y-106298600D01*
X156962848Y-106184526D01*
X157428442Y-105873426D01*
X157433238Y-105898917D01*
X157572310Y-106115041D01*
X157784510Y-106260031D01*
X158036400Y-106311040D01*
X159763600Y-106311040D01*
X159998917Y-106266762D01*
X160215041Y-106127690D01*
X160360031Y-105915490D01*
X160411040Y-105663600D01*
X160411040Y-103936400D01*
X160366762Y-103701083D01*
X160227690Y-103484959D01*
X160015490Y-103339969D01*
X159921625Y-103320961D01*
X160182688Y-103034947D01*
X160354958Y-102619026D01*
X160233817Y-102387000D01*
X159027000Y-102387000D01*
X159027000Y-102407000D01*
X158773000Y-102407000D01*
X158773000Y-102387000D01*
X156487000Y-102387000D01*
X156487000Y-102407000D01*
X156233000Y-102407000D01*
X156233000Y-102387000D01*
X153947000Y-102387000D01*
X153947000Y-102407000D01*
X153693000Y-102407000D01*
X153693000Y-102387000D01*
X151407000Y-102387000D01*
X151407000Y-102407000D01*
X151153000Y-102407000D01*
X151153000Y-102387000D01*
X148867000Y-102387000D01*
X148867000Y-102407000D01*
X148613000Y-102407000D01*
X148613000Y-102387000D01*
X146327000Y-102387000D01*
X146327000Y-102407000D01*
X146073000Y-102407000D01*
X146073000Y-102387000D01*
X146053000Y-102387000D01*
X146053000Y-102133000D01*
X146073000Y-102133000D01*
X146073000Y-100925531D01*
X146327000Y-100925531D01*
X146327000Y-102133000D01*
X148613000Y-102133000D01*
X148613000Y-100925531D01*
X148867000Y-100925531D01*
X148867000Y-102133000D01*
X151153000Y-102133000D01*
X151153000Y-100925531D01*
X151407000Y-100925531D01*
X151407000Y-102133000D01*
X153693000Y-102133000D01*
X153693000Y-100925531D01*
X153947000Y-100925531D01*
X153947000Y-102133000D01*
X156233000Y-102133000D01*
X156233000Y-100925531D01*
X156487000Y-100925531D01*
X156487000Y-102133000D01*
X158773000Y-102133000D01*
X158773000Y-100925531D01*
X159027000Y-100925531D01*
X159027000Y-102133000D01*
X160233817Y-102133000D01*
X160354958Y-101900974D01*
X160182688Y-101485053D01*
X159788490Y-101053179D01*
X159259027Y-100805032D01*
X159027000Y-100925531D01*
X158773000Y-100925531D01*
X158540973Y-100805032D01*
X158011510Y-101053179D01*
X157630000Y-101471152D01*
X157248490Y-101053179D01*
X156719027Y-100805032D01*
X156487000Y-100925531D01*
X156233000Y-100925531D01*
X156000973Y-100805032D01*
X155471510Y-101053179D01*
X155090000Y-101471152D01*
X154708490Y-101053179D01*
X154179027Y-100805032D01*
X153947000Y-100925531D01*
X153693000Y-100925531D01*
X153460973Y-100805032D01*
X152931510Y-101053179D01*
X152550000Y-101471152D01*
X152168490Y-101053179D01*
X151639027Y-100805032D01*
X151407000Y-100925531D01*
X151153000Y-100925531D01*
X150920973Y-100805032D01*
X150391510Y-101053179D01*
X150010000Y-101471152D01*
X149628490Y-101053179D01*
X149099027Y-100805032D01*
X148867000Y-100925531D01*
X148613000Y-100925531D01*
X148380973Y-100805032D01*
X147851510Y-101053179D01*
X147470000Y-101471152D01*
X147088490Y-101053179D01*
X146559027Y-100805032D01*
X146327000Y-100925531D01*
X146073000Y-100925531D01*
X145840973Y-100805032D01*
X145311510Y-101053179D01*
X144953087Y-101445859D01*
X144789029Y-101200330D01*
X144302848Y-100875474D01*
X143729359Y-100761400D01*
X143670641Y-100761400D01*
X143097152Y-100875474D01*
X142610971Y-101200330D01*
X142430000Y-101471172D01*
X142249029Y-101200330D01*
X141762848Y-100875474D01*
X141189359Y-100761400D01*
X141130641Y-100761400D01*
X140557152Y-100875474D01*
X140070971Y-101200330D01*
X139890000Y-101471172D01*
X139709029Y-101200330D01*
X139222848Y-100875474D01*
X138649359Y-100761400D01*
X138590641Y-100761400D01*
X138017152Y-100875474D01*
X137530971Y-101200330D01*
X137350000Y-101471172D01*
X137169029Y-101200330D01*
X136682848Y-100875474D01*
X136109359Y-100761400D01*
X136050641Y-100761400D01*
X135477152Y-100875474D01*
X134990971Y-101200330D01*
X134810000Y-101471172D01*
X134629029Y-101200330D01*
X134142848Y-100875474D01*
X133569359Y-100761400D01*
X133510641Y-100761400D01*
X132937152Y-100875474D01*
X132450971Y-101200330D01*
X132270000Y-101471172D01*
X132089029Y-101200330D01*
X131602848Y-100875474D01*
X131029359Y-100761400D01*
X130970641Y-100761400D01*
X130397152Y-100875474D01*
X129910971Y-101200330D01*
X129586115Y-101686511D01*
X129472041Y-102260000D01*
X129586115Y-102833489D01*
X129910971Y-103319670D01*
X130225752Y-103530000D01*
X129910971Y-103740330D01*
X129586115Y-104226511D01*
X129472041Y-104800000D01*
X129586115Y-105373489D01*
X129910971Y-105859670D01*
X130397152Y-106184526D01*
X130970641Y-106298600D01*
X131029359Y-106298600D01*
X131602848Y-106184526D01*
X132089029Y-105859670D01*
X132270000Y-105588828D01*
X132450971Y-105859670D01*
X132937152Y-106184526D01*
X133510641Y-106298600D01*
X133569359Y-106298600D01*
X134142848Y-106184526D01*
X134629029Y-105859670D01*
X134810000Y-105588828D01*
X134990971Y-105859670D01*
X135477152Y-106184526D01*
X136050641Y-106298600D01*
X136109359Y-106298600D01*
X136682848Y-106184526D01*
X137169029Y-105859670D01*
X137350000Y-105588828D01*
X137530971Y-105859670D01*
X137719108Y-105985379D01*
X136714488Y-106990000D01*
X132500000Y-106990000D01*
X132190026Y-107051658D01*
X132087277Y-107120313D01*
X132087015Y-107120488D01*
X131886216Y-107120313D01*
X131489311Y-107284311D01*
X131185378Y-107587714D01*
X131020687Y-107984332D01*
X131020313Y-108413784D01*
X131184311Y-108810689D01*
X131487714Y-109114622D01*
X131884332Y-109279313D01*
X132313784Y-109279687D01*
X132710689Y-109115689D01*
X133014622Y-108812286D01*
X133098619Y-108610000D01*
X137050000Y-108610000D01*
X137359974Y-108548342D01*
X137622756Y-108372756D01*
X139192756Y-106802757D01*
X139295369Y-106649185D01*
X139368342Y-106539974D01*
X139430000Y-106230000D01*
X139430000Y-106046111D01*
X139709029Y-105859670D01*
X139890000Y-105588828D01*
X140070971Y-105859670D01*
X140414973Y-106089525D01*
X140182378Y-106321714D01*
X140017687Y-106718332D01*
X140017498Y-106935872D01*
X137479370Y-109474000D01*
X130367920Y-109474000D01*
X130088786Y-109194378D01*
X129692168Y-109029687D01*
X129262716Y-109029313D01*
X128865811Y-109193311D01*
X128561878Y-109496714D01*
X128397187Y-109893332D01*
X128396813Y-110322784D01*
X106562683Y-110322784D01*
X106661771Y-110174489D01*
X106673970Y-110113160D01*
X107218815Y-109568315D01*
X107383996Y-109321105D01*
X107386325Y-109309395D01*
X107442000Y-109029500D01*
X107442000Y-108964130D01*
X108456130Y-107950000D01*
X116456358Y-107950000D01*
X116608714Y-108102622D01*
X117005332Y-108267313D01*
X117434784Y-108267687D01*
X117831689Y-108103689D01*
X118135622Y-107800286D01*
X118300313Y-107403668D01*
X118300687Y-106974216D01*
X118136689Y-106577311D01*
X117833286Y-106273378D01*
X117436668Y-106108687D01*
X117007216Y-106108313D01*
X116610311Y-106272311D01*
X116456354Y-106426000D01*
X112077500Y-106426000D01*
X112077500Y-106104366D01*
X112200817Y-106081162D01*
X112416941Y-105942090D01*
X112561931Y-105729890D01*
X112612940Y-105478000D01*
X112612940Y-103978000D01*
X112568662Y-103742683D01*
X112429590Y-103526559D01*
X112217390Y-103381569D01*
X112204303Y-103378919D01*
X112416941Y-103242090D01*
X112561931Y-103029890D01*
X112612940Y-102778000D01*
X112612940Y-101278000D01*
X112568662Y-101042683D01*
X112429590Y-100826559D01*
X112217390Y-100681569D01*
X111965500Y-100630560D01*
X110665500Y-100630560D01*
X110430183Y-100674838D01*
X110214059Y-100813910D01*
X110069069Y-101026110D01*
X110020490Y-101266000D01*
X108347500Y-101266000D01*
X108055895Y-101324004D01*
X107808684Y-101489185D01*
X106257697Y-103040173D01*
X106108500Y-103009960D01*
X104076500Y-103009960D01*
X103841183Y-103054238D01*
X103625059Y-103193310D01*
X103480069Y-103405510D01*
X103429060Y-103657400D01*
X103429060Y-105384600D01*
X103473338Y-105619917D01*
X103612410Y-105836041D01*
X103824610Y-105981031D01*
X103865939Y-105989400D01*
X103848085Y-106001330D01*
X103523229Y-106487511D01*
X103409155Y-107061000D01*
X100191000Y-107061000D01*
X100191000Y-100162784D01*
X112204313Y-100162784D01*
X112368311Y-100559689D01*
X112671714Y-100863622D01*
X113068332Y-101028313D01*
X113497784Y-101028687D01*
X113894689Y-100864689D01*
X114048646Y-100711000D01*
X117281858Y-100711000D01*
X117434214Y-100863622D01*
X117830832Y-101028313D01*
X118260284Y-101028687D01*
X118657189Y-100864689D01*
X118961122Y-100561286D01*
X119125813Y-100164668D01*
X119126187Y-99735216D01*
X118962189Y-99338311D01*
X118658786Y-99034378D01*
X118262168Y-98869687D01*
X117832716Y-98869313D01*
X117435811Y-99033311D01*
X117281854Y-99187000D01*
X114048642Y-99187000D01*
X113896286Y-99034378D01*
X113499668Y-98869687D01*
X113070216Y-98869313D01*
X112673311Y-99033311D01*
X112369378Y-99336714D01*
X112204687Y-99733332D01*
X112204313Y-100162784D01*
X100191000Y-100162784D01*
X100191000Y-96685000D01*
X163315000Y-96685000D01*
X163315000Y-139315000D01*
X163315000Y-139315000D01*
G37*
X163315000Y-139315000D02*
X100360432Y-139315000D01*
X100345656Y-137191750D01*
X126365000Y-137191750D01*
X126365000Y-138048310D01*
X126461673Y-138281699D01*
X126640302Y-138460327D01*
X126873691Y-138557000D01*
X127730250Y-138557000D01*
X127889000Y-138398250D01*
X127889000Y-137033000D01*
X128143000Y-137033000D01*
X128143000Y-138398250D01*
X128301750Y-138557000D01*
X129158309Y-138557000D01*
X129391698Y-138460327D01*
X129570327Y-138281699D01*
X129667000Y-138048310D01*
X129667000Y-137191750D01*
X129508250Y-137033000D01*
X128143000Y-137033000D01*
X127889000Y-137033000D01*
X126523750Y-137033000D01*
X126365000Y-137191750D01*
X100345656Y-137191750D01*
X100325990Y-134366000D01*
X126332655Y-134366000D01*
X126458330Y-134997810D01*
X126682966Y-135334001D01*
X126640302Y-135351673D01*
X126461673Y-135530301D01*
X126365000Y-135763690D01*
X126365000Y-136620250D01*
X126523750Y-136779000D01*
X127889000Y-136779000D01*
X127889000Y-136759000D01*
X128143000Y-136759000D01*
X128143000Y-136779000D01*
X129508250Y-136779000D01*
X129667000Y-136620250D01*
X129667000Y-135763690D01*
X129570327Y-135530301D01*
X129391698Y-135351673D01*
X129349034Y-135334001D01*
X129573670Y-134997810D01*
X129699345Y-134366000D01*
X129573670Y-133734190D01*
X129215778Y-133198567D01*
X128680155Y-132840675D01*
X128048345Y-132715000D01*
X127983655Y-132715000D01*
X127351845Y-132840675D01*
X126816222Y-133198567D01*
X126458330Y-133734190D01*
X126332655Y-134366000D01*
X100325990Y-134366000D01*
X100285111Y-128492250D01*
X102425500Y-128492250D01*
X102425500Y-129196410D01*
X102522173Y-129429799D01*
X102700802Y-129608427D01*
X102934191Y-129705100D01*
X103790750Y-129705100D01*
X103949500Y-129546350D01*
X103949500Y-128333500D01*
X104203500Y-128333500D01*
X104203500Y-129546350D01*
X104362250Y-129705100D01*
X105218809Y-129705100D01*
X105452198Y-129608427D01*
X105630827Y-129429799D01*
X105727500Y-129196410D01*
X105727500Y-128492250D01*
X105568750Y-128333500D01*
X104203500Y-128333500D01*
X103949500Y-128333500D01*
X102584250Y-128333500D01*
X102425500Y-128492250D01*
X100285111Y-128492250D01*
X100247767Y-123126500D01*
X102393155Y-123126500D01*
X102507229Y-123699989D01*
X102832085Y-124186170D01*
X103146866Y-124396500D01*
X102832085Y-124606830D01*
X102507229Y-125093011D01*
X102393155Y-125666500D01*
X102507229Y-126239989D01*
X102832085Y-126726170D01*
X102854280Y-126741000D01*
X102700802Y-126804573D01*
X102522173Y-126983201D01*
X102425500Y-127216590D01*
X102425500Y-127920750D01*
X102584250Y-128079500D01*
X103949500Y-128079500D01*
X103949500Y-128059500D01*
X104203500Y-128059500D01*
X104203500Y-128079500D01*
X105568750Y-128079500D01*
X105727500Y-127920750D01*
X105727500Y-127283250D01*
X141316710Y-127283250D01*
X141316710Y-127523859D01*
X141413383Y-127757248D01*
X141592011Y-127935877D01*
X141825400Y-128032550D01*
X142566390Y-128032550D01*
X142725140Y-127873800D01*
X142725140Y-127124500D01*
X142979140Y-127124500D01*
X142979140Y-127873800D01*
X143137890Y-128032550D01*
X143878880Y-128032550D01*
X144112269Y-127935877D01*
X144290897Y-127757248D01*
X144387570Y-127523859D01*
X144387570Y-127283250D01*
X144228820Y-127124500D01*
X142979140Y-127124500D01*
X142725140Y-127124500D01*
X141475460Y-127124500D01*
X141316710Y-127283250D01*
X105727500Y-127283250D01*
X105727500Y-127216590D01*
X105630827Y-126983201D01*
X105452198Y-126804573D01*
X105298720Y-126741000D01*
X105320915Y-126726170D01*
X105645771Y-126239989D01*
X105759845Y-125666500D01*
X105645771Y-125093011D01*
X105320915Y-124606830D01*
X105006134Y-124396500D01*
X105320915Y-124186170D01*
X105645771Y-123699989D01*
X105759845Y-123126500D01*
X105645771Y-122553011D01*
X105320915Y-122066830D01*
X104834734Y-121741974D01*
X104261245Y-121627900D01*
X103891755Y-121627900D01*
X103318266Y-121741974D01*
X102832085Y-122066830D01*
X102507229Y-122553011D01*
X102393155Y-123126500D01*
X100247767Y-123126500D01*
X100191000Y-114969982D01*
X100191000Y-107061000D01*
X103409155Y-107061000D01*
X103523229Y-107634489D01*
X103848085Y-108120670D01*
X104162866Y-108331000D01*
X103848085Y-108541330D01*
X103523229Y-109027511D01*
X103409155Y-109601000D01*
X103523229Y-110174489D01*
X103848085Y-110660670D01*
X104162866Y-110871000D01*
X103848085Y-111081330D01*
X103523229Y-111567511D01*
X103409155Y-112141000D01*
X103523229Y-112714489D01*
X103848085Y-113200670D01*
X104162866Y-113411000D01*
X103848085Y-113621330D01*
X103523229Y-114107511D01*
X103409155Y-114681000D01*
X103523229Y-115254489D01*
X103848085Y-115740670D01*
X104334266Y-116065526D01*
X104907755Y-116179600D01*
X105277245Y-116179600D01*
X105850734Y-116065526D01*
X106336915Y-115740670D01*
X106535812Y-115443000D01*
X106997500Y-115443000D01*
X107289105Y-115384996D01*
X107536315Y-115219815D01*
X108192346Y-114563784D01*
X134870313Y-114563784D01*
X135034311Y-114960689D01*
X135337714Y-115264622D01*
X135734332Y-115429313D01*
X135951872Y-115429502D01*
X139305411Y-118783041D01*
X138939311Y-118934311D01*
X138635378Y-119237714D01*
X138470687Y-119634332D01*
X138470313Y-120063784D01*
X138634311Y-120460689D01*
X138788000Y-120614646D01*
X138788000Y-123335358D01*
X138635378Y-123487714D01*
X138470687Y-123884332D01*
X138470313Y-124313784D01*
X138634311Y-124710689D01*
X138927287Y-125004177D01*
X138714113Y-125044288D01*
X138497989Y-125183360D01*
X138352999Y-125395560D01*
X138301990Y-125647450D01*
X138301990Y-126447550D01*
X138346268Y-126682867D01*
X138485340Y-126898991D01*
X138697540Y-127043981D01*
X138949430Y-127094990D01*
X140750290Y-127094990D01*
X140985607Y-127050712D01*
X141201731Y-126911640D01*
X141271520Y-126809500D01*
X141414460Y-126809500D01*
X141475460Y-126870500D01*
X142725140Y-126870500D01*
X142725140Y-126850500D01*
X142979140Y-126850500D01*
X142979140Y-126870500D01*
X144228820Y-126870500D01*
X144289820Y-126809500D01*
X144716500Y-126809500D01*
X145008105Y-126751496D01*
X145216875Y-126612000D01*
X146473634Y-126612000D01*
X146496838Y-126735317D01*
X146635910Y-126951441D01*
X146848110Y-127096431D01*
X147100000Y-127147440D01*
X148600000Y-127147440D01*
X148835317Y-127103162D01*
X149051441Y-126964090D01*
X149196431Y-126751890D01*
X149199081Y-126738803D01*
X149335910Y-126951441D01*
X149548110Y-127096431D01*
X149800000Y-127147440D01*
X151169810Y-127147440D01*
X151470501Y-127448131D01*
X151470313Y-127663784D01*
X151634311Y-128060689D01*
X151937714Y-128364622D01*
X152334332Y-128529313D01*
X152763784Y-128529687D01*
X153160689Y-128365689D01*
X153464622Y-128062286D01*
X153629313Y-127665668D01*
X153629687Y-127236216D01*
X153465689Y-126839311D01*
X153162286Y-126535378D01*
X152765668Y-126370687D01*
X152548128Y-126370498D01*
X152063380Y-125885750D01*
X158999000Y-125885750D01*
X158999000Y-126742310D01*
X159095673Y-126975699D01*
X159274302Y-127154327D01*
X159507691Y-127251000D01*
X160364250Y-127251000D01*
X160523000Y-127092250D01*
X160523000Y-125727000D01*
X160777000Y-125727000D01*
X160777000Y-127092250D01*
X160935750Y-127251000D01*
X161792309Y-127251000D01*
X162025698Y-127154327D01*
X162204327Y-126975699D01*
X162301000Y-126742310D01*
X162301000Y-125885750D01*
X162142250Y-125727000D01*
X160777000Y-125727000D01*
X160523000Y-125727000D01*
X159157750Y-125727000D01*
X158999000Y-125885750D01*
X152063380Y-125885750D01*
X151947440Y-125769810D01*
X151947440Y-125200000D01*
X151903162Y-124964683D01*
X151764090Y-124748559D01*
X151551890Y-124603569D01*
X151300000Y-124552560D01*
X149800000Y-124552560D01*
X149564683Y-124596838D01*
X149348559Y-124735910D01*
X149203569Y-124948110D01*
X149200919Y-124961197D01*
X149064090Y-124748559D01*
X148851890Y-124603569D01*
X148600000Y-124552560D01*
X147100000Y-124552560D01*
X146864683Y-124596838D01*
X146648559Y-124735910D01*
X146503569Y-124948110D01*
X146475241Y-125088000D01*
X145697000Y-125088000D01*
X145697000Y-123872440D01*
X145900000Y-123872440D01*
X146135317Y-123828162D01*
X146351441Y-123689090D01*
X146397969Y-123620994D01*
X146540302Y-123763327D01*
X146773691Y-123860000D01*
X147364250Y-123860000D01*
X147523000Y-123701250D01*
X147523000Y-122727000D01*
X147777000Y-122727000D01*
X147777000Y-123701250D01*
X147935750Y-123860000D01*
X148526309Y-123860000D01*
X148759698Y-123763327D01*
X148938327Y-123584699D01*
X149035000Y-123351310D01*
X149035000Y-123060000D01*
X158966655Y-123060000D01*
X159092330Y-123691810D01*
X159316966Y-124028001D01*
X159274302Y-124045673D01*
X159095673Y-124224301D01*
X158999000Y-124457690D01*
X158999000Y-125314250D01*
X159157750Y-125473000D01*
X160523000Y-125473000D01*
X160523000Y-125453000D01*
X160777000Y-125453000D01*
X160777000Y-125473000D01*
X162142250Y-125473000D01*
X162301000Y-125314250D01*
X162301000Y-124457690D01*
X162204327Y-124224301D01*
X162025698Y-124045673D01*
X161983034Y-124028001D01*
X162207670Y-123691810D01*
X162333345Y-123060000D01*
X162207670Y-122428190D01*
X161849778Y-121892567D01*
X161314155Y-121534675D01*
X160682345Y-121409000D01*
X160617655Y-121409000D01*
X159985845Y-121534675D01*
X159450222Y-121892567D01*
X159092330Y-122428190D01*
X158966655Y-123060000D01*
X149035000Y-123060000D01*
X149035000Y-122885750D01*
X148876250Y-122727000D01*
X147777000Y-122727000D01*
X147523000Y-122727000D01*
X147503000Y-122727000D01*
X147503000Y-122473000D01*
X147523000Y-122473000D01*
X147523000Y-121498750D01*
X147777000Y-121498750D01*
X147777000Y-122473000D01*
X148876250Y-122473000D01*
X149035000Y-122314250D01*
X149035000Y-121848690D01*
X148938327Y-121615301D01*
X148759698Y-121436673D01*
X148630629Y-121383211D01*
X148859698Y-121288327D01*
X149038327Y-121109699D01*
X149135000Y-120876310D01*
X149135000Y-120385750D01*
X148976250Y-120227000D01*
X147877000Y-120227000D01*
X147877000Y-121226250D01*
X147990750Y-121340000D01*
X147935750Y-121340000D01*
X147777000Y-121498750D01*
X147523000Y-121498750D01*
X147409250Y-121385000D01*
X147464250Y-121385000D01*
X147623000Y-121226250D01*
X147623000Y-120227000D01*
X147603000Y-120227000D01*
X147603000Y-119973000D01*
X147623000Y-119973000D01*
X147623000Y-118973750D01*
X147877000Y-118973750D01*
X147877000Y-119973000D01*
X148976250Y-119973000D01*
X149135000Y-119814250D01*
X149135000Y-119323690D01*
X149038327Y-119090301D01*
X148859698Y-118911673D01*
X148626309Y-118815000D01*
X148035750Y-118815000D01*
X147877000Y-118973750D01*
X147623000Y-118973750D01*
X147464250Y-118815000D01*
X146873691Y-118815000D01*
X146640302Y-118911673D01*
X146461673Y-119090301D01*
X146405346Y-119226287D01*
X146403162Y-119214683D01*
X146264090Y-118998559D01*
X146051890Y-118853569D01*
X145800000Y-118802560D01*
X145392642Y-118802560D01*
X145641231Y-118554404D01*
X145873735Y-117994472D01*
X145873780Y-117941812D01*
X150975736Y-117941812D01*
X151207262Y-118502149D01*
X151635596Y-118931231D01*
X152195528Y-119163735D01*
X152801812Y-119164264D01*
X153362149Y-118932738D01*
X153791231Y-118504404D01*
X154023735Y-117944472D01*
X154024264Y-117338188D01*
X153792738Y-116777851D01*
X153602926Y-116587708D01*
X153748698Y-116527327D01*
X153927327Y-116348699D01*
X154024000Y-116115310D01*
X154024000Y-115385750D01*
X153865250Y-115227000D01*
X152627000Y-115227000D01*
X152627000Y-115247000D01*
X152373000Y-115247000D01*
X152373000Y-115227000D01*
X151134750Y-115227000D01*
X150976000Y-115385750D01*
X150976000Y-116115310D01*
X151072673Y-116348699D01*
X151251302Y-116527327D01*
X151397011Y-116587682D01*
X151208769Y-116775596D01*
X150976265Y-117335528D01*
X150975736Y-117941812D01*
X145873780Y-117941812D01*
X145874264Y-117388188D01*
X145642738Y-116827851D01*
X145452926Y-116637708D01*
X145598698Y-116577327D01*
X145777327Y-116398699D01*
X145874000Y-116165310D01*
X145874000Y-115435750D01*
X145715250Y-115277000D01*
X144477000Y-115277000D01*
X144477000Y-115297000D01*
X144223000Y-115297000D01*
X144223000Y-115277000D01*
X142984750Y-115277000D01*
X142826000Y-115435750D01*
X142826000Y-116165310D01*
X142922673Y-116398699D01*
X143101302Y-116577327D01*
X143247011Y-116637682D01*
X143058769Y-116825596D01*
X142826265Y-117385528D01*
X142825736Y-117991812D01*
X143057262Y-118552149D01*
X143485596Y-118981231D01*
X143770830Y-119099670D01*
X143703569Y-119198110D01*
X143675241Y-119338000D01*
X142015630Y-119338000D01*
X137029499Y-114351869D01*
X137029687Y-114136216D01*
X136865689Y-113739311D01*
X136562286Y-113435378D01*
X136165668Y-113270687D01*
X135736216Y-113270313D01*
X135339311Y-113434311D01*
X135035378Y-113737714D01*
X134870687Y-114134332D01*
X134870313Y-114563784D01*
X108192346Y-114563784D01*
X108710131Y-114046000D01*
X116583358Y-114046000D01*
X116735714Y-114198622D01*
X117132332Y-114363313D01*
X117561784Y-114363687D01*
X117958689Y-114199689D01*
X118262622Y-113896286D01*
X118427313Y-113499668D01*
X118427687Y-113070216D01*
X118362236Y-112911812D01*
X142825736Y-112911812D01*
X143057262Y-113472149D01*
X143247074Y-113662292D01*
X143101302Y-113722673D01*
X142922673Y-113901301D01*
X142826000Y-114134690D01*
X142826000Y-114864250D01*
X142984750Y-115023000D01*
X144223000Y-115023000D01*
X144223000Y-115003000D01*
X144477000Y-115003000D01*
X144477000Y-115023000D01*
X145715250Y-115023000D01*
X145874000Y-114864250D01*
X145874000Y-114134690D01*
X145777327Y-113901301D01*
X145598698Y-113722673D01*
X145452989Y-113662318D01*
X145641231Y-113474404D01*
X145873735Y-112914472D01*
X145874264Y-112308188D01*
X145642738Y-111747851D01*
X145214404Y-111318769D01*
X144654472Y-111086265D01*
X144048188Y-111085736D01*
X143487851Y-111317262D01*
X143058769Y-111745596D01*
X142826265Y-112305528D01*
X142825736Y-112911812D01*
X118362236Y-112911812D01*
X118263689Y-112673311D01*
X117960286Y-112369378D01*
X117563668Y-112204687D01*
X117134216Y-112204313D01*
X116737311Y-112368311D01*
X116583354Y-112522000D01*
X108267500Y-112522000D01*
X107975895Y-112580004D01*
X107728685Y-112745185D01*
X107563504Y-112992395D01*
X107552338Y-113048531D01*
X106681870Y-113919000D01*
X106535812Y-113919000D01*
X106336915Y-113621330D01*
X106022134Y-113411000D01*
X106336915Y-113200670D01*
X106661771Y-112714489D01*
X106775845Y-112141000D01*
X106661771Y-111567511D01*
X106336915Y-111081330D01*
X106022134Y-110871000D01*
X106336915Y-110660670D01*
X106562683Y-110322784D01*
X128396813Y-110322784D01*
X128560811Y-110719689D01*
X128864214Y-111023622D01*
X129260832Y-111188313D01*
X129690284Y-111188687D01*
X130087189Y-111024689D01*
X130113925Y-110998000D01*
X137795000Y-110998000D01*
X138086605Y-110939996D01*
X138333815Y-110774815D01*
X141095131Y-108013499D01*
X141310784Y-108013687D01*
X141707689Y-107849689D01*
X142011622Y-107546286D01*
X142176313Y-107149668D01*
X142176687Y-106720216D01*
X142012689Y-106323311D01*
X141829613Y-106139915D01*
X142228442Y-105873426D01*
X142233238Y-105898917D01*
X142372310Y-106115041D01*
X142584510Y-106260031D01*
X142836400Y-106311040D01*
X144563600Y-106311040D01*
X144798917Y-106266762D01*
X144976120Y-106152735D01*
X144976120Y-107592519D01*
X144955109Y-107623270D01*
X144904100Y-107875160D01*
X144904100Y-109124840D01*
X144948378Y-109360157D01*
X145087450Y-109576281D01*
X145299650Y-109721271D01*
X145551540Y-109772280D01*
X146375484Y-109772280D01*
X146411483Y-109859189D01*
X146590112Y-110037817D01*
X146823501Y-110134490D01*
X146916155Y-110134490D01*
X147074905Y-109975740D01*
X147074905Y-109239578D01*
X147098140Y-109124840D01*
X147098140Y-107875160D01*
X147301860Y-107875160D01*
X147301860Y-109124840D01*
X147325095Y-109248323D01*
X147325095Y-109975740D01*
X147373880Y-110024525D01*
X147373880Y-110698880D01*
X147421841Y-110939996D01*
X147451903Y-111091131D01*
X147674096Y-111423664D01*
X149535215Y-113284784D01*
X149819000Y-113474404D01*
X149867749Y-113506977D01*
X150260000Y-113585000D01*
X151369829Y-113585000D01*
X151397074Y-113612292D01*
X151251302Y-113672673D01*
X151072673Y-113851301D01*
X150976000Y-114084690D01*
X150976000Y-114814250D01*
X151134750Y-114973000D01*
X152373000Y-114973000D01*
X152373000Y-114953000D01*
X152627000Y-114953000D01*
X152627000Y-114973000D01*
X153865250Y-114973000D01*
X154024000Y-114814250D01*
X154024000Y-114084690D01*
X153927327Y-113851301D01*
X153748698Y-113672673D01*
X153602989Y-113612318D01*
X153791231Y-113424404D01*
X154023735Y-112864472D01*
X154024264Y-112258188D01*
X153792738Y-111697851D01*
X153364404Y-111268769D01*
X152804472Y-111036265D01*
X152198188Y-111035736D01*
X151637851Y-111267262D01*
X151369645Y-111535000D01*
X150684569Y-111535000D01*
X149423880Y-110274312D01*
X149423880Y-109407481D01*
X149444891Y-109376730D01*
X149495900Y-109124840D01*
X149495900Y-107875160D01*
X149451622Y-107639843D01*
X149312550Y-107423719D01*
X149100350Y-107278729D01*
X148848460Y-107227720D01*
X148024516Y-107227720D01*
X147988517Y-107140811D01*
X147809888Y-106962183D01*
X147576499Y-106865510D01*
X147483845Y-106865510D01*
X147325095Y-107024260D01*
X147325095Y-107760422D01*
X147301860Y-107875160D01*
X147098140Y-107875160D01*
X147074905Y-107751677D01*
X147074905Y-107024260D01*
X147026120Y-106975475D01*
X147026120Y-106035340D01*
X147289029Y-105859670D01*
X147312195Y-105825000D01*
X147627805Y-105825000D01*
X147650971Y-105859670D01*
X148137152Y-106184526D01*
X148710641Y-106298600D01*
X148769359Y-106298600D01*
X149342848Y-106184526D01*
X149829029Y-105859670D01*
X150010000Y-105588828D01*
X150190971Y-105859670D01*
X150677152Y-106184526D01*
X151250641Y-106298600D01*
X151309359Y-106298600D01*
X151882848Y-106184526D01*
X152369029Y-105859670D01*
X152550000Y-105588828D01*
X152730971Y-105859670D01*
X153217152Y-106184526D01*
X153790641Y-106298600D01*
X153849359Y-106298600D01*
X154422848Y-106184526D01*
X154909029Y-105859670D01*
X155090000Y-105588828D01*
X155270971Y-105859670D01*
X155757152Y-106184526D01*
X156330641Y-106298600D01*
X156389359Y-106298600D01*
X156962848Y-106184526D01*
X157428442Y-105873426D01*
X157433238Y-105898917D01*
X157572310Y-106115041D01*
X157784510Y-106260031D01*
X158036400Y-106311040D01*
X159763600Y-106311040D01*
X159998917Y-106266762D01*
X160215041Y-106127690D01*
X160360031Y-105915490D01*
X160411040Y-105663600D01*
X160411040Y-103936400D01*
X160366762Y-103701083D01*
X160227690Y-103484959D01*
X160015490Y-103339969D01*
X159921625Y-103320961D01*
X160182688Y-103034947D01*
X160354958Y-102619026D01*
X160233817Y-102387000D01*
X159027000Y-102387000D01*
X159027000Y-102407000D01*
X158773000Y-102407000D01*
X158773000Y-102387000D01*
X156487000Y-102387000D01*
X156487000Y-102407000D01*
X156233000Y-102407000D01*
X156233000Y-102387000D01*
X153947000Y-102387000D01*
X153947000Y-102407000D01*
X153693000Y-102407000D01*
X153693000Y-102387000D01*
X151407000Y-102387000D01*
X151407000Y-102407000D01*
X151153000Y-102407000D01*
X151153000Y-102387000D01*
X148867000Y-102387000D01*
X148867000Y-102407000D01*
X148613000Y-102407000D01*
X148613000Y-102387000D01*
X146327000Y-102387000D01*
X146327000Y-102407000D01*
X146073000Y-102407000D01*
X146073000Y-102387000D01*
X146053000Y-102387000D01*
X146053000Y-102133000D01*
X146073000Y-102133000D01*
X146073000Y-100925531D01*
X146327000Y-100925531D01*
X146327000Y-102133000D01*
X148613000Y-102133000D01*
X148613000Y-100925531D01*
X148867000Y-100925531D01*
X148867000Y-102133000D01*
X151153000Y-102133000D01*
X151153000Y-100925531D01*
X151407000Y-100925531D01*
X151407000Y-102133000D01*
X153693000Y-102133000D01*
X153693000Y-100925531D01*
X153947000Y-100925531D01*
X153947000Y-102133000D01*
X156233000Y-102133000D01*
X156233000Y-100925531D01*
X156487000Y-100925531D01*
X156487000Y-102133000D01*
X158773000Y-102133000D01*
X158773000Y-100925531D01*
X159027000Y-100925531D01*
X159027000Y-102133000D01*
X160233817Y-102133000D01*
X160354958Y-101900974D01*
X160182688Y-101485053D01*
X159788490Y-101053179D01*
X159259027Y-100805032D01*
X159027000Y-100925531D01*
X158773000Y-100925531D01*
X158540973Y-100805032D01*
X158011510Y-101053179D01*
X157630000Y-101471152D01*
X157248490Y-101053179D01*
X156719027Y-100805032D01*
X156487000Y-100925531D01*
X156233000Y-100925531D01*
X156000973Y-100805032D01*
X155471510Y-101053179D01*
X155090000Y-101471152D01*
X154708490Y-101053179D01*
X154179027Y-100805032D01*
X153947000Y-100925531D01*
X153693000Y-100925531D01*
X153460973Y-100805032D01*
X152931510Y-101053179D01*
X152550000Y-101471152D01*
X152168490Y-101053179D01*
X151639027Y-100805032D01*
X151407000Y-100925531D01*
X151153000Y-100925531D01*
X150920973Y-100805032D01*
X150391510Y-101053179D01*
X150010000Y-101471152D01*
X149628490Y-101053179D01*
X149099027Y-100805032D01*
X148867000Y-100925531D01*
X148613000Y-100925531D01*
X148380973Y-100805032D01*
X147851510Y-101053179D01*
X147470000Y-101471152D01*
X147088490Y-101053179D01*
X146559027Y-100805032D01*
X146327000Y-100925531D01*
X146073000Y-100925531D01*
X145840973Y-100805032D01*
X145311510Y-101053179D01*
X144953087Y-101445859D01*
X144789029Y-101200330D01*
X144302848Y-100875474D01*
X143729359Y-100761400D01*
X143670641Y-100761400D01*
X143097152Y-100875474D01*
X142610971Y-101200330D01*
X142430000Y-101471172D01*
X142249029Y-101200330D01*
X141762848Y-100875474D01*
X141189359Y-100761400D01*
X141130641Y-100761400D01*
X140557152Y-100875474D01*
X140070971Y-101200330D01*
X139890000Y-101471172D01*
X139709029Y-101200330D01*
X139222848Y-100875474D01*
X138649359Y-100761400D01*
X138590641Y-100761400D01*
X138017152Y-100875474D01*
X137530971Y-101200330D01*
X137350000Y-101471172D01*
X137169029Y-101200330D01*
X136682848Y-100875474D01*
X136109359Y-100761400D01*
X136050641Y-100761400D01*
X135477152Y-100875474D01*
X134990971Y-101200330D01*
X134810000Y-101471172D01*
X134629029Y-101200330D01*
X134142848Y-100875474D01*
X133569359Y-100761400D01*
X133510641Y-100761400D01*
X132937152Y-100875474D01*
X132450971Y-101200330D01*
X132270000Y-101471172D01*
X132089029Y-101200330D01*
X131602848Y-100875474D01*
X131029359Y-100761400D01*
X130970641Y-100761400D01*
X130397152Y-100875474D01*
X129910971Y-101200330D01*
X129586115Y-101686511D01*
X129472041Y-102260000D01*
X129586115Y-102833489D01*
X129910971Y-103319670D01*
X130225752Y-103530000D01*
X129910971Y-103740330D01*
X129586115Y-104226511D01*
X129472041Y-104800000D01*
X129586115Y-105373489D01*
X129910971Y-105859670D01*
X130397152Y-106184526D01*
X130970641Y-106298600D01*
X131029359Y-106298600D01*
X131602848Y-106184526D01*
X132089029Y-105859670D01*
X132270000Y-105588828D01*
X132450971Y-105859670D01*
X132937152Y-106184526D01*
X133510641Y-106298600D01*
X133569359Y-106298600D01*
X134142848Y-106184526D01*
X134629029Y-105859670D01*
X134810000Y-105588828D01*
X134990971Y-105859670D01*
X135477152Y-106184526D01*
X136050641Y-106298600D01*
X136109359Y-106298600D01*
X136682848Y-106184526D01*
X137169029Y-105859670D01*
X137350000Y-105588828D01*
X137530971Y-105859670D01*
X137719108Y-105985379D01*
X136714488Y-106990000D01*
X132500000Y-106990000D01*
X132190026Y-107051658D01*
X132087277Y-107120313D01*
X132087015Y-107120488D01*
X131886216Y-107120313D01*
X131489311Y-107284311D01*
X131185378Y-107587714D01*
X131020687Y-107984332D01*
X131020313Y-108413784D01*
X131184311Y-108810689D01*
X131487714Y-109114622D01*
X131884332Y-109279313D01*
X132313784Y-109279687D01*
X132710689Y-109115689D01*
X133014622Y-108812286D01*
X133098619Y-108610000D01*
X137050000Y-108610000D01*
X137359974Y-108548342D01*
X137622756Y-108372756D01*
X139192756Y-106802757D01*
X139295369Y-106649185D01*
X139368342Y-106539974D01*
X139430000Y-106230000D01*
X139430000Y-106046111D01*
X139709029Y-105859670D01*
X139890000Y-105588828D01*
X140070971Y-105859670D01*
X140414973Y-106089525D01*
X140182378Y-106321714D01*
X140017687Y-106718332D01*
X140017498Y-106935872D01*
X137479370Y-109474000D01*
X130367920Y-109474000D01*
X130088786Y-109194378D01*
X129692168Y-109029687D01*
X129262716Y-109029313D01*
X128865811Y-109193311D01*
X128561878Y-109496714D01*
X128397187Y-109893332D01*
X128396813Y-110322784D01*
X106562683Y-110322784D01*
X106661771Y-110174489D01*
X106673970Y-110113160D01*
X107218815Y-109568315D01*
X107383996Y-109321105D01*
X107386325Y-109309395D01*
X107442000Y-109029500D01*
X107442000Y-108964130D01*
X108456130Y-107950000D01*
X116456358Y-107950000D01*
X116608714Y-108102622D01*
X117005332Y-108267313D01*
X117434784Y-108267687D01*
X117831689Y-108103689D01*
X118135622Y-107800286D01*
X118300313Y-107403668D01*
X118300687Y-106974216D01*
X118136689Y-106577311D01*
X117833286Y-106273378D01*
X117436668Y-106108687D01*
X117007216Y-106108313D01*
X116610311Y-106272311D01*
X116456354Y-106426000D01*
X112077500Y-106426000D01*
X112077500Y-106104366D01*
X112200817Y-106081162D01*
X112416941Y-105942090D01*
X112561931Y-105729890D01*
X112612940Y-105478000D01*
X112612940Y-103978000D01*
X112568662Y-103742683D01*
X112429590Y-103526559D01*
X112217390Y-103381569D01*
X112204303Y-103378919D01*
X112416941Y-103242090D01*
X112561931Y-103029890D01*
X112612940Y-102778000D01*
X112612940Y-101278000D01*
X112568662Y-101042683D01*
X112429590Y-100826559D01*
X112217390Y-100681569D01*
X111965500Y-100630560D01*
X110665500Y-100630560D01*
X110430183Y-100674838D01*
X110214059Y-100813910D01*
X110069069Y-101026110D01*
X110020490Y-101266000D01*
X108347500Y-101266000D01*
X108055895Y-101324004D01*
X107808684Y-101489185D01*
X106257697Y-103040173D01*
X106108500Y-103009960D01*
X104076500Y-103009960D01*
X103841183Y-103054238D01*
X103625059Y-103193310D01*
X103480069Y-103405510D01*
X103429060Y-103657400D01*
X103429060Y-105384600D01*
X103473338Y-105619917D01*
X103612410Y-105836041D01*
X103824610Y-105981031D01*
X103865939Y-105989400D01*
X103848085Y-106001330D01*
X103523229Y-106487511D01*
X103409155Y-107061000D01*
X100191000Y-107061000D01*
X100191000Y-100162784D01*
X112204313Y-100162784D01*
X112368311Y-100559689D01*
X112671714Y-100863622D01*
X113068332Y-101028313D01*
X113497784Y-101028687D01*
X113894689Y-100864689D01*
X114048646Y-100711000D01*
X117281858Y-100711000D01*
X117434214Y-100863622D01*
X117830832Y-101028313D01*
X118260284Y-101028687D01*
X118657189Y-100864689D01*
X118961122Y-100561286D01*
X119125813Y-100164668D01*
X119126187Y-99735216D01*
X118962189Y-99338311D01*
X118658786Y-99034378D01*
X118262168Y-98869687D01*
X117832716Y-98869313D01*
X117435811Y-99033311D01*
X117281854Y-99187000D01*
X114048642Y-99187000D01*
X113896286Y-99034378D01*
X113499668Y-98869687D01*
X113070216Y-98869313D01*
X112673311Y-99033311D01*
X112369378Y-99336714D01*
X112204687Y-99733332D01*
X112204313Y-100162784D01*
X100191000Y-100162784D01*
X100191000Y-96685000D01*
X163315000Y-96685000D01*
X163315000Y-139315000D01*
M02*
