G04 #@! TF.FileFunction,Copper,L1,Top,Signal*
%FSLAX46Y46*%
G04 Gerber Fmt 4.6, Leading zero omitted, Abs format (unit mm)*
G04 Created by KiCad (PCBNEW 4.0.1-stable) date 24/01/2016 09:13:41*
%MOMM*%
G01*
G04 APERTURE LIST*
%ADD10C,0.100000*%
%ADD11R,1.800860X3.500120*%
%ADD12R,1.250000X1.500000*%
%ADD13R,1.500000X1.250000*%
%ADD14R,1.249680X0.899160*%
%ADD15R,1.998980X0.500380*%
%ADD16R,0.899160X1.249680*%
%ADD17R,0.500380X1.998980*%
%ADD18R,2.032000X2.032000*%
%ADD19O,2.032000X2.032000*%
%ADD20R,2.032000X1.727200*%
%ADD21O,2.032000X1.727200*%
%ADD22R,1.727200X1.727200*%
%ADD23O,1.727200X1.727200*%
%ADD24C,1.778000*%
%ADD25R,1.778000X1.778000*%
%ADD26R,1.500000X1.300000*%
%ADD27R,1.300000X1.500000*%
%ADD28R,1.500000X0.450000*%
%ADD29C,6.350000*%
%ADD30R,0.600000X1.550000*%
%ADD31R,0.910000X1.220000*%
%ADD32R,1.220000X0.910000*%
%ADD33R,1.998980X0.899160*%
%ADD34R,1.998980X1.000760*%
%ADD35C,0.889000*%
%ADD36C,0.780000*%
%ADD37C,0.254000*%
%ADD38C,0.350000*%
%ADD39C,0.500000*%
G04 APERTURE END LIST*
D10*
D11*
X157800000Y-112550260D03*
X157800000Y-118549740D03*
D12*
X136900000Y-116300000D03*
X136900000Y-118800000D03*
X133900000Y-116350000D03*
X133900000Y-118850000D03*
D13*
X153850000Y-125750000D03*
X156350000Y-125750000D03*
D14*
X117411500Y-120784620D03*
X117411500Y-123182380D03*
D15*
X117411500Y-121983500D03*
D16*
X148201120Y-108500000D03*
X150598880Y-108500000D03*
D17*
X149400000Y-108500000D03*
D14*
X122682000Y-124086620D03*
X122682000Y-126484380D03*
D15*
X122682000Y-125285500D03*
D18*
X160650000Y-125600000D03*
D19*
X160650000Y-123060000D03*
D20*
X104076500Y-128206500D03*
D21*
X104076500Y-125666500D03*
X104076500Y-123126500D03*
D22*
X143700000Y-104800000D03*
D23*
X143700000Y-102260000D03*
X141160000Y-104800000D03*
X141160000Y-102260000D03*
X138620000Y-104800000D03*
X138620000Y-102260000D03*
X136080000Y-104800000D03*
X136080000Y-102260000D03*
X133540000Y-104800000D03*
X133540000Y-102260000D03*
X131000000Y-104800000D03*
X131000000Y-102260000D03*
D22*
X158900000Y-104800000D03*
D23*
X158900000Y-102260000D03*
X156360000Y-104800000D03*
X156360000Y-102260000D03*
X153820000Y-104800000D03*
X153820000Y-102260000D03*
X151280000Y-104800000D03*
X151280000Y-102260000D03*
X148740000Y-104800000D03*
X148740000Y-102260000D03*
X146200000Y-104800000D03*
X146200000Y-102260000D03*
D24*
X152500000Y-117640000D03*
D25*
X152500000Y-115100000D03*
D24*
X152500000Y-112560000D03*
X144350000Y-117690000D03*
D25*
X144350000Y-115150000D03*
D24*
X144350000Y-112610000D03*
D12*
X149650000Y-132900000D03*
X149650000Y-130400000D03*
D18*
X119062500Y-135572500D03*
D19*
X119062500Y-133032500D03*
D26*
X141398000Y-137922000D03*
X144098000Y-137922000D03*
X143336000Y-134620000D03*
X140636000Y-134620000D03*
D27*
X152650000Y-133150000D03*
X152650000Y-130450000D03*
X137900000Y-129800000D03*
X137900000Y-132500000D03*
X130250000Y-124750000D03*
X130250000Y-127450000D03*
X147150000Y-124750000D03*
X147150000Y-127450000D03*
X149350000Y-124750000D03*
X149350000Y-127450000D03*
D26*
X139850000Y-121800000D03*
X142550000Y-121800000D03*
D28*
X132100000Y-109425000D03*
X132100000Y-110075000D03*
X132100000Y-110725000D03*
X132100000Y-111375000D03*
X132100000Y-112025000D03*
X132100000Y-112675000D03*
X132100000Y-113325000D03*
X132100000Y-113975000D03*
X138000000Y-113975000D03*
X138000000Y-113325000D03*
X138000000Y-112675000D03*
X138000000Y-112025000D03*
X138000000Y-111375000D03*
X138000000Y-110725000D03*
X138000000Y-110075000D03*
X138000000Y-109425000D03*
D29*
X103568500Y-136144000D03*
X160400000Y-136400000D03*
D30*
X141145000Y-130200000D03*
X142415000Y-130200000D03*
X143685000Y-130200000D03*
X144955000Y-130200000D03*
X144955000Y-124800000D03*
X143685000Y-124800000D03*
X142415000Y-124800000D03*
X141145000Y-124800000D03*
D13*
X138918000Y-137922000D03*
X136418000Y-137922000D03*
D31*
X146701000Y-136398000D03*
X149971000Y-136398000D03*
D32*
X134250000Y-129485000D03*
X134250000Y-126215000D03*
D27*
X153100000Y-123450000D03*
X153100000Y-120750000D03*
X140000000Y-115600000D03*
X140000000Y-118300000D03*
D20*
X105092500Y-104521000D03*
D21*
X105092500Y-107061000D03*
X105092500Y-109601000D03*
X105092500Y-112141000D03*
X105092500Y-114681000D03*
D26*
X109808000Y-99377500D03*
X107108000Y-99377500D03*
X122825500Y-99949000D03*
X120125500Y-99949000D03*
X125492500Y-104076500D03*
X122792500Y-104076500D03*
X125492500Y-108458000D03*
X122792500Y-108458000D03*
D33*
X109928660Y-104663240D03*
D34*
X109928660Y-102014020D03*
X117528340Y-102014020D03*
X117528340Y-104614980D03*
D33*
X109801660Y-111584740D03*
D34*
X109801660Y-108935520D03*
X117401340Y-108935520D03*
X117401340Y-111536480D03*
D33*
X109865160Y-117807740D03*
D34*
X109865160Y-115158520D03*
X117464840Y-115158520D03*
X117464840Y-117759480D03*
D35*
X119888000Y-122936000D03*
X119697500Y-104584500D03*
X119570500Y-117729000D03*
X137900000Y-134400000D03*
X133800000Y-111500000D03*
X136250000Y-112650000D03*
X147050000Y-129400000D03*
X135500000Y-120350000D03*
X141097000Y-106934000D03*
X129476500Y-110109000D03*
X152550000Y-127450000D03*
X139550000Y-124100000D03*
X139550000Y-119850000D03*
X132100000Y-108200000D03*
X135950000Y-114350000D03*
X117221000Y-107188000D03*
X117348000Y-113284000D03*
X113284000Y-99949000D03*
X118046500Y-99949000D03*
D36*
X157600000Y-123052500D02*
X157600000Y-118749740D01*
D37*
X157600000Y-118749740D02*
X157800000Y-118549740D01*
D36*
X153100000Y-123052500D02*
X157600000Y-123052500D01*
X157600000Y-123052500D02*
X160642500Y-123052500D01*
D37*
X160642500Y-123052500D02*
X160650000Y-123060000D01*
X122682000Y-125285500D02*
X121221500Y-125285500D01*
X118935500Y-121983500D02*
X119888000Y-122936000D01*
X118935500Y-121983500D02*
X117411500Y-121983500D01*
X119888000Y-123952000D02*
X119888000Y-122936000D01*
X121221500Y-125285500D02*
X119888000Y-123952000D01*
X117528340Y-104614980D02*
X119667020Y-104614980D01*
X119667020Y-104614980D02*
X119697500Y-104584500D01*
X117464840Y-117759480D02*
X119540020Y-117759480D01*
X119540020Y-117759480D02*
X119570500Y-117729000D01*
X117464840Y-117759480D02*
X115346480Y-117759480D01*
X111457740Y-111584740D02*
X109801660Y-111584740D01*
X112966500Y-113093500D02*
X111457740Y-111584740D01*
X112966500Y-115379500D02*
X112966500Y-113093500D01*
X115346480Y-117759480D02*
X112966500Y-115379500D01*
X140636000Y-134620000D02*
X138120000Y-134620000D01*
X137900000Y-134400000D02*
X137900000Y-132600000D01*
X138120000Y-134620000D02*
X137900000Y-134400000D01*
X132100000Y-112675000D02*
X133475000Y-112675000D01*
X133275000Y-110725000D02*
X133800000Y-111250000D01*
X133800000Y-111250000D02*
X133800000Y-111500000D01*
X133275000Y-110725000D02*
X132100000Y-110725000D01*
X133700000Y-111600000D02*
X133800000Y-111500000D01*
X133700000Y-112450000D02*
X133700000Y-111600000D01*
X133475000Y-112675000D02*
X133700000Y-112450000D01*
X132100000Y-113325000D02*
X132100000Y-112675000D01*
X138000000Y-112675000D02*
X136275000Y-112675000D01*
X136275000Y-112675000D02*
X136250000Y-112650000D01*
X138000000Y-112675000D02*
X138000000Y-112025000D01*
X138000000Y-113325000D02*
X138000000Y-112675000D01*
D36*
X152500000Y-115100000D02*
X155250260Y-115100000D01*
X155250260Y-115100000D02*
X157800000Y-112550260D01*
D37*
X147100000Y-130400000D02*
X147100000Y-129450000D01*
X147100000Y-129450000D02*
X147050000Y-129400000D01*
X147150000Y-127450000D02*
X149350000Y-127450000D01*
X149650000Y-130400000D02*
X147100000Y-130400000D01*
X147100000Y-130400000D02*
X145155000Y-130400000D01*
X145155000Y-130400000D02*
X144955000Y-130200000D01*
D36*
X156350000Y-125750000D02*
X160500000Y-125750000D01*
D37*
X160500000Y-125750000D02*
X160650000Y-125600000D01*
X152650000Y-130450000D02*
X152650000Y-129450000D01*
X152650000Y-129450000D02*
X156350000Y-125750000D01*
X149650000Y-130400000D02*
X149650000Y-127750000D01*
X149650000Y-127750000D02*
X149350000Y-127450000D01*
X149650000Y-130400000D02*
X152600000Y-130400000D01*
X152600000Y-130400000D02*
X152650000Y-130450000D01*
X135450000Y-118850000D02*
X135450000Y-120300000D01*
X135450000Y-120300000D02*
X135500000Y-120350000D01*
X133900000Y-118850000D02*
X135450000Y-118850000D01*
X135450000Y-118850000D02*
X136850000Y-118850000D01*
X136850000Y-118850000D02*
X136900000Y-118800000D01*
D38*
X152500000Y-115100000D02*
X153000000Y-115100000D01*
D39*
X152500000Y-115100000D02*
X150400000Y-115100000D01*
X150400000Y-115100000D02*
X149400000Y-114100000D01*
X149400000Y-114100000D02*
X149400000Y-108500000D01*
D37*
X129286000Y-114625120D02*
X128579880Y-114625120D01*
X129286000Y-112776000D02*
X130687000Y-111375000D01*
X132100000Y-111375000D02*
X130687000Y-111375000D01*
X129286000Y-114625120D02*
X129286000Y-112776000D01*
X122420380Y-120784620D02*
X117411500Y-120784620D01*
X128579880Y-114625120D02*
X122420380Y-120784620D01*
X130051810Y-119193310D02*
X130051810Y-119249190D01*
X125214380Y-124086620D02*
X122682000Y-124086620D01*
X130051810Y-119249190D02*
X125214380Y-124086620D01*
X132100000Y-112025000D02*
X130821000Y-112025000D01*
X130556000Y-118689120D02*
X130051810Y-119193310D01*
X130051810Y-119193310D02*
X130048000Y-119197120D01*
X130556000Y-117094000D02*
X130556000Y-118689120D01*
X131064000Y-116586000D02*
X130556000Y-117094000D01*
X131064000Y-115062000D02*
X131064000Y-116586000D01*
X130556000Y-114554000D02*
X131064000Y-115062000D01*
X130556000Y-112290000D02*
X130556000Y-114554000D01*
X130821000Y-112025000D02*
X130556000Y-112290000D01*
D36*
X145600000Y-112600000D02*
X144360000Y-112600000D01*
X144360000Y-112600000D02*
X144350000Y-112610000D01*
X145600000Y-112660000D02*
X145600000Y-112600000D01*
X145600000Y-112600000D02*
X145600000Y-110300000D01*
X145600000Y-110300000D02*
X147400000Y-108500000D01*
X147400000Y-108500000D02*
X148201120Y-108500000D01*
D37*
X125492500Y-108458000D02*
X127825500Y-108458000D01*
X141113000Y-106950000D02*
X144200000Y-106950000D01*
X141097000Y-106934000D02*
X141113000Y-106950000D01*
X127825500Y-108458000D02*
X129476500Y-110109000D01*
X125492500Y-104076500D02*
X125492500Y-108458000D01*
D36*
X150598880Y-108500000D02*
X152100000Y-108500000D01*
X152300000Y-108300000D02*
X152300000Y-104800000D01*
X152100000Y-108500000D02*
X152300000Y-108300000D01*
D37*
X150550000Y-107550000D02*
X150550000Y-108451120D01*
X150550000Y-108451120D02*
X150598880Y-108500000D01*
X138000000Y-111375000D02*
X139775000Y-111375000D01*
X139775000Y-111375000D02*
X144200000Y-106950000D01*
X149950000Y-106950000D02*
X150550000Y-107550000D01*
X144200000Y-106950000D02*
X149950000Y-106950000D01*
X150550000Y-107550000D02*
X150598880Y-107598880D01*
X140000000Y-115997500D02*
X140000000Y-111700000D01*
X139675000Y-111375000D02*
X139650000Y-111375000D01*
X139650000Y-111375000D02*
X138000000Y-111375000D01*
X140000000Y-111700000D02*
X139675000Y-111375000D01*
D36*
X151280000Y-104800000D02*
X152300000Y-104800000D01*
X152300000Y-104800000D02*
X153820000Y-104800000D01*
D37*
X153850000Y-125750000D02*
X153850000Y-126150000D01*
X153850000Y-126150000D02*
X152550000Y-127450000D01*
D36*
X144400000Y-117740000D02*
X145600000Y-117740000D01*
X145600000Y-117740000D02*
X152400000Y-117740000D01*
X144400000Y-117740000D02*
X144350000Y-117690000D01*
X153850000Y-125750000D02*
X152600000Y-125750000D01*
X152002500Y-121147500D02*
X153100000Y-121147500D01*
X151200000Y-121950000D02*
X152002500Y-121147500D01*
X151200000Y-124350000D02*
X151200000Y-121950000D01*
X152600000Y-125750000D02*
X151200000Y-124350000D01*
X153100000Y-121147500D02*
X153100000Y-118240000D01*
X153100000Y-118240000D02*
X152500000Y-117640000D01*
D38*
X152400000Y-117740000D02*
X152500000Y-117640000D01*
D37*
X136900000Y-116300000D02*
X138397500Y-116300000D01*
X138397500Y-116300000D02*
X140000000Y-117902500D01*
X133900000Y-116350000D02*
X136850000Y-116350000D01*
X136850000Y-116350000D02*
X136900000Y-116300000D01*
X141145000Y-124800000D02*
X140250000Y-124800000D01*
X140250000Y-124800000D02*
X139550000Y-124100000D01*
X139550000Y-119850000D02*
X140000000Y-119400000D01*
X140000000Y-119400000D02*
X140000000Y-117902500D01*
X133900000Y-116350000D02*
X133900000Y-114500000D01*
X134425000Y-110075000D02*
X132100000Y-110075000D01*
X134900000Y-110550000D02*
X134425000Y-110075000D01*
X134900000Y-113500000D02*
X134900000Y-110550000D01*
X133900000Y-114500000D02*
X134900000Y-113500000D01*
X104076500Y-123126500D02*
X117355620Y-123126500D01*
X117355620Y-123126500D02*
X117411500Y-123182380D01*
X122682000Y-126484380D02*
X117149880Y-126484380D01*
X116332000Y-125666500D02*
X104076500Y-125666500D01*
X117149880Y-126484380D02*
X116332000Y-125666500D01*
D38*
X143700000Y-102260000D02*
X143340000Y-102260000D01*
X132100000Y-109425000D02*
X132100000Y-108200000D01*
X138000000Y-110075000D02*
X139325000Y-110075000D01*
X136080000Y-105880000D02*
X136080000Y-104800000D01*
X137100000Y-106900000D02*
X136080000Y-105880000D01*
X138350000Y-106900000D02*
X137100000Y-106900000D01*
X139750000Y-108300000D02*
X138350000Y-106900000D01*
X139750000Y-109650000D02*
X139750000Y-108300000D01*
X139325000Y-110075000D02*
X139750000Y-109650000D01*
X138000000Y-109425000D02*
X136475000Y-109425000D01*
X133650000Y-106600000D02*
X133650000Y-104910000D01*
X136475000Y-109425000D02*
X133650000Y-106600000D01*
X133650000Y-104910000D02*
X133540000Y-104800000D01*
X138000000Y-110725000D02*
X136425000Y-110725000D01*
X131000000Y-106150000D02*
X131000000Y-104800000D01*
X131450000Y-106600000D02*
X131000000Y-106150000D01*
X132350000Y-106600000D02*
X131450000Y-106600000D01*
X134450000Y-108700000D02*
X132350000Y-106600000D01*
X134450000Y-108750000D02*
X134450000Y-108700000D01*
X136425000Y-110725000D02*
X134450000Y-108750000D01*
D37*
X146701000Y-136398000D02*
X146701000Y-136382000D01*
X146701000Y-136382000D02*
X149650000Y-133433000D01*
X149650000Y-133433000D02*
X149650000Y-132900000D01*
X149971000Y-133221000D02*
X149650000Y-132900000D01*
X143685000Y-130200000D02*
X143685000Y-132535000D01*
X143685000Y-132535000D02*
X144200000Y-133050000D01*
X149650000Y-132900000D02*
X152400000Y-132900000D01*
X152400000Y-132900000D02*
X152650000Y-133150000D01*
X145900000Y-133050000D02*
X149500000Y-133050000D01*
X149500000Y-133050000D02*
X149650000Y-132900000D01*
X144200000Y-133050000D02*
X145900000Y-133050000D01*
X145800000Y-133050000D02*
X145900000Y-133050000D01*
X134250000Y-129485000D02*
X137585000Y-129485000D01*
X137585000Y-129485000D02*
X137900000Y-129800000D01*
X137900000Y-129900000D02*
X137900000Y-129500000D01*
X137900000Y-129500000D02*
X139850000Y-127550000D01*
X142415000Y-128465000D02*
X142415000Y-130200000D01*
X141600000Y-127650000D02*
X142415000Y-128465000D01*
X139850000Y-127550000D02*
X139950000Y-127650000D01*
X139950000Y-127650000D02*
X141600000Y-127650000D01*
X141145000Y-130200000D02*
X140691000Y-130200000D01*
X130250000Y-128408500D02*
X130250000Y-127450000D01*
X132969000Y-131127500D02*
X130250000Y-128408500D01*
X139763500Y-131127500D02*
X132969000Y-131127500D01*
X140691000Y-130200000D02*
X139763500Y-131127500D01*
X130250000Y-127450000D02*
X131249000Y-127450000D01*
X132484000Y-126215000D02*
X134250000Y-126215000D01*
X131249000Y-127450000D02*
X132484000Y-126215000D01*
D38*
X156198880Y-104961120D02*
X156360000Y-104800000D01*
D37*
X139775000Y-126075000D02*
X139725000Y-126075000D01*
X139725000Y-126075000D02*
X136250000Y-122600000D01*
X133200000Y-122600000D02*
X131100000Y-122600000D01*
X131100000Y-122600000D02*
X130250000Y-123450000D01*
X130250000Y-123450000D02*
X130250000Y-124750000D01*
X133200000Y-122600000D02*
X136250000Y-122600000D01*
X139750000Y-126050000D02*
X139775000Y-126075000D01*
X139775000Y-126075000D02*
X140600000Y-126900000D01*
X140600000Y-126900000D02*
X144100000Y-126900000D01*
X144100000Y-126900000D02*
X144955000Y-126045000D01*
X144955000Y-124800000D02*
X144955000Y-126045000D01*
X144955000Y-124800000D02*
X147100000Y-124800000D01*
X147100000Y-124800000D02*
X147150000Y-124750000D01*
X143685000Y-124800000D02*
X143685000Y-123665000D01*
X147600000Y-123000000D02*
X149350000Y-124750000D01*
X144350000Y-123000000D02*
X147600000Y-123000000D01*
X143685000Y-123665000D02*
X144350000Y-123000000D01*
X143685000Y-124800000D02*
X143685000Y-123585000D01*
X143685000Y-123585000D02*
X142550000Y-122450000D01*
X142550000Y-122450000D02*
X142550000Y-121800000D01*
X139850000Y-121800000D02*
X132550000Y-121800000D01*
X132000000Y-121250000D02*
X132000000Y-114075000D01*
X132550000Y-121800000D02*
X132000000Y-121250000D01*
X132000000Y-114075000D02*
X132100000Y-113975000D01*
X139850000Y-121800000D02*
X140150000Y-121800000D01*
X140150000Y-121800000D02*
X142415000Y-124065000D01*
X142415000Y-124065000D02*
X142415000Y-124800000D01*
X138918000Y-137922000D02*
X141398000Y-137922000D01*
X128016000Y-134366000D02*
X127444500Y-133794500D01*
X128270000Y-134620000D02*
X128016000Y-134366000D01*
X136418000Y-137922000D02*
X136418000Y-136164000D01*
X134874000Y-134620000D02*
X132842000Y-134620000D01*
X136418000Y-136164000D02*
X134874000Y-134620000D01*
X128270000Y-134620000D02*
X132842000Y-134620000D01*
X126682500Y-133032500D02*
X119062500Y-133032500D01*
X127444500Y-133794500D02*
X126682500Y-133032500D01*
X136325000Y-113975000D02*
X138000000Y-113975000D01*
X135950000Y-114350000D02*
X136325000Y-113975000D01*
X149971000Y-136398000D02*
X149971000Y-138128500D01*
X149764500Y-137922000D02*
X144098000Y-137922000D01*
X149971000Y-138128500D02*
X149764500Y-137922000D01*
X143336000Y-134620000D02*
X143336000Y-137160000D01*
X143336000Y-137160000D02*
X144098000Y-137922000D01*
X117464840Y-115158520D02*
X115793520Y-115158520D01*
X138620000Y-100774000D02*
X136144000Y-98298000D01*
X136144000Y-98298000D02*
X129286000Y-98298000D01*
X138620000Y-100774000D02*
X138620000Y-102260000D01*
X117221000Y-98298000D02*
X129286000Y-98298000D01*
X114300000Y-101219000D02*
X117221000Y-98298000D01*
X114300000Y-113665000D02*
X114300000Y-101219000D01*
X115793520Y-115158520D02*
X114300000Y-113665000D01*
X122792500Y-108458000D02*
X122792500Y-113618000D01*
X121251980Y-115158520D02*
X117464840Y-115158520D01*
X122792500Y-113618000D02*
X121251980Y-115158520D01*
X122825500Y-99949000D02*
X124079000Y-99949000D01*
X133096000Y-99314000D02*
X128016000Y-99314000D01*
X133096000Y-99314000D02*
X136042000Y-102260000D01*
X124714000Y-99314000D02*
X128016000Y-99314000D01*
X124079000Y-99949000D02*
X124714000Y-99314000D01*
X136080000Y-102260000D02*
X136042000Y-102260000D01*
X122792500Y-104076500D02*
X122792500Y-102014020D01*
X122809000Y-102044500D02*
X122809000Y-102014020D01*
X122809000Y-102030520D02*
X122809000Y-102044500D01*
X122792500Y-102014020D02*
X122809000Y-102030520D01*
X124968000Y-100909120D02*
X124960380Y-100909120D01*
X132080000Y-100330000D02*
X125547120Y-100330000D01*
X125547120Y-100330000D02*
X124968000Y-100909120D01*
X133540000Y-101790000D02*
X132080000Y-100330000D01*
X123855480Y-102014020D02*
X122809000Y-102014020D01*
X122809000Y-102014020D02*
X117528340Y-102014020D01*
X124960380Y-100909120D02*
X123855480Y-102014020D01*
X133540000Y-102260000D02*
X133540000Y-101790000D01*
X107108000Y-99377500D02*
X106807000Y-99377500D01*
X106807000Y-99377500D02*
X105092500Y-101092000D01*
X105092500Y-101092000D02*
X105092500Y-104521000D01*
X107108000Y-99377500D02*
X107108000Y-99711500D01*
X109928660Y-104663240D02*
X109839760Y-104663240D01*
X109839760Y-104663240D02*
X107442000Y-107061000D01*
X107442000Y-107061000D02*
X105092500Y-107061000D01*
X109928660Y-104663240D02*
X109331760Y-104663240D01*
X117401340Y-108935520D02*
X117401340Y-107368340D01*
X117401340Y-107368340D02*
X117221000Y-107188000D01*
X109865160Y-117807740D02*
X104536240Y-117807740D01*
X103378000Y-112141000D02*
X105092500Y-112141000D01*
X102489000Y-113030000D02*
X103378000Y-112141000D01*
X102489000Y-115760500D02*
X102489000Y-113030000D01*
X104536240Y-117807740D02*
X102489000Y-115760500D01*
X117401340Y-113230660D02*
X117401340Y-111536480D01*
X117348000Y-113284000D02*
X117401340Y-113230660D01*
X109928660Y-102014020D02*
X110904020Y-102014020D01*
X110904020Y-102014020D02*
X111696500Y-102806500D01*
X108427520Y-115158520D02*
X109865160Y-115158520D01*
X107378500Y-114109500D02*
X108427520Y-115158520D01*
X107378500Y-108204000D02*
X107378500Y-114109500D01*
X108458000Y-107124500D02*
X107378500Y-108204000D01*
X110553500Y-107124500D02*
X108458000Y-107124500D01*
X111696500Y-105981500D02*
X110553500Y-107124500D01*
X111696500Y-102806500D02*
X111696500Y-105981500D01*
X109808000Y-99377500D02*
X109808000Y-101893360D01*
X109808000Y-101893360D02*
X109928660Y-102014020D01*
X120125500Y-99949000D02*
X118046500Y-99949000D01*
X111091980Y-108935520D02*
X109801660Y-108935520D01*
X112649000Y-107378500D02*
X111091980Y-108935520D01*
X112649000Y-100584000D02*
X112649000Y-107378500D01*
X113284000Y-99949000D02*
X112649000Y-100584000D01*
M02*
