%FSLAX46Y46*%
G04 Gerber Fmt 4.6, Leading zero omitted, Abs format (unit mm)*
G04 Created by KiCad (PCBNEW (2014-10-27 BZR 5228)-product) date 29/03/2015 08:33:29*
%MOMM*%
G01*
G04 APERTURE LIST*
%ADD10C,0.100000*%
%ADD11C,0.300000*%
%ADD12C,0.099060*%
%ADD13C,0.150000*%
G04 APERTURE END LIST*
D10*
D11*
X22000001Y-47478571D02*
X21500001Y-46764286D01*
X21142858Y-47478571D02*
X21142858Y-45978571D01*
X21714286Y-45978571D01*
X21857144Y-46050000D01*
X21928572Y-46121429D01*
X22000001Y-46264286D01*
X22000001Y-46478571D01*
X21928572Y-46621429D01*
X21857144Y-46692857D01*
X21714286Y-46764286D01*
X21142858Y-46764286D01*
X22500001Y-45978571D02*
X23500001Y-47478571D01*
X23500001Y-45978571D02*
X22500001Y-47478571D01*
X26507143Y-46078571D02*
X27364286Y-46078571D01*
X26935715Y-47578571D02*
X26935715Y-46078571D01*
X27721429Y-46078571D02*
X28721429Y-47578571D01*
X28721429Y-46078571D02*
X27721429Y-47578571D01*
X33414286Y-8678571D02*
X33414286Y-7178571D01*
X33985714Y-7178571D01*
X34128572Y-7250000D01*
X34200000Y-7321429D01*
X34271429Y-7464286D01*
X34271429Y-7678571D01*
X34200000Y-7821429D01*
X34128572Y-7892857D01*
X33985714Y-7964286D01*
X33414286Y-7964286D01*
X34700000Y-7178571D02*
X35557143Y-7178571D01*
X35128572Y-8678571D02*
X35128572Y-7178571D01*
X35842857Y-7178571D02*
X36700000Y-7178571D01*
X36271429Y-8678571D02*
X36271429Y-7178571D01*
X37250000Y-46178571D02*
X37250000Y-44678571D01*
X37821428Y-44678571D01*
X37964286Y-44750000D01*
X38035714Y-44821429D01*
X38107143Y-44964286D01*
X38107143Y-45178571D01*
X38035714Y-45321429D01*
X37964286Y-45392857D01*
X37821428Y-45464286D01*
X37250000Y-45464286D01*
X38607143Y-44678571D02*
X38964286Y-46178571D01*
X39250000Y-45107143D01*
X39535714Y-46178571D01*
X39892857Y-44678571D01*
X41321429Y-46178571D02*
X40821429Y-45464286D01*
X40464286Y-46178571D02*
X40464286Y-44678571D01*
X41035714Y-44678571D01*
X41178572Y-44750000D01*
X41250000Y-44821429D01*
X41321429Y-44964286D01*
X41321429Y-45178571D01*
X41250000Y-45321429D01*
X41178572Y-45392857D01*
X41035714Y-45464286D01*
X40464286Y-45464286D01*
D12*
X20139000Y-39951000D02*
G75*
G03X20139000Y-39951000I-127000J0D01*
G01*
X20012000Y-38808000D02*
X20012000Y-39824000D01*
X20012000Y-39824000D02*
X18488000Y-39824000D01*
X18488000Y-39824000D02*
X18488000Y-38808000D01*
X18488000Y-37792000D02*
X18488000Y-36776000D01*
X18488000Y-36776000D02*
X20012000Y-36776000D01*
X20012000Y-36776000D02*
X20012000Y-37792000D01*
X20139000Y-44051000D02*
G75*
G03X20139000Y-44051000I-127000J0D01*
G01*
X20012000Y-42908000D02*
X20012000Y-43924000D01*
X20012000Y-43924000D02*
X18488000Y-43924000D01*
X18488000Y-43924000D02*
X18488000Y-42908000D01*
X18488000Y-41892000D02*
X18488000Y-40876000D01*
X18488000Y-40876000D02*
X20012000Y-40876000D01*
X20012000Y-40876000D02*
X20012000Y-41892000D01*
D10*
X14849620Y-42101040D02*
X14849620Y-40698960D01*
X14450840Y-42101040D02*
X16249160Y-42101040D01*
X16249160Y-42101040D02*
X16249160Y-40698960D01*
X16249160Y-40698960D02*
X14450840Y-40698960D01*
X14450840Y-40698960D02*
X14450840Y-42101040D01*
X24750000Y-37600000D02*
X24750000Y-42500000D01*
X24750000Y-42500000D02*
X27150000Y-42500000D01*
X27150000Y-42500000D02*
X27150000Y-37600000D01*
X27150000Y-37600000D02*
X24750000Y-37600000D01*
X12350000Y-42600000D02*
X12350000Y-37700000D01*
X12350000Y-37700000D02*
X9950000Y-37700000D01*
X9950000Y-37700000D02*
X9950000Y-42600000D01*
X9950000Y-42600000D02*
X12350000Y-42600000D01*
X29450000Y-35000000D02*
X29450000Y-27600000D01*
X29450000Y-27600000D02*
X34850000Y-27600000D01*
X34850000Y-27600000D02*
X34850000Y-35000000D01*
X34850000Y-35000000D02*
X29450000Y-35000000D01*
X15050000Y-35000000D02*
X15050000Y-27600000D01*
X15050000Y-27600000D02*
X20450000Y-27600000D01*
X20450000Y-27600000D02*
X20450000Y-35000000D01*
X20450000Y-35000000D02*
X15050000Y-35000000D01*
X15800000Y-21050000D02*
X10900000Y-21050000D01*
X10900000Y-21050000D02*
X10900000Y-23450000D01*
X10900000Y-23450000D02*
X15800000Y-23450000D01*
X15800000Y-23450000D02*
X15800000Y-21050000D01*
D13*
X38349720Y-41502160D02*
X38674840Y-41502160D01*
X38674840Y-41502160D02*
X38674840Y-41001780D01*
X38349720Y-41001780D02*
X38674840Y-41001780D01*
X38349720Y-41502160D02*
X38349720Y-41001780D01*
X37727420Y-41502160D02*
X37877280Y-41502160D01*
X37877280Y-41502160D02*
X37877280Y-41250700D01*
X37727420Y-41250700D02*
X37877280Y-41250700D01*
X37727420Y-41502160D02*
X37727420Y-41250700D01*
X38222720Y-41502160D02*
X38372580Y-41502160D01*
X38372580Y-41502160D02*
X38372580Y-41250700D01*
X38222720Y-41250700D02*
X38372580Y-41250700D01*
X38222720Y-41502160D02*
X38222720Y-41250700D01*
X37851880Y-41502160D02*
X38248120Y-41502160D01*
X38248120Y-41502160D02*
X38248120Y-41326900D01*
X37851880Y-41326900D02*
X38248120Y-41326900D01*
X37851880Y-41502160D02*
X37851880Y-41326900D01*
X38349720Y-42998220D02*
X38674840Y-42998220D01*
X38674840Y-42998220D02*
X38674840Y-42497840D01*
X38349720Y-42497840D02*
X38674840Y-42497840D01*
X38349720Y-42998220D02*
X38349720Y-42497840D01*
X37425160Y-42998220D02*
X37750280Y-42998220D01*
X37750280Y-42998220D02*
X37750280Y-42497840D01*
X37425160Y-42497840D02*
X37750280Y-42497840D01*
X37425160Y-42998220D02*
X37425160Y-42497840D01*
X38222720Y-42749300D02*
X38372580Y-42749300D01*
X38372580Y-42749300D02*
X38372580Y-42497840D01*
X38222720Y-42497840D02*
X38372580Y-42497840D01*
X38222720Y-42749300D02*
X38222720Y-42497840D01*
X37727420Y-42749300D02*
X37877280Y-42749300D01*
X37877280Y-42749300D02*
X37877280Y-42497840D01*
X37727420Y-42497840D02*
X37877280Y-42497840D01*
X37727420Y-42749300D02*
X37727420Y-42497840D01*
X37851880Y-42673100D02*
X38248120Y-42673100D01*
X38248120Y-42673100D02*
X38248120Y-42497840D01*
X37851880Y-42497840D02*
X38248120Y-42497840D01*
X37851880Y-42673100D02*
X37851880Y-42497840D01*
X37950940Y-42000000D02*
X38149060Y-42000000D01*
X38149060Y-42000000D02*
X38149060Y-41801880D01*
X37950940Y-41801880D02*
X38149060Y-41801880D01*
X37950940Y-42000000D02*
X37950940Y-41801880D01*
X37450560Y-41502160D02*
X37750280Y-41502160D01*
X37750280Y-41502160D02*
X37750280Y-41202440D01*
X37450560Y-41202440D02*
X37750280Y-41202440D01*
X37450560Y-41502160D02*
X37450560Y-41202440D01*
X37425160Y-41075440D02*
X37651220Y-41075440D01*
X37651220Y-41075440D02*
X37651220Y-41001780D01*
X37425160Y-41001780D02*
X37651220Y-41001780D01*
X37425160Y-41075440D02*
X37425160Y-41001780D01*
X38624040Y-41476760D02*
X38624040Y-42523240D01*
X37475960Y-42497840D02*
X37475960Y-41075440D01*
X37672262Y-41151640D02*
G75*
G03X37672262Y-41151640I-71842J0D01*
G01*
X37702020Y-41001780D02*
G75*
G03X38397980Y-41001780I347980J0D01*
G01*
X38397980Y-42998220D02*
G75*
G03X37702020Y-42998220I-347980J0D01*
G01*
X37847840Y-6099720D02*
X37847840Y-6424840D01*
X37847840Y-6424840D02*
X38348220Y-6424840D01*
X38348220Y-6099720D02*
X38348220Y-6424840D01*
X37847840Y-6099720D02*
X38348220Y-6099720D01*
X37847840Y-5477420D02*
X37847840Y-5627280D01*
X37847840Y-5627280D02*
X38099300Y-5627280D01*
X38099300Y-5477420D02*
X38099300Y-5627280D01*
X37847840Y-5477420D02*
X38099300Y-5477420D01*
X37847840Y-5972720D02*
X37847840Y-6122580D01*
X37847840Y-6122580D02*
X38099300Y-6122580D01*
X38099300Y-5972720D02*
X38099300Y-6122580D01*
X37847840Y-5972720D02*
X38099300Y-5972720D01*
X37847840Y-5601880D02*
X37847840Y-5998120D01*
X37847840Y-5998120D02*
X38023100Y-5998120D01*
X38023100Y-5601880D02*
X38023100Y-5998120D01*
X37847840Y-5601880D02*
X38023100Y-5601880D01*
X36351780Y-6099720D02*
X36351780Y-6424840D01*
X36351780Y-6424840D02*
X36852160Y-6424840D01*
X36852160Y-6099720D02*
X36852160Y-6424840D01*
X36351780Y-6099720D02*
X36852160Y-6099720D01*
X36351780Y-5175160D02*
X36351780Y-5500280D01*
X36351780Y-5500280D02*
X36852160Y-5500280D01*
X36852160Y-5175160D02*
X36852160Y-5500280D01*
X36351780Y-5175160D02*
X36852160Y-5175160D01*
X36600700Y-5972720D02*
X36600700Y-6122580D01*
X36600700Y-6122580D02*
X36852160Y-6122580D01*
X36852160Y-5972720D02*
X36852160Y-6122580D01*
X36600700Y-5972720D02*
X36852160Y-5972720D01*
X36600700Y-5477420D02*
X36600700Y-5627280D01*
X36600700Y-5627280D02*
X36852160Y-5627280D01*
X36852160Y-5477420D02*
X36852160Y-5627280D01*
X36600700Y-5477420D02*
X36852160Y-5477420D01*
X36676900Y-5601880D02*
X36676900Y-5998120D01*
X36676900Y-5998120D02*
X36852160Y-5998120D01*
X36852160Y-5601880D02*
X36852160Y-5998120D01*
X36676900Y-5601880D02*
X36852160Y-5601880D01*
X37350000Y-5700940D02*
X37350000Y-5899060D01*
X37350000Y-5899060D02*
X37548120Y-5899060D01*
X37548120Y-5700940D02*
X37548120Y-5899060D01*
X37350000Y-5700940D02*
X37548120Y-5700940D01*
X37847840Y-5200560D02*
X37847840Y-5500280D01*
X37847840Y-5500280D02*
X38147560Y-5500280D01*
X38147560Y-5200560D02*
X38147560Y-5500280D01*
X37847840Y-5200560D02*
X38147560Y-5200560D01*
X38274560Y-5175160D02*
X38274560Y-5401220D01*
X38274560Y-5401220D02*
X38348220Y-5401220D01*
X38348220Y-5175160D02*
X38348220Y-5401220D01*
X38274560Y-5175160D02*
X38348220Y-5175160D01*
X37873240Y-6374040D02*
X36826760Y-6374040D01*
X36852160Y-5225960D02*
X38274560Y-5225960D01*
X38270202Y-5350420D02*
G75*
G03X38270202Y-5350420I-71842J0D01*
G01*
X38348220Y-5452020D02*
G75*
G03X38348220Y-6147980I0J-347980D01*
G01*
X36351780Y-6147980D02*
G75*
G03X36351780Y-5452020I0J347980D01*
G01*
X32120000Y-45630000D02*
X34660000Y-45630000D01*
X29300000Y-45350000D02*
X30850000Y-45350000D01*
X32120000Y-45630000D02*
X32120000Y-48170000D01*
X30850000Y-48450000D02*
X29300000Y-48450000D01*
X29300000Y-48450000D02*
X29300000Y-45350000D01*
X32120000Y-48170000D02*
X34660000Y-48170000D01*
X34660000Y-48170000D02*
X34660000Y-45630000D01*
X17820000Y-45430000D02*
X20360000Y-45430000D01*
X15000000Y-45150000D02*
X16550000Y-45150000D01*
X17820000Y-45430000D02*
X17820000Y-47970000D01*
X16550000Y-48250000D02*
X15000000Y-48250000D01*
X15000000Y-48250000D02*
X15000000Y-45150000D01*
X17820000Y-47970000D02*
X20360000Y-47970000D01*
X20360000Y-47970000D02*
X20360000Y-45430000D01*
X40374000Y-9181000D02*
X37326000Y-9181000D01*
X37326000Y-9181000D02*
X37326000Y-8419000D01*
X37326000Y-8419000D02*
X40374000Y-8419000D01*
X40374000Y-8419000D02*
X40374000Y-9181000D01*
X42075000Y-10600000D02*
X42075000Y-9400000D01*
X43825000Y-9400000D02*
X43825000Y-10600000D01*
X40075000Y-42300000D02*
X40075000Y-41100000D01*
X41825000Y-41100000D02*
X41825000Y-42300000D01*
X38650000Y-2525000D02*
X39850000Y-2525000D01*
X39850000Y-4275000D02*
X38650000Y-4275000D01*
X42220000Y-38200000D02*
X39680000Y-38200000D01*
X39680000Y-38200000D02*
X39680000Y-12800000D01*
X39680000Y-12800000D02*
X42220000Y-12800000D01*
X42220000Y-12800000D02*
X42220000Y-38200000D01*
X42220000Y-35660000D02*
X39680000Y-35660000D01*
X16575000Y-11975000D02*
X16680000Y-11975000D01*
X16575000Y-7825000D02*
X16680000Y-7825000D01*
X26725000Y-7825000D02*
X26620000Y-7825000D01*
X26725000Y-11975000D02*
X26620000Y-11975000D01*
X16575000Y-11975000D02*
X16575000Y-7825000D01*
X26725000Y-11975000D02*
X26725000Y-7825000D01*
X16680000Y-11975000D02*
X16680000Y-13350000D01*
X34025000Y-22775000D02*
X34025000Y-22670000D01*
X29875000Y-22775000D02*
X29875000Y-22670000D01*
X29875000Y-12625000D02*
X29875000Y-12730000D01*
X34025000Y-12625000D02*
X34025000Y-12730000D01*
X34025000Y-22775000D02*
X29875000Y-22775000D01*
X34025000Y-12625000D02*
X29875000Y-12625000D01*
X34025000Y-22670000D02*
X35400000Y-22670000D01*
X45080000Y-38030000D02*
X45080000Y-10090000D01*
X45080000Y-10090000D02*
X47620000Y-10090000D01*
X47620000Y-10090000D02*
X47620000Y-38030000D01*
X44800000Y-40850000D02*
X44800000Y-39300000D01*
X45080000Y-38030000D02*
X47620000Y-38030000D01*
X47900000Y-39300000D02*
X47900000Y-40850000D01*
X47900000Y-40850000D02*
X44800000Y-40850000D01*
X16820000Y-1730000D02*
X32060000Y-1730000D01*
X32060000Y-1730000D02*
X32060000Y-4270000D01*
X32060000Y-4270000D02*
X16820000Y-4270000D01*
X14000000Y-1450000D02*
X15550000Y-1450000D01*
X16820000Y-1730000D02*
X16820000Y-4270000D01*
X15550000Y-4550000D02*
X14000000Y-4550000D01*
X14000000Y-4550000D02*
X14000000Y-1450000D01*
D10*
X19200000Y-36116666D02*
X19233333Y-36150000D01*
X19266667Y-36250000D01*
X19266667Y-36316666D01*
X19233333Y-36416666D01*
X19166667Y-36483333D01*
X19100000Y-36516666D01*
X18966667Y-36550000D01*
X18866667Y-36550000D01*
X18733333Y-36516666D01*
X18666667Y-36483333D01*
X18600000Y-36416666D01*
X18566667Y-36316666D01*
X18566667Y-36250000D01*
X18600000Y-36150000D01*
X18633333Y-36116666D01*
X18566667Y-35883333D02*
X18566667Y-35450000D01*
X18833333Y-35683333D01*
X18833333Y-35583333D01*
X18866667Y-35516666D01*
X18900000Y-35483333D01*
X18966667Y-35450000D01*
X19133333Y-35450000D01*
X19200000Y-35483333D01*
X19233333Y-35516666D01*
X19266667Y-35583333D01*
X19266667Y-35783333D01*
X19233333Y-35850000D01*
X19200000Y-35883333D01*
X17633334Y-42650000D02*
X17600000Y-42683333D01*
X17500000Y-42716667D01*
X17433334Y-42716667D01*
X17333334Y-42683333D01*
X17266667Y-42616667D01*
X17233334Y-42550000D01*
X17200000Y-42416667D01*
X17200000Y-42316667D01*
X17233334Y-42183333D01*
X17266667Y-42116667D01*
X17333334Y-42050000D01*
X17433334Y-42016667D01*
X17500000Y-42016667D01*
X17600000Y-42050000D01*
X17633334Y-42083333D01*
X18233334Y-42250000D02*
X18233334Y-42716667D01*
X18066667Y-41983333D02*
X17900000Y-42483333D01*
X18333334Y-42483333D01*
X14933334Y-40416667D02*
X14933334Y-39716667D01*
X15100000Y-39716667D01*
X15200000Y-39750000D01*
X15266667Y-39816667D01*
X15300000Y-39883333D01*
X15333334Y-40016667D01*
X15333334Y-40116667D01*
X15300000Y-40250000D01*
X15266667Y-40316667D01*
X15200000Y-40383333D01*
X15100000Y-40416667D01*
X14933334Y-40416667D01*
X16000000Y-40416667D02*
X15600000Y-40416667D01*
X15800000Y-40416667D02*
X15800000Y-39716667D01*
X15733334Y-39816667D01*
X15666667Y-39883333D01*
X15600000Y-39916667D01*
X25566667Y-36983333D02*
X26066667Y-36983333D01*
X26166667Y-37016667D01*
X26233333Y-37083333D01*
X26266667Y-37183333D01*
X26266667Y-37250000D01*
X26266667Y-36283334D02*
X26266667Y-36683334D01*
X26266667Y-36483334D02*
X25566667Y-36483334D01*
X25666667Y-36550000D01*
X25733333Y-36616667D01*
X25766667Y-36683334D01*
X10766667Y-43633333D02*
X11266667Y-43633333D01*
X11366667Y-43666667D01*
X11433333Y-43733333D01*
X11466667Y-43833333D01*
X11466667Y-43900000D01*
X10833333Y-43333334D02*
X10800000Y-43300000D01*
X10766667Y-43233334D01*
X10766667Y-43066667D01*
X10800000Y-43000000D01*
X10833333Y-42966667D01*
X10900000Y-42933334D01*
X10966667Y-42933334D01*
X11066667Y-42966667D01*
X11466667Y-43366667D01*
X11466667Y-42933334D01*
X35116667Y-29633333D02*
X35116667Y-29233333D01*
X35816667Y-29433333D02*
X35116667Y-29433333D01*
X35816667Y-28633334D02*
X35816667Y-29033334D01*
X35816667Y-28833334D02*
X35116667Y-28833334D01*
X35216667Y-28900000D01*
X35283333Y-28966667D01*
X35316667Y-29033334D01*
X20666667Y-28633333D02*
X20666667Y-28233333D01*
X21366667Y-28433333D02*
X20666667Y-28433333D01*
X20733333Y-28033334D02*
X20700000Y-28000000D01*
X20666667Y-27933334D01*
X20666667Y-27766667D01*
X20700000Y-27700000D01*
X20733333Y-27666667D01*
X20800000Y-27633334D01*
X20866667Y-27633334D01*
X20966667Y-27666667D01*
X21366667Y-28066667D01*
X21366667Y-27633334D01*
X16650000Y-22733333D02*
X16683333Y-22766667D01*
X16716667Y-22866667D01*
X16716667Y-22933333D01*
X16683333Y-23033333D01*
X16616667Y-23100000D01*
X16550000Y-23133333D01*
X16416667Y-23166667D01*
X16316667Y-23166667D01*
X16183333Y-23133333D01*
X16116667Y-23100000D01*
X16050000Y-23033333D01*
X16016667Y-22933333D01*
X16016667Y-22866667D01*
X16050000Y-22766667D01*
X16083333Y-22733333D01*
X16716667Y-22433333D02*
X16016667Y-22433333D01*
X16716667Y-22033333D01*
X16016667Y-22033333D01*
X16016667Y-21766667D02*
X16016667Y-21333334D01*
X16283333Y-21566667D01*
X16283333Y-21466667D01*
X16316667Y-21400000D01*
X16350000Y-21366667D01*
X16416667Y-21333334D01*
X16583333Y-21333334D01*
X16650000Y-21366667D01*
X16683333Y-21400000D01*
X16716667Y-21466667D01*
X16716667Y-21666667D01*
X16683333Y-21733334D01*
X16650000Y-21766667D01*
D13*
X37232381Y-42738095D02*
X36232381Y-42738095D01*
X36232381Y-42500000D01*
X36280000Y-42357142D01*
X36375238Y-42261904D01*
X36470476Y-42214285D01*
X36660952Y-42166666D01*
X36803810Y-42166666D01*
X36994286Y-42214285D01*
X37089524Y-42261904D01*
X37184762Y-42357142D01*
X37232381Y-42500000D01*
X37232381Y-42738095D01*
X36327619Y-41785714D02*
X36280000Y-41738095D01*
X36232381Y-41642857D01*
X36232381Y-41404761D01*
X36280000Y-41309523D01*
X36327619Y-41261904D01*
X36422857Y-41214285D01*
X36518095Y-41214285D01*
X36660952Y-41261904D01*
X37232381Y-41833333D01*
X37232381Y-41214285D01*
X36611905Y-4982381D02*
X36611905Y-3982381D01*
X36850000Y-3982381D01*
X36992858Y-4030000D01*
X37088096Y-4125238D01*
X37135715Y-4220476D01*
X37183334Y-4410952D01*
X37183334Y-4553810D01*
X37135715Y-4744286D01*
X37088096Y-4839524D01*
X36992858Y-4934762D01*
X36850000Y-4982381D01*
X36611905Y-4982381D01*
X37516667Y-3982381D02*
X38135715Y-3982381D01*
X37802381Y-4363333D01*
X37945239Y-4363333D01*
X38040477Y-4410952D01*
X38088096Y-4458571D01*
X38135715Y-4553810D01*
X38135715Y-4791905D01*
X38088096Y-4887143D01*
X38040477Y-4934762D01*
X37945239Y-4982381D01*
X37659524Y-4982381D01*
X37564286Y-4934762D01*
X37516667Y-4887143D01*
X36302381Y-47538095D02*
X35302381Y-47538095D01*
X35302381Y-47157142D01*
X35350000Y-47061904D01*
X35397619Y-47014285D01*
X35492857Y-46966666D01*
X35635714Y-46966666D01*
X35730952Y-47014285D01*
X35778571Y-47061904D01*
X35826190Y-47157142D01*
X35826190Y-47538095D01*
X36302381Y-46014285D02*
X36302381Y-46585714D01*
X36302381Y-46300000D02*
X35302381Y-46300000D01*
X35445238Y-46395238D01*
X35540476Y-46490476D01*
X35588095Y-46585714D01*
X14402381Y-47538095D02*
X13402381Y-47538095D01*
X13402381Y-47157142D01*
X13450000Y-47061904D01*
X13497619Y-47014285D01*
X13592857Y-46966666D01*
X13735714Y-46966666D01*
X13830952Y-47014285D01*
X13878571Y-47061904D01*
X13926190Y-47157142D01*
X13926190Y-47538095D01*
X13497619Y-46585714D02*
X13450000Y-46538095D01*
X13402381Y-46442857D01*
X13402381Y-46204761D01*
X13450000Y-46109523D01*
X13497619Y-46061904D01*
X13592857Y-46014285D01*
X13688095Y-46014285D01*
X13830952Y-46061904D01*
X14402381Y-46633333D01*
X14402381Y-46014285D01*
X38754762Y-11506619D02*
X38659524Y-11459000D01*
X38564286Y-11363762D01*
X38421429Y-11220905D01*
X38326190Y-11173286D01*
X38230952Y-11173286D01*
X38278571Y-11411381D02*
X38183333Y-11363762D01*
X38088095Y-11268524D01*
X38040476Y-11078048D01*
X38040476Y-10744714D01*
X38088095Y-10554238D01*
X38183333Y-10459000D01*
X38278571Y-10411381D01*
X38469048Y-10411381D01*
X38564286Y-10459000D01*
X38659524Y-10554238D01*
X38707143Y-10744714D01*
X38707143Y-11078048D01*
X38659524Y-11268524D01*
X38564286Y-11363762D01*
X38469048Y-11411381D01*
X38278571Y-11411381D01*
X39659524Y-11411381D02*
X39088095Y-11411381D01*
X39373809Y-11411381D02*
X39373809Y-10411381D01*
X39278571Y-10554238D01*
X39183333Y-10649476D01*
X39088095Y-10697095D01*
X45502381Y-10166666D02*
X45026190Y-10500000D01*
X45502381Y-10738095D02*
X44502381Y-10738095D01*
X44502381Y-10357142D01*
X44550000Y-10261904D01*
X44597619Y-10214285D01*
X44692857Y-10166666D01*
X44835714Y-10166666D01*
X44930952Y-10214285D01*
X44978571Y-10261904D01*
X45026190Y-10357142D01*
X45026190Y-10738095D01*
X44597619Y-9785714D02*
X44550000Y-9738095D01*
X44502381Y-9642857D01*
X44502381Y-9404761D01*
X44550000Y-9309523D01*
X44597619Y-9261904D01*
X44692857Y-9214285D01*
X44788095Y-9214285D01*
X44930952Y-9261904D01*
X45502381Y-9833333D01*
X45502381Y-9214285D01*
X43502381Y-41866666D02*
X43026190Y-42200000D01*
X43502381Y-42438095D02*
X42502381Y-42438095D01*
X42502381Y-42057142D01*
X42550000Y-41961904D01*
X42597619Y-41914285D01*
X42692857Y-41866666D01*
X42835714Y-41866666D01*
X42930952Y-41914285D01*
X42978571Y-41961904D01*
X43026190Y-42057142D01*
X43026190Y-42438095D01*
X42502381Y-41533333D02*
X42502381Y-40914285D01*
X42883333Y-41247619D01*
X42883333Y-41104761D01*
X42930952Y-41009523D01*
X42978571Y-40961904D01*
X43073810Y-40914285D01*
X43311905Y-40914285D01*
X43407143Y-40961904D01*
X43454762Y-41009523D01*
X43502381Y-41104761D01*
X43502381Y-41390476D01*
X43454762Y-41485714D01*
X43407143Y-41533333D01*
X39083334Y-5952381D02*
X38750000Y-5476190D01*
X38511905Y-5952381D02*
X38511905Y-4952381D01*
X38892858Y-4952381D01*
X38988096Y-5000000D01*
X39035715Y-5047619D01*
X39083334Y-5142857D01*
X39083334Y-5285714D01*
X39035715Y-5380952D01*
X38988096Y-5428571D01*
X38892858Y-5476190D01*
X38511905Y-5476190D01*
X39940477Y-5285714D02*
X39940477Y-5952381D01*
X39702381Y-4904762D02*
X39464286Y-5619048D01*
X40083334Y-5619048D01*
X38862381Y-27182666D02*
X38386190Y-27516000D01*
X38862381Y-27754095D02*
X37862381Y-27754095D01*
X37862381Y-27373142D01*
X37910000Y-27277904D01*
X37957619Y-27230285D01*
X38052857Y-27182666D01*
X38195714Y-27182666D01*
X38290952Y-27230285D01*
X38338571Y-27277904D01*
X38386190Y-27373142D01*
X38386190Y-27754095D01*
X38862381Y-26182666D02*
X38386190Y-26516000D01*
X38862381Y-26754095D02*
X37862381Y-26754095D01*
X37862381Y-26373142D01*
X37910000Y-26277904D01*
X37957619Y-26230285D01*
X38052857Y-26182666D01*
X38195714Y-26182666D01*
X38290952Y-26230285D01*
X38338571Y-26277904D01*
X38386190Y-26373142D01*
X38386190Y-26754095D01*
X38862381Y-25230285D02*
X38862381Y-25801714D01*
X38862381Y-25516000D02*
X37862381Y-25516000D01*
X38005238Y-25611238D01*
X38100476Y-25706476D01*
X38148095Y-25801714D01*
X15102381Y-10661905D02*
X15911905Y-10661905D01*
X16007143Y-10614286D01*
X16054762Y-10566667D01*
X16102381Y-10471429D01*
X16102381Y-10280952D01*
X16054762Y-10185714D01*
X16007143Y-10138095D01*
X15911905Y-10090476D01*
X15102381Y-10090476D01*
X16102381Y-9090476D02*
X16102381Y-9661905D01*
X16102381Y-9376191D02*
X15102381Y-9376191D01*
X15245238Y-9471429D01*
X15340476Y-9566667D01*
X15388095Y-9661905D01*
X31188095Y-23152381D02*
X31188095Y-23961905D01*
X31235714Y-24057143D01*
X31283333Y-24104762D01*
X31378571Y-24152381D01*
X31569048Y-24152381D01*
X31664286Y-24104762D01*
X31711905Y-24057143D01*
X31759524Y-23961905D01*
X31759524Y-23152381D01*
X32188095Y-23247619D02*
X32235714Y-23200000D01*
X32330952Y-23152381D01*
X32569048Y-23152381D01*
X32664286Y-23200000D01*
X32711905Y-23247619D01*
X32759524Y-23342857D01*
X32759524Y-23438095D01*
X32711905Y-23580952D01*
X32140476Y-24152381D01*
X32759524Y-24152381D01*
X45611905Y-44852381D02*
X45611905Y-43852381D01*
X45992858Y-43852381D01*
X46088096Y-43900000D01*
X46135715Y-43947619D01*
X46183334Y-44042857D01*
X46183334Y-44185714D01*
X46135715Y-44280952D01*
X46088096Y-44328571D01*
X45992858Y-44376190D01*
X45611905Y-44376190D01*
X46516667Y-43852381D02*
X47135715Y-43852381D01*
X46802381Y-44233333D01*
X46945239Y-44233333D01*
X47040477Y-44280952D01*
X47088096Y-44328571D01*
X47135715Y-44423810D01*
X47135715Y-44661905D01*
X47088096Y-44757143D01*
X47040477Y-44804762D01*
X46945239Y-44852381D01*
X46659524Y-44852381D01*
X46564286Y-44804762D01*
X46516667Y-44757143D01*
X29711905Y-5852381D02*
X29711905Y-4852381D01*
X30092858Y-4852381D01*
X30188096Y-4900000D01*
X30235715Y-4947619D01*
X30283334Y-5042857D01*
X30283334Y-5185714D01*
X30235715Y-5280952D01*
X30188096Y-5328571D01*
X30092858Y-5376190D01*
X29711905Y-5376190D01*
X31140477Y-5185714D02*
X31140477Y-5852381D01*
X30902381Y-4804762D02*
X30664286Y-5519048D01*
X31283334Y-5519048D01*
M02*
