M48
;DRILL file {kicad (2014-10-27 BZR 5228)-product} date 29/03/2015 08:33:32
;FORMAT={3:3/ absolute / metric / keep zeros}
FMAT,2
METRIC,TZ
T1C0.635
T2C0.813
T3C0.900
T4C1.016
T5C3.900
%
G90
G05
M71
T1
X009950Y-021800
X010250Y-025200
X010250Y-028200
X010250Y-031300
X015350Y-012700
X018850Y-023800
X018950Y-018300
X019650Y-009200
X020350Y-018600
X021750Y-009300
X022250Y-019600
X023550Y-020600
X023555Y-010100
X025250Y-014500
X026050Y-010200
X027250Y-006400
X027350Y-008000
X031350Y-011500
X032550Y-018200
X032650Y-013200
X032750Y-014600
X032750Y-015800
X038050Y-038900
X039750Y-011200
X041550Y-006100
X043050Y-014500
T2
X040950Y-014070
X040950Y-016610
X040950Y-019150
X040950Y-021690
X040950Y-024230
X040950Y-026770
X040950Y-029310
X040950Y-031850
X040950Y-034390
X040950Y-036930
T3
X011150Y-038900
X011150Y-041440
X012100Y-022250
X014640Y-022250
X016250Y-028800
X016250Y-031300
X016250Y-033800
X019250Y-028800
X019250Y-031300
X019250Y-033800
X025950Y-038760
X025950Y-041300
X030650Y-028800
X030650Y-031300
X030650Y-033800
X033650Y-028800
X033650Y-031300
X033650Y-033800
T4
X015550Y-003000
X016550Y-046700
X018090Y-003000
X019090Y-046700
X020630Y-003000
X023170Y-003000
X025710Y-003000
X028250Y-003000
X030790Y-003000
X030850Y-046900
X033390Y-046900
X046350Y-011360
X046350Y-013900
X046350Y-016440
X046350Y-018980
X046350Y-021520
X046350Y-024060
X046350Y-026600
X046350Y-029140
X046350Y-031680
X046350Y-034220
X046350Y-036760
X046350Y-039300
T5
X046050Y-003900
X046050Y-046000
T0
M30
