%FSLAX46Y46*%
G04 Gerber Fmt 4.6, Leading zero omitted, Abs format (unit mm)*
G04 Created by KiCad (PCBNEW (2014-10-27 BZR 5228)-product) date 29/03/2015 08:33:29*
%MOMM*%
G01*
G04 APERTURE LIST*
%ADD10C,0.100000*%
%ADD11C,6.350000*%
%ADD12R,1.397000X0.889000*%
%ADD13R,1.000760X0.599440*%
%ADD14C,1.800000*%
%ADD15R,1.800000X1.800000*%
%ADD16R,4.200000X0.700000*%
%ADD17R,1.198880X1.198880*%
%ADD18R,2.032000X2.032000*%
%ADD19O,2.032000X2.032000*%
%ADD20R,0.914400X0.914400*%
%ADD21R,1.300000X1.500000*%
%ADD22R,1.500000X1.300000*%
%ADD23R,1.397000X1.397000*%
%ADD24C,1.397000*%
%ADD25R,0.600000X1.500000*%
%ADD26R,1.500000X0.600000*%
%ADD27R,2.032000X1.727200*%
%ADD28O,2.032000X1.727200*%
%ADD29R,1.727200X2.032000*%
%ADD30O,1.727200X2.032000*%
%ADD31C,0.889000*%
G04 APERTURE END LIST*
D10*
D11*
X46050000Y-3900000D03*
X46050000Y-46000000D03*
D12*
X19250000Y-39252500D03*
X19250000Y-37347500D03*
X19250000Y-43352500D03*
X19250000Y-41447500D03*
D13*
X14250180Y-41400000D03*
X16449820Y-41400000D03*
D14*
X25950000Y-41300000D03*
X25950000Y-38760000D03*
X11150000Y-38900000D03*
X11150000Y-41440000D03*
X30650000Y-33800000D03*
X30650000Y-31300000D03*
D15*
X33650000Y-33800000D03*
D14*
X30650000Y-28800000D03*
X33650000Y-28800000D03*
X33650000Y-31300000D03*
X16250000Y-33800000D03*
X16250000Y-31300000D03*
D15*
X19250000Y-33800000D03*
D14*
X16250000Y-28800000D03*
X19250000Y-28800000D03*
X19250000Y-31300000D03*
D16*
X3550000Y-31200000D03*
X3550000Y-30200000D03*
X3550000Y-29200000D03*
X3550000Y-28200000D03*
X3550000Y-27200000D03*
X3550000Y-26200000D03*
X3550000Y-25200000D03*
X3550000Y-24200000D03*
X3550000Y-23200000D03*
X3550000Y-22200000D03*
X3550000Y-21200000D03*
X3550000Y-18200000D03*
X3550000Y-17200000D03*
X3550000Y-16200000D03*
X3550000Y-15200000D03*
X3550000Y-14200000D03*
X3550000Y-13200000D03*
X3550000Y-12200000D03*
D14*
X12100000Y-22250000D03*
X14640000Y-22250000D03*
D17*
X38050000Y-43049020D03*
X38050000Y-40950980D03*
X36300980Y-5800000D03*
X38399020Y-5800000D03*
D18*
X30850000Y-46900000D03*
D19*
X33390000Y-46900000D03*
D18*
X16550000Y-46700000D03*
D19*
X19090000Y-46700000D03*
D20*
X39739000Y-9816000D03*
X37961000Y-9816000D03*
X38850000Y-7784000D03*
D21*
X42950000Y-8650000D03*
X42950000Y-11350000D03*
X40950000Y-40350000D03*
X40950000Y-43050000D03*
D22*
X40600000Y-3400000D03*
X37900000Y-3400000D03*
D23*
X40950000Y-36930000D03*
D24*
X40950000Y-34390000D03*
X40950000Y-31850000D03*
X40950000Y-29310000D03*
X40950000Y-26770000D03*
X40950000Y-24230000D03*
X40950000Y-21690000D03*
X40950000Y-19150000D03*
X40950000Y-16610000D03*
X40950000Y-14070000D03*
D25*
X17205000Y-12600000D03*
X18475000Y-12600000D03*
X19745000Y-12600000D03*
X21015000Y-12600000D03*
X22285000Y-12600000D03*
X23555000Y-12600000D03*
X24825000Y-12600000D03*
X26095000Y-12600000D03*
X26095000Y-7200000D03*
X24825000Y-7200000D03*
X23555000Y-7200000D03*
X22285000Y-7200000D03*
X21015000Y-7200000D03*
X19745000Y-7200000D03*
X18475000Y-7200000D03*
X17205000Y-7200000D03*
D26*
X34650000Y-22145000D03*
X34650000Y-20875000D03*
X34650000Y-19605000D03*
X34650000Y-18335000D03*
X34650000Y-17065000D03*
X34650000Y-15795000D03*
X34650000Y-14525000D03*
X34650000Y-13255000D03*
X29250000Y-13255000D03*
X29250000Y-14525000D03*
X29250000Y-15795000D03*
X29250000Y-17065000D03*
X29250000Y-18335000D03*
X29250000Y-19605000D03*
X29250000Y-20875000D03*
X29250000Y-22145000D03*
D27*
X46350000Y-39300000D03*
D28*
X46350000Y-36760000D03*
X46350000Y-34220000D03*
X46350000Y-31680000D03*
X46350000Y-29140000D03*
X46350000Y-26600000D03*
X46350000Y-24060000D03*
X46350000Y-21520000D03*
X46350000Y-18980000D03*
X46350000Y-16440000D03*
X46350000Y-13900000D03*
X46350000Y-11360000D03*
D29*
X15550000Y-3000000D03*
D30*
X18090000Y-3000000D03*
X20630000Y-3000000D03*
X23170000Y-3000000D03*
X25710000Y-3000000D03*
X28250000Y-3000000D03*
X30790000Y-3000000D03*
D31*
X41550000Y-6100000D03*
X27350000Y-8000000D03*
X26050000Y-10200000D03*
X18850000Y-23800000D03*
X15350000Y-12700000D03*
X18950000Y-18300000D03*
X32750000Y-15800000D03*
X43050000Y-14500000D03*
X32750000Y-14600000D03*
X25250000Y-14500000D03*
X9950000Y-21800000D03*
X32650000Y-13200000D03*
X39750000Y-11200000D03*
X38050000Y-38900000D03*
X10250000Y-31300000D03*
X10250000Y-28200000D03*
X10250000Y-25200000D03*
X20350000Y-18600000D03*
X19650000Y-9200000D03*
X22250000Y-19600000D03*
X21750000Y-9300000D03*
X23550000Y-20600000D03*
X23555000Y-10100000D03*
X31350000Y-11500000D03*
X27250000Y-6400000D03*
X32550000Y-18200000D03*
M02*
