%FSLAX45Y45*%
G04 Gerber Fmt 4.5, Leading zero omitted, Abs format (unit mm)*
G04 Created by KiCad (PCBNEW (2014-10-27 BZR 5228)-product) date 29/03/2015 08:33:33*
%MOMM*%
G01*
G04 APERTURE LIST*
%ADD10C,0.127000*%
%ADD11C,0.020000*%
%ADD12C,0.200000*%
%ADD13C,0.300000*%
G04 APERTURE END LIST*
D10*
D11*
X845000Y0D02*
X845000Y-970000D01*
X845000Y-3370000D02*
X845000Y-4990000D01*
X4995000Y0D02*
X845000Y0D01*
X4995000Y-4990000D02*
X845000Y-4990000D01*
X4995000Y0D02*
X4995000Y-4990000D01*
D12*
X963250Y-2148250D02*
X1026750Y-2211750D01*
X1026750Y-2148250D02*
X963250Y-2211750D01*
X993250Y-2488250D02*
X1056750Y-2551750D01*
X1056750Y-2488250D02*
X993250Y-2551750D01*
X993250Y-2788250D02*
X1056750Y-2851750D01*
X1056750Y-2788250D02*
X993250Y-2851750D01*
X993250Y-3098250D02*
X1056750Y-3161750D01*
X1056750Y-3098250D02*
X993250Y-3161750D01*
X1503250Y-1238250D02*
X1566750Y-1301750D01*
X1566750Y-1238250D02*
X1503250Y-1301750D01*
X1853250Y-2348250D02*
X1916750Y-2411750D01*
X1916750Y-2348250D02*
X1853250Y-2411750D01*
X1863250Y-1798250D02*
X1926750Y-1861750D01*
X1926750Y-1798250D02*
X1863250Y-1861750D01*
X1933250Y-888250D02*
X1996750Y-951750D01*
X1996750Y-888250D02*
X1933250Y-951750D01*
X2003250Y-1828250D02*
X2066750Y-1891750D01*
X2066750Y-1828250D02*
X2003250Y-1891750D01*
X2143250Y-898250D02*
X2206750Y-961750D01*
X2206750Y-898250D02*
X2143250Y-961750D01*
X2193250Y-1928250D02*
X2256750Y-1991750D01*
X2256750Y-1928250D02*
X2193250Y-1991750D01*
X2323250Y-2028250D02*
X2386750Y-2091750D01*
X2386750Y-2028250D02*
X2323250Y-2091750D01*
X2323750Y-978250D02*
X2387250Y-1041750D01*
X2387250Y-978250D02*
X2323750Y-1041750D01*
X2493250Y-1418250D02*
X2556750Y-1481750D01*
X2556750Y-1418250D02*
X2493250Y-1481750D01*
X2573250Y-988250D02*
X2636750Y-1051750D01*
X2636750Y-988250D02*
X2573250Y-1051750D01*
X2693250Y-608250D02*
X2756750Y-671750D01*
X2756750Y-608250D02*
X2693250Y-671750D01*
X2703250Y-768250D02*
X2766750Y-831750D01*
X2766750Y-768250D02*
X2703250Y-831750D01*
X3103250Y-1118250D02*
X3166750Y-1181750D01*
X3166750Y-1118250D02*
X3103250Y-1181750D01*
X3223250Y-1788250D02*
X3286750Y-1851750D01*
X3286750Y-1788250D02*
X3223250Y-1851750D01*
X3233250Y-1288250D02*
X3296750Y-1351750D01*
X3296750Y-1288250D02*
X3233250Y-1351750D01*
X3243250Y-1428250D02*
X3306750Y-1491750D01*
X3306750Y-1428250D02*
X3243250Y-1491750D01*
X3243250Y-1548250D02*
X3306750Y-1611750D01*
X3306750Y-1548250D02*
X3243250Y-1611750D01*
X3773250Y-3858250D02*
X3836750Y-3921750D01*
X3836750Y-3858250D02*
X3773250Y-3921750D01*
X3943250Y-1088250D02*
X4006750Y-1151750D01*
X4006750Y-1088250D02*
X3943250Y-1151750D01*
X4123250Y-578250D02*
X4186750Y-641750D01*
X4186750Y-578250D02*
X4123250Y-641750D01*
X4273250Y-1418250D02*
X4336750Y-1481750D01*
X4336750Y-1418250D02*
X4273250Y-1481750D01*
X4135640Y-1407000D02*
G75*
G03X4135640Y-1407000I-40640J0D01*
G01*
X4135640Y-1661000D02*
G75*
G03X4135640Y-1661000I-40640J0D01*
G01*
X4135640Y-1915000D02*
G75*
G03X4135640Y-1915000I-40640J0D01*
G01*
X4135640Y-2169000D02*
G75*
G03X4135640Y-2169000I-40640J0D01*
G01*
X4135640Y-2423000D02*
G75*
G03X4135640Y-2423000I-40640J0D01*
G01*
X4135640Y-2677000D02*
G75*
G03X4135640Y-2677000I-40640J0D01*
G01*
X4135640Y-2931000D02*
G75*
G03X4135640Y-2931000I-40640J0D01*
G01*
X4135640Y-3185000D02*
G75*
G03X4135640Y-3185000I-40640J0D01*
G01*
X4135640Y-3439000D02*
G75*
G03X4135640Y-3439000I-40640J0D01*
G01*
X4135640Y-3693000D02*
G75*
G03X4135640Y-3693000I-40640J0D01*
G01*
X1115000Y-3845000D02*
X1115000Y-3935000D01*
X1070000Y-3890000D02*
X1160000Y-3890000D01*
X1115000Y-4099000D02*
X1115000Y-4189000D01*
X1070000Y-4144000D02*
X1160000Y-4144000D01*
X1210000Y-2180000D02*
X1210000Y-2270000D01*
X1165000Y-2225000D02*
X1255000Y-2225000D01*
X1464000Y-2180000D02*
X1464000Y-2270000D01*
X1419000Y-2225000D02*
X1509000Y-2225000D01*
X1625000Y-2835000D02*
X1625000Y-2925000D01*
X1580000Y-2880000D02*
X1670000Y-2880000D01*
X1625000Y-3085000D02*
X1625000Y-3175000D01*
X1580000Y-3130000D02*
X1670000Y-3130000D01*
X1625000Y-3335000D02*
X1625000Y-3425000D01*
X1580000Y-3380000D02*
X1670000Y-3380000D01*
X1925000Y-2835000D02*
X1925000Y-2925000D01*
X1880000Y-2880000D02*
X1970000Y-2880000D01*
X1925000Y-3085000D02*
X1925000Y-3175000D01*
X1880000Y-3130000D02*
X1970000Y-3130000D01*
X1925000Y-3335000D02*
X1925000Y-3425000D01*
X1880000Y-3380000D02*
X1970000Y-3380000D01*
X2595000Y-3831000D02*
X2595000Y-3921000D01*
X2550000Y-3876000D02*
X2640000Y-3876000D01*
X2595000Y-4085000D02*
X2595000Y-4175000D01*
X2550000Y-4130000D02*
X2640000Y-4130000D01*
X3065000Y-2835000D02*
X3065000Y-2925000D01*
X3020000Y-2880000D02*
X3110000Y-2880000D01*
X3065000Y-3085000D02*
X3065000Y-3175000D01*
X3020000Y-3130000D02*
X3110000Y-3130000D01*
X3065000Y-3335000D02*
X3065000Y-3425000D01*
X3020000Y-3380000D02*
X3110000Y-3380000D01*
X3365000Y-2835000D02*
X3365000Y-2925000D01*
X3320000Y-2880000D02*
X3410000Y-2880000D01*
X3365000Y-3085000D02*
X3365000Y-3175000D01*
X3320000Y-3130000D02*
X3410000Y-3130000D01*
X3365000Y-3335000D02*
X3365000Y-3425000D01*
X3320000Y-3380000D02*
X3410000Y-3380000D01*
X1590921Y-335921D02*
X1590921Y-264079D01*
X1519079Y-264079D01*
X1519079Y-335921D01*
X1590921Y-335921D01*
X1690921Y-4705921D02*
X1690921Y-4634079D01*
X1619079Y-4634079D01*
X1619079Y-4705921D01*
X1690921Y-4705921D01*
X1844921Y-335921D02*
X1844921Y-264079D01*
X1773079Y-264079D01*
X1773079Y-335921D01*
X1844921Y-335921D01*
X1944921Y-4705921D02*
X1944921Y-4634079D01*
X1873079Y-4634079D01*
X1873079Y-4705921D01*
X1944921Y-4705921D01*
X2098921Y-335921D02*
X2098921Y-264079D01*
X2027079Y-264079D01*
X2027079Y-335921D01*
X2098921Y-335921D01*
X2352921Y-335921D02*
X2352921Y-264079D01*
X2281079Y-264079D01*
X2281079Y-335921D01*
X2352921Y-335921D01*
X2606921Y-335921D02*
X2606921Y-264079D01*
X2535079Y-264079D01*
X2535079Y-335921D01*
X2606921Y-335921D01*
X2860921Y-335921D02*
X2860921Y-264079D01*
X2789079Y-264079D01*
X2789079Y-335921D01*
X2860921Y-335921D01*
X3114921Y-335921D02*
X3114921Y-264079D01*
X3043079Y-264079D01*
X3043079Y-335921D01*
X3114921Y-335921D01*
X3120921Y-4725921D02*
X3120921Y-4654079D01*
X3049079Y-4654079D01*
X3049079Y-4725921D01*
X3120921Y-4725921D01*
X3374921Y-4725921D02*
X3374921Y-4654079D01*
X3303079Y-4654079D01*
X3303079Y-4725921D01*
X3374921Y-4725921D01*
X4670921Y-1171921D02*
X4670921Y-1100079D01*
X4599079Y-1100079D01*
X4599079Y-1171921D01*
X4670921Y-1171921D01*
X4670921Y-1425921D02*
X4670921Y-1354079D01*
X4599079Y-1354079D01*
X4599079Y-1425921D01*
X4670921Y-1425921D01*
X4670921Y-1679921D02*
X4670921Y-1608079D01*
X4599079Y-1608079D01*
X4599079Y-1679921D01*
X4670921Y-1679921D01*
X4670921Y-1933921D02*
X4670921Y-1862079D01*
X4599079Y-1862079D01*
X4599079Y-1933921D01*
X4670921Y-1933921D01*
X4670921Y-2187921D02*
X4670921Y-2116079D01*
X4599079Y-2116079D01*
X4599079Y-2187921D01*
X4670921Y-2187921D01*
X4670921Y-2441921D02*
X4670921Y-2370079D01*
X4599079Y-2370079D01*
X4599079Y-2441921D01*
X4670921Y-2441921D01*
X4670921Y-2695921D02*
X4670921Y-2624079D01*
X4599079Y-2624079D01*
X4599079Y-2695921D01*
X4670921Y-2695921D01*
X4670921Y-2949921D02*
X4670921Y-2878079D01*
X4599079Y-2878079D01*
X4599079Y-2949921D01*
X4670921Y-2949921D01*
X4670921Y-3203921D02*
X4670921Y-3132079D01*
X4599079Y-3132079D01*
X4599079Y-3203921D01*
X4670921Y-3203921D01*
X4670921Y-3457921D02*
X4670921Y-3386079D01*
X4599079Y-3386079D01*
X4599079Y-3457921D01*
X4670921Y-3457921D01*
X4670921Y-3711921D02*
X4670921Y-3640079D01*
X4599079Y-3640079D01*
X4599079Y-3711921D01*
X4670921Y-3711921D01*
X4670921Y-3965921D02*
X4670921Y-3894079D01*
X4599079Y-3894079D01*
X4599079Y-3965921D01*
X4670921Y-3965921D01*
X4605000Y-585000D02*
X4800000Y-390000D01*
X4605000Y-195000D01*
X4410000Y-390000D01*
X4605000Y-585000D01*
X4605000Y-4795000D02*
X4800000Y-4600000D01*
X4605000Y-4405000D01*
X4410000Y-4600000D01*
X4605000Y-4795000D01*
D13*
X1115429Y-5456714D02*
X1115429Y-5156714D01*
X1186857Y-5156714D01*
X1229714Y-5171000D01*
X1258286Y-5199572D01*
X1272571Y-5228143D01*
X1286857Y-5285286D01*
X1286857Y-5328143D01*
X1272571Y-5385286D01*
X1258286Y-5413857D01*
X1229714Y-5442429D01*
X1186857Y-5456714D01*
X1115429Y-5456714D01*
X1415428Y-5456714D02*
X1415428Y-5256714D01*
X1415428Y-5313857D02*
X1429714Y-5285286D01*
X1444000Y-5271000D01*
X1472571Y-5256714D01*
X1501143Y-5256714D01*
X1601143Y-5456714D02*
X1601143Y-5256714D01*
X1601143Y-5156714D02*
X1586857Y-5171000D01*
X1601143Y-5185286D01*
X1615428Y-5171000D01*
X1601143Y-5156714D01*
X1601143Y-5185286D01*
X1786857Y-5456714D02*
X1758286Y-5442429D01*
X1744000Y-5413857D01*
X1744000Y-5156714D01*
X1944000Y-5456714D02*
X1915428Y-5442429D01*
X1901143Y-5413857D01*
X1901143Y-5156714D01*
X2286857Y-5456714D02*
X2286857Y-5156714D01*
X2386857Y-5371000D01*
X2486857Y-5156714D01*
X2486857Y-5456714D01*
X2758286Y-5456714D02*
X2758286Y-5299572D01*
X2744000Y-5271000D01*
X2715429Y-5256714D01*
X2658286Y-5256714D01*
X2629714Y-5271000D01*
X2758286Y-5442429D02*
X2729714Y-5456714D01*
X2658286Y-5456714D01*
X2629714Y-5442429D01*
X2615429Y-5413857D01*
X2615429Y-5385286D01*
X2629714Y-5356714D01*
X2658286Y-5342429D01*
X2729714Y-5342429D01*
X2758286Y-5328143D01*
X2901143Y-5256714D02*
X2901143Y-5556714D01*
X2901143Y-5271000D02*
X2929714Y-5256714D01*
X2986857Y-5256714D01*
X3015428Y-5271000D01*
X3029714Y-5285286D01*
X3044000Y-5313857D01*
X3044000Y-5399572D01*
X3029714Y-5428143D01*
X3015428Y-5442429D01*
X2986857Y-5456714D01*
X2929714Y-5456714D01*
X2901143Y-5442429D01*
X3172571Y-5428143D02*
X3186857Y-5442429D01*
X3172571Y-5456714D01*
X3158286Y-5442429D01*
X3172571Y-5428143D01*
X3172571Y-5456714D01*
X3172571Y-5271000D02*
X3186857Y-5285286D01*
X3172571Y-5299572D01*
X3158286Y-5285286D01*
X3172571Y-5271000D01*
X3172571Y-5299572D01*
X780500Y-5919250D02*
X844000Y-5982750D01*
X844000Y-5919250D02*
X780500Y-5982750D01*
X1172571Y-5786714D02*
X1201143Y-5786714D01*
X1229714Y-5801000D01*
X1244000Y-5815286D01*
X1258286Y-5843857D01*
X1272571Y-5901000D01*
X1272571Y-5972429D01*
X1258286Y-6029571D01*
X1244000Y-6058143D01*
X1229714Y-6072429D01*
X1201143Y-6086714D01*
X1172571Y-6086714D01*
X1144000Y-6072429D01*
X1129714Y-6058143D01*
X1115429Y-6029571D01*
X1101143Y-5972429D01*
X1101143Y-5901000D01*
X1115429Y-5843857D01*
X1129714Y-5815286D01*
X1144000Y-5801000D01*
X1172571Y-5786714D01*
X1401143Y-6058143D02*
X1415428Y-6072429D01*
X1401143Y-6086714D01*
X1386857Y-6072429D01*
X1401143Y-6058143D01*
X1401143Y-6086714D01*
X1672571Y-5786714D02*
X1615428Y-5786714D01*
X1586857Y-5801000D01*
X1572571Y-5815286D01*
X1544000Y-5858143D01*
X1529714Y-5915286D01*
X1529714Y-6029571D01*
X1544000Y-6058143D01*
X1558286Y-6072429D01*
X1586857Y-6086714D01*
X1644000Y-6086714D01*
X1672571Y-6072429D01*
X1686857Y-6058143D01*
X1701143Y-6029571D01*
X1701143Y-5958143D01*
X1686857Y-5929571D01*
X1672571Y-5915286D01*
X1644000Y-5901000D01*
X1586857Y-5901000D01*
X1558286Y-5915286D01*
X1544000Y-5929571D01*
X1529714Y-5958143D01*
X1958286Y-5886714D02*
X1958286Y-6086714D01*
X1886857Y-5772429D02*
X1815428Y-5986714D01*
X2001143Y-5986714D01*
X2115429Y-6086714D02*
X2115429Y-5886714D01*
X2115429Y-5915286D02*
X2129714Y-5901000D01*
X2158286Y-5886714D01*
X2201143Y-5886714D01*
X2229714Y-5901000D01*
X2244000Y-5929571D01*
X2244000Y-6086714D01*
X2244000Y-5929571D02*
X2258286Y-5901000D01*
X2286857Y-5886714D01*
X2329714Y-5886714D01*
X2358286Y-5901000D01*
X2372571Y-5929571D01*
X2372571Y-6086714D01*
X2515429Y-6086714D02*
X2515429Y-5886714D01*
X2515429Y-5915286D02*
X2529714Y-5901000D01*
X2558286Y-5886714D01*
X2601143Y-5886714D01*
X2629714Y-5901000D01*
X2644000Y-5929571D01*
X2644000Y-6086714D01*
X2644000Y-5929571D02*
X2658286Y-5901000D01*
X2686857Y-5886714D01*
X2729714Y-5886714D01*
X2758286Y-5901000D01*
X2772571Y-5929571D01*
X2772571Y-6086714D01*
X3358286Y-5772429D02*
X3101143Y-6158143D01*
X3744000Y-5786714D02*
X3772571Y-5786714D01*
X3801143Y-5801000D01*
X3815428Y-5815286D01*
X3829714Y-5843857D01*
X3844000Y-5901000D01*
X3844000Y-5972429D01*
X3829714Y-6029571D01*
X3815428Y-6058143D01*
X3801143Y-6072429D01*
X3772571Y-6086714D01*
X3744000Y-6086714D01*
X3715428Y-6072429D01*
X3701143Y-6058143D01*
X3686857Y-6029571D01*
X3672571Y-5972429D01*
X3672571Y-5901000D01*
X3686857Y-5843857D01*
X3701143Y-5815286D01*
X3715428Y-5801000D01*
X3744000Y-5786714D01*
X3972571Y-6058143D02*
X3986857Y-6072429D01*
X3972571Y-6086714D01*
X3958286Y-6072429D01*
X3972571Y-6058143D01*
X3972571Y-6086714D01*
X4172571Y-5786714D02*
X4201143Y-5786714D01*
X4229714Y-5801000D01*
X4244000Y-5815286D01*
X4258286Y-5843857D01*
X4272571Y-5901000D01*
X4272571Y-5972429D01*
X4258286Y-6029571D01*
X4244000Y-6058143D01*
X4229714Y-6072429D01*
X4201143Y-6086714D01*
X4172571Y-6086714D01*
X4144000Y-6072429D01*
X4129714Y-6058143D01*
X4115428Y-6029571D01*
X4101143Y-5972429D01*
X4101143Y-5901000D01*
X4115428Y-5843857D01*
X4129714Y-5815286D01*
X4144000Y-5801000D01*
X4172571Y-5786714D01*
X4386857Y-5815286D02*
X4401143Y-5801000D01*
X4429714Y-5786714D01*
X4501143Y-5786714D01*
X4529714Y-5801000D01*
X4544000Y-5815286D01*
X4558286Y-5843857D01*
X4558286Y-5872429D01*
X4544000Y-5915286D01*
X4372571Y-6086714D01*
X4558286Y-6086714D01*
X4829714Y-5786714D02*
X4686857Y-5786714D01*
X4672571Y-5929571D01*
X4686857Y-5915286D01*
X4715428Y-5901000D01*
X4786857Y-5901000D01*
X4815428Y-5915286D01*
X4829714Y-5929571D01*
X4844000Y-5958143D01*
X4844000Y-6029571D01*
X4829714Y-6058143D01*
X4815428Y-6072429D01*
X4786857Y-6086714D01*
X4715428Y-6086714D01*
X4686857Y-6072429D01*
X4672571Y-6058143D01*
X4958286Y-5786714D02*
X4958286Y-5843857D01*
X5072571Y-5786714D02*
X5072571Y-5843857D01*
X5515428Y-6201000D02*
X5501143Y-6186714D01*
X5472571Y-6143857D01*
X5458286Y-6115286D01*
X5444000Y-6072429D01*
X5429714Y-6001000D01*
X5429714Y-5943857D01*
X5444000Y-5872429D01*
X5458286Y-5829571D01*
X5472571Y-5801000D01*
X5501143Y-5758143D01*
X5515428Y-5743857D01*
X5615428Y-5815286D02*
X5629714Y-5801000D01*
X5658285Y-5786714D01*
X5729714Y-5786714D01*
X5758285Y-5801000D01*
X5772571Y-5815286D01*
X5786857Y-5843857D01*
X5786857Y-5872429D01*
X5772571Y-5915286D01*
X5601143Y-6086714D01*
X5786857Y-6086714D01*
X6044000Y-5786714D02*
X5986857Y-5786714D01*
X5958285Y-5801000D01*
X5944000Y-5815286D01*
X5915428Y-5858143D01*
X5901143Y-5915286D01*
X5901143Y-6029571D01*
X5915428Y-6058143D01*
X5929714Y-6072429D01*
X5958285Y-6086714D01*
X6015428Y-6086714D01*
X6044000Y-6072429D01*
X6058285Y-6058143D01*
X6072571Y-6029571D01*
X6072571Y-5958143D01*
X6058285Y-5929571D01*
X6044000Y-5915286D01*
X6015428Y-5901000D01*
X5958285Y-5901000D01*
X5929714Y-5915286D01*
X5915428Y-5929571D01*
X5901143Y-5958143D01*
X6429714Y-6086714D02*
X6429714Y-5786714D01*
X6558285Y-6086714D02*
X6558285Y-5929571D01*
X6544000Y-5901000D01*
X6515428Y-5886714D01*
X6472571Y-5886714D01*
X6444000Y-5901000D01*
X6429714Y-5915286D01*
X6744000Y-6086714D02*
X6715428Y-6072429D01*
X6701143Y-6058143D01*
X6686857Y-6029571D01*
X6686857Y-5943857D01*
X6701143Y-5915286D01*
X6715428Y-5901000D01*
X6744000Y-5886714D01*
X6786857Y-5886714D01*
X6815428Y-5901000D01*
X6829714Y-5915286D01*
X6844000Y-5943857D01*
X6844000Y-6029571D01*
X6829714Y-6058143D01*
X6815428Y-6072429D01*
X6786857Y-6086714D01*
X6744000Y-6086714D01*
X7015428Y-6086714D02*
X6986857Y-6072429D01*
X6972571Y-6043857D01*
X6972571Y-5786714D01*
X7244000Y-6072429D02*
X7215428Y-6086714D01*
X7158286Y-6086714D01*
X7129714Y-6072429D01*
X7115428Y-6043857D01*
X7115428Y-5929571D01*
X7129714Y-5901000D01*
X7158286Y-5886714D01*
X7215428Y-5886714D01*
X7244000Y-5901000D01*
X7258286Y-5929571D01*
X7258286Y-5958143D01*
X7115428Y-5986714D01*
X7372571Y-6072429D02*
X7401143Y-6086714D01*
X7458286Y-6086714D01*
X7486857Y-6072429D01*
X7501143Y-6043857D01*
X7501143Y-6029571D01*
X7486857Y-6001000D01*
X7458286Y-5986714D01*
X7415428Y-5986714D01*
X7386857Y-5972429D01*
X7372571Y-5943857D01*
X7372571Y-5929571D01*
X7386857Y-5901000D01*
X7415428Y-5886714D01*
X7458286Y-5886714D01*
X7486857Y-5901000D01*
X7601143Y-6201000D02*
X7615428Y-6186714D01*
X7644000Y-6143857D01*
X7658286Y-6115286D01*
X7672571Y-6072429D01*
X7686857Y-6001000D01*
X7686857Y-5943857D01*
X7672571Y-5872429D01*
X7658286Y-5829571D01*
X7644000Y-5801000D01*
X7615428Y-5758143D01*
X7601143Y-5743857D01*
X844000Y-6347000D02*
G75*
G03X844000Y-6347000I-40640J0D01*
G01*
X1172571Y-6182714D02*
X1201143Y-6182714D01*
X1229714Y-6197000D01*
X1244000Y-6211286D01*
X1258286Y-6239857D01*
X1272571Y-6297000D01*
X1272571Y-6368429D01*
X1258286Y-6425571D01*
X1244000Y-6454143D01*
X1229714Y-6468429D01*
X1201143Y-6482714D01*
X1172571Y-6482714D01*
X1144000Y-6468429D01*
X1129714Y-6454143D01*
X1115429Y-6425571D01*
X1101143Y-6368429D01*
X1101143Y-6297000D01*
X1115429Y-6239857D01*
X1129714Y-6211286D01*
X1144000Y-6197000D01*
X1172571Y-6182714D01*
X1401143Y-6454143D02*
X1415428Y-6468429D01*
X1401143Y-6482714D01*
X1386857Y-6468429D01*
X1401143Y-6454143D01*
X1401143Y-6482714D01*
X1586857Y-6311286D02*
X1558286Y-6297000D01*
X1544000Y-6282714D01*
X1529714Y-6254143D01*
X1529714Y-6239857D01*
X1544000Y-6211286D01*
X1558286Y-6197000D01*
X1586857Y-6182714D01*
X1644000Y-6182714D01*
X1672571Y-6197000D01*
X1686857Y-6211286D01*
X1701143Y-6239857D01*
X1701143Y-6254143D01*
X1686857Y-6282714D01*
X1672571Y-6297000D01*
X1644000Y-6311286D01*
X1586857Y-6311286D01*
X1558286Y-6325571D01*
X1544000Y-6339857D01*
X1529714Y-6368429D01*
X1529714Y-6425571D01*
X1544000Y-6454143D01*
X1558286Y-6468429D01*
X1586857Y-6482714D01*
X1644000Y-6482714D01*
X1672571Y-6468429D01*
X1686857Y-6454143D01*
X1701143Y-6425571D01*
X1701143Y-6368429D01*
X1686857Y-6339857D01*
X1672571Y-6325571D01*
X1644000Y-6311286D01*
X1986857Y-6482714D02*
X1815428Y-6482714D01*
X1901143Y-6482714D02*
X1901143Y-6182714D01*
X1872571Y-6225571D01*
X1844000Y-6254143D01*
X1815428Y-6268429D01*
X2115429Y-6482714D02*
X2115429Y-6282714D01*
X2115429Y-6311286D02*
X2129714Y-6297000D01*
X2158286Y-6282714D01*
X2201143Y-6282714D01*
X2229714Y-6297000D01*
X2244000Y-6325571D01*
X2244000Y-6482714D01*
X2244000Y-6325571D02*
X2258286Y-6297000D01*
X2286857Y-6282714D01*
X2329714Y-6282714D01*
X2358286Y-6297000D01*
X2372571Y-6325571D01*
X2372571Y-6482714D01*
X2515429Y-6482714D02*
X2515429Y-6282714D01*
X2515429Y-6311286D02*
X2529714Y-6297000D01*
X2558286Y-6282714D01*
X2601143Y-6282714D01*
X2629714Y-6297000D01*
X2644000Y-6325571D01*
X2644000Y-6482714D01*
X2644000Y-6325571D02*
X2658286Y-6297000D01*
X2686857Y-6282714D01*
X2729714Y-6282714D01*
X2758286Y-6297000D01*
X2772571Y-6325571D01*
X2772571Y-6482714D01*
X3358286Y-6168429D02*
X3101143Y-6554143D01*
X3744000Y-6182714D02*
X3772571Y-6182714D01*
X3801143Y-6197000D01*
X3815428Y-6211286D01*
X3829714Y-6239857D01*
X3844000Y-6297000D01*
X3844000Y-6368429D01*
X3829714Y-6425571D01*
X3815428Y-6454143D01*
X3801143Y-6468429D01*
X3772571Y-6482714D01*
X3744000Y-6482714D01*
X3715428Y-6468429D01*
X3701143Y-6454143D01*
X3686857Y-6425571D01*
X3672571Y-6368429D01*
X3672571Y-6297000D01*
X3686857Y-6239857D01*
X3701143Y-6211286D01*
X3715428Y-6197000D01*
X3744000Y-6182714D01*
X3972571Y-6454143D02*
X3986857Y-6468429D01*
X3972571Y-6482714D01*
X3958286Y-6468429D01*
X3972571Y-6454143D01*
X3972571Y-6482714D01*
X4172571Y-6182714D02*
X4201143Y-6182714D01*
X4229714Y-6197000D01*
X4244000Y-6211286D01*
X4258286Y-6239857D01*
X4272571Y-6297000D01*
X4272571Y-6368429D01*
X4258286Y-6425571D01*
X4244000Y-6454143D01*
X4229714Y-6468429D01*
X4201143Y-6482714D01*
X4172571Y-6482714D01*
X4144000Y-6468429D01*
X4129714Y-6454143D01*
X4115428Y-6425571D01*
X4101143Y-6368429D01*
X4101143Y-6297000D01*
X4115428Y-6239857D01*
X4129714Y-6211286D01*
X4144000Y-6197000D01*
X4172571Y-6182714D01*
X4372571Y-6182714D02*
X4558286Y-6182714D01*
X4458286Y-6297000D01*
X4501143Y-6297000D01*
X4529714Y-6311286D01*
X4544000Y-6325571D01*
X4558286Y-6354143D01*
X4558286Y-6425571D01*
X4544000Y-6454143D01*
X4529714Y-6468429D01*
X4501143Y-6482714D01*
X4415428Y-6482714D01*
X4386857Y-6468429D01*
X4372571Y-6454143D01*
X4672571Y-6211286D02*
X4686857Y-6197000D01*
X4715428Y-6182714D01*
X4786857Y-6182714D01*
X4815428Y-6197000D01*
X4829714Y-6211286D01*
X4844000Y-6239857D01*
X4844000Y-6268429D01*
X4829714Y-6311286D01*
X4658286Y-6482714D01*
X4844000Y-6482714D01*
X4958286Y-6182714D02*
X4958286Y-6239857D01*
X5072571Y-6182714D02*
X5072571Y-6239857D01*
X5515428Y-6597000D02*
X5501143Y-6582714D01*
X5472571Y-6539857D01*
X5458286Y-6511286D01*
X5444000Y-6468429D01*
X5429714Y-6397000D01*
X5429714Y-6339857D01*
X5444000Y-6268429D01*
X5458286Y-6225571D01*
X5472571Y-6197000D01*
X5501143Y-6154143D01*
X5515428Y-6139857D01*
X5786857Y-6482714D02*
X5615428Y-6482714D01*
X5701143Y-6482714D02*
X5701143Y-6182714D01*
X5672571Y-6225571D01*
X5644000Y-6254143D01*
X5615428Y-6268429D01*
X5972571Y-6182714D02*
X6001143Y-6182714D01*
X6029714Y-6197000D01*
X6044000Y-6211286D01*
X6058285Y-6239857D01*
X6072571Y-6297000D01*
X6072571Y-6368429D01*
X6058285Y-6425571D01*
X6044000Y-6454143D01*
X6029714Y-6468429D01*
X6001143Y-6482714D01*
X5972571Y-6482714D01*
X5944000Y-6468429D01*
X5929714Y-6454143D01*
X5915428Y-6425571D01*
X5901143Y-6368429D01*
X5901143Y-6297000D01*
X5915428Y-6239857D01*
X5929714Y-6211286D01*
X5944000Y-6197000D01*
X5972571Y-6182714D01*
X6429714Y-6482714D02*
X6429714Y-6182714D01*
X6558285Y-6482714D02*
X6558285Y-6325571D01*
X6544000Y-6297000D01*
X6515428Y-6282714D01*
X6472571Y-6282714D01*
X6444000Y-6297000D01*
X6429714Y-6311286D01*
X6744000Y-6482714D02*
X6715428Y-6468429D01*
X6701143Y-6454143D01*
X6686857Y-6425571D01*
X6686857Y-6339857D01*
X6701143Y-6311286D01*
X6715428Y-6297000D01*
X6744000Y-6282714D01*
X6786857Y-6282714D01*
X6815428Y-6297000D01*
X6829714Y-6311286D01*
X6844000Y-6339857D01*
X6844000Y-6425571D01*
X6829714Y-6454143D01*
X6815428Y-6468429D01*
X6786857Y-6482714D01*
X6744000Y-6482714D01*
X7015428Y-6482714D02*
X6986857Y-6468429D01*
X6972571Y-6439857D01*
X6972571Y-6182714D01*
X7244000Y-6468429D02*
X7215428Y-6482714D01*
X7158286Y-6482714D01*
X7129714Y-6468429D01*
X7115428Y-6439857D01*
X7115428Y-6325571D01*
X7129714Y-6297000D01*
X7158286Y-6282714D01*
X7215428Y-6282714D01*
X7244000Y-6297000D01*
X7258286Y-6325571D01*
X7258286Y-6354143D01*
X7115428Y-6382714D01*
X7372571Y-6468429D02*
X7401143Y-6482714D01*
X7458286Y-6482714D01*
X7486857Y-6468429D01*
X7501143Y-6439857D01*
X7501143Y-6425571D01*
X7486857Y-6397000D01*
X7458286Y-6382714D01*
X7415428Y-6382714D01*
X7386857Y-6368429D01*
X7372571Y-6339857D01*
X7372571Y-6325571D01*
X7386857Y-6297000D01*
X7415428Y-6282714D01*
X7458286Y-6282714D01*
X7486857Y-6297000D01*
X7601143Y-6597000D02*
X7615428Y-6582714D01*
X7644000Y-6539857D01*
X7658286Y-6511286D01*
X7672571Y-6468429D01*
X7686857Y-6397000D01*
X7686857Y-6339857D01*
X7672571Y-6268429D01*
X7658286Y-6225571D01*
X7644000Y-6197000D01*
X7615428Y-6154143D01*
X7601143Y-6139857D01*
X799000Y-6698000D02*
X799000Y-6788000D01*
X754000Y-6743000D02*
X844000Y-6743000D01*
X1172571Y-6578714D02*
X1201143Y-6578714D01*
X1229714Y-6593000D01*
X1244000Y-6607286D01*
X1258286Y-6635857D01*
X1272571Y-6693000D01*
X1272571Y-6764429D01*
X1258286Y-6821571D01*
X1244000Y-6850143D01*
X1229714Y-6864429D01*
X1201143Y-6878714D01*
X1172571Y-6878714D01*
X1144000Y-6864429D01*
X1129714Y-6850143D01*
X1115429Y-6821571D01*
X1101143Y-6764429D01*
X1101143Y-6693000D01*
X1115429Y-6635857D01*
X1129714Y-6607286D01*
X1144000Y-6593000D01*
X1172571Y-6578714D01*
X1401143Y-6850143D02*
X1415428Y-6864429D01*
X1401143Y-6878714D01*
X1386857Y-6864429D01*
X1401143Y-6850143D01*
X1401143Y-6878714D01*
X1558286Y-6878714D02*
X1615428Y-6878714D01*
X1644000Y-6864429D01*
X1658286Y-6850143D01*
X1686857Y-6807286D01*
X1701143Y-6750143D01*
X1701143Y-6635857D01*
X1686857Y-6607286D01*
X1672571Y-6593000D01*
X1644000Y-6578714D01*
X1586857Y-6578714D01*
X1558286Y-6593000D01*
X1544000Y-6607286D01*
X1529714Y-6635857D01*
X1529714Y-6707286D01*
X1544000Y-6735857D01*
X1558286Y-6750143D01*
X1586857Y-6764429D01*
X1644000Y-6764429D01*
X1672571Y-6750143D01*
X1686857Y-6735857D01*
X1701143Y-6707286D01*
X1886857Y-6578714D02*
X1915428Y-6578714D01*
X1944000Y-6593000D01*
X1958286Y-6607286D01*
X1972571Y-6635857D01*
X1986857Y-6693000D01*
X1986857Y-6764429D01*
X1972571Y-6821571D01*
X1958286Y-6850143D01*
X1944000Y-6864429D01*
X1915428Y-6878714D01*
X1886857Y-6878714D01*
X1858286Y-6864429D01*
X1844000Y-6850143D01*
X1829714Y-6821571D01*
X1815428Y-6764429D01*
X1815428Y-6693000D01*
X1829714Y-6635857D01*
X1844000Y-6607286D01*
X1858286Y-6593000D01*
X1886857Y-6578714D01*
X2115429Y-6878714D02*
X2115429Y-6678714D01*
X2115429Y-6707286D02*
X2129714Y-6693000D01*
X2158286Y-6678714D01*
X2201143Y-6678714D01*
X2229714Y-6693000D01*
X2244000Y-6721571D01*
X2244000Y-6878714D01*
X2244000Y-6721571D02*
X2258286Y-6693000D01*
X2286857Y-6678714D01*
X2329714Y-6678714D01*
X2358286Y-6693000D01*
X2372571Y-6721571D01*
X2372571Y-6878714D01*
X2515429Y-6878714D02*
X2515429Y-6678714D01*
X2515429Y-6707286D02*
X2529714Y-6693000D01*
X2558286Y-6678714D01*
X2601143Y-6678714D01*
X2629714Y-6693000D01*
X2644000Y-6721571D01*
X2644000Y-6878714D01*
X2644000Y-6721571D02*
X2658286Y-6693000D01*
X2686857Y-6678714D01*
X2729714Y-6678714D01*
X2758286Y-6693000D01*
X2772571Y-6721571D01*
X2772571Y-6878714D01*
X3358286Y-6564429D02*
X3101143Y-6950143D01*
X3744000Y-6578714D02*
X3772571Y-6578714D01*
X3801143Y-6593000D01*
X3815428Y-6607286D01*
X3829714Y-6635857D01*
X3844000Y-6693000D01*
X3844000Y-6764429D01*
X3829714Y-6821571D01*
X3815428Y-6850143D01*
X3801143Y-6864429D01*
X3772571Y-6878714D01*
X3744000Y-6878714D01*
X3715428Y-6864429D01*
X3701143Y-6850143D01*
X3686857Y-6821571D01*
X3672571Y-6764429D01*
X3672571Y-6693000D01*
X3686857Y-6635857D01*
X3701143Y-6607286D01*
X3715428Y-6593000D01*
X3744000Y-6578714D01*
X3972571Y-6850143D02*
X3986857Y-6864429D01*
X3972571Y-6878714D01*
X3958286Y-6864429D01*
X3972571Y-6850143D01*
X3972571Y-6878714D01*
X4172571Y-6578714D02*
X4201143Y-6578714D01*
X4229714Y-6593000D01*
X4244000Y-6607286D01*
X4258286Y-6635857D01*
X4272571Y-6693000D01*
X4272571Y-6764429D01*
X4258286Y-6821571D01*
X4244000Y-6850143D01*
X4229714Y-6864429D01*
X4201143Y-6878714D01*
X4172571Y-6878714D01*
X4144000Y-6864429D01*
X4129714Y-6850143D01*
X4115428Y-6821571D01*
X4101143Y-6764429D01*
X4101143Y-6693000D01*
X4115428Y-6635857D01*
X4129714Y-6607286D01*
X4144000Y-6593000D01*
X4172571Y-6578714D01*
X4372571Y-6578714D02*
X4558286Y-6578714D01*
X4458286Y-6693000D01*
X4501143Y-6693000D01*
X4529714Y-6707286D01*
X4544000Y-6721571D01*
X4558286Y-6750143D01*
X4558286Y-6821571D01*
X4544000Y-6850143D01*
X4529714Y-6864429D01*
X4501143Y-6878714D01*
X4415428Y-6878714D01*
X4386857Y-6864429D01*
X4372571Y-6850143D01*
X4829714Y-6578714D02*
X4686857Y-6578714D01*
X4672571Y-6721571D01*
X4686857Y-6707286D01*
X4715428Y-6693000D01*
X4786857Y-6693000D01*
X4815428Y-6707286D01*
X4829714Y-6721571D01*
X4844000Y-6750143D01*
X4844000Y-6821571D01*
X4829714Y-6850143D01*
X4815428Y-6864429D01*
X4786857Y-6878714D01*
X4715428Y-6878714D01*
X4686857Y-6864429D01*
X4672571Y-6850143D01*
X4958286Y-6578714D02*
X4958286Y-6635857D01*
X5072571Y-6578714D02*
X5072571Y-6635857D01*
X5515428Y-6993000D02*
X5501143Y-6978714D01*
X5472571Y-6935857D01*
X5458286Y-6907286D01*
X5444000Y-6864429D01*
X5429714Y-6793000D01*
X5429714Y-6735857D01*
X5444000Y-6664429D01*
X5458286Y-6621571D01*
X5472571Y-6593000D01*
X5501143Y-6550143D01*
X5515428Y-6535857D01*
X5786857Y-6878714D02*
X5615428Y-6878714D01*
X5701143Y-6878714D02*
X5701143Y-6578714D01*
X5672571Y-6621571D01*
X5644000Y-6650143D01*
X5615428Y-6664429D01*
X5958285Y-6707286D02*
X5929714Y-6693000D01*
X5915428Y-6678714D01*
X5901143Y-6650143D01*
X5901143Y-6635857D01*
X5915428Y-6607286D01*
X5929714Y-6593000D01*
X5958285Y-6578714D01*
X6015428Y-6578714D01*
X6044000Y-6593000D01*
X6058285Y-6607286D01*
X6072571Y-6635857D01*
X6072571Y-6650143D01*
X6058285Y-6678714D01*
X6044000Y-6693000D01*
X6015428Y-6707286D01*
X5958285Y-6707286D01*
X5929714Y-6721571D01*
X5915428Y-6735857D01*
X5901143Y-6764429D01*
X5901143Y-6821571D01*
X5915428Y-6850143D01*
X5929714Y-6864429D01*
X5958285Y-6878714D01*
X6015428Y-6878714D01*
X6044000Y-6864429D01*
X6058285Y-6850143D01*
X6072571Y-6821571D01*
X6072571Y-6764429D01*
X6058285Y-6735857D01*
X6044000Y-6721571D01*
X6015428Y-6707286D01*
X6429714Y-6878714D02*
X6429714Y-6578714D01*
X6558285Y-6878714D02*
X6558285Y-6721571D01*
X6544000Y-6693000D01*
X6515428Y-6678714D01*
X6472571Y-6678714D01*
X6444000Y-6693000D01*
X6429714Y-6707286D01*
X6744000Y-6878714D02*
X6715428Y-6864429D01*
X6701143Y-6850143D01*
X6686857Y-6821571D01*
X6686857Y-6735857D01*
X6701143Y-6707286D01*
X6715428Y-6693000D01*
X6744000Y-6678714D01*
X6786857Y-6678714D01*
X6815428Y-6693000D01*
X6829714Y-6707286D01*
X6844000Y-6735857D01*
X6844000Y-6821571D01*
X6829714Y-6850143D01*
X6815428Y-6864429D01*
X6786857Y-6878714D01*
X6744000Y-6878714D01*
X7015428Y-6878714D02*
X6986857Y-6864429D01*
X6972571Y-6835857D01*
X6972571Y-6578714D01*
X7244000Y-6864429D02*
X7215428Y-6878714D01*
X7158286Y-6878714D01*
X7129714Y-6864429D01*
X7115428Y-6835857D01*
X7115428Y-6721571D01*
X7129714Y-6693000D01*
X7158286Y-6678714D01*
X7215428Y-6678714D01*
X7244000Y-6693000D01*
X7258286Y-6721571D01*
X7258286Y-6750143D01*
X7115428Y-6778714D01*
X7372571Y-6864429D02*
X7401143Y-6878714D01*
X7458286Y-6878714D01*
X7486857Y-6864429D01*
X7501143Y-6835857D01*
X7501143Y-6821571D01*
X7486857Y-6793000D01*
X7458286Y-6778714D01*
X7415428Y-6778714D01*
X7386857Y-6764429D01*
X7372571Y-6735857D01*
X7372571Y-6721571D01*
X7386857Y-6693000D01*
X7415428Y-6678714D01*
X7458286Y-6678714D01*
X7486857Y-6693000D01*
X7601143Y-6993000D02*
X7615428Y-6978714D01*
X7644000Y-6935857D01*
X7658286Y-6907286D01*
X7672571Y-6864429D01*
X7686857Y-6793000D01*
X7686857Y-6735857D01*
X7672571Y-6664429D01*
X7658286Y-6621571D01*
X7644000Y-6593000D01*
X7615428Y-6550143D01*
X7601143Y-6535857D01*
X829121Y-7174921D02*
X829121Y-7103079D01*
X757278Y-7103079D01*
X757278Y-7174921D01*
X829121Y-7174921D01*
X1272571Y-7274714D02*
X1101143Y-7274714D01*
X1186857Y-7274714D02*
X1186857Y-6974714D01*
X1158286Y-7017571D01*
X1129714Y-7046143D01*
X1101143Y-7060429D01*
X1401143Y-7246143D02*
X1415428Y-7260429D01*
X1401143Y-7274714D01*
X1386857Y-7260429D01*
X1401143Y-7246143D01*
X1401143Y-7274714D01*
X1601143Y-6974714D02*
X1629714Y-6974714D01*
X1658286Y-6989000D01*
X1672571Y-7003286D01*
X1686857Y-7031857D01*
X1701143Y-7089000D01*
X1701143Y-7160429D01*
X1686857Y-7217571D01*
X1672571Y-7246143D01*
X1658286Y-7260429D01*
X1629714Y-7274714D01*
X1601143Y-7274714D01*
X1572571Y-7260429D01*
X1558286Y-7246143D01*
X1544000Y-7217571D01*
X1529714Y-7160429D01*
X1529714Y-7089000D01*
X1544000Y-7031857D01*
X1558286Y-7003286D01*
X1572571Y-6989000D01*
X1601143Y-6974714D01*
X1815428Y-7003286D02*
X1829714Y-6989000D01*
X1858286Y-6974714D01*
X1929714Y-6974714D01*
X1958286Y-6989000D01*
X1972571Y-7003286D01*
X1986857Y-7031857D01*
X1986857Y-7060429D01*
X1972571Y-7103286D01*
X1801143Y-7274714D01*
X1986857Y-7274714D01*
X2115429Y-7274714D02*
X2115429Y-7074714D01*
X2115429Y-7103286D02*
X2129714Y-7089000D01*
X2158286Y-7074714D01*
X2201143Y-7074714D01*
X2229714Y-7089000D01*
X2244000Y-7117571D01*
X2244000Y-7274714D01*
X2244000Y-7117571D02*
X2258286Y-7089000D01*
X2286857Y-7074714D01*
X2329714Y-7074714D01*
X2358286Y-7089000D01*
X2372571Y-7117571D01*
X2372571Y-7274714D01*
X2515429Y-7274714D02*
X2515429Y-7074714D01*
X2515429Y-7103286D02*
X2529714Y-7089000D01*
X2558286Y-7074714D01*
X2601143Y-7074714D01*
X2629714Y-7089000D01*
X2644000Y-7117571D01*
X2644000Y-7274714D01*
X2644000Y-7117571D02*
X2658286Y-7089000D01*
X2686857Y-7074714D01*
X2729714Y-7074714D01*
X2758286Y-7089000D01*
X2772571Y-7117571D01*
X2772571Y-7274714D01*
X3358286Y-6960429D02*
X3101143Y-7346143D01*
X3744000Y-6974714D02*
X3772571Y-6974714D01*
X3801143Y-6989000D01*
X3815428Y-7003286D01*
X3829714Y-7031857D01*
X3844000Y-7089000D01*
X3844000Y-7160429D01*
X3829714Y-7217571D01*
X3815428Y-7246143D01*
X3801143Y-7260429D01*
X3772571Y-7274714D01*
X3744000Y-7274714D01*
X3715428Y-7260429D01*
X3701143Y-7246143D01*
X3686857Y-7217571D01*
X3672571Y-7160429D01*
X3672571Y-7089000D01*
X3686857Y-7031857D01*
X3701143Y-7003286D01*
X3715428Y-6989000D01*
X3744000Y-6974714D01*
X3972571Y-7246143D02*
X3986857Y-7260429D01*
X3972571Y-7274714D01*
X3958286Y-7260429D01*
X3972571Y-7246143D01*
X3972571Y-7274714D01*
X4172571Y-6974714D02*
X4201143Y-6974714D01*
X4229714Y-6989000D01*
X4244000Y-7003286D01*
X4258286Y-7031857D01*
X4272571Y-7089000D01*
X4272571Y-7160429D01*
X4258286Y-7217571D01*
X4244000Y-7246143D01*
X4229714Y-7260429D01*
X4201143Y-7274714D01*
X4172571Y-7274714D01*
X4144000Y-7260429D01*
X4129714Y-7246143D01*
X4115428Y-7217571D01*
X4101143Y-7160429D01*
X4101143Y-7089000D01*
X4115428Y-7031857D01*
X4129714Y-7003286D01*
X4144000Y-6989000D01*
X4172571Y-6974714D01*
X4529714Y-7074714D02*
X4529714Y-7274714D01*
X4458286Y-6960429D02*
X4386857Y-7174714D01*
X4572571Y-7174714D01*
X4744000Y-6974714D02*
X4772571Y-6974714D01*
X4801143Y-6989000D01*
X4815428Y-7003286D01*
X4829714Y-7031857D01*
X4844000Y-7089000D01*
X4844000Y-7160429D01*
X4829714Y-7217571D01*
X4815428Y-7246143D01*
X4801143Y-7260429D01*
X4772571Y-7274714D01*
X4744000Y-7274714D01*
X4715428Y-7260429D01*
X4701143Y-7246143D01*
X4686857Y-7217571D01*
X4672571Y-7160429D01*
X4672571Y-7089000D01*
X4686857Y-7031857D01*
X4701143Y-7003286D01*
X4715428Y-6989000D01*
X4744000Y-6974714D01*
X4958286Y-6974714D02*
X4958286Y-7031857D01*
X5072571Y-6974714D02*
X5072571Y-7031857D01*
X5515428Y-7389000D02*
X5501143Y-7374714D01*
X5472571Y-7331857D01*
X5458286Y-7303286D01*
X5444000Y-7260429D01*
X5429714Y-7189000D01*
X5429714Y-7131857D01*
X5444000Y-7060429D01*
X5458286Y-7017571D01*
X5472571Y-6989000D01*
X5501143Y-6946143D01*
X5515428Y-6931857D01*
X5615428Y-7003286D02*
X5629714Y-6989000D01*
X5658285Y-6974714D01*
X5729714Y-6974714D01*
X5758285Y-6989000D01*
X5772571Y-7003286D01*
X5786857Y-7031857D01*
X5786857Y-7060429D01*
X5772571Y-7103286D01*
X5601143Y-7274714D01*
X5786857Y-7274714D01*
X5886857Y-6974714D02*
X6072571Y-6974714D01*
X5972571Y-7089000D01*
X6015428Y-7089000D01*
X6044000Y-7103286D01*
X6058285Y-7117571D01*
X6072571Y-7146143D01*
X6072571Y-7217571D01*
X6058285Y-7246143D01*
X6044000Y-7260429D01*
X6015428Y-7274714D01*
X5929714Y-7274714D01*
X5901143Y-7260429D01*
X5886857Y-7246143D01*
X6429714Y-7274714D02*
X6429714Y-6974714D01*
X6558285Y-7274714D02*
X6558285Y-7117571D01*
X6544000Y-7089000D01*
X6515428Y-7074714D01*
X6472571Y-7074714D01*
X6444000Y-7089000D01*
X6429714Y-7103286D01*
X6744000Y-7274714D02*
X6715428Y-7260429D01*
X6701143Y-7246143D01*
X6686857Y-7217571D01*
X6686857Y-7131857D01*
X6701143Y-7103286D01*
X6715428Y-7089000D01*
X6744000Y-7074714D01*
X6786857Y-7074714D01*
X6815428Y-7089000D01*
X6829714Y-7103286D01*
X6844000Y-7131857D01*
X6844000Y-7217571D01*
X6829714Y-7246143D01*
X6815428Y-7260429D01*
X6786857Y-7274714D01*
X6744000Y-7274714D01*
X7015428Y-7274714D02*
X6986857Y-7260429D01*
X6972571Y-7231857D01*
X6972571Y-6974714D01*
X7244000Y-7260429D02*
X7215428Y-7274714D01*
X7158286Y-7274714D01*
X7129714Y-7260429D01*
X7115428Y-7231857D01*
X7115428Y-7117571D01*
X7129714Y-7089000D01*
X7158286Y-7074714D01*
X7215428Y-7074714D01*
X7244000Y-7089000D01*
X7258286Y-7117571D01*
X7258286Y-7146143D01*
X7115428Y-7174714D01*
X7372571Y-7260429D02*
X7401143Y-7274714D01*
X7458286Y-7274714D01*
X7486857Y-7260429D01*
X7501143Y-7231857D01*
X7501143Y-7217571D01*
X7486857Y-7189000D01*
X7458286Y-7174714D01*
X7415428Y-7174714D01*
X7386857Y-7160429D01*
X7372571Y-7131857D01*
X7372571Y-7117571D01*
X7386857Y-7089000D01*
X7415428Y-7074714D01*
X7458286Y-7074714D01*
X7486857Y-7089000D01*
X7601143Y-7389000D02*
X7615428Y-7374714D01*
X7644000Y-7331857D01*
X7658286Y-7303286D01*
X7672571Y-7260429D01*
X7686857Y-7189000D01*
X7686857Y-7131857D01*
X7672571Y-7060429D01*
X7658286Y-7017571D01*
X7644000Y-6989000D01*
X7615428Y-6946143D01*
X7601143Y-6931857D01*
X649000Y-7730000D02*
X844000Y-7535000D01*
X649000Y-7340000D01*
X454000Y-7535000D01*
X649000Y-7730000D01*
X1086857Y-7370714D02*
X1272571Y-7370714D01*
X1172571Y-7485000D01*
X1215429Y-7485000D01*
X1244000Y-7499286D01*
X1258286Y-7513571D01*
X1272571Y-7542143D01*
X1272571Y-7613571D01*
X1258286Y-7642143D01*
X1244000Y-7656429D01*
X1215429Y-7670714D01*
X1129714Y-7670714D01*
X1101143Y-7656429D01*
X1086857Y-7642143D01*
X1401143Y-7642143D02*
X1415428Y-7656429D01*
X1401143Y-7670714D01*
X1386857Y-7656429D01*
X1401143Y-7642143D01*
X1401143Y-7670714D01*
X1558286Y-7670714D02*
X1615428Y-7670714D01*
X1644000Y-7656429D01*
X1658286Y-7642143D01*
X1686857Y-7599286D01*
X1701143Y-7542143D01*
X1701143Y-7427857D01*
X1686857Y-7399286D01*
X1672571Y-7385000D01*
X1644000Y-7370714D01*
X1586857Y-7370714D01*
X1558286Y-7385000D01*
X1544000Y-7399286D01*
X1529714Y-7427857D01*
X1529714Y-7499286D01*
X1544000Y-7527857D01*
X1558286Y-7542143D01*
X1586857Y-7556429D01*
X1644000Y-7556429D01*
X1672571Y-7542143D01*
X1686857Y-7527857D01*
X1701143Y-7499286D01*
X1886857Y-7370714D02*
X1915428Y-7370714D01*
X1944000Y-7385000D01*
X1958286Y-7399286D01*
X1972571Y-7427857D01*
X1986857Y-7485000D01*
X1986857Y-7556429D01*
X1972571Y-7613571D01*
X1958286Y-7642143D01*
X1944000Y-7656429D01*
X1915428Y-7670714D01*
X1886857Y-7670714D01*
X1858286Y-7656429D01*
X1844000Y-7642143D01*
X1829714Y-7613571D01*
X1815428Y-7556429D01*
X1815428Y-7485000D01*
X1829714Y-7427857D01*
X1844000Y-7399286D01*
X1858286Y-7385000D01*
X1886857Y-7370714D01*
X2115429Y-7670714D02*
X2115429Y-7470714D01*
X2115429Y-7499286D02*
X2129714Y-7485000D01*
X2158286Y-7470714D01*
X2201143Y-7470714D01*
X2229714Y-7485000D01*
X2244000Y-7513571D01*
X2244000Y-7670714D01*
X2244000Y-7513571D02*
X2258286Y-7485000D01*
X2286857Y-7470714D01*
X2329714Y-7470714D01*
X2358286Y-7485000D01*
X2372571Y-7513571D01*
X2372571Y-7670714D01*
X2515429Y-7670714D02*
X2515429Y-7470714D01*
X2515429Y-7499286D02*
X2529714Y-7485000D01*
X2558286Y-7470714D01*
X2601143Y-7470714D01*
X2629714Y-7485000D01*
X2644000Y-7513571D01*
X2644000Y-7670714D01*
X2644000Y-7513571D02*
X2658286Y-7485000D01*
X2686857Y-7470714D01*
X2729714Y-7470714D01*
X2758286Y-7485000D01*
X2772571Y-7513571D01*
X2772571Y-7670714D01*
X3358286Y-7356429D02*
X3101143Y-7742143D01*
X3744000Y-7370714D02*
X3772571Y-7370714D01*
X3801143Y-7385000D01*
X3815428Y-7399286D01*
X3829714Y-7427857D01*
X3844000Y-7485000D01*
X3844000Y-7556429D01*
X3829714Y-7613571D01*
X3815428Y-7642143D01*
X3801143Y-7656429D01*
X3772571Y-7670714D01*
X3744000Y-7670714D01*
X3715428Y-7656429D01*
X3701143Y-7642143D01*
X3686857Y-7613571D01*
X3672571Y-7556429D01*
X3672571Y-7485000D01*
X3686857Y-7427857D01*
X3701143Y-7399286D01*
X3715428Y-7385000D01*
X3744000Y-7370714D01*
X3972571Y-7642143D02*
X3986857Y-7656429D01*
X3972571Y-7670714D01*
X3958286Y-7656429D01*
X3972571Y-7642143D01*
X3972571Y-7670714D01*
X4272571Y-7670714D02*
X4101143Y-7670714D01*
X4186857Y-7670714D02*
X4186857Y-7370714D01*
X4158285Y-7413571D01*
X4129714Y-7442143D01*
X4101143Y-7456429D01*
X4544000Y-7370714D02*
X4401143Y-7370714D01*
X4386857Y-7513571D01*
X4401143Y-7499286D01*
X4429714Y-7485000D01*
X4501143Y-7485000D01*
X4529714Y-7499286D01*
X4544000Y-7513571D01*
X4558286Y-7542143D01*
X4558286Y-7613571D01*
X4544000Y-7642143D01*
X4529714Y-7656429D01*
X4501143Y-7670714D01*
X4429714Y-7670714D01*
X4401143Y-7656429D01*
X4386857Y-7642143D01*
X4815428Y-7470714D02*
X4815428Y-7670714D01*
X4744000Y-7356429D02*
X4672571Y-7570714D01*
X4858286Y-7570714D01*
X4958286Y-7370714D02*
X4958286Y-7427857D01*
X5072571Y-7370714D02*
X5072571Y-7427857D01*
X5515428Y-7785000D02*
X5501143Y-7770714D01*
X5472571Y-7727857D01*
X5458286Y-7699286D01*
X5444000Y-7656429D01*
X5429714Y-7585000D01*
X5429714Y-7527857D01*
X5444000Y-7456429D01*
X5458286Y-7413571D01*
X5472571Y-7385000D01*
X5501143Y-7342143D01*
X5515428Y-7327857D01*
X5615428Y-7399286D02*
X5629714Y-7385000D01*
X5658285Y-7370714D01*
X5729714Y-7370714D01*
X5758285Y-7385000D01*
X5772571Y-7399286D01*
X5786857Y-7427857D01*
X5786857Y-7456429D01*
X5772571Y-7499286D01*
X5601143Y-7670714D01*
X5786857Y-7670714D01*
X6144000Y-7670714D02*
X6144000Y-7370714D01*
X6272571Y-7670714D02*
X6272571Y-7513571D01*
X6258285Y-7485000D01*
X6229714Y-7470714D01*
X6186857Y-7470714D01*
X6158285Y-7485000D01*
X6144000Y-7499286D01*
X6458285Y-7670714D02*
X6429714Y-7656429D01*
X6415428Y-7642143D01*
X6401143Y-7613571D01*
X6401143Y-7527857D01*
X6415428Y-7499286D01*
X6429714Y-7485000D01*
X6458285Y-7470714D01*
X6501143Y-7470714D01*
X6529714Y-7485000D01*
X6544000Y-7499286D01*
X6558285Y-7527857D01*
X6558285Y-7613571D01*
X6544000Y-7642143D01*
X6529714Y-7656429D01*
X6501143Y-7670714D01*
X6458285Y-7670714D01*
X6729714Y-7670714D02*
X6701143Y-7656429D01*
X6686857Y-7627857D01*
X6686857Y-7370714D01*
X6958286Y-7656429D02*
X6929714Y-7670714D01*
X6872571Y-7670714D01*
X6844000Y-7656429D01*
X6829714Y-7627857D01*
X6829714Y-7513571D01*
X6844000Y-7485000D01*
X6872571Y-7470714D01*
X6929714Y-7470714D01*
X6958286Y-7485000D01*
X6972571Y-7513571D01*
X6972571Y-7542143D01*
X6829714Y-7570714D01*
X7086857Y-7656429D02*
X7115428Y-7670714D01*
X7172571Y-7670714D01*
X7201143Y-7656429D01*
X7215428Y-7627857D01*
X7215428Y-7613571D01*
X7201143Y-7585000D01*
X7172571Y-7570714D01*
X7129714Y-7570714D01*
X7101143Y-7556429D01*
X7086857Y-7527857D01*
X7086857Y-7513571D01*
X7101143Y-7485000D01*
X7129714Y-7470714D01*
X7172571Y-7470714D01*
X7201143Y-7485000D01*
X7315428Y-7785000D02*
X7329714Y-7770714D01*
X7358286Y-7727857D01*
X7372571Y-7699286D01*
X7386857Y-7656429D01*
X7401143Y-7585000D01*
X7401143Y-7527857D01*
X7386857Y-7456429D01*
X7372571Y-7413571D01*
X7358286Y-7385000D01*
X7329714Y-7342143D01*
X7315428Y-7327857D01*
M02*
