G04 #@! TF.FileFunction,Legend,Top*
%FSLAX46Y46*%
G04 Gerber Fmt 4.6, Leading zero omitted, Abs format (unit mm)*
G04 Created by KiCad (PCBNEW 4.0.1-stable) date 14/03/2016 16:10:45*
%MOMM*%
G01*
G04 APERTURE LIST*
%ADD10C,0.100000*%
%ADD11C,0.150000*%
G04 APERTURE END LIST*
D10*
D11*
X180300453Y-131834000D02*
X180205215Y-131786381D01*
X180062358Y-131786381D01*
X179919500Y-131834000D01*
X179824262Y-131929238D01*
X179776643Y-132024476D01*
X179729024Y-132214952D01*
X179729024Y-132357810D01*
X179776643Y-132548286D01*
X179824262Y-132643524D01*
X179919500Y-132738762D01*
X180062358Y-132786381D01*
X180157596Y-132786381D01*
X180300453Y-132738762D01*
X180348072Y-132691143D01*
X180348072Y-132357810D01*
X180157596Y-132357810D01*
X182300453Y-132405429D02*
X183062358Y-132405429D01*
X182681406Y-132786381D02*
X182681406Y-132024476D01*
X179054381Y-128087381D02*
X178721047Y-127611190D01*
X178482952Y-128087381D02*
X178482952Y-127087381D01*
X178863905Y-127087381D01*
X178959143Y-127135000D01*
X179006762Y-127182619D01*
X179054381Y-127277857D01*
X179054381Y-127420714D01*
X179006762Y-127515952D01*
X178959143Y-127563571D01*
X178863905Y-127611190D01*
X178482952Y-127611190D01*
X179387714Y-127087381D02*
X180054381Y-128087381D01*
X180054381Y-127087381D02*
X179387714Y-128087381D01*
X180435333Y-127706429D02*
X181197238Y-127706429D01*
X181863904Y-127087381D02*
X182054381Y-127087381D01*
X182149619Y-127135000D01*
X182244857Y-127230238D01*
X182292476Y-127420714D01*
X182292476Y-127754048D01*
X182244857Y-127944524D01*
X182149619Y-128039762D01*
X182054381Y-128087381D01*
X181863904Y-128087381D01*
X181768666Y-128039762D01*
X181673428Y-127944524D01*
X181625809Y-127754048D01*
X181625809Y-127420714D01*
X181673428Y-127230238D01*
X181768666Y-127135000D01*
X181863904Y-127087381D01*
X183149619Y-127420714D02*
X183149619Y-128087381D01*
X182721047Y-127420714D02*
X182721047Y-127944524D01*
X182768666Y-128039762D01*
X182863904Y-128087381D01*
X183006762Y-128087381D01*
X183102000Y-128039762D01*
X183149619Y-127992143D01*
X183482952Y-127420714D02*
X183863904Y-127420714D01*
X183625809Y-127087381D02*
X183625809Y-127944524D01*
X183673428Y-128039762D01*
X183768666Y-128087381D01*
X183863904Y-128087381D01*
X125483905Y-67927000D02*
X125388667Y-67879381D01*
X125245810Y-67879381D01*
X125102952Y-67927000D01*
X125007714Y-68022238D01*
X124960095Y-68117476D01*
X124912476Y-68307952D01*
X124912476Y-68450810D01*
X124960095Y-68641286D01*
X125007714Y-68736524D01*
X125102952Y-68831762D01*
X125245810Y-68879381D01*
X125341048Y-68879381D01*
X125483905Y-68831762D01*
X125531524Y-68784143D01*
X125531524Y-68450810D01*
X125341048Y-68450810D01*
X124841048Y-71598429D02*
X125602953Y-71598429D01*
X125222001Y-71979381D02*
X125222001Y-71217476D01*
X126349310Y-73731381D02*
X126015976Y-73255190D01*
X125777881Y-73731381D02*
X125777881Y-72731381D01*
X126158834Y-72731381D01*
X126254072Y-72779000D01*
X126301691Y-72826619D01*
X126349310Y-72921857D01*
X126349310Y-73064714D01*
X126301691Y-73159952D01*
X126254072Y-73207571D01*
X126158834Y-73255190D01*
X125777881Y-73255190D01*
X126682643Y-72731381D02*
X127349310Y-73731381D01*
X127349310Y-72731381D02*
X126682643Y-73731381D01*
X127730262Y-73350429D02*
X128492167Y-73350429D01*
X128968357Y-73731381D02*
X128968357Y-72731381D01*
X129444547Y-73064714D02*
X129444547Y-73731381D01*
X129444547Y-73159952D02*
X129492166Y-73112333D01*
X129587404Y-73064714D01*
X129730262Y-73064714D01*
X129825500Y-73112333D01*
X129873119Y-73207571D01*
X129873119Y-73731381D01*
X127706500Y-76034000D02*
X128706500Y-76034000D01*
X128706500Y-74334000D02*
X127706500Y-74334000D01*
X148678000Y-59872500D02*
X148678000Y-58872500D01*
X146978000Y-58872500D02*
X146978000Y-59872500D01*
X148805000Y-70413500D02*
X148805000Y-69413500D01*
X147105000Y-69413500D02*
X147105000Y-70413500D01*
X148868500Y-81462500D02*
X148868500Y-80462500D01*
X147168500Y-80462500D02*
X147168500Y-81462500D01*
X148678000Y-92829000D02*
X148678000Y-91829000D01*
X146978000Y-91829000D02*
X146978000Y-92829000D01*
X148424000Y-103306500D02*
X148424000Y-102306500D01*
X146724000Y-102306500D02*
X146724000Y-103306500D01*
X148360500Y-114228500D02*
X148360500Y-113228500D01*
X146660500Y-113228500D02*
X146660500Y-114228500D01*
X148233500Y-125912500D02*
X148233500Y-124912500D01*
X146533500Y-124912500D02*
X146533500Y-125912500D01*
X140169000Y-55237000D02*
X140169000Y-54237000D01*
X138469000Y-54237000D02*
X138469000Y-55237000D01*
X140169000Y-66349500D02*
X140169000Y-65349500D01*
X138469000Y-65349500D02*
X138469000Y-66349500D01*
X140232500Y-77335000D02*
X140232500Y-76335000D01*
X138532500Y-76335000D02*
X138532500Y-77335000D01*
X139978500Y-88257000D02*
X139978500Y-87257000D01*
X138278500Y-87257000D02*
X138278500Y-88257000D01*
X139788000Y-99306000D02*
X139788000Y-98306000D01*
X138088000Y-98306000D02*
X138088000Y-99306000D01*
X139788000Y-109402500D02*
X139788000Y-108402500D01*
X138088000Y-108402500D02*
X138088000Y-109402500D01*
X139661000Y-120769000D02*
X139661000Y-119769000D01*
X137961000Y-119769000D02*
X137961000Y-120769000D01*
X147328000Y-55333000D02*
X148328000Y-55333000D01*
X148328000Y-53633000D02*
X147328000Y-53633000D01*
X147518500Y-66128000D02*
X148518500Y-66128000D01*
X148518500Y-64428000D02*
X147518500Y-64428000D01*
X147645500Y-76669000D02*
X148645500Y-76669000D01*
X148645500Y-74969000D02*
X147645500Y-74969000D01*
X147455000Y-88099000D02*
X148455000Y-88099000D01*
X148455000Y-86399000D02*
X147455000Y-86399000D01*
X147328000Y-99275000D02*
X148328000Y-99275000D01*
X148328000Y-97575000D02*
X147328000Y-97575000D01*
X147074000Y-109752500D02*
X148074000Y-109752500D01*
X148074000Y-108052500D02*
X147074000Y-108052500D01*
X147074000Y-121436500D02*
X148074000Y-121436500D01*
X148074000Y-119736500D02*
X147074000Y-119736500D01*
X156138500Y-52426500D02*
X155138500Y-52426500D01*
X155138500Y-54126500D02*
X156138500Y-54126500D01*
X149995000Y-63588000D02*
X150995000Y-63588000D01*
X150995000Y-61888000D02*
X149995000Y-61888000D01*
X150376000Y-74129000D02*
X151376000Y-74129000D01*
X151376000Y-72429000D02*
X150376000Y-72429000D01*
X150439500Y-85241500D02*
X151439500Y-85241500D01*
X151439500Y-83541500D02*
X150439500Y-83541500D01*
X150185500Y-96798500D02*
X151185500Y-96798500D01*
X151185500Y-95098500D02*
X150185500Y-95098500D01*
X149995000Y-107276000D02*
X150995000Y-107276000D01*
X150995000Y-105576000D02*
X149995000Y-105576000D01*
X149677500Y-118388500D02*
X150677500Y-118388500D01*
X150677500Y-116688500D02*
X149677500Y-116688500D01*
X153614500Y-61683000D02*
X154614500Y-61683000D01*
X154614500Y-59983000D02*
X153614500Y-59983000D01*
X153614500Y-71843000D02*
X154614500Y-71843000D01*
X154614500Y-70143000D02*
X153614500Y-70143000D01*
X153424000Y-82701500D02*
X154424000Y-82701500D01*
X154424000Y-81001500D02*
X153424000Y-81001500D01*
X153233500Y-93941000D02*
X154233500Y-93941000D01*
X154233500Y-92241000D02*
X153233500Y-92241000D01*
X153170000Y-104863000D02*
X154170000Y-104863000D01*
X154170000Y-103163000D02*
X153170000Y-103163000D01*
X152979500Y-115785000D02*
X153979500Y-115785000D01*
X153979500Y-114085000D02*
X152979500Y-114085000D01*
X153043000Y-127405500D02*
X154043000Y-127405500D01*
X154043000Y-125705500D02*
X153043000Y-125705500D01*
X159520000Y-58952500D02*
X160520000Y-58952500D01*
X160520000Y-57252500D02*
X159520000Y-57252500D01*
X159710500Y-70319000D02*
X160710500Y-70319000D01*
X160710500Y-68619000D02*
X159710500Y-68619000D01*
X159520000Y-81304500D02*
X160520000Y-81304500D01*
X160520000Y-79604500D02*
X159520000Y-79604500D01*
X159710500Y-91845500D02*
X160710500Y-91845500D01*
X160710500Y-90145500D02*
X159710500Y-90145500D01*
X159266000Y-102704000D02*
X160266000Y-102704000D01*
X160266000Y-101004000D02*
X159266000Y-101004000D01*
X159075500Y-113943500D02*
X160075500Y-113943500D01*
X160075500Y-112243500D02*
X159075500Y-112243500D01*
X158694500Y-126135500D02*
X159694500Y-126135500D01*
X159694500Y-124435500D02*
X158694500Y-124435500D01*
X180950500Y-61666500D02*
X180950500Y-62666500D01*
X182650500Y-62666500D02*
X182650500Y-61666500D01*
X168076500Y-60554500D02*
X167076500Y-60554500D01*
X167076500Y-62254500D02*
X168076500Y-62254500D01*
X167251000Y-71286000D02*
X166251000Y-71286000D01*
X166251000Y-72986000D02*
X167251000Y-72986000D01*
X167187500Y-82525500D02*
X166187500Y-82525500D01*
X166187500Y-84225500D02*
X167187500Y-84225500D01*
X167441500Y-93828500D02*
X166441500Y-93828500D01*
X166441500Y-95528500D02*
X167441500Y-95528500D01*
X167251000Y-105131500D02*
X166251000Y-105131500D01*
X166251000Y-106831500D02*
X167251000Y-106831500D01*
X166933500Y-116625000D02*
X165933500Y-116625000D01*
X165933500Y-118325000D02*
X166933500Y-118325000D01*
X166679500Y-128499500D02*
X165679500Y-128499500D01*
X165679500Y-130199500D02*
X166679500Y-130199500D01*
X116959000Y-85573500D02*
X115959000Y-85573500D01*
X115959000Y-87273500D02*
X116959000Y-87273500D01*
X162076500Y-54792500D02*
X162076500Y-53792500D01*
X160376500Y-53792500D02*
X160376500Y-54792500D01*
X162330500Y-66857500D02*
X162330500Y-65857500D01*
X160630500Y-65857500D02*
X160630500Y-66857500D01*
X162013000Y-77652500D02*
X162013000Y-76652500D01*
X160313000Y-76652500D02*
X160313000Y-77652500D01*
X161949500Y-87812500D02*
X161949500Y-86812500D01*
X160249500Y-86812500D02*
X160249500Y-87812500D01*
X161695500Y-98798000D02*
X161695500Y-97798000D01*
X159995500Y-97798000D02*
X159995500Y-98798000D01*
X161441500Y-110291500D02*
X161441500Y-109291500D01*
X159741500Y-109291500D02*
X159741500Y-110291500D01*
X160933500Y-122293000D02*
X160933500Y-121293000D01*
X159233500Y-121293000D02*
X159233500Y-122293000D01*
X170188000Y-54634500D02*
X171188000Y-54634500D01*
X171188000Y-52934500D02*
X170188000Y-52934500D01*
X169616500Y-65366000D02*
X170616500Y-65366000D01*
X170616500Y-63666000D02*
X169616500Y-63666000D01*
X169553000Y-77748500D02*
X170553000Y-77748500D01*
X170553000Y-76048500D02*
X169553000Y-76048500D01*
X169743500Y-88797500D02*
X170743500Y-88797500D01*
X170743500Y-87097500D02*
X169743500Y-87097500D01*
X169362500Y-100164000D02*
X170362500Y-100164000D01*
X170362500Y-98464000D02*
X169362500Y-98464000D01*
X169299000Y-111594000D02*
X170299000Y-111594000D01*
X170299000Y-109894000D02*
X169299000Y-109894000D01*
X169108500Y-123214500D02*
X170108500Y-123214500D01*
X170108500Y-121514500D02*
X169108500Y-121514500D01*
X172617500Y-59555000D02*
X172617500Y-58555000D01*
X170917500Y-58555000D02*
X170917500Y-59555000D01*
X171855500Y-71239000D02*
X171855500Y-70239000D01*
X170155500Y-70239000D02*
X170155500Y-71239000D01*
X171919000Y-82161000D02*
X171919000Y-81161000D01*
X170219000Y-81161000D02*
X170219000Y-82161000D01*
X171919000Y-93273500D02*
X171919000Y-92273500D01*
X170219000Y-92273500D02*
X170219000Y-93273500D01*
X171792000Y-104449500D02*
X171792000Y-103449500D01*
X170092000Y-103449500D02*
X170092000Y-104449500D01*
X171792000Y-116006500D02*
X171792000Y-115006500D01*
X170092000Y-115006500D02*
X170092000Y-116006500D01*
X171411000Y-127563500D02*
X171411000Y-126563500D01*
X169711000Y-126563500D02*
X169711000Y-127563500D01*
X181712500Y-123579000D02*
X181712500Y-124579000D01*
X183412500Y-124579000D02*
X183412500Y-123579000D01*
X174934500Y-62650000D02*
X173934500Y-62650000D01*
X173934500Y-64350000D02*
X174934500Y-64350000D01*
X173347000Y-73064000D02*
X172347000Y-73064000D01*
X172347000Y-74764000D02*
X173347000Y-74764000D01*
X173093000Y-84240000D02*
X172093000Y-84240000D01*
X172093000Y-85940000D02*
X173093000Y-85940000D01*
X172712000Y-106909500D02*
X171712000Y-106909500D01*
X171712000Y-108609500D02*
X172712000Y-108609500D01*
X173156500Y-118403000D02*
X172156500Y-118403000D01*
X172156500Y-120103000D02*
X173156500Y-120103000D01*
X113753000Y-121467500D02*
X113753000Y-120467500D01*
X112053000Y-120467500D02*
X112053000Y-121467500D01*
X130341000Y-125293500D02*
X130341000Y-126293500D01*
X132041000Y-126293500D02*
X132041000Y-125293500D01*
X148026500Y-130136000D02*
X149026500Y-130136000D01*
X149026500Y-128436000D02*
X148026500Y-128436000D01*
X128905000Y-69723000D02*
X128905000Y-72263000D01*
X129185000Y-66903000D02*
X129185000Y-68453000D01*
X128905000Y-69723000D02*
X126365000Y-69723000D01*
X126085000Y-68453000D02*
X126085000Y-66903000D01*
X126085000Y-66903000D02*
X129185000Y-66903000D01*
X126365000Y-69723000D02*
X126365000Y-72263000D01*
X126365000Y-72263000D02*
X128905000Y-72263000D01*
X181229000Y-128778000D02*
X183769000Y-128778000D01*
X178409000Y-128498000D02*
X179959000Y-128498000D01*
X181229000Y-128778000D02*
X181229000Y-131318000D01*
X179959000Y-131598000D02*
X178409000Y-131598000D01*
X178409000Y-131598000D02*
X178409000Y-128498000D01*
X181229000Y-131318000D02*
X183769000Y-131318000D01*
X183769000Y-131318000D02*
X183769000Y-128778000D01*
X117051000Y-88905000D02*
X117051000Y-89010000D01*
X121201000Y-88905000D02*
X121201000Y-89010000D01*
X121201000Y-99055000D02*
X121201000Y-98950000D01*
X117051000Y-99055000D02*
X117051000Y-98950000D01*
X117051000Y-88905000D02*
X121201000Y-88905000D01*
X117051000Y-99055000D02*
X121201000Y-99055000D01*
X117051000Y-89010000D02*
X115676000Y-89010000D01*
X132634000Y-57678500D02*
X132634000Y-57378500D01*
X132634000Y-57378500D02*
X132934000Y-57378500D01*
X132934000Y-55478500D02*
X131734000Y-55478500D01*
X131734000Y-57678500D02*
X132934000Y-57678500D01*
X132934000Y-57678500D02*
X132934000Y-55478500D01*
X131734000Y-55478500D02*
X131734000Y-57678500D01*
X135364500Y-67203500D02*
X135364500Y-66903500D01*
X135364500Y-66903500D02*
X135664500Y-66903500D01*
X135664500Y-65003500D02*
X134464500Y-65003500D01*
X134464500Y-67203500D02*
X135664500Y-67203500D01*
X135664500Y-67203500D02*
X135664500Y-65003500D01*
X134464500Y-65003500D02*
X134464500Y-67203500D01*
X135491500Y-78379500D02*
X135491500Y-78079500D01*
X135491500Y-78079500D02*
X135791500Y-78079500D01*
X135791500Y-76179500D02*
X134591500Y-76179500D01*
X134591500Y-78379500D02*
X135791500Y-78379500D01*
X135791500Y-78379500D02*
X135791500Y-76179500D01*
X134591500Y-76179500D02*
X134591500Y-78379500D01*
X135237500Y-88349000D02*
X135237500Y-88049000D01*
X135237500Y-88049000D02*
X135537500Y-88049000D01*
X135537500Y-86149000D02*
X134337500Y-86149000D01*
X134337500Y-88349000D02*
X135537500Y-88349000D01*
X135537500Y-88349000D02*
X135537500Y-86149000D01*
X134337500Y-86149000D02*
X134337500Y-88349000D01*
X135110500Y-99715500D02*
X135110500Y-99415500D01*
X135110500Y-99415500D02*
X135410500Y-99415500D01*
X135410500Y-97515500D02*
X134210500Y-97515500D01*
X134210500Y-99715500D02*
X135410500Y-99715500D01*
X135410500Y-99715500D02*
X135410500Y-97515500D01*
X134210500Y-97515500D02*
X134210500Y-99715500D01*
X135237500Y-109875500D02*
X135237500Y-109575500D01*
X135237500Y-109575500D02*
X135537500Y-109575500D01*
X135537500Y-107675500D02*
X134337500Y-107675500D01*
X134337500Y-109875500D02*
X135537500Y-109875500D01*
X135537500Y-109875500D02*
X135537500Y-107675500D01*
X134337500Y-107675500D02*
X134337500Y-109875500D01*
X134920000Y-121305500D02*
X134920000Y-121005500D01*
X134920000Y-121005500D02*
X135220000Y-121005500D01*
X135220000Y-119105500D02*
X134020000Y-119105500D01*
X134020000Y-121305500D02*
X135220000Y-121305500D01*
X135220000Y-121305500D02*
X135220000Y-119105500D01*
X134020000Y-119105500D02*
X134020000Y-121305500D01*
X116860500Y-72522000D02*
X116860500Y-72627000D01*
X121010500Y-72522000D02*
X121010500Y-72627000D01*
X121010500Y-82672000D02*
X121010500Y-82567000D01*
X116860500Y-82672000D02*
X116860500Y-82567000D01*
X116860500Y-72522000D02*
X121010500Y-72522000D01*
X116860500Y-82672000D02*
X121010500Y-82672000D01*
X116860500Y-72627000D02*
X115485500Y-72627000D01*
X179849500Y-56494500D02*
X179849500Y-56794500D01*
X179849500Y-56794500D02*
X179549500Y-56794500D01*
X179549500Y-58694500D02*
X180749500Y-58694500D01*
X180749500Y-56494500D02*
X179549500Y-56494500D01*
X179549500Y-56494500D02*
X179549500Y-58694500D01*
X180749500Y-58694500D02*
X180749500Y-56494500D01*
X174769500Y-66654500D02*
X174769500Y-66954500D01*
X174769500Y-66954500D02*
X174469500Y-66954500D01*
X174469500Y-68854500D02*
X175669500Y-68854500D01*
X175669500Y-66654500D02*
X174469500Y-66654500D01*
X174469500Y-66654500D02*
X174469500Y-68854500D01*
X175669500Y-68854500D02*
X175669500Y-66654500D01*
X175087000Y-77576500D02*
X175087000Y-77876500D01*
X175087000Y-77876500D02*
X174787000Y-77876500D01*
X174787000Y-79776500D02*
X175987000Y-79776500D01*
X175987000Y-77576500D02*
X174787000Y-77576500D01*
X174787000Y-77576500D02*
X174787000Y-79776500D01*
X175987000Y-79776500D02*
X175987000Y-77576500D01*
X175087000Y-88625500D02*
X175087000Y-88925500D01*
X175087000Y-88925500D02*
X174787000Y-88925500D01*
X174787000Y-90825500D02*
X175987000Y-90825500D01*
X175987000Y-88625500D02*
X174787000Y-88625500D01*
X174787000Y-88625500D02*
X174787000Y-90825500D01*
X175987000Y-90825500D02*
X175987000Y-88625500D01*
X175023500Y-99738000D02*
X175023500Y-100038000D01*
X175023500Y-100038000D02*
X174723500Y-100038000D01*
X174723500Y-101938000D02*
X175923500Y-101938000D01*
X175923500Y-99738000D02*
X174723500Y-99738000D01*
X174723500Y-99738000D02*
X174723500Y-101938000D01*
X175923500Y-101938000D02*
X175923500Y-99738000D01*
X174833000Y-111295000D02*
X174833000Y-111595000D01*
X174833000Y-111595000D02*
X174533000Y-111595000D01*
X174533000Y-113495000D02*
X175733000Y-113495000D01*
X175733000Y-111295000D02*
X174533000Y-111295000D01*
X174533000Y-111295000D02*
X174533000Y-113495000D01*
X175733000Y-113495000D02*
X175733000Y-111295000D01*
X174642500Y-122852000D02*
X174642500Y-123152000D01*
X174642500Y-123152000D02*
X174342500Y-123152000D01*
X174342500Y-125052000D02*
X175542500Y-125052000D01*
X175542500Y-122852000D02*
X174342500Y-122852000D01*
X174342500Y-122852000D02*
X174342500Y-125052000D01*
X175542500Y-125052000D02*
X175542500Y-122852000D01*
X116268500Y-108521500D02*
X116268500Y-126301500D01*
X121348500Y-123761500D02*
X121348500Y-108521500D01*
X116268500Y-108521500D02*
X121348500Y-108521500D01*
X116268500Y-126301500D02*
X118808500Y-126301500D01*
X120078500Y-126581500D02*
X121628500Y-126581500D01*
X118808500Y-126301500D02*
X118808500Y-123761500D01*
X118808500Y-123761500D02*
X121348500Y-123761500D01*
X121628500Y-126581500D02*
X121628500Y-125031500D01*
X113841500Y-115097000D02*
X113841500Y-116297000D01*
X112091500Y-116297000D02*
X112091500Y-115097000D01*
X145351500Y-54229000D02*
X145351500Y-52959000D01*
X145351500Y-52959000D02*
X140779500Y-52959000D01*
X140779500Y-52959000D02*
X140779500Y-57277000D01*
X140779500Y-58801000D02*
X140779500Y-60071000D01*
X140779500Y-60071000D02*
X145351500Y-60071000D01*
X145351500Y-60071000D02*
X145351500Y-55753000D01*
X145542000Y-64833500D02*
X145542000Y-63563500D01*
X145542000Y-63563500D02*
X140970000Y-63563500D01*
X140970000Y-63563500D02*
X140970000Y-67881500D01*
X140970000Y-69405500D02*
X140970000Y-70675500D01*
X140970000Y-70675500D02*
X145542000Y-70675500D01*
X145542000Y-70675500D02*
X145542000Y-66357500D01*
X145542000Y-75501500D02*
X145542000Y-74231500D01*
X145542000Y-74231500D02*
X140970000Y-74231500D01*
X140970000Y-74231500D02*
X140970000Y-78549500D01*
X140970000Y-80073500D02*
X140970000Y-81343500D01*
X140970000Y-81343500D02*
X145542000Y-81343500D01*
X145542000Y-81343500D02*
X145542000Y-77025500D01*
X145415000Y-86550500D02*
X145415000Y-85280500D01*
X145415000Y-85280500D02*
X140843000Y-85280500D01*
X140843000Y-85280500D02*
X140843000Y-89598500D01*
X140843000Y-91122500D02*
X140843000Y-92392500D01*
X140843000Y-92392500D02*
X145415000Y-92392500D01*
X145415000Y-92392500D02*
X145415000Y-88074500D01*
X145224500Y-97536000D02*
X145224500Y-96266000D01*
X145224500Y-96266000D02*
X140652500Y-96266000D01*
X140652500Y-96266000D02*
X140652500Y-100584000D01*
X140652500Y-102108000D02*
X140652500Y-103378000D01*
X140652500Y-103378000D02*
X145224500Y-103378000D01*
X145224500Y-103378000D02*
X145224500Y-99060000D01*
X145161000Y-108331000D02*
X145161000Y-107061000D01*
X145161000Y-107061000D02*
X140589000Y-107061000D01*
X140589000Y-107061000D02*
X140589000Y-111379000D01*
X140589000Y-112903000D02*
X140589000Y-114173000D01*
X140589000Y-114173000D02*
X145161000Y-114173000D01*
X145161000Y-114173000D02*
X145161000Y-109855000D01*
X144970500Y-119824500D02*
X144970500Y-118554500D01*
X144970500Y-118554500D02*
X140398500Y-118554500D01*
X140398500Y-118554500D02*
X140398500Y-122872500D01*
X140398500Y-124396500D02*
X140398500Y-125666500D01*
X140398500Y-125666500D02*
X144970500Y-125666500D01*
X144970500Y-125666500D02*
X144970500Y-121348500D01*
X155956000Y-58864500D02*
X157226000Y-58864500D01*
X157226000Y-58864500D02*
X157226000Y-54292500D01*
X157226000Y-54292500D02*
X152908000Y-54292500D01*
X151384000Y-54292500D02*
X150114000Y-54292500D01*
X150114000Y-54292500D02*
X150114000Y-58864500D01*
X150114000Y-58864500D02*
X154432000Y-58864500D01*
X155829000Y-69278500D02*
X157099000Y-69278500D01*
X157099000Y-69278500D02*
X157099000Y-64706500D01*
X157099000Y-64706500D02*
X152781000Y-64706500D01*
X151257000Y-64706500D02*
X149987000Y-64706500D01*
X149987000Y-64706500D02*
X149987000Y-69278500D01*
X149987000Y-69278500D02*
X154305000Y-69278500D01*
X155829000Y-79819500D02*
X157099000Y-79819500D01*
X157099000Y-79819500D02*
X157099000Y-75247500D01*
X157099000Y-75247500D02*
X152781000Y-75247500D01*
X151257000Y-75247500D02*
X149987000Y-75247500D01*
X149987000Y-75247500D02*
X149987000Y-79819500D01*
X149987000Y-79819500D02*
X154305000Y-79819500D01*
X155638500Y-91186000D02*
X156908500Y-91186000D01*
X156908500Y-91186000D02*
X156908500Y-86614000D01*
X156908500Y-86614000D02*
X152590500Y-86614000D01*
X151066500Y-86614000D02*
X149796500Y-86614000D01*
X149796500Y-86614000D02*
X149796500Y-91186000D01*
X149796500Y-91186000D02*
X154114500Y-91186000D01*
X155702000Y-102171500D02*
X156972000Y-102171500D01*
X156972000Y-102171500D02*
X156972000Y-97599500D01*
X156972000Y-97599500D02*
X152654000Y-97599500D01*
X151130000Y-97599500D02*
X149860000Y-97599500D01*
X149860000Y-97599500D02*
X149860000Y-102171500D01*
X149860000Y-102171500D02*
X154178000Y-102171500D01*
X155448000Y-113093500D02*
X156718000Y-113093500D01*
X156718000Y-113093500D02*
X156718000Y-108521500D01*
X156718000Y-108521500D02*
X152400000Y-108521500D01*
X150876000Y-108521500D02*
X149606000Y-108521500D01*
X149606000Y-108521500D02*
X149606000Y-113093500D01*
X149606000Y-113093500D02*
X153924000Y-113093500D01*
X155575000Y-124396500D02*
X156845000Y-124396500D01*
X156845000Y-124396500D02*
X156845000Y-119824500D01*
X156845000Y-119824500D02*
X152527000Y-119824500D01*
X151003000Y-119824500D02*
X149733000Y-119824500D01*
X149733000Y-119824500D02*
X149733000Y-124396500D01*
X149733000Y-124396500D02*
X154051000Y-124396500D01*
X167767000Y-54165500D02*
X167767000Y-52895500D01*
X167767000Y-52895500D02*
X163195000Y-52895500D01*
X163195000Y-52895500D02*
X163195000Y-57213500D01*
X163195000Y-58737500D02*
X163195000Y-60007500D01*
X163195000Y-60007500D02*
X167767000Y-60007500D01*
X167767000Y-60007500D02*
X167767000Y-55689500D01*
X167767000Y-64960500D02*
X167767000Y-63690500D01*
X167767000Y-63690500D02*
X163195000Y-63690500D01*
X163195000Y-63690500D02*
X163195000Y-68008500D01*
X163195000Y-69532500D02*
X163195000Y-70802500D01*
X163195000Y-70802500D02*
X167767000Y-70802500D01*
X167767000Y-70802500D02*
X167767000Y-66484500D01*
X167513000Y-76136500D02*
X167513000Y-74866500D01*
X167513000Y-74866500D02*
X162941000Y-74866500D01*
X162941000Y-74866500D02*
X162941000Y-79184500D01*
X162941000Y-80708500D02*
X162941000Y-81978500D01*
X162941000Y-81978500D02*
X167513000Y-81978500D01*
X167513000Y-81978500D02*
X167513000Y-77660500D01*
X167449500Y-87439500D02*
X167449500Y-86169500D01*
X167449500Y-86169500D02*
X162877500Y-86169500D01*
X162877500Y-86169500D02*
X162877500Y-90487500D01*
X162877500Y-92011500D02*
X162877500Y-93281500D01*
X162877500Y-93281500D02*
X167449500Y-93281500D01*
X167449500Y-93281500D02*
X167449500Y-88963500D01*
X167132000Y-98742500D02*
X167132000Y-97472500D01*
X167132000Y-97472500D02*
X162560000Y-97472500D01*
X162560000Y-97472500D02*
X162560000Y-101790500D01*
X162560000Y-103314500D02*
X162560000Y-104584500D01*
X162560000Y-104584500D02*
X167132000Y-104584500D01*
X167132000Y-104584500D02*
X167132000Y-100266500D01*
X166941500Y-110045500D02*
X166941500Y-108775500D01*
X166941500Y-108775500D02*
X162369500Y-108775500D01*
X162369500Y-108775500D02*
X162369500Y-113093500D01*
X162369500Y-114617500D02*
X162369500Y-115887500D01*
X162369500Y-115887500D02*
X166941500Y-115887500D01*
X166941500Y-115887500D02*
X166941500Y-111569500D01*
X166687500Y-121666000D02*
X166687500Y-120396000D01*
X166687500Y-120396000D02*
X162115500Y-120396000D01*
X162115500Y-120396000D02*
X162115500Y-124714000D01*
X162115500Y-126238000D02*
X162115500Y-127508000D01*
X162115500Y-127508000D02*
X166687500Y-127508000D01*
X166687500Y-127508000D02*
X166687500Y-123190000D01*
X160075500Y-136056000D02*
X159075500Y-136056000D01*
X159075500Y-137756000D02*
X160075500Y-137756000D01*
X138518000Y-72128000D02*
X138518000Y-71128000D01*
X136818000Y-71128000D02*
X136818000Y-72128000D01*
X175934000Y-106497500D02*
X175934000Y-107497500D01*
X177634000Y-107497500D02*
X177634000Y-106497500D01*
X185776500Y-52840000D02*
X185776500Y-53840000D01*
X187476500Y-53840000D02*
X187476500Y-52840000D01*
X128039834Y-77641143D02*
X127992215Y-77688762D01*
X127849358Y-77736381D01*
X127754120Y-77736381D01*
X127611262Y-77688762D01*
X127516024Y-77593524D01*
X127468405Y-77498286D01*
X127420786Y-77307810D01*
X127420786Y-77164952D01*
X127468405Y-76974476D01*
X127516024Y-76879238D01*
X127611262Y-76784000D01*
X127754120Y-76736381D01*
X127849358Y-76736381D01*
X127992215Y-76784000D01*
X128039834Y-76831619D01*
X128992215Y-77736381D02*
X128420786Y-77736381D01*
X128706500Y-77736381D02*
X128706500Y-76736381D01*
X128611262Y-76879238D01*
X128516024Y-76974476D01*
X128420786Y-77022095D01*
X145629334Y-61190143D02*
X145581715Y-61237762D01*
X145438858Y-61285381D01*
X145343620Y-61285381D01*
X145200762Y-61237762D01*
X145105524Y-61142524D01*
X145057905Y-61047286D01*
X145010286Y-60856810D01*
X145010286Y-60713952D01*
X145057905Y-60523476D01*
X145105524Y-60428238D01*
X145200762Y-60333000D01*
X145343620Y-60285381D01*
X145438858Y-60285381D01*
X145581715Y-60333000D01*
X145629334Y-60380619D01*
X146010286Y-60380619D02*
X146057905Y-60333000D01*
X146153143Y-60285381D01*
X146391239Y-60285381D01*
X146486477Y-60333000D01*
X146534096Y-60380619D01*
X146581715Y-60475857D01*
X146581715Y-60571095D01*
X146534096Y-60713952D01*
X145962667Y-61285381D01*
X146581715Y-61285381D01*
X145692834Y-71985143D02*
X145645215Y-72032762D01*
X145502358Y-72080381D01*
X145407120Y-72080381D01*
X145264262Y-72032762D01*
X145169024Y-71937524D01*
X145121405Y-71842286D01*
X145073786Y-71651810D01*
X145073786Y-71508952D01*
X145121405Y-71318476D01*
X145169024Y-71223238D01*
X145264262Y-71128000D01*
X145407120Y-71080381D01*
X145502358Y-71080381D01*
X145645215Y-71128000D01*
X145692834Y-71175619D01*
X146026167Y-71080381D02*
X146645215Y-71080381D01*
X146311881Y-71461333D01*
X146454739Y-71461333D01*
X146549977Y-71508952D01*
X146597596Y-71556571D01*
X146645215Y-71651810D01*
X146645215Y-71889905D01*
X146597596Y-71985143D01*
X146549977Y-72032762D01*
X146454739Y-72080381D01*
X146169024Y-72080381D01*
X146073786Y-72032762D01*
X146026167Y-71985143D01*
X145565834Y-82589643D02*
X145518215Y-82637262D01*
X145375358Y-82684881D01*
X145280120Y-82684881D01*
X145137262Y-82637262D01*
X145042024Y-82542024D01*
X144994405Y-82446786D01*
X144946786Y-82256310D01*
X144946786Y-82113452D01*
X144994405Y-81922976D01*
X145042024Y-81827738D01*
X145137262Y-81732500D01*
X145280120Y-81684881D01*
X145375358Y-81684881D01*
X145518215Y-81732500D01*
X145565834Y-81780119D01*
X146422977Y-82018214D02*
X146422977Y-82684881D01*
X146184881Y-81637262D02*
X145946786Y-82351548D01*
X146565834Y-82351548D01*
X145565834Y-94019643D02*
X145518215Y-94067262D01*
X145375358Y-94114881D01*
X145280120Y-94114881D01*
X145137262Y-94067262D01*
X145042024Y-93972024D01*
X144994405Y-93876786D01*
X144946786Y-93686310D01*
X144946786Y-93543452D01*
X144994405Y-93352976D01*
X145042024Y-93257738D01*
X145137262Y-93162500D01*
X145280120Y-93114881D01*
X145375358Y-93114881D01*
X145518215Y-93162500D01*
X145565834Y-93210119D01*
X146470596Y-93114881D02*
X145994405Y-93114881D01*
X145946786Y-93591071D01*
X145994405Y-93543452D01*
X146089643Y-93495833D01*
X146327739Y-93495833D01*
X146422977Y-93543452D01*
X146470596Y-93591071D01*
X146518215Y-93686310D01*
X146518215Y-93924405D01*
X146470596Y-94019643D01*
X146422977Y-94067262D01*
X146327739Y-94114881D01*
X146089643Y-94114881D01*
X145994405Y-94067262D01*
X145946786Y-94019643D01*
X145438834Y-104814643D02*
X145391215Y-104862262D01*
X145248358Y-104909881D01*
X145153120Y-104909881D01*
X145010262Y-104862262D01*
X144915024Y-104767024D01*
X144867405Y-104671786D01*
X144819786Y-104481310D01*
X144819786Y-104338452D01*
X144867405Y-104147976D01*
X144915024Y-104052738D01*
X145010262Y-103957500D01*
X145153120Y-103909881D01*
X145248358Y-103909881D01*
X145391215Y-103957500D01*
X145438834Y-104005119D01*
X146295977Y-103909881D02*
X146105500Y-103909881D01*
X146010262Y-103957500D01*
X145962643Y-104005119D01*
X145867405Y-104147976D01*
X145819786Y-104338452D01*
X145819786Y-104719405D01*
X145867405Y-104814643D01*
X145915024Y-104862262D01*
X146010262Y-104909881D01*
X146200739Y-104909881D01*
X146295977Y-104862262D01*
X146343596Y-104814643D01*
X146391215Y-104719405D01*
X146391215Y-104481310D01*
X146343596Y-104386071D01*
X146295977Y-104338452D01*
X146200739Y-104290833D01*
X146010262Y-104290833D01*
X145915024Y-104338452D01*
X145867405Y-104386071D01*
X145819786Y-104481310D01*
X145184834Y-115673143D02*
X145137215Y-115720762D01*
X144994358Y-115768381D01*
X144899120Y-115768381D01*
X144756262Y-115720762D01*
X144661024Y-115625524D01*
X144613405Y-115530286D01*
X144565786Y-115339810D01*
X144565786Y-115196952D01*
X144613405Y-115006476D01*
X144661024Y-114911238D01*
X144756262Y-114816000D01*
X144899120Y-114768381D01*
X144994358Y-114768381D01*
X145137215Y-114816000D01*
X145184834Y-114863619D01*
X145518167Y-114768381D02*
X146184834Y-114768381D01*
X145756262Y-115768381D01*
X145248334Y-127103143D02*
X145200715Y-127150762D01*
X145057858Y-127198381D01*
X144962620Y-127198381D01*
X144819762Y-127150762D01*
X144724524Y-127055524D01*
X144676905Y-126960286D01*
X144629286Y-126769810D01*
X144629286Y-126626952D01*
X144676905Y-126436476D01*
X144724524Y-126341238D01*
X144819762Y-126246000D01*
X144962620Y-126198381D01*
X145057858Y-126198381D01*
X145200715Y-126246000D01*
X145248334Y-126293619D01*
X145819762Y-126626952D02*
X145724524Y-126579333D01*
X145676905Y-126531714D01*
X145629286Y-126436476D01*
X145629286Y-126388857D01*
X145676905Y-126293619D01*
X145724524Y-126246000D01*
X145819762Y-126198381D01*
X146010239Y-126198381D01*
X146105477Y-126246000D01*
X146153096Y-126293619D01*
X146200715Y-126388857D01*
X146200715Y-126436476D01*
X146153096Y-126531714D01*
X146105477Y-126579333D01*
X146010239Y-126626952D01*
X145819762Y-126626952D01*
X145724524Y-126674571D01*
X145676905Y-126722190D01*
X145629286Y-126817429D01*
X145629286Y-127007905D01*
X145676905Y-127103143D01*
X145724524Y-127150762D01*
X145819762Y-127198381D01*
X146010239Y-127198381D01*
X146105477Y-127150762D01*
X146153096Y-127103143D01*
X146200715Y-127007905D01*
X146200715Y-126817429D01*
X146153096Y-126722190D01*
X146105477Y-126674571D01*
X146010239Y-126626952D01*
X139676143Y-51728666D02*
X139723762Y-51776285D01*
X139771381Y-51919142D01*
X139771381Y-52014380D01*
X139723762Y-52157238D01*
X139628524Y-52252476D01*
X139533286Y-52300095D01*
X139342810Y-52347714D01*
X139199952Y-52347714D01*
X139009476Y-52300095D01*
X138914238Y-52252476D01*
X138819000Y-52157238D01*
X138771381Y-52014380D01*
X138771381Y-51919142D01*
X138819000Y-51776285D01*
X138866619Y-51728666D01*
X139771381Y-51252476D02*
X139771381Y-51062000D01*
X139723762Y-50966761D01*
X139676143Y-50919142D01*
X139533286Y-50823904D01*
X139342810Y-50776285D01*
X138961857Y-50776285D01*
X138866619Y-50823904D01*
X138819000Y-50871523D01*
X138771381Y-50966761D01*
X138771381Y-51157238D01*
X138819000Y-51252476D01*
X138866619Y-51300095D01*
X138961857Y-51347714D01*
X139199952Y-51347714D01*
X139295190Y-51300095D01*
X139342810Y-51252476D01*
X139390429Y-51157238D01*
X139390429Y-50966761D01*
X139342810Y-50871523D01*
X139295190Y-50823904D01*
X139199952Y-50776285D01*
X139612643Y-63126857D02*
X139660262Y-63174476D01*
X139707881Y-63317333D01*
X139707881Y-63412571D01*
X139660262Y-63555429D01*
X139565024Y-63650667D01*
X139469786Y-63698286D01*
X139279310Y-63745905D01*
X139136452Y-63745905D01*
X138945976Y-63698286D01*
X138850738Y-63650667D01*
X138755500Y-63555429D01*
X138707881Y-63412571D01*
X138707881Y-63317333D01*
X138755500Y-63174476D01*
X138803119Y-63126857D01*
X139707881Y-62174476D02*
X139707881Y-62745905D01*
X139707881Y-62460191D02*
X138707881Y-62460191D01*
X138850738Y-62555429D01*
X138945976Y-62650667D01*
X138993595Y-62745905D01*
X138707881Y-61555429D02*
X138707881Y-61460190D01*
X138755500Y-61364952D01*
X138803119Y-61317333D01*
X138898357Y-61269714D01*
X139088833Y-61222095D01*
X139326929Y-61222095D01*
X139517405Y-61269714D01*
X139612643Y-61317333D01*
X139660262Y-61364952D01*
X139707881Y-61460190D01*
X139707881Y-61555429D01*
X139660262Y-61650667D01*
X139612643Y-61698286D01*
X139517405Y-61745905D01*
X139326929Y-61793524D01*
X139088833Y-61793524D01*
X138898357Y-61745905D01*
X138803119Y-61698286D01*
X138755500Y-61650667D01*
X138707881Y-61555429D01*
X139739643Y-74175857D02*
X139787262Y-74223476D01*
X139834881Y-74366333D01*
X139834881Y-74461571D01*
X139787262Y-74604429D01*
X139692024Y-74699667D01*
X139596786Y-74747286D01*
X139406310Y-74794905D01*
X139263452Y-74794905D01*
X139072976Y-74747286D01*
X138977738Y-74699667D01*
X138882500Y-74604429D01*
X138834881Y-74461571D01*
X138834881Y-74366333D01*
X138882500Y-74223476D01*
X138930119Y-74175857D01*
X139834881Y-73223476D02*
X139834881Y-73794905D01*
X139834881Y-73509191D02*
X138834881Y-73509191D01*
X138977738Y-73604429D01*
X139072976Y-73699667D01*
X139120595Y-73794905D01*
X139834881Y-72271095D02*
X139834881Y-72842524D01*
X139834881Y-72556810D02*
X138834881Y-72556810D01*
X138977738Y-72652048D01*
X139072976Y-72747286D01*
X139120595Y-72842524D01*
X139612643Y-84843857D02*
X139660262Y-84891476D01*
X139707881Y-85034333D01*
X139707881Y-85129571D01*
X139660262Y-85272429D01*
X139565024Y-85367667D01*
X139469786Y-85415286D01*
X139279310Y-85462905D01*
X139136452Y-85462905D01*
X138945976Y-85415286D01*
X138850738Y-85367667D01*
X138755500Y-85272429D01*
X138707881Y-85129571D01*
X138707881Y-85034333D01*
X138755500Y-84891476D01*
X138803119Y-84843857D01*
X139707881Y-83891476D02*
X139707881Y-84462905D01*
X139707881Y-84177191D02*
X138707881Y-84177191D01*
X138850738Y-84272429D01*
X138945976Y-84367667D01*
X138993595Y-84462905D01*
X138803119Y-83510524D02*
X138755500Y-83462905D01*
X138707881Y-83367667D01*
X138707881Y-83129571D01*
X138755500Y-83034333D01*
X138803119Y-82986714D01*
X138898357Y-82939095D01*
X138993595Y-82939095D01*
X139136452Y-82986714D01*
X139707881Y-83558143D01*
X139707881Y-82939095D01*
X139422143Y-95892857D02*
X139469762Y-95940476D01*
X139517381Y-96083333D01*
X139517381Y-96178571D01*
X139469762Y-96321429D01*
X139374524Y-96416667D01*
X139279286Y-96464286D01*
X139088810Y-96511905D01*
X138945952Y-96511905D01*
X138755476Y-96464286D01*
X138660238Y-96416667D01*
X138565000Y-96321429D01*
X138517381Y-96178571D01*
X138517381Y-96083333D01*
X138565000Y-95940476D01*
X138612619Y-95892857D01*
X139517381Y-94940476D02*
X139517381Y-95511905D01*
X139517381Y-95226191D02*
X138517381Y-95226191D01*
X138660238Y-95321429D01*
X138755476Y-95416667D01*
X138803095Y-95511905D01*
X138517381Y-94607143D02*
X138517381Y-93988095D01*
X138898333Y-94321429D01*
X138898333Y-94178571D01*
X138945952Y-94083333D01*
X138993571Y-94035714D01*
X139088810Y-93988095D01*
X139326905Y-93988095D01*
X139422143Y-94035714D01*
X139469762Y-94083333D01*
X139517381Y-94178571D01*
X139517381Y-94464286D01*
X139469762Y-94559524D01*
X139422143Y-94607143D01*
X139295143Y-106243357D02*
X139342762Y-106290976D01*
X139390381Y-106433833D01*
X139390381Y-106529071D01*
X139342762Y-106671929D01*
X139247524Y-106767167D01*
X139152286Y-106814786D01*
X138961810Y-106862405D01*
X138818952Y-106862405D01*
X138628476Y-106814786D01*
X138533238Y-106767167D01*
X138438000Y-106671929D01*
X138390381Y-106529071D01*
X138390381Y-106433833D01*
X138438000Y-106290976D01*
X138485619Y-106243357D01*
X139390381Y-105290976D02*
X139390381Y-105862405D01*
X139390381Y-105576691D02*
X138390381Y-105576691D01*
X138533238Y-105671929D01*
X138628476Y-105767167D01*
X138676095Y-105862405D01*
X138723714Y-104433833D02*
X139390381Y-104433833D01*
X138342762Y-104671929D02*
X139057048Y-104910024D01*
X139057048Y-104290976D01*
X139231643Y-117609857D02*
X139279262Y-117657476D01*
X139326881Y-117800333D01*
X139326881Y-117895571D01*
X139279262Y-118038429D01*
X139184024Y-118133667D01*
X139088786Y-118181286D01*
X138898310Y-118228905D01*
X138755452Y-118228905D01*
X138564976Y-118181286D01*
X138469738Y-118133667D01*
X138374500Y-118038429D01*
X138326881Y-117895571D01*
X138326881Y-117800333D01*
X138374500Y-117657476D01*
X138422119Y-117609857D01*
X139326881Y-116657476D02*
X139326881Y-117228905D01*
X139326881Y-116943191D02*
X138326881Y-116943191D01*
X138469738Y-117038429D01*
X138564976Y-117133667D01*
X138612595Y-117228905D01*
X138326881Y-115752714D02*
X138326881Y-116228905D01*
X138803071Y-116276524D01*
X138755452Y-116228905D01*
X138707833Y-116133667D01*
X138707833Y-115895571D01*
X138755452Y-115800333D01*
X138803071Y-115752714D01*
X138898310Y-115705095D01*
X139136405Y-115705095D01*
X139231643Y-115752714D01*
X139279262Y-115800333D01*
X139326881Y-115895571D01*
X139326881Y-116133667D01*
X139279262Y-116228905D01*
X139231643Y-116276524D01*
X147185143Y-56940143D02*
X147137524Y-56987762D01*
X146994667Y-57035381D01*
X146899429Y-57035381D01*
X146756571Y-56987762D01*
X146661333Y-56892524D01*
X146613714Y-56797286D01*
X146566095Y-56606810D01*
X146566095Y-56463952D01*
X146613714Y-56273476D01*
X146661333Y-56178238D01*
X146756571Y-56083000D01*
X146899429Y-56035381D01*
X146994667Y-56035381D01*
X147137524Y-56083000D01*
X147185143Y-56130619D01*
X148137524Y-57035381D02*
X147566095Y-57035381D01*
X147851809Y-57035381D02*
X147851809Y-56035381D01*
X147756571Y-56178238D01*
X147661333Y-56273476D01*
X147566095Y-56321095D01*
X148994667Y-56035381D02*
X148804190Y-56035381D01*
X148708952Y-56083000D01*
X148661333Y-56130619D01*
X148566095Y-56273476D01*
X148518476Y-56463952D01*
X148518476Y-56844905D01*
X148566095Y-56940143D01*
X148613714Y-56987762D01*
X148708952Y-57035381D01*
X148899429Y-57035381D01*
X148994667Y-56987762D01*
X149042286Y-56940143D01*
X149089905Y-56844905D01*
X149089905Y-56606810D01*
X149042286Y-56511571D01*
X148994667Y-56463952D01*
X148899429Y-56416333D01*
X148708952Y-56416333D01*
X148613714Y-56463952D01*
X148566095Y-56511571D01*
X148518476Y-56606810D01*
X147439143Y-67349643D02*
X147391524Y-67397262D01*
X147248667Y-67444881D01*
X147153429Y-67444881D01*
X147010571Y-67397262D01*
X146915333Y-67302024D01*
X146867714Y-67206786D01*
X146820095Y-67016310D01*
X146820095Y-66873452D01*
X146867714Y-66682976D01*
X146915333Y-66587738D01*
X147010571Y-66492500D01*
X147153429Y-66444881D01*
X147248667Y-66444881D01*
X147391524Y-66492500D01*
X147439143Y-66540119D01*
X148391524Y-67444881D02*
X147820095Y-67444881D01*
X148105809Y-67444881D02*
X148105809Y-66444881D01*
X148010571Y-66587738D01*
X147915333Y-66682976D01*
X147820095Y-66730595D01*
X148724857Y-66444881D02*
X149391524Y-66444881D01*
X148962952Y-67444881D01*
X147185143Y-77890643D02*
X147137524Y-77938262D01*
X146994667Y-77985881D01*
X146899429Y-77985881D01*
X146756571Y-77938262D01*
X146661333Y-77843024D01*
X146613714Y-77747786D01*
X146566095Y-77557310D01*
X146566095Y-77414452D01*
X146613714Y-77223976D01*
X146661333Y-77128738D01*
X146756571Y-77033500D01*
X146899429Y-76985881D01*
X146994667Y-76985881D01*
X147137524Y-77033500D01*
X147185143Y-77081119D01*
X148137524Y-77985881D02*
X147566095Y-77985881D01*
X147851809Y-77985881D02*
X147851809Y-76985881D01*
X147756571Y-77128738D01*
X147661333Y-77223976D01*
X147566095Y-77271595D01*
X148708952Y-77414452D02*
X148613714Y-77366833D01*
X148566095Y-77319214D01*
X148518476Y-77223976D01*
X148518476Y-77176357D01*
X148566095Y-77081119D01*
X148613714Y-77033500D01*
X148708952Y-76985881D01*
X148899429Y-76985881D01*
X148994667Y-77033500D01*
X149042286Y-77081119D01*
X149089905Y-77176357D01*
X149089905Y-77223976D01*
X149042286Y-77319214D01*
X148994667Y-77366833D01*
X148899429Y-77414452D01*
X148708952Y-77414452D01*
X148613714Y-77462071D01*
X148566095Y-77509690D01*
X148518476Y-77604929D01*
X148518476Y-77795405D01*
X148566095Y-77890643D01*
X148613714Y-77938262D01*
X148708952Y-77985881D01*
X148899429Y-77985881D01*
X148994667Y-77938262D01*
X149042286Y-77890643D01*
X149089905Y-77795405D01*
X149089905Y-77604929D01*
X149042286Y-77509690D01*
X148994667Y-77462071D01*
X148899429Y-77414452D01*
X147312143Y-89384143D02*
X147264524Y-89431762D01*
X147121667Y-89479381D01*
X147026429Y-89479381D01*
X146883571Y-89431762D01*
X146788333Y-89336524D01*
X146740714Y-89241286D01*
X146693095Y-89050810D01*
X146693095Y-88907952D01*
X146740714Y-88717476D01*
X146788333Y-88622238D01*
X146883571Y-88527000D01*
X147026429Y-88479381D01*
X147121667Y-88479381D01*
X147264524Y-88527000D01*
X147312143Y-88574619D01*
X148264524Y-89479381D02*
X147693095Y-89479381D01*
X147978809Y-89479381D02*
X147978809Y-88479381D01*
X147883571Y-88622238D01*
X147788333Y-88717476D01*
X147693095Y-88765095D01*
X148740714Y-89479381D02*
X148931190Y-89479381D01*
X149026429Y-89431762D01*
X149074048Y-89384143D01*
X149169286Y-89241286D01*
X149216905Y-89050810D01*
X149216905Y-88669857D01*
X149169286Y-88574619D01*
X149121667Y-88527000D01*
X149026429Y-88479381D01*
X148835952Y-88479381D01*
X148740714Y-88527000D01*
X148693095Y-88574619D01*
X148645476Y-88669857D01*
X148645476Y-88907952D01*
X148693095Y-89003190D01*
X148740714Y-89050810D01*
X148835952Y-89098429D01*
X149026429Y-89098429D01*
X149121667Y-89050810D01*
X149169286Y-89003190D01*
X149216905Y-88907952D01*
X147248643Y-100433143D02*
X147201024Y-100480762D01*
X147058167Y-100528381D01*
X146962929Y-100528381D01*
X146820071Y-100480762D01*
X146724833Y-100385524D01*
X146677214Y-100290286D01*
X146629595Y-100099810D01*
X146629595Y-99956952D01*
X146677214Y-99766476D01*
X146724833Y-99671238D01*
X146820071Y-99576000D01*
X146962929Y-99528381D01*
X147058167Y-99528381D01*
X147201024Y-99576000D01*
X147248643Y-99623619D01*
X147629595Y-99623619D02*
X147677214Y-99576000D01*
X147772452Y-99528381D01*
X148010548Y-99528381D01*
X148105786Y-99576000D01*
X148153405Y-99623619D01*
X148201024Y-99718857D01*
X148201024Y-99814095D01*
X148153405Y-99956952D01*
X147581976Y-100528381D01*
X148201024Y-100528381D01*
X148820071Y-99528381D02*
X148915310Y-99528381D01*
X149010548Y-99576000D01*
X149058167Y-99623619D01*
X149105786Y-99718857D01*
X149153405Y-99909333D01*
X149153405Y-100147429D01*
X149105786Y-100337905D01*
X149058167Y-100433143D01*
X149010548Y-100480762D01*
X148915310Y-100528381D01*
X148820071Y-100528381D01*
X148724833Y-100480762D01*
X148677214Y-100433143D01*
X148629595Y-100337905D01*
X148581976Y-100147429D01*
X148581976Y-99909333D01*
X148629595Y-99718857D01*
X148677214Y-99623619D01*
X148724833Y-99576000D01*
X148820071Y-99528381D01*
X146867643Y-111037643D02*
X146820024Y-111085262D01*
X146677167Y-111132881D01*
X146581929Y-111132881D01*
X146439071Y-111085262D01*
X146343833Y-110990024D01*
X146296214Y-110894786D01*
X146248595Y-110704310D01*
X146248595Y-110561452D01*
X146296214Y-110370976D01*
X146343833Y-110275738D01*
X146439071Y-110180500D01*
X146581929Y-110132881D01*
X146677167Y-110132881D01*
X146820024Y-110180500D01*
X146867643Y-110228119D01*
X147248595Y-110228119D02*
X147296214Y-110180500D01*
X147391452Y-110132881D01*
X147629548Y-110132881D01*
X147724786Y-110180500D01*
X147772405Y-110228119D01*
X147820024Y-110323357D01*
X147820024Y-110418595D01*
X147772405Y-110561452D01*
X147200976Y-111132881D01*
X147820024Y-111132881D01*
X148772405Y-111132881D02*
X148200976Y-111132881D01*
X148486690Y-111132881D02*
X148486690Y-110132881D01*
X148391452Y-110275738D01*
X148296214Y-110370976D01*
X148200976Y-110418595D01*
X146931143Y-123043643D02*
X146883524Y-123091262D01*
X146740667Y-123138881D01*
X146645429Y-123138881D01*
X146502571Y-123091262D01*
X146407333Y-122996024D01*
X146359714Y-122900786D01*
X146312095Y-122710310D01*
X146312095Y-122567452D01*
X146359714Y-122376976D01*
X146407333Y-122281738D01*
X146502571Y-122186500D01*
X146645429Y-122138881D01*
X146740667Y-122138881D01*
X146883524Y-122186500D01*
X146931143Y-122234119D01*
X147312095Y-122234119D02*
X147359714Y-122186500D01*
X147454952Y-122138881D01*
X147693048Y-122138881D01*
X147788286Y-122186500D01*
X147835905Y-122234119D01*
X147883524Y-122329357D01*
X147883524Y-122424595D01*
X147835905Y-122567452D01*
X147264476Y-123138881D01*
X147883524Y-123138881D01*
X148264476Y-122234119D02*
X148312095Y-122186500D01*
X148407333Y-122138881D01*
X148645429Y-122138881D01*
X148740667Y-122186500D01*
X148788286Y-122234119D01*
X148835905Y-122329357D01*
X148835905Y-122424595D01*
X148788286Y-122567452D01*
X148216857Y-123138881D01*
X148835905Y-123138881D01*
X154995643Y-51533643D02*
X154948024Y-51581262D01*
X154805167Y-51628881D01*
X154709929Y-51628881D01*
X154567071Y-51581262D01*
X154471833Y-51486024D01*
X154424214Y-51390786D01*
X154376595Y-51200310D01*
X154376595Y-51057452D01*
X154424214Y-50866976D01*
X154471833Y-50771738D01*
X154567071Y-50676500D01*
X154709929Y-50628881D01*
X154805167Y-50628881D01*
X154948024Y-50676500D01*
X154995643Y-50724119D01*
X155376595Y-50724119D02*
X155424214Y-50676500D01*
X155519452Y-50628881D01*
X155757548Y-50628881D01*
X155852786Y-50676500D01*
X155900405Y-50724119D01*
X155948024Y-50819357D01*
X155948024Y-50914595D01*
X155900405Y-51057452D01*
X155328976Y-51628881D01*
X155948024Y-51628881D01*
X156281357Y-50628881D02*
X156900405Y-50628881D01*
X156567071Y-51009833D01*
X156709929Y-51009833D01*
X156805167Y-51057452D01*
X156852786Y-51105071D01*
X156900405Y-51200310D01*
X156900405Y-51438405D01*
X156852786Y-51533643D01*
X156805167Y-51581262D01*
X156709929Y-51628881D01*
X156424214Y-51628881D01*
X156328976Y-51581262D01*
X156281357Y-51533643D01*
X146677143Y-63222143D02*
X146629524Y-63269762D01*
X146486667Y-63317381D01*
X146391429Y-63317381D01*
X146248571Y-63269762D01*
X146153333Y-63174524D01*
X146105714Y-63079286D01*
X146058095Y-62888810D01*
X146058095Y-62745952D01*
X146105714Y-62555476D01*
X146153333Y-62460238D01*
X146248571Y-62365000D01*
X146391429Y-62317381D01*
X146486667Y-62317381D01*
X146629524Y-62365000D01*
X146677143Y-62412619D01*
X147058095Y-62412619D02*
X147105714Y-62365000D01*
X147200952Y-62317381D01*
X147439048Y-62317381D01*
X147534286Y-62365000D01*
X147581905Y-62412619D01*
X147629524Y-62507857D01*
X147629524Y-62603095D01*
X147581905Y-62745952D01*
X147010476Y-63317381D01*
X147629524Y-63317381D01*
X148486667Y-62650714D02*
X148486667Y-63317381D01*
X148248571Y-62269762D02*
X148010476Y-62984048D01*
X148629524Y-62984048D01*
X147121643Y-74017143D02*
X147074024Y-74064762D01*
X146931167Y-74112381D01*
X146835929Y-74112381D01*
X146693071Y-74064762D01*
X146597833Y-73969524D01*
X146550214Y-73874286D01*
X146502595Y-73683810D01*
X146502595Y-73540952D01*
X146550214Y-73350476D01*
X146597833Y-73255238D01*
X146693071Y-73160000D01*
X146835929Y-73112381D01*
X146931167Y-73112381D01*
X147074024Y-73160000D01*
X147121643Y-73207619D01*
X147502595Y-73207619D02*
X147550214Y-73160000D01*
X147645452Y-73112381D01*
X147883548Y-73112381D01*
X147978786Y-73160000D01*
X148026405Y-73207619D01*
X148074024Y-73302857D01*
X148074024Y-73398095D01*
X148026405Y-73540952D01*
X147454976Y-74112381D01*
X148074024Y-74112381D01*
X148978786Y-73112381D02*
X148502595Y-73112381D01*
X148454976Y-73588571D01*
X148502595Y-73540952D01*
X148597833Y-73493333D01*
X148835929Y-73493333D01*
X148931167Y-73540952D01*
X148978786Y-73588571D01*
X149026405Y-73683810D01*
X149026405Y-73921905D01*
X148978786Y-74017143D01*
X148931167Y-74064762D01*
X148835929Y-74112381D01*
X148597833Y-74112381D01*
X148502595Y-74064762D01*
X148454976Y-74017143D01*
X147058143Y-84939143D02*
X147010524Y-84986762D01*
X146867667Y-85034381D01*
X146772429Y-85034381D01*
X146629571Y-84986762D01*
X146534333Y-84891524D01*
X146486714Y-84796286D01*
X146439095Y-84605810D01*
X146439095Y-84462952D01*
X146486714Y-84272476D01*
X146534333Y-84177238D01*
X146629571Y-84082000D01*
X146772429Y-84034381D01*
X146867667Y-84034381D01*
X147010524Y-84082000D01*
X147058143Y-84129619D01*
X147439095Y-84129619D02*
X147486714Y-84082000D01*
X147581952Y-84034381D01*
X147820048Y-84034381D01*
X147915286Y-84082000D01*
X147962905Y-84129619D01*
X148010524Y-84224857D01*
X148010524Y-84320095D01*
X147962905Y-84462952D01*
X147391476Y-85034381D01*
X148010524Y-85034381D01*
X148867667Y-84034381D02*
X148677190Y-84034381D01*
X148581952Y-84082000D01*
X148534333Y-84129619D01*
X148439095Y-84272476D01*
X148391476Y-84462952D01*
X148391476Y-84843905D01*
X148439095Y-84939143D01*
X148486714Y-84986762D01*
X148581952Y-85034381D01*
X148772429Y-85034381D01*
X148867667Y-84986762D01*
X148915286Y-84939143D01*
X148962905Y-84843905D01*
X148962905Y-84605810D01*
X148915286Y-84510571D01*
X148867667Y-84462952D01*
X148772429Y-84415333D01*
X148581952Y-84415333D01*
X148486714Y-84462952D01*
X148439095Y-84510571D01*
X148391476Y-84605810D01*
X146550143Y-96242143D02*
X146502524Y-96289762D01*
X146359667Y-96337381D01*
X146264429Y-96337381D01*
X146121571Y-96289762D01*
X146026333Y-96194524D01*
X145978714Y-96099286D01*
X145931095Y-95908810D01*
X145931095Y-95765952D01*
X145978714Y-95575476D01*
X146026333Y-95480238D01*
X146121571Y-95385000D01*
X146264429Y-95337381D01*
X146359667Y-95337381D01*
X146502524Y-95385000D01*
X146550143Y-95432619D01*
X146931095Y-95432619D02*
X146978714Y-95385000D01*
X147073952Y-95337381D01*
X147312048Y-95337381D01*
X147407286Y-95385000D01*
X147454905Y-95432619D01*
X147502524Y-95527857D01*
X147502524Y-95623095D01*
X147454905Y-95765952D01*
X146883476Y-96337381D01*
X147502524Y-96337381D01*
X147835857Y-95337381D02*
X148502524Y-95337381D01*
X148073952Y-96337381D01*
X146550143Y-106846643D02*
X146502524Y-106894262D01*
X146359667Y-106941881D01*
X146264429Y-106941881D01*
X146121571Y-106894262D01*
X146026333Y-106799024D01*
X145978714Y-106703786D01*
X145931095Y-106513310D01*
X145931095Y-106370452D01*
X145978714Y-106179976D01*
X146026333Y-106084738D01*
X146121571Y-105989500D01*
X146264429Y-105941881D01*
X146359667Y-105941881D01*
X146502524Y-105989500D01*
X146550143Y-106037119D01*
X146931095Y-106037119D02*
X146978714Y-105989500D01*
X147073952Y-105941881D01*
X147312048Y-105941881D01*
X147407286Y-105989500D01*
X147454905Y-106037119D01*
X147502524Y-106132357D01*
X147502524Y-106227595D01*
X147454905Y-106370452D01*
X146883476Y-106941881D01*
X147502524Y-106941881D01*
X148073952Y-106370452D02*
X147978714Y-106322833D01*
X147931095Y-106275214D01*
X147883476Y-106179976D01*
X147883476Y-106132357D01*
X147931095Y-106037119D01*
X147978714Y-105989500D01*
X148073952Y-105941881D01*
X148264429Y-105941881D01*
X148359667Y-105989500D01*
X148407286Y-106037119D01*
X148454905Y-106132357D01*
X148454905Y-106179976D01*
X148407286Y-106275214D01*
X148359667Y-106322833D01*
X148264429Y-106370452D01*
X148073952Y-106370452D01*
X147978714Y-106418071D01*
X147931095Y-106465690D01*
X147883476Y-106560929D01*
X147883476Y-106751405D01*
X147931095Y-106846643D01*
X147978714Y-106894262D01*
X148073952Y-106941881D01*
X148264429Y-106941881D01*
X148359667Y-106894262D01*
X148407286Y-106846643D01*
X148454905Y-106751405D01*
X148454905Y-106560929D01*
X148407286Y-106465690D01*
X148359667Y-106418071D01*
X148264429Y-106370452D01*
X146359643Y-117895643D02*
X146312024Y-117943262D01*
X146169167Y-117990881D01*
X146073929Y-117990881D01*
X145931071Y-117943262D01*
X145835833Y-117848024D01*
X145788214Y-117752786D01*
X145740595Y-117562310D01*
X145740595Y-117419452D01*
X145788214Y-117228976D01*
X145835833Y-117133738D01*
X145931071Y-117038500D01*
X146073929Y-116990881D01*
X146169167Y-116990881D01*
X146312024Y-117038500D01*
X146359643Y-117086119D01*
X146740595Y-117086119D02*
X146788214Y-117038500D01*
X146883452Y-116990881D01*
X147121548Y-116990881D01*
X147216786Y-117038500D01*
X147264405Y-117086119D01*
X147312024Y-117181357D01*
X147312024Y-117276595D01*
X147264405Y-117419452D01*
X146692976Y-117990881D01*
X147312024Y-117990881D01*
X147788214Y-117990881D02*
X147978690Y-117990881D01*
X148073929Y-117943262D01*
X148121548Y-117895643D01*
X148216786Y-117752786D01*
X148264405Y-117562310D01*
X148264405Y-117181357D01*
X148216786Y-117086119D01*
X148169167Y-117038500D01*
X148073929Y-116990881D01*
X147883452Y-116990881D01*
X147788214Y-117038500D01*
X147740595Y-117086119D01*
X147692976Y-117181357D01*
X147692976Y-117419452D01*
X147740595Y-117514690D01*
X147788214Y-117562310D01*
X147883452Y-117609929D01*
X148073929Y-117609929D01*
X148169167Y-117562310D01*
X148216786Y-117514690D01*
X148264405Y-117419452D01*
X153535143Y-63095143D02*
X153487524Y-63142762D01*
X153344667Y-63190381D01*
X153249429Y-63190381D01*
X153106571Y-63142762D01*
X153011333Y-63047524D01*
X152963714Y-62952286D01*
X152916095Y-62761810D01*
X152916095Y-62618952D01*
X152963714Y-62428476D01*
X153011333Y-62333238D01*
X153106571Y-62238000D01*
X153249429Y-62190381D01*
X153344667Y-62190381D01*
X153487524Y-62238000D01*
X153535143Y-62285619D01*
X153868476Y-62190381D02*
X154487524Y-62190381D01*
X154154190Y-62571333D01*
X154297048Y-62571333D01*
X154392286Y-62618952D01*
X154439905Y-62666571D01*
X154487524Y-62761810D01*
X154487524Y-62999905D01*
X154439905Y-63095143D01*
X154392286Y-63142762D01*
X154297048Y-63190381D01*
X154011333Y-63190381D01*
X153916095Y-63142762D01*
X153868476Y-63095143D01*
X155106571Y-62190381D02*
X155201810Y-62190381D01*
X155297048Y-62238000D01*
X155344667Y-62285619D01*
X155392286Y-62380857D01*
X155439905Y-62571333D01*
X155439905Y-62809429D01*
X155392286Y-62999905D01*
X155344667Y-63095143D01*
X155297048Y-63142762D01*
X155201810Y-63190381D01*
X155106571Y-63190381D01*
X155011333Y-63142762D01*
X154963714Y-63095143D01*
X154916095Y-62999905D01*
X154868476Y-62809429D01*
X154868476Y-62571333D01*
X154916095Y-62380857D01*
X154963714Y-62285619D01*
X155011333Y-62238000D01*
X155106571Y-62190381D01*
X153471643Y-73450143D02*
X153424024Y-73497762D01*
X153281167Y-73545381D01*
X153185929Y-73545381D01*
X153043071Y-73497762D01*
X152947833Y-73402524D01*
X152900214Y-73307286D01*
X152852595Y-73116810D01*
X152852595Y-72973952D01*
X152900214Y-72783476D01*
X152947833Y-72688238D01*
X153043071Y-72593000D01*
X153185929Y-72545381D01*
X153281167Y-72545381D01*
X153424024Y-72593000D01*
X153471643Y-72640619D01*
X153804976Y-72545381D02*
X154424024Y-72545381D01*
X154090690Y-72926333D01*
X154233548Y-72926333D01*
X154328786Y-72973952D01*
X154376405Y-73021571D01*
X154424024Y-73116810D01*
X154424024Y-73354905D01*
X154376405Y-73450143D01*
X154328786Y-73497762D01*
X154233548Y-73545381D01*
X153947833Y-73545381D01*
X153852595Y-73497762D01*
X153804976Y-73450143D01*
X155376405Y-73545381D02*
X154804976Y-73545381D01*
X155090690Y-73545381D02*
X155090690Y-72545381D01*
X154995452Y-72688238D01*
X154900214Y-72783476D01*
X154804976Y-72831095D01*
X153281143Y-84308643D02*
X153233524Y-84356262D01*
X153090667Y-84403881D01*
X152995429Y-84403881D01*
X152852571Y-84356262D01*
X152757333Y-84261024D01*
X152709714Y-84165786D01*
X152662095Y-83975310D01*
X152662095Y-83832452D01*
X152709714Y-83641976D01*
X152757333Y-83546738D01*
X152852571Y-83451500D01*
X152995429Y-83403881D01*
X153090667Y-83403881D01*
X153233524Y-83451500D01*
X153281143Y-83499119D01*
X153614476Y-83403881D02*
X154233524Y-83403881D01*
X153900190Y-83784833D01*
X154043048Y-83784833D01*
X154138286Y-83832452D01*
X154185905Y-83880071D01*
X154233524Y-83975310D01*
X154233524Y-84213405D01*
X154185905Y-84308643D01*
X154138286Y-84356262D01*
X154043048Y-84403881D01*
X153757333Y-84403881D01*
X153662095Y-84356262D01*
X153614476Y-84308643D01*
X154614476Y-83499119D02*
X154662095Y-83451500D01*
X154757333Y-83403881D01*
X154995429Y-83403881D01*
X155090667Y-83451500D01*
X155138286Y-83499119D01*
X155185905Y-83594357D01*
X155185905Y-83689595D01*
X155138286Y-83832452D01*
X154566857Y-84403881D01*
X155185905Y-84403881D01*
X153090643Y-95548143D02*
X153043024Y-95595762D01*
X152900167Y-95643381D01*
X152804929Y-95643381D01*
X152662071Y-95595762D01*
X152566833Y-95500524D01*
X152519214Y-95405286D01*
X152471595Y-95214810D01*
X152471595Y-95071952D01*
X152519214Y-94881476D01*
X152566833Y-94786238D01*
X152662071Y-94691000D01*
X152804929Y-94643381D01*
X152900167Y-94643381D01*
X153043024Y-94691000D01*
X153090643Y-94738619D01*
X153423976Y-94643381D02*
X154043024Y-94643381D01*
X153709690Y-95024333D01*
X153852548Y-95024333D01*
X153947786Y-95071952D01*
X153995405Y-95119571D01*
X154043024Y-95214810D01*
X154043024Y-95452905D01*
X153995405Y-95548143D01*
X153947786Y-95595762D01*
X153852548Y-95643381D01*
X153566833Y-95643381D01*
X153471595Y-95595762D01*
X153423976Y-95548143D01*
X154376357Y-94643381D02*
X154995405Y-94643381D01*
X154662071Y-95024333D01*
X154804929Y-95024333D01*
X154900167Y-95071952D01*
X154947786Y-95119571D01*
X154995405Y-95214810D01*
X154995405Y-95452905D01*
X154947786Y-95548143D01*
X154900167Y-95595762D01*
X154804929Y-95643381D01*
X154519214Y-95643381D01*
X154423976Y-95595762D01*
X154376357Y-95548143D01*
X153027143Y-106470143D02*
X152979524Y-106517762D01*
X152836667Y-106565381D01*
X152741429Y-106565381D01*
X152598571Y-106517762D01*
X152503333Y-106422524D01*
X152455714Y-106327286D01*
X152408095Y-106136810D01*
X152408095Y-105993952D01*
X152455714Y-105803476D01*
X152503333Y-105708238D01*
X152598571Y-105613000D01*
X152741429Y-105565381D01*
X152836667Y-105565381D01*
X152979524Y-105613000D01*
X153027143Y-105660619D01*
X153360476Y-105565381D02*
X153979524Y-105565381D01*
X153646190Y-105946333D01*
X153789048Y-105946333D01*
X153884286Y-105993952D01*
X153931905Y-106041571D01*
X153979524Y-106136810D01*
X153979524Y-106374905D01*
X153931905Y-106470143D01*
X153884286Y-106517762D01*
X153789048Y-106565381D01*
X153503333Y-106565381D01*
X153408095Y-106517762D01*
X153360476Y-106470143D01*
X154836667Y-105898714D02*
X154836667Y-106565381D01*
X154598571Y-105517762D02*
X154360476Y-106232048D01*
X154979524Y-106232048D01*
X152836643Y-117392143D02*
X152789024Y-117439762D01*
X152646167Y-117487381D01*
X152550929Y-117487381D01*
X152408071Y-117439762D01*
X152312833Y-117344524D01*
X152265214Y-117249286D01*
X152217595Y-117058810D01*
X152217595Y-116915952D01*
X152265214Y-116725476D01*
X152312833Y-116630238D01*
X152408071Y-116535000D01*
X152550929Y-116487381D01*
X152646167Y-116487381D01*
X152789024Y-116535000D01*
X152836643Y-116582619D01*
X153169976Y-116487381D02*
X153789024Y-116487381D01*
X153455690Y-116868333D01*
X153598548Y-116868333D01*
X153693786Y-116915952D01*
X153741405Y-116963571D01*
X153789024Y-117058810D01*
X153789024Y-117296905D01*
X153741405Y-117392143D01*
X153693786Y-117439762D01*
X153598548Y-117487381D01*
X153312833Y-117487381D01*
X153217595Y-117439762D01*
X153169976Y-117392143D01*
X154693786Y-116487381D02*
X154217595Y-116487381D01*
X154169976Y-116963571D01*
X154217595Y-116915952D01*
X154312833Y-116868333D01*
X154550929Y-116868333D01*
X154646167Y-116915952D01*
X154693786Y-116963571D01*
X154741405Y-117058810D01*
X154741405Y-117296905D01*
X154693786Y-117392143D01*
X154646167Y-117439762D01*
X154550929Y-117487381D01*
X154312833Y-117487381D01*
X154217595Y-117439762D01*
X154169976Y-117392143D01*
X152900143Y-129012643D02*
X152852524Y-129060262D01*
X152709667Y-129107881D01*
X152614429Y-129107881D01*
X152471571Y-129060262D01*
X152376333Y-128965024D01*
X152328714Y-128869786D01*
X152281095Y-128679310D01*
X152281095Y-128536452D01*
X152328714Y-128345976D01*
X152376333Y-128250738D01*
X152471571Y-128155500D01*
X152614429Y-128107881D01*
X152709667Y-128107881D01*
X152852524Y-128155500D01*
X152900143Y-128203119D01*
X153233476Y-128107881D02*
X153852524Y-128107881D01*
X153519190Y-128488833D01*
X153662048Y-128488833D01*
X153757286Y-128536452D01*
X153804905Y-128584071D01*
X153852524Y-128679310D01*
X153852524Y-128917405D01*
X153804905Y-129012643D01*
X153757286Y-129060262D01*
X153662048Y-129107881D01*
X153376333Y-129107881D01*
X153281095Y-129060262D01*
X153233476Y-129012643D01*
X154709667Y-128107881D02*
X154519190Y-128107881D01*
X154423952Y-128155500D01*
X154376333Y-128203119D01*
X154281095Y-128345976D01*
X154233476Y-128536452D01*
X154233476Y-128917405D01*
X154281095Y-129012643D01*
X154328714Y-129060262D01*
X154423952Y-129107881D01*
X154614429Y-129107881D01*
X154709667Y-129060262D01*
X154757286Y-129012643D01*
X154804905Y-128917405D01*
X154804905Y-128679310D01*
X154757286Y-128584071D01*
X154709667Y-128536452D01*
X154614429Y-128488833D01*
X154423952Y-128488833D01*
X154328714Y-128536452D01*
X154281095Y-128584071D01*
X154233476Y-128679310D01*
X159377143Y-60559643D02*
X159329524Y-60607262D01*
X159186667Y-60654881D01*
X159091429Y-60654881D01*
X158948571Y-60607262D01*
X158853333Y-60512024D01*
X158805714Y-60416786D01*
X158758095Y-60226310D01*
X158758095Y-60083452D01*
X158805714Y-59892976D01*
X158853333Y-59797738D01*
X158948571Y-59702500D01*
X159091429Y-59654881D01*
X159186667Y-59654881D01*
X159329524Y-59702500D01*
X159377143Y-59750119D01*
X159710476Y-59654881D02*
X160329524Y-59654881D01*
X159996190Y-60035833D01*
X160139048Y-60035833D01*
X160234286Y-60083452D01*
X160281905Y-60131071D01*
X160329524Y-60226310D01*
X160329524Y-60464405D01*
X160281905Y-60559643D01*
X160234286Y-60607262D01*
X160139048Y-60654881D01*
X159853333Y-60654881D01*
X159758095Y-60607262D01*
X159710476Y-60559643D01*
X160662857Y-59654881D02*
X161329524Y-59654881D01*
X160900952Y-60654881D01*
X159567643Y-71926143D02*
X159520024Y-71973762D01*
X159377167Y-72021381D01*
X159281929Y-72021381D01*
X159139071Y-71973762D01*
X159043833Y-71878524D01*
X158996214Y-71783286D01*
X158948595Y-71592810D01*
X158948595Y-71449952D01*
X158996214Y-71259476D01*
X159043833Y-71164238D01*
X159139071Y-71069000D01*
X159281929Y-71021381D01*
X159377167Y-71021381D01*
X159520024Y-71069000D01*
X159567643Y-71116619D01*
X159900976Y-71021381D02*
X160520024Y-71021381D01*
X160186690Y-71402333D01*
X160329548Y-71402333D01*
X160424786Y-71449952D01*
X160472405Y-71497571D01*
X160520024Y-71592810D01*
X160520024Y-71830905D01*
X160472405Y-71926143D01*
X160424786Y-71973762D01*
X160329548Y-72021381D01*
X160043833Y-72021381D01*
X159948595Y-71973762D01*
X159900976Y-71926143D01*
X161091452Y-71449952D02*
X160996214Y-71402333D01*
X160948595Y-71354714D01*
X160900976Y-71259476D01*
X160900976Y-71211857D01*
X160948595Y-71116619D01*
X160996214Y-71069000D01*
X161091452Y-71021381D01*
X161281929Y-71021381D01*
X161377167Y-71069000D01*
X161424786Y-71116619D01*
X161472405Y-71211857D01*
X161472405Y-71259476D01*
X161424786Y-71354714D01*
X161377167Y-71402333D01*
X161281929Y-71449952D01*
X161091452Y-71449952D01*
X160996214Y-71497571D01*
X160948595Y-71545190D01*
X160900976Y-71640429D01*
X160900976Y-71830905D01*
X160948595Y-71926143D01*
X160996214Y-71973762D01*
X161091452Y-72021381D01*
X161281929Y-72021381D01*
X161377167Y-71973762D01*
X161424786Y-71926143D01*
X161472405Y-71830905D01*
X161472405Y-71640429D01*
X161424786Y-71545190D01*
X161377167Y-71497571D01*
X161281929Y-71449952D01*
X159377143Y-82911643D02*
X159329524Y-82959262D01*
X159186667Y-83006881D01*
X159091429Y-83006881D01*
X158948571Y-82959262D01*
X158853333Y-82864024D01*
X158805714Y-82768786D01*
X158758095Y-82578310D01*
X158758095Y-82435452D01*
X158805714Y-82244976D01*
X158853333Y-82149738D01*
X158948571Y-82054500D01*
X159091429Y-82006881D01*
X159186667Y-82006881D01*
X159329524Y-82054500D01*
X159377143Y-82102119D01*
X159710476Y-82006881D02*
X160329524Y-82006881D01*
X159996190Y-82387833D01*
X160139048Y-82387833D01*
X160234286Y-82435452D01*
X160281905Y-82483071D01*
X160329524Y-82578310D01*
X160329524Y-82816405D01*
X160281905Y-82911643D01*
X160234286Y-82959262D01*
X160139048Y-83006881D01*
X159853333Y-83006881D01*
X159758095Y-82959262D01*
X159710476Y-82911643D01*
X160805714Y-83006881D02*
X160996190Y-83006881D01*
X161091429Y-82959262D01*
X161139048Y-82911643D01*
X161234286Y-82768786D01*
X161281905Y-82578310D01*
X161281905Y-82197357D01*
X161234286Y-82102119D01*
X161186667Y-82054500D01*
X161091429Y-82006881D01*
X160900952Y-82006881D01*
X160805714Y-82054500D01*
X160758095Y-82102119D01*
X160710476Y-82197357D01*
X160710476Y-82435452D01*
X160758095Y-82530690D01*
X160805714Y-82578310D01*
X160900952Y-82625929D01*
X161091429Y-82625929D01*
X161186667Y-82578310D01*
X161234286Y-82530690D01*
X161281905Y-82435452D01*
X159567643Y-93452643D02*
X159520024Y-93500262D01*
X159377167Y-93547881D01*
X159281929Y-93547881D01*
X159139071Y-93500262D01*
X159043833Y-93405024D01*
X158996214Y-93309786D01*
X158948595Y-93119310D01*
X158948595Y-92976452D01*
X158996214Y-92785976D01*
X159043833Y-92690738D01*
X159139071Y-92595500D01*
X159281929Y-92547881D01*
X159377167Y-92547881D01*
X159520024Y-92595500D01*
X159567643Y-92643119D01*
X160424786Y-92881214D02*
X160424786Y-93547881D01*
X160186690Y-92500262D02*
X159948595Y-93214548D01*
X160567643Y-93214548D01*
X161139071Y-92547881D02*
X161234310Y-92547881D01*
X161329548Y-92595500D01*
X161377167Y-92643119D01*
X161424786Y-92738357D01*
X161472405Y-92928833D01*
X161472405Y-93166929D01*
X161424786Y-93357405D01*
X161377167Y-93452643D01*
X161329548Y-93500262D01*
X161234310Y-93547881D01*
X161139071Y-93547881D01*
X161043833Y-93500262D01*
X160996214Y-93452643D01*
X160948595Y-93357405D01*
X160900976Y-93166929D01*
X160900976Y-92928833D01*
X160948595Y-92738357D01*
X160996214Y-92643119D01*
X161043833Y-92595500D01*
X161139071Y-92547881D01*
X159123143Y-104311143D02*
X159075524Y-104358762D01*
X158932667Y-104406381D01*
X158837429Y-104406381D01*
X158694571Y-104358762D01*
X158599333Y-104263524D01*
X158551714Y-104168286D01*
X158504095Y-103977810D01*
X158504095Y-103834952D01*
X158551714Y-103644476D01*
X158599333Y-103549238D01*
X158694571Y-103454000D01*
X158837429Y-103406381D01*
X158932667Y-103406381D01*
X159075524Y-103454000D01*
X159123143Y-103501619D01*
X159980286Y-103739714D02*
X159980286Y-104406381D01*
X159742190Y-103358762D02*
X159504095Y-104073048D01*
X160123143Y-104073048D01*
X161027905Y-104406381D02*
X160456476Y-104406381D01*
X160742190Y-104406381D02*
X160742190Y-103406381D01*
X160646952Y-103549238D01*
X160551714Y-103644476D01*
X160456476Y-103692095D01*
X158932643Y-115550643D02*
X158885024Y-115598262D01*
X158742167Y-115645881D01*
X158646929Y-115645881D01*
X158504071Y-115598262D01*
X158408833Y-115503024D01*
X158361214Y-115407786D01*
X158313595Y-115217310D01*
X158313595Y-115074452D01*
X158361214Y-114883976D01*
X158408833Y-114788738D01*
X158504071Y-114693500D01*
X158646929Y-114645881D01*
X158742167Y-114645881D01*
X158885024Y-114693500D01*
X158932643Y-114741119D01*
X159789786Y-114979214D02*
X159789786Y-115645881D01*
X159551690Y-114598262D02*
X159313595Y-115312548D01*
X159932643Y-115312548D01*
X160265976Y-114741119D02*
X160313595Y-114693500D01*
X160408833Y-114645881D01*
X160646929Y-114645881D01*
X160742167Y-114693500D01*
X160789786Y-114741119D01*
X160837405Y-114836357D01*
X160837405Y-114931595D01*
X160789786Y-115074452D01*
X160218357Y-115645881D01*
X160837405Y-115645881D01*
X158551643Y-127742643D02*
X158504024Y-127790262D01*
X158361167Y-127837881D01*
X158265929Y-127837881D01*
X158123071Y-127790262D01*
X158027833Y-127695024D01*
X157980214Y-127599786D01*
X157932595Y-127409310D01*
X157932595Y-127266452D01*
X157980214Y-127075976D01*
X158027833Y-126980738D01*
X158123071Y-126885500D01*
X158265929Y-126837881D01*
X158361167Y-126837881D01*
X158504024Y-126885500D01*
X158551643Y-126933119D01*
X159408786Y-127171214D02*
X159408786Y-127837881D01*
X159170690Y-126790262D02*
X158932595Y-127504548D01*
X159551643Y-127504548D01*
X159837357Y-126837881D02*
X160456405Y-126837881D01*
X160123071Y-127218833D01*
X160265929Y-127218833D01*
X160361167Y-127266452D01*
X160408786Y-127314071D01*
X160456405Y-127409310D01*
X160456405Y-127647405D01*
X160408786Y-127742643D01*
X160361167Y-127790262D01*
X160265929Y-127837881D01*
X159980214Y-127837881D01*
X159884976Y-127790262D01*
X159837357Y-127742643D01*
X183872143Y-62745857D02*
X183919762Y-62793476D01*
X183967381Y-62936333D01*
X183967381Y-63031571D01*
X183919762Y-63174429D01*
X183824524Y-63269667D01*
X183729286Y-63317286D01*
X183538810Y-63364905D01*
X183395952Y-63364905D01*
X183205476Y-63317286D01*
X183110238Y-63269667D01*
X183015000Y-63174429D01*
X182967381Y-63031571D01*
X182967381Y-62936333D01*
X183015000Y-62793476D01*
X183062619Y-62745857D01*
X183300714Y-61888714D02*
X183967381Y-61888714D01*
X182919762Y-62126810D02*
X183634048Y-62364905D01*
X183634048Y-61745857D01*
X183300714Y-60936333D02*
X183967381Y-60936333D01*
X182919762Y-61174429D02*
X183634048Y-61412524D01*
X183634048Y-60793476D01*
X166933643Y-63412643D02*
X166886024Y-63460262D01*
X166743167Y-63507881D01*
X166647929Y-63507881D01*
X166505071Y-63460262D01*
X166409833Y-63365024D01*
X166362214Y-63269786D01*
X166314595Y-63079310D01*
X166314595Y-62936452D01*
X166362214Y-62745976D01*
X166409833Y-62650738D01*
X166505071Y-62555500D01*
X166647929Y-62507881D01*
X166743167Y-62507881D01*
X166886024Y-62555500D01*
X166933643Y-62603119D01*
X167790786Y-62841214D02*
X167790786Y-63507881D01*
X167552690Y-62460262D02*
X167314595Y-63174548D01*
X167933643Y-63174548D01*
X168790786Y-62507881D02*
X168314595Y-62507881D01*
X168266976Y-62984071D01*
X168314595Y-62936452D01*
X168409833Y-62888833D01*
X168647929Y-62888833D01*
X168743167Y-62936452D01*
X168790786Y-62984071D01*
X168838405Y-63079310D01*
X168838405Y-63317405D01*
X168790786Y-63412643D01*
X168743167Y-63460262D01*
X168647929Y-63507881D01*
X168409833Y-63507881D01*
X168314595Y-63460262D01*
X168266976Y-63412643D01*
X166171643Y-74207643D02*
X166124024Y-74255262D01*
X165981167Y-74302881D01*
X165885929Y-74302881D01*
X165743071Y-74255262D01*
X165647833Y-74160024D01*
X165600214Y-74064786D01*
X165552595Y-73874310D01*
X165552595Y-73731452D01*
X165600214Y-73540976D01*
X165647833Y-73445738D01*
X165743071Y-73350500D01*
X165885929Y-73302881D01*
X165981167Y-73302881D01*
X166124024Y-73350500D01*
X166171643Y-73398119D01*
X167028786Y-73636214D02*
X167028786Y-74302881D01*
X166790690Y-73255262D02*
X166552595Y-73969548D01*
X167171643Y-73969548D01*
X167981167Y-73302881D02*
X167790690Y-73302881D01*
X167695452Y-73350500D01*
X167647833Y-73398119D01*
X167552595Y-73540976D01*
X167504976Y-73731452D01*
X167504976Y-74112405D01*
X167552595Y-74207643D01*
X167600214Y-74255262D01*
X167695452Y-74302881D01*
X167885929Y-74302881D01*
X167981167Y-74255262D01*
X168028786Y-74207643D01*
X168076405Y-74112405D01*
X168076405Y-73874310D01*
X168028786Y-73779071D01*
X167981167Y-73731452D01*
X167885929Y-73683833D01*
X167695452Y-73683833D01*
X167600214Y-73731452D01*
X167552595Y-73779071D01*
X167504976Y-73874310D01*
X165981143Y-85510643D02*
X165933524Y-85558262D01*
X165790667Y-85605881D01*
X165695429Y-85605881D01*
X165552571Y-85558262D01*
X165457333Y-85463024D01*
X165409714Y-85367786D01*
X165362095Y-85177310D01*
X165362095Y-85034452D01*
X165409714Y-84843976D01*
X165457333Y-84748738D01*
X165552571Y-84653500D01*
X165695429Y-84605881D01*
X165790667Y-84605881D01*
X165933524Y-84653500D01*
X165981143Y-84701119D01*
X166838286Y-84939214D02*
X166838286Y-85605881D01*
X166600190Y-84558262D02*
X166362095Y-85272548D01*
X166981143Y-85272548D01*
X167266857Y-84605881D02*
X167933524Y-84605881D01*
X167504952Y-85605881D01*
X166298643Y-96940643D02*
X166251024Y-96988262D01*
X166108167Y-97035881D01*
X166012929Y-97035881D01*
X165870071Y-96988262D01*
X165774833Y-96893024D01*
X165727214Y-96797786D01*
X165679595Y-96607310D01*
X165679595Y-96464452D01*
X165727214Y-96273976D01*
X165774833Y-96178738D01*
X165870071Y-96083500D01*
X166012929Y-96035881D01*
X166108167Y-96035881D01*
X166251024Y-96083500D01*
X166298643Y-96131119D01*
X167155786Y-96369214D02*
X167155786Y-97035881D01*
X166917690Y-95988262D02*
X166679595Y-96702548D01*
X167298643Y-96702548D01*
X167822452Y-96464452D02*
X167727214Y-96416833D01*
X167679595Y-96369214D01*
X167631976Y-96273976D01*
X167631976Y-96226357D01*
X167679595Y-96131119D01*
X167727214Y-96083500D01*
X167822452Y-96035881D01*
X168012929Y-96035881D01*
X168108167Y-96083500D01*
X168155786Y-96131119D01*
X168203405Y-96226357D01*
X168203405Y-96273976D01*
X168155786Y-96369214D01*
X168108167Y-96416833D01*
X168012929Y-96464452D01*
X167822452Y-96464452D01*
X167727214Y-96512071D01*
X167679595Y-96559690D01*
X167631976Y-96654929D01*
X167631976Y-96845405D01*
X167679595Y-96940643D01*
X167727214Y-96988262D01*
X167822452Y-97035881D01*
X168012929Y-97035881D01*
X168108167Y-96988262D01*
X168155786Y-96940643D01*
X168203405Y-96845405D01*
X168203405Y-96654929D01*
X168155786Y-96559690D01*
X168108167Y-96512071D01*
X168012929Y-96464452D01*
X165981143Y-108116643D02*
X165933524Y-108164262D01*
X165790667Y-108211881D01*
X165695429Y-108211881D01*
X165552571Y-108164262D01*
X165457333Y-108069024D01*
X165409714Y-107973786D01*
X165362095Y-107783310D01*
X165362095Y-107640452D01*
X165409714Y-107449976D01*
X165457333Y-107354738D01*
X165552571Y-107259500D01*
X165695429Y-107211881D01*
X165790667Y-107211881D01*
X165933524Y-107259500D01*
X165981143Y-107307119D01*
X166838286Y-107545214D02*
X166838286Y-108211881D01*
X166600190Y-107164262D02*
X166362095Y-107878548D01*
X166981143Y-107878548D01*
X167409714Y-108211881D02*
X167600190Y-108211881D01*
X167695429Y-108164262D01*
X167743048Y-108116643D01*
X167838286Y-107973786D01*
X167885905Y-107783310D01*
X167885905Y-107402357D01*
X167838286Y-107307119D01*
X167790667Y-107259500D01*
X167695429Y-107211881D01*
X167504952Y-107211881D01*
X167409714Y-107259500D01*
X167362095Y-107307119D01*
X167314476Y-107402357D01*
X167314476Y-107640452D01*
X167362095Y-107735690D01*
X167409714Y-107783310D01*
X167504952Y-107830929D01*
X167695429Y-107830929D01*
X167790667Y-107783310D01*
X167838286Y-107735690D01*
X167885905Y-107640452D01*
X165790643Y-119737143D02*
X165743024Y-119784762D01*
X165600167Y-119832381D01*
X165504929Y-119832381D01*
X165362071Y-119784762D01*
X165266833Y-119689524D01*
X165219214Y-119594286D01*
X165171595Y-119403810D01*
X165171595Y-119260952D01*
X165219214Y-119070476D01*
X165266833Y-118975238D01*
X165362071Y-118880000D01*
X165504929Y-118832381D01*
X165600167Y-118832381D01*
X165743024Y-118880000D01*
X165790643Y-118927619D01*
X166695405Y-118832381D02*
X166219214Y-118832381D01*
X166171595Y-119308571D01*
X166219214Y-119260952D01*
X166314452Y-119213333D01*
X166552548Y-119213333D01*
X166647786Y-119260952D01*
X166695405Y-119308571D01*
X166743024Y-119403810D01*
X166743024Y-119641905D01*
X166695405Y-119737143D01*
X166647786Y-119784762D01*
X166552548Y-119832381D01*
X166314452Y-119832381D01*
X166219214Y-119784762D01*
X166171595Y-119737143D01*
X167362071Y-118832381D02*
X167457310Y-118832381D01*
X167552548Y-118880000D01*
X167600167Y-118927619D01*
X167647786Y-119022857D01*
X167695405Y-119213333D01*
X167695405Y-119451429D01*
X167647786Y-119641905D01*
X167600167Y-119737143D01*
X167552548Y-119784762D01*
X167457310Y-119832381D01*
X167362071Y-119832381D01*
X167266833Y-119784762D01*
X167219214Y-119737143D01*
X167171595Y-119641905D01*
X167123976Y-119451429D01*
X167123976Y-119213333D01*
X167171595Y-119022857D01*
X167219214Y-118927619D01*
X167266833Y-118880000D01*
X167362071Y-118832381D01*
X165727143Y-131421143D02*
X165679524Y-131468762D01*
X165536667Y-131516381D01*
X165441429Y-131516381D01*
X165298571Y-131468762D01*
X165203333Y-131373524D01*
X165155714Y-131278286D01*
X165108095Y-131087810D01*
X165108095Y-130944952D01*
X165155714Y-130754476D01*
X165203333Y-130659238D01*
X165298571Y-130564000D01*
X165441429Y-130516381D01*
X165536667Y-130516381D01*
X165679524Y-130564000D01*
X165727143Y-130611619D01*
X166631905Y-130516381D02*
X166155714Y-130516381D01*
X166108095Y-130992571D01*
X166155714Y-130944952D01*
X166250952Y-130897333D01*
X166489048Y-130897333D01*
X166584286Y-130944952D01*
X166631905Y-130992571D01*
X166679524Y-131087810D01*
X166679524Y-131325905D01*
X166631905Y-131421143D01*
X166584286Y-131468762D01*
X166489048Y-131516381D01*
X166250952Y-131516381D01*
X166155714Y-131468762D01*
X166108095Y-131421143D01*
X167631905Y-131516381D02*
X167060476Y-131516381D01*
X167346190Y-131516381D02*
X167346190Y-130516381D01*
X167250952Y-130659238D01*
X167155714Y-130754476D01*
X167060476Y-130802095D01*
X115816143Y-84680643D02*
X115768524Y-84728262D01*
X115625667Y-84775881D01*
X115530429Y-84775881D01*
X115387571Y-84728262D01*
X115292333Y-84633024D01*
X115244714Y-84537786D01*
X115197095Y-84347310D01*
X115197095Y-84204452D01*
X115244714Y-84013976D01*
X115292333Y-83918738D01*
X115387571Y-83823500D01*
X115530429Y-83775881D01*
X115625667Y-83775881D01*
X115768524Y-83823500D01*
X115816143Y-83871119D01*
X116720905Y-83775881D02*
X116244714Y-83775881D01*
X116197095Y-84252071D01*
X116244714Y-84204452D01*
X116339952Y-84156833D01*
X116578048Y-84156833D01*
X116673286Y-84204452D01*
X116720905Y-84252071D01*
X116768524Y-84347310D01*
X116768524Y-84585405D01*
X116720905Y-84680643D01*
X116673286Y-84728262D01*
X116578048Y-84775881D01*
X116339952Y-84775881D01*
X116244714Y-84728262D01*
X116197095Y-84680643D01*
X117149476Y-83871119D02*
X117197095Y-83823500D01*
X117292333Y-83775881D01*
X117530429Y-83775881D01*
X117625667Y-83823500D01*
X117673286Y-83871119D01*
X117720905Y-83966357D01*
X117720905Y-84061595D01*
X117673286Y-84204452D01*
X117101857Y-84775881D01*
X117720905Y-84775881D01*
X159742143Y-54871857D02*
X159789762Y-54919476D01*
X159837381Y-55062333D01*
X159837381Y-55157571D01*
X159789762Y-55300429D01*
X159694524Y-55395667D01*
X159599286Y-55443286D01*
X159408810Y-55490905D01*
X159265952Y-55490905D01*
X159075476Y-55443286D01*
X158980238Y-55395667D01*
X158885000Y-55300429D01*
X158837381Y-55157571D01*
X158837381Y-55062333D01*
X158885000Y-54919476D01*
X158932619Y-54871857D01*
X158837381Y-53967095D02*
X158837381Y-54443286D01*
X159313571Y-54490905D01*
X159265952Y-54443286D01*
X159218333Y-54348048D01*
X159218333Y-54109952D01*
X159265952Y-54014714D01*
X159313571Y-53967095D01*
X159408810Y-53919476D01*
X159646905Y-53919476D01*
X159742143Y-53967095D01*
X159789762Y-54014714D01*
X159837381Y-54109952D01*
X159837381Y-54348048D01*
X159789762Y-54443286D01*
X159742143Y-54490905D01*
X158837381Y-53586143D02*
X158837381Y-52967095D01*
X159218333Y-53300429D01*
X159218333Y-53157571D01*
X159265952Y-53062333D01*
X159313571Y-53014714D01*
X159408810Y-52967095D01*
X159646905Y-52967095D01*
X159742143Y-53014714D01*
X159789762Y-53062333D01*
X159837381Y-53157571D01*
X159837381Y-53443286D01*
X159789762Y-53538524D01*
X159742143Y-53586143D01*
X159932643Y-67000357D02*
X159980262Y-67047976D01*
X160027881Y-67190833D01*
X160027881Y-67286071D01*
X159980262Y-67428929D01*
X159885024Y-67524167D01*
X159789786Y-67571786D01*
X159599310Y-67619405D01*
X159456452Y-67619405D01*
X159265976Y-67571786D01*
X159170738Y-67524167D01*
X159075500Y-67428929D01*
X159027881Y-67286071D01*
X159027881Y-67190833D01*
X159075500Y-67047976D01*
X159123119Y-67000357D01*
X159027881Y-66095595D02*
X159027881Y-66571786D01*
X159504071Y-66619405D01*
X159456452Y-66571786D01*
X159408833Y-66476548D01*
X159408833Y-66238452D01*
X159456452Y-66143214D01*
X159504071Y-66095595D01*
X159599310Y-66047976D01*
X159837405Y-66047976D01*
X159932643Y-66095595D01*
X159980262Y-66143214D01*
X160027881Y-66238452D01*
X160027881Y-66476548D01*
X159980262Y-66571786D01*
X159932643Y-66619405D01*
X159361214Y-65190833D02*
X160027881Y-65190833D01*
X158980262Y-65428929D02*
X159694548Y-65667024D01*
X159694548Y-65047976D01*
X159869143Y-77985857D02*
X159916762Y-78033476D01*
X159964381Y-78176333D01*
X159964381Y-78271571D01*
X159916762Y-78414429D01*
X159821524Y-78509667D01*
X159726286Y-78557286D01*
X159535810Y-78604905D01*
X159392952Y-78604905D01*
X159202476Y-78557286D01*
X159107238Y-78509667D01*
X159012000Y-78414429D01*
X158964381Y-78271571D01*
X158964381Y-78176333D01*
X159012000Y-78033476D01*
X159059619Y-77985857D01*
X158964381Y-77081095D02*
X158964381Y-77557286D01*
X159440571Y-77604905D01*
X159392952Y-77557286D01*
X159345333Y-77462048D01*
X159345333Y-77223952D01*
X159392952Y-77128714D01*
X159440571Y-77081095D01*
X159535810Y-77033476D01*
X159773905Y-77033476D01*
X159869143Y-77081095D01*
X159916762Y-77128714D01*
X159964381Y-77223952D01*
X159964381Y-77462048D01*
X159916762Y-77557286D01*
X159869143Y-77604905D01*
X158964381Y-76128714D02*
X158964381Y-76604905D01*
X159440571Y-76652524D01*
X159392952Y-76604905D01*
X159345333Y-76509667D01*
X159345333Y-76271571D01*
X159392952Y-76176333D01*
X159440571Y-76128714D01*
X159535810Y-76081095D01*
X159773905Y-76081095D01*
X159869143Y-76128714D01*
X159916762Y-76176333D01*
X159964381Y-76271571D01*
X159964381Y-76509667D01*
X159916762Y-76604905D01*
X159869143Y-76652524D01*
X159742143Y-88145857D02*
X159789762Y-88193476D01*
X159837381Y-88336333D01*
X159837381Y-88431571D01*
X159789762Y-88574429D01*
X159694524Y-88669667D01*
X159599286Y-88717286D01*
X159408810Y-88764905D01*
X159265952Y-88764905D01*
X159075476Y-88717286D01*
X158980238Y-88669667D01*
X158885000Y-88574429D01*
X158837381Y-88431571D01*
X158837381Y-88336333D01*
X158885000Y-88193476D01*
X158932619Y-88145857D01*
X158837381Y-87241095D02*
X158837381Y-87717286D01*
X159313571Y-87764905D01*
X159265952Y-87717286D01*
X159218333Y-87622048D01*
X159218333Y-87383952D01*
X159265952Y-87288714D01*
X159313571Y-87241095D01*
X159408810Y-87193476D01*
X159646905Y-87193476D01*
X159742143Y-87241095D01*
X159789762Y-87288714D01*
X159837381Y-87383952D01*
X159837381Y-87622048D01*
X159789762Y-87717286D01*
X159742143Y-87764905D01*
X158837381Y-86336333D02*
X158837381Y-86526810D01*
X158885000Y-86622048D01*
X158932619Y-86669667D01*
X159075476Y-86764905D01*
X159265952Y-86812524D01*
X159646905Y-86812524D01*
X159742143Y-86764905D01*
X159789762Y-86717286D01*
X159837381Y-86622048D01*
X159837381Y-86431571D01*
X159789762Y-86336333D01*
X159742143Y-86288714D01*
X159646905Y-86241095D01*
X159408810Y-86241095D01*
X159313571Y-86288714D01*
X159265952Y-86336333D01*
X159218333Y-86431571D01*
X159218333Y-86622048D01*
X159265952Y-86717286D01*
X159313571Y-86764905D01*
X159408810Y-86812524D01*
X159424643Y-98940857D02*
X159472262Y-98988476D01*
X159519881Y-99131333D01*
X159519881Y-99226571D01*
X159472262Y-99369429D01*
X159377024Y-99464667D01*
X159281786Y-99512286D01*
X159091310Y-99559905D01*
X158948452Y-99559905D01*
X158757976Y-99512286D01*
X158662738Y-99464667D01*
X158567500Y-99369429D01*
X158519881Y-99226571D01*
X158519881Y-99131333D01*
X158567500Y-98988476D01*
X158615119Y-98940857D01*
X158519881Y-98036095D02*
X158519881Y-98512286D01*
X158996071Y-98559905D01*
X158948452Y-98512286D01*
X158900833Y-98417048D01*
X158900833Y-98178952D01*
X158948452Y-98083714D01*
X158996071Y-98036095D01*
X159091310Y-97988476D01*
X159329405Y-97988476D01*
X159424643Y-98036095D01*
X159472262Y-98083714D01*
X159519881Y-98178952D01*
X159519881Y-98417048D01*
X159472262Y-98512286D01*
X159424643Y-98559905D01*
X158519881Y-97655143D02*
X158519881Y-96988476D01*
X159519881Y-97417048D01*
X159107143Y-110434357D02*
X159154762Y-110481976D01*
X159202381Y-110624833D01*
X159202381Y-110720071D01*
X159154762Y-110862929D01*
X159059524Y-110958167D01*
X158964286Y-111005786D01*
X158773810Y-111053405D01*
X158630952Y-111053405D01*
X158440476Y-111005786D01*
X158345238Y-110958167D01*
X158250000Y-110862929D01*
X158202381Y-110720071D01*
X158202381Y-110624833D01*
X158250000Y-110481976D01*
X158297619Y-110434357D01*
X158202381Y-109529595D02*
X158202381Y-110005786D01*
X158678571Y-110053405D01*
X158630952Y-110005786D01*
X158583333Y-109910548D01*
X158583333Y-109672452D01*
X158630952Y-109577214D01*
X158678571Y-109529595D01*
X158773810Y-109481976D01*
X159011905Y-109481976D01*
X159107143Y-109529595D01*
X159154762Y-109577214D01*
X159202381Y-109672452D01*
X159202381Y-109910548D01*
X159154762Y-110005786D01*
X159107143Y-110053405D01*
X158630952Y-108910548D02*
X158583333Y-109005786D01*
X158535714Y-109053405D01*
X158440476Y-109101024D01*
X158392857Y-109101024D01*
X158297619Y-109053405D01*
X158250000Y-109005786D01*
X158202381Y-108910548D01*
X158202381Y-108720071D01*
X158250000Y-108624833D01*
X158297619Y-108577214D01*
X158392857Y-108529595D01*
X158440476Y-108529595D01*
X158535714Y-108577214D01*
X158583333Y-108624833D01*
X158630952Y-108720071D01*
X158630952Y-108910548D01*
X158678571Y-109005786D01*
X158726190Y-109053405D01*
X158821429Y-109101024D01*
X159011905Y-109101024D01*
X159107143Y-109053405D01*
X159154762Y-109005786D01*
X159202381Y-108910548D01*
X159202381Y-108720071D01*
X159154762Y-108624833D01*
X159107143Y-108577214D01*
X159011905Y-108529595D01*
X158821429Y-108529595D01*
X158726190Y-108577214D01*
X158678571Y-108624833D01*
X158630952Y-108720071D01*
X162540643Y-122435857D02*
X162588262Y-122483476D01*
X162635881Y-122626333D01*
X162635881Y-122721571D01*
X162588262Y-122864429D01*
X162493024Y-122959667D01*
X162397786Y-123007286D01*
X162207310Y-123054905D01*
X162064452Y-123054905D01*
X161873976Y-123007286D01*
X161778738Y-122959667D01*
X161683500Y-122864429D01*
X161635881Y-122721571D01*
X161635881Y-122626333D01*
X161683500Y-122483476D01*
X161731119Y-122435857D01*
X161635881Y-121531095D02*
X161635881Y-122007286D01*
X162112071Y-122054905D01*
X162064452Y-122007286D01*
X162016833Y-121912048D01*
X162016833Y-121673952D01*
X162064452Y-121578714D01*
X162112071Y-121531095D01*
X162207310Y-121483476D01*
X162445405Y-121483476D01*
X162540643Y-121531095D01*
X162588262Y-121578714D01*
X162635881Y-121673952D01*
X162635881Y-121912048D01*
X162588262Y-122007286D01*
X162540643Y-122054905D01*
X162635881Y-121007286D02*
X162635881Y-120816810D01*
X162588262Y-120721571D01*
X162540643Y-120673952D01*
X162397786Y-120578714D01*
X162207310Y-120531095D01*
X161826357Y-120531095D01*
X161731119Y-120578714D01*
X161683500Y-120626333D01*
X161635881Y-120721571D01*
X161635881Y-120912048D01*
X161683500Y-121007286D01*
X161731119Y-121054905D01*
X161826357Y-121102524D01*
X162064452Y-121102524D01*
X162159690Y-121054905D01*
X162207310Y-121007286D01*
X162254929Y-120912048D01*
X162254929Y-120721571D01*
X162207310Y-120626333D01*
X162159690Y-120578714D01*
X162064452Y-120531095D01*
X170045143Y-55919643D02*
X169997524Y-55967262D01*
X169854667Y-56014881D01*
X169759429Y-56014881D01*
X169616571Y-55967262D01*
X169521333Y-55872024D01*
X169473714Y-55776786D01*
X169426095Y-55586310D01*
X169426095Y-55443452D01*
X169473714Y-55252976D01*
X169521333Y-55157738D01*
X169616571Y-55062500D01*
X169759429Y-55014881D01*
X169854667Y-55014881D01*
X169997524Y-55062500D01*
X170045143Y-55110119D01*
X170902286Y-55014881D02*
X170711809Y-55014881D01*
X170616571Y-55062500D01*
X170568952Y-55110119D01*
X170473714Y-55252976D01*
X170426095Y-55443452D01*
X170426095Y-55824405D01*
X170473714Y-55919643D01*
X170521333Y-55967262D01*
X170616571Y-56014881D01*
X170807048Y-56014881D01*
X170902286Y-55967262D01*
X170949905Y-55919643D01*
X170997524Y-55824405D01*
X170997524Y-55586310D01*
X170949905Y-55491071D01*
X170902286Y-55443452D01*
X170807048Y-55395833D01*
X170616571Y-55395833D01*
X170521333Y-55443452D01*
X170473714Y-55491071D01*
X170426095Y-55586310D01*
X171616571Y-55014881D02*
X171711810Y-55014881D01*
X171807048Y-55062500D01*
X171854667Y-55110119D01*
X171902286Y-55205357D01*
X171949905Y-55395833D01*
X171949905Y-55633929D01*
X171902286Y-55824405D01*
X171854667Y-55919643D01*
X171807048Y-55967262D01*
X171711810Y-56014881D01*
X171616571Y-56014881D01*
X171521333Y-55967262D01*
X171473714Y-55919643D01*
X171426095Y-55824405D01*
X171378476Y-55633929D01*
X171378476Y-55395833D01*
X171426095Y-55205357D01*
X171473714Y-55110119D01*
X171521333Y-55062500D01*
X171616571Y-55014881D01*
X169410143Y-66651143D02*
X169362524Y-66698762D01*
X169219667Y-66746381D01*
X169124429Y-66746381D01*
X168981571Y-66698762D01*
X168886333Y-66603524D01*
X168838714Y-66508286D01*
X168791095Y-66317810D01*
X168791095Y-66174952D01*
X168838714Y-65984476D01*
X168886333Y-65889238D01*
X168981571Y-65794000D01*
X169124429Y-65746381D01*
X169219667Y-65746381D01*
X169362524Y-65794000D01*
X169410143Y-65841619D01*
X170267286Y-65746381D02*
X170076809Y-65746381D01*
X169981571Y-65794000D01*
X169933952Y-65841619D01*
X169838714Y-65984476D01*
X169791095Y-66174952D01*
X169791095Y-66555905D01*
X169838714Y-66651143D01*
X169886333Y-66698762D01*
X169981571Y-66746381D01*
X170172048Y-66746381D01*
X170267286Y-66698762D01*
X170314905Y-66651143D01*
X170362524Y-66555905D01*
X170362524Y-66317810D01*
X170314905Y-66222571D01*
X170267286Y-66174952D01*
X170172048Y-66127333D01*
X169981571Y-66127333D01*
X169886333Y-66174952D01*
X169838714Y-66222571D01*
X169791095Y-66317810D01*
X171314905Y-66746381D02*
X170743476Y-66746381D01*
X171029190Y-66746381D02*
X171029190Y-65746381D01*
X170933952Y-65889238D01*
X170838714Y-65984476D01*
X170743476Y-66032095D01*
X169410143Y-78970143D02*
X169362524Y-79017762D01*
X169219667Y-79065381D01*
X169124429Y-79065381D01*
X168981571Y-79017762D01*
X168886333Y-78922524D01*
X168838714Y-78827286D01*
X168791095Y-78636810D01*
X168791095Y-78493952D01*
X168838714Y-78303476D01*
X168886333Y-78208238D01*
X168981571Y-78113000D01*
X169124429Y-78065381D01*
X169219667Y-78065381D01*
X169362524Y-78113000D01*
X169410143Y-78160619D01*
X170267286Y-78065381D02*
X170076809Y-78065381D01*
X169981571Y-78113000D01*
X169933952Y-78160619D01*
X169838714Y-78303476D01*
X169791095Y-78493952D01*
X169791095Y-78874905D01*
X169838714Y-78970143D01*
X169886333Y-79017762D01*
X169981571Y-79065381D01*
X170172048Y-79065381D01*
X170267286Y-79017762D01*
X170314905Y-78970143D01*
X170362524Y-78874905D01*
X170362524Y-78636810D01*
X170314905Y-78541571D01*
X170267286Y-78493952D01*
X170172048Y-78446333D01*
X169981571Y-78446333D01*
X169886333Y-78493952D01*
X169838714Y-78541571D01*
X169791095Y-78636810D01*
X170743476Y-78160619D02*
X170791095Y-78113000D01*
X170886333Y-78065381D01*
X171124429Y-78065381D01*
X171219667Y-78113000D01*
X171267286Y-78160619D01*
X171314905Y-78255857D01*
X171314905Y-78351095D01*
X171267286Y-78493952D01*
X170695857Y-79065381D01*
X171314905Y-79065381D01*
X169600643Y-90404643D02*
X169553024Y-90452262D01*
X169410167Y-90499881D01*
X169314929Y-90499881D01*
X169172071Y-90452262D01*
X169076833Y-90357024D01*
X169029214Y-90261786D01*
X168981595Y-90071310D01*
X168981595Y-89928452D01*
X169029214Y-89737976D01*
X169076833Y-89642738D01*
X169172071Y-89547500D01*
X169314929Y-89499881D01*
X169410167Y-89499881D01*
X169553024Y-89547500D01*
X169600643Y-89595119D01*
X170457786Y-89499881D02*
X170267309Y-89499881D01*
X170172071Y-89547500D01*
X170124452Y-89595119D01*
X170029214Y-89737976D01*
X169981595Y-89928452D01*
X169981595Y-90309405D01*
X170029214Y-90404643D01*
X170076833Y-90452262D01*
X170172071Y-90499881D01*
X170362548Y-90499881D01*
X170457786Y-90452262D01*
X170505405Y-90404643D01*
X170553024Y-90309405D01*
X170553024Y-90071310D01*
X170505405Y-89976071D01*
X170457786Y-89928452D01*
X170362548Y-89880833D01*
X170172071Y-89880833D01*
X170076833Y-89928452D01*
X170029214Y-89976071D01*
X169981595Y-90071310D01*
X170886357Y-89499881D02*
X171505405Y-89499881D01*
X171172071Y-89880833D01*
X171314929Y-89880833D01*
X171410167Y-89928452D01*
X171457786Y-89976071D01*
X171505405Y-90071310D01*
X171505405Y-90309405D01*
X171457786Y-90404643D01*
X171410167Y-90452262D01*
X171314929Y-90499881D01*
X171029214Y-90499881D01*
X170933976Y-90452262D01*
X170886357Y-90404643D01*
X169219643Y-101771143D02*
X169172024Y-101818762D01*
X169029167Y-101866381D01*
X168933929Y-101866381D01*
X168791071Y-101818762D01*
X168695833Y-101723524D01*
X168648214Y-101628286D01*
X168600595Y-101437810D01*
X168600595Y-101294952D01*
X168648214Y-101104476D01*
X168695833Y-101009238D01*
X168791071Y-100914000D01*
X168933929Y-100866381D01*
X169029167Y-100866381D01*
X169172024Y-100914000D01*
X169219643Y-100961619D01*
X170076786Y-100866381D02*
X169886309Y-100866381D01*
X169791071Y-100914000D01*
X169743452Y-100961619D01*
X169648214Y-101104476D01*
X169600595Y-101294952D01*
X169600595Y-101675905D01*
X169648214Y-101771143D01*
X169695833Y-101818762D01*
X169791071Y-101866381D01*
X169981548Y-101866381D01*
X170076786Y-101818762D01*
X170124405Y-101771143D01*
X170172024Y-101675905D01*
X170172024Y-101437810D01*
X170124405Y-101342571D01*
X170076786Y-101294952D01*
X169981548Y-101247333D01*
X169791071Y-101247333D01*
X169695833Y-101294952D01*
X169648214Y-101342571D01*
X169600595Y-101437810D01*
X171029167Y-101199714D02*
X171029167Y-101866381D01*
X170791071Y-100818762D02*
X170552976Y-101533048D01*
X171172024Y-101533048D01*
X169156143Y-113201143D02*
X169108524Y-113248762D01*
X168965667Y-113296381D01*
X168870429Y-113296381D01*
X168727571Y-113248762D01*
X168632333Y-113153524D01*
X168584714Y-113058286D01*
X168537095Y-112867810D01*
X168537095Y-112724952D01*
X168584714Y-112534476D01*
X168632333Y-112439238D01*
X168727571Y-112344000D01*
X168870429Y-112296381D01*
X168965667Y-112296381D01*
X169108524Y-112344000D01*
X169156143Y-112391619D01*
X170013286Y-112296381D02*
X169822809Y-112296381D01*
X169727571Y-112344000D01*
X169679952Y-112391619D01*
X169584714Y-112534476D01*
X169537095Y-112724952D01*
X169537095Y-113105905D01*
X169584714Y-113201143D01*
X169632333Y-113248762D01*
X169727571Y-113296381D01*
X169918048Y-113296381D01*
X170013286Y-113248762D01*
X170060905Y-113201143D01*
X170108524Y-113105905D01*
X170108524Y-112867810D01*
X170060905Y-112772571D01*
X170013286Y-112724952D01*
X169918048Y-112677333D01*
X169727571Y-112677333D01*
X169632333Y-112724952D01*
X169584714Y-112772571D01*
X169537095Y-112867810D01*
X171013286Y-112296381D02*
X170537095Y-112296381D01*
X170489476Y-112772571D01*
X170537095Y-112724952D01*
X170632333Y-112677333D01*
X170870429Y-112677333D01*
X170965667Y-112724952D01*
X171013286Y-112772571D01*
X171060905Y-112867810D01*
X171060905Y-113105905D01*
X171013286Y-113201143D01*
X170965667Y-113248762D01*
X170870429Y-113296381D01*
X170632333Y-113296381D01*
X170537095Y-113248762D01*
X170489476Y-113201143D01*
X168965643Y-124821643D02*
X168918024Y-124869262D01*
X168775167Y-124916881D01*
X168679929Y-124916881D01*
X168537071Y-124869262D01*
X168441833Y-124774024D01*
X168394214Y-124678786D01*
X168346595Y-124488310D01*
X168346595Y-124345452D01*
X168394214Y-124154976D01*
X168441833Y-124059738D01*
X168537071Y-123964500D01*
X168679929Y-123916881D01*
X168775167Y-123916881D01*
X168918024Y-123964500D01*
X168965643Y-124012119D01*
X169822786Y-123916881D02*
X169632309Y-123916881D01*
X169537071Y-123964500D01*
X169489452Y-124012119D01*
X169394214Y-124154976D01*
X169346595Y-124345452D01*
X169346595Y-124726405D01*
X169394214Y-124821643D01*
X169441833Y-124869262D01*
X169537071Y-124916881D01*
X169727548Y-124916881D01*
X169822786Y-124869262D01*
X169870405Y-124821643D01*
X169918024Y-124726405D01*
X169918024Y-124488310D01*
X169870405Y-124393071D01*
X169822786Y-124345452D01*
X169727548Y-124297833D01*
X169537071Y-124297833D01*
X169441833Y-124345452D01*
X169394214Y-124393071D01*
X169346595Y-124488310D01*
X170775167Y-123916881D02*
X170584690Y-123916881D01*
X170489452Y-123964500D01*
X170441833Y-124012119D01*
X170346595Y-124154976D01*
X170298976Y-124345452D01*
X170298976Y-124726405D01*
X170346595Y-124821643D01*
X170394214Y-124869262D01*
X170489452Y-124916881D01*
X170679929Y-124916881D01*
X170775167Y-124869262D01*
X170822786Y-124821643D01*
X170870405Y-124726405D01*
X170870405Y-124488310D01*
X170822786Y-124393071D01*
X170775167Y-124345452D01*
X170679929Y-124297833D01*
X170489452Y-124297833D01*
X170394214Y-124345452D01*
X170346595Y-124393071D01*
X170298976Y-124488310D01*
X174224643Y-59697857D02*
X174272262Y-59745476D01*
X174319881Y-59888333D01*
X174319881Y-59983571D01*
X174272262Y-60126429D01*
X174177024Y-60221667D01*
X174081786Y-60269286D01*
X173891310Y-60316905D01*
X173748452Y-60316905D01*
X173557976Y-60269286D01*
X173462738Y-60221667D01*
X173367500Y-60126429D01*
X173319881Y-59983571D01*
X173319881Y-59888333D01*
X173367500Y-59745476D01*
X173415119Y-59697857D01*
X173319881Y-58840714D02*
X173319881Y-59031191D01*
X173367500Y-59126429D01*
X173415119Y-59174048D01*
X173557976Y-59269286D01*
X173748452Y-59316905D01*
X174129405Y-59316905D01*
X174224643Y-59269286D01*
X174272262Y-59221667D01*
X174319881Y-59126429D01*
X174319881Y-58935952D01*
X174272262Y-58840714D01*
X174224643Y-58793095D01*
X174129405Y-58745476D01*
X173891310Y-58745476D01*
X173796071Y-58793095D01*
X173748452Y-58840714D01*
X173700833Y-58935952D01*
X173700833Y-59126429D01*
X173748452Y-59221667D01*
X173796071Y-59269286D01*
X173891310Y-59316905D01*
X173319881Y-58412143D02*
X173319881Y-57745476D01*
X174319881Y-58174048D01*
X173462643Y-71381857D02*
X173510262Y-71429476D01*
X173557881Y-71572333D01*
X173557881Y-71667571D01*
X173510262Y-71810429D01*
X173415024Y-71905667D01*
X173319786Y-71953286D01*
X173129310Y-72000905D01*
X172986452Y-72000905D01*
X172795976Y-71953286D01*
X172700738Y-71905667D01*
X172605500Y-71810429D01*
X172557881Y-71667571D01*
X172557881Y-71572333D01*
X172605500Y-71429476D01*
X172653119Y-71381857D01*
X172557881Y-70524714D02*
X172557881Y-70715191D01*
X172605500Y-70810429D01*
X172653119Y-70858048D01*
X172795976Y-70953286D01*
X172986452Y-71000905D01*
X173367405Y-71000905D01*
X173462643Y-70953286D01*
X173510262Y-70905667D01*
X173557881Y-70810429D01*
X173557881Y-70619952D01*
X173510262Y-70524714D01*
X173462643Y-70477095D01*
X173367405Y-70429476D01*
X173129310Y-70429476D01*
X173034071Y-70477095D01*
X172986452Y-70524714D01*
X172938833Y-70619952D01*
X172938833Y-70810429D01*
X172986452Y-70905667D01*
X173034071Y-70953286D01*
X173129310Y-71000905D01*
X172986452Y-69858048D02*
X172938833Y-69953286D01*
X172891214Y-70000905D01*
X172795976Y-70048524D01*
X172748357Y-70048524D01*
X172653119Y-70000905D01*
X172605500Y-69953286D01*
X172557881Y-69858048D01*
X172557881Y-69667571D01*
X172605500Y-69572333D01*
X172653119Y-69524714D01*
X172748357Y-69477095D01*
X172795976Y-69477095D01*
X172891214Y-69524714D01*
X172938833Y-69572333D01*
X172986452Y-69667571D01*
X172986452Y-69858048D01*
X173034071Y-69953286D01*
X173081690Y-70000905D01*
X173176929Y-70048524D01*
X173367405Y-70048524D01*
X173462643Y-70000905D01*
X173510262Y-69953286D01*
X173557881Y-69858048D01*
X173557881Y-69667571D01*
X173510262Y-69572333D01*
X173462643Y-69524714D01*
X173367405Y-69477095D01*
X173176929Y-69477095D01*
X173081690Y-69524714D01*
X173034071Y-69572333D01*
X172986452Y-69667571D01*
X173526143Y-82303857D02*
X173573762Y-82351476D01*
X173621381Y-82494333D01*
X173621381Y-82589571D01*
X173573762Y-82732429D01*
X173478524Y-82827667D01*
X173383286Y-82875286D01*
X173192810Y-82922905D01*
X173049952Y-82922905D01*
X172859476Y-82875286D01*
X172764238Y-82827667D01*
X172669000Y-82732429D01*
X172621381Y-82589571D01*
X172621381Y-82494333D01*
X172669000Y-82351476D01*
X172716619Y-82303857D01*
X172621381Y-81446714D02*
X172621381Y-81637191D01*
X172669000Y-81732429D01*
X172716619Y-81780048D01*
X172859476Y-81875286D01*
X173049952Y-81922905D01*
X173430905Y-81922905D01*
X173526143Y-81875286D01*
X173573762Y-81827667D01*
X173621381Y-81732429D01*
X173621381Y-81541952D01*
X173573762Y-81446714D01*
X173526143Y-81399095D01*
X173430905Y-81351476D01*
X173192810Y-81351476D01*
X173097571Y-81399095D01*
X173049952Y-81446714D01*
X173002333Y-81541952D01*
X173002333Y-81732429D01*
X173049952Y-81827667D01*
X173097571Y-81875286D01*
X173192810Y-81922905D01*
X173621381Y-80875286D02*
X173621381Y-80684810D01*
X173573762Y-80589571D01*
X173526143Y-80541952D01*
X173383286Y-80446714D01*
X173192810Y-80399095D01*
X172811857Y-80399095D01*
X172716619Y-80446714D01*
X172669000Y-80494333D01*
X172621381Y-80589571D01*
X172621381Y-80780048D01*
X172669000Y-80875286D01*
X172716619Y-80922905D01*
X172811857Y-80970524D01*
X173049952Y-80970524D01*
X173145190Y-80922905D01*
X173192810Y-80875286D01*
X173240429Y-80780048D01*
X173240429Y-80589571D01*
X173192810Y-80494333D01*
X173145190Y-80446714D01*
X173049952Y-80399095D01*
X173526143Y-93416357D02*
X173573762Y-93463976D01*
X173621381Y-93606833D01*
X173621381Y-93702071D01*
X173573762Y-93844929D01*
X173478524Y-93940167D01*
X173383286Y-93987786D01*
X173192810Y-94035405D01*
X173049952Y-94035405D01*
X172859476Y-93987786D01*
X172764238Y-93940167D01*
X172669000Y-93844929D01*
X172621381Y-93702071D01*
X172621381Y-93606833D01*
X172669000Y-93463976D01*
X172716619Y-93416357D01*
X172621381Y-93083024D02*
X172621381Y-92416357D01*
X173621381Y-92844929D01*
X172621381Y-91844929D02*
X172621381Y-91749690D01*
X172669000Y-91654452D01*
X172716619Y-91606833D01*
X172811857Y-91559214D01*
X173002333Y-91511595D01*
X173240429Y-91511595D01*
X173430905Y-91559214D01*
X173526143Y-91606833D01*
X173573762Y-91654452D01*
X173621381Y-91749690D01*
X173621381Y-91844929D01*
X173573762Y-91940167D01*
X173526143Y-91987786D01*
X173430905Y-92035405D01*
X173240429Y-92083024D01*
X173002333Y-92083024D01*
X172811857Y-92035405D01*
X172716619Y-91987786D01*
X172669000Y-91940167D01*
X172621381Y-91844929D01*
X173399143Y-104592357D02*
X173446762Y-104639976D01*
X173494381Y-104782833D01*
X173494381Y-104878071D01*
X173446762Y-105020929D01*
X173351524Y-105116167D01*
X173256286Y-105163786D01*
X173065810Y-105211405D01*
X172922952Y-105211405D01*
X172732476Y-105163786D01*
X172637238Y-105116167D01*
X172542000Y-105020929D01*
X172494381Y-104878071D01*
X172494381Y-104782833D01*
X172542000Y-104639976D01*
X172589619Y-104592357D01*
X172494381Y-104259024D02*
X172494381Y-103592357D01*
X173494381Y-104020929D01*
X173494381Y-102687595D02*
X173494381Y-103259024D01*
X173494381Y-102973310D02*
X172494381Y-102973310D01*
X172637238Y-103068548D01*
X172732476Y-103163786D01*
X172780095Y-103259024D01*
X173399143Y-116149357D02*
X173446762Y-116196976D01*
X173494381Y-116339833D01*
X173494381Y-116435071D01*
X173446762Y-116577929D01*
X173351524Y-116673167D01*
X173256286Y-116720786D01*
X173065810Y-116768405D01*
X172922952Y-116768405D01*
X172732476Y-116720786D01*
X172637238Y-116673167D01*
X172542000Y-116577929D01*
X172494381Y-116435071D01*
X172494381Y-116339833D01*
X172542000Y-116196976D01*
X172589619Y-116149357D01*
X172494381Y-115816024D02*
X172494381Y-115149357D01*
X173494381Y-115577929D01*
X172589619Y-114816024D02*
X172542000Y-114768405D01*
X172494381Y-114673167D01*
X172494381Y-114435071D01*
X172542000Y-114339833D01*
X172589619Y-114292214D01*
X172684857Y-114244595D01*
X172780095Y-114244595D01*
X172922952Y-114292214D01*
X173494381Y-114863643D01*
X173494381Y-114244595D01*
X173018143Y-127706357D02*
X173065762Y-127753976D01*
X173113381Y-127896833D01*
X173113381Y-127992071D01*
X173065762Y-128134929D01*
X172970524Y-128230167D01*
X172875286Y-128277786D01*
X172684810Y-128325405D01*
X172541952Y-128325405D01*
X172351476Y-128277786D01*
X172256238Y-128230167D01*
X172161000Y-128134929D01*
X172113381Y-127992071D01*
X172113381Y-127896833D01*
X172161000Y-127753976D01*
X172208619Y-127706357D01*
X172113381Y-127373024D02*
X172113381Y-126706357D01*
X173113381Y-127134929D01*
X172113381Y-126420643D02*
X172113381Y-125801595D01*
X172494333Y-126134929D01*
X172494333Y-125992071D01*
X172541952Y-125896833D01*
X172589571Y-125849214D01*
X172684810Y-125801595D01*
X172922905Y-125801595D01*
X173018143Y-125849214D01*
X173065762Y-125896833D01*
X173113381Y-125992071D01*
X173113381Y-126277786D01*
X173065762Y-126373024D01*
X173018143Y-126420643D01*
X180819643Y-124721857D02*
X180867262Y-124769476D01*
X180914881Y-124912333D01*
X180914881Y-125007571D01*
X180867262Y-125150429D01*
X180772024Y-125245667D01*
X180676786Y-125293286D01*
X180486310Y-125340905D01*
X180343452Y-125340905D01*
X180152976Y-125293286D01*
X180057738Y-125245667D01*
X179962500Y-125150429D01*
X179914881Y-125007571D01*
X179914881Y-124912333D01*
X179962500Y-124769476D01*
X180010119Y-124721857D01*
X179914881Y-124388524D02*
X179914881Y-123721857D01*
X180914881Y-124150429D01*
X180248214Y-122912333D02*
X180914881Y-122912333D01*
X179867262Y-123150429D02*
X180581548Y-123388524D01*
X180581548Y-122769476D01*
X173728143Y-65571643D02*
X173680524Y-65619262D01*
X173537667Y-65666881D01*
X173442429Y-65666881D01*
X173299571Y-65619262D01*
X173204333Y-65524024D01*
X173156714Y-65428786D01*
X173109095Y-65238310D01*
X173109095Y-65095452D01*
X173156714Y-64904976D01*
X173204333Y-64809738D01*
X173299571Y-64714500D01*
X173442429Y-64666881D01*
X173537667Y-64666881D01*
X173680524Y-64714500D01*
X173728143Y-64762119D01*
X174061476Y-64666881D02*
X174728143Y-64666881D01*
X174299571Y-65666881D01*
X175585286Y-64666881D02*
X175109095Y-64666881D01*
X175061476Y-65143071D01*
X175109095Y-65095452D01*
X175204333Y-65047833D01*
X175442429Y-65047833D01*
X175537667Y-65095452D01*
X175585286Y-65143071D01*
X175632905Y-65238310D01*
X175632905Y-65476405D01*
X175585286Y-65571643D01*
X175537667Y-65619262D01*
X175442429Y-65666881D01*
X175204333Y-65666881D01*
X175109095Y-65619262D01*
X175061476Y-65571643D01*
X172204143Y-75922143D02*
X172156524Y-75969762D01*
X172013667Y-76017381D01*
X171918429Y-76017381D01*
X171775571Y-75969762D01*
X171680333Y-75874524D01*
X171632714Y-75779286D01*
X171585095Y-75588810D01*
X171585095Y-75445952D01*
X171632714Y-75255476D01*
X171680333Y-75160238D01*
X171775571Y-75065000D01*
X171918429Y-75017381D01*
X172013667Y-75017381D01*
X172156524Y-75065000D01*
X172204143Y-75112619D01*
X172537476Y-75017381D02*
X173204143Y-75017381D01*
X172775571Y-76017381D01*
X174013667Y-75017381D02*
X173823190Y-75017381D01*
X173727952Y-75065000D01*
X173680333Y-75112619D01*
X173585095Y-75255476D01*
X173537476Y-75445952D01*
X173537476Y-75826905D01*
X173585095Y-75922143D01*
X173632714Y-75969762D01*
X173727952Y-76017381D01*
X173918429Y-76017381D01*
X174013667Y-75969762D01*
X174061286Y-75922143D01*
X174108905Y-75826905D01*
X174108905Y-75588810D01*
X174061286Y-75493571D01*
X174013667Y-75445952D01*
X173918429Y-75398333D01*
X173727952Y-75398333D01*
X173632714Y-75445952D01*
X173585095Y-75493571D01*
X173537476Y-75588810D01*
X172585143Y-87098143D02*
X172537524Y-87145762D01*
X172394667Y-87193381D01*
X172299429Y-87193381D01*
X172156571Y-87145762D01*
X172061333Y-87050524D01*
X172013714Y-86955286D01*
X171966095Y-86764810D01*
X171966095Y-86621952D01*
X172013714Y-86431476D01*
X172061333Y-86336238D01*
X172156571Y-86241000D01*
X172299429Y-86193381D01*
X172394667Y-86193381D01*
X172537524Y-86241000D01*
X172585143Y-86288619D01*
X172918476Y-86193381D02*
X173585143Y-86193381D01*
X173156571Y-87193381D01*
X173870857Y-86193381D02*
X174537524Y-86193381D01*
X174108952Y-87193381D01*
X172458143Y-110021643D02*
X172410524Y-110069262D01*
X172267667Y-110116881D01*
X172172429Y-110116881D01*
X172029571Y-110069262D01*
X171934333Y-109974024D01*
X171886714Y-109878786D01*
X171839095Y-109688310D01*
X171839095Y-109545452D01*
X171886714Y-109354976D01*
X171934333Y-109259738D01*
X172029571Y-109164500D01*
X172172429Y-109116881D01*
X172267667Y-109116881D01*
X172410524Y-109164500D01*
X172458143Y-109212119D01*
X172791476Y-109116881D02*
X173458143Y-109116881D01*
X173029571Y-110116881D01*
X173981952Y-109545452D02*
X173886714Y-109497833D01*
X173839095Y-109450214D01*
X173791476Y-109354976D01*
X173791476Y-109307357D01*
X173839095Y-109212119D01*
X173886714Y-109164500D01*
X173981952Y-109116881D01*
X174172429Y-109116881D01*
X174267667Y-109164500D01*
X174315286Y-109212119D01*
X174362905Y-109307357D01*
X174362905Y-109354976D01*
X174315286Y-109450214D01*
X174267667Y-109497833D01*
X174172429Y-109545452D01*
X173981952Y-109545452D01*
X173886714Y-109593071D01*
X173839095Y-109640690D01*
X173791476Y-109735929D01*
X173791476Y-109926405D01*
X173839095Y-110021643D01*
X173886714Y-110069262D01*
X173981952Y-110116881D01*
X174172429Y-110116881D01*
X174267667Y-110069262D01*
X174315286Y-110021643D01*
X174362905Y-109926405D01*
X174362905Y-109735929D01*
X174315286Y-109640690D01*
X174267667Y-109593071D01*
X174172429Y-109545452D01*
X172394643Y-121261143D02*
X172347024Y-121308762D01*
X172204167Y-121356381D01*
X172108929Y-121356381D01*
X171966071Y-121308762D01*
X171870833Y-121213524D01*
X171823214Y-121118286D01*
X171775595Y-120927810D01*
X171775595Y-120784952D01*
X171823214Y-120594476D01*
X171870833Y-120499238D01*
X171966071Y-120404000D01*
X172108929Y-120356381D01*
X172204167Y-120356381D01*
X172347024Y-120404000D01*
X172394643Y-120451619D01*
X172727976Y-120356381D02*
X173394643Y-120356381D01*
X172966071Y-121356381D01*
X173823214Y-121356381D02*
X174013690Y-121356381D01*
X174108929Y-121308762D01*
X174156548Y-121261143D01*
X174251786Y-121118286D01*
X174299405Y-120927810D01*
X174299405Y-120546857D01*
X174251786Y-120451619D01*
X174204167Y-120404000D01*
X174108929Y-120356381D01*
X173918452Y-120356381D01*
X173823214Y-120404000D01*
X173775595Y-120451619D01*
X173727976Y-120546857D01*
X173727976Y-120784952D01*
X173775595Y-120880190D01*
X173823214Y-120927810D01*
X173918452Y-120975429D01*
X174108929Y-120975429D01*
X174204167Y-120927810D01*
X174251786Y-120880190D01*
X174299405Y-120784952D01*
X111418643Y-121673857D02*
X111466262Y-121721476D01*
X111513881Y-121864333D01*
X111513881Y-121959571D01*
X111466262Y-122102429D01*
X111371024Y-122197667D01*
X111275786Y-122245286D01*
X111085310Y-122292905D01*
X110942452Y-122292905D01*
X110751976Y-122245286D01*
X110656738Y-122197667D01*
X110561500Y-122102429D01*
X110513881Y-121959571D01*
X110513881Y-121864333D01*
X110561500Y-121721476D01*
X110609119Y-121673857D01*
X110942452Y-121102429D02*
X110894833Y-121197667D01*
X110847214Y-121245286D01*
X110751976Y-121292905D01*
X110704357Y-121292905D01*
X110609119Y-121245286D01*
X110561500Y-121197667D01*
X110513881Y-121102429D01*
X110513881Y-120911952D01*
X110561500Y-120816714D01*
X110609119Y-120769095D01*
X110704357Y-120721476D01*
X110751976Y-120721476D01*
X110847214Y-120769095D01*
X110894833Y-120816714D01*
X110942452Y-120911952D01*
X110942452Y-121102429D01*
X110990071Y-121197667D01*
X111037690Y-121245286D01*
X111132929Y-121292905D01*
X111323405Y-121292905D01*
X111418643Y-121245286D01*
X111466262Y-121197667D01*
X111513881Y-121102429D01*
X111513881Y-120911952D01*
X111466262Y-120816714D01*
X111418643Y-120769095D01*
X111323405Y-120721476D01*
X111132929Y-120721476D01*
X111037690Y-120769095D01*
X110990071Y-120816714D01*
X110942452Y-120911952D01*
X110513881Y-120102429D02*
X110513881Y-120007190D01*
X110561500Y-119911952D01*
X110609119Y-119864333D01*
X110704357Y-119816714D01*
X110894833Y-119769095D01*
X111132929Y-119769095D01*
X111323405Y-119816714D01*
X111418643Y-119864333D01*
X111466262Y-119911952D01*
X111513881Y-120007190D01*
X111513881Y-120102429D01*
X111466262Y-120197667D01*
X111418643Y-120245286D01*
X111323405Y-120292905D01*
X111132929Y-120340524D01*
X110894833Y-120340524D01*
X110704357Y-120292905D01*
X110609119Y-120245286D01*
X110561500Y-120197667D01*
X110513881Y-120102429D01*
X129448143Y-126436357D02*
X129495762Y-126483976D01*
X129543381Y-126626833D01*
X129543381Y-126722071D01*
X129495762Y-126864929D01*
X129400524Y-126960167D01*
X129305286Y-127007786D01*
X129114810Y-127055405D01*
X128971952Y-127055405D01*
X128781476Y-127007786D01*
X128686238Y-126960167D01*
X128591000Y-126864929D01*
X128543381Y-126722071D01*
X128543381Y-126626833D01*
X128591000Y-126483976D01*
X128638619Y-126436357D01*
X128971952Y-125864929D02*
X128924333Y-125960167D01*
X128876714Y-126007786D01*
X128781476Y-126055405D01*
X128733857Y-126055405D01*
X128638619Y-126007786D01*
X128591000Y-125960167D01*
X128543381Y-125864929D01*
X128543381Y-125674452D01*
X128591000Y-125579214D01*
X128638619Y-125531595D01*
X128733857Y-125483976D01*
X128781476Y-125483976D01*
X128876714Y-125531595D01*
X128924333Y-125579214D01*
X128971952Y-125674452D01*
X128971952Y-125864929D01*
X129019571Y-125960167D01*
X129067190Y-126007786D01*
X129162429Y-126055405D01*
X129352905Y-126055405D01*
X129448143Y-126007786D01*
X129495762Y-125960167D01*
X129543381Y-125864929D01*
X129543381Y-125674452D01*
X129495762Y-125579214D01*
X129448143Y-125531595D01*
X129352905Y-125483976D01*
X129162429Y-125483976D01*
X129067190Y-125531595D01*
X129019571Y-125579214D01*
X128971952Y-125674452D01*
X129543381Y-124531595D02*
X129543381Y-125103024D01*
X129543381Y-124817310D02*
X128543381Y-124817310D01*
X128686238Y-124912548D01*
X128781476Y-125007786D01*
X128829095Y-125103024D01*
X147883643Y-131743143D02*
X147836024Y-131790762D01*
X147693167Y-131838381D01*
X147597929Y-131838381D01*
X147455071Y-131790762D01*
X147359833Y-131695524D01*
X147312214Y-131600286D01*
X147264595Y-131409810D01*
X147264595Y-131266952D01*
X147312214Y-131076476D01*
X147359833Y-130981238D01*
X147455071Y-130886000D01*
X147597929Y-130838381D01*
X147693167Y-130838381D01*
X147836024Y-130886000D01*
X147883643Y-130933619D01*
X148455071Y-131266952D02*
X148359833Y-131219333D01*
X148312214Y-131171714D01*
X148264595Y-131076476D01*
X148264595Y-131028857D01*
X148312214Y-130933619D01*
X148359833Y-130886000D01*
X148455071Y-130838381D01*
X148645548Y-130838381D01*
X148740786Y-130886000D01*
X148788405Y-130933619D01*
X148836024Y-131028857D01*
X148836024Y-131076476D01*
X148788405Y-131171714D01*
X148740786Y-131219333D01*
X148645548Y-131266952D01*
X148455071Y-131266952D01*
X148359833Y-131314571D01*
X148312214Y-131362190D01*
X148264595Y-131457429D01*
X148264595Y-131647905D01*
X148312214Y-131743143D01*
X148359833Y-131790762D01*
X148455071Y-131838381D01*
X148645548Y-131838381D01*
X148740786Y-131790762D01*
X148788405Y-131743143D01*
X148836024Y-131647905D01*
X148836024Y-131457429D01*
X148788405Y-131362190D01*
X148740786Y-131314571D01*
X148645548Y-131266952D01*
X149216976Y-130933619D02*
X149264595Y-130886000D01*
X149359833Y-130838381D01*
X149597929Y-130838381D01*
X149693167Y-130886000D01*
X149740786Y-130933619D01*
X149788405Y-131028857D01*
X149788405Y-131124095D01*
X149740786Y-131266952D01*
X149169357Y-131838381D01*
X149788405Y-131838381D01*
X126896905Y-66238381D02*
X126896905Y-65238381D01*
X127277858Y-65238381D01*
X127373096Y-65286000D01*
X127420715Y-65333619D01*
X127468334Y-65428857D01*
X127468334Y-65571714D01*
X127420715Y-65666952D01*
X127373096Y-65714571D01*
X127277858Y-65762190D01*
X126896905Y-65762190D01*
X127849286Y-65333619D02*
X127896905Y-65286000D01*
X127992143Y-65238381D01*
X128230239Y-65238381D01*
X128325477Y-65286000D01*
X128373096Y-65333619D01*
X128420715Y-65428857D01*
X128420715Y-65524095D01*
X128373096Y-65666952D01*
X127801667Y-66238381D01*
X128420715Y-66238381D01*
X176553905Y-130627381D02*
X176553905Y-129627381D01*
X176934858Y-129627381D01*
X177030096Y-129675000D01*
X177077715Y-129722619D01*
X177125334Y-129817857D01*
X177125334Y-129960714D01*
X177077715Y-130055952D01*
X177030096Y-130103571D01*
X176934858Y-130151190D01*
X176553905Y-130151190D01*
X178030096Y-129627381D02*
X177553905Y-129627381D01*
X177506286Y-130103571D01*
X177553905Y-130055952D01*
X177649143Y-130008333D01*
X177887239Y-130008333D01*
X177982477Y-130055952D01*
X178030096Y-130103571D01*
X178077715Y-130198810D01*
X178077715Y-130436905D01*
X178030096Y-130532143D01*
X177982477Y-130579762D01*
X177887239Y-130627381D01*
X177649143Y-130627381D01*
X177553905Y-130579762D01*
X177506286Y-130532143D01*
X118364095Y-87432381D02*
X118364095Y-88241905D01*
X118411714Y-88337143D01*
X118459333Y-88384762D01*
X118554571Y-88432381D01*
X118745048Y-88432381D01*
X118840286Y-88384762D01*
X118887905Y-88337143D01*
X118935524Y-88241905D01*
X118935524Y-87432381D01*
X119935524Y-88432381D02*
X119364095Y-88432381D01*
X119649809Y-88432381D02*
X119649809Y-87432381D01*
X119554571Y-87575238D01*
X119459333Y-87670476D01*
X119364095Y-87718095D01*
X131572095Y-58189881D02*
X131572095Y-58999405D01*
X131619714Y-59094643D01*
X131667333Y-59142262D01*
X131762571Y-59189881D01*
X131953048Y-59189881D01*
X132048286Y-59142262D01*
X132095905Y-59094643D01*
X132143524Y-58999405D01*
X132143524Y-58189881D01*
X132572095Y-58285119D02*
X132619714Y-58237500D01*
X132714952Y-58189881D01*
X132953048Y-58189881D01*
X133048286Y-58237500D01*
X133095905Y-58285119D01*
X133143524Y-58380357D01*
X133143524Y-58475595D01*
X133095905Y-58618452D01*
X132524476Y-59189881D01*
X133143524Y-59189881D01*
X134366095Y-67587881D02*
X134366095Y-68397405D01*
X134413714Y-68492643D01*
X134461333Y-68540262D01*
X134556571Y-68587881D01*
X134747048Y-68587881D01*
X134842286Y-68540262D01*
X134889905Y-68492643D01*
X134937524Y-68397405D01*
X134937524Y-67587881D01*
X135318476Y-67587881D02*
X135937524Y-67587881D01*
X135604190Y-67968833D01*
X135747048Y-67968833D01*
X135842286Y-68016452D01*
X135889905Y-68064071D01*
X135937524Y-68159310D01*
X135937524Y-68397405D01*
X135889905Y-68492643D01*
X135842286Y-68540262D01*
X135747048Y-68587881D01*
X135461333Y-68587881D01*
X135366095Y-68540262D01*
X135318476Y-68492643D01*
X134493095Y-78763881D02*
X134493095Y-79573405D01*
X134540714Y-79668643D01*
X134588333Y-79716262D01*
X134683571Y-79763881D01*
X134874048Y-79763881D01*
X134969286Y-79716262D01*
X135016905Y-79668643D01*
X135064524Y-79573405D01*
X135064524Y-78763881D01*
X135969286Y-79097214D02*
X135969286Y-79763881D01*
X135731190Y-78716262D02*
X135493095Y-79430548D01*
X136112143Y-79430548D01*
X134112095Y-89304881D02*
X134112095Y-90114405D01*
X134159714Y-90209643D01*
X134207333Y-90257262D01*
X134302571Y-90304881D01*
X134493048Y-90304881D01*
X134588286Y-90257262D01*
X134635905Y-90209643D01*
X134683524Y-90114405D01*
X134683524Y-89304881D01*
X135635905Y-89304881D02*
X135159714Y-89304881D01*
X135112095Y-89781071D01*
X135159714Y-89733452D01*
X135254952Y-89685833D01*
X135493048Y-89685833D01*
X135588286Y-89733452D01*
X135635905Y-89781071D01*
X135683524Y-89876310D01*
X135683524Y-90114405D01*
X135635905Y-90209643D01*
X135588286Y-90257262D01*
X135493048Y-90304881D01*
X135254952Y-90304881D01*
X135159714Y-90257262D01*
X135112095Y-90209643D01*
X134112095Y-100353881D02*
X134112095Y-101163405D01*
X134159714Y-101258643D01*
X134207333Y-101306262D01*
X134302571Y-101353881D01*
X134493048Y-101353881D01*
X134588286Y-101306262D01*
X134635905Y-101258643D01*
X134683524Y-101163405D01*
X134683524Y-100353881D01*
X135588286Y-100353881D02*
X135397809Y-100353881D01*
X135302571Y-100401500D01*
X135254952Y-100449119D01*
X135159714Y-100591976D01*
X135112095Y-100782452D01*
X135112095Y-101163405D01*
X135159714Y-101258643D01*
X135207333Y-101306262D01*
X135302571Y-101353881D01*
X135493048Y-101353881D01*
X135588286Y-101306262D01*
X135635905Y-101258643D01*
X135683524Y-101163405D01*
X135683524Y-100925310D01*
X135635905Y-100830071D01*
X135588286Y-100782452D01*
X135493048Y-100734833D01*
X135302571Y-100734833D01*
X135207333Y-100782452D01*
X135159714Y-100830071D01*
X135112095Y-100925310D01*
X134302595Y-110513881D02*
X134302595Y-111323405D01*
X134350214Y-111418643D01*
X134397833Y-111466262D01*
X134493071Y-111513881D01*
X134683548Y-111513881D01*
X134778786Y-111466262D01*
X134826405Y-111418643D01*
X134874024Y-111323405D01*
X134874024Y-110513881D01*
X135254976Y-110513881D02*
X135921643Y-110513881D01*
X135493071Y-111513881D01*
X133985095Y-121880381D02*
X133985095Y-122689905D01*
X134032714Y-122785143D01*
X134080333Y-122832762D01*
X134175571Y-122880381D01*
X134366048Y-122880381D01*
X134461286Y-122832762D01*
X134508905Y-122785143D01*
X134556524Y-122689905D01*
X134556524Y-121880381D01*
X135175571Y-122308952D02*
X135080333Y-122261333D01*
X135032714Y-122213714D01*
X134985095Y-122118476D01*
X134985095Y-122070857D01*
X135032714Y-121975619D01*
X135080333Y-121928000D01*
X135175571Y-121880381D01*
X135366048Y-121880381D01*
X135461286Y-121928000D01*
X135508905Y-121975619D01*
X135556524Y-122070857D01*
X135556524Y-122118476D01*
X135508905Y-122213714D01*
X135461286Y-122261333D01*
X135366048Y-122308952D01*
X135175571Y-122308952D01*
X135080333Y-122356571D01*
X135032714Y-122404190D01*
X134985095Y-122499429D01*
X134985095Y-122689905D01*
X135032714Y-122785143D01*
X135080333Y-122832762D01*
X135175571Y-122880381D01*
X135366048Y-122880381D01*
X135461286Y-122832762D01*
X135508905Y-122785143D01*
X135556524Y-122689905D01*
X135556524Y-122499429D01*
X135508905Y-122404190D01*
X135461286Y-122356571D01*
X135366048Y-122308952D01*
X118173595Y-71049381D02*
X118173595Y-71858905D01*
X118221214Y-71954143D01*
X118268833Y-72001762D01*
X118364071Y-72049381D01*
X118554548Y-72049381D01*
X118649786Y-72001762D01*
X118697405Y-71954143D01*
X118745024Y-71858905D01*
X118745024Y-71049381D01*
X119268833Y-72049381D02*
X119459309Y-72049381D01*
X119554548Y-72001762D01*
X119602167Y-71954143D01*
X119697405Y-71811286D01*
X119745024Y-71620810D01*
X119745024Y-71239857D01*
X119697405Y-71144619D01*
X119649786Y-71097000D01*
X119554548Y-71049381D01*
X119364071Y-71049381D01*
X119268833Y-71097000D01*
X119221214Y-71144619D01*
X119173595Y-71239857D01*
X119173595Y-71477952D01*
X119221214Y-71573190D01*
X119268833Y-71620810D01*
X119364071Y-71668429D01*
X119554548Y-71668429D01*
X119649786Y-71620810D01*
X119697405Y-71573190D01*
X119745024Y-71477952D01*
X178911405Y-59205881D02*
X178911405Y-60015405D01*
X178959024Y-60110643D01*
X179006643Y-60158262D01*
X179101881Y-60205881D01*
X179292358Y-60205881D01*
X179387596Y-60158262D01*
X179435215Y-60110643D01*
X179482834Y-60015405D01*
X179482834Y-59205881D01*
X180482834Y-60205881D02*
X179911405Y-60205881D01*
X180197119Y-60205881D02*
X180197119Y-59205881D01*
X180101881Y-59348738D01*
X180006643Y-59443976D01*
X179911405Y-59491595D01*
X181101881Y-59205881D02*
X181197120Y-59205881D01*
X181292358Y-59253500D01*
X181339977Y-59301119D01*
X181387596Y-59396357D01*
X181435215Y-59586833D01*
X181435215Y-59824929D01*
X181387596Y-60015405D01*
X181339977Y-60110643D01*
X181292358Y-60158262D01*
X181197120Y-60205881D01*
X181101881Y-60205881D01*
X181006643Y-60158262D01*
X180959024Y-60110643D01*
X180911405Y-60015405D01*
X180863786Y-59824929D01*
X180863786Y-59586833D01*
X180911405Y-59396357D01*
X180959024Y-59301119D01*
X181006643Y-59253500D01*
X181101881Y-59205881D01*
X174212405Y-69556381D02*
X174212405Y-70365905D01*
X174260024Y-70461143D01*
X174307643Y-70508762D01*
X174402881Y-70556381D01*
X174593358Y-70556381D01*
X174688596Y-70508762D01*
X174736215Y-70461143D01*
X174783834Y-70365905D01*
X174783834Y-69556381D01*
X175783834Y-70556381D02*
X175212405Y-70556381D01*
X175498119Y-70556381D02*
X175498119Y-69556381D01*
X175402881Y-69699238D01*
X175307643Y-69794476D01*
X175212405Y-69842095D01*
X176736215Y-70556381D02*
X176164786Y-70556381D01*
X176450500Y-70556381D02*
X176450500Y-69556381D01*
X176355262Y-69699238D01*
X176260024Y-69794476D01*
X176164786Y-69842095D01*
X174085405Y-80287881D02*
X174085405Y-81097405D01*
X174133024Y-81192643D01*
X174180643Y-81240262D01*
X174275881Y-81287881D01*
X174466358Y-81287881D01*
X174561596Y-81240262D01*
X174609215Y-81192643D01*
X174656834Y-81097405D01*
X174656834Y-80287881D01*
X175656834Y-81287881D02*
X175085405Y-81287881D01*
X175371119Y-81287881D02*
X175371119Y-80287881D01*
X175275881Y-80430738D01*
X175180643Y-80525976D01*
X175085405Y-80573595D01*
X176037786Y-80383119D02*
X176085405Y-80335500D01*
X176180643Y-80287881D01*
X176418739Y-80287881D01*
X176513977Y-80335500D01*
X176561596Y-80383119D01*
X176609215Y-80478357D01*
X176609215Y-80573595D01*
X176561596Y-80716452D01*
X175990167Y-81287881D01*
X176609215Y-81287881D01*
X174275905Y-91590881D02*
X174275905Y-92400405D01*
X174323524Y-92495643D01*
X174371143Y-92543262D01*
X174466381Y-92590881D01*
X174656858Y-92590881D01*
X174752096Y-92543262D01*
X174799715Y-92495643D01*
X174847334Y-92400405D01*
X174847334Y-91590881D01*
X175847334Y-92590881D02*
X175275905Y-92590881D01*
X175561619Y-92590881D02*
X175561619Y-91590881D01*
X175466381Y-91733738D01*
X175371143Y-91828976D01*
X175275905Y-91876595D01*
X176180667Y-91590881D02*
X176799715Y-91590881D01*
X176466381Y-91971833D01*
X176609239Y-91971833D01*
X176704477Y-92019452D01*
X176752096Y-92067071D01*
X176799715Y-92162310D01*
X176799715Y-92400405D01*
X176752096Y-92495643D01*
X176704477Y-92543262D01*
X176609239Y-92590881D01*
X176323524Y-92590881D01*
X176228286Y-92543262D01*
X176180667Y-92495643D01*
X174339405Y-102576381D02*
X174339405Y-103385905D01*
X174387024Y-103481143D01*
X174434643Y-103528762D01*
X174529881Y-103576381D01*
X174720358Y-103576381D01*
X174815596Y-103528762D01*
X174863215Y-103481143D01*
X174910834Y-103385905D01*
X174910834Y-102576381D01*
X175910834Y-103576381D02*
X175339405Y-103576381D01*
X175625119Y-103576381D02*
X175625119Y-102576381D01*
X175529881Y-102719238D01*
X175434643Y-102814476D01*
X175339405Y-102862095D01*
X176767977Y-102909714D02*
X176767977Y-103576381D01*
X176529881Y-102528762D02*
X176291786Y-103243048D01*
X176910834Y-103243048D01*
X174085405Y-113879381D02*
X174085405Y-114688905D01*
X174133024Y-114784143D01*
X174180643Y-114831762D01*
X174275881Y-114879381D01*
X174466358Y-114879381D01*
X174561596Y-114831762D01*
X174609215Y-114784143D01*
X174656834Y-114688905D01*
X174656834Y-113879381D01*
X175656834Y-114879381D02*
X175085405Y-114879381D01*
X175371119Y-114879381D02*
X175371119Y-113879381D01*
X175275881Y-114022238D01*
X175180643Y-114117476D01*
X175085405Y-114165095D01*
X176561596Y-113879381D02*
X176085405Y-113879381D01*
X176037786Y-114355571D01*
X176085405Y-114307952D01*
X176180643Y-114260333D01*
X176418739Y-114260333D01*
X176513977Y-114307952D01*
X176561596Y-114355571D01*
X176609215Y-114450810D01*
X176609215Y-114688905D01*
X176561596Y-114784143D01*
X176513977Y-114831762D01*
X176418739Y-114879381D01*
X176180643Y-114879381D01*
X176085405Y-114831762D01*
X176037786Y-114784143D01*
X173704405Y-125499881D02*
X173704405Y-126309405D01*
X173752024Y-126404643D01*
X173799643Y-126452262D01*
X173894881Y-126499881D01*
X174085358Y-126499881D01*
X174180596Y-126452262D01*
X174228215Y-126404643D01*
X174275834Y-126309405D01*
X174275834Y-125499881D01*
X175275834Y-126499881D02*
X174704405Y-126499881D01*
X174990119Y-126499881D02*
X174990119Y-125499881D01*
X174894881Y-125642738D01*
X174799643Y-125737976D01*
X174704405Y-125785595D01*
X176132977Y-125499881D02*
X175942500Y-125499881D01*
X175847262Y-125547500D01*
X175799643Y-125595119D01*
X175704405Y-125737976D01*
X175656786Y-125928452D01*
X175656786Y-126309405D01*
X175704405Y-126404643D01*
X175752024Y-126452262D01*
X175847262Y-126499881D01*
X176037739Y-126499881D01*
X176132977Y-126452262D01*
X176180596Y-126404643D01*
X176228215Y-126309405D01*
X176228215Y-126071310D01*
X176180596Y-125976071D01*
X176132977Y-125928452D01*
X176037739Y-125880833D01*
X175847262Y-125880833D01*
X175752024Y-125928452D01*
X175704405Y-125976071D01*
X175656786Y-126071310D01*
X118387905Y-128023881D02*
X118387905Y-127023881D01*
X118768858Y-127023881D01*
X118864096Y-127071500D01*
X118911715Y-127119119D01*
X118959334Y-127214357D01*
X118959334Y-127357214D01*
X118911715Y-127452452D01*
X118864096Y-127500071D01*
X118768858Y-127547690D01*
X118387905Y-127547690D01*
X119911715Y-128023881D02*
X119340286Y-128023881D01*
X119626000Y-128023881D02*
X119626000Y-127023881D01*
X119530762Y-127166738D01*
X119435524Y-127261976D01*
X119340286Y-127309595D01*
X110795071Y-116530333D02*
X110795071Y-116863667D01*
X111318881Y-116863667D02*
X110318881Y-116863667D01*
X110318881Y-116387476D01*
X110795071Y-115673190D02*
X110842690Y-115530333D01*
X110890310Y-115482714D01*
X110985548Y-115435095D01*
X111128405Y-115435095D01*
X111223643Y-115482714D01*
X111271262Y-115530333D01*
X111318881Y-115625571D01*
X111318881Y-116006524D01*
X110318881Y-116006524D01*
X110318881Y-115673190D01*
X110366500Y-115577952D01*
X110414119Y-115530333D01*
X110509357Y-115482714D01*
X110604595Y-115482714D01*
X110699833Y-115530333D01*
X110747452Y-115577952D01*
X110795071Y-115673190D01*
X110795071Y-116006524D01*
X111318881Y-114482714D02*
X111318881Y-115054143D01*
X111318881Y-114768429D02*
X110318881Y-114768429D01*
X110461738Y-114863667D01*
X110556976Y-114958905D01*
X110604595Y-115054143D01*
X140215881Y-59285166D02*
X140215881Y-59761357D01*
X139215881Y-59761357D01*
X140215881Y-58428023D02*
X140215881Y-58999452D01*
X140215881Y-58713738D02*
X139215881Y-58713738D01*
X139358738Y-58808976D01*
X139453976Y-58904214D01*
X139501595Y-58999452D01*
X140406381Y-70080166D02*
X140406381Y-70556357D01*
X139406381Y-70556357D01*
X139501619Y-69794452D02*
X139454000Y-69746833D01*
X139406381Y-69651595D01*
X139406381Y-69413499D01*
X139454000Y-69318261D01*
X139501619Y-69270642D01*
X139596857Y-69223023D01*
X139692095Y-69223023D01*
X139834952Y-69270642D01*
X140406381Y-69842071D01*
X140406381Y-69223023D01*
X140215881Y-80621166D02*
X140215881Y-81097357D01*
X139215881Y-81097357D01*
X139215881Y-80383071D02*
X139215881Y-79764023D01*
X139596833Y-80097357D01*
X139596833Y-79954499D01*
X139644452Y-79859261D01*
X139692071Y-79811642D01*
X139787310Y-79764023D01*
X140025405Y-79764023D01*
X140120643Y-79811642D01*
X140168262Y-79859261D01*
X140215881Y-79954499D01*
X140215881Y-80240214D01*
X140168262Y-80335452D01*
X140120643Y-80383071D01*
X140279381Y-92178166D02*
X140279381Y-92654357D01*
X139279381Y-92654357D01*
X139612714Y-91416261D02*
X140279381Y-91416261D01*
X139231762Y-91654357D02*
X139946048Y-91892452D01*
X139946048Y-91273404D01*
X140152381Y-102719166D02*
X140152381Y-103195357D01*
X139152381Y-103195357D01*
X139152381Y-101909642D02*
X139152381Y-102385833D01*
X139628571Y-102433452D01*
X139580952Y-102385833D01*
X139533333Y-102290595D01*
X139533333Y-102052499D01*
X139580952Y-101957261D01*
X139628571Y-101909642D01*
X139723810Y-101862023D01*
X139961905Y-101862023D01*
X140057143Y-101909642D01*
X140104762Y-101957261D01*
X140152381Y-102052499D01*
X140152381Y-102290595D01*
X140104762Y-102385833D01*
X140057143Y-102433452D01*
X140215881Y-113514166D02*
X140215881Y-113990357D01*
X139215881Y-113990357D01*
X139215881Y-112752261D02*
X139215881Y-112942738D01*
X139263500Y-113037976D01*
X139311119Y-113085595D01*
X139453976Y-113180833D01*
X139644452Y-113228452D01*
X140025405Y-113228452D01*
X140120643Y-113180833D01*
X140168262Y-113133214D01*
X140215881Y-113037976D01*
X140215881Y-112847499D01*
X140168262Y-112752261D01*
X140120643Y-112704642D01*
X140025405Y-112657023D01*
X139787310Y-112657023D01*
X139692071Y-112704642D01*
X139644452Y-112752261D01*
X139596833Y-112847499D01*
X139596833Y-113037976D01*
X139644452Y-113133214D01*
X139692071Y-113180833D01*
X139787310Y-113228452D01*
X140025381Y-125007666D02*
X140025381Y-125483857D01*
X139025381Y-125483857D01*
X139025381Y-124769571D02*
X139025381Y-124102904D01*
X140025381Y-124531476D01*
X150582334Y-60269381D02*
X150106143Y-60269381D01*
X150106143Y-59269381D01*
X151058524Y-59697952D02*
X150963286Y-59650333D01*
X150915667Y-59602714D01*
X150868048Y-59507476D01*
X150868048Y-59459857D01*
X150915667Y-59364619D01*
X150963286Y-59317000D01*
X151058524Y-59269381D01*
X151249001Y-59269381D01*
X151344239Y-59317000D01*
X151391858Y-59364619D01*
X151439477Y-59459857D01*
X151439477Y-59507476D01*
X151391858Y-59602714D01*
X151344239Y-59650333D01*
X151249001Y-59697952D01*
X151058524Y-59697952D01*
X150963286Y-59745571D01*
X150915667Y-59793190D01*
X150868048Y-59888429D01*
X150868048Y-60078905D01*
X150915667Y-60174143D01*
X150963286Y-60221762D01*
X151058524Y-60269381D01*
X151249001Y-60269381D01*
X151344239Y-60221762D01*
X151391858Y-60174143D01*
X151439477Y-60078905D01*
X151439477Y-59888429D01*
X151391858Y-59793190D01*
X151344239Y-59745571D01*
X151249001Y-59697952D01*
X150582334Y-70810381D02*
X150106143Y-70810381D01*
X150106143Y-69810381D01*
X150963286Y-70810381D02*
X151153762Y-70810381D01*
X151249001Y-70762762D01*
X151296620Y-70715143D01*
X151391858Y-70572286D01*
X151439477Y-70381810D01*
X151439477Y-70000857D01*
X151391858Y-69905619D01*
X151344239Y-69858000D01*
X151249001Y-69810381D01*
X151058524Y-69810381D01*
X150963286Y-69858000D01*
X150915667Y-69905619D01*
X150868048Y-70000857D01*
X150868048Y-70238952D01*
X150915667Y-70334190D01*
X150963286Y-70381810D01*
X151058524Y-70429429D01*
X151249001Y-70429429D01*
X151344239Y-70381810D01*
X151391858Y-70334190D01*
X151439477Y-70238952D01*
X150042643Y-81097381D02*
X149566452Y-81097381D01*
X149566452Y-80097381D01*
X150899786Y-81097381D02*
X150328357Y-81097381D01*
X150614071Y-81097381D02*
X150614071Y-80097381D01*
X150518833Y-80240238D01*
X150423595Y-80335476D01*
X150328357Y-80383095D01*
X151518833Y-80097381D02*
X151614072Y-80097381D01*
X151709310Y-80145000D01*
X151756929Y-80192619D01*
X151804548Y-80287857D01*
X151852167Y-80478333D01*
X151852167Y-80716429D01*
X151804548Y-80906905D01*
X151756929Y-81002143D01*
X151709310Y-81049762D01*
X151614072Y-81097381D01*
X151518833Y-81097381D01*
X151423595Y-81049762D01*
X151375976Y-81002143D01*
X151328357Y-80906905D01*
X151280738Y-80716429D01*
X151280738Y-80478333D01*
X151328357Y-80287857D01*
X151375976Y-80192619D01*
X151423595Y-80145000D01*
X151518833Y-80097381D01*
X149852143Y-92336881D02*
X149375952Y-92336881D01*
X149375952Y-91336881D01*
X150709286Y-92336881D02*
X150137857Y-92336881D01*
X150423571Y-92336881D02*
X150423571Y-91336881D01*
X150328333Y-91479738D01*
X150233095Y-91574976D01*
X150137857Y-91622595D01*
X151661667Y-92336881D02*
X151090238Y-92336881D01*
X151375952Y-92336881D02*
X151375952Y-91336881D01*
X151280714Y-91479738D01*
X151185476Y-91574976D01*
X151090238Y-91622595D01*
X149979143Y-103639881D02*
X149502952Y-103639881D01*
X149502952Y-102639881D01*
X150836286Y-103639881D02*
X150264857Y-103639881D01*
X150550571Y-103639881D02*
X150550571Y-102639881D01*
X150455333Y-102782738D01*
X150360095Y-102877976D01*
X150264857Y-102925595D01*
X151217238Y-102735119D02*
X151264857Y-102687500D01*
X151360095Y-102639881D01*
X151598191Y-102639881D01*
X151693429Y-102687500D01*
X151741048Y-102735119D01*
X151788667Y-102830357D01*
X151788667Y-102925595D01*
X151741048Y-103068452D01*
X151169619Y-103639881D01*
X151788667Y-103639881D01*
X149725143Y-114307881D02*
X149248952Y-114307881D01*
X149248952Y-113307881D01*
X150582286Y-114307881D02*
X150010857Y-114307881D01*
X150296571Y-114307881D02*
X150296571Y-113307881D01*
X150201333Y-113450738D01*
X150106095Y-113545976D01*
X150010857Y-113593595D01*
X150915619Y-113307881D02*
X151534667Y-113307881D01*
X151201333Y-113688833D01*
X151344191Y-113688833D01*
X151439429Y-113736452D01*
X151487048Y-113784071D01*
X151534667Y-113879310D01*
X151534667Y-114117405D01*
X151487048Y-114212643D01*
X151439429Y-114260262D01*
X151344191Y-114307881D01*
X151058476Y-114307881D01*
X150963238Y-114260262D01*
X150915619Y-114212643D01*
X149979143Y-125864881D02*
X149502952Y-125864881D01*
X149502952Y-124864881D01*
X150836286Y-125864881D02*
X150264857Y-125864881D01*
X150550571Y-125864881D02*
X150550571Y-124864881D01*
X150455333Y-125007738D01*
X150360095Y-125102976D01*
X150264857Y-125150595D01*
X151693429Y-125198214D02*
X151693429Y-125864881D01*
X151455333Y-124817262D02*
X151217238Y-125531548D01*
X151836286Y-125531548D01*
X169171881Y-59316857D02*
X169171881Y-59793048D01*
X168171881Y-59793048D01*
X169171881Y-58459714D02*
X169171881Y-59031143D01*
X169171881Y-58745429D02*
X168171881Y-58745429D01*
X168314738Y-58840667D01*
X168409976Y-58935905D01*
X168457595Y-59031143D01*
X168171881Y-57554952D02*
X168171881Y-58031143D01*
X168648071Y-58078762D01*
X168600452Y-58031143D01*
X168552833Y-57935905D01*
X168552833Y-57697809D01*
X168600452Y-57602571D01*
X168648071Y-57554952D01*
X168743310Y-57507333D01*
X168981405Y-57507333D01*
X169076643Y-57554952D01*
X169124262Y-57602571D01*
X169171881Y-57697809D01*
X169171881Y-57935905D01*
X169124262Y-58031143D01*
X169076643Y-58078762D01*
X169235381Y-70111857D02*
X169235381Y-70588048D01*
X168235381Y-70588048D01*
X169235381Y-69254714D02*
X169235381Y-69826143D01*
X169235381Y-69540429D02*
X168235381Y-69540429D01*
X168378238Y-69635667D01*
X168473476Y-69730905D01*
X168521095Y-69826143D01*
X168235381Y-68397571D02*
X168235381Y-68588048D01*
X168283000Y-68683286D01*
X168330619Y-68730905D01*
X168473476Y-68826143D01*
X168663952Y-68873762D01*
X169044905Y-68873762D01*
X169140143Y-68826143D01*
X169187762Y-68778524D01*
X169235381Y-68683286D01*
X169235381Y-68492809D01*
X169187762Y-68397571D01*
X169140143Y-68349952D01*
X169044905Y-68302333D01*
X168806810Y-68302333D01*
X168711571Y-68349952D01*
X168663952Y-68397571D01*
X168616333Y-68492809D01*
X168616333Y-68683286D01*
X168663952Y-68778524D01*
X168711571Y-68826143D01*
X168806810Y-68873762D01*
X168854381Y-81351357D02*
X168854381Y-81827548D01*
X167854381Y-81827548D01*
X168854381Y-80494214D02*
X168854381Y-81065643D01*
X168854381Y-80779929D02*
X167854381Y-80779929D01*
X167997238Y-80875167D01*
X168092476Y-80970405D01*
X168140095Y-81065643D01*
X167854381Y-80160881D02*
X167854381Y-79494214D01*
X168854381Y-79922786D01*
X168727381Y-92971857D02*
X168727381Y-93448048D01*
X167727381Y-93448048D01*
X168727381Y-92114714D02*
X168727381Y-92686143D01*
X168727381Y-92400429D02*
X167727381Y-92400429D01*
X167870238Y-92495667D01*
X167965476Y-92590905D01*
X168013095Y-92686143D01*
X168155952Y-91543286D02*
X168108333Y-91638524D01*
X168060714Y-91686143D01*
X167965476Y-91733762D01*
X167917857Y-91733762D01*
X167822619Y-91686143D01*
X167775000Y-91638524D01*
X167727381Y-91543286D01*
X167727381Y-91352809D01*
X167775000Y-91257571D01*
X167822619Y-91209952D01*
X167917857Y-91162333D01*
X167965476Y-91162333D01*
X168060714Y-91209952D01*
X168108333Y-91257571D01*
X168155952Y-91352809D01*
X168155952Y-91543286D01*
X168203571Y-91638524D01*
X168251190Y-91686143D01*
X168346429Y-91733762D01*
X168536905Y-91733762D01*
X168632143Y-91686143D01*
X168679762Y-91638524D01*
X168727381Y-91543286D01*
X168727381Y-91352809D01*
X168679762Y-91257571D01*
X168632143Y-91209952D01*
X168536905Y-91162333D01*
X168346429Y-91162333D01*
X168251190Y-91209952D01*
X168203571Y-91257571D01*
X168155952Y-91352809D01*
X168473381Y-103766857D02*
X168473381Y-104243048D01*
X167473381Y-104243048D01*
X168473381Y-102909714D02*
X168473381Y-103481143D01*
X168473381Y-103195429D02*
X167473381Y-103195429D01*
X167616238Y-103290667D01*
X167711476Y-103385905D01*
X167759095Y-103481143D01*
X168473381Y-102433524D02*
X168473381Y-102243048D01*
X168425762Y-102147809D01*
X168378143Y-102100190D01*
X168235286Y-102004952D01*
X168044810Y-101957333D01*
X167663857Y-101957333D01*
X167568619Y-102004952D01*
X167521000Y-102052571D01*
X167473381Y-102147809D01*
X167473381Y-102338286D01*
X167521000Y-102433524D01*
X167568619Y-102481143D01*
X167663857Y-102528762D01*
X167901952Y-102528762D01*
X167997190Y-102481143D01*
X168044810Y-102433524D01*
X168092429Y-102338286D01*
X168092429Y-102147809D01*
X168044810Y-102052571D01*
X167997190Y-102004952D01*
X167901952Y-101957333D01*
X168282881Y-115387357D02*
X168282881Y-115863548D01*
X167282881Y-115863548D01*
X167378119Y-115101643D02*
X167330500Y-115054024D01*
X167282881Y-114958786D01*
X167282881Y-114720690D01*
X167330500Y-114625452D01*
X167378119Y-114577833D01*
X167473357Y-114530214D01*
X167568595Y-114530214D01*
X167711452Y-114577833D01*
X168282881Y-115149262D01*
X168282881Y-114530214D01*
X167282881Y-113911167D02*
X167282881Y-113815928D01*
X167330500Y-113720690D01*
X167378119Y-113673071D01*
X167473357Y-113625452D01*
X167663833Y-113577833D01*
X167901929Y-113577833D01*
X168092405Y-113625452D01*
X168187643Y-113673071D01*
X168235262Y-113720690D01*
X168282881Y-113815928D01*
X168282881Y-113911167D01*
X168235262Y-114006405D01*
X168187643Y-114054024D01*
X168092405Y-114101643D01*
X167901929Y-114149262D01*
X167663833Y-114149262D01*
X167473357Y-114101643D01*
X167378119Y-114054024D01*
X167330500Y-114006405D01*
X167282881Y-113911167D01*
X168092381Y-127198357D02*
X168092381Y-127674548D01*
X167092381Y-127674548D01*
X167187619Y-126912643D02*
X167140000Y-126865024D01*
X167092381Y-126769786D01*
X167092381Y-126531690D01*
X167140000Y-126436452D01*
X167187619Y-126388833D01*
X167282857Y-126341214D01*
X167378095Y-126341214D01*
X167520952Y-126388833D01*
X168092381Y-126960262D01*
X168092381Y-126341214D01*
X168092381Y-125388833D02*
X168092381Y-125960262D01*
X168092381Y-125674548D02*
X167092381Y-125674548D01*
X167235238Y-125769786D01*
X167330476Y-125865024D01*
X167378095Y-125960262D01*
X133842238Y-61428381D02*
X134080333Y-62428381D01*
X134270810Y-61714095D01*
X134461286Y-62428381D01*
X134699381Y-61428381D01*
X135604143Y-62428381D02*
X135032714Y-62428381D01*
X135318428Y-62428381D02*
X135318428Y-61428381D01*
X135223190Y-61571238D01*
X135127952Y-61666476D01*
X135032714Y-61714095D01*
X133334238Y-52728881D02*
X133572333Y-53728881D01*
X133762810Y-53014595D01*
X133953286Y-53728881D01*
X134191381Y-52728881D01*
X134524714Y-52824119D02*
X134572333Y-52776500D01*
X134667571Y-52728881D01*
X134905667Y-52728881D01*
X135000905Y-52776500D01*
X135048524Y-52824119D01*
X135096143Y-52919357D01*
X135096143Y-53014595D01*
X135048524Y-53157452D01*
X134477095Y-53728881D01*
X135096143Y-53728881D01*
X133842238Y-58570881D02*
X134080333Y-59570881D01*
X134270810Y-58856595D01*
X134461286Y-59570881D01*
X134699381Y-58570881D01*
X134985095Y-58570881D02*
X135604143Y-58570881D01*
X135270809Y-58951833D01*
X135413667Y-58951833D01*
X135508905Y-58999452D01*
X135556524Y-59047071D01*
X135604143Y-59142310D01*
X135604143Y-59380405D01*
X135556524Y-59475643D01*
X135508905Y-59523262D01*
X135413667Y-59570881D01*
X135127952Y-59570881D01*
X135032714Y-59523262D01*
X134985095Y-59475643D01*
X176577738Y-58316881D02*
X176815833Y-59316881D01*
X177006310Y-58602595D01*
X177196786Y-59316881D01*
X177434881Y-58316881D01*
X178244405Y-58650214D02*
X178244405Y-59316881D01*
X178006309Y-58269262D02*
X177768214Y-58983548D01*
X178387262Y-58983548D01*
X176641238Y-52665381D02*
X176879333Y-53665381D01*
X177069810Y-52951095D01*
X177260286Y-53665381D01*
X177498381Y-52665381D01*
X178355524Y-52665381D02*
X177879333Y-52665381D01*
X177831714Y-53141571D01*
X177879333Y-53093952D01*
X177974571Y-53046333D01*
X178212667Y-53046333D01*
X178307905Y-53093952D01*
X178355524Y-53141571D01*
X178403143Y-53236810D01*
X178403143Y-53474905D01*
X178355524Y-53570143D01*
X178307905Y-53617762D01*
X178212667Y-53665381D01*
X177974571Y-53665381D01*
X177879333Y-53617762D01*
X177831714Y-53570143D01*
X176577738Y-61999881D02*
X176815833Y-62999881D01*
X177006310Y-62285595D01*
X177196786Y-62999881D01*
X177434881Y-61999881D01*
X178244405Y-61999881D02*
X178053928Y-61999881D01*
X177958690Y-62047500D01*
X177911071Y-62095119D01*
X177815833Y-62237976D01*
X177768214Y-62428452D01*
X177768214Y-62809405D01*
X177815833Y-62904643D01*
X177863452Y-62952262D01*
X177958690Y-62999881D01*
X178149167Y-62999881D01*
X178244405Y-62952262D01*
X178292024Y-62904643D01*
X178339643Y-62809405D01*
X178339643Y-62571310D01*
X178292024Y-62476071D01*
X178244405Y-62428452D01*
X178149167Y-62380833D01*
X177958690Y-62380833D01*
X177863452Y-62428452D01*
X177815833Y-62476071D01*
X177768214Y-62571310D01*
X158932643Y-135739143D02*
X158885024Y-135786762D01*
X158742167Y-135834381D01*
X158646929Y-135834381D01*
X158504071Y-135786762D01*
X158408833Y-135691524D01*
X158361214Y-135596286D01*
X158313595Y-135405810D01*
X158313595Y-135262952D01*
X158361214Y-135072476D01*
X158408833Y-134977238D01*
X158504071Y-134882000D01*
X158646929Y-134834381D01*
X158742167Y-134834381D01*
X158885024Y-134882000D01*
X158932643Y-134929619D01*
X159504071Y-135262952D02*
X159408833Y-135215333D01*
X159361214Y-135167714D01*
X159313595Y-135072476D01*
X159313595Y-135024857D01*
X159361214Y-134929619D01*
X159408833Y-134882000D01*
X159504071Y-134834381D01*
X159694548Y-134834381D01*
X159789786Y-134882000D01*
X159837405Y-134929619D01*
X159885024Y-135024857D01*
X159885024Y-135072476D01*
X159837405Y-135167714D01*
X159789786Y-135215333D01*
X159694548Y-135262952D01*
X159504071Y-135262952D01*
X159408833Y-135310571D01*
X159361214Y-135358190D01*
X159313595Y-135453429D01*
X159313595Y-135643905D01*
X159361214Y-135739143D01*
X159408833Y-135786762D01*
X159504071Y-135834381D01*
X159694548Y-135834381D01*
X159789786Y-135786762D01*
X159837405Y-135739143D01*
X159885024Y-135643905D01*
X159885024Y-135453429D01*
X159837405Y-135358190D01*
X159789786Y-135310571D01*
X159694548Y-135262952D01*
X160218357Y-134834381D02*
X160837405Y-134834381D01*
X160504071Y-135215333D01*
X160646929Y-135215333D01*
X160742167Y-135262952D01*
X160789786Y-135310571D01*
X160837405Y-135405810D01*
X160837405Y-135643905D01*
X160789786Y-135739143D01*
X160742167Y-135786762D01*
X160646929Y-135834381D01*
X160361214Y-135834381D01*
X160265976Y-135786762D01*
X160218357Y-135739143D01*
X136501143Y-72334357D02*
X136548762Y-72381976D01*
X136596381Y-72524833D01*
X136596381Y-72620071D01*
X136548762Y-72762929D01*
X136453524Y-72858167D01*
X136358286Y-72905786D01*
X136167810Y-72953405D01*
X136024952Y-72953405D01*
X135834476Y-72905786D01*
X135739238Y-72858167D01*
X135644000Y-72762929D01*
X135596381Y-72620071D01*
X135596381Y-72524833D01*
X135644000Y-72381976D01*
X135691619Y-72334357D01*
X136024952Y-71762929D02*
X135977333Y-71858167D01*
X135929714Y-71905786D01*
X135834476Y-71953405D01*
X135786857Y-71953405D01*
X135691619Y-71905786D01*
X135644000Y-71858167D01*
X135596381Y-71762929D01*
X135596381Y-71572452D01*
X135644000Y-71477214D01*
X135691619Y-71429595D01*
X135786857Y-71381976D01*
X135834476Y-71381976D01*
X135929714Y-71429595D01*
X135977333Y-71477214D01*
X136024952Y-71572452D01*
X136024952Y-71762929D01*
X136072571Y-71858167D01*
X136120190Y-71905786D01*
X136215429Y-71953405D01*
X136405905Y-71953405D01*
X136501143Y-71905786D01*
X136548762Y-71858167D01*
X136596381Y-71762929D01*
X136596381Y-71572452D01*
X136548762Y-71477214D01*
X136501143Y-71429595D01*
X136405905Y-71381976D01*
X136215429Y-71381976D01*
X136120190Y-71429595D01*
X136072571Y-71477214D01*
X136024952Y-71572452D01*
X135929714Y-70524833D02*
X136596381Y-70524833D01*
X135548762Y-70762929D02*
X136263048Y-71001024D01*
X136263048Y-70381976D01*
X178855643Y-107703857D02*
X178903262Y-107751476D01*
X178950881Y-107894333D01*
X178950881Y-107989571D01*
X178903262Y-108132429D01*
X178808024Y-108227667D01*
X178712786Y-108275286D01*
X178522310Y-108322905D01*
X178379452Y-108322905D01*
X178188976Y-108275286D01*
X178093738Y-108227667D01*
X177998500Y-108132429D01*
X177950881Y-107989571D01*
X177950881Y-107894333D01*
X177998500Y-107751476D01*
X178046119Y-107703857D01*
X178379452Y-107132429D02*
X178331833Y-107227667D01*
X178284214Y-107275286D01*
X178188976Y-107322905D01*
X178141357Y-107322905D01*
X178046119Y-107275286D01*
X177998500Y-107227667D01*
X177950881Y-107132429D01*
X177950881Y-106941952D01*
X177998500Y-106846714D01*
X178046119Y-106799095D01*
X178141357Y-106751476D01*
X178188976Y-106751476D01*
X178284214Y-106799095D01*
X178331833Y-106846714D01*
X178379452Y-106941952D01*
X178379452Y-107132429D01*
X178427071Y-107227667D01*
X178474690Y-107275286D01*
X178569929Y-107322905D01*
X178760405Y-107322905D01*
X178855643Y-107275286D01*
X178903262Y-107227667D01*
X178950881Y-107132429D01*
X178950881Y-106941952D01*
X178903262Y-106846714D01*
X178855643Y-106799095D01*
X178760405Y-106751476D01*
X178569929Y-106751476D01*
X178474690Y-106799095D01*
X178427071Y-106846714D01*
X178379452Y-106941952D01*
X177950881Y-105846714D02*
X177950881Y-106322905D01*
X178427071Y-106370524D01*
X178379452Y-106322905D01*
X178331833Y-106227667D01*
X178331833Y-105989571D01*
X178379452Y-105894333D01*
X178427071Y-105846714D01*
X178522310Y-105799095D01*
X178760405Y-105799095D01*
X178855643Y-105846714D01*
X178903262Y-105894333D01*
X178950881Y-105989571D01*
X178950881Y-106227667D01*
X178903262Y-106322905D01*
X178855643Y-106370524D01*
X185459643Y-53728857D02*
X185507262Y-53776476D01*
X185554881Y-53919333D01*
X185554881Y-54014571D01*
X185507262Y-54157429D01*
X185412024Y-54252667D01*
X185316786Y-54300286D01*
X185126310Y-54347905D01*
X184983452Y-54347905D01*
X184792976Y-54300286D01*
X184697738Y-54252667D01*
X184602500Y-54157429D01*
X184554881Y-54014571D01*
X184554881Y-53919333D01*
X184602500Y-53776476D01*
X184650119Y-53728857D01*
X184983452Y-53157429D02*
X184935833Y-53252667D01*
X184888214Y-53300286D01*
X184792976Y-53347905D01*
X184745357Y-53347905D01*
X184650119Y-53300286D01*
X184602500Y-53252667D01*
X184554881Y-53157429D01*
X184554881Y-52966952D01*
X184602500Y-52871714D01*
X184650119Y-52824095D01*
X184745357Y-52776476D01*
X184792976Y-52776476D01*
X184888214Y-52824095D01*
X184935833Y-52871714D01*
X184983452Y-52966952D01*
X184983452Y-53157429D01*
X185031071Y-53252667D01*
X185078690Y-53300286D01*
X185173929Y-53347905D01*
X185364405Y-53347905D01*
X185459643Y-53300286D01*
X185507262Y-53252667D01*
X185554881Y-53157429D01*
X185554881Y-52966952D01*
X185507262Y-52871714D01*
X185459643Y-52824095D01*
X185364405Y-52776476D01*
X185173929Y-52776476D01*
X185078690Y-52824095D01*
X185031071Y-52871714D01*
X184983452Y-52966952D01*
X184554881Y-51919333D02*
X184554881Y-52109810D01*
X184602500Y-52205048D01*
X184650119Y-52252667D01*
X184792976Y-52347905D01*
X184983452Y-52395524D01*
X185364405Y-52395524D01*
X185459643Y-52347905D01*
X185507262Y-52300286D01*
X185554881Y-52205048D01*
X185554881Y-52014571D01*
X185507262Y-51919333D01*
X185459643Y-51871714D01*
X185364405Y-51824095D01*
X185126310Y-51824095D01*
X185031071Y-51871714D01*
X184983452Y-51919333D01*
X184935833Y-52014571D01*
X184935833Y-52205048D01*
X184983452Y-52300286D01*
X185031071Y-52347905D01*
X185126310Y-52395524D01*
M02*
