G04 #@! TF.FileFunction,Legend,Bot*
%FSLAX46Y46*%
G04 Gerber Fmt 4.6, Leading zero omitted, Abs format (unit mm)*
G04 Created by KiCad (PCBNEW 4.0.1-stable) date 14/03/2016 16:10:45*
%MOMM*%
G01*
G04 APERTURE LIST*
%ADD10C,0.100000*%
%ADD11C,0.300000*%
%ADD12C,0.150000*%
G04 APERTURE END LIST*
D10*
D11*
X163466284Y-134670071D02*
X163466284Y-133170071D01*
X163466284Y-133884357D02*
X162609141Y-133884357D01*
X162609141Y-134670071D02*
X162609141Y-133170071D01*
X161323427Y-134598643D02*
X161466284Y-134670071D01*
X161751998Y-134670071D01*
X161894855Y-134598643D01*
X161966284Y-134455786D01*
X161966284Y-133884357D01*
X161894855Y-133741500D01*
X161751998Y-133670071D01*
X161466284Y-133670071D01*
X161323427Y-133741500D01*
X161251998Y-133884357D01*
X161251998Y-134027214D01*
X161966284Y-134170071D01*
X160609141Y-134670071D02*
X160609141Y-133670071D01*
X160609141Y-133955786D02*
X160537713Y-133812929D01*
X160466284Y-133741500D01*
X160323427Y-133670071D01*
X160180570Y-133670071D01*
X159680570Y-134670071D02*
X159680570Y-133670071D01*
X159680570Y-133812929D02*
X159609142Y-133741500D01*
X159466284Y-133670071D01*
X159251999Y-133670071D01*
X159109142Y-133741500D01*
X159037713Y-133884357D01*
X159037713Y-134670071D01*
X159037713Y-133884357D02*
X158966284Y-133741500D01*
X158823427Y-133670071D01*
X158609142Y-133670071D01*
X158466284Y-133741500D01*
X158394856Y-133884357D01*
X158394856Y-134670071D01*
X157109142Y-134598643D02*
X157251999Y-134670071D01*
X157537713Y-134670071D01*
X157680570Y-134598643D01*
X157751999Y-134455786D01*
X157751999Y-133884357D01*
X157680570Y-133741500D01*
X157537713Y-133670071D01*
X157251999Y-133670071D01*
X157109142Y-133741500D01*
X157037713Y-133884357D01*
X157037713Y-134027214D01*
X157751999Y-134170071D01*
X156466285Y-134598643D02*
X156323428Y-134670071D01*
X156037713Y-134670071D01*
X155894856Y-134598643D01*
X155823428Y-134455786D01*
X155823428Y-134384357D01*
X155894856Y-134241500D01*
X156037713Y-134170071D01*
X156251999Y-134170071D01*
X156394856Y-134098643D01*
X156466285Y-133955786D01*
X156466285Y-133884357D01*
X156394856Y-133741500D01*
X156251999Y-133670071D01*
X156037713Y-133670071D01*
X155894856Y-133741500D01*
X153323427Y-134670071D02*
X154037713Y-134670071D01*
X154037713Y-133170071D01*
X152823427Y-134670071D02*
X152823427Y-133670071D01*
X152823427Y-133170071D02*
X152894856Y-133241500D01*
X152823427Y-133312929D01*
X152751999Y-133241500D01*
X152823427Y-133170071D01*
X152823427Y-133312929D01*
X152323427Y-133670071D02*
X151751998Y-133670071D01*
X152109141Y-133170071D02*
X152109141Y-134455786D01*
X152037713Y-134598643D01*
X151894855Y-134670071D01*
X151751998Y-134670071D01*
X150680570Y-134598643D02*
X150823427Y-134670071D01*
X151109141Y-134670071D01*
X151251998Y-134598643D01*
X151323427Y-134455786D01*
X151323427Y-133884357D01*
X151251998Y-133741500D01*
X151109141Y-133670071D01*
X150823427Y-133670071D01*
X150680570Y-133741500D01*
X150609141Y-133884357D01*
X150609141Y-134027214D01*
X151323427Y-134170071D01*
X148823427Y-134670071D02*
X148823427Y-133170071D01*
X148251999Y-133170071D01*
X148109141Y-133241500D01*
X148037713Y-133312929D01*
X147966284Y-133455786D01*
X147966284Y-133670071D01*
X148037713Y-133812929D01*
X148109141Y-133884357D01*
X148251999Y-133955786D01*
X148823427Y-133955786D01*
X147323427Y-134670071D02*
X147323427Y-133670071D01*
X147323427Y-133955786D02*
X147251999Y-133812929D01*
X147180570Y-133741500D01*
X147037713Y-133670071D01*
X146894856Y-133670071D01*
X145823428Y-134598643D02*
X145966285Y-134670071D01*
X146251999Y-134670071D01*
X146394856Y-134598643D01*
X146466285Y-134455786D01*
X146466285Y-133884357D01*
X146394856Y-133741500D01*
X146251999Y-133670071D01*
X145966285Y-133670071D01*
X145823428Y-133741500D01*
X145751999Y-133884357D01*
X145751999Y-134027214D01*
X146466285Y-134170071D01*
X145109142Y-134098643D02*
X143966285Y-134098643D01*
X143466285Y-133170071D02*
X142966285Y-134670071D01*
X142466285Y-133170071D01*
X142037714Y-133312929D02*
X141966285Y-133241500D01*
X141823428Y-133170071D01*
X141466285Y-133170071D01*
X141323428Y-133241500D01*
X141251999Y-133312929D01*
X141180571Y-133455786D01*
X141180571Y-133598643D01*
X141251999Y-133812929D01*
X142109142Y-134670071D01*
X141180571Y-134670071D01*
X138537714Y-134670071D02*
X139037714Y-133955786D01*
X139394857Y-134670071D02*
X139394857Y-133170071D01*
X138823429Y-133170071D01*
X138680571Y-133241500D01*
X138609143Y-133312929D01*
X138537714Y-133455786D01*
X138537714Y-133670071D01*
X138609143Y-133812929D01*
X138680571Y-133884357D01*
X138823429Y-133955786D01*
X139394857Y-133955786D01*
X138037714Y-133170071D02*
X137037714Y-134670071D01*
X137037714Y-133170071D02*
X138037714Y-134670071D01*
X134823429Y-133884357D02*
X135323429Y-133884357D01*
X135323429Y-134670071D02*
X135323429Y-133170071D01*
X134609143Y-133170071D01*
X134037715Y-134670071D02*
X134037715Y-133670071D01*
X134037715Y-133170071D02*
X134109144Y-133241500D01*
X134037715Y-133312929D01*
X133966287Y-133241500D01*
X134037715Y-133170071D01*
X134037715Y-133312929D01*
X133109143Y-134670071D02*
X133252001Y-134598643D01*
X133323429Y-134455786D01*
X133323429Y-133170071D01*
X132752001Y-133670071D02*
X132180572Y-133670071D01*
X132537715Y-133170071D02*
X132537715Y-134455786D01*
X132466287Y-134598643D01*
X132323429Y-134670071D01*
X132180572Y-134670071D01*
X131109144Y-134598643D02*
X131252001Y-134670071D01*
X131537715Y-134670071D01*
X131680572Y-134598643D01*
X131752001Y-134455786D01*
X131752001Y-133884357D01*
X131680572Y-133741500D01*
X131537715Y-133670071D01*
X131252001Y-133670071D01*
X131109144Y-133741500D01*
X131037715Y-133884357D01*
X131037715Y-134027214D01*
X131752001Y-134170071D01*
X130394858Y-134670071D02*
X130394858Y-133670071D01*
X130394858Y-133955786D02*
X130323430Y-133812929D01*
X130252001Y-133741500D01*
X130109144Y-133670071D01*
X129966287Y-133670071D01*
X127823430Y-133884357D02*
X127609144Y-133955786D01*
X127537716Y-134027214D01*
X127466287Y-134170071D01*
X127466287Y-134384357D01*
X127537716Y-134527214D01*
X127609144Y-134598643D01*
X127752002Y-134670071D01*
X128323430Y-134670071D01*
X128323430Y-133170071D01*
X127823430Y-133170071D01*
X127680573Y-133241500D01*
X127609144Y-133312929D01*
X127537716Y-133455786D01*
X127537716Y-133598643D01*
X127609144Y-133741500D01*
X127680573Y-133812929D01*
X127823430Y-133884357D01*
X128323430Y-133884357D01*
X126609144Y-134670071D02*
X126752002Y-134598643D01*
X126823430Y-134527214D01*
X126894859Y-134384357D01*
X126894859Y-133955786D01*
X126823430Y-133812929D01*
X126752002Y-133741500D01*
X126609144Y-133670071D01*
X126394859Y-133670071D01*
X126252002Y-133741500D01*
X126180573Y-133812929D01*
X126109144Y-133955786D01*
X126109144Y-134384357D01*
X126180573Y-134527214D01*
X126252002Y-134598643D01*
X126394859Y-134670071D01*
X126609144Y-134670071D01*
X124823430Y-134670071D02*
X124823430Y-133884357D01*
X124894859Y-133741500D01*
X125037716Y-133670071D01*
X125323430Y-133670071D01*
X125466287Y-133741500D01*
X124823430Y-134598643D02*
X124966287Y-134670071D01*
X125323430Y-134670071D01*
X125466287Y-134598643D01*
X125537716Y-134455786D01*
X125537716Y-134312929D01*
X125466287Y-134170071D01*
X125323430Y-134098643D01*
X124966287Y-134098643D01*
X124823430Y-134027214D01*
X124109144Y-134670071D02*
X124109144Y-133670071D01*
X124109144Y-133955786D02*
X124037716Y-133812929D01*
X123966287Y-133741500D01*
X123823430Y-133670071D01*
X123680573Y-133670071D01*
X122537716Y-134670071D02*
X122537716Y-133170071D01*
X122537716Y-134598643D02*
X122680573Y-134670071D01*
X122966287Y-134670071D01*
X123109145Y-134598643D01*
X123180573Y-134527214D01*
X123252002Y-134384357D01*
X123252002Y-133955786D01*
X123180573Y-133812929D01*
X123109145Y-133741500D01*
X122966287Y-133670071D01*
X122680573Y-133670071D01*
X122537716Y-133741500D01*
X155109140Y-135927214D02*
X155251998Y-135855786D01*
X155537712Y-135855786D01*
X155680569Y-135927214D01*
X155823426Y-136070071D01*
X155894855Y-136212929D01*
X155894855Y-136498643D01*
X155823426Y-136641500D01*
X155680569Y-136784357D01*
X155537712Y-136855786D01*
X155251998Y-136855786D01*
X155109140Y-136784357D01*
X155394855Y-135355786D02*
X155751998Y-135427214D01*
X156109140Y-135641500D01*
X156323426Y-135998643D01*
X156394855Y-136355786D01*
X156323426Y-136712929D01*
X156109140Y-137070071D01*
X155751998Y-137284357D01*
X155394855Y-137355786D01*
X155037712Y-137284357D01*
X154680569Y-137070071D01*
X154466283Y-136712929D01*
X154394855Y-136355786D01*
X154466283Y-135998643D01*
X154680569Y-135641500D01*
X155037712Y-135427214D01*
X155394855Y-135355786D01*
X152751997Y-135570071D02*
X152394854Y-137070071D01*
X152109140Y-135998643D01*
X151823426Y-137070071D01*
X151466283Y-135570071D01*
X150823426Y-137070071D02*
X150537711Y-137070071D01*
X150394854Y-136998643D01*
X150323426Y-136927214D01*
X150180568Y-136712929D01*
X150109140Y-136427214D01*
X150109140Y-135855786D01*
X150180568Y-135712929D01*
X150251997Y-135641500D01*
X150394854Y-135570071D01*
X150680568Y-135570071D01*
X150823426Y-135641500D01*
X150894854Y-135712929D01*
X150966283Y-135855786D01*
X150966283Y-136212929D01*
X150894854Y-136355786D01*
X150823426Y-136427214D01*
X150680568Y-136498643D01*
X150394854Y-136498643D01*
X150251997Y-136427214D01*
X150180568Y-136355786D01*
X150109140Y-136212929D01*
X149037712Y-135570071D02*
X149037712Y-136641500D01*
X149109140Y-136855786D01*
X149251997Y-136998643D01*
X149466283Y-137070071D01*
X149609140Y-137070071D01*
X148394855Y-136998643D02*
X148180569Y-137070071D01*
X147823426Y-137070071D01*
X147680569Y-136998643D01*
X147609140Y-136927214D01*
X147537712Y-136784357D01*
X147537712Y-136641500D01*
X147609140Y-136498643D01*
X147680569Y-136427214D01*
X147823426Y-136355786D01*
X148109140Y-136284357D01*
X148251998Y-136212929D01*
X148323426Y-136141500D01*
X148394855Y-135998643D01*
X148394855Y-135855786D01*
X148323426Y-135712929D01*
X148251998Y-135641500D01*
X148109140Y-135570071D01*
X147751998Y-135570071D01*
X147537712Y-135641500D01*
X147037712Y-135570071D02*
X146680569Y-137070071D01*
X146394855Y-135998643D01*
X146109141Y-137070071D01*
X145751998Y-135570071D01*
X144109141Y-135712929D02*
X144037712Y-135641500D01*
X143894855Y-135570071D01*
X143537712Y-135570071D01*
X143394855Y-135641500D01*
X143323426Y-135712929D01*
X143251998Y-135855786D01*
X143251998Y-135998643D01*
X143323426Y-136212929D01*
X144180569Y-137070071D01*
X143251998Y-137070071D01*
X142323427Y-135570071D02*
X142180570Y-135570071D01*
X142037713Y-135641500D01*
X141966284Y-135712929D01*
X141894855Y-135855786D01*
X141823427Y-136141500D01*
X141823427Y-136498643D01*
X141894855Y-136784357D01*
X141966284Y-136927214D01*
X142037713Y-136998643D01*
X142180570Y-137070071D01*
X142323427Y-137070071D01*
X142466284Y-136998643D01*
X142537713Y-136927214D01*
X142609141Y-136784357D01*
X142680570Y-136498643D01*
X142680570Y-136141500D01*
X142609141Y-135855786D01*
X142537713Y-135712929D01*
X142466284Y-135641500D01*
X142323427Y-135570071D01*
X140394856Y-137070071D02*
X141251999Y-137070071D01*
X140823427Y-137070071D02*
X140823427Y-135570071D01*
X140966284Y-135784357D01*
X141109142Y-135927214D01*
X141251999Y-135998643D01*
X139109142Y-135570071D02*
X139394856Y-135570071D01*
X139537713Y-135641500D01*
X139609142Y-135712929D01*
X139751999Y-135927214D01*
X139823428Y-136212929D01*
X139823428Y-136784357D01*
X139751999Y-136927214D01*
X139680571Y-136998643D01*
X139537713Y-137070071D01*
X139251999Y-137070071D01*
X139109142Y-136998643D01*
X139037713Y-136927214D01*
X138966285Y-136784357D01*
X138966285Y-136427214D01*
X139037713Y-136284357D01*
X139109142Y-136212929D01*
X139251999Y-136141500D01*
X139537713Y-136141500D01*
X139680571Y-136212929D01*
X139751999Y-136284357D01*
X139823428Y-136427214D01*
X137394857Y-135570071D02*
X136894857Y-137070071D01*
X136394857Y-135570071D01*
X135323429Y-136998643D02*
X135466286Y-137070071D01*
X135752000Y-137070071D01*
X135894857Y-136998643D01*
X135966286Y-136855786D01*
X135966286Y-136284357D01*
X135894857Y-136141500D01*
X135752000Y-136070071D01*
X135466286Y-136070071D01*
X135323429Y-136141500D01*
X135252000Y-136284357D01*
X135252000Y-136427214D01*
X135966286Y-136570071D01*
X134609143Y-137070071D02*
X134609143Y-136070071D01*
X134609143Y-136355786D02*
X134537715Y-136212929D01*
X134466286Y-136141500D01*
X134323429Y-136070071D01*
X134180572Y-136070071D01*
X131752001Y-137070071D02*
X132609144Y-137070071D01*
X132180572Y-137070071D02*
X132180572Y-135570071D01*
X132323429Y-135784357D01*
X132466287Y-135927214D01*
X132609144Y-135998643D01*
X131109144Y-136927214D02*
X131037716Y-136998643D01*
X131109144Y-137070071D01*
X131180573Y-136998643D01*
X131109144Y-136927214D01*
X131109144Y-137070071D01*
X130109144Y-135570071D02*
X129966287Y-135570071D01*
X129823430Y-135641500D01*
X129752001Y-135712929D01*
X129680572Y-135855786D01*
X129609144Y-136141500D01*
X129609144Y-136498643D01*
X129680572Y-136784357D01*
X129752001Y-136927214D01*
X129823430Y-136998643D01*
X129966287Y-137070071D01*
X130109144Y-137070071D01*
X130252001Y-136998643D01*
X130323430Y-136927214D01*
X130394858Y-136784357D01*
X130466287Y-136498643D01*
X130466287Y-136141500D01*
X130394858Y-135855786D01*
X130323430Y-135712929D01*
X130252001Y-135641500D01*
X130109144Y-135570071D01*
D12*
X125716000Y-114265000D02*
X125716000Y-113065000D01*
X123966000Y-113065000D02*
X123966000Y-114265000D01*
X126484071Y-113657167D02*
X126484071Y-113323833D01*
X127007881Y-113323833D02*
X126007881Y-113323833D01*
X126007881Y-113800024D01*
X126484071Y-114514310D02*
X126531690Y-114657167D01*
X126579310Y-114704786D01*
X126674548Y-114752405D01*
X126817405Y-114752405D01*
X126912643Y-114704786D01*
X126960262Y-114657167D01*
X127007881Y-114561929D01*
X127007881Y-114180976D01*
X126007881Y-114180976D01*
X126007881Y-114514310D01*
X126055500Y-114609548D01*
X126103119Y-114657167D01*
X126198357Y-114704786D01*
X126293595Y-114704786D01*
X126388833Y-114657167D01*
X126436452Y-114609548D01*
X126484071Y-114514310D01*
X126484071Y-114180976D01*
X126103119Y-115133357D02*
X126055500Y-115180976D01*
X126007881Y-115276214D01*
X126007881Y-115514310D01*
X126055500Y-115609548D01*
X126103119Y-115657167D01*
X126198357Y-115704786D01*
X126293595Y-115704786D01*
X126436452Y-115657167D01*
X127007881Y-115085738D01*
X127007881Y-115704786D01*
M02*
