G04 #@! TF.FileFunction,Copper,L1,Top,Signal*
%FSLAX46Y46*%
G04 Gerber Fmt 4.6, Leading zero omitted, Abs format (unit mm)*
G04 Created by KiCad (PCBNEW 4.0.1-stable) date 12/03/2016 13:44:48*
%MOMM*%
G01*
G04 APERTURE LIST*
%ADD10C,0.100000*%
%ADD11C,6.350000*%
%ADD12R,1.000000X1.250000*%
%ADD13R,1.250000X1.000000*%
%ADD14R,2.032000X2.032000*%
%ADD15O,2.032000X2.032000*%
%ADD16R,1.500000X0.600000*%
%ADD17R,0.660400X0.406400*%
%ADD18R,1.727200X1.727200*%
%ADD19O,1.727200X1.727200*%
%ADD20R,1.300000X1.500000*%
%ADD21R,2.400000X1.800000*%
%ADD22C,1.800000*%
%ADD23R,1.800000X2.400000*%
%ADD24C,1.998980*%
%ADD25C,0.889000*%
%ADD26C,0.254000*%
%ADD27C,0.780000*%
%ADD28C,1.016000*%
G04 APERTURE END LIST*
D10*
D11*
X185610500Y-44958000D03*
X113855500Y-44958000D03*
X114236500Y-136207500D03*
X185356500Y-136398000D03*
D12*
X123174000Y-61531500D03*
X121174000Y-61531500D03*
D13*
X147828000Y-58372500D03*
X147828000Y-60372500D03*
X147955000Y-68913500D03*
X147955000Y-70913500D03*
X148018500Y-79962500D03*
X148018500Y-81962500D03*
X147828000Y-91329000D03*
X147828000Y-93329000D03*
X147574000Y-101806500D03*
X147574000Y-103806500D03*
X147510500Y-112728500D03*
X147510500Y-114728500D03*
X147383500Y-124412500D03*
X147383500Y-126412500D03*
X139319000Y-53737000D03*
X139319000Y-55737000D03*
X139319000Y-64849500D03*
X139319000Y-66849500D03*
X139382500Y-75835000D03*
X139382500Y-77835000D03*
X139128500Y-86757000D03*
X139128500Y-88757000D03*
X138938000Y-97806000D03*
X138938000Y-99806000D03*
X138938000Y-107902500D03*
X138938000Y-109902500D03*
X138811000Y-119269000D03*
X138811000Y-121269000D03*
D12*
X148828000Y-54483000D03*
X146828000Y-54483000D03*
X149018500Y-65278000D03*
X147018500Y-65278000D03*
X149145500Y-75819000D03*
X147145500Y-75819000D03*
X148955000Y-87249000D03*
X146955000Y-87249000D03*
X148828000Y-98425000D03*
X146828000Y-98425000D03*
X148574000Y-108902500D03*
X146574000Y-108902500D03*
X148574000Y-120586500D03*
X146574000Y-120586500D03*
X154638500Y-53276500D03*
X156638500Y-53276500D03*
X151495000Y-62738000D03*
X149495000Y-62738000D03*
X151876000Y-73279000D03*
X149876000Y-73279000D03*
X151939500Y-84391500D03*
X149939500Y-84391500D03*
X151685500Y-95948500D03*
X149685500Y-95948500D03*
X151495000Y-106426000D03*
X149495000Y-106426000D03*
X151177500Y-117538500D03*
X149177500Y-117538500D03*
X155114500Y-60833000D03*
X153114500Y-60833000D03*
X155114500Y-70993000D03*
X153114500Y-70993000D03*
X154924000Y-81851500D03*
X152924000Y-81851500D03*
X154733500Y-93091000D03*
X152733500Y-93091000D03*
X154670000Y-104013000D03*
X152670000Y-104013000D03*
X154479500Y-114935000D03*
X152479500Y-114935000D03*
X154543000Y-126555500D03*
X152543000Y-126555500D03*
X161020000Y-58102500D03*
X159020000Y-58102500D03*
X161210500Y-69469000D03*
X159210500Y-69469000D03*
X161020000Y-80454500D03*
X159020000Y-80454500D03*
X161210500Y-90995500D03*
X159210500Y-90995500D03*
X160766000Y-101854000D03*
X158766000Y-101854000D03*
X160575500Y-113093500D03*
X158575500Y-113093500D03*
X160194500Y-125285500D03*
X158194500Y-125285500D03*
D13*
X181800500Y-63166500D03*
X181800500Y-61166500D03*
D12*
X166576500Y-61404500D03*
X168576500Y-61404500D03*
X165751000Y-72136000D03*
X167751000Y-72136000D03*
X165687500Y-83375500D03*
X167687500Y-83375500D03*
X165941500Y-94678500D03*
X167941500Y-94678500D03*
X165751000Y-105981500D03*
X167751000Y-105981500D03*
X165433500Y-117475000D03*
X167433500Y-117475000D03*
X165179500Y-129349500D03*
X167179500Y-129349500D03*
X115459000Y-86423500D03*
X117459000Y-86423500D03*
D13*
X161226500Y-53292500D03*
X161226500Y-55292500D03*
X161480500Y-65357500D03*
X161480500Y-67357500D03*
X161163000Y-76152500D03*
X161163000Y-78152500D03*
X161099500Y-86312500D03*
X161099500Y-88312500D03*
X160845500Y-97298000D03*
X160845500Y-99298000D03*
X160591500Y-108791500D03*
X160591500Y-110791500D03*
X160083500Y-120793000D03*
X160083500Y-122793000D03*
D12*
X171688000Y-53784500D03*
X169688000Y-53784500D03*
X171116500Y-64516000D03*
X169116500Y-64516000D03*
X171053000Y-76898500D03*
X169053000Y-76898500D03*
X171243500Y-87947500D03*
X169243500Y-87947500D03*
X170862500Y-99314000D03*
X168862500Y-99314000D03*
X170799000Y-110744000D03*
X168799000Y-110744000D03*
X170608500Y-122364500D03*
X168608500Y-122364500D03*
D13*
X171767500Y-58055000D03*
X171767500Y-60055000D03*
X171005500Y-69739000D03*
X171005500Y-71739000D03*
X171069000Y-80661000D03*
X171069000Y-82661000D03*
X171069000Y-91773500D03*
X171069000Y-93773500D03*
X170942000Y-102949500D03*
X170942000Y-104949500D03*
X170942000Y-114506500D03*
X170942000Y-116506500D03*
X170561000Y-126063500D03*
X170561000Y-128063500D03*
X182562500Y-125079000D03*
X182562500Y-123079000D03*
D12*
X173434500Y-63500000D03*
X175434500Y-63500000D03*
X171847000Y-73914000D03*
X173847000Y-73914000D03*
X171593000Y-85090000D03*
X173593000Y-85090000D03*
X171212000Y-107759500D03*
X173212000Y-107759500D03*
X171656500Y-119253000D03*
X173656500Y-119253000D03*
D13*
X112903000Y-119967500D03*
X112903000Y-121967500D03*
X127444500Y-123809000D03*
X127444500Y-121809000D03*
D12*
X149526500Y-129286000D03*
X147526500Y-129286000D03*
D14*
X115824000Y-58864500D03*
D15*
X115824000Y-61404500D03*
D14*
X179959000Y-130048000D03*
D15*
X182499000Y-130048000D03*
D16*
X116426000Y-89535000D03*
X116426000Y-90805000D03*
X116426000Y-92075000D03*
X116426000Y-93345000D03*
X116426000Y-94615000D03*
X116426000Y-95885000D03*
X116426000Y-97155000D03*
X116426000Y-98425000D03*
X121826000Y-98425000D03*
X121826000Y-97155000D03*
X121826000Y-95885000D03*
X121826000Y-94615000D03*
X121826000Y-93345000D03*
X121826000Y-92075000D03*
X121826000Y-90805000D03*
X121826000Y-89535000D03*
D17*
X133350000Y-57238900D03*
X133350000Y-55918100D03*
X133350000Y-56578500D03*
X131318000Y-55918100D03*
X131318000Y-57238900D03*
X131318000Y-56578500D03*
X136080500Y-66763900D03*
X136080500Y-65443100D03*
X136080500Y-66103500D03*
X134048500Y-65443100D03*
X134048500Y-66763900D03*
X134048500Y-66103500D03*
X136207500Y-77939900D03*
X136207500Y-76619100D03*
X136207500Y-77279500D03*
X134175500Y-76619100D03*
X134175500Y-77939900D03*
X134175500Y-77279500D03*
X135953500Y-87909400D03*
X135953500Y-86588600D03*
X135953500Y-87249000D03*
X133921500Y-86588600D03*
X133921500Y-87909400D03*
X133921500Y-87249000D03*
X135826500Y-99275900D03*
X135826500Y-97955100D03*
X135826500Y-98615500D03*
X133794500Y-97955100D03*
X133794500Y-99275900D03*
X133794500Y-98615500D03*
X135953500Y-109435900D03*
X135953500Y-108115100D03*
X135953500Y-108775500D03*
X133921500Y-108115100D03*
X133921500Y-109435900D03*
X133921500Y-108775500D03*
X135636000Y-120865900D03*
X135636000Y-119545100D03*
X135636000Y-120205500D03*
X133604000Y-119545100D03*
X133604000Y-120865900D03*
X133604000Y-120205500D03*
D16*
X116235500Y-73152000D03*
X116235500Y-74422000D03*
X116235500Y-75692000D03*
X116235500Y-76962000D03*
X116235500Y-78232000D03*
X116235500Y-79502000D03*
X116235500Y-80772000D03*
X116235500Y-82042000D03*
X121635500Y-82042000D03*
X121635500Y-80772000D03*
X121635500Y-79502000D03*
X121635500Y-78232000D03*
X121635500Y-76962000D03*
X121635500Y-75692000D03*
X121635500Y-74422000D03*
X121635500Y-73152000D03*
D17*
X179133500Y-56934100D03*
X179133500Y-58254900D03*
X179133500Y-57594500D03*
X181165500Y-58254900D03*
X181165500Y-56934100D03*
X181165500Y-57594500D03*
X174053500Y-67094100D03*
X174053500Y-68414900D03*
X174053500Y-67754500D03*
X176085500Y-68414900D03*
X176085500Y-67094100D03*
X176085500Y-67754500D03*
X174371000Y-78016100D03*
X174371000Y-79336900D03*
X174371000Y-78676500D03*
X176403000Y-79336900D03*
X176403000Y-78016100D03*
X176403000Y-78676500D03*
X174371000Y-89065100D03*
X174371000Y-90385900D03*
X174371000Y-89725500D03*
X176403000Y-90385900D03*
X176403000Y-89065100D03*
X176403000Y-89725500D03*
X174307500Y-100177600D03*
X174307500Y-101498400D03*
X174307500Y-100838000D03*
X176339500Y-101498400D03*
X176339500Y-100177600D03*
X176339500Y-100838000D03*
X174117000Y-111734600D03*
X174117000Y-113055400D03*
X174117000Y-112395000D03*
X176149000Y-113055400D03*
X176149000Y-111734600D03*
X176149000Y-112395000D03*
X173926500Y-123291600D03*
X173926500Y-124612400D03*
X173926500Y-123952000D03*
X175958500Y-124612400D03*
X175958500Y-123291600D03*
X175958500Y-123952000D03*
D18*
X120078500Y-125031500D03*
D19*
X117538500Y-125031500D03*
X120078500Y-122491500D03*
X117538500Y-122491500D03*
X120078500Y-119951500D03*
X117538500Y-119951500D03*
X120078500Y-117411500D03*
X117538500Y-117411500D03*
X120078500Y-114871500D03*
X117538500Y-114871500D03*
X120078500Y-112331500D03*
X117538500Y-112331500D03*
X120078500Y-109791500D03*
X117538500Y-109791500D03*
D20*
X112966500Y-117047000D03*
X112966500Y-114347000D03*
D21*
X143065500Y-58515000D03*
X143065500Y-54515000D03*
D22*
X141565500Y-58015000D03*
X144565500Y-55015000D03*
D21*
X143256000Y-69119500D03*
X143256000Y-65119500D03*
D22*
X141756000Y-68619500D03*
X144756000Y-65619500D03*
D21*
X143256000Y-79787500D03*
X143256000Y-75787500D03*
D22*
X141756000Y-79287500D03*
X144756000Y-76287500D03*
D21*
X143129000Y-90836500D03*
X143129000Y-86836500D03*
D22*
X141629000Y-90336500D03*
X144629000Y-87336500D03*
D21*
X142938500Y-101822000D03*
X142938500Y-97822000D03*
D22*
X141438500Y-101322000D03*
X144438500Y-98322000D03*
D21*
X142875000Y-112617000D03*
X142875000Y-108617000D03*
D22*
X141375000Y-112117000D03*
X144375000Y-109117000D03*
D21*
X142684500Y-124110500D03*
X142684500Y-120110500D03*
D22*
X141184500Y-123610500D03*
X144184500Y-120610500D03*
D23*
X151670000Y-56578500D03*
X155670000Y-56578500D03*
D22*
X152170000Y-55078500D03*
X155170000Y-58078500D03*
D23*
X151543000Y-66992500D03*
X155543000Y-66992500D03*
D22*
X152043000Y-65492500D03*
X155043000Y-68492500D03*
D23*
X151543000Y-77533500D03*
X155543000Y-77533500D03*
D22*
X152043000Y-76033500D03*
X155043000Y-79033500D03*
D23*
X151352500Y-88900000D03*
X155352500Y-88900000D03*
D22*
X151852500Y-87400000D03*
X154852500Y-90400000D03*
D23*
X151416000Y-99885500D03*
X155416000Y-99885500D03*
D22*
X151916000Y-98385500D03*
X154916000Y-101385500D03*
D23*
X151162000Y-110807500D03*
X155162000Y-110807500D03*
D22*
X151662000Y-109307500D03*
X154662000Y-112307500D03*
D23*
X151289000Y-122110500D03*
X155289000Y-122110500D03*
D22*
X151789000Y-120610500D03*
X154789000Y-123610500D03*
D21*
X165481000Y-58451500D03*
X165481000Y-54451500D03*
D22*
X163981000Y-57951500D03*
X166981000Y-54951500D03*
D21*
X165481000Y-69246500D03*
X165481000Y-65246500D03*
D22*
X163981000Y-68746500D03*
X166981000Y-65746500D03*
D21*
X165227000Y-80422500D03*
X165227000Y-76422500D03*
D22*
X163727000Y-79922500D03*
X166727000Y-76922500D03*
D21*
X165163500Y-91725500D03*
X165163500Y-87725500D03*
D22*
X163663500Y-91225500D03*
X166663500Y-88225500D03*
D21*
X164846000Y-103028500D03*
X164846000Y-99028500D03*
D22*
X163346000Y-102528500D03*
X166346000Y-99528500D03*
D21*
X164655500Y-114331500D03*
X164655500Y-110331500D03*
D22*
X163155500Y-113831500D03*
X166155500Y-110831500D03*
D21*
X164401500Y-125952000D03*
X164401500Y-121952000D03*
D22*
X162901500Y-125452000D03*
X165901500Y-122452000D03*
D24*
X136525000Y-60642500D03*
X136461500Y-54292500D03*
X136461500Y-57467500D03*
X175704500Y-57340500D03*
X175704500Y-54292500D03*
X175704500Y-60706000D03*
D25*
X116395500Y-101092000D03*
X149669500Y-104013000D03*
X149923500Y-81978500D03*
X178562000Y-64452500D03*
X127444500Y-125730000D03*
X119253000Y-86423500D03*
X149479000Y-126555500D03*
X169354500Y-117475000D03*
X169354500Y-83439000D03*
X137096500Y-98298000D03*
X137287000Y-108394500D03*
X137096500Y-119824500D03*
X172656500Y-123952000D03*
X172847000Y-112395000D03*
X173037500Y-100838000D03*
X177673000Y-57531000D03*
X169100500Y-129349500D03*
X149415500Y-114935000D03*
X149542500Y-93345000D03*
X169418000Y-105981500D03*
X169418000Y-94742000D03*
X137350500Y-86868000D03*
X173037500Y-89725500D03*
X172974000Y-78740000D03*
X137668000Y-77343000D03*
X149606000Y-70929500D03*
X172720000Y-67754500D03*
X137541000Y-65913000D03*
X134874000Y-55943500D03*
X158305500Y-53276500D03*
X169354500Y-71945500D03*
X149479000Y-60388500D03*
X170307000Y-60071000D03*
X119951500Y-97218500D03*
X124714000Y-99123500D03*
X124904500Y-96774000D03*
X130365500Y-96456500D03*
X134048500Y-82359500D03*
X129667000Y-53975000D03*
X183515000Y-53530500D03*
X179959000Y-80010000D03*
X120586500Y-87185500D03*
X121920000Y-85471000D03*
X125158500Y-74168000D03*
X127444500Y-60452000D03*
X131191000Y-64960500D03*
X118364000Y-75184000D03*
X132397500Y-60007500D03*
X132397500Y-53975000D03*
X181292500Y-55372000D03*
X180149500Y-61468000D03*
X131572000Y-76263500D03*
X123634500Y-94234000D03*
X179895500Y-69278500D03*
X182372000Y-54546500D03*
X131064000Y-53975000D03*
X135128000Y-69151500D03*
X118999000Y-98679000D03*
X175387000Y-117983000D03*
X178117500Y-125412500D03*
X133921500Y-129921000D03*
X133794500Y-106299000D03*
X118237000Y-93408500D03*
X130492500Y-103568500D03*
X176974500Y-121539000D03*
X176974500Y-126174500D03*
X134874000Y-128079500D03*
X134874000Y-118110000D03*
X121793000Y-88265000D03*
X127000000Y-67183000D03*
X168783000Y-135001000D03*
X173418500Y-130238500D03*
X129286000Y-120078500D03*
X129286000Y-117475000D03*
X129286000Y-109728000D03*
X129286000Y-107823000D03*
X129286000Y-99568000D03*
X129286000Y-97663000D03*
X129286000Y-88201500D03*
X129286000Y-86296500D03*
X129286000Y-78232000D03*
X129286000Y-76327000D03*
X129286000Y-67056000D03*
X129286000Y-65214500D03*
X182245000Y-113347500D03*
X182245000Y-111506000D03*
X182245000Y-101790500D03*
X182245000Y-99949000D03*
X182245000Y-90678000D03*
X182245000Y-88773000D03*
X182245000Y-79629000D03*
X182245000Y-77787500D03*
X182181500Y-68770500D03*
X182181500Y-65468500D03*
X184023000Y-65468500D03*
X114046000Y-90805000D03*
X130619500Y-111950500D03*
X124777500Y-101727000D03*
X122237500Y-100076000D03*
X126936500Y-95885000D03*
X124904500Y-93980000D03*
D26*
X116426000Y-98425000D02*
X116426000Y-101061500D01*
X116426000Y-101061500D02*
X116395500Y-101092000D01*
X116235500Y-82042000D02*
X116235500Y-83406000D01*
X117459000Y-84629500D02*
X117459000Y-86423500D01*
X116235500Y-83406000D02*
X117459000Y-84629500D01*
D27*
X149495000Y-106426000D02*
X149495000Y-104187500D01*
X149463000Y-103806500D02*
X149669500Y-104013000D01*
X149463000Y-103806500D02*
X147574000Y-103806500D01*
X149495000Y-104187500D02*
X149669500Y-104013000D01*
X149939500Y-84391500D02*
X149939500Y-81994500D01*
X149939500Y-81994500D02*
X149923500Y-81978500D01*
X149907500Y-81962500D02*
X148018500Y-81962500D01*
X149907500Y-81962500D02*
X149923500Y-81978500D01*
D26*
X181800500Y-63166500D02*
X179848000Y-63166500D01*
X179848000Y-63166500D02*
X178562000Y-64452500D01*
X127444500Y-123809000D02*
X127444500Y-125730000D01*
X117459000Y-86423500D02*
X119253000Y-86423500D01*
X112903000Y-121967500D02*
X117014500Y-121967500D01*
X117014500Y-121967500D02*
X117538500Y-122491500D01*
D27*
X149526500Y-129286000D02*
X149526500Y-126603000D01*
X149526500Y-126603000D02*
X149479000Y-126555500D01*
X149336000Y-126412500D02*
X149479000Y-126555500D01*
X149336000Y-126412500D02*
X147383500Y-126412500D01*
X149399500Y-126635000D02*
X149479000Y-126555500D01*
X171656500Y-119253000D02*
X171132500Y-119253000D01*
X171132500Y-119253000D02*
X169354500Y-117475000D01*
X171212000Y-107759500D02*
X171196000Y-107759500D01*
X171196000Y-107759500D02*
X169418000Y-105981500D01*
X171593000Y-85090000D02*
X171005500Y-85090000D01*
X171005500Y-85090000D02*
X169354500Y-83439000D01*
X171847000Y-73914000D02*
X171847000Y-72580500D01*
X171847000Y-72580500D02*
X171005500Y-71739000D01*
X173434500Y-63500000D02*
X173434500Y-61722000D01*
X173434500Y-61722000D02*
X171767500Y-60055000D01*
D26*
X135826500Y-98615500D02*
X136779000Y-98615500D01*
X136779000Y-98615500D02*
X137096500Y-98298000D01*
X135953500Y-108775500D02*
X136906000Y-108775500D01*
X136906000Y-108775500D02*
X137287000Y-108394500D01*
X135636000Y-120205500D02*
X136715500Y-120205500D01*
X136715500Y-120205500D02*
X137096500Y-119824500D01*
X173926500Y-123952000D02*
X172656500Y-123952000D01*
X174117000Y-112395000D02*
X172847000Y-112395000D01*
X174307500Y-100838000D02*
X173037500Y-100838000D01*
X179197000Y-57594500D02*
X177736500Y-57594500D01*
X177736500Y-57594500D02*
X177673000Y-57531000D01*
D27*
X167179500Y-129349500D02*
X169100500Y-129349500D01*
X169100500Y-129349500D02*
X170386500Y-128063500D01*
X170561000Y-128063500D02*
X170386500Y-128063500D01*
X149177500Y-117538500D02*
X149177500Y-115173000D01*
X149209000Y-114728500D02*
X149415500Y-114935000D01*
X149209000Y-114728500D02*
X147510500Y-114728500D01*
X149177500Y-115173000D02*
X149415500Y-114935000D01*
X167433500Y-117475000D02*
X169354500Y-117475000D01*
X169354500Y-117475000D02*
X170323000Y-116506500D01*
X170942000Y-116506500D02*
X170323000Y-116506500D01*
X149685500Y-95948500D02*
X149685500Y-93488000D01*
X149526500Y-93329000D02*
X149542500Y-93345000D01*
X149526500Y-93329000D02*
X147828000Y-93329000D01*
X149685500Y-93488000D02*
X149542500Y-93345000D01*
X169418000Y-105981500D02*
X169910000Y-105981500D01*
X167751000Y-105981500D02*
X169418000Y-105981500D01*
X169910000Y-105981500D02*
X170942000Y-104949500D01*
X169418000Y-94742000D02*
X170100500Y-94742000D01*
X169354500Y-94678500D02*
X169418000Y-94742000D01*
X167941500Y-94678500D02*
X169354500Y-94678500D01*
X170100500Y-94742000D02*
X171069000Y-93773500D01*
D26*
X135953500Y-87249000D02*
X136969500Y-87249000D01*
X136969500Y-87249000D02*
X137350500Y-86868000D01*
X174371000Y-89725500D02*
X173037500Y-89725500D01*
X174371000Y-78676500D02*
X173037500Y-78676500D01*
X173037500Y-78676500D02*
X172974000Y-78740000D01*
X136207500Y-77279500D02*
X137604500Y-77279500D01*
X137604500Y-77279500D02*
X137668000Y-77343000D01*
D27*
X167687500Y-83375500D02*
X169291000Y-83375500D01*
X170132500Y-82661000D02*
X169354500Y-83439000D01*
X170132500Y-82661000D02*
X171069000Y-82661000D01*
X169291000Y-83375500D02*
X169354500Y-83439000D01*
X149876000Y-73279000D02*
X149876000Y-71199500D01*
X149590000Y-70913500D02*
X149606000Y-70929500D01*
X149590000Y-70913500D02*
X147955000Y-70913500D01*
X149876000Y-71199500D02*
X149606000Y-70929500D01*
D26*
X174053500Y-67754500D02*
X172656500Y-67754500D01*
X172656500Y-67754500D02*
X172720000Y-67754500D01*
X136080500Y-66103500D02*
X137350500Y-66103500D01*
X137350500Y-66103500D02*
X137541000Y-65913000D01*
X133350000Y-56578500D02*
X134239000Y-56578500D01*
X134239000Y-56578500D02*
X134874000Y-55943500D01*
X156638500Y-53276500D02*
X158305500Y-53276500D01*
D27*
X168576500Y-61404500D02*
X168973500Y-61404500D01*
X168973500Y-61404500D02*
X170307000Y-60071000D01*
X170799000Y-71945500D02*
X169354500Y-71945500D01*
X169164000Y-72136000D02*
X169354500Y-71945500D01*
X169164000Y-72136000D02*
X167751000Y-72136000D01*
X170799000Y-71945500D02*
X171005500Y-71739000D01*
X149495000Y-62738000D02*
X149495000Y-60404500D01*
X149463000Y-60372500D02*
X149479000Y-60388500D01*
X149463000Y-60372500D02*
X147828000Y-60372500D01*
X149495000Y-60404500D02*
X149479000Y-60388500D01*
X171767500Y-60055000D02*
X170323000Y-60055000D01*
X170323000Y-60055000D02*
X170307000Y-60071000D01*
X144756000Y-65619500D02*
X146677000Y-65619500D01*
X146677000Y-65619500D02*
X147018500Y-65278000D01*
X143256000Y-65119500D02*
X144256000Y-65119500D01*
X144256000Y-65119500D02*
X144756000Y-65619500D01*
X139319000Y-64849500D02*
X142986000Y-64849500D01*
X142986000Y-64849500D02*
X143256000Y-65119500D01*
X144629000Y-87336500D02*
X146867500Y-87336500D01*
X146867500Y-87336500D02*
X146955000Y-87249000D01*
X143129000Y-86836500D02*
X144129000Y-86836500D01*
X144129000Y-86836500D02*
X144629000Y-87336500D01*
X139128500Y-86757000D02*
X143049500Y-86757000D01*
X143049500Y-86757000D02*
X143129000Y-86836500D01*
X144438500Y-98322000D02*
X146725000Y-98322000D01*
X146725000Y-98322000D02*
X146828000Y-98425000D01*
X142938500Y-97822000D02*
X143938500Y-97822000D01*
X143938500Y-97822000D02*
X144438500Y-98322000D01*
X138938000Y-97806000D02*
X142922500Y-97806000D01*
X142922500Y-97806000D02*
X142938500Y-97822000D01*
X144184500Y-120610500D02*
X146550000Y-120610500D01*
X146550000Y-120610500D02*
X146574000Y-120586500D01*
X142684500Y-120110500D02*
X143684500Y-120110500D01*
X143684500Y-120110500D02*
X144184500Y-120610500D01*
X138811000Y-119269000D02*
X141843000Y-119269000D01*
X141843000Y-119269000D02*
X142684500Y-120110500D01*
D28*
X152170000Y-55078500D02*
X152836500Y-55078500D01*
X152836500Y-55078500D02*
X154638500Y-53276500D01*
D27*
X152170000Y-55078500D02*
X152170000Y-56078500D01*
X152170000Y-56078500D02*
X151670000Y-56578500D01*
X152543000Y-54705500D02*
X152170000Y-55078500D01*
X153114500Y-60833000D02*
X153114500Y-58023000D01*
X153114500Y-58023000D02*
X151670000Y-56578500D01*
X148828000Y-54483000D02*
X151574500Y-54483000D01*
D28*
X151574500Y-54483000D02*
X152170000Y-55078500D01*
D27*
X151495000Y-62738000D02*
X151495000Y-64944500D01*
X151495000Y-64944500D02*
X152043000Y-65492500D01*
X153114500Y-70993000D02*
X152908000Y-70993000D01*
X152908000Y-70993000D02*
X151543000Y-69628000D01*
X151543000Y-69628000D02*
X151543000Y-66992500D01*
X151543000Y-66992500D02*
X151543000Y-65992500D01*
X151543000Y-65992500D02*
X152043000Y-65492500D01*
X149018500Y-65278000D02*
X151828500Y-65278000D01*
X151828500Y-65278000D02*
X152043000Y-65492500D01*
X152924000Y-81851500D02*
X152924000Y-81740500D01*
X152924000Y-81740500D02*
X151543000Y-80359500D01*
X151543000Y-80359500D02*
X151543000Y-77533500D01*
X152043000Y-76033500D02*
X152043000Y-73446000D01*
X152043000Y-73446000D02*
X151876000Y-73279000D01*
X151543000Y-77533500D02*
X151543000Y-76533500D01*
X151543000Y-76533500D02*
X152043000Y-76033500D01*
X149145500Y-75819000D02*
X149828500Y-75819000D01*
X149828500Y-75819000D02*
X151543000Y-77533500D01*
X151685500Y-95948500D02*
X151685500Y-98155000D01*
X151685500Y-98155000D02*
X151916000Y-98385500D01*
X151416000Y-99885500D02*
X151416000Y-102759000D01*
X151416000Y-102759000D02*
X152670000Y-104013000D01*
X151416000Y-99885500D02*
X151416000Y-98885500D01*
X151416000Y-98885500D02*
X151916000Y-98385500D01*
X148828000Y-98425000D02*
X149955500Y-98425000D01*
X149955500Y-98425000D02*
X151416000Y-99885500D01*
X155170000Y-58078500D02*
X155170000Y-57078500D01*
X155170000Y-57078500D02*
X155670000Y-56578500D01*
X155114500Y-60833000D02*
X155114500Y-58134000D01*
X155114500Y-58134000D02*
X155170000Y-58078500D01*
X159020000Y-58102500D02*
X155194000Y-58102500D01*
X155194000Y-58102500D02*
X155170000Y-58078500D01*
X154662000Y-112307500D02*
X154662000Y-111307500D01*
X154662000Y-111307500D02*
X155162000Y-110807500D01*
X154662000Y-112307500D02*
X157789500Y-112307500D01*
X157789500Y-112307500D02*
X158575500Y-113093500D01*
X154479500Y-114935000D02*
X154479500Y-112490000D01*
X154479500Y-112490000D02*
X154662000Y-112307500D01*
X162901500Y-125452000D02*
X162742500Y-125452000D01*
X162742500Y-125452000D02*
X160083500Y-122793000D01*
X164401500Y-125952000D02*
X164401500Y-128571500D01*
X164401500Y-128571500D02*
X165179500Y-129349500D01*
X162901500Y-125452000D02*
X163901500Y-125452000D01*
X163901500Y-125452000D02*
X164401500Y-125952000D01*
X160194500Y-125285500D02*
X162735000Y-125285500D01*
X162735000Y-125285500D02*
X162901500Y-125452000D01*
D26*
X116235500Y-73152000D02*
X117729000Y-73152000D01*
X119634000Y-76962000D02*
X121635500Y-76962000D01*
X119634000Y-75057000D02*
X119634000Y-76962000D01*
X117729000Y-73152000D02*
X119634000Y-75057000D01*
X115459000Y-86423500D02*
X115459000Y-86249000D01*
X115459000Y-86249000D02*
X112776000Y-83566000D01*
X113538000Y-73152000D02*
X116235500Y-73152000D01*
X112776000Y-73914000D02*
X113538000Y-73152000D01*
X112776000Y-83566000D02*
X112776000Y-73914000D01*
X112649000Y-89535000D02*
X114046000Y-88138000D01*
X115062000Y-87122000D02*
X115062000Y-86820500D01*
X114046000Y-88138000D02*
X115062000Y-87122000D01*
X115062000Y-86820500D02*
X115459000Y-86423500D01*
X112903000Y-119967500D02*
X112855500Y-119967500D01*
X112855500Y-119967500D02*
X111188500Y-118300500D01*
X111188500Y-118300500D02*
X111188500Y-115252500D01*
X111188500Y-115252500D02*
X112094000Y-114347000D01*
X112094000Y-114347000D02*
X112966500Y-114347000D01*
X112966500Y-114347000D02*
X112966500Y-112776000D01*
X112649000Y-89535000D02*
X116426000Y-89535000D01*
X112458500Y-89725500D02*
X112649000Y-89535000D01*
X112458500Y-112268000D02*
X112458500Y-89725500D01*
X112966500Y-112776000D02*
X112458500Y-112268000D01*
X121826000Y-93345000D02*
X120332500Y-93345000D01*
X117792500Y-89535000D02*
X116426000Y-89535000D01*
X119062500Y-90805000D02*
X117792500Y-89535000D01*
X119062500Y-92075000D02*
X119062500Y-90805000D01*
X120332500Y-93345000D02*
X119062500Y-92075000D01*
D27*
X165481000Y-54451500D02*
X166481000Y-54451500D01*
X166481000Y-54451500D02*
X166981000Y-54951500D01*
X161226500Y-53292500D02*
X164322000Y-53292500D01*
X164322000Y-53292500D02*
X165481000Y-54451500D01*
X169688000Y-53784500D02*
X168148000Y-53784500D01*
X168148000Y-53784500D02*
X166981000Y-54951500D01*
X165481000Y-65246500D02*
X161591500Y-65246500D01*
X161591500Y-65246500D02*
X161480500Y-65357500D01*
X166981000Y-65746500D02*
X165981000Y-65746500D01*
X165981000Y-65746500D02*
X165481000Y-65246500D01*
X169116500Y-64516000D02*
X168211500Y-64516000D01*
X168211500Y-64516000D02*
X166981000Y-65746500D01*
X166727000Y-76922500D02*
X169029000Y-76922500D01*
X169029000Y-76922500D02*
X169053000Y-76898500D01*
X165227000Y-76422500D02*
X166227000Y-76422500D01*
X166227000Y-76422500D02*
X166727000Y-76922500D01*
X161163000Y-76152500D02*
X164957000Y-76152500D01*
X164957000Y-76152500D02*
X165227000Y-76422500D01*
X166663500Y-88225500D02*
X168965500Y-88225500D01*
X168965500Y-88225500D02*
X169243500Y-87947500D01*
X165163500Y-87725500D02*
X166163500Y-87725500D01*
X166163500Y-87725500D02*
X166663500Y-88225500D01*
X161099500Y-86312500D02*
X163750500Y-86312500D01*
X163750500Y-86312500D02*
X165163500Y-87725500D01*
X166346000Y-99528500D02*
X168648000Y-99528500D01*
X168648000Y-99528500D02*
X168862500Y-99314000D01*
X164846000Y-99028500D02*
X165846000Y-99028500D01*
X165846000Y-99028500D02*
X166346000Y-99528500D01*
X160845500Y-97298000D02*
X163115500Y-97298000D01*
X163115500Y-97298000D02*
X164846000Y-99028500D01*
X166155500Y-110831500D02*
X168711500Y-110831500D01*
X168711500Y-110831500D02*
X168799000Y-110744000D01*
X164655500Y-110331500D02*
X165655500Y-110331500D01*
X165655500Y-110331500D02*
X166155500Y-110831500D01*
X160591500Y-108791500D02*
X163115500Y-108791500D01*
X163115500Y-108791500D02*
X164655500Y-110331500D01*
D26*
X174117000Y-111734600D02*
X173647100Y-111734600D01*
X172656500Y-110744000D02*
X170799000Y-110744000D01*
X173647100Y-111734600D02*
X172656500Y-110744000D01*
D27*
X170799000Y-110744000D02*
X170799000Y-114363500D01*
X170799000Y-114363500D02*
X170942000Y-114506500D01*
D26*
X173926500Y-123291600D02*
X173710600Y-123291600D01*
X173710600Y-123291600D02*
X172783500Y-122364500D01*
X172783500Y-122364500D02*
X170608500Y-122364500D01*
D27*
X170608500Y-122364500D02*
X170608500Y-126016000D01*
X170608500Y-126016000D02*
X170561000Y-126063500D01*
D26*
X133921500Y-86588600D02*
X134594600Y-86588600D01*
X120015000Y-97155000D02*
X121826000Y-97155000D01*
X119951500Y-97218500D02*
X120015000Y-97155000D01*
X124714000Y-96964500D02*
X124714000Y-99123500D01*
X124904500Y-96774000D02*
X124714000Y-96964500D01*
X134874000Y-91948000D02*
X130365500Y-96456500D01*
X134874000Y-86868000D02*
X134874000Y-91948000D01*
X134594600Y-86588600D02*
X134874000Y-86868000D01*
X173593000Y-85090000D02*
X175133000Y-85090000D01*
X175133000Y-85090000D02*
X175387000Y-84836000D01*
X133921500Y-82486500D02*
X133921500Y-86588600D01*
X134048500Y-82359500D02*
X133921500Y-82486500D01*
X134366000Y-49276000D02*
X129667000Y-53975000D01*
X179260500Y-49276000D02*
X134366000Y-49276000D01*
X183515000Y-53530500D02*
X179260500Y-49276000D01*
X176403000Y-90385900D02*
X175920400Y-90385900D01*
X175387000Y-84582000D02*
X179959000Y-80010000D01*
X175387000Y-89852500D02*
X175387000Y-85788500D01*
X175387000Y-85788500D02*
X175387000Y-84836000D01*
X175387000Y-84836000D02*
X175387000Y-84582000D01*
X175920400Y-90385900D02*
X175387000Y-89852500D01*
X123174000Y-61531500D02*
X128333500Y-61531500D01*
X128270000Y-61595000D02*
X128333500Y-61595000D01*
X128333500Y-61531500D02*
X128270000Y-61595000D01*
X134048500Y-66103500D02*
X128333500Y-66103500D01*
X134175500Y-77279500D02*
X128333500Y-77279500D01*
X133921500Y-87249000D02*
X128333500Y-87249000D01*
X133794500Y-98615500D02*
X128333500Y-98615500D01*
X128333500Y-98615500D02*
X128397000Y-98615500D01*
X128397000Y-98615500D02*
X128333500Y-98615500D01*
X133921500Y-108775500D02*
X128333500Y-108775500D01*
X128333500Y-110109000D02*
X128333500Y-117729000D01*
X129159000Y-56578500D02*
X128333500Y-57404000D01*
X128333500Y-57404000D02*
X128333500Y-61595000D01*
X128333500Y-61595000D02*
X128333500Y-66103500D01*
X128333500Y-66103500D02*
X128333500Y-77279500D01*
X128333500Y-77279500D02*
X128333500Y-87249000D01*
X128333500Y-87249000D02*
X128333500Y-98615500D01*
X128333500Y-98615500D02*
X128333500Y-108839000D01*
X128333500Y-108839000D02*
X128333500Y-110109000D01*
X131318000Y-56578500D02*
X129159000Y-56578500D01*
X130810000Y-120205500D02*
X133604000Y-120205500D01*
X128333500Y-117729000D02*
X130810000Y-120205500D01*
X115824000Y-61404500D02*
X121047000Y-61404500D01*
X121047000Y-61404500D02*
X121174000Y-61531500D01*
X136461500Y-57467500D02*
X137588500Y-57467500D01*
X137588500Y-57467500D02*
X139319000Y-55737000D01*
D27*
X141565500Y-58015000D02*
X142565500Y-58015000D01*
X142565500Y-58015000D02*
X143065500Y-58515000D01*
D26*
X138827000Y-55737000D02*
X139319000Y-55737000D01*
D27*
X147828000Y-58372500D02*
X143208000Y-58372500D01*
X143208000Y-58372500D02*
X143065500Y-58515000D01*
D26*
X139319000Y-55737000D02*
X139319000Y-55768500D01*
D27*
X139319000Y-55768500D02*
X141565500Y-58015000D01*
D26*
X136080500Y-66763900D02*
X139233400Y-66763900D01*
X139233400Y-66763900D02*
X139319000Y-66849500D01*
D27*
X147955000Y-68913500D02*
X143462000Y-68913500D01*
X143462000Y-68913500D02*
X143256000Y-69119500D01*
X139319000Y-66849500D02*
X139986000Y-66849500D01*
X139986000Y-66849500D02*
X141756000Y-68619500D01*
X141756000Y-68619500D02*
X142756000Y-68619500D01*
X142756000Y-68619500D02*
X143256000Y-69119500D01*
D26*
X136207500Y-77939900D02*
X136931400Y-77939900D01*
X137287000Y-78295500D02*
X138922000Y-78295500D01*
X136931400Y-77939900D02*
X137287000Y-78295500D01*
X138922000Y-78295500D02*
X139382500Y-77835000D01*
D27*
X143256000Y-79787500D02*
X147843500Y-79787500D01*
X147843500Y-79787500D02*
X148018500Y-79962500D01*
X141756000Y-79287500D02*
X142756000Y-79287500D01*
X142756000Y-79287500D02*
X143256000Y-79787500D01*
X139382500Y-77835000D02*
X140303500Y-77835000D01*
X140303500Y-77835000D02*
X141756000Y-79287500D01*
X143129000Y-90836500D02*
X147335500Y-90836500D01*
X147335500Y-90836500D02*
X147828000Y-91329000D01*
X141629000Y-90336500D02*
X142629000Y-90336500D01*
X142629000Y-90336500D02*
X143129000Y-90836500D01*
X139128500Y-88757000D02*
X140049500Y-88757000D01*
X140049500Y-88757000D02*
X141629000Y-90336500D01*
D26*
X136144000Y-87909400D02*
X136867900Y-87909400D01*
X137715500Y-88757000D02*
X139128500Y-88757000D01*
X136867900Y-87909400D02*
X137715500Y-88757000D01*
X135826500Y-99275900D02*
X136486900Y-99275900D01*
X137017000Y-99806000D02*
X138938000Y-99806000D01*
X136486900Y-99275900D02*
X137017000Y-99806000D01*
D27*
X142938500Y-101822000D02*
X147558500Y-101822000D01*
X147558500Y-101822000D02*
X147574000Y-101806500D01*
X141438500Y-101322000D02*
X142438500Y-101322000D01*
X142438500Y-101322000D02*
X142938500Y-101822000D01*
X138938000Y-99806000D02*
X139922500Y-99806000D01*
X139922500Y-99806000D02*
X141438500Y-101322000D01*
D26*
X135953500Y-109435900D02*
X137058400Y-109435900D01*
X137525000Y-109902500D02*
X138938000Y-109902500D01*
X137058400Y-109435900D02*
X137525000Y-109902500D01*
D27*
X142875000Y-112617000D02*
X147399000Y-112617000D01*
X147399000Y-112617000D02*
X147510500Y-112728500D01*
X141375000Y-112117000D02*
X142375000Y-112117000D01*
X142375000Y-112117000D02*
X142875000Y-112617000D01*
X138938000Y-109902500D02*
X139160500Y-109902500D01*
X139160500Y-109902500D02*
X141375000Y-112117000D01*
D26*
X135636000Y-120865900D02*
X138407900Y-120865900D01*
X138407900Y-120865900D02*
X138811000Y-121269000D01*
D27*
X142684500Y-124110500D02*
X147081500Y-124110500D01*
X147081500Y-124110500D02*
X147383500Y-124412500D01*
X141184500Y-123610500D02*
X142184500Y-123610500D01*
X142184500Y-123610500D02*
X142684500Y-124110500D01*
X138811000Y-121269000D02*
X138843000Y-121269000D01*
X138843000Y-121269000D02*
X141184500Y-123610500D01*
X143065500Y-54515000D02*
X144065500Y-54515000D01*
X144065500Y-54515000D02*
X144565500Y-55015000D01*
X144565500Y-55015000D02*
X146296000Y-55015000D01*
X146296000Y-55015000D02*
X146828000Y-54483000D01*
X139319000Y-53737000D02*
X142287500Y-53737000D01*
D26*
X142287500Y-53737000D02*
X143065500Y-54515000D01*
D27*
X144756000Y-76287500D02*
X146677000Y-76287500D01*
X146677000Y-76287500D02*
X147145500Y-75819000D01*
X143256000Y-75787500D02*
X144256000Y-75787500D01*
X144256000Y-75787500D02*
X144756000Y-76287500D01*
X143256000Y-75787500D02*
X139430000Y-75787500D01*
X139430000Y-75787500D02*
X139382500Y-75835000D01*
X144375000Y-109117000D02*
X146359500Y-109117000D01*
X146359500Y-109117000D02*
X146574000Y-108902500D01*
X142875000Y-108617000D02*
X143875000Y-108617000D01*
X143875000Y-108617000D02*
X144375000Y-109117000D01*
X138938000Y-107902500D02*
X142160500Y-107902500D01*
X142160500Y-107902500D02*
X142875000Y-108617000D01*
X151352500Y-88900000D02*
X151352500Y-91710000D01*
X151352500Y-91710000D02*
X152733500Y-93091000D01*
X151852500Y-87400000D02*
X151852500Y-84478500D01*
X151852500Y-84478500D02*
X151939500Y-84391500D01*
X151352500Y-88900000D02*
X151352500Y-87900000D01*
X151352500Y-87900000D02*
X151852500Y-87400000D01*
X148955000Y-87249000D02*
X149701500Y-87249000D01*
X149701500Y-87249000D02*
X151352500Y-88900000D01*
X151162000Y-110807500D02*
X151162000Y-113617500D01*
X151162000Y-113617500D02*
X152479500Y-114935000D01*
X151662000Y-109307500D02*
X151662000Y-106593000D01*
X151662000Y-106593000D02*
X151495000Y-106426000D01*
X151162000Y-110807500D02*
X151162000Y-109807500D01*
X151162000Y-109807500D02*
X151662000Y-109307500D01*
X151162000Y-110807500D02*
X150479000Y-110807500D01*
X150479000Y-110807500D02*
X148574000Y-108902500D01*
X152543000Y-126555500D02*
X152543000Y-126254000D01*
X152543000Y-126254000D02*
X151289000Y-125000000D01*
X151289000Y-125000000D02*
X151289000Y-122110500D01*
X151789000Y-120610500D02*
X151789000Y-118150000D01*
X151789000Y-118150000D02*
X151177500Y-117538500D01*
X151289000Y-122110500D02*
X151289000Y-121110500D01*
X151289000Y-121110500D02*
X151789000Y-120610500D01*
X148574000Y-120586500D02*
X149765000Y-120586500D01*
X149765000Y-120586500D02*
X151289000Y-122110500D01*
X155043000Y-68492500D02*
X158234000Y-68492500D01*
X158234000Y-68492500D02*
X159210500Y-69469000D01*
X155043000Y-68492500D02*
X155043000Y-70921500D01*
X155043000Y-70921500D02*
X155114500Y-70993000D01*
X155043000Y-68492500D02*
X155043000Y-67492500D01*
X155043000Y-67492500D02*
X155543000Y-66992500D01*
X155043000Y-79033500D02*
X157599000Y-79033500D01*
X157599000Y-79033500D02*
X159020000Y-80454500D01*
X155043000Y-79033500D02*
X155043000Y-81732500D01*
X155043000Y-81732500D02*
X154924000Y-81851500D01*
X155543000Y-77533500D02*
X155543000Y-78533500D01*
X155543000Y-78533500D02*
X155043000Y-79033500D01*
X154852500Y-90400000D02*
X158615000Y-90400000D01*
X158615000Y-90400000D02*
X159210500Y-90995500D01*
X154852500Y-90400000D02*
X154852500Y-89400000D01*
X154852500Y-89400000D02*
X155352500Y-88900000D01*
X154733500Y-93091000D02*
X154733500Y-90519000D01*
X154733500Y-90519000D02*
X154852500Y-90400000D01*
X154916000Y-101385500D02*
X158297500Y-101385500D01*
X158297500Y-101385500D02*
X158766000Y-101854000D01*
X154916000Y-101385500D02*
X154916000Y-100385500D01*
X154916000Y-100385500D02*
X155416000Y-99885500D01*
X154670000Y-104013000D02*
X154670000Y-101631500D01*
X154670000Y-101631500D02*
X154916000Y-101385500D01*
X154789000Y-123610500D02*
X156519500Y-123610500D01*
X156519500Y-123610500D02*
X158194500Y-125285500D01*
X154789000Y-123610500D02*
X154789000Y-126309500D01*
X154789000Y-126309500D02*
X154543000Y-126555500D01*
X155289000Y-122110500D02*
X155289000Y-123110500D01*
X155289000Y-123110500D02*
X154789000Y-123610500D01*
X166576500Y-61404500D02*
X166576500Y-59547000D01*
X166576500Y-59547000D02*
X165481000Y-58451500D01*
X163981000Y-57951500D02*
X164981000Y-57951500D01*
X164981000Y-57951500D02*
X165481000Y-58451500D01*
X164068000Y-58038500D02*
X163981000Y-57951500D01*
X161020000Y-58102500D02*
X163830000Y-58102500D01*
X163830000Y-58102500D02*
X163981000Y-57951500D01*
X161226500Y-55292500D02*
X161322000Y-55292500D01*
X161322000Y-55292500D02*
X163981000Y-57951500D01*
X165481000Y-69246500D02*
X165481000Y-71866000D01*
X165481000Y-71866000D02*
X165751000Y-72136000D01*
X163973000Y-68754500D02*
X163981000Y-68746500D01*
X163981000Y-68746500D02*
X164981000Y-68746500D01*
X164981000Y-68746500D02*
X165481000Y-69246500D01*
X161480500Y-67357500D02*
X162592000Y-67357500D01*
X162592000Y-67357500D02*
X163981000Y-68746500D01*
X161210500Y-69469000D02*
X163258500Y-69469000D01*
X163258500Y-69469000D02*
X163981000Y-68746500D01*
X163727000Y-79922500D02*
X163727000Y-79589500D01*
X163727000Y-79589500D02*
X162290000Y-78152500D01*
X162290000Y-78152500D02*
X161163000Y-78152500D01*
X165227000Y-80422500D02*
X165227000Y-82915000D01*
X165227000Y-82915000D02*
X165687500Y-83375500D01*
X163727000Y-79922500D02*
X164727000Y-79922500D01*
X164727000Y-79922500D02*
X165227000Y-80422500D01*
X161020000Y-80454500D02*
X163195000Y-80454500D01*
X163195000Y-80454500D02*
X163727000Y-79922500D01*
X163663500Y-91225500D02*
X163663500Y-90876500D01*
X163663500Y-90876500D02*
X161099500Y-88312500D01*
X165163500Y-91725500D02*
X165163500Y-93900500D01*
X165163500Y-93900500D02*
X165941500Y-94678500D01*
X163663500Y-91225500D02*
X164663500Y-91225500D01*
X164663500Y-91225500D02*
X165163500Y-91725500D01*
X161210500Y-90995500D02*
X163433500Y-90995500D01*
X163433500Y-90995500D02*
X163663500Y-91225500D01*
X164846000Y-103028500D02*
X164846000Y-105076500D01*
X164846000Y-105076500D02*
X165751000Y-105981500D01*
X163346000Y-102528500D02*
X163346000Y-101798500D01*
X163346000Y-101798500D02*
X160845500Y-99298000D01*
X163346000Y-102528500D02*
X164346000Y-102528500D01*
X164346000Y-102528500D02*
X164846000Y-103028500D01*
X160766000Y-101854000D02*
X162671500Y-101854000D01*
X162671500Y-101854000D02*
X163346000Y-102528500D01*
X163155500Y-113831500D02*
X163155500Y-113355500D01*
X163155500Y-113355500D02*
X160591500Y-110791500D01*
X164655500Y-114331500D02*
X164655500Y-116697000D01*
X164655500Y-116697000D02*
X165433500Y-117475000D01*
X163155500Y-113831500D02*
X164155500Y-113831500D01*
X164155500Y-113831500D02*
X164655500Y-114331500D01*
X160575500Y-113093500D02*
X162417500Y-113093500D01*
X162417500Y-113093500D02*
X163155500Y-113831500D01*
D26*
X131318000Y-55918100D02*
X128676400Y-55918100D01*
X120777000Y-90805000D02*
X121826000Y-90805000D01*
X119951500Y-89979500D02*
X120777000Y-90805000D01*
X119951500Y-87820500D02*
X119951500Y-89979500D01*
X120586500Y-87185500D02*
X119951500Y-87820500D01*
X121983500Y-85471000D02*
X121920000Y-85471000D01*
X125158500Y-82296000D02*
X121983500Y-85471000D01*
X125158500Y-74168000D02*
X125158500Y-82296000D01*
X127444500Y-57150000D02*
X127444500Y-60452000D01*
X128676400Y-55918100D02*
X127444500Y-57150000D01*
X181800500Y-61166500D02*
X181800500Y-58889900D01*
X181800500Y-58889900D02*
X181165500Y-58254900D01*
X131318000Y-55918100D02*
X131851400Y-55918100D01*
X180492400Y-58254900D02*
X181165500Y-58254900D01*
X180213000Y-57975500D02*
X180492400Y-58254900D01*
X180213000Y-53721000D02*
X180213000Y-57975500D01*
X178308000Y-51816000D02*
X180213000Y-53721000D01*
X135953500Y-51816000D02*
X178308000Y-51816000D01*
X131851400Y-55918100D02*
X135953500Y-51816000D01*
X164401500Y-121952000D02*
X165401500Y-121952000D01*
X165401500Y-121952000D02*
X165901500Y-122452000D01*
D27*
X165901500Y-122452000D02*
X168521000Y-122452000D01*
X168521000Y-122452000D02*
X168608500Y-122364500D01*
X160083500Y-120793000D02*
X163242500Y-120793000D01*
X163242500Y-120793000D02*
X164401500Y-121952000D01*
D26*
X175704500Y-57340500D02*
X172482000Y-57340500D01*
X172482000Y-57340500D02*
X171767500Y-58055000D01*
D27*
X171767500Y-58055000D02*
X171767500Y-53864000D01*
X171767500Y-53864000D02*
X171688000Y-53784500D01*
D26*
X174053500Y-67094100D02*
X174053500Y-66929000D01*
X174053500Y-66929000D02*
X171640500Y-64516000D01*
X171640500Y-64516000D02*
X171116500Y-64516000D01*
D27*
X171005500Y-69739000D02*
X171005500Y-67183000D01*
X171005500Y-66992500D02*
X171005500Y-64627000D01*
X171005500Y-64627000D02*
X171116500Y-64516000D01*
X171005500Y-67183000D02*
X171005500Y-66992500D01*
D26*
X174371000Y-78016100D02*
X173774100Y-78016100D01*
X172656500Y-76898500D02*
X171053000Y-76898500D01*
X173774100Y-78016100D02*
X172656500Y-76898500D01*
D27*
X171053000Y-76898500D02*
X171053000Y-80645000D01*
X171053000Y-80645000D02*
X171069000Y-80661000D01*
X171243500Y-87947500D02*
X171243500Y-91599000D01*
X171243500Y-91599000D02*
X171069000Y-91773500D01*
D26*
X174371000Y-89065100D02*
X173774100Y-89065100D01*
X172656500Y-87947500D02*
X171243500Y-87947500D01*
X173774100Y-89065100D02*
X172656500Y-87947500D01*
X174307500Y-100177600D02*
X173710600Y-100177600D01*
X172847000Y-99314000D02*
X170862500Y-99314000D01*
X173710600Y-100177600D02*
X172847000Y-99314000D01*
D27*
X170942000Y-102949500D02*
X170942000Y-99393500D01*
X170942000Y-99393500D02*
X170862500Y-99314000D01*
D26*
X182562500Y-125079000D02*
X182562500Y-129984500D01*
X182562500Y-129984500D02*
X182499000Y-130048000D01*
X182562500Y-123079000D02*
X182562500Y-122872500D01*
X182562500Y-122872500D02*
X180943250Y-121253250D01*
X176149000Y-112395000D02*
X183134000Y-112395000D01*
X183007000Y-112458500D02*
X183134000Y-112458500D01*
X183070500Y-112458500D02*
X183007000Y-112458500D01*
X183134000Y-112395000D02*
X183070500Y-112458500D01*
X176339500Y-100838000D02*
X183134000Y-100838000D01*
X183134000Y-100838000D02*
X183007000Y-100838000D01*
X183007000Y-100838000D02*
X183134000Y-100838000D01*
X176403000Y-89725500D02*
X183134000Y-89725500D01*
X183134000Y-89725500D02*
X183070500Y-89725500D01*
X183070500Y-89725500D02*
X183134000Y-89725500D01*
X176403000Y-78676500D02*
X181864000Y-78676500D01*
X181864000Y-78676500D02*
X183134000Y-78676500D01*
X183134000Y-78676500D02*
X183070500Y-78676500D01*
X183070500Y-78676500D02*
X183134000Y-78676500D01*
X176085500Y-67754500D02*
X182880000Y-67754500D01*
X182880000Y-67754500D02*
X183134000Y-67754500D01*
X175958500Y-123952000D02*
X178244500Y-123952000D01*
X182245000Y-57594500D02*
X181165500Y-57594500D01*
X183134000Y-58483500D02*
X182245000Y-57594500D01*
X183134000Y-119062500D02*
X183134000Y-112458500D01*
X183134000Y-112458500D02*
X183134000Y-100838000D01*
X183134000Y-100838000D02*
X183134000Y-89725500D01*
X183134000Y-89725500D02*
X183134000Y-78676500D01*
X183134000Y-78676500D02*
X183134000Y-67754500D01*
X183134000Y-67754500D02*
X183134000Y-58483500D01*
X178244500Y-123952000D02*
X180943250Y-121253250D01*
X180943250Y-121253250D02*
X183134000Y-119062500D01*
X116235500Y-74422000D02*
X117602000Y-74422000D01*
X131673600Y-65443100D02*
X134048500Y-65443100D01*
X131191000Y-64960500D02*
X131673600Y-65443100D01*
X117602000Y-74422000D02*
X118364000Y-75184000D01*
X175434500Y-63500000D02*
X175434500Y-63547500D01*
X175434500Y-63547500D02*
X176752250Y-64865250D01*
X176085500Y-68414900D02*
X175348900Y-68414900D01*
X134048500Y-61658500D02*
X134048500Y-65443100D01*
X132397500Y-60007500D02*
X134048500Y-61658500D01*
X132524500Y-53975000D02*
X132397500Y-53975000D01*
X135572500Y-50927000D02*
X132524500Y-53975000D01*
X178435000Y-50927000D02*
X135572500Y-50927000D01*
X181292500Y-53784500D02*
X178435000Y-50927000D01*
X181292500Y-55372000D02*
X181292500Y-53784500D01*
X175069500Y-66548000D02*
X176752250Y-64865250D01*
X176752250Y-64865250D02*
X180149500Y-61468000D01*
X175069500Y-68135500D02*
X175069500Y-66548000D01*
X175348900Y-68414900D02*
X175069500Y-68135500D01*
X121826000Y-94615000D02*
X123253500Y-94615000D01*
X131927600Y-76619100D02*
X134175500Y-76619100D01*
X131572000Y-76263500D02*
X131927600Y-76619100D01*
X123253500Y-94615000D02*
X123634500Y-94234000D01*
X173847000Y-73914000D02*
X175260000Y-73914000D01*
X175260000Y-73914000D02*
X175387000Y-73787000D01*
X175983900Y-79336900D02*
X175387000Y-78740000D01*
X175387000Y-78740000D02*
X175387000Y-74930000D01*
X175387000Y-74930000D02*
X175387000Y-73787000D01*
X175387000Y-73787000D02*
X179895500Y-69278500D01*
X182372000Y-54546500D02*
X182372000Y-53594000D01*
X182372000Y-53594000D02*
X178816000Y-50038000D01*
X178816000Y-50038000D02*
X135001000Y-50038000D01*
X135001000Y-50038000D02*
X131064000Y-53975000D01*
X135128000Y-69151500D02*
X135191500Y-69215000D01*
X135191500Y-69215000D02*
X135191500Y-75603100D01*
X134175500Y-76619100D02*
X135191500Y-75603100D01*
X175983900Y-79336900D02*
X176403000Y-79336900D01*
X118110000Y-95885000D02*
X118999000Y-96774000D01*
X118999000Y-96774000D02*
X118999000Y-98679000D01*
X116426000Y-95885000D02*
X118110000Y-95885000D01*
X173212000Y-107759500D02*
X174752000Y-107759500D01*
X174752000Y-107759500D02*
X175133000Y-107378500D01*
X133794500Y-97955100D02*
X134213600Y-97955100D01*
X176339500Y-103314500D02*
X176339500Y-101498400D01*
X175133000Y-104521000D02*
X176339500Y-103314500D01*
X175133000Y-117729000D02*
X175133000Y-107378500D01*
X175133000Y-107378500D02*
X175133000Y-104521000D01*
X175387000Y-117983000D02*
X175133000Y-117729000D01*
X178117500Y-129857500D02*
X178117500Y-125412500D01*
X173990000Y-133985000D02*
X178117500Y-129857500D01*
X137985500Y-133985000D02*
X173990000Y-133985000D01*
X133921500Y-129921000D02*
X137985500Y-133985000D01*
X134810500Y-105283000D02*
X133794500Y-106299000D01*
X134810500Y-98552000D02*
X134810500Y-105283000D01*
X134213600Y-97955100D02*
X134810500Y-98552000D01*
X133921500Y-108115100D02*
X132626100Y-108115100D01*
X118173500Y-93345000D02*
X116426000Y-93345000D01*
X118237000Y-93408500D02*
X118173500Y-93345000D01*
X130492500Y-105981500D02*
X130492500Y-103568500D01*
X132626100Y-108115100D02*
X130492500Y-105981500D01*
X173656500Y-119253000D02*
X174688500Y-119253000D01*
X174688500Y-119253000D02*
X176974500Y-121539000D01*
X133921500Y-108115100D02*
X134594600Y-108115100D01*
X176974500Y-113855500D02*
X176174400Y-113055400D01*
X176974500Y-121539000D02*
X176974500Y-113855500D01*
X176974500Y-129540000D02*
X176974500Y-126174500D01*
X174244000Y-132270500D02*
X176974500Y-129540000D01*
X139065000Y-132270500D02*
X174244000Y-132270500D01*
X134874000Y-128079500D02*
X139065000Y-132270500D01*
X134874000Y-108394500D02*
X134874000Y-118110000D01*
X134594600Y-108115100D02*
X134874000Y-108394500D01*
X176174400Y-113055400D02*
X176149000Y-113055400D01*
X121826000Y-89535000D02*
X121826000Y-88298000D01*
X121826000Y-88298000D02*
X121793000Y-88265000D01*
X121635500Y-73152000D02*
X121635500Y-72547500D01*
X121635500Y-72547500D02*
X127000000Y-67183000D01*
X127444500Y-121809000D02*
X127555500Y-121809000D01*
X127555500Y-121809000D02*
X129286000Y-120078500D01*
X175958500Y-123291600D02*
X175285400Y-123291600D01*
X132969000Y-121500900D02*
X133604000Y-120865900D01*
X132969000Y-130365500D02*
X132969000Y-121500900D01*
X137604500Y-135001000D02*
X132969000Y-130365500D01*
X168783000Y-135001000D02*
X137604500Y-135001000D01*
X173609000Y-130238500D02*
X173418500Y-130238500D01*
X174942500Y-128905000D02*
X173609000Y-130238500D01*
X174942500Y-123634500D02*
X174942500Y-128905000D01*
X175285400Y-123291600D02*
X174942500Y-123634500D01*
X129286000Y-67056000D02*
X133756400Y-67056000D01*
X133756400Y-67056000D02*
X134048500Y-66763900D01*
X129286000Y-78232000D02*
X133883400Y-78232000D01*
X133883400Y-78232000D02*
X134175500Y-77939900D01*
X129286000Y-88201500D02*
X133629400Y-88201500D01*
X133629400Y-88201500D02*
X133921500Y-87909400D01*
X129286000Y-99568000D02*
X133502400Y-99568000D01*
X133502400Y-99568000D02*
X133794500Y-99275900D01*
X129286000Y-109728000D02*
X133629400Y-109728000D01*
X133629400Y-109728000D02*
X133921500Y-109435900D01*
X131318000Y-57238900D02*
X130467100Y-57238900D01*
X130111500Y-120904000D02*
X133565900Y-120904000D01*
X129794000Y-120586500D02*
X130111500Y-120904000D01*
X129286000Y-120078500D02*
X129794000Y-120586500D01*
X129286000Y-109728000D02*
X129286000Y-117475000D01*
X129286000Y-99568000D02*
X129286000Y-107823000D01*
X129286000Y-88201500D02*
X129286000Y-97663000D01*
X129286000Y-78232000D02*
X129286000Y-86296500D01*
X129286000Y-67056000D02*
X129286000Y-76327000D01*
X129286000Y-58420000D02*
X129286000Y-65214500D01*
X130467100Y-57238900D02*
X129286000Y-58420000D01*
X133565900Y-120904000D02*
X133604000Y-120865900D01*
X182245000Y-77787500D02*
X176631600Y-77787500D01*
X176631600Y-77787500D02*
X176403000Y-78016100D01*
X182245000Y-88773000D02*
X176695100Y-88773000D01*
X176695100Y-88773000D02*
X176403000Y-89065100D01*
X182245000Y-99949000D02*
X176568100Y-99949000D01*
X176568100Y-99949000D02*
X176339500Y-100177600D01*
X182245000Y-111506000D02*
X176377600Y-111506000D01*
X176377600Y-111506000D02*
X176149000Y-111734600D01*
X177634900Y-123291600D02*
X175958500Y-123291600D01*
X182245000Y-118681500D02*
X177634900Y-123291600D01*
X182245000Y-113347500D02*
X182245000Y-118681500D01*
X182245000Y-101790500D02*
X182245000Y-111506000D01*
X182245000Y-90678000D02*
X182245000Y-99949000D01*
X182245000Y-79629000D02*
X182245000Y-88773000D01*
X182245000Y-68834000D02*
X182245000Y-77787500D01*
X182181500Y-68770500D02*
X182245000Y-68834000D01*
X181165500Y-56934100D02*
X182918100Y-56934100D01*
X180555900Y-67094100D02*
X176085500Y-67094100D01*
X182181500Y-65468500D02*
X180555900Y-67094100D01*
X184023000Y-58039000D02*
X184023000Y-65468500D01*
X182918100Y-56934100D02*
X184023000Y-58039000D01*
X133604000Y-119545100D02*
X132689600Y-119545100D01*
X114046000Y-90805000D02*
X116426000Y-90805000D01*
X130619500Y-117475000D02*
X130619500Y-111950500D01*
X132689600Y-119545100D02*
X130619500Y-117475000D01*
X147526500Y-129286000D02*
X147526500Y-129905000D01*
X147526500Y-129905000D02*
X146240500Y-131191000D01*
X133604000Y-119545100D02*
X134277100Y-119545100D01*
X175958500Y-129159000D02*
X175958500Y-124612400D01*
X173926500Y-131191000D02*
X175958500Y-129159000D01*
X139700000Y-131191000D02*
X146240500Y-131191000D01*
X146240500Y-131191000D02*
X173926500Y-131191000D01*
X134683500Y-126174500D02*
X139700000Y-131191000D01*
X134683500Y-119951500D02*
X134683500Y-126174500D01*
X134277100Y-119545100D02*
X134683500Y-119951500D01*
X116426000Y-92075000D02*
X114998500Y-92075000D01*
X113601500Y-108394500D02*
X117538500Y-112331500D01*
X113601500Y-93472000D02*
X113601500Y-108394500D01*
X114998500Y-92075000D02*
X113601500Y-93472000D01*
X120078500Y-112331500D02*
X121158000Y-112331500D01*
X114935000Y-94615000D02*
X116426000Y-94615000D01*
X114363500Y-95186500D02*
X114935000Y-94615000D01*
X114363500Y-100520500D02*
X114363500Y-95186500D01*
X122110500Y-108267500D02*
X114363500Y-100520500D01*
X122110500Y-111379000D02*
X122110500Y-108267500D01*
X121158000Y-112331500D02*
X122110500Y-111379000D01*
X120078500Y-114871500D02*
X120650000Y-114871500D01*
X120650000Y-114871500D02*
X122745500Y-112776000D01*
X122745500Y-112776000D02*
X122745500Y-107696000D01*
X122745500Y-107696000D02*
X118046500Y-102997000D01*
X118046500Y-102997000D02*
X118046500Y-97472500D01*
X118046500Y-97472500D02*
X117729000Y-97155000D01*
X117729000Y-97155000D02*
X116426000Y-97155000D01*
X120078500Y-119951500D02*
X120078500Y-119824500D01*
X120078500Y-119824500D02*
X124777500Y-115125500D01*
X124777500Y-115125500D02*
X124777500Y-101727000D01*
X122237500Y-100076000D02*
X121826000Y-99664500D01*
X121826000Y-99664500D02*
X121826000Y-98425000D01*
X120078500Y-117411500D02*
X120205500Y-117411500D01*
X120205500Y-117411500D02*
X123761500Y-113855500D01*
X123761500Y-113855500D02*
X123761500Y-96774000D01*
X123761500Y-96774000D02*
X122872500Y-95885000D01*
X122872500Y-95885000D02*
X121826000Y-95885000D01*
X123698000Y-92773500D02*
X123190000Y-92265500D01*
X126365000Y-118745000D02*
X126873000Y-118237000D01*
X126873000Y-118237000D02*
X126873000Y-95948500D01*
X126873000Y-95948500D02*
X126936500Y-95885000D01*
X124904500Y-93980000D02*
X123698000Y-92773500D01*
X120078500Y-125031500D02*
X123634500Y-121475500D01*
X123634500Y-121475500D02*
X126365000Y-118745000D01*
X123063000Y-92138500D02*
X121889500Y-92138500D01*
X123190000Y-92265500D02*
X123063000Y-92138500D01*
X121889500Y-92138500D02*
X121826000Y-92075000D01*
X120078500Y-122491500D02*
X120078500Y-122428000D01*
X120078500Y-122428000D02*
X125984000Y-116522500D01*
X125984000Y-116522500D02*
X125984000Y-90932000D01*
X125984000Y-90932000D02*
X118745000Y-83693000D01*
X118745000Y-83693000D02*
X118745000Y-76898500D01*
X118745000Y-76898500D02*
X117538500Y-75692000D01*
X117538500Y-75692000D02*
X116235500Y-75692000D01*
X112966500Y-117047000D02*
X113394500Y-117047000D01*
X113394500Y-117047000D02*
X115570000Y-114871500D01*
X115570000Y-114871500D02*
X117538500Y-114871500D01*
X133350000Y-57238900D02*
X133350000Y-57467500D01*
X133350000Y-57467500D02*
X136525000Y-60642500D01*
X133350000Y-55918100D02*
X133350000Y-55626000D01*
X134683500Y-54292500D02*
X136461500Y-54292500D01*
X133350000Y-55626000D02*
X134683500Y-54292500D01*
X179197000Y-56934100D02*
X178346100Y-56934100D01*
X178346100Y-56934100D02*
X175704500Y-54292500D01*
X179197000Y-58254900D02*
X178155600Y-58254900D01*
X178155600Y-58254900D02*
X175704500Y-60706000D01*
M02*
