M48
;DRILL file {KiCad 4.0.1-stable} date 12/03/2016 13:44:51
;FORMAT={3:3/ absolute / metric / keep zeros}
FMAT,2
METRIC,TZ
T1C0.635
T2C0.800
T3C0.900
T4C1.016
T5C3.900
%
G90
G05
M71
T1
X114046Y-090805
X116396Y-101092
X118237Y-093408
X118364Y-075184
X118999Y-098679
X119253Y-086423
X119951Y-097218
X120587Y-087186
X121793Y-088265
X121920Y-085471
X122238Y-100076
X123634Y-094234
X124714Y-099123
X124777Y-101727
X124905Y-093980
X124905Y-096774
X125158Y-074168
X126937Y-095885
X127000Y-067183
X127444Y-060452
X127444Y-125730
X129286Y-065215
X129286Y-067056
X129286Y-076327
X129286Y-078232
X129286Y-086297
X129286Y-088202
X129286Y-097663
X129286Y-099568
X129286Y-107823
X129286Y-109728
X129286Y-117475
X129286Y-120078
X129667Y-053975
X130366Y-096457
X130493Y-103568
X130619Y-111951
X131064Y-053975
X131191Y-064961
X131572Y-076264
X132398Y-053975
X132398Y-060008
X133795Y-106299
X133921Y-129921
X134049Y-082360
X134874Y-055943
X134874Y-118110
X134874Y-128080
X135128Y-069152
X137097Y-098298
X137097Y-119824
X137287Y-108394
X137351Y-086868
X137541Y-065913
X137668Y-077343
X149415Y-114935
X149479Y-060389
X149479Y-126556
X149543Y-093345
X149606Y-070929
X149670Y-104013
X149924Y-081979
X158306Y-053277
X168783Y-135001
X169101Y-129350
X169355Y-071946
X169355Y-083439
X169355Y-117475
X169418Y-094742
X169418Y-105982
X170307Y-060071
X172657Y-123952
X172720Y-067755
X172847Y-112395
X172974Y-078740
X173038Y-089726
X173038Y-100838
X173419Y-130238
X175387Y-117983
X176975Y-121539
X176975Y-126174
X177673Y-057531
X178117Y-125413
X178562Y-064453
X179896Y-069279
X179959Y-080010
X180149Y-061468
X181293Y-055372
X182182Y-065468
X182182Y-068771
X182245Y-077788
X182245Y-079629
X182245Y-088773
X182245Y-090678
X182245Y-099949
X182245Y-101791
X182245Y-111506
X182245Y-113348
X182372Y-054547
X183515Y-053530
X184023Y-065468
T2
X136462Y-054293
X136462Y-057468
X136525Y-060643
X175705Y-054293
X175705Y-057340
X175705Y-060706
T3
X141184Y-123610
X141375Y-112117
X141439Y-101322
X141565Y-058015
X141629Y-090337
X141756Y-068620
X141756Y-079288
X144184Y-120610
X144375Y-109117
X144439Y-098322
X144565Y-055015
X144629Y-087337
X144756Y-065620
X144756Y-076288
X151662Y-109307
X151789Y-120610
X151852Y-087400
X151916Y-098386
X152043Y-065493
X152043Y-076034
X152170Y-055078
X154662Y-112307
X154789Y-123610
X154852Y-090400
X154916Y-101386
X155043Y-068493
X155043Y-079034
X155170Y-058078
X162901Y-125452
X163156Y-113831
X163346Y-102528
X163664Y-091226
X163727Y-079923
X163981Y-057952
X163981Y-068747
X165901Y-122452
X166156Y-110831
X166346Y-099529
X166664Y-088226
X166727Y-076923
X166981Y-054952
X166981Y-065747
T4
X115824Y-058865
X115824Y-061405
X117539Y-109792
X117539Y-112331
X117539Y-114872
X117539Y-117411
X117539Y-119951
X117539Y-122492
X117539Y-125032
X120078Y-109792
X120078Y-112331
X120078Y-114872
X120078Y-117411
X120078Y-119951
X120078Y-122492
X120078Y-125032
X179959Y-130048
X182499Y-130048
T5
X113856Y-044958
X114237Y-136207
X185356Y-136398
X185611Y-044958
T0
M30
