G04 #@! TF.FileFunction,Copper,L2,Bot,Signal*
%FSLAX46Y46*%
G04 Gerber Fmt 4.6, Leading zero omitted, Abs format (unit mm)*
G04 Created by KiCad (PCBNEW 4.0.1-stable) date 14/03/2016 16:10:45*
%MOMM*%
G01*
G04 APERTURE LIST*
%ADD10C,0.100000*%
%ADD11C,6.350000*%
%ADD12R,2.032000X2.032000*%
%ADD13O,2.032000X2.032000*%
%ADD14R,1.727200X1.727200*%
%ADD15O,1.727200X1.727200*%
%ADD16R,1.300000X1.500000*%
%ADD17C,1.800000*%
%ADD18C,1.998980*%
%ADD19C,0.889000*%
%ADD20C,0.254000*%
G04 APERTURE END LIST*
D10*
D11*
X185610500Y-44958000D03*
X113855500Y-44958000D03*
X114236500Y-136207500D03*
X185356500Y-136398000D03*
D12*
X127635000Y-68453000D03*
D13*
X127635000Y-70993000D03*
D12*
X179959000Y-130048000D03*
D13*
X182499000Y-130048000D03*
D14*
X120078500Y-125031500D03*
D15*
X117538500Y-125031500D03*
X120078500Y-122491500D03*
X117538500Y-122491500D03*
X120078500Y-119951500D03*
X117538500Y-119951500D03*
X120078500Y-117411500D03*
X117538500Y-117411500D03*
X120078500Y-114871500D03*
X117538500Y-114871500D03*
X120078500Y-112331500D03*
X117538500Y-112331500D03*
X120078500Y-109791500D03*
X117538500Y-109791500D03*
D16*
X124841000Y-112315000D03*
X124841000Y-115015000D03*
D17*
X141565500Y-58015000D03*
X144565500Y-55015000D03*
X141756000Y-68619500D03*
X144756000Y-65619500D03*
X141756000Y-79287500D03*
X144756000Y-76287500D03*
X141629000Y-90336500D03*
X144629000Y-87336500D03*
X141438500Y-101322000D03*
X144438500Y-98322000D03*
X141375000Y-112117000D03*
X144375000Y-109117000D03*
X141184500Y-123610500D03*
X144184500Y-120610500D03*
X152170000Y-55078500D03*
X155170000Y-58078500D03*
X152043000Y-65492500D03*
X155043000Y-68492500D03*
X152043000Y-76033500D03*
X155043000Y-79033500D03*
X151852500Y-87400000D03*
X154852500Y-90400000D03*
X151916000Y-98385500D03*
X154916000Y-101385500D03*
X151662000Y-109307500D03*
X154662000Y-112307500D03*
X151789000Y-120610500D03*
X154789000Y-123610500D03*
X163981000Y-57951500D03*
X166981000Y-54951500D03*
X163981000Y-68746500D03*
X166981000Y-65746500D03*
X163727000Y-79922500D03*
X166727000Y-76922500D03*
X163663500Y-91225500D03*
X166663500Y-88225500D03*
X163346000Y-102528500D03*
X166346000Y-99528500D03*
X163155500Y-113831500D03*
X166155500Y-110831500D03*
X162901500Y-125452000D03*
X165901500Y-122452000D03*
D18*
X136525000Y-60642500D03*
X136461500Y-54292500D03*
X136461500Y-57467500D03*
X175704500Y-57340500D03*
X175704500Y-54292500D03*
X175704500Y-60706000D03*
D19*
X137668000Y-77343000D03*
X162242500Y-136906000D03*
X176784000Y-104394000D03*
X186626500Y-50736500D03*
X131191000Y-128333500D03*
X116395500Y-101092000D03*
X149669500Y-104013000D03*
X149923500Y-81978500D03*
X178562000Y-64452500D03*
X119253000Y-86423500D03*
X149479000Y-126555500D03*
X169354500Y-117475000D03*
X169354500Y-83439000D03*
X137096500Y-98298000D03*
X137287000Y-108394500D03*
X137096500Y-119824500D03*
X172656500Y-123952000D03*
X172847000Y-112395000D03*
X173037500Y-100838000D03*
X177673000Y-57531000D03*
X169100500Y-129349500D03*
X149415500Y-114935000D03*
X149542500Y-93345000D03*
X169418000Y-105981500D03*
X169418000Y-94742000D03*
X137350500Y-86868000D03*
X173037500Y-89725500D03*
X172974000Y-78740000D03*
X149606000Y-70929500D03*
X172720000Y-67754500D03*
X137541000Y-65913000D03*
X134874000Y-55943500D03*
X158305500Y-53276500D03*
X169354500Y-71945500D03*
X149479000Y-60388500D03*
X170307000Y-60071000D03*
X128016000Y-127698500D03*
X129413000Y-103251000D03*
X136144000Y-95758000D03*
X175387000Y-82042000D03*
X134937500Y-91884500D03*
X119951500Y-97218500D03*
X124714000Y-99123500D03*
X129667000Y-53975000D03*
X183515000Y-53530500D03*
X134048500Y-82359500D03*
X127508000Y-55562500D03*
X120586500Y-87185500D03*
X118364000Y-75184000D03*
X132397500Y-60007500D03*
X132397500Y-53975000D03*
X181292500Y-55372000D03*
X180149500Y-61468000D03*
X182372000Y-54546500D03*
X179895500Y-69278500D03*
X120967500Y-84137500D03*
X133096000Y-51943000D03*
X124523500Y-87693500D03*
X123634500Y-94234000D03*
X131064000Y-53975000D03*
X135128000Y-69151500D03*
X134620000Y-127762000D03*
X118999000Y-98679000D03*
X135763000Y-106299000D03*
X178117500Y-125412500D03*
X175387000Y-117983000D03*
X135890000Y-117665500D03*
X135890000Y-123888500D03*
X139065000Y-132270500D03*
X128333500Y-101409500D03*
X118237000Y-93408500D03*
X127889000Y-132270500D03*
X176974500Y-121539000D03*
X176974500Y-126174500D03*
X133794500Y-100965000D03*
X128079500Y-122999500D03*
X178244500Y-102679500D03*
X178308000Y-98488500D03*
X177673000Y-65976500D03*
X184658000Y-55499000D03*
X182181500Y-65468500D03*
X182181500Y-68770500D03*
X133985000Y-110934500D03*
X136239250Y-84963000D03*
X131191000Y-123126500D03*
X133731000Y-90297000D03*
X123634500Y-76771500D03*
X178244500Y-110363000D03*
X178244500Y-114046000D03*
X178244500Y-87630000D03*
X178244500Y-91440000D03*
X179387500Y-76835000D03*
X179324000Y-80835500D03*
X121793000Y-88265000D03*
X173418500Y-130238500D03*
X168783000Y-135001000D03*
X139763500Y-131191000D03*
X114046000Y-90805000D03*
X124777500Y-101727000D03*
X122237500Y-100076000D03*
X126936500Y-95885000D03*
X124904500Y-93980000D03*
D20*
X130238500Y-129921000D02*
X128016000Y-127698500D01*
X136906000Y-129921000D02*
X130238500Y-129921000D01*
X128778000Y-103187500D02*
X124714000Y-99123500D01*
X129349500Y-103187500D02*
X128778000Y-103187500D01*
X129413000Y-103251000D02*
X129349500Y-103187500D01*
X137223500Y-117538500D02*
X137223500Y-117729000D01*
X136144000Y-95758000D02*
X135890000Y-96012000D01*
X135890000Y-96012000D02*
X135890000Y-105156000D01*
X135890000Y-105156000D02*
X137287000Y-106553000D01*
X137287000Y-106553000D02*
X137223500Y-106553000D01*
X137223500Y-106553000D02*
X135890000Y-107886500D01*
X135890000Y-107886500D02*
X135890000Y-116205000D01*
X135890000Y-116205000D02*
X137223500Y-117538500D01*
X136461500Y-130365500D02*
X135826500Y-130365500D01*
X137414000Y-129413000D02*
X136906000Y-129921000D01*
X136906000Y-129921000D02*
X136461500Y-130365500D01*
X137414000Y-124079000D02*
X137414000Y-129413000D01*
X135890000Y-122555000D02*
X137414000Y-124079000D01*
X135890000Y-119062500D02*
X135890000Y-122555000D01*
X137223500Y-117729000D02*
X135890000Y-119062500D01*
X183515000Y-55245000D02*
X180784500Y-57975500D01*
X182308500Y-60706000D02*
X182308500Y-61976000D01*
X180784500Y-59182000D02*
X182308500Y-60706000D01*
X180784500Y-57975500D02*
X180784500Y-59182000D01*
X130429000Y-55245000D02*
X130492500Y-55245000D01*
X131191000Y-58610500D02*
X130429000Y-59372500D01*
X131191000Y-55943500D02*
X131191000Y-58610500D01*
X130492500Y-55245000D02*
X131191000Y-55943500D01*
X129667000Y-53975000D02*
X129667000Y-54419500D01*
X130429000Y-55181500D02*
X130429000Y-55245000D01*
X130429000Y-59372500D02*
X130429000Y-61404500D01*
X129667000Y-54419500D02*
X130429000Y-55181500D01*
X133985000Y-64960500D02*
X133985000Y-66040000D01*
X130429000Y-61404500D02*
X133985000Y-64960500D01*
X174244000Y-80899000D02*
X174244000Y-79248000D01*
X175387000Y-82042000D02*
X174244000Y-80899000D01*
X174244000Y-77216000D02*
X177990500Y-73469500D01*
X177990500Y-73469500D02*
X180911500Y-70548500D01*
X174244000Y-79248000D02*
X174244000Y-77216000D01*
X134048500Y-82359500D02*
X134048500Y-81661000D01*
X133985000Y-70612000D02*
X133985000Y-66040000D01*
X135001000Y-71628000D02*
X133985000Y-70612000D01*
X135001000Y-80708500D02*
X135001000Y-71628000D01*
X134048500Y-81661000D02*
X135001000Y-80708500D01*
X124714000Y-99123500D02*
X122809000Y-97218500D01*
X122809000Y-97218500D02*
X119951500Y-97218500D01*
X180911500Y-70548500D02*
X180911500Y-63373000D01*
X180911500Y-63373000D02*
X182308500Y-61976000D01*
X183515000Y-55245000D02*
X183515000Y-53530500D01*
X180911500Y-70548500D02*
X180911500Y-70485000D01*
X123317000Y-66929000D02*
X123317000Y-57340500D01*
X125095000Y-55562500D02*
X127508000Y-55562500D01*
X123317000Y-57340500D02*
X125095000Y-55562500D01*
X123317000Y-74168000D02*
X123317000Y-66929000D01*
X121920000Y-85471000D02*
X121920000Y-75565000D01*
X121920000Y-85471000D02*
X120586500Y-86804500D01*
X120586500Y-86804500D02*
X120586500Y-87185500D01*
X121920000Y-75565000D02*
X123317000Y-74168000D01*
X181292500Y-55372000D02*
X181102000Y-55372000D01*
X179324000Y-60642500D02*
X180149500Y-61468000D01*
X179324000Y-57150000D02*
X179324000Y-60642500D01*
X181102000Y-55372000D02*
X179324000Y-57150000D01*
X132397500Y-53975000D02*
X132334000Y-53975000D01*
X122047000Y-71501000D02*
X118364000Y-75184000D01*
X122047000Y-56261000D02*
X122047000Y-71501000D01*
X125476000Y-52832000D02*
X122047000Y-56261000D01*
X131191000Y-52832000D02*
X125476000Y-52832000D01*
X132334000Y-53975000D02*
X131191000Y-52832000D01*
X118364000Y-75184000D02*
X118491000Y-75311000D01*
X132397500Y-53975000D02*
X132397500Y-60007500D01*
X182054500Y-55816500D02*
X182372000Y-55499000D01*
X179895500Y-63436500D02*
X180784500Y-62547500D01*
X180784500Y-62547500D02*
X181641750Y-61690250D01*
X179895500Y-69278500D02*
X179895500Y-63436500D01*
X182054500Y-55816500D02*
X180022500Y-57848500D01*
X180022500Y-57848500D02*
X180022500Y-60071000D01*
X180022500Y-60071000D02*
X181641750Y-61690250D01*
X182372000Y-55499000D02*
X182372000Y-54546500D01*
X131064000Y-53975000D02*
X131064000Y-54356000D01*
X131826000Y-59182000D02*
X131064000Y-59944000D01*
X131826000Y-55118000D02*
X131826000Y-59182000D01*
X131064000Y-54356000D02*
X131826000Y-55118000D01*
X131064000Y-60388500D02*
X131191000Y-60388500D01*
X135128000Y-64325500D02*
X135128000Y-65913000D01*
X131191000Y-60388500D02*
X135128000Y-64325500D01*
X117125750Y-74644250D02*
X117125750Y-80295750D01*
X117125750Y-80295750D02*
X120967500Y-84137500D01*
X120650000Y-56070500D02*
X124650500Y-52070000D01*
X120650000Y-71120000D02*
X120650000Y-56070500D01*
X117125750Y-74644250D02*
X120650000Y-71120000D01*
X133096000Y-51943000D02*
X132969000Y-52070000D01*
X132969000Y-52070000D02*
X124650500Y-52070000D01*
X124523500Y-87693500D02*
X124523500Y-91567000D01*
X123634500Y-94234000D02*
X123888500Y-93980000D01*
X123888500Y-93980000D02*
X123888500Y-92202000D01*
X123888500Y-92202000D02*
X124523500Y-91567000D01*
X131064000Y-59944000D02*
X131064000Y-60388500D01*
X135128000Y-65913000D02*
X135128000Y-69151500D01*
X134620000Y-127571500D02*
X134620000Y-127762000D01*
X135001000Y-117411500D02*
X135001000Y-111696500D01*
X135001000Y-117665500D02*
X134620000Y-118046500D01*
X134620000Y-118046500D02*
X134620000Y-127571500D01*
X135001000Y-117411500D02*
X135001000Y-117665500D01*
X134620000Y-127762000D02*
X134620000Y-127825500D01*
X127190500Y-120332500D02*
X129286000Y-122428000D01*
X118999000Y-98679000D02*
X118999000Y-100266500D01*
X127190500Y-108458000D02*
X127190500Y-117665500D01*
X118999000Y-100266500D02*
X127190500Y-108458000D01*
X129286000Y-122428000D02*
X129286000Y-128016000D01*
X127190500Y-117665500D02*
X127190500Y-120332500D01*
X134620000Y-127825500D02*
X133159500Y-129286000D01*
X133159500Y-129286000D02*
X130556000Y-129286000D01*
X130556000Y-129286000D02*
X129286000Y-128016000D01*
X135001000Y-111696500D02*
X135001000Y-110871000D01*
X135318500Y-106743500D02*
X135763000Y-106299000D01*
X135318500Y-110553500D02*
X135318500Y-106743500D01*
X135001000Y-110871000D02*
X135318500Y-110553500D01*
X135001000Y-111696500D02*
X135001000Y-111633000D01*
X178117500Y-125412500D02*
X177546000Y-125412500D01*
X177355500Y-122555000D02*
X178054000Y-121856500D01*
X175768000Y-122555000D02*
X177355500Y-122555000D01*
X175133000Y-123190000D02*
X175768000Y-122555000D01*
X175133000Y-124523500D02*
X175133000Y-123190000D01*
X175704500Y-125095000D02*
X175133000Y-124523500D01*
X177228500Y-125095000D02*
X175704500Y-125095000D01*
X177546000Y-125412500D02*
X177228500Y-125095000D01*
X178054000Y-121856500D02*
X178054000Y-120650000D01*
X178054000Y-120650000D02*
X175387000Y-117983000D01*
X135890000Y-123888500D02*
X135890000Y-123698000D01*
X135191500Y-118364000D02*
X135890000Y-117665500D01*
X135191500Y-122999500D02*
X135191500Y-118364000D01*
X135890000Y-123698000D02*
X135191500Y-122999500D01*
X135890000Y-123888500D02*
X136017000Y-123761500D01*
X176974500Y-126174500D02*
X174815500Y-126174500D01*
X175387000Y-121539000D02*
X176974500Y-121539000D01*
X174371000Y-122555000D02*
X175387000Y-121539000D01*
X174371000Y-125730000D02*
X174371000Y-122555000D01*
X174815500Y-126174500D02*
X174371000Y-125730000D01*
X120332500Y-93408500D02*
X118237000Y-93408500D01*
X128333500Y-101409500D02*
X120332500Y-93408500D01*
X139065000Y-132270500D02*
X127889000Y-132270500D01*
X134747000Y-107188000D02*
X134747000Y-100774500D01*
X134747000Y-100774500D02*
X134588250Y-100615750D01*
X133794500Y-100965000D02*
X134239000Y-100965000D01*
X134239000Y-100965000D02*
X134588250Y-100615750D01*
X135191500Y-100012500D02*
X135191500Y-93535500D01*
X136271000Y-91313000D02*
X136239250Y-91281250D01*
X136271000Y-92456000D02*
X136271000Y-91313000D01*
X135191500Y-93535500D02*
X136271000Y-92456000D01*
X134588250Y-100615750D02*
X135191500Y-100012500D01*
X131191000Y-123126500D02*
X133731000Y-123126500D01*
X134048500Y-122809000D02*
X134048500Y-120269000D01*
X133731000Y-123126500D02*
X134048500Y-122809000D01*
X124841000Y-117094000D02*
X124841000Y-119761000D01*
X124841000Y-119761000D02*
X128079500Y-122999500D01*
X134048500Y-110998000D02*
X133985000Y-110934500D01*
X134048500Y-120269000D02*
X134048500Y-110998000D01*
X180213000Y-54546500D02*
X180149500Y-54546500D01*
X178625500Y-56070500D02*
X178625500Y-61150500D01*
X180149500Y-54546500D02*
X178625500Y-56070500D01*
X179324000Y-80835500D02*
X176593500Y-80835500D01*
X176339500Y-76835000D02*
X179387500Y-76835000D01*
X175514000Y-77660500D02*
X176339500Y-76835000D01*
X175514000Y-79756000D02*
X175514000Y-77660500D01*
X176593500Y-80835500D02*
X175514000Y-79756000D01*
X178244500Y-91440000D02*
X175895000Y-91440000D01*
X178181000Y-87693500D02*
X178244500Y-87630000D01*
X176022000Y-87693500D02*
X178181000Y-87693500D01*
X175450500Y-88265000D02*
X176022000Y-87693500D01*
X175450500Y-90995500D02*
X175450500Y-88265000D01*
X175895000Y-91440000D02*
X175450500Y-90995500D01*
X178244500Y-114046000D02*
X175704500Y-114046000D01*
X178181000Y-110426500D02*
X178244500Y-110363000D01*
X175958500Y-110426500D02*
X178181000Y-110426500D01*
X175133000Y-111252000D02*
X175958500Y-110426500D01*
X175133000Y-113474500D02*
X175133000Y-111252000D01*
X175704500Y-114046000D02*
X175133000Y-113474500D01*
X178244500Y-102679500D02*
X176022000Y-102679500D01*
X176022000Y-102679500D02*
X175387000Y-102044500D01*
X175387000Y-102044500D02*
X175387000Y-99568000D01*
X175387000Y-99568000D02*
X176466500Y-98488500D01*
X176466500Y-98488500D02*
X178308000Y-98488500D01*
X177673000Y-65976500D02*
X177609500Y-65913000D01*
X177609500Y-65913000D02*
X177609500Y-62166500D01*
X177609500Y-62166500D02*
X178625500Y-61150500D01*
X184658000Y-52959000D02*
X184658000Y-55499000D01*
X183896000Y-52197000D02*
X184658000Y-52959000D01*
X182562500Y-52197000D02*
X183896000Y-52197000D01*
X180213000Y-54546500D02*
X182562500Y-52197000D01*
X182181500Y-65468500D02*
X182181500Y-68770500D01*
X134747000Y-108521500D02*
X134747000Y-107188000D01*
X134747000Y-107188000D02*
X134747000Y-107124500D01*
X133985000Y-110934500D02*
X134048500Y-110934500D01*
X134048500Y-110934500D02*
X134747000Y-110236000D01*
X134747000Y-110236000D02*
X134747000Y-109283500D01*
X134747000Y-109283500D02*
X134747000Y-108521500D01*
X134747000Y-108521500D02*
X134747000Y-108458000D01*
X124841000Y-115015000D02*
X124841000Y-117094000D01*
X131064000Y-122999500D02*
X131191000Y-123126500D01*
X124841000Y-115015000D02*
X125205500Y-115015000D01*
X125205500Y-115015000D02*
X126365000Y-113855500D01*
X119634000Y-88265000D02*
X121793000Y-88265000D01*
X116395500Y-91503500D02*
X119634000Y-88265000D01*
X116395500Y-98679000D02*
X116395500Y-91503500D01*
X126365000Y-108648500D02*
X116395500Y-98679000D01*
X126365000Y-113855500D02*
X126365000Y-108648500D01*
X136239250Y-91281250D02*
X136239250Y-84963000D01*
X135255000Y-90297000D02*
X133731000Y-90297000D01*
X136239250Y-91281250D02*
X135255000Y-90297000D01*
X123634500Y-86487000D02*
X123634500Y-76771500D01*
X123571000Y-86487000D02*
X123634500Y-86487000D01*
X123190000Y-86868000D02*
X123571000Y-86487000D01*
X121793000Y-88265000D02*
X123190000Y-86868000D01*
X173418500Y-130238500D02*
X168783000Y-134874000D01*
X168783000Y-134874000D02*
X168783000Y-135001000D01*
X114046000Y-97345500D02*
X114046000Y-127190500D01*
X114046000Y-127190500D02*
X118046500Y-131191000D01*
X118046500Y-131191000D02*
X139763500Y-131191000D01*
X114046000Y-97345500D02*
X114046000Y-90805000D01*
X124777500Y-101727000D02*
X123126500Y-100076000D01*
X123126500Y-100076000D02*
X122237500Y-100076000D01*
X126936500Y-95885000D02*
X125031500Y-93980000D01*
X125031500Y-93980000D02*
X124904500Y-93980000D01*
X124841000Y-112315000D02*
X124841000Y-112141000D01*
X124841000Y-112141000D02*
X122491500Y-109791500D01*
X122491500Y-109791500D02*
X120078500Y-109791500D01*
G36*
X111645341Y-41783988D02*
X111312230Y-42235125D01*
X113855500Y-44778395D01*
X116398770Y-42235125D01*
X116068305Y-41787572D01*
X183357431Y-41842101D01*
X183067230Y-42235125D01*
X185610500Y-44778395D01*
X188153770Y-42235125D01*
X187866267Y-41845755D01*
X188658336Y-41846397D01*
X188657291Y-42653904D01*
X188333375Y-42414730D01*
X185790105Y-44958000D01*
X188333375Y-47501270D01*
X188651324Y-47266502D01*
X188538869Y-134194012D01*
X188079375Y-133854730D01*
X185536105Y-136398000D01*
X188079375Y-138941270D01*
X188533161Y-138606203D01*
X188531664Y-139763500D01*
X187194735Y-139763500D01*
X187493420Y-139642074D01*
X187535870Y-139613710D01*
X187899770Y-139120875D01*
X185356500Y-136577605D01*
X182813230Y-139120875D01*
X183177130Y-139613710D01*
X183532139Y-139763500D01*
X115606142Y-139763500D01*
X116373420Y-139451574D01*
X116415870Y-139423210D01*
X116779770Y-138930375D01*
X114236500Y-136387105D01*
X111693230Y-138930375D01*
X112057130Y-139423210D01*
X112863632Y-139763500D01*
X110553500Y-139763500D01*
X110553500Y-137264747D01*
X110992426Y-138344420D01*
X111020790Y-138386870D01*
X111513625Y-138750770D01*
X114056895Y-136207500D01*
X114416105Y-136207500D01*
X116959375Y-138750770D01*
X117452210Y-138386870D01*
X117982186Y-137130803D01*
X181541602Y-137130803D01*
X182112426Y-138534920D01*
X182140790Y-138577370D01*
X182633625Y-138941270D01*
X185176895Y-136398000D01*
X182633625Y-133854730D01*
X182140790Y-134218630D01*
X181551563Y-135615124D01*
X181541602Y-137130803D01*
X117982186Y-137130803D01*
X118041437Y-136990376D01*
X118051398Y-135474697D01*
X117945735Y-135214784D01*
X167703313Y-135214784D01*
X167867311Y-135611689D01*
X168170714Y-135915622D01*
X168567332Y-136080313D01*
X168996784Y-136080687D01*
X169393689Y-135916689D01*
X169697622Y-135613286D01*
X169862313Y-135216668D01*
X169862613Y-134872017D01*
X171059505Y-133675125D01*
X182813230Y-133675125D01*
X185356500Y-136218395D01*
X187899770Y-133675125D01*
X187535870Y-133182290D01*
X186139376Y-132593063D01*
X184623697Y-132583102D01*
X183219580Y-133153926D01*
X183177130Y-133182290D01*
X182813230Y-133675125D01*
X171059505Y-133675125D01*
X173416631Y-131317999D01*
X173632284Y-131318187D01*
X174029189Y-131154189D01*
X174333122Y-130850786D01*
X174497813Y-130454168D01*
X174497917Y-130333750D01*
X178308000Y-130333750D01*
X178308000Y-131190309D01*
X178404673Y-131423698D01*
X178583301Y-131602327D01*
X178816690Y-131699000D01*
X179673250Y-131699000D01*
X179832000Y-131540250D01*
X179832000Y-130175000D01*
X178466750Y-130175000D01*
X178308000Y-130333750D01*
X174497917Y-130333750D01*
X174498187Y-130024716D01*
X174334189Y-129627811D01*
X174030786Y-129323878D01*
X173634168Y-129159187D01*
X173204716Y-129158813D01*
X172807811Y-129322811D01*
X172503878Y-129626214D01*
X172339187Y-130022832D01*
X172338998Y-130240372D01*
X168657980Y-133921390D01*
X168569216Y-133921313D01*
X168172311Y-134085311D01*
X167868378Y-134388714D01*
X167703687Y-134785332D01*
X167703313Y-135214784D01*
X117945735Y-135214784D01*
X117480574Y-134070580D01*
X117452210Y-134028130D01*
X116959375Y-133664230D01*
X114416105Y-136207500D01*
X114056895Y-136207500D01*
X111513625Y-133664230D01*
X111020790Y-134028130D01*
X110553500Y-135135628D01*
X110553500Y-133484625D01*
X111693230Y-133484625D01*
X114236500Y-136027895D01*
X116779770Y-133484625D01*
X116415870Y-132991790D01*
X115019376Y-132402563D01*
X113503697Y-132392602D01*
X112099580Y-132963426D01*
X112057130Y-132991790D01*
X111693230Y-133484625D01*
X110553500Y-133484625D01*
X110553500Y-91018784D01*
X112966313Y-91018784D01*
X113130311Y-91415689D01*
X113284000Y-91569646D01*
X113284000Y-127190500D01*
X113342004Y-127482105D01*
X113401736Y-127571500D01*
X113507185Y-127729315D01*
X117507684Y-131729815D01*
X117754895Y-131894996D01*
X118046500Y-131953000D01*
X126851972Y-131953000D01*
X126809687Y-132054832D01*
X126809313Y-132484284D01*
X126973311Y-132881189D01*
X127276714Y-133185122D01*
X127673332Y-133349813D01*
X128102784Y-133350187D01*
X128499689Y-133186189D01*
X128653646Y-133032500D01*
X138300358Y-133032500D01*
X138452714Y-133185122D01*
X138849332Y-133349813D01*
X139278784Y-133350187D01*
X139675689Y-133186189D01*
X139979622Y-132882786D01*
X140144313Y-132486168D01*
X140144561Y-132201570D01*
X140374189Y-132106689D01*
X140678122Y-131803286D01*
X140842813Y-131406668D01*
X140843187Y-130977216D01*
X140679189Y-130580311D01*
X140375786Y-130276378D01*
X139979168Y-130111687D01*
X139549716Y-130111313D01*
X139152811Y-130275311D01*
X138998854Y-130429000D01*
X137475630Y-130429000D01*
X137952815Y-129951816D01*
X138117996Y-129704605D01*
X138151831Y-129534504D01*
X138176000Y-129413000D01*
X138176000Y-128905691D01*
X178308000Y-128905691D01*
X178308000Y-129762250D01*
X178466750Y-129921000D01*
X179832000Y-129921000D01*
X179832000Y-128555750D01*
X180086000Y-128555750D01*
X180086000Y-129921000D01*
X180106000Y-129921000D01*
X180106000Y-130175000D01*
X180086000Y-130175000D01*
X180086000Y-131540250D01*
X180244750Y-131699000D01*
X181101310Y-131699000D01*
X181334699Y-131602327D01*
X181513327Y-131423698D01*
X181530999Y-131381034D01*
X181867190Y-131605670D01*
X182499000Y-131731345D01*
X183130810Y-131605670D01*
X183666433Y-131247778D01*
X184024325Y-130712155D01*
X184150000Y-130080345D01*
X184150000Y-130015655D01*
X184024325Y-129383845D01*
X183666433Y-128848222D01*
X183130810Y-128490330D01*
X182499000Y-128364655D01*
X181867190Y-128490330D01*
X181530999Y-128714966D01*
X181513327Y-128672302D01*
X181334699Y-128493673D01*
X181101310Y-128397000D01*
X180244750Y-128397000D01*
X180086000Y-128555750D01*
X179832000Y-128555750D01*
X179673250Y-128397000D01*
X178816690Y-128397000D01*
X178583301Y-128493673D01*
X178404673Y-128672302D01*
X178308000Y-128905691D01*
X138176000Y-128905691D01*
X138176000Y-125755991D01*
X161366235Y-125755991D01*
X161599432Y-126320371D01*
X162030857Y-126752551D01*
X162594830Y-126986733D01*
X163205491Y-126987265D01*
X163769871Y-126754068D01*
X164202051Y-126322643D01*
X164436233Y-125758670D01*
X164436765Y-125148009D01*
X164203568Y-124583629D01*
X163772143Y-124151449D01*
X163208170Y-123917267D01*
X162597509Y-123916735D01*
X162033129Y-124149932D01*
X161600949Y-124581357D01*
X161366767Y-125145330D01*
X161366235Y-125755991D01*
X138176000Y-125755991D01*
X138176000Y-124079000D01*
X138143278Y-123914491D01*
X139649235Y-123914491D01*
X139882432Y-124478871D01*
X140313857Y-124911051D01*
X140877830Y-125145233D01*
X141488491Y-125145765D01*
X142052871Y-124912568D01*
X142485051Y-124481143D01*
X142719233Y-123917170D01*
X142719235Y-123914491D01*
X153253735Y-123914491D01*
X153486932Y-124478871D01*
X153918357Y-124911051D01*
X154482330Y-125145233D01*
X155092991Y-125145765D01*
X155657371Y-124912568D01*
X156089551Y-124481143D01*
X156323733Y-123917170D01*
X156324265Y-123306509D01*
X156096796Y-122755991D01*
X164366235Y-122755991D01*
X164599432Y-123320371D01*
X165030857Y-123752551D01*
X165594830Y-123986733D01*
X166205491Y-123987265D01*
X166769871Y-123754068D01*
X167202051Y-123322643D01*
X167436233Y-122758670D01*
X167436410Y-122555000D01*
X173609000Y-122555000D01*
X173609000Y-125730000D01*
X173667004Y-126021605D01*
X173832185Y-126268815D01*
X174276685Y-126713315D01*
X174523895Y-126878496D01*
X174815500Y-126936500D01*
X176209858Y-126936500D01*
X176362214Y-127089122D01*
X176758832Y-127253813D01*
X177188284Y-127254187D01*
X177585189Y-127090189D01*
X177889122Y-126786786D01*
X178011566Y-126491909D01*
X178331284Y-126492187D01*
X178728189Y-126328189D01*
X179032122Y-126024786D01*
X179196813Y-125628168D01*
X179197187Y-125198716D01*
X179033189Y-124801811D01*
X178729786Y-124497878D01*
X178333168Y-124333187D01*
X177903716Y-124332813D01*
X177612870Y-124452988D01*
X177520105Y-124391004D01*
X177228500Y-124333000D01*
X176020130Y-124333000D01*
X175895000Y-124207870D01*
X175895000Y-123505630D01*
X176083631Y-123317000D01*
X177355500Y-123317000D01*
X177647105Y-123258996D01*
X177894315Y-123093815D01*
X178592815Y-122395315D01*
X178757996Y-122148105D01*
X178766569Y-122105004D01*
X178816000Y-121856500D01*
X178816000Y-120650000D01*
X178757997Y-120358396D01*
X178592816Y-120111185D01*
X176466499Y-117984869D01*
X176466687Y-117769216D01*
X176302689Y-117372311D01*
X175999286Y-117068378D01*
X175602668Y-116903687D01*
X175173216Y-116903313D01*
X174776311Y-117067311D01*
X174472378Y-117370714D01*
X174307687Y-117767332D01*
X174307313Y-118196784D01*
X174471311Y-118593689D01*
X174774714Y-118897622D01*
X175171332Y-119062313D01*
X175388872Y-119062502D01*
X176785704Y-120459335D01*
X176760716Y-120459313D01*
X176363811Y-120623311D01*
X176209854Y-120777000D01*
X175387000Y-120777000D01*
X175095395Y-120835004D01*
X174958142Y-120926714D01*
X174848185Y-121000185D01*
X173832185Y-122016185D01*
X173667004Y-122263395D01*
X173609000Y-122555000D01*
X167436410Y-122555000D01*
X167436765Y-122148009D01*
X167203568Y-121583629D01*
X166772143Y-121151449D01*
X166208170Y-120917267D01*
X165597509Y-120916735D01*
X165033129Y-121149932D01*
X164600949Y-121581357D01*
X164366767Y-122145330D01*
X164366235Y-122755991D01*
X156096796Y-122755991D01*
X156091068Y-122742129D01*
X155659643Y-122309949D01*
X155095670Y-122075767D01*
X154485009Y-122075235D01*
X153920629Y-122308432D01*
X153488449Y-122739857D01*
X153254267Y-123303830D01*
X153253735Y-123914491D01*
X142719235Y-123914491D01*
X142719765Y-123306509D01*
X142486568Y-122742129D01*
X142055143Y-122309949D01*
X141491170Y-122075767D01*
X140880509Y-122075235D01*
X140316129Y-122308432D01*
X139883949Y-122739857D01*
X139649767Y-123303830D01*
X139649235Y-123914491D01*
X138143278Y-123914491D01*
X138117996Y-123787395D01*
X138100694Y-123761501D01*
X137952815Y-123540184D01*
X136652000Y-122239370D01*
X136652000Y-120914491D01*
X142649235Y-120914491D01*
X142882432Y-121478871D01*
X143313857Y-121911051D01*
X143877830Y-122145233D01*
X144488491Y-122145765D01*
X145052871Y-121912568D01*
X145485051Y-121481143D01*
X145719233Y-120917170D01*
X145719235Y-120914491D01*
X150253735Y-120914491D01*
X150486932Y-121478871D01*
X150918357Y-121911051D01*
X151482330Y-122145233D01*
X152092991Y-122145765D01*
X152657371Y-121912568D01*
X153089551Y-121481143D01*
X153323733Y-120917170D01*
X153324265Y-120306509D01*
X153091068Y-119742129D01*
X152659643Y-119309949D01*
X152095670Y-119075767D01*
X151485009Y-119075235D01*
X150920629Y-119308432D01*
X150488449Y-119739857D01*
X150254267Y-120303830D01*
X150253735Y-120914491D01*
X145719235Y-120914491D01*
X145719765Y-120306509D01*
X145486568Y-119742129D01*
X145055143Y-119309949D01*
X144491170Y-119075767D01*
X143880509Y-119075235D01*
X143316129Y-119308432D01*
X142883949Y-119739857D01*
X142649767Y-120303830D01*
X142649235Y-120914491D01*
X136652000Y-120914491D01*
X136652000Y-119378130D01*
X137762316Y-118267815D01*
X137910193Y-118046500D01*
X137927496Y-118020605D01*
X137985500Y-117729000D01*
X137985500Y-117538500D01*
X137927496Y-117246895D01*
X137842637Y-117119895D01*
X137762316Y-116999685D01*
X136652000Y-115889370D01*
X136652000Y-114135491D01*
X161620235Y-114135491D01*
X161853432Y-114699871D01*
X162284857Y-115132051D01*
X162848830Y-115366233D01*
X163459491Y-115366765D01*
X164023871Y-115133568D01*
X164456051Y-114702143D01*
X164690233Y-114138170D01*
X164690765Y-113527509D01*
X164457568Y-112963129D01*
X164026143Y-112530949D01*
X163462170Y-112296767D01*
X162851509Y-112296235D01*
X162287129Y-112529432D01*
X161854949Y-112960857D01*
X161620767Y-113524830D01*
X161620235Y-114135491D01*
X136652000Y-114135491D01*
X136652000Y-112420991D01*
X139839735Y-112420991D01*
X140072932Y-112985371D01*
X140504357Y-113417551D01*
X141068330Y-113651733D01*
X141678991Y-113652265D01*
X142243371Y-113419068D01*
X142675551Y-112987643D01*
X142831742Y-112611491D01*
X153126735Y-112611491D01*
X153359932Y-113175871D01*
X153791357Y-113608051D01*
X154355330Y-113842233D01*
X154965991Y-113842765D01*
X155530371Y-113609568D01*
X155962551Y-113178143D01*
X156196733Y-112614170D01*
X156197265Y-112003509D01*
X155964068Y-111439129D01*
X155660961Y-111135491D01*
X164620235Y-111135491D01*
X164853432Y-111699871D01*
X165284857Y-112132051D01*
X165848830Y-112366233D01*
X166459491Y-112366765D01*
X167023871Y-112133568D01*
X167456051Y-111702143D01*
X167642966Y-111252000D01*
X174371000Y-111252000D01*
X174371000Y-113474500D01*
X174429004Y-113766105D01*
X174480227Y-113842765D01*
X174594185Y-114013315D01*
X175165685Y-114584815D01*
X175412895Y-114749996D01*
X175704500Y-114808000D01*
X177479858Y-114808000D01*
X177632214Y-114960622D01*
X178028832Y-115125313D01*
X178458284Y-115125687D01*
X178855189Y-114961689D01*
X179159122Y-114658286D01*
X179323813Y-114261668D01*
X179324187Y-113832216D01*
X179160189Y-113435311D01*
X178856786Y-113131378D01*
X178460168Y-112966687D01*
X178030716Y-112966313D01*
X177633811Y-113130311D01*
X177479854Y-113284000D01*
X176020130Y-113284000D01*
X175895000Y-113158870D01*
X175895000Y-111567630D01*
X176274131Y-111188500D01*
X177543247Y-111188500D01*
X177632214Y-111277622D01*
X178028832Y-111442313D01*
X178458284Y-111442687D01*
X178855189Y-111278689D01*
X179159122Y-110975286D01*
X179323813Y-110578668D01*
X179324187Y-110149216D01*
X179160189Y-109752311D01*
X178856786Y-109448378D01*
X178460168Y-109283687D01*
X178030716Y-109283313D01*
X177633811Y-109447311D01*
X177416243Y-109664500D01*
X175958500Y-109664500D01*
X175666895Y-109722504D01*
X175419684Y-109887685D01*
X174594185Y-110713185D01*
X174429004Y-110960395D01*
X174371000Y-111252000D01*
X167642966Y-111252000D01*
X167690233Y-111138170D01*
X167690765Y-110527509D01*
X167457568Y-109963129D01*
X167026143Y-109530949D01*
X166462170Y-109296767D01*
X165851509Y-109296235D01*
X165287129Y-109529432D01*
X164854949Y-109960857D01*
X164620767Y-110524830D01*
X164620235Y-111135491D01*
X155660961Y-111135491D01*
X155532643Y-111006949D01*
X154968670Y-110772767D01*
X154358009Y-110772235D01*
X153793629Y-111005432D01*
X153361449Y-111436857D01*
X153127267Y-112000830D01*
X153126735Y-112611491D01*
X142831742Y-112611491D01*
X142909733Y-112423670D01*
X142910265Y-111813009D01*
X142677068Y-111248629D01*
X142245643Y-110816449D01*
X141681670Y-110582267D01*
X141071009Y-110581735D01*
X140506629Y-110814932D01*
X140074449Y-111246357D01*
X139840267Y-111810330D01*
X139839735Y-112420991D01*
X136652000Y-112420991D01*
X136652000Y-109420991D01*
X142839735Y-109420991D01*
X143072932Y-109985371D01*
X143504357Y-110417551D01*
X144068330Y-110651733D01*
X144678991Y-110652265D01*
X145243371Y-110419068D01*
X145675551Y-109987643D01*
X145831742Y-109611491D01*
X150126735Y-109611491D01*
X150359932Y-110175871D01*
X150791357Y-110608051D01*
X151355330Y-110842233D01*
X151965991Y-110842765D01*
X152530371Y-110609568D01*
X152962551Y-110178143D01*
X153196733Y-109614170D01*
X153197265Y-109003509D01*
X152964068Y-108439129D01*
X152532643Y-108006949D01*
X151968670Y-107772767D01*
X151358009Y-107772235D01*
X150793629Y-108005432D01*
X150361449Y-108436857D01*
X150127267Y-109000830D01*
X150126735Y-109611491D01*
X145831742Y-109611491D01*
X145909733Y-109423670D01*
X145910265Y-108813009D01*
X145677068Y-108248629D01*
X145245643Y-107816449D01*
X144681670Y-107582267D01*
X144071009Y-107581735D01*
X143506629Y-107814932D01*
X143074449Y-108246357D01*
X142840267Y-108810330D01*
X142839735Y-109420991D01*
X136652000Y-109420991D01*
X136652000Y-108202130D01*
X137634448Y-107219683D01*
X137825815Y-107091815D01*
X137990996Y-106844605D01*
X138049000Y-106553000D01*
X137990996Y-106261395D01*
X137825815Y-106014184D01*
X136652000Y-104840370D01*
X136652000Y-101625991D01*
X139903235Y-101625991D01*
X140136432Y-102190371D01*
X140567857Y-102622551D01*
X141131830Y-102856733D01*
X141742491Y-102857265D01*
X142306871Y-102624068D01*
X142739051Y-102192643D01*
X142947977Y-101689491D01*
X153380735Y-101689491D01*
X153613932Y-102253871D01*
X154045357Y-102686051D01*
X154609330Y-102920233D01*
X155219991Y-102920765D01*
X155433630Y-102832491D01*
X161810735Y-102832491D01*
X162043932Y-103396871D01*
X162475357Y-103829051D01*
X163039330Y-104063233D01*
X163649991Y-104063765D01*
X164214371Y-103830568D01*
X164646551Y-103399143D01*
X164880733Y-102835170D01*
X164881265Y-102224509D01*
X164648068Y-101660129D01*
X164216643Y-101227949D01*
X163652670Y-100993767D01*
X163042009Y-100993235D01*
X162477629Y-101226432D01*
X162045449Y-101657857D01*
X161811267Y-102221830D01*
X161810735Y-102832491D01*
X155433630Y-102832491D01*
X155784371Y-102687568D01*
X156216551Y-102256143D01*
X156450733Y-101692170D01*
X156451265Y-101081509D01*
X156218068Y-100517129D01*
X155786643Y-100084949D01*
X155222670Y-99850767D01*
X154612009Y-99850235D01*
X154047629Y-100083432D01*
X153615449Y-100514857D01*
X153381267Y-101078830D01*
X153380735Y-101689491D01*
X142947977Y-101689491D01*
X142973233Y-101628670D01*
X142973765Y-101018009D01*
X142740568Y-100453629D01*
X142309143Y-100021449D01*
X141745170Y-99787267D01*
X141134509Y-99786735D01*
X140570129Y-100019932D01*
X140137949Y-100451357D01*
X139903767Y-101015330D01*
X139903235Y-101625991D01*
X136652000Y-101625991D01*
X136652000Y-98625991D01*
X142903235Y-98625991D01*
X143136432Y-99190371D01*
X143567857Y-99622551D01*
X144131830Y-99856733D01*
X144742491Y-99857265D01*
X145306871Y-99624068D01*
X145739051Y-99192643D01*
X145947977Y-98689491D01*
X150380735Y-98689491D01*
X150613932Y-99253871D01*
X151045357Y-99686051D01*
X151609330Y-99920233D01*
X152219991Y-99920765D01*
X152433630Y-99832491D01*
X164810735Y-99832491D01*
X165043932Y-100396871D01*
X165475357Y-100829051D01*
X166039330Y-101063233D01*
X166649991Y-101063765D01*
X167214371Y-100830568D01*
X167646551Y-100399143D01*
X167880733Y-99835170D01*
X167880965Y-99568000D01*
X174625000Y-99568000D01*
X174625000Y-102044500D01*
X174683004Y-102336105D01*
X174848185Y-102583315D01*
X175483185Y-103218316D01*
X175631377Y-103317334D01*
X175730395Y-103383496D01*
X176022000Y-103441500D01*
X177479858Y-103441500D01*
X177632214Y-103594122D01*
X178028832Y-103758813D01*
X178458284Y-103759187D01*
X178855189Y-103595189D01*
X179159122Y-103291786D01*
X179323813Y-102895168D01*
X179324187Y-102465716D01*
X179160189Y-102068811D01*
X178856786Y-101764878D01*
X178460168Y-101600187D01*
X178030716Y-101599813D01*
X177633811Y-101763811D01*
X177479854Y-101917500D01*
X176337631Y-101917500D01*
X176149000Y-101728870D01*
X176149000Y-99883630D01*
X176782131Y-99250500D01*
X177543358Y-99250500D01*
X177695714Y-99403122D01*
X178092332Y-99567813D01*
X178521784Y-99568187D01*
X178918689Y-99404189D01*
X179222622Y-99100786D01*
X179387313Y-98704168D01*
X179387687Y-98274716D01*
X179223689Y-97877811D01*
X178920286Y-97573878D01*
X178523668Y-97409187D01*
X178094216Y-97408813D01*
X177697311Y-97572811D01*
X177543354Y-97726500D01*
X176466500Y-97726500D01*
X176174896Y-97784503D01*
X175927685Y-97949684D01*
X174848185Y-99029185D01*
X174683004Y-99276395D01*
X174625000Y-99568000D01*
X167880965Y-99568000D01*
X167881265Y-99224509D01*
X167648068Y-98660129D01*
X167216643Y-98227949D01*
X166652670Y-97993767D01*
X166042009Y-97993235D01*
X165477629Y-98226432D01*
X165045449Y-98657857D01*
X164811267Y-99221830D01*
X164810735Y-99832491D01*
X152433630Y-99832491D01*
X152784371Y-99687568D01*
X153216551Y-99256143D01*
X153450733Y-98692170D01*
X153451265Y-98081509D01*
X153218068Y-97517129D01*
X152786643Y-97084949D01*
X152222670Y-96850767D01*
X151612009Y-96850235D01*
X151047629Y-97083432D01*
X150615449Y-97514857D01*
X150381267Y-98078830D01*
X150380735Y-98689491D01*
X145947977Y-98689491D01*
X145973233Y-98628670D01*
X145973765Y-98018009D01*
X145740568Y-97453629D01*
X145309143Y-97021449D01*
X144745170Y-96787267D01*
X144134509Y-96786735D01*
X143570129Y-97019932D01*
X143137949Y-97451357D01*
X142903767Y-98015330D01*
X142903235Y-98625991D01*
X136652000Y-98625991D01*
X136652000Y-96716119D01*
X136754689Y-96673689D01*
X137058622Y-96370286D01*
X137223313Y-95973668D01*
X137223687Y-95544216D01*
X137059689Y-95147311D01*
X136756286Y-94843378D01*
X136359668Y-94678687D01*
X135953500Y-94678333D01*
X135953500Y-93851130D01*
X136809816Y-92994815D01*
X136974997Y-92747604D01*
X137033000Y-92456000D01*
X137033000Y-91313000D01*
X137001250Y-91153382D01*
X137001250Y-90640491D01*
X140093735Y-90640491D01*
X140326932Y-91204871D01*
X140758357Y-91637051D01*
X141322330Y-91871233D01*
X141932991Y-91871765D01*
X142497371Y-91638568D01*
X142929551Y-91207143D01*
X143138477Y-90703991D01*
X153317235Y-90703991D01*
X153550432Y-91268371D01*
X153981857Y-91700551D01*
X154545830Y-91934733D01*
X155156491Y-91935265D01*
X155720871Y-91702068D01*
X155893750Y-91529491D01*
X162128235Y-91529491D01*
X162361432Y-92093871D01*
X162792857Y-92526051D01*
X163356830Y-92760233D01*
X163967491Y-92760765D01*
X164531871Y-92527568D01*
X164964051Y-92096143D01*
X165198233Y-91532170D01*
X165198765Y-90921509D01*
X164965568Y-90357129D01*
X164534143Y-89924949D01*
X163970170Y-89690767D01*
X163359509Y-89690235D01*
X162795129Y-89923432D01*
X162362949Y-90354857D01*
X162128767Y-90918830D01*
X162128235Y-91529491D01*
X155893750Y-91529491D01*
X156153051Y-91270643D01*
X156387233Y-90706670D01*
X156387765Y-90096009D01*
X156154568Y-89531629D01*
X155723143Y-89099449D01*
X155159170Y-88865267D01*
X154548509Y-88864735D01*
X153984129Y-89097932D01*
X153551949Y-89529357D01*
X153317767Y-90093330D01*
X153317235Y-90703991D01*
X143138477Y-90703991D01*
X143163733Y-90643170D01*
X143164265Y-90032509D01*
X142931068Y-89468129D01*
X142499643Y-89035949D01*
X141935670Y-88801767D01*
X141325009Y-88801235D01*
X140760629Y-89034432D01*
X140328449Y-89465857D01*
X140094267Y-90029830D01*
X140093735Y-90640491D01*
X137001250Y-90640491D01*
X137001250Y-87640491D01*
X143093735Y-87640491D01*
X143326932Y-88204871D01*
X143758357Y-88637051D01*
X144322330Y-88871233D01*
X144932991Y-88871765D01*
X145497371Y-88638568D01*
X145929551Y-88207143D01*
X146138477Y-87703991D01*
X150317235Y-87703991D01*
X150550432Y-88268371D01*
X150981857Y-88700551D01*
X151545830Y-88934733D01*
X152156491Y-88935265D01*
X152720871Y-88702068D01*
X152893750Y-88529491D01*
X165128235Y-88529491D01*
X165361432Y-89093871D01*
X165792857Y-89526051D01*
X166356830Y-89760233D01*
X166967491Y-89760765D01*
X167531871Y-89527568D01*
X167964051Y-89096143D01*
X168198233Y-88532170D01*
X168198465Y-88265000D01*
X174688500Y-88265000D01*
X174688500Y-90995500D01*
X174746504Y-91287105D01*
X174848666Y-91440000D01*
X174911685Y-91534315D01*
X175356185Y-91978815D01*
X175603395Y-92143996D01*
X175895000Y-92202000D01*
X177479858Y-92202000D01*
X177632214Y-92354622D01*
X178028832Y-92519313D01*
X178458284Y-92519687D01*
X178855189Y-92355689D01*
X179159122Y-92052286D01*
X179323813Y-91655668D01*
X179324187Y-91226216D01*
X179160189Y-90829311D01*
X178856786Y-90525378D01*
X178460168Y-90360687D01*
X178030716Y-90360313D01*
X177633811Y-90524311D01*
X177479854Y-90678000D01*
X176212500Y-90678000D01*
X176212500Y-88580630D01*
X176337630Y-88455500D01*
X177543247Y-88455500D01*
X177632214Y-88544622D01*
X178028832Y-88709313D01*
X178458284Y-88709687D01*
X178855189Y-88545689D01*
X179159122Y-88242286D01*
X179323813Y-87845668D01*
X179324187Y-87416216D01*
X179160189Y-87019311D01*
X178856786Y-86715378D01*
X178460168Y-86550687D01*
X178030716Y-86550313D01*
X177633811Y-86714311D01*
X177416243Y-86931500D01*
X176022000Y-86931500D01*
X175730395Y-86989504D01*
X175483185Y-87154685D01*
X174911685Y-87726185D01*
X174746504Y-87973395D01*
X174688500Y-88265000D01*
X168198465Y-88265000D01*
X168198765Y-87921509D01*
X167965568Y-87357129D01*
X167534143Y-86924949D01*
X166970170Y-86690767D01*
X166359509Y-86690235D01*
X165795129Y-86923432D01*
X165362949Y-87354857D01*
X165128767Y-87918830D01*
X165128235Y-88529491D01*
X152893750Y-88529491D01*
X153153051Y-88270643D01*
X153387233Y-87706670D01*
X153387765Y-87096009D01*
X153154568Y-86531629D01*
X152723143Y-86099449D01*
X152159170Y-85865267D01*
X151548509Y-85864735D01*
X150984129Y-86097932D01*
X150551949Y-86529357D01*
X150317767Y-87093330D01*
X150317235Y-87703991D01*
X146138477Y-87703991D01*
X146163733Y-87643170D01*
X146164265Y-87032509D01*
X145931068Y-86468129D01*
X145499643Y-86035949D01*
X144935670Y-85801767D01*
X144325009Y-85801235D01*
X143760629Y-86034432D01*
X143328449Y-86465857D01*
X143094267Y-87029830D01*
X143093735Y-87640491D01*
X137001250Y-87640491D01*
X137001250Y-85727642D01*
X137153872Y-85575286D01*
X137318563Y-85178668D01*
X137318937Y-84749216D01*
X137154939Y-84352311D01*
X136851536Y-84048378D01*
X136454918Y-83883687D01*
X136025466Y-83883313D01*
X135628561Y-84047311D01*
X135324628Y-84350714D01*
X135159937Y-84747332D01*
X135159563Y-85176784D01*
X135323561Y-85573689D01*
X135477250Y-85727646D01*
X135477250Y-89579208D01*
X135255000Y-89535000D01*
X134495642Y-89535000D01*
X134343286Y-89382378D01*
X133946668Y-89217687D01*
X133517216Y-89217313D01*
X133120311Y-89381311D01*
X132816378Y-89684714D01*
X132651687Y-90081332D01*
X132651313Y-90510784D01*
X132815311Y-90907689D01*
X133118714Y-91211622D01*
X133515332Y-91376313D01*
X133944784Y-91376687D01*
X133986686Y-91359373D01*
X133858187Y-91668832D01*
X133857813Y-92098284D01*
X134021811Y-92495189D01*
X134325214Y-92799122D01*
X134696200Y-92953170D01*
X134652685Y-92996685D01*
X134487504Y-93243895D01*
X134429500Y-93535500D01*
X134429500Y-99696869D01*
X134173049Y-99953321D01*
X134010168Y-99885687D01*
X133580716Y-99885313D01*
X133183811Y-100049311D01*
X132879878Y-100352714D01*
X132715187Y-100749332D01*
X132714813Y-101178784D01*
X132878811Y-101575689D01*
X133182214Y-101879622D01*
X133578832Y-102044313D01*
X133985000Y-102044667D01*
X133985000Y-109854999D01*
X133771216Y-109854813D01*
X133374311Y-110018811D01*
X133070378Y-110322214D01*
X132905687Y-110718832D01*
X132905313Y-111148284D01*
X133069311Y-111545189D01*
X133286500Y-111762757D01*
X133286500Y-122364500D01*
X131955642Y-122364500D01*
X131803286Y-122211878D01*
X131406668Y-122047187D01*
X130977216Y-122046813D01*
X130580311Y-122210811D01*
X130276378Y-122514214D01*
X130111687Y-122910832D01*
X130111313Y-123340284D01*
X130275311Y-123737189D01*
X130578714Y-124041122D01*
X130975332Y-124205813D01*
X131404784Y-124206187D01*
X131801689Y-124042189D01*
X131955646Y-123888500D01*
X133731000Y-123888500D01*
X133858000Y-123863238D01*
X133858000Y-126997358D01*
X133705378Y-127149714D01*
X133540687Y-127546332D01*
X133540442Y-127827428D01*
X132843870Y-128524000D01*
X130871631Y-128524000D01*
X130048000Y-127700370D01*
X130048000Y-122428000D01*
X130024518Y-122309949D01*
X129989997Y-122136396D01*
X129824816Y-121889185D01*
X127952500Y-120016870D01*
X127952500Y-108458000D01*
X127894496Y-108166395D01*
X127729315Y-107919184D01*
X119761000Y-99950870D01*
X119761000Y-99443642D01*
X119913622Y-99291286D01*
X120078313Y-98894668D01*
X120078687Y-98465216D01*
X120009616Y-98298051D01*
X120165284Y-98298187D01*
X120562189Y-98134189D01*
X120716146Y-97980500D01*
X122493370Y-97980500D01*
X123634501Y-99121631D01*
X123634313Y-99337284D01*
X123753241Y-99625111D01*
X123665315Y-99537185D01*
X123616400Y-99504501D01*
X123418105Y-99372004D01*
X123126500Y-99314000D01*
X123002142Y-99314000D01*
X122849786Y-99161378D01*
X122453168Y-98996687D01*
X122023716Y-98996313D01*
X121626811Y-99160311D01*
X121322878Y-99463714D01*
X121158187Y-99860332D01*
X121157813Y-100289784D01*
X121321811Y-100686689D01*
X121625214Y-100990622D01*
X122021832Y-101155313D01*
X122451284Y-101155687D01*
X122848189Y-100991689D01*
X122906425Y-100933555D01*
X123698001Y-101725131D01*
X123697813Y-101940784D01*
X123861811Y-102337689D01*
X124165214Y-102641622D01*
X124561832Y-102806313D01*
X124991284Y-102806687D01*
X125388189Y-102642689D01*
X125692122Y-102339286D01*
X125856813Y-101942668D01*
X125857187Y-101513216D01*
X125738259Y-101225389D01*
X128239185Y-103726315D01*
X128486395Y-103891496D01*
X128537143Y-103901590D01*
X128800714Y-104165622D01*
X129197332Y-104330313D01*
X129626784Y-104330687D01*
X130023689Y-104166689D01*
X130327622Y-103863286D01*
X130492313Y-103466668D01*
X130492687Y-103037216D01*
X130328689Y-102640311D01*
X130025286Y-102336378D01*
X129628668Y-102171687D01*
X129199216Y-102171313D01*
X129027087Y-102242435D01*
X129248122Y-102021786D01*
X129412813Y-101625168D01*
X129413187Y-101195716D01*
X129249189Y-100798811D01*
X128945786Y-100494878D01*
X128549168Y-100330187D01*
X128331628Y-100329998D01*
X123241172Y-95239542D01*
X123418832Y-95313313D01*
X123848284Y-95313687D01*
X124245189Y-95149689D01*
X124439455Y-94955762D01*
X124688832Y-95059313D01*
X125033483Y-95059613D01*
X125857001Y-95883131D01*
X125856813Y-96098784D01*
X126020811Y-96495689D01*
X126324214Y-96799622D01*
X126720832Y-96964313D01*
X127150284Y-96964687D01*
X127547189Y-96800689D01*
X127851122Y-96497286D01*
X128015813Y-96100668D01*
X128016187Y-95671216D01*
X127852189Y-95274311D01*
X127548786Y-94970378D01*
X127152168Y-94805687D01*
X126934628Y-94805498D01*
X125984110Y-93854980D01*
X125984187Y-93766216D01*
X125820189Y-93369311D01*
X125516786Y-93065378D01*
X125120168Y-92900687D01*
X124690716Y-92900313D01*
X124650500Y-92916930D01*
X124650500Y-92517630D01*
X125062316Y-92105815D01*
X125176629Y-91934733D01*
X125227496Y-91858605D01*
X125285500Y-91567000D01*
X125285500Y-88458142D01*
X125438122Y-88305786D01*
X125602813Y-87909168D01*
X125603187Y-87479716D01*
X125439189Y-87082811D01*
X125135786Y-86778878D01*
X124739168Y-86614187D01*
X124371265Y-86613867D01*
X124396500Y-86487000D01*
X124396500Y-77536142D01*
X124549122Y-77383786D01*
X124713813Y-76987168D01*
X124714187Y-76557716D01*
X124550189Y-76160811D01*
X124246786Y-75856878D01*
X123850168Y-75692187D01*
X123420716Y-75691813D01*
X123023811Y-75855811D01*
X122719878Y-76159214D01*
X122682000Y-76250434D01*
X122682000Y-75880630D01*
X123855815Y-74706816D01*
X124020996Y-74459605D01*
X124028476Y-74422001D01*
X124079000Y-74168000D01*
X124079000Y-70993000D01*
X125951655Y-70993000D01*
X126077330Y-71624810D01*
X126435222Y-72160433D01*
X126970845Y-72518325D01*
X127602655Y-72644000D01*
X127667345Y-72644000D01*
X128299155Y-72518325D01*
X128834778Y-72160433D01*
X129192670Y-71624810D01*
X129318345Y-70993000D01*
X129192670Y-70361190D01*
X128968034Y-70024999D01*
X129010698Y-70007327D01*
X129189327Y-69828699D01*
X129286000Y-69595310D01*
X129286000Y-68738750D01*
X129127250Y-68580000D01*
X127762000Y-68580000D01*
X127762000Y-68600000D01*
X127508000Y-68600000D01*
X127508000Y-68580000D01*
X126142750Y-68580000D01*
X125984000Y-68738750D01*
X125984000Y-69595310D01*
X126080673Y-69828699D01*
X126259302Y-70007327D01*
X126301966Y-70024999D01*
X126077330Y-70361190D01*
X125951655Y-70993000D01*
X124079000Y-70993000D01*
X124079000Y-67310690D01*
X125984000Y-67310690D01*
X125984000Y-68167250D01*
X126142750Y-68326000D01*
X127508000Y-68326000D01*
X127508000Y-66960750D01*
X127762000Y-66960750D01*
X127762000Y-68326000D01*
X129127250Y-68326000D01*
X129286000Y-68167250D01*
X129286000Y-67310690D01*
X129189327Y-67077301D01*
X129010698Y-66898673D01*
X128777309Y-66802000D01*
X127920750Y-66802000D01*
X127762000Y-66960750D01*
X127508000Y-66960750D01*
X127349250Y-66802000D01*
X126492691Y-66802000D01*
X126259302Y-66898673D01*
X126080673Y-67077301D01*
X125984000Y-67310690D01*
X124079000Y-67310690D01*
X124079000Y-57656130D01*
X125410631Y-56324500D01*
X126743358Y-56324500D01*
X126895714Y-56477122D01*
X127292332Y-56641813D01*
X127721784Y-56642187D01*
X128118689Y-56478189D01*
X128422622Y-56174786D01*
X128587313Y-55778168D01*
X128587687Y-55348716D01*
X128423689Y-54951811D01*
X128120286Y-54647878D01*
X127723668Y-54483187D01*
X127294216Y-54482813D01*
X126897311Y-54646811D01*
X126743354Y-54800500D01*
X125095000Y-54800500D01*
X124803395Y-54858504D01*
X124756414Y-54889896D01*
X124556185Y-55023684D01*
X122809000Y-56770870D01*
X122809000Y-56576630D01*
X125791631Y-53594000D01*
X128656339Y-53594000D01*
X128587687Y-53759332D01*
X128587313Y-54188784D01*
X128751311Y-54585689D01*
X129054714Y-54889622D01*
X129092873Y-54905467D01*
X129128185Y-54958315D01*
X129762317Y-55592448D01*
X129890185Y-55783815D01*
X130081554Y-55911684D01*
X130429000Y-56259130D01*
X130429000Y-58294869D01*
X129890185Y-58833685D01*
X129725004Y-59080895D01*
X129667000Y-59372500D01*
X129667000Y-61404500D01*
X129725004Y-61696105D01*
X129767433Y-61759604D01*
X129890185Y-61943315D01*
X133223000Y-65276131D01*
X133223000Y-70612000D01*
X133281004Y-70903605D01*
X133340736Y-70993000D01*
X133446185Y-71150815D01*
X134239000Y-71943630D01*
X134239000Y-80392869D01*
X133509685Y-81122185D01*
X133344504Y-81369395D01*
X133302916Y-81578471D01*
X133133878Y-81747214D01*
X132969187Y-82143832D01*
X132968813Y-82573284D01*
X133132811Y-82970189D01*
X133436214Y-83274122D01*
X133832832Y-83438813D01*
X134262284Y-83439187D01*
X134659189Y-83275189D01*
X134963122Y-82971786D01*
X135127813Y-82575168D01*
X135128187Y-82145716D01*
X134985863Y-81801267D01*
X135539815Y-81247316D01*
X135704996Y-81000105D01*
X135725107Y-80899000D01*
X135763000Y-80708500D01*
X135763000Y-79591491D01*
X140220735Y-79591491D01*
X140453932Y-80155871D01*
X140885357Y-80588051D01*
X141449330Y-80822233D01*
X142059991Y-80822765D01*
X142624371Y-80589568D01*
X143056551Y-80158143D01*
X143290733Y-79594170D01*
X143290956Y-79337491D01*
X153507735Y-79337491D01*
X153740932Y-79901871D01*
X154172357Y-80334051D01*
X154736330Y-80568233D01*
X155346991Y-80568765D01*
X155911371Y-80335568D01*
X156020638Y-80226491D01*
X162191735Y-80226491D01*
X162424932Y-80790871D01*
X162856357Y-81223051D01*
X163420330Y-81457233D01*
X164030991Y-81457765D01*
X164595371Y-81224568D01*
X165027551Y-80793143D01*
X165261733Y-80229170D01*
X165262265Y-79618509D01*
X165029068Y-79054129D01*
X164597643Y-78621949D01*
X164033670Y-78387767D01*
X163423009Y-78387235D01*
X162858629Y-78620432D01*
X162426449Y-79051857D01*
X162192267Y-79615830D01*
X162191735Y-80226491D01*
X156020638Y-80226491D01*
X156343551Y-79904143D01*
X156577733Y-79340170D01*
X156578265Y-78729509D01*
X156345068Y-78165129D01*
X155913643Y-77732949D01*
X155349670Y-77498767D01*
X154739009Y-77498235D01*
X154174629Y-77731432D01*
X153742449Y-78162857D01*
X153508267Y-78726830D01*
X153507735Y-79337491D01*
X143290956Y-79337491D01*
X143291265Y-78983509D01*
X143058068Y-78419129D01*
X142626643Y-77986949D01*
X142062670Y-77752767D01*
X141452009Y-77752235D01*
X140887629Y-77985432D01*
X140455449Y-78416857D01*
X140221267Y-78980830D01*
X140220735Y-79591491D01*
X135763000Y-79591491D01*
X135763000Y-76591491D01*
X143220735Y-76591491D01*
X143453932Y-77155871D01*
X143885357Y-77588051D01*
X144449330Y-77822233D01*
X145059991Y-77822765D01*
X145624371Y-77589568D01*
X146056551Y-77158143D01*
X146290733Y-76594170D01*
X146290956Y-76337491D01*
X150507735Y-76337491D01*
X150740932Y-76901871D01*
X151172357Y-77334051D01*
X151736330Y-77568233D01*
X152346991Y-77568765D01*
X152911371Y-77335568D01*
X153020638Y-77226491D01*
X165191735Y-77226491D01*
X165424932Y-77790871D01*
X165856357Y-78223051D01*
X166420330Y-78457233D01*
X167030991Y-78457765D01*
X167595371Y-78224568D01*
X168027551Y-77793143D01*
X168261733Y-77229170D01*
X168261744Y-77216000D01*
X173482000Y-77216000D01*
X173482000Y-80899000D01*
X173540004Y-81190605D01*
X173599861Y-81280187D01*
X173705185Y-81437815D01*
X174307501Y-82040131D01*
X174307313Y-82255784D01*
X174471311Y-82652689D01*
X174774714Y-82956622D01*
X175171332Y-83121313D01*
X175600784Y-83121687D01*
X175997689Y-82957689D01*
X176301622Y-82654286D01*
X176466313Y-82257668D01*
X176466687Y-81828216D01*
X176351465Y-81549357D01*
X176593500Y-81597500D01*
X178559358Y-81597500D01*
X178711714Y-81750122D01*
X179108332Y-81914813D01*
X179537784Y-81915187D01*
X179934689Y-81751189D01*
X180238622Y-81447786D01*
X180403313Y-81051168D01*
X180403687Y-80621716D01*
X180239689Y-80224811D01*
X179936286Y-79920878D01*
X179539668Y-79756187D01*
X179110216Y-79755813D01*
X178713311Y-79919811D01*
X178559354Y-80073500D01*
X176909131Y-80073500D01*
X176276000Y-79440370D01*
X176276000Y-77976130D01*
X176655131Y-77597000D01*
X178622858Y-77597000D01*
X178775214Y-77749622D01*
X179171832Y-77914313D01*
X179601284Y-77914687D01*
X179998189Y-77750689D01*
X180302122Y-77447286D01*
X180466813Y-77050668D01*
X180467187Y-76621216D01*
X180303189Y-76224311D01*
X179999786Y-75920378D01*
X179603168Y-75755687D01*
X179173716Y-75755313D01*
X178776811Y-75919311D01*
X178622854Y-76073000D01*
X176464630Y-76073000D01*
X181450315Y-71087315D01*
X181559436Y-70924004D01*
X181615496Y-70840105D01*
X181673500Y-70548500D01*
X181673500Y-69728426D01*
X181965832Y-69849813D01*
X182395284Y-69850187D01*
X182792189Y-69686189D01*
X183096122Y-69382786D01*
X183260813Y-68986168D01*
X183261187Y-68556716D01*
X183097189Y-68159811D01*
X182943500Y-68005854D01*
X182943500Y-66233142D01*
X183096122Y-66080786D01*
X183260813Y-65684168D01*
X183261187Y-65254716D01*
X183097189Y-64857811D01*
X182793786Y-64553878D01*
X182397168Y-64389187D01*
X181967716Y-64388813D01*
X181673500Y-64510381D01*
X181673500Y-63688630D01*
X182847315Y-62514816D01*
X183012496Y-62267605D01*
X183032607Y-62166500D01*
X183070500Y-61976000D01*
X183070500Y-60706000D01*
X183012496Y-60414395D01*
X182995194Y-60388501D01*
X182847315Y-60167184D01*
X181546500Y-58866370D01*
X181546500Y-58291130D01*
X183738109Y-56099521D01*
X183742311Y-56109689D01*
X184045714Y-56413622D01*
X184442332Y-56578313D01*
X184871784Y-56578687D01*
X185268689Y-56414689D01*
X185572622Y-56111286D01*
X185737313Y-55714668D01*
X185737687Y-55285216D01*
X185573689Y-54888311D01*
X185420000Y-54734354D01*
X185420000Y-52959000D01*
X185361996Y-52667395D01*
X185242532Y-52488605D01*
X185196816Y-52420185D01*
X184434815Y-51658185D01*
X184424655Y-51651396D01*
X184187605Y-51493004D01*
X183896000Y-51435000D01*
X182562500Y-51435000D01*
X182270895Y-51493004D01*
X182171877Y-51559166D01*
X182023685Y-51658184D01*
X179802055Y-53879815D01*
X179610684Y-54007685D01*
X178086685Y-55531685D01*
X177921504Y-55778895D01*
X177863500Y-56070500D01*
X177863500Y-60834870D01*
X177106423Y-61591947D01*
X177338706Y-61032547D01*
X177339274Y-60382306D01*
X177090962Y-59781345D01*
X176631573Y-59321154D01*
X176031047Y-59071794D01*
X175380806Y-59071226D01*
X174779845Y-59319538D01*
X174319654Y-59778927D01*
X174070294Y-60379453D01*
X174069726Y-61029694D01*
X174318038Y-61630655D01*
X174777427Y-62090846D01*
X175377953Y-62340206D01*
X176028194Y-62340774D01*
X176629155Y-62092462D01*
X177022492Y-61699810D01*
X176905504Y-61874895D01*
X176847500Y-62166500D01*
X176847500Y-65275247D01*
X176758378Y-65364214D01*
X176593687Y-65760832D01*
X176593313Y-66190284D01*
X176757311Y-66587189D01*
X177060714Y-66891122D01*
X177457332Y-67055813D01*
X177886784Y-67056187D01*
X178283689Y-66892189D01*
X178587622Y-66588786D01*
X178752313Y-66192168D01*
X178752687Y-65762716D01*
X178588689Y-65365811D01*
X178371500Y-65148243D01*
X178371500Y-62482130D01*
X179099646Y-61753984D01*
X179233811Y-62078689D01*
X179537214Y-62382622D01*
X179773594Y-62480776D01*
X179356685Y-62897685D01*
X179191504Y-63144895D01*
X179133500Y-63436500D01*
X179133500Y-68513858D01*
X178980878Y-68666214D01*
X178816187Y-69062832D01*
X178815813Y-69492284D01*
X178979811Y-69889189D01*
X179283214Y-70193122D01*
X179679832Y-70357813D01*
X180024257Y-70358113D01*
X173705185Y-76677185D01*
X173540004Y-76924395D01*
X173482000Y-77216000D01*
X168261744Y-77216000D01*
X168262265Y-76618509D01*
X168029068Y-76054129D01*
X167597643Y-75621949D01*
X167033670Y-75387767D01*
X166423009Y-75387235D01*
X165858629Y-75620432D01*
X165426449Y-76051857D01*
X165192267Y-76615830D01*
X165191735Y-77226491D01*
X153020638Y-77226491D01*
X153343551Y-76904143D01*
X153577733Y-76340170D01*
X153578265Y-75729509D01*
X153345068Y-75165129D01*
X152913643Y-74732949D01*
X152349670Y-74498767D01*
X151739009Y-74498235D01*
X151174629Y-74731432D01*
X150742449Y-75162857D01*
X150508267Y-75726830D01*
X150507735Y-76337491D01*
X146290956Y-76337491D01*
X146291265Y-75983509D01*
X146058068Y-75419129D01*
X145626643Y-74986949D01*
X145062670Y-74752767D01*
X144452009Y-74752235D01*
X143887629Y-74985432D01*
X143455449Y-75416857D01*
X143221267Y-75980830D01*
X143220735Y-76591491D01*
X135763000Y-76591491D01*
X135763000Y-71628000D01*
X135704996Y-71336395D01*
X135539815Y-71089185D01*
X134747000Y-70296370D01*
X134747000Y-70162161D01*
X134912332Y-70230813D01*
X135341784Y-70231187D01*
X135738689Y-70067189D01*
X136042622Y-69763786D01*
X136207313Y-69367168D01*
X136207687Y-68937716D01*
X136201810Y-68923491D01*
X140220735Y-68923491D01*
X140453932Y-69487871D01*
X140885357Y-69920051D01*
X141449330Y-70154233D01*
X142059991Y-70154765D01*
X142624371Y-69921568D01*
X143056551Y-69490143D01*
X143290733Y-68926170D01*
X143290845Y-68796491D01*
X153507735Y-68796491D01*
X153740932Y-69360871D01*
X154172357Y-69793051D01*
X154736330Y-70027233D01*
X155346991Y-70027765D01*
X155911371Y-69794568D01*
X156343551Y-69363143D01*
X156473375Y-69050491D01*
X162445735Y-69050491D01*
X162678932Y-69614871D01*
X163110357Y-70047051D01*
X163674330Y-70281233D01*
X164284991Y-70281765D01*
X164849371Y-70048568D01*
X165281551Y-69617143D01*
X165515733Y-69053170D01*
X165516265Y-68442509D01*
X165283068Y-67878129D01*
X164851643Y-67445949D01*
X164287670Y-67211767D01*
X163677009Y-67211235D01*
X163112629Y-67444432D01*
X162680449Y-67875857D01*
X162446267Y-68439830D01*
X162445735Y-69050491D01*
X156473375Y-69050491D01*
X156577733Y-68799170D01*
X156578265Y-68188509D01*
X156345068Y-67624129D01*
X155913643Y-67191949D01*
X155349670Y-66957767D01*
X154739009Y-66957235D01*
X154174629Y-67190432D01*
X153742449Y-67621857D01*
X153508267Y-68185830D01*
X153507735Y-68796491D01*
X143290845Y-68796491D01*
X143291265Y-68315509D01*
X143058068Y-67751129D01*
X142626643Y-67318949D01*
X142062670Y-67084767D01*
X141452009Y-67084235D01*
X140887629Y-67317432D01*
X140455449Y-67748857D01*
X140221267Y-68312830D01*
X140220735Y-68923491D01*
X136201810Y-68923491D01*
X136043689Y-68540811D01*
X135890000Y-68386854D01*
X135890000Y-65923491D01*
X143220735Y-65923491D01*
X143453932Y-66487871D01*
X143885357Y-66920051D01*
X144449330Y-67154233D01*
X145059991Y-67154765D01*
X145624371Y-66921568D01*
X146056551Y-66490143D01*
X146290733Y-65926170D01*
X146290845Y-65796491D01*
X150507735Y-65796491D01*
X150740932Y-66360871D01*
X151172357Y-66793051D01*
X151736330Y-67027233D01*
X152346991Y-67027765D01*
X152911371Y-66794568D01*
X153343551Y-66363143D01*
X153473375Y-66050491D01*
X165445735Y-66050491D01*
X165678932Y-66614871D01*
X166110357Y-67047051D01*
X166674330Y-67281233D01*
X167284991Y-67281765D01*
X167849371Y-67048568D01*
X168281551Y-66617143D01*
X168515733Y-66053170D01*
X168516265Y-65442509D01*
X168283068Y-64878129D01*
X167851643Y-64445949D01*
X167287670Y-64211767D01*
X166677009Y-64211235D01*
X166112629Y-64444432D01*
X165680449Y-64875857D01*
X165446267Y-65439830D01*
X165445735Y-66050491D01*
X153473375Y-66050491D01*
X153577733Y-65799170D01*
X153578265Y-65188509D01*
X153345068Y-64624129D01*
X152913643Y-64191949D01*
X152349670Y-63957767D01*
X151739009Y-63957235D01*
X151174629Y-64190432D01*
X150742449Y-64621857D01*
X150508267Y-65185830D01*
X150507735Y-65796491D01*
X146290845Y-65796491D01*
X146291265Y-65315509D01*
X146058068Y-64751129D01*
X145626643Y-64318949D01*
X145062670Y-64084767D01*
X144452009Y-64084235D01*
X143887629Y-64317432D01*
X143455449Y-64748857D01*
X143221267Y-65312830D01*
X143220735Y-65923491D01*
X135890000Y-65923491D01*
X135890000Y-64325500D01*
X135831996Y-64033895D01*
X135765834Y-63934877D01*
X135666816Y-63786685D01*
X132863220Y-60983089D01*
X133008189Y-60923189D01*
X133312122Y-60619786D01*
X133476813Y-60223168D01*
X133477187Y-59793716D01*
X133313189Y-59396811D01*
X133159500Y-59242854D01*
X133159500Y-54739642D01*
X133283163Y-54616194D01*
X134826726Y-54616194D01*
X135075038Y-55217155D01*
X135534427Y-55677346D01*
X136022932Y-55880191D01*
X135536845Y-56081038D01*
X135076654Y-56540427D01*
X134827294Y-57140953D01*
X134826726Y-57791194D01*
X135075038Y-58392155D01*
X135534427Y-58852346D01*
X136054604Y-59068342D01*
X135600345Y-59256038D01*
X135140154Y-59715427D01*
X134890794Y-60315953D01*
X134890226Y-60966194D01*
X135138538Y-61567155D01*
X135597927Y-62027346D01*
X136198453Y-62276706D01*
X136848694Y-62277274D01*
X137449655Y-62028962D01*
X137909846Y-61569573D01*
X138159206Y-60969047D01*
X138159774Y-60318806D01*
X137911462Y-59717845D01*
X137452073Y-59257654D01*
X136931896Y-59041658D01*
X137386155Y-58853962D01*
X137846346Y-58394573D01*
X137877730Y-58318991D01*
X140030235Y-58318991D01*
X140263432Y-58883371D01*
X140694857Y-59315551D01*
X141258830Y-59549733D01*
X141869491Y-59550265D01*
X142433871Y-59317068D01*
X142866051Y-58885643D01*
X143074977Y-58382491D01*
X153634735Y-58382491D01*
X153867932Y-58946871D01*
X154299357Y-59379051D01*
X154863330Y-59613233D01*
X155473991Y-59613765D01*
X156038371Y-59380568D01*
X156470551Y-58949143D01*
X156704733Y-58385170D01*
X156704845Y-58255491D01*
X162445735Y-58255491D01*
X162678932Y-58819871D01*
X163110357Y-59252051D01*
X163674330Y-59486233D01*
X164284991Y-59486765D01*
X164849371Y-59253568D01*
X165281551Y-58822143D01*
X165515733Y-58258170D01*
X165516265Y-57647509D01*
X165283068Y-57083129D01*
X164851643Y-56650949D01*
X164287670Y-56416767D01*
X163677009Y-56416235D01*
X163112629Y-56649432D01*
X162680449Y-57080857D01*
X162446267Y-57644830D01*
X162445735Y-58255491D01*
X156704845Y-58255491D01*
X156705265Y-57774509D01*
X156472068Y-57210129D01*
X156040643Y-56777949D01*
X155476670Y-56543767D01*
X154866009Y-56543235D01*
X154301629Y-56776432D01*
X153869449Y-57207857D01*
X153635267Y-57771830D01*
X153634735Y-58382491D01*
X143074977Y-58382491D01*
X143100233Y-58321670D01*
X143100765Y-57711009D01*
X142867568Y-57146629D01*
X142436143Y-56714449D01*
X141872170Y-56480267D01*
X141261509Y-56479735D01*
X140697129Y-56712932D01*
X140264949Y-57144357D01*
X140030767Y-57708330D01*
X140030235Y-58318991D01*
X137877730Y-58318991D01*
X138095706Y-57794047D01*
X138096274Y-57143806D01*
X137847962Y-56542845D01*
X137388573Y-56082654D01*
X136900068Y-55879809D01*
X137386155Y-55678962D01*
X137746754Y-55318991D01*
X143030235Y-55318991D01*
X143263432Y-55883371D01*
X143694857Y-56315551D01*
X144258830Y-56549733D01*
X144869491Y-56550265D01*
X145433871Y-56317068D01*
X145866051Y-55885643D01*
X146074977Y-55382491D01*
X150634735Y-55382491D01*
X150867932Y-55946871D01*
X151299357Y-56379051D01*
X151863330Y-56613233D01*
X152473991Y-56613765D01*
X153038371Y-56380568D01*
X153470551Y-55949143D01*
X153704733Y-55385170D01*
X153704845Y-55255491D01*
X165445735Y-55255491D01*
X165678932Y-55819871D01*
X166110357Y-56252051D01*
X166674330Y-56486233D01*
X167284991Y-56486765D01*
X167849371Y-56253568D01*
X168281551Y-55822143D01*
X168515733Y-55258170D01*
X168516265Y-54647509D01*
X168503326Y-54616194D01*
X174069726Y-54616194D01*
X174318038Y-55217155D01*
X174777427Y-55677346D01*
X175112630Y-55816534D01*
X174779845Y-55954038D01*
X174319654Y-56413427D01*
X174070294Y-57013953D01*
X174069726Y-57664194D01*
X174318038Y-58265155D01*
X174777427Y-58725346D01*
X175377953Y-58974706D01*
X176028194Y-58975274D01*
X176629155Y-58726962D01*
X177089346Y-58267573D01*
X177338706Y-57667047D01*
X177339274Y-57016806D01*
X177090962Y-56415845D01*
X176631573Y-55955654D01*
X176296370Y-55816466D01*
X176629155Y-55678962D01*
X177089346Y-55219573D01*
X177338706Y-54619047D01*
X177339274Y-53968806D01*
X177090962Y-53367845D01*
X176631573Y-52907654D01*
X176031047Y-52658294D01*
X175380806Y-52657726D01*
X174779845Y-52906038D01*
X174319654Y-53365427D01*
X174070294Y-53965953D01*
X174069726Y-54616194D01*
X168503326Y-54616194D01*
X168283068Y-54083129D01*
X167851643Y-53650949D01*
X167287670Y-53416767D01*
X166677009Y-53416235D01*
X166112629Y-53649432D01*
X165680449Y-54080857D01*
X165446267Y-54644830D01*
X165445735Y-55255491D01*
X153704845Y-55255491D01*
X153705265Y-54774509D01*
X153472068Y-54210129D01*
X153040643Y-53777949D01*
X152476670Y-53543767D01*
X151866009Y-53543235D01*
X151301629Y-53776432D01*
X150869449Y-54207857D01*
X150635267Y-54771830D01*
X150634735Y-55382491D01*
X146074977Y-55382491D01*
X146100233Y-55321670D01*
X146100765Y-54711009D01*
X145867568Y-54146629D01*
X145436143Y-53714449D01*
X144872170Y-53480267D01*
X144261509Y-53479735D01*
X143697129Y-53712932D01*
X143264949Y-54144357D01*
X143030767Y-54708330D01*
X143030235Y-55318991D01*
X137746754Y-55318991D01*
X137846346Y-55219573D01*
X138095706Y-54619047D01*
X138096274Y-53968806D01*
X137847962Y-53367845D01*
X137388573Y-52907654D01*
X136788047Y-52658294D01*
X136137806Y-52657726D01*
X135536845Y-52906038D01*
X135076654Y-53365427D01*
X134827294Y-53965953D01*
X134826726Y-54616194D01*
X133283163Y-54616194D01*
X133312122Y-54587286D01*
X133476813Y-54190668D01*
X133477187Y-53761216D01*
X133313189Y-53364311D01*
X133009786Y-53060378D01*
X132918195Y-53022346D01*
X133309784Y-53022687D01*
X133706689Y-52858689D01*
X134010622Y-52555286D01*
X134175313Y-52158668D01*
X134175687Y-51729216D01*
X134011689Y-51332311D01*
X133708286Y-51028378D01*
X133311668Y-50863687D01*
X132882216Y-50863313D01*
X132485311Y-51027311D01*
X132204132Y-51308000D01*
X124650500Y-51308000D01*
X124358895Y-51366004D01*
X124111684Y-51531185D01*
X120111185Y-55531685D01*
X119946004Y-55778895D01*
X119888000Y-56070500D01*
X119888000Y-70804370D01*
X116586935Y-74105435D01*
X116421754Y-74352645D01*
X116363750Y-74644250D01*
X116363750Y-80295750D01*
X116421754Y-80587355D01*
X116502701Y-80708500D01*
X116586935Y-80834565D01*
X119888001Y-84135631D01*
X119887813Y-84351284D01*
X120051811Y-84748189D01*
X120355214Y-85052122D01*
X120751832Y-85216813D01*
X121096256Y-85217113D01*
X120091263Y-86222107D01*
X119975811Y-86269811D01*
X119671878Y-86573214D01*
X119507187Y-86969832D01*
X119506813Y-87399284D01*
X119556072Y-87518501D01*
X119342395Y-87561004D01*
X119243377Y-87627166D01*
X119095185Y-87726184D01*
X115856685Y-90964685D01*
X115691504Y-91211895D01*
X115633500Y-91503500D01*
X115633500Y-98679000D01*
X115691504Y-98970605D01*
X115839767Y-99192496D01*
X115856685Y-99217815D01*
X125603000Y-108964130D01*
X125603000Y-110940241D01*
X125491000Y-110917560D01*
X124695191Y-110917560D01*
X123030315Y-109252685D01*
X122932482Y-109187315D01*
X122783105Y-109087504D01*
X122491500Y-109029500D01*
X121366426Y-109029500D01*
X121167529Y-108731830D01*
X120681348Y-108406974D01*
X120107859Y-108292900D01*
X120049141Y-108292900D01*
X119475652Y-108406974D01*
X118989471Y-108731830D01*
X118808500Y-109002672D01*
X118627529Y-108731830D01*
X118141348Y-108406974D01*
X117567859Y-108292900D01*
X117509141Y-108292900D01*
X116935652Y-108406974D01*
X116449471Y-108731830D01*
X116124615Y-109218011D01*
X116010541Y-109791500D01*
X116124615Y-110364989D01*
X116449471Y-110851170D01*
X116764252Y-111061500D01*
X116449471Y-111271830D01*
X116124615Y-111758011D01*
X116010541Y-112331500D01*
X116124615Y-112904989D01*
X116449471Y-113391170D01*
X116764252Y-113601500D01*
X116449471Y-113811830D01*
X116124615Y-114298011D01*
X116010541Y-114871500D01*
X116124615Y-115444989D01*
X116449471Y-115931170D01*
X116764252Y-116141500D01*
X116449471Y-116351830D01*
X116124615Y-116838011D01*
X116010541Y-117411500D01*
X116124615Y-117984989D01*
X116449471Y-118471170D01*
X116772728Y-118687164D01*
X116650010Y-118744679D01*
X116255812Y-119176553D01*
X116083542Y-119592474D01*
X116204683Y-119824500D01*
X117411500Y-119824500D01*
X117411500Y-119804500D01*
X117665500Y-119804500D01*
X117665500Y-119824500D01*
X117685500Y-119824500D01*
X117685500Y-120078500D01*
X117665500Y-120078500D01*
X117665500Y-122364500D01*
X117685500Y-122364500D01*
X117685500Y-122618500D01*
X117665500Y-122618500D01*
X117665500Y-124904500D01*
X117685500Y-124904500D01*
X117685500Y-125158500D01*
X117665500Y-125158500D01*
X117665500Y-126365969D01*
X117897527Y-126486468D01*
X118426990Y-126238321D01*
X118596995Y-126052067D01*
X118611738Y-126130417D01*
X118750810Y-126346541D01*
X118963010Y-126491531D01*
X119214900Y-126542540D01*
X120942100Y-126542540D01*
X121177417Y-126498262D01*
X121393541Y-126359190D01*
X121538531Y-126146990D01*
X121589540Y-125895100D01*
X121589540Y-124167900D01*
X121545262Y-123932583D01*
X121406190Y-123716459D01*
X121193990Y-123571469D01*
X121150369Y-123562636D01*
X121167529Y-123551170D01*
X121492385Y-123064989D01*
X121606459Y-122491500D01*
X121492385Y-121918011D01*
X121167529Y-121431830D01*
X120852748Y-121221500D01*
X121167529Y-121011170D01*
X121492385Y-120524989D01*
X121606459Y-119951500D01*
X121492385Y-119378011D01*
X121167529Y-118891830D01*
X120852748Y-118681500D01*
X121167529Y-118471170D01*
X121492385Y-117984989D01*
X121606459Y-117411500D01*
X121492385Y-116838011D01*
X121167529Y-116351830D01*
X120852748Y-116141500D01*
X121167529Y-115931170D01*
X121492385Y-115444989D01*
X121606459Y-114871500D01*
X121492385Y-114298011D01*
X121167529Y-113811830D01*
X120852748Y-113601500D01*
X121167529Y-113391170D01*
X121492385Y-112904989D01*
X121606459Y-112331500D01*
X121492385Y-111758011D01*
X121167529Y-111271830D01*
X120852748Y-111061500D01*
X121167529Y-110851170D01*
X121366426Y-110553500D01*
X122175870Y-110553500D01*
X123543560Y-111921191D01*
X123543560Y-113065000D01*
X123587838Y-113300317D01*
X123726910Y-113516441D01*
X123939110Y-113661431D01*
X123952197Y-113664081D01*
X123739559Y-113800910D01*
X123594569Y-114013110D01*
X123543560Y-114265000D01*
X123543560Y-115765000D01*
X123587838Y-116000317D01*
X123726910Y-116216441D01*
X123939110Y-116361431D01*
X124079000Y-116389759D01*
X124079000Y-119761000D01*
X124137004Y-120052605D01*
X124281595Y-120269000D01*
X124302185Y-120299815D01*
X127000001Y-122997632D01*
X126999813Y-123213284D01*
X127163811Y-123610189D01*
X127467214Y-123914122D01*
X127863832Y-124078813D01*
X128293284Y-124079187D01*
X128524000Y-123983857D01*
X128524000Y-126740574D01*
X128231668Y-126619187D01*
X127802216Y-126618813D01*
X127405311Y-126782811D01*
X127101378Y-127086214D01*
X126936687Y-127482832D01*
X126936313Y-127912284D01*
X127100311Y-128309189D01*
X127403714Y-128613122D01*
X127800332Y-128777813D01*
X128017872Y-128778002D01*
X129668869Y-130429000D01*
X118362131Y-130429000D01*
X114808000Y-126874870D01*
X114808000Y-125390526D01*
X116083542Y-125390526D01*
X116255812Y-125806447D01*
X116650010Y-126238321D01*
X117179473Y-126486468D01*
X117411500Y-126365969D01*
X117411500Y-125158500D01*
X116204683Y-125158500D01*
X116083542Y-125390526D01*
X114808000Y-125390526D01*
X114808000Y-122850526D01*
X116083542Y-122850526D01*
X116255812Y-123266447D01*
X116650010Y-123698321D01*
X116784813Y-123761500D01*
X116650010Y-123824679D01*
X116255812Y-124256553D01*
X116083542Y-124672474D01*
X116204683Y-124904500D01*
X117411500Y-124904500D01*
X117411500Y-122618500D01*
X116204683Y-122618500D01*
X116083542Y-122850526D01*
X114808000Y-122850526D01*
X114808000Y-120310526D01*
X116083542Y-120310526D01*
X116255812Y-120726447D01*
X116650010Y-121158321D01*
X116784813Y-121221500D01*
X116650010Y-121284679D01*
X116255812Y-121716553D01*
X116083542Y-122132474D01*
X116204683Y-122364500D01*
X117411500Y-122364500D01*
X117411500Y-120078500D01*
X116204683Y-120078500D01*
X116083542Y-120310526D01*
X114808000Y-120310526D01*
X114808000Y-91569642D01*
X114960622Y-91417286D01*
X115125313Y-91020668D01*
X115125687Y-90591216D01*
X114961689Y-90194311D01*
X114658286Y-89890378D01*
X114261668Y-89725687D01*
X113832216Y-89725313D01*
X113435311Y-89889311D01*
X113131378Y-90192714D01*
X112966687Y-90589332D01*
X112966313Y-91018784D01*
X110553500Y-91018784D01*
X110553500Y-47680875D01*
X111312230Y-47680875D01*
X111676130Y-48173710D01*
X113072624Y-48762937D01*
X114588303Y-48772898D01*
X115992420Y-48202074D01*
X116034870Y-48173710D01*
X116398770Y-47680875D01*
X183067230Y-47680875D01*
X183431130Y-48173710D01*
X184827624Y-48762937D01*
X186343303Y-48772898D01*
X187747420Y-48202074D01*
X187789870Y-48173710D01*
X188153770Y-47680875D01*
X185610500Y-45137605D01*
X183067230Y-47680875D01*
X116398770Y-47680875D01*
X113855500Y-45137605D01*
X111312230Y-47680875D01*
X110553500Y-47680875D01*
X110553500Y-46952433D01*
X110611426Y-47094920D01*
X110639790Y-47137370D01*
X111132625Y-47501270D01*
X113675895Y-44958000D01*
X114035105Y-44958000D01*
X116578375Y-47501270D01*
X117071210Y-47137370D01*
X117660437Y-45740876D01*
X117660766Y-45690803D01*
X181795602Y-45690803D01*
X182366426Y-47094920D01*
X182394790Y-47137370D01*
X182887625Y-47501270D01*
X185430895Y-44958000D01*
X182887625Y-42414730D01*
X182394790Y-42778630D01*
X181805563Y-44175124D01*
X181795602Y-45690803D01*
X117660766Y-45690803D01*
X117670398Y-44225197D01*
X117099574Y-42821080D01*
X117071210Y-42778630D01*
X116578375Y-42414730D01*
X114035105Y-44958000D01*
X113675895Y-44958000D01*
X111132625Y-42414730D01*
X110639790Y-42778630D01*
X110553500Y-42983141D01*
X110553500Y-41783103D01*
X111645341Y-41783988D01*
X111645341Y-41783988D01*
G37*
X111645341Y-41783988D02*
X111312230Y-42235125D01*
X113855500Y-44778395D01*
X116398770Y-42235125D01*
X116068305Y-41787572D01*
X183357431Y-41842101D01*
X183067230Y-42235125D01*
X185610500Y-44778395D01*
X188153770Y-42235125D01*
X187866267Y-41845755D01*
X188658336Y-41846397D01*
X188657291Y-42653904D01*
X188333375Y-42414730D01*
X185790105Y-44958000D01*
X188333375Y-47501270D01*
X188651324Y-47266502D01*
X188538869Y-134194012D01*
X188079375Y-133854730D01*
X185536105Y-136398000D01*
X188079375Y-138941270D01*
X188533161Y-138606203D01*
X188531664Y-139763500D01*
X187194735Y-139763500D01*
X187493420Y-139642074D01*
X187535870Y-139613710D01*
X187899770Y-139120875D01*
X185356500Y-136577605D01*
X182813230Y-139120875D01*
X183177130Y-139613710D01*
X183532139Y-139763500D01*
X115606142Y-139763500D01*
X116373420Y-139451574D01*
X116415870Y-139423210D01*
X116779770Y-138930375D01*
X114236500Y-136387105D01*
X111693230Y-138930375D01*
X112057130Y-139423210D01*
X112863632Y-139763500D01*
X110553500Y-139763500D01*
X110553500Y-137264747D01*
X110992426Y-138344420D01*
X111020790Y-138386870D01*
X111513625Y-138750770D01*
X114056895Y-136207500D01*
X114416105Y-136207500D01*
X116959375Y-138750770D01*
X117452210Y-138386870D01*
X117982186Y-137130803D01*
X181541602Y-137130803D01*
X182112426Y-138534920D01*
X182140790Y-138577370D01*
X182633625Y-138941270D01*
X185176895Y-136398000D01*
X182633625Y-133854730D01*
X182140790Y-134218630D01*
X181551563Y-135615124D01*
X181541602Y-137130803D01*
X117982186Y-137130803D01*
X118041437Y-136990376D01*
X118051398Y-135474697D01*
X117945735Y-135214784D01*
X167703313Y-135214784D01*
X167867311Y-135611689D01*
X168170714Y-135915622D01*
X168567332Y-136080313D01*
X168996784Y-136080687D01*
X169393689Y-135916689D01*
X169697622Y-135613286D01*
X169862313Y-135216668D01*
X169862613Y-134872017D01*
X171059505Y-133675125D01*
X182813230Y-133675125D01*
X185356500Y-136218395D01*
X187899770Y-133675125D01*
X187535870Y-133182290D01*
X186139376Y-132593063D01*
X184623697Y-132583102D01*
X183219580Y-133153926D01*
X183177130Y-133182290D01*
X182813230Y-133675125D01*
X171059505Y-133675125D01*
X173416631Y-131317999D01*
X173632284Y-131318187D01*
X174029189Y-131154189D01*
X174333122Y-130850786D01*
X174497813Y-130454168D01*
X174497917Y-130333750D01*
X178308000Y-130333750D01*
X178308000Y-131190309D01*
X178404673Y-131423698D01*
X178583301Y-131602327D01*
X178816690Y-131699000D01*
X179673250Y-131699000D01*
X179832000Y-131540250D01*
X179832000Y-130175000D01*
X178466750Y-130175000D01*
X178308000Y-130333750D01*
X174497917Y-130333750D01*
X174498187Y-130024716D01*
X174334189Y-129627811D01*
X174030786Y-129323878D01*
X173634168Y-129159187D01*
X173204716Y-129158813D01*
X172807811Y-129322811D01*
X172503878Y-129626214D01*
X172339187Y-130022832D01*
X172338998Y-130240372D01*
X168657980Y-133921390D01*
X168569216Y-133921313D01*
X168172311Y-134085311D01*
X167868378Y-134388714D01*
X167703687Y-134785332D01*
X167703313Y-135214784D01*
X117945735Y-135214784D01*
X117480574Y-134070580D01*
X117452210Y-134028130D01*
X116959375Y-133664230D01*
X114416105Y-136207500D01*
X114056895Y-136207500D01*
X111513625Y-133664230D01*
X111020790Y-134028130D01*
X110553500Y-135135628D01*
X110553500Y-133484625D01*
X111693230Y-133484625D01*
X114236500Y-136027895D01*
X116779770Y-133484625D01*
X116415870Y-132991790D01*
X115019376Y-132402563D01*
X113503697Y-132392602D01*
X112099580Y-132963426D01*
X112057130Y-132991790D01*
X111693230Y-133484625D01*
X110553500Y-133484625D01*
X110553500Y-91018784D01*
X112966313Y-91018784D01*
X113130311Y-91415689D01*
X113284000Y-91569646D01*
X113284000Y-127190500D01*
X113342004Y-127482105D01*
X113401736Y-127571500D01*
X113507185Y-127729315D01*
X117507684Y-131729815D01*
X117754895Y-131894996D01*
X118046500Y-131953000D01*
X126851972Y-131953000D01*
X126809687Y-132054832D01*
X126809313Y-132484284D01*
X126973311Y-132881189D01*
X127276714Y-133185122D01*
X127673332Y-133349813D01*
X128102784Y-133350187D01*
X128499689Y-133186189D01*
X128653646Y-133032500D01*
X138300358Y-133032500D01*
X138452714Y-133185122D01*
X138849332Y-133349813D01*
X139278784Y-133350187D01*
X139675689Y-133186189D01*
X139979622Y-132882786D01*
X140144313Y-132486168D01*
X140144561Y-132201570D01*
X140374189Y-132106689D01*
X140678122Y-131803286D01*
X140842813Y-131406668D01*
X140843187Y-130977216D01*
X140679189Y-130580311D01*
X140375786Y-130276378D01*
X139979168Y-130111687D01*
X139549716Y-130111313D01*
X139152811Y-130275311D01*
X138998854Y-130429000D01*
X137475630Y-130429000D01*
X137952815Y-129951816D01*
X138117996Y-129704605D01*
X138151831Y-129534504D01*
X138176000Y-129413000D01*
X138176000Y-128905691D01*
X178308000Y-128905691D01*
X178308000Y-129762250D01*
X178466750Y-129921000D01*
X179832000Y-129921000D01*
X179832000Y-128555750D01*
X180086000Y-128555750D01*
X180086000Y-129921000D01*
X180106000Y-129921000D01*
X180106000Y-130175000D01*
X180086000Y-130175000D01*
X180086000Y-131540250D01*
X180244750Y-131699000D01*
X181101310Y-131699000D01*
X181334699Y-131602327D01*
X181513327Y-131423698D01*
X181530999Y-131381034D01*
X181867190Y-131605670D01*
X182499000Y-131731345D01*
X183130810Y-131605670D01*
X183666433Y-131247778D01*
X184024325Y-130712155D01*
X184150000Y-130080345D01*
X184150000Y-130015655D01*
X184024325Y-129383845D01*
X183666433Y-128848222D01*
X183130810Y-128490330D01*
X182499000Y-128364655D01*
X181867190Y-128490330D01*
X181530999Y-128714966D01*
X181513327Y-128672302D01*
X181334699Y-128493673D01*
X181101310Y-128397000D01*
X180244750Y-128397000D01*
X180086000Y-128555750D01*
X179832000Y-128555750D01*
X179673250Y-128397000D01*
X178816690Y-128397000D01*
X178583301Y-128493673D01*
X178404673Y-128672302D01*
X178308000Y-128905691D01*
X138176000Y-128905691D01*
X138176000Y-125755991D01*
X161366235Y-125755991D01*
X161599432Y-126320371D01*
X162030857Y-126752551D01*
X162594830Y-126986733D01*
X163205491Y-126987265D01*
X163769871Y-126754068D01*
X164202051Y-126322643D01*
X164436233Y-125758670D01*
X164436765Y-125148009D01*
X164203568Y-124583629D01*
X163772143Y-124151449D01*
X163208170Y-123917267D01*
X162597509Y-123916735D01*
X162033129Y-124149932D01*
X161600949Y-124581357D01*
X161366767Y-125145330D01*
X161366235Y-125755991D01*
X138176000Y-125755991D01*
X138176000Y-124079000D01*
X138143278Y-123914491D01*
X139649235Y-123914491D01*
X139882432Y-124478871D01*
X140313857Y-124911051D01*
X140877830Y-125145233D01*
X141488491Y-125145765D01*
X142052871Y-124912568D01*
X142485051Y-124481143D01*
X142719233Y-123917170D01*
X142719235Y-123914491D01*
X153253735Y-123914491D01*
X153486932Y-124478871D01*
X153918357Y-124911051D01*
X154482330Y-125145233D01*
X155092991Y-125145765D01*
X155657371Y-124912568D01*
X156089551Y-124481143D01*
X156323733Y-123917170D01*
X156324265Y-123306509D01*
X156096796Y-122755991D01*
X164366235Y-122755991D01*
X164599432Y-123320371D01*
X165030857Y-123752551D01*
X165594830Y-123986733D01*
X166205491Y-123987265D01*
X166769871Y-123754068D01*
X167202051Y-123322643D01*
X167436233Y-122758670D01*
X167436410Y-122555000D01*
X173609000Y-122555000D01*
X173609000Y-125730000D01*
X173667004Y-126021605D01*
X173832185Y-126268815D01*
X174276685Y-126713315D01*
X174523895Y-126878496D01*
X174815500Y-126936500D01*
X176209858Y-126936500D01*
X176362214Y-127089122D01*
X176758832Y-127253813D01*
X177188284Y-127254187D01*
X177585189Y-127090189D01*
X177889122Y-126786786D01*
X178011566Y-126491909D01*
X178331284Y-126492187D01*
X178728189Y-126328189D01*
X179032122Y-126024786D01*
X179196813Y-125628168D01*
X179197187Y-125198716D01*
X179033189Y-124801811D01*
X178729786Y-124497878D01*
X178333168Y-124333187D01*
X177903716Y-124332813D01*
X177612870Y-124452988D01*
X177520105Y-124391004D01*
X177228500Y-124333000D01*
X176020130Y-124333000D01*
X175895000Y-124207870D01*
X175895000Y-123505630D01*
X176083631Y-123317000D01*
X177355500Y-123317000D01*
X177647105Y-123258996D01*
X177894315Y-123093815D01*
X178592815Y-122395315D01*
X178757996Y-122148105D01*
X178766569Y-122105004D01*
X178816000Y-121856500D01*
X178816000Y-120650000D01*
X178757997Y-120358396D01*
X178592816Y-120111185D01*
X176466499Y-117984869D01*
X176466687Y-117769216D01*
X176302689Y-117372311D01*
X175999286Y-117068378D01*
X175602668Y-116903687D01*
X175173216Y-116903313D01*
X174776311Y-117067311D01*
X174472378Y-117370714D01*
X174307687Y-117767332D01*
X174307313Y-118196784D01*
X174471311Y-118593689D01*
X174774714Y-118897622D01*
X175171332Y-119062313D01*
X175388872Y-119062502D01*
X176785704Y-120459335D01*
X176760716Y-120459313D01*
X176363811Y-120623311D01*
X176209854Y-120777000D01*
X175387000Y-120777000D01*
X175095395Y-120835004D01*
X174958142Y-120926714D01*
X174848185Y-121000185D01*
X173832185Y-122016185D01*
X173667004Y-122263395D01*
X173609000Y-122555000D01*
X167436410Y-122555000D01*
X167436765Y-122148009D01*
X167203568Y-121583629D01*
X166772143Y-121151449D01*
X166208170Y-120917267D01*
X165597509Y-120916735D01*
X165033129Y-121149932D01*
X164600949Y-121581357D01*
X164366767Y-122145330D01*
X164366235Y-122755991D01*
X156096796Y-122755991D01*
X156091068Y-122742129D01*
X155659643Y-122309949D01*
X155095670Y-122075767D01*
X154485009Y-122075235D01*
X153920629Y-122308432D01*
X153488449Y-122739857D01*
X153254267Y-123303830D01*
X153253735Y-123914491D01*
X142719235Y-123914491D01*
X142719765Y-123306509D01*
X142486568Y-122742129D01*
X142055143Y-122309949D01*
X141491170Y-122075767D01*
X140880509Y-122075235D01*
X140316129Y-122308432D01*
X139883949Y-122739857D01*
X139649767Y-123303830D01*
X139649235Y-123914491D01*
X138143278Y-123914491D01*
X138117996Y-123787395D01*
X138100694Y-123761501D01*
X137952815Y-123540184D01*
X136652000Y-122239370D01*
X136652000Y-120914491D01*
X142649235Y-120914491D01*
X142882432Y-121478871D01*
X143313857Y-121911051D01*
X143877830Y-122145233D01*
X144488491Y-122145765D01*
X145052871Y-121912568D01*
X145485051Y-121481143D01*
X145719233Y-120917170D01*
X145719235Y-120914491D01*
X150253735Y-120914491D01*
X150486932Y-121478871D01*
X150918357Y-121911051D01*
X151482330Y-122145233D01*
X152092991Y-122145765D01*
X152657371Y-121912568D01*
X153089551Y-121481143D01*
X153323733Y-120917170D01*
X153324265Y-120306509D01*
X153091068Y-119742129D01*
X152659643Y-119309949D01*
X152095670Y-119075767D01*
X151485009Y-119075235D01*
X150920629Y-119308432D01*
X150488449Y-119739857D01*
X150254267Y-120303830D01*
X150253735Y-120914491D01*
X145719235Y-120914491D01*
X145719765Y-120306509D01*
X145486568Y-119742129D01*
X145055143Y-119309949D01*
X144491170Y-119075767D01*
X143880509Y-119075235D01*
X143316129Y-119308432D01*
X142883949Y-119739857D01*
X142649767Y-120303830D01*
X142649235Y-120914491D01*
X136652000Y-120914491D01*
X136652000Y-119378130D01*
X137762316Y-118267815D01*
X137910193Y-118046500D01*
X137927496Y-118020605D01*
X137985500Y-117729000D01*
X137985500Y-117538500D01*
X137927496Y-117246895D01*
X137842637Y-117119895D01*
X137762316Y-116999685D01*
X136652000Y-115889370D01*
X136652000Y-114135491D01*
X161620235Y-114135491D01*
X161853432Y-114699871D01*
X162284857Y-115132051D01*
X162848830Y-115366233D01*
X163459491Y-115366765D01*
X164023871Y-115133568D01*
X164456051Y-114702143D01*
X164690233Y-114138170D01*
X164690765Y-113527509D01*
X164457568Y-112963129D01*
X164026143Y-112530949D01*
X163462170Y-112296767D01*
X162851509Y-112296235D01*
X162287129Y-112529432D01*
X161854949Y-112960857D01*
X161620767Y-113524830D01*
X161620235Y-114135491D01*
X136652000Y-114135491D01*
X136652000Y-112420991D01*
X139839735Y-112420991D01*
X140072932Y-112985371D01*
X140504357Y-113417551D01*
X141068330Y-113651733D01*
X141678991Y-113652265D01*
X142243371Y-113419068D01*
X142675551Y-112987643D01*
X142831742Y-112611491D01*
X153126735Y-112611491D01*
X153359932Y-113175871D01*
X153791357Y-113608051D01*
X154355330Y-113842233D01*
X154965991Y-113842765D01*
X155530371Y-113609568D01*
X155962551Y-113178143D01*
X156196733Y-112614170D01*
X156197265Y-112003509D01*
X155964068Y-111439129D01*
X155660961Y-111135491D01*
X164620235Y-111135491D01*
X164853432Y-111699871D01*
X165284857Y-112132051D01*
X165848830Y-112366233D01*
X166459491Y-112366765D01*
X167023871Y-112133568D01*
X167456051Y-111702143D01*
X167642966Y-111252000D01*
X174371000Y-111252000D01*
X174371000Y-113474500D01*
X174429004Y-113766105D01*
X174480227Y-113842765D01*
X174594185Y-114013315D01*
X175165685Y-114584815D01*
X175412895Y-114749996D01*
X175704500Y-114808000D01*
X177479858Y-114808000D01*
X177632214Y-114960622D01*
X178028832Y-115125313D01*
X178458284Y-115125687D01*
X178855189Y-114961689D01*
X179159122Y-114658286D01*
X179323813Y-114261668D01*
X179324187Y-113832216D01*
X179160189Y-113435311D01*
X178856786Y-113131378D01*
X178460168Y-112966687D01*
X178030716Y-112966313D01*
X177633811Y-113130311D01*
X177479854Y-113284000D01*
X176020130Y-113284000D01*
X175895000Y-113158870D01*
X175895000Y-111567630D01*
X176274131Y-111188500D01*
X177543247Y-111188500D01*
X177632214Y-111277622D01*
X178028832Y-111442313D01*
X178458284Y-111442687D01*
X178855189Y-111278689D01*
X179159122Y-110975286D01*
X179323813Y-110578668D01*
X179324187Y-110149216D01*
X179160189Y-109752311D01*
X178856786Y-109448378D01*
X178460168Y-109283687D01*
X178030716Y-109283313D01*
X177633811Y-109447311D01*
X177416243Y-109664500D01*
X175958500Y-109664500D01*
X175666895Y-109722504D01*
X175419684Y-109887685D01*
X174594185Y-110713185D01*
X174429004Y-110960395D01*
X174371000Y-111252000D01*
X167642966Y-111252000D01*
X167690233Y-111138170D01*
X167690765Y-110527509D01*
X167457568Y-109963129D01*
X167026143Y-109530949D01*
X166462170Y-109296767D01*
X165851509Y-109296235D01*
X165287129Y-109529432D01*
X164854949Y-109960857D01*
X164620767Y-110524830D01*
X164620235Y-111135491D01*
X155660961Y-111135491D01*
X155532643Y-111006949D01*
X154968670Y-110772767D01*
X154358009Y-110772235D01*
X153793629Y-111005432D01*
X153361449Y-111436857D01*
X153127267Y-112000830D01*
X153126735Y-112611491D01*
X142831742Y-112611491D01*
X142909733Y-112423670D01*
X142910265Y-111813009D01*
X142677068Y-111248629D01*
X142245643Y-110816449D01*
X141681670Y-110582267D01*
X141071009Y-110581735D01*
X140506629Y-110814932D01*
X140074449Y-111246357D01*
X139840267Y-111810330D01*
X139839735Y-112420991D01*
X136652000Y-112420991D01*
X136652000Y-109420991D01*
X142839735Y-109420991D01*
X143072932Y-109985371D01*
X143504357Y-110417551D01*
X144068330Y-110651733D01*
X144678991Y-110652265D01*
X145243371Y-110419068D01*
X145675551Y-109987643D01*
X145831742Y-109611491D01*
X150126735Y-109611491D01*
X150359932Y-110175871D01*
X150791357Y-110608051D01*
X151355330Y-110842233D01*
X151965991Y-110842765D01*
X152530371Y-110609568D01*
X152962551Y-110178143D01*
X153196733Y-109614170D01*
X153197265Y-109003509D01*
X152964068Y-108439129D01*
X152532643Y-108006949D01*
X151968670Y-107772767D01*
X151358009Y-107772235D01*
X150793629Y-108005432D01*
X150361449Y-108436857D01*
X150127267Y-109000830D01*
X150126735Y-109611491D01*
X145831742Y-109611491D01*
X145909733Y-109423670D01*
X145910265Y-108813009D01*
X145677068Y-108248629D01*
X145245643Y-107816449D01*
X144681670Y-107582267D01*
X144071009Y-107581735D01*
X143506629Y-107814932D01*
X143074449Y-108246357D01*
X142840267Y-108810330D01*
X142839735Y-109420991D01*
X136652000Y-109420991D01*
X136652000Y-108202130D01*
X137634448Y-107219683D01*
X137825815Y-107091815D01*
X137990996Y-106844605D01*
X138049000Y-106553000D01*
X137990996Y-106261395D01*
X137825815Y-106014184D01*
X136652000Y-104840370D01*
X136652000Y-101625991D01*
X139903235Y-101625991D01*
X140136432Y-102190371D01*
X140567857Y-102622551D01*
X141131830Y-102856733D01*
X141742491Y-102857265D01*
X142306871Y-102624068D01*
X142739051Y-102192643D01*
X142947977Y-101689491D01*
X153380735Y-101689491D01*
X153613932Y-102253871D01*
X154045357Y-102686051D01*
X154609330Y-102920233D01*
X155219991Y-102920765D01*
X155433630Y-102832491D01*
X161810735Y-102832491D01*
X162043932Y-103396871D01*
X162475357Y-103829051D01*
X163039330Y-104063233D01*
X163649991Y-104063765D01*
X164214371Y-103830568D01*
X164646551Y-103399143D01*
X164880733Y-102835170D01*
X164881265Y-102224509D01*
X164648068Y-101660129D01*
X164216643Y-101227949D01*
X163652670Y-100993767D01*
X163042009Y-100993235D01*
X162477629Y-101226432D01*
X162045449Y-101657857D01*
X161811267Y-102221830D01*
X161810735Y-102832491D01*
X155433630Y-102832491D01*
X155784371Y-102687568D01*
X156216551Y-102256143D01*
X156450733Y-101692170D01*
X156451265Y-101081509D01*
X156218068Y-100517129D01*
X155786643Y-100084949D01*
X155222670Y-99850767D01*
X154612009Y-99850235D01*
X154047629Y-100083432D01*
X153615449Y-100514857D01*
X153381267Y-101078830D01*
X153380735Y-101689491D01*
X142947977Y-101689491D01*
X142973233Y-101628670D01*
X142973765Y-101018009D01*
X142740568Y-100453629D01*
X142309143Y-100021449D01*
X141745170Y-99787267D01*
X141134509Y-99786735D01*
X140570129Y-100019932D01*
X140137949Y-100451357D01*
X139903767Y-101015330D01*
X139903235Y-101625991D01*
X136652000Y-101625991D01*
X136652000Y-98625991D01*
X142903235Y-98625991D01*
X143136432Y-99190371D01*
X143567857Y-99622551D01*
X144131830Y-99856733D01*
X144742491Y-99857265D01*
X145306871Y-99624068D01*
X145739051Y-99192643D01*
X145947977Y-98689491D01*
X150380735Y-98689491D01*
X150613932Y-99253871D01*
X151045357Y-99686051D01*
X151609330Y-99920233D01*
X152219991Y-99920765D01*
X152433630Y-99832491D01*
X164810735Y-99832491D01*
X165043932Y-100396871D01*
X165475357Y-100829051D01*
X166039330Y-101063233D01*
X166649991Y-101063765D01*
X167214371Y-100830568D01*
X167646551Y-100399143D01*
X167880733Y-99835170D01*
X167880965Y-99568000D01*
X174625000Y-99568000D01*
X174625000Y-102044500D01*
X174683004Y-102336105D01*
X174848185Y-102583315D01*
X175483185Y-103218316D01*
X175631377Y-103317334D01*
X175730395Y-103383496D01*
X176022000Y-103441500D01*
X177479858Y-103441500D01*
X177632214Y-103594122D01*
X178028832Y-103758813D01*
X178458284Y-103759187D01*
X178855189Y-103595189D01*
X179159122Y-103291786D01*
X179323813Y-102895168D01*
X179324187Y-102465716D01*
X179160189Y-102068811D01*
X178856786Y-101764878D01*
X178460168Y-101600187D01*
X178030716Y-101599813D01*
X177633811Y-101763811D01*
X177479854Y-101917500D01*
X176337631Y-101917500D01*
X176149000Y-101728870D01*
X176149000Y-99883630D01*
X176782131Y-99250500D01*
X177543358Y-99250500D01*
X177695714Y-99403122D01*
X178092332Y-99567813D01*
X178521784Y-99568187D01*
X178918689Y-99404189D01*
X179222622Y-99100786D01*
X179387313Y-98704168D01*
X179387687Y-98274716D01*
X179223689Y-97877811D01*
X178920286Y-97573878D01*
X178523668Y-97409187D01*
X178094216Y-97408813D01*
X177697311Y-97572811D01*
X177543354Y-97726500D01*
X176466500Y-97726500D01*
X176174896Y-97784503D01*
X175927685Y-97949684D01*
X174848185Y-99029185D01*
X174683004Y-99276395D01*
X174625000Y-99568000D01*
X167880965Y-99568000D01*
X167881265Y-99224509D01*
X167648068Y-98660129D01*
X167216643Y-98227949D01*
X166652670Y-97993767D01*
X166042009Y-97993235D01*
X165477629Y-98226432D01*
X165045449Y-98657857D01*
X164811267Y-99221830D01*
X164810735Y-99832491D01*
X152433630Y-99832491D01*
X152784371Y-99687568D01*
X153216551Y-99256143D01*
X153450733Y-98692170D01*
X153451265Y-98081509D01*
X153218068Y-97517129D01*
X152786643Y-97084949D01*
X152222670Y-96850767D01*
X151612009Y-96850235D01*
X151047629Y-97083432D01*
X150615449Y-97514857D01*
X150381267Y-98078830D01*
X150380735Y-98689491D01*
X145947977Y-98689491D01*
X145973233Y-98628670D01*
X145973765Y-98018009D01*
X145740568Y-97453629D01*
X145309143Y-97021449D01*
X144745170Y-96787267D01*
X144134509Y-96786735D01*
X143570129Y-97019932D01*
X143137949Y-97451357D01*
X142903767Y-98015330D01*
X142903235Y-98625991D01*
X136652000Y-98625991D01*
X136652000Y-96716119D01*
X136754689Y-96673689D01*
X137058622Y-96370286D01*
X137223313Y-95973668D01*
X137223687Y-95544216D01*
X137059689Y-95147311D01*
X136756286Y-94843378D01*
X136359668Y-94678687D01*
X135953500Y-94678333D01*
X135953500Y-93851130D01*
X136809816Y-92994815D01*
X136974997Y-92747604D01*
X137033000Y-92456000D01*
X137033000Y-91313000D01*
X137001250Y-91153382D01*
X137001250Y-90640491D01*
X140093735Y-90640491D01*
X140326932Y-91204871D01*
X140758357Y-91637051D01*
X141322330Y-91871233D01*
X141932991Y-91871765D01*
X142497371Y-91638568D01*
X142929551Y-91207143D01*
X143138477Y-90703991D01*
X153317235Y-90703991D01*
X153550432Y-91268371D01*
X153981857Y-91700551D01*
X154545830Y-91934733D01*
X155156491Y-91935265D01*
X155720871Y-91702068D01*
X155893750Y-91529491D01*
X162128235Y-91529491D01*
X162361432Y-92093871D01*
X162792857Y-92526051D01*
X163356830Y-92760233D01*
X163967491Y-92760765D01*
X164531871Y-92527568D01*
X164964051Y-92096143D01*
X165198233Y-91532170D01*
X165198765Y-90921509D01*
X164965568Y-90357129D01*
X164534143Y-89924949D01*
X163970170Y-89690767D01*
X163359509Y-89690235D01*
X162795129Y-89923432D01*
X162362949Y-90354857D01*
X162128767Y-90918830D01*
X162128235Y-91529491D01*
X155893750Y-91529491D01*
X156153051Y-91270643D01*
X156387233Y-90706670D01*
X156387765Y-90096009D01*
X156154568Y-89531629D01*
X155723143Y-89099449D01*
X155159170Y-88865267D01*
X154548509Y-88864735D01*
X153984129Y-89097932D01*
X153551949Y-89529357D01*
X153317767Y-90093330D01*
X153317235Y-90703991D01*
X143138477Y-90703991D01*
X143163733Y-90643170D01*
X143164265Y-90032509D01*
X142931068Y-89468129D01*
X142499643Y-89035949D01*
X141935670Y-88801767D01*
X141325009Y-88801235D01*
X140760629Y-89034432D01*
X140328449Y-89465857D01*
X140094267Y-90029830D01*
X140093735Y-90640491D01*
X137001250Y-90640491D01*
X137001250Y-87640491D01*
X143093735Y-87640491D01*
X143326932Y-88204871D01*
X143758357Y-88637051D01*
X144322330Y-88871233D01*
X144932991Y-88871765D01*
X145497371Y-88638568D01*
X145929551Y-88207143D01*
X146138477Y-87703991D01*
X150317235Y-87703991D01*
X150550432Y-88268371D01*
X150981857Y-88700551D01*
X151545830Y-88934733D01*
X152156491Y-88935265D01*
X152720871Y-88702068D01*
X152893750Y-88529491D01*
X165128235Y-88529491D01*
X165361432Y-89093871D01*
X165792857Y-89526051D01*
X166356830Y-89760233D01*
X166967491Y-89760765D01*
X167531871Y-89527568D01*
X167964051Y-89096143D01*
X168198233Y-88532170D01*
X168198465Y-88265000D01*
X174688500Y-88265000D01*
X174688500Y-90995500D01*
X174746504Y-91287105D01*
X174848666Y-91440000D01*
X174911685Y-91534315D01*
X175356185Y-91978815D01*
X175603395Y-92143996D01*
X175895000Y-92202000D01*
X177479858Y-92202000D01*
X177632214Y-92354622D01*
X178028832Y-92519313D01*
X178458284Y-92519687D01*
X178855189Y-92355689D01*
X179159122Y-92052286D01*
X179323813Y-91655668D01*
X179324187Y-91226216D01*
X179160189Y-90829311D01*
X178856786Y-90525378D01*
X178460168Y-90360687D01*
X178030716Y-90360313D01*
X177633811Y-90524311D01*
X177479854Y-90678000D01*
X176212500Y-90678000D01*
X176212500Y-88580630D01*
X176337630Y-88455500D01*
X177543247Y-88455500D01*
X177632214Y-88544622D01*
X178028832Y-88709313D01*
X178458284Y-88709687D01*
X178855189Y-88545689D01*
X179159122Y-88242286D01*
X179323813Y-87845668D01*
X179324187Y-87416216D01*
X179160189Y-87019311D01*
X178856786Y-86715378D01*
X178460168Y-86550687D01*
X178030716Y-86550313D01*
X177633811Y-86714311D01*
X177416243Y-86931500D01*
X176022000Y-86931500D01*
X175730395Y-86989504D01*
X175483185Y-87154685D01*
X174911685Y-87726185D01*
X174746504Y-87973395D01*
X174688500Y-88265000D01*
X168198465Y-88265000D01*
X168198765Y-87921509D01*
X167965568Y-87357129D01*
X167534143Y-86924949D01*
X166970170Y-86690767D01*
X166359509Y-86690235D01*
X165795129Y-86923432D01*
X165362949Y-87354857D01*
X165128767Y-87918830D01*
X165128235Y-88529491D01*
X152893750Y-88529491D01*
X153153051Y-88270643D01*
X153387233Y-87706670D01*
X153387765Y-87096009D01*
X153154568Y-86531629D01*
X152723143Y-86099449D01*
X152159170Y-85865267D01*
X151548509Y-85864735D01*
X150984129Y-86097932D01*
X150551949Y-86529357D01*
X150317767Y-87093330D01*
X150317235Y-87703991D01*
X146138477Y-87703991D01*
X146163733Y-87643170D01*
X146164265Y-87032509D01*
X145931068Y-86468129D01*
X145499643Y-86035949D01*
X144935670Y-85801767D01*
X144325009Y-85801235D01*
X143760629Y-86034432D01*
X143328449Y-86465857D01*
X143094267Y-87029830D01*
X143093735Y-87640491D01*
X137001250Y-87640491D01*
X137001250Y-85727642D01*
X137153872Y-85575286D01*
X137318563Y-85178668D01*
X137318937Y-84749216D01*
X137154939Y-84352311D01*
X136851536Y-84048378D01*
X136454918Y-83883687D01*
X136025466Y-83883313D01*
X135628561Y-84047311D01*
X135324628Y-84350714D01*
X135159937Y-84747332D01*
X135159563Y-85176784D01*
X135323561Y-85573689D01*
X135477250Y-85727646D01*
X135477250Y-89579208D01*
X135255000Y-89535000D01*
X134495642Y-89535000D01*
X134343286Y-89382378D01*
X133946668Y-89217687D01*
X133517216Y-89217313D01*
X133120311Y-89381311D01*
X132816378Y-89684714D01*
X132651687Y-90081332D01*
X132651313Y-90510784D01*
X132815311Y-90907689D01*
X133118714Y-91211622D01*
X133515332Y-91376313D01*
X133944784Y-91376687D01*
X133986686Y-91359373D01*
X133858187Y-91668832D01*
X133857813Y-92098284D01*
X134021811Y-92495189D01*
X134325214Y-92799122D01*
X134696200Y-92953170D01*
X134652685Y-92996685D01*
X134487504Y-93243895D01*
X134429500Y-93535500D01*
X134429500Y-99696869D01*
X134173049Y-99953321D01*
X134010168Y-99885687D01*
X133580716Y-99885313D01*
X133183811Y-100049311D01*
X132879878Y-100352714D01*
X132715187Y-100749332D01*
X132714813Y-101178784D01*
X132878811Y-101575689D01*
X133182214Y-101879622D01*
X133578832Y-102044313D01*
X133985000Y-102044667D01*
X133985000Y-109854999D01*
X133771216Y-109854813D01*
X133374311Y-110018811D01*
X133070378Y-110322214D01*
X132905687Y-110718832D01*
X132905313Y-111148284D01*
X133069311Y-111545189D01*
X133286500Y-111762757D01*
X133286500Y-122364500D01*
X131955642Y-122364500D01*
X131803286Y-122211878D01*
X131406668Y-122047187D01*
X130977216Y-122046813D01*
X130580311Y-122210811D01*
X130276378Y-122514214D01*
X130111687Y-122910832D01*
X130111313Y-123340284D01*
X130275311Y-123737189D01*
X130578714Y-124041122D01*
X130975332Y-124205813D01*
X131404784Y-124206187D01*
X131801689Y-124042189D01*
X131955646Y-123888500D01*
X133731000Y-123888500D01*
X133858000Y-123863238D01*
X133858000Y-126997358D01*
X133705378Y-127149714D01*
X133540687Y-127546332D01*
X133540442Y-127827428D01*
X132843870Y-128524000D01*
X130871631Y-128524000D01*
X130048000Y-127700370D01*
X130048000Y-122428000D01*
X130024518Y-122309949D01*
X129989997Y-122136396D01*
X129824816Y-121889185D01*
X127952500Y-120016870D01*
X127952500Y-108458000D01*
X127894496Y-108166395D01*
X127729315Y-107919184D01*
X119761000Y-99950870D01*
X119761000Y-99443642D01*
X119913622Y-99291286D01*
X120078313Y-98894668D01*
X120078687Y-98465216D01*
X120009616Y-98298051D01*
X120165284Y-98298187D01*
X120562189Y-98134189D01*
X120716146Y-97980500D01*
X122493370Y-97980500D01*
X123634501Y-99121631D01*
X123634313Y-99337284D01*
X123753241Y-99625111D01*
X123665315Y-99537185D01*
X123616400Y-99504501D01*
X123418105Y-99372004D01*
X123126500Y-99314000D01*
X123002142Y-99314000D01*
X122849786Y-99161378D01*
X122453168Y-98996687D01*
X122023716Y-98996313D01*
X121626811Y-99160311D01*
X121322878Y-99463714D01*
X121158187Y-99860332D01*
X121157813Y-100289784D01*
X121321811Y-100686689D01*
X121625214Y-100990622D01*
X122021832Y-101155313D01*
X122451284Y-101155687D01*
X122848189Y-100991689D01*
X122906425Y-100933555D01*
X123698001Y-101725131D01*
X123697813Y-101940784D01*
X123861811Y-102337689D01*
X124165214Y-102641622D01*
X124561832Y-102806313D01*
X124991284Y-102806687D01*
X125388189Y-102642689D01*
X125692122Y-102339286D01*
X125856813Y-101942668D01*
X125857187Y-101513216D01*
X125738259Y-101225389D01*
X128239185Y-103726315D01*
X128486395Y-103891496D01*
X128537143Y-103901590D01*
X128800714Y-104165622D01*
X129197332Y-104330313D01*
X129626784Y-104330687D01*
X130023689Y-104166689D01*
X130327622Y-103863286D01*
X130492313Y-103466668D01*
X130492687Y-103037216D01*
X130328689Y-102640311D01*
X130025286Y-102336378D01*
X129628668Y-102171687D01*
X129199216Y-102171313D01*
X129027087Y-102242435D01*
X129248122Y-102021786D01*
X129412813Y-101625168D01*
X129413187Y-101195716D01*
X129249189Y-100798811D01*
X128945786Y-100494878D01*
X128549168Y-100330187D01*
X128331628Y-100329998D01*
X123241172Y-95239542D01*
X123418832Y-95313313D01*
X123848284Y-95313687D01*
X124245189Y-95149689D01*
X124439455Y-94955762D01*
X124688832Y-95059313D01*
X125033483Y-95059613D01*
X125857001Y-95883131D01*
X125856813Y-96098784D01*
X126020811Y-96495689D01*
X126324214Y-96799622D01*
X126720832Y-96964313D01*
X127150284Y-96964687D01*
X127547189Y-96800689D01*
X127851122Y-96497286D01*
X128015813Y-96100668D01*
X128016187Y-95671216D01*
X127852189Y-95274311D01*
X127548786Y-94970378D01*
X127152168Y-94805687D01*
X126934628Y-94805498D01*
X125984110Y-93854980D01*
X125984187Y-93766216D01*
X125820189Y-93369311D01*
X125516786Y-93065378D01*
X125120168Y-92900687D01*
X124690716Y-92900313D01*
X124650500Y-92916930D01*
X124650500Y-92517630D01*
X125062316Y-92105815D01*
X125176629Y-91934733D01*
X125227496Y-91858605D01*
X125285500Y-91567000D01*
X125285500Y-88458142D01*
X125438122Y-88305786D01*
X125602813Y-87909168D01*
X125603187Y-87479716D01*
X125439189Y-87082811D01*
X125135786Y-86778878D01*
X124739168Y-86614187D01*
X124371265Y-86613867D01*
X124396500Y-86487000D01*
X124396500Y-77536142D01*
X124549122Y-77383786D01*
X124713813Y-76987168D01*
X124714187Y-76557716D01*
X124550189Y-76160811D01*
X124246786Y-75856878D01*
X123850168Y-75692187D01*
X123420716Y-75691813D01*
X123023811Y-75855811D01*
X122719878Y-76159214D01*
X122682000Y-76250434D01*
X122682000Y-75880630D01*
X123855815Y-74706816D01*
X124020996Y-74459605D01*
X124028476Y-74422001D01*
X124079000Y-74168000D01*
X124079000Y-70993000D01*
X125951655Y-70993000D01*
X126077330Y-71624810D01*
X126435222Y-72160433D01*
X126970845Y-72518325D01*
X127602655Y-72644000D01*
X127667345Y-72644000D01*
X128299155Y-72518325D01*
X128834778Y-72160433D01*
X129192670Y-71624810D01*
X129318345Y-70993000D01*
X129192670Y-70361190D01*
X128968034Y-70024999D01*
X129010698Y-70007327D01*
X129189327Y-69828699D01*
X129286000Y-69595310D01*
X129286000Y-68738750D01*
X129127250Y-68580000D01*
X127762000Y-68580000D01*
X127762000Y-68600000D01*
X127508000Y-68600000D01*
X127508000Y-68580000D01*
X126142750Y-68580000D01*
X125984000Y-68738750D01*
X125984000Y-69595310D01*
X126080673Y-69828699D01*
X126259302Y-70007327D01*
X126301966Y-70024999D01*
X126077330Y-70361190D01*
X125951655Y-70993000D01*
X124079000Y-70993000D01*
X124079000Y-67310690D01*
X125984000Y-67310690D01*
X125984000Y-68167250D01*
X126142750Y-68326000D01*
X127508000Y-68326000D01*
X127508000Y-66960750D01*
X127762000Y-66960750D01*
X127762000Y-68326000D01*
X129127250Y-68326000D01*
X129286000Y-68167250D01*
X129286000Y-67310690D01*
X129189327Y-67077301D01*
X129010698Y-66898673D01*
X128777309Y-66802000D01*
X127920750Y-66802000D01*
X127762000Y-66960750D01*
X127508000Y-66960750D01*
X127349250Y-66802000D01*
X126492691Y-66802000D01*
X126259302Y-66898673D01*
X126080673Y-67077301D01*
X125984000Y-67310690D01*
X124079000Y-67310690D01*
X124079000Y-57656130D01*
X125410631Y-56324500D01*
X126743358Y-56324500D01*
X126895714Y-56477122D01*
X127292332Y-56641813D01*
X127721784Y-56642187D01*
X128118689Y-56478189D01*
X128422622Y-56174786D01*
X128587313Y-55778168D01*
X128587687Y-55348716D01*
X128423689Y-54951811D01*
X128120286Y-54647878D01*
X127723668Y-54483187D01*
X127294216Y-54482813D01*
X126897311Y-54646811D01*
X126743354Y-54800500D01*
X125095000Y-54800500D01*
X124803395Y-54858504D01*
X124756414Y-54889896D01*
X124556185Y-55023684D01*
X122809000Y-56770870D01*
X122809000Y-56576630D01*
X125791631Y-53594000D01*
X128656339Y-53594000D01*
X128587687Y-53759332D01*
X128587313Y-54188784D01*
X128751311Y-54585689D01*
X129054714Y-54889622D01*
X129092873Y-54905467D01*
X129128185Y-54958315D01*
X129762317Y-55592448D01*
X129890185Y-55783815D01*
X130081554Y-55911684D01*
X130429000Y-56259130D01*
X130429000Y-58294869D01*
X129890185Y-58833685D01*
X129725004Y-59080895D01*
X129667000Y-59372500D01*
X129667000Y-61404500D01*
X129725004Y-61696105D01*
X129767433Y-61759604D01*
X129890185Y-61943315D01*
X133223000Y-65276131D01*
X133223000Y-70612000D01*
X133281004Y-70903605D01*
X133340736Y-70993000D01*
X133446185Y-71150815D01*
X134239000Y-71943630D01*
X134239000Y-80392869D01*
X133509685Y-81122185D01*
X133344504Y-81369395D01*
X133302916Y-81578471D01*
X133133878Y-81747214D01*
X132969187Y-82143832D01*
X132968813Y-82573284D01*
X133132811Y-82970189D01*
X133436214Y-83274122D01*
X133832832Y-83438813D01*
X134262284Y-83439187D01*
X134659189Y-83275189D01*
X134963122Y-82971786D01*
X135127813Y-82575168D01*
X135128187Y-82145716D01*
X134985863Y-81801267D01*
X135539815Y-81247316D01*
X135704996Y-81000105D01*
X135725107Y-80899000D01*
X135763000Y-80708500D01*
X135763000Y-79591491D01*
X140220735Y-79591491D01*
X140453932Y-80155871D01*
X140885357Y-80588051D01*
X141449330Y-80822233D01*
X142059991Y-80822765D01*
X142624371Y-80589568D01*
X143056551Y-80158143D01*
X143290733Y-79594170D01*
X143290956Y-79337491D01*
X153507735Y-79337491D01*
X153740932Y-79901871D01*
X154172357Y-80334051D01*
X154736330Y-80568233D01*
X155346991Y-80568765D01*
X155911371Y-80335568D01*
X156020638Y-80226491D01*
X162191735Y-80226491D01*
X162424932Y-80790871D01*
X162856357Y-81223051D01*
X163420330Y-81457233D01*
X164030991Y-81457765D01*
X164595371Y-81224568D01*
X165027551Y-80793143D01*
X165261733Y-80229170D01*
X165262265Y-79618509D01*
X165029068Y-79054129D01*
X164597643Y-78621949D01*
X164033670Y-78387767D01*
X163423009Y-78387235D01*
X162858629Y-78620432D01*
X162426449Y-79051857D01*
X162192267Y-79615830D01*
X162191735Y-80226491D01*
X156020638Y-80226491D01*
X156343551Y-79904143D01*
X156577733Y-79340170D01*
X156578265Y-78729509D01*
X156345068Y-78165129D01*
X155913643Y-77732949D01*
X155349670Y-77498767D01*
X154739009Y-77498235D01*
X154174629Y-77731432D01*
X153742449Y-78162857D01*
X153508267Y-78726830D01*
X153507735Y-79337491D01*
X143290956Y-79337491D01*
X143291265Y-78983509D01*
X143058068Y-78419129D01*
X142626643Y-77986949D01*
X142062670Y-77752767D01*
X141452009Y-77752235D01*
X140887629Y-77985432D01*
X140455449Y-78416857D01*
X140221267Y-78980830D01*
X140220735Y-79591491D01*
X135763000Y-79591491D01*
X135763000Y-76591491D01*
X143220735Y-76591491D01*
X143453932Y-77155871D01*
X143885357Y-77588051D01*
X144449330Y-77822233D01*
X145059991Y-77822765D01*
X145624371Y-77589568D01*
X146056551Y-77158143D01*
X146290733Y-76594170D01*
X146290956Y-76337491D01*
X150507735Y-76337491D01*
X150740932Y-76901871D01*
X151172357Y-77334051D01*
X151736330Y-77568233D01*
X152346991Y-77568765D01*
X152911371Y-77335568D01*
X153020638Y-77226491D01*
X165191735Y-77226491D01*
X165424932Y-77790871D01*
X165856357Y-78223051D01*
X166420330Y-78457233D01*
X167030991Y-78457765D01*
X167595371Y-78224568D01*
X168027551Y-77793143D01*
X168261733Y-77229170D01*
X168261744Y-77216000D01*
X173482000Y-77216000D01*
X173482000Y-80899000D01*
X173540004Y-81190605D01*
X173599861Y-81280187D01*
X173705185Y-81437815D01*
X174307501Y-82040131D01*
X174307313Y-82255784D01*
X174471311Y-82652689D01*
X174774714Y-82956622D01*
X175171332Y-83121313D01*
X175600784Y-83121687D01*
X175997689Y-82957689D01*
X176301622Y-82654286D01*
X176466313Y-82257668D01*
X176466687Y-81828216D01*
X176351465Y-81549357D01*
X176593500Y-81597500D01*
X178559358Y-81597500D01*
X178711714Y-81750122D01*
X179108332Y-81914813D01*
X179537784Y-81915187D01*
X179934689Y-81751189D01*
X180238622Y-81447786D01*
X180403313Y-81051168D01*
X180403687Y-80621716D01*
X180239689Y-80224811D01*
X179936286Y-79920878D01*
X179539668Y-79756187D01*
X179110216Y-79755813D01*
X178713311Y-79919811D01*
X178559354Y-80073500D01*
X176909131Y-80073500D01*
X176276000Y-79440370D01*
X176276000Y-77976130D01*
X176655131Y-77597000D01*
X178622858Y-77597000D01*
X178775214Y-77749622D01*
X179171832Y-77914313D01*
X179601284Y-77914687D01*
X179998189Y-77750689D01*
X180302122Y-77447286D01*
X180466813Y-77050668D01*
X180467187Y-76621216D01*
X180303189Y-76224311D01*
X179999786Y-75920378D01*
X179603168Y-75755687D01*
X179173716Y-75755313D01*
X178776811Y-75919311D01*
X178622854Y-76073000D01*
X176464630Y-76073000D01*
X181450315Y-71087315D01*
X181559436Y-70924004D01*
X181615496Y-70840105D01*
X181673500Y-70548500D01*
X181673500Y-69728426D01*
X181965832Y-69849813D01*
X182395284Y-69850187D01*
X182792189Y-69686189D01*
X183096122Y-69382786D01*
X183260813Y-68986168D01*
X183261187Y-68556716D01*
X183097189Y-68159811D01*
X182943500Y-68005854D01*
X182943500Y-66233142D01*
X183096122Y-66080786D01*
X183260813Y-65684168D01*
X183261187Y-65254716D01*
X183097189Y-64857811D01*
X182793786Y-64553878D01*
X182397168Y-64389187D01*
X181967716Y-64388813D01*
X181673500Y-64510381D01*
X181673500Y-63688630D01*
X182847315Y-62514816D01*
X183012496Y-62267605D01*
X183032607Y-62166500D01*
X183070500Y-61976000D01*
X183070500Y-60706000D01*
X183012496Y-60414395D01*
X182995194Y-60388501D01*
X182847315Y-60167184D01*
X181546500Y-58866370D01*
X181546500Y-58291130D01*
X183738109Y-56099521D01*
X183742311Y-56109689D01*
X184045714Y-56413622D01*
X184442332Y-56578313D01*
X184871784Y-56578687D01*
X185268689Y-56414689D01*
X185572622Y-56111286D01*
X185737313Y-55714668D01*
X185737687Y-55285216D01*
X185573689Y-54888311D01*
X185420000Y-54734354D01*
X185420000Y-52959000D01*
X185361996Y-52667395D01*
X185242532Y-52488605D01*
X185196816Y-52420185D01*
X184434815Y-51658185D01*
X184424655Y-51651396D01*
X184187605Y-51493004D01*
X183896000Y-51435000D01*
X182562500Y-51435000D01*
X182270895Y-51493004D01*
X182171877Y-51559166D01*
X182023685Y-51658184D01*
X179802055Y-53879815D01*
X179610684Y-54007685D01*
X178086685Y-55531685D01*
X177921504Y-55778895D01*
X177863500Y-56070500D01*
X177863500Y-60834870D01*
X177106423Y-61591947D01*
X177338706Y-61032547D01*
X177339274Y-60382306D01*
X177090962Y-59781345D01*
X176631573Y-59321154D01*
X176031047Y-59071794D01*
X175380806Y-59071226D01*
X174779845Y-59319538D01*
X174319654Y-59778927D01*
X174070294Y-60379453D01*
X174069726Y-61029694D01*
X174318038Y-61630655D01*
X174777427Y-62090846D01*
X175377953Y-62340206D01*
X176028194Y-62340774D01*
X176629155Y-62092462D01*
X177022492Y-61699810D01*
X176905504Y-61874895D01*
X176847500Y-62166500D01*
X176847500Y-65275247D01*
X176758378Y-65364214D01*
X176593687Y-65760832D01*
X176593313Y-66190284D01*
X176757311Y-66587189D01*
X177060714Y-66891122D01*
X177457332Y-67055813D01*
X177886784Y-67056187D01*
X178283689Y-66892189D01*
X178587622Y-66588786D01*
X178752313Y-66192168D01*
X178752687Y-65762716D01*
X178588689Y-65365811D01*
X178371500Y-65148243D01*
X178371500Y-62482130D01*
X179099646Y-61753984D01*
X179233811Y-62078689D01*
X179537214Y-62382622D01*
X179773594Y-62480776D01*
X179356685Y-62897685D01*
X179191504Y-63144895D01*
X179133500Y-63436500D01*
X179133500Y-68513858D01*
X178980878Y-68666214D01*
X178816187Y-69062832D01*
X178815813Y-69492284D01*
X178979811Y-69889189D01*
X179283214Y-70193122D01*
X179679832Y-70357813D01*
X180024257Y-70358113D01*
X173705185Y-76677185D01*
X173540004Y-76924395D01*
X173482000Y-77216000D01*
X168261744Y-77216000D01*
X168262265Y-76618509D01*
X168029068Y-76054129D01*
X167597643Y-75621949D01*
X167033670Y-75387767D01*
X166423009Y-75387235D01*
X165858629Y-75620432D01*
X165426449Y-76051857D01*
X165192267Y-76615830D01*
X165191735Y-77226491D01*
X153020638Y-77226491D01*
X153343551Y-76904143D01*
X153577733Y-76340170D01*
X153578265Y-75729509D01*
X153345068Y-75165129D01*
X152913643Y-74732949D01*
X152349670Y-74498767D01*
X151739009Y-74498235D01*
X151174629Y-74731432D01*
X150742449Y-75162857D01*
X150508267Y-75726830D01*
X150507735Y-76337491D01*
X146290956Y-76337491D01*
X146291265Y-75983509D01*
X146058068Y-75419129D01*
X145626643Y-74986949D01*
X145062670Y-74752767D01*
X144452009Y-74752235D01*
X143887629Y-74985432D01*
X143455449Y-75416857D01*
X143221267Y-75980830D01*
X143220735Y-76591491D01*
X135763000Y-76591491D01*
X135763000Y-71628000D01*
X135704996Y-71336395D01*
X135539815Y-71089185D01*
X134747000Y-70296370D01*
X134747000Y-70162161D01*
X134912332Y-70230813D01*
X135341784Y-70231187D01*
X135738689Y-70067189D01*
X136042622Y-69763786D01*
X136207313Y-69367168D01*
X136207687Y-68937716D01*
X136201810Y-68923491D01*
X140220735Y-68923491D01*
X140453932Y-69487871D01*
X140885357Y-69920051D01*
X141449330Y-70154233D01*
X142059991Y-70154765D01*
X142624371Y-69921568D01*
X143056551Y-69490143D01*
X143290733Y-68926170D01*
X143290845Y-68796491D01*
X153507735Y-68796491D01*
X153740932Y-69360871D01*
X154172357Y-69793051D01*
X154736330Y-70027233D01*
X155346991Y-70027765D01*
X155911371Y-69794568D01*
X156343551Y-69363143D01*
X156473375Y-69050491D01*
X162445735Y-69050491D01*
X162678932Y-69614871D01*
X163110357Y-70047051D01*
X163674330Y-70281233D01*
X164284991Y-70281765D01*
X164849371Y-70048568D01*
X165281551Y-69617143D01*
X165515733Y-69053170D01*
X165516265Y-68442509D01*
X165283068Y-67878129D01*
X164851643Y-67445949D01*
X164287670Y-67211767D01*
X163677009Y-67211235D01*
X163112629Y-67444432D01*
X162680449Y-67875857D01*
X162446267Y-68439830D01*
X162445735Y-69050491D01*
X156473375Y-69050491D01*
X156577733Y-68799170D01*
X156578265Y-68188509D01*
X156345068Y-67624129D01*
X155913643Y-67191949D01*
X155349670Y-66957767D01*
X154739009Y-66957235D01*
X154174629Y-67190432D01*
X153742449Y-67621857D01*
X153508267Y-68185830D01*
X153507735Y-68796491D01*
X143290845Y-68796491D01*
X143291265Y-68315509D01*
X143058068Y-67751129D01*
X142626643Y-67318949D01*
X142062670Y-67084767D01*
X141452009Y-67084235D01*
X140887629Y-67317432D01*
X140455449Y-67748857D01*
X140221267Y-68312830D01*
X140220735Y-68923491D01*
X136201810Y-68923491D01*
X136043689Y-68540811D01*
X135890000Y-68386854D01*
X135890000Y-65923491D01*
X143220735Y-65923491D01*
X143453932Y-66487871D01*
X143885357Y-66920051D01*
X144449330Y-67154233D01*
X145059991Y-67154765D01*
X145624371Y-66921568D01*
X146056551Y-66490143D01*
X146290733Y-65926170D01*
X146290845Y-65796491D01*
X150507735Y-65796491D01*
X150740932Y-66360871D01*
X151172357Y-66793051D01*
X151736330Y-67027233D01*
X152346991Y-67027765D01*
X152911371Y-66794568D01*
X153343551Y-66363143D01*
X153473375Y-66050491D01*
X165445735Y-66050491D01*
X165678932Y-66614871D01*
X166110357Y-67047051D01*
X166674330Y-67281233D01*
X167284991Y-67281765D01*
X167849371Y-67048568D01*
X168281551Y-66617143D01*
X168515733Y-66053170D01*
X168516265Y-65442509D01*
X168283068Y-64878129D01*
X167851643Y-64445949D01*
X167287670Y-64211767D01*
X166677009Y-64211235D01*
X166112629Y-64444432D01*
X165680449Y-64875857D01*
X165446267Y-65439830D01*
X165445735Y-66050491D01*
X153473375Y-66050491D01*
X153577733Y-65799170D01*
X153578265Y-65188509D01*
X153345068Y-64624129D01*
X152913643Y-64191949D01*
X152349670Y-63957767D01*
X151739009Y-63957235D01*
X151174629Y-64190432D01*
X150742449Y-64621857D01*
X150508267Y-65185830D01*
X150507735Y-65796491D01*
X146290845Y-65796491D01*
X146291265Y-65315509D01*
X146058068Y-64751129D01*
X145626643Y-64318949D01*
X145062670Y-64084767D01*
X144452009Y-64084235D01*
X143887629Y-64317432D01*
X143455449Y-64748857D01*
X143221267Y-65312830D01*
X143220735Y-65923491D01*
X135890000Y-65923491D01*
X135890000Y-64325500D01*
X135831996Y-64033895D01*
X135765834Y-63934877D01*
X135666816Y-63786685D01*
X132863220Y-60983089D01*
X133008189Y-60923189D01*
X133312122Y-60619786D01*
X133476813Y-60223168D01*
X133477187Y-59793716D01*
X133313189Y-59396811D01*
X133159500Y-59242854D01*
X133159500Y-54739642D01*
X133283163Y-54616194D01*
X134826726Y-54616194D01*
X135075038Y-55217155D01*
X135534427Y-55677346D01*
X136022932Y-55880191D01*
X135536845Y-56081038D01*
X135076654Y-56540427D01*
X134827294Y-57140953D01*
X134826726Y-57791194D01*
X135075038Y-58392155D01*
X135534427Y-58852346D01*
X136054604Y-59068342D01*
X135600345Y-59256038D01*
X135140154Y-59715427D01*
X134890794Y-60315953D01*
X134890226Y-60966194D01*
X135138538Y-61567155D01*
X135597927Y-62027346D01*
X136198453Y-62276706D01*
X136848694Y-62277274D01*
X137449655Y-62028962D01*
X137909846Y-61569573D01*
X138159206Y-60969047D01*
X138159774Y-60318806D01*
X137911462Y-59717845D01*
X137452073Y-59257654D01*
X136931896Y-59041658D01*
X137386155Y-58853962D01*
X137846346Y-58394573D01*
X137877730Y-58318991D01*
X140030235Y-58318991D01*
X140263432Y-58883371D01*
X140694857Y-59315551D01*
X141258830Y-59549733D01*
X141869491Y-59550265D01*
X142433871Y-59317068D01*
X142866051Y-58885643D01*
X143074977Y-58382491D01*
X153634735Y-58382491D01*
X153867932Y-58946871D01*
X154299357Y-59379051D01*
X154863330Y-59613233D01*
X155473991Y-59613765D01*
X156038371Y-59380568D01*
X156470551Y-58949143D01*
X156704733Y-58385170D01*
X156704845Y-58255491D01*
X162445735Y-58255491D01*
X162678932Y-58819871D01*
X163110357Y-59252051D01*
X163674330Y-59486233D01*
X164284991Y-59486765D01*
X164849371Y-59253568D01*
X165281551Y-58822143D01*
X165515733Y-58258170D01*
X165516265Y-57647509D01*
X165283068Y-57083129D01*
X164851643Y-56650949D01*
X164287670Y-56416767D01*
X163677009Y-56416235D01*
X163112629Y-56649432D01*
X162680449Y-57080857D01*
X162446267Y-57644830D01*
X162445735Y-58255491D01*
X156704845Y-58255491D01*
X156705265Y-57774509D01*
X156472068Y-57210129D01*
X156040643Y-56777949D01*
X155476670Y-56543767D01*
X154866009Y-56543235D01*
X154301629Y-56776432D01*
X153869449Y-57207857D01*
X153635267Y-57771830D01*
X153634735Y-58382491D01*
X143074977Y-58382491D01*
X143100233Y-58321670D01*
X143100765Y-57711009D01*
X142867568Y-57146629D01*
X142436143Y-56714449D01*
X141872170Y-56480267D01*
X141261509Y-56479735D01*
X140697129Y-56712932D01*
X140264949Y-57144357D01*
X140030767Y-57708330D01*
X140030235Y-58318991D01*
X137877730Y-58318991D01*
X138095706Y-57794047D01*
X138096274Y-57143806D01*
X137847962Y-56542845D01*
X137388573Y-56082654D01*
X136900068Y-55879809D01*
X137386155Y-55678962D01*
X137746754Y-55318991D01*
X143030235Y-55318991D01*
X143263432Y-55883371D01*
X143694857Y-56315551D01*
X144258830Y-56549733D01*
X144869491Y-56550265D01*
X145433871Y-56317068D01*
X145866051Y-55885643D01*
X146074977Y-55382491D01*
X150634735Y-55382491D01*
X150867932Y-55946871D01*
X151299357Y-56379051D01*
X151863330Y-56613233D01*
X152473991Y-56613765D01*
X153038371Y-56380568D01*
X153470551Y-55949143D01*
X153704733Y-55385170D01*
X153704845Y-55255491D01*
X165445735Y-55255491D01*
X165678932Y-55819871D01*
X166110357Y-56252051D01*
X166674330Y-56486233D01*
X167284991Y-56486765D01*
X167849371Y-56253568D01*
X168281551Y-55822143D01*
X168515733Y-55258170D01*
X168516265Y-54647509D01*
X168503326Y-54616194D01*
X174069726Y-54616194D01*
X174318038Y-55217155D01*
X174777427Y-55677346D01*
X175112630Y-55816534D01*
X174779845Y-55954038D01*
X174319654Y-56413427D01*
X174070294Y-57013953D01*
X174069726Y-57664194D01*
X174318038Y-58265155D01*
X174777427Y-58725346D01*
X175377953Y-58974706D01*
X176028194Y-58975274D01*
X176629155Y-58726962D01*
X177089346Y-58267573D01*
X177338706Y-57667047D01*
X177339274Y-57016806D01*
X177090962Y-56415845D01*
X176631573Y-55955654D01*
X176296370Y-55816466D01*
X176629155Y-55678962D01*
X177089346Y-55219573D01*
X177338706Y-54619047D01*
X177339274Y-53968806D01*
X177090962Y-53367845D01*
X176631573Y-52907654D01*
X176031047Y-52658294D01*
X175380806Y-52657726D01*
X174779845Y-52906038D01*
X174319654Y-53365427D01*
X174070294Y-53965953D01*
X174069726Y-54616194D01*
X168503326Y-54616194D01*
X168283068Y-54083129D01*
X167851643Y-53650949D01*
X167287670Y-53416767D01*
X166677009Y-53416235D01*
X166112629Y-53649432D01*
X165680449Y-54080857D01*
X165446267Y-54644830D01*
X165445735Y-55255491D01*
X153704845Y-55255491D01*
X153705265Y-54774509D01*
X153472068Y-54210129D01*
X153040643Y-53777949D01*
X152476670Y-53543767D01*
X151866009Y-53543235D01*
X151301629Y-53776432D01*
X150869449Y-54207857D01*
X150635267Y-54771830D01*
X150634735Y-55382491D01*
X146074977Y-55382491D01*
X146100233Y-55321670D01*
X146100765Y-54711009D01*
X145867568Y-54146629D01*
X145436143Y-53714449D01*
X144872170Y-53480267D01*
X144261509Y-53479735D01*
X143697129Y-53712932D01*
X143264949Y-54144357D01*
X143030767Y-54708330D01*
X143030235Y-55318991D01*
X137746754Y-55318991D01*
X137846346Y-55219573D01*
X138095706Y-54619047D01*
X138096274Y-53968806D01*
X137847962Y-53367845D01*
X137388573Y-52907654D01*
X136788047Y-52658294D01*
X136137806Y-52657726D01*
X135536845Y-52906038D01*
X135076654Y-53365427D01*
X134827294Y-53965953D01*
X134826726Y-54616194D01*
X133283163Y-54616194D01*
X133312122Y-54587286D01*
X133476813Y-54190668D01*
X133477187Y-53761216D01*
X133313189Y-53364311D01*
X133009786Y-53060378D01*
X132918195Y-53022346D01*
X133309784Y-53022687D01*
X133706689Y-52858689D01*
X134010622Y-52555286D01*
X134175313Y-52158668D01*
X134175687Y-51729216D01*
X134011689Y-51332311D01*
X133708286Y-51028378D01*
X133311668Y-50863687D01*
X132882216Y-50863313D01*
X132485311Y-51027311D01*
X132204132Y-51308000D01*
X124650500Y-51308000D01*
X124358895Y-51366004D01*
X124111684Y-51531185D01*
X120111185Y-55531685D01*
X119946004Y-55778895D01*
X119888000Y-56070500D01*
X119888000Y-70804370D01*
X116586935Y-74105435D01*
X116421754Y-74352645D01*
X116363750Y-74644250D01*
X116363750Y-80295750D01*
X116421754Y-80587355D01*
X116502701Y-80708500D01*
X116586935Y-80834565D01*
X119888001Y-84135631D01*
X119887813Y-84351284D01*
X120051811Y-84748189D01*
X120355214Y-85052122D01*
X120751832Y-85216813D01*
X121096256Y-85217113D01*
X120091263Y-86222107D01*
X119975811Y-86269811D01*
X119671878Y-86573214D01*
X119507187Y-86969832D01*
X119506813Y-87399284D01*
X119556072Y-87518501D01*
X119342395Y-87561004D01*
X119243377Y-87627166D01*
X119095185Y-87726184D01*
X115856685Y-90964685D01*
X115691504Y-91211895D01*
X115633500Y-91503500D01*
X115633500Y-98679000D01*
X115691504Y-98970605D01*
X115839767Y-99192496D01*
X115856685Y-99217815D01*
X125603000Y-108964130D01*
X125603000Y-110940241D01*
X125491000Y-110917560D01*
X124695191Y-110917560D01*
X123030315Y-109252685D01*
X122932482Y-109187315D01*
X122783105Y-109087504D01*
X122491500Y-109029500D01*
X121366426Y-109029500D01*
X121167529Y-108731830D01*
X120681348Y-108406974D01*
X120107859Y-108292900D01*
X120049141Y-108292900D01*
X119475652Y-108406974D01*
X118989471Y-108731830D01*
X118808500Y-109002672D01*
X118627529Y-108731830D01*
X118141348Y-108406974D01*
X117567859Y-108292900D01*
X117509141Y-108292900D01*
X116935652Y-108406974D01*
X116449471Y-108731830D01*
X116124615Y-109218011D01*
X116010541Y-109791500D01*
X116124615Y-110364989D01*
X116449471Y-110851170D01*
X116764252Y-111061500D01*
X116449471Y-111271830D01*
X116124615Y-111758011D01*
X116010541Y-112331500D01*
X116124615Y-112904989D01*
X116449471Y-113391170D01*
X116764252Y-113601500D01*
X116449471Y-113811830D01*
X116124615Y-114298011D01*
X116010541Y-114871500D01*
X116124615Y-115444989D01*
X116449471Y-115931170D01*
X116764252Y-116141500D01*
X116449471Y-116351830D01*
X116124615Y-116838011D01*
X116010541Y-117411500D01*
X116124615Y-117984989D01*
X116449471Y-118471170D01*
X116772728Y-118687164D01*
X116650010Y-118744679D01*
X116255812Y-119176553D01*
X116083542Y-119592474D01*
X116204683Y-119824500D01*
X117411500Y-119824500D01*
X117411500Y-119804500D01*
X117665500Y-119804500D01*
X117665500Y-119824500D01*
X117685500Y-119824500D01*
X117685500Y-120078500D01*
X117665500Y-120078500D01*
X117665500Y-122364500D01*
X117685500Y-122364500D01*
X117685500Y-122618500D01*
X117665500Y-122618500D01*
X117665500Y-124904500D01*
X117685500Y-124904500D01*
X117685500Y-125158500D01*
X117665500Y-125158500D01*
X117665500Y-126365969D01*
X117897527Y-126486468D01*
X118426990Y-126238321D01*
X118596995Y-126052067D01*
X118611738Y-126130417D01*
X118750810Y-126346541D01*
X118963010Y-126491531D01*
X119214900Y-126542540D01*
X120942100Y-126542540D01*
X121177417Y-126498262D01*
X121393541Y-126359190D01*
X121538531Y-126146990D01*
X121589540Y-125895100D01*
X121589540Y-124167900D01*
X121545262Y-123932583D01*
X121406190Y-123716459D01*
X121193990Y-123571469D01*
X121150369Y-123562636D01*
X121167529Y-123551170D01*
X121492385Y-123064989D01*
X121606459Y-122491500D01*
X121492385Y-121918011D01*
X121167529Y-121431830D01*
X120852748Y-121221500D01*
X121167529Y-121011170D01*
X121492385Y-120524989D01*
X121606459Y-119951500D01*
X121492385Y-119378011D01*
X121167529Y-118891830D01*
X120852748Y-118681500D01*
X121167529Y-118471170D01*
X121492385Y-117984989D01*
X121606459Y-117411500D01*
X121492385Y-116838011D01*
X121167529Y-116351830D01*
X120852748Y-116141500D01*
X121167529Y-115931170D01*
X121492385Y-115444989D01*
X121606459Y-114871500D01*
X121492385Y-114298011D01*
X121167529Y-113811830D01*
X120852748Y-113601500D01*
X121167529Y-113391170D01*
X121492385Y-112904989D01*
X121606459Y-112331500D01*
X121492385Y-111758011D01*
X121167529Y-111271830D01*
X120852748Y-111061500D01*
X121167529Y-110851170D01*
X121366426Y-110553500D01*
X122175870Y-110553500D01*
X123543560Y-111921191D01*
X123543560Y-113065000D01*
X123587838Y-113300317D01*
X123726910Y-113516441D01*
X123939110Y-113661431D01*
X123952197Y-113664081D01*
X123739559Y-113800910D01*
X123594569Y-114013110D01*
X123543560Y-114265000D01*
X123543560Y-115765000D01*
X123587838Y-116000317D01*
X123726910Y-116216441D01*
X123939110Y-116361431D01*
X124079000Y-116389759D01*
X124079000Y-119761000D01*
X124137004Y-120052605D01*
X124281595Y-120269000D01*
X124302185Y-120299815D01*
X127000001Y-122997632D01*
X126999813Y-123213284D01*
X127163811Y-123610189D01*
X127467214Y-123914122D01*
X127863832Y-124078813D01*
X128293284Y-124079187D01*
X128524000Y-123983857D01*
X128524000Y-126740574D01*
X128231668Y-126619187D01*
X127802216Y-126618813D01*
X127405311Y-126782811D01*
X127101378Y-127086214D01*
X126936687Y-127482832D01*
X126936313Y-127912284D01*
X127100311Y-128309189D01*
X127403714Y-128613122D01*
X127800332Y-128777813D01*
X128017872Y-128778002D01*
X129668869Y-130429000D01*
X118362131Y-130429000D01*
X114808000Y-126874870D01*
X114808000Y-125390526D01*
X116083542Y-125390526D01*
X116255812Y-125806447D01*
X116650010Y-126238321D01*
X117179473Y-126486468D01*
X117411500Y-126365969D01*
X117411500Y-125158500D01*
X116204683Y-125158500D01*
X116083542Y-125390526D01*
X114808000Y-125390526D01*
X114808000Y-122850526D01*
X116083542Y-122850526D01*
X116255812Y-123266447D01*
X116650010Y-123698321D01*
X116784813Y-123761500D01*
X116650010Y-123824679D01*
X116255812Y-124256553D01*
X116083542Y-124672474D01*
X116204683Y-124904500D01*
X117411500Y-124904500D01*
X117411500Y-122618500D01*
X116204683Y-122618500D01*
X116083542Y-122850526D01*
X114808000Y-122850526D01*
X114808000Y-120310526D01*
X116083542Y-120310526D01*
X116255812Y-120726447D01*
X116650010Y-121158321D01*
X116784813Y-121221500D01*
X116650010Y-121284679D01*
X116255812Y-121716553D01*
X116083542Y-122132474D01*
X116204683Y-122364500D01*
X117411500Y-122364500D01*
X117411500Y-120078500D01*
X116204683Y-120078500D01*
X116083542Y-120310526D01*
X114808000Y-120310526D01*
X114808000Y-91569642D01*
X114960622Y-91417286D01*
X115125313Y-91020668D01*
X115125687Y-90591216D01*
X114961689Y-90194311D01*
X114658286Y-89890378D01*
X114261668Y-89725687D01*
X113832216Y-89725313D01*
X113435311Y-89889311D01*
X113131378Y-90192714D01*
X112966687Y-90589332D01*
X112966313Y-91018784D01*
X110553500Y-91018784D01*
X110553500Y-47680875D01*
X111312230Y-47680875D01*
X111676130Y-48173710D01*
X113072624Y-48762937D01*
X114588303Y-48772898D01*
X115992420Y-48202074D01*
X116034870Y-48173710D01*
X116398770Y-47680875D01*
X183067230Y-47680875D01*
X183431130Y-48173710D01*
X184827624Y-48762937D01*
X186343303Y-48772898D01*
X187747420Y-48202074D01*
X187789870Y-48173710D01*
X188153770Y-47680875D01*
X185610500Y-45137605D01*
X183067230Y-47680875D01*
X116398770Y-47680875D01*
X113855500Y-45137605D01*
X111312230Y-47680875D01*
X110553500Y-47680875D01*
X110553500Y-46952433D01*
X110611426Y-47094920D01*
X110639790Y-47137370D01*
X111132625Y-47501270D01*
X113675895Y-44958000D01*
X114035105Y-44958000D01*
X116578375Y-47501270D01*
X117071210Y-47137370D01*
X117660437Y-45740876D01*
X117660766Y-45690803D01*
X181795602Y-45690803D01*
X182366426Y-47094920D01*
X182394790Y-47137370D01*
X182887625Y-47501270D01*
X185430895Y-44958000D01*
X182887625Y-42414730D01*
X182394790Y-42778630D01*
X181805563Y-44175124D01*
X181795602Y-45690803D01*
X117660766Y-45690803D01*
X117670398Y-44225197D01*
X117099574Y-42821080D01*
X117071210Y-42778630D01*
X116578375Y-42414730D01*
X114035105Y-44958000D01*
X113675895Y-44958000D01*
X111132625Y-42414730D01*
X110639790Y-42778630D01*
X110553500Y-42983141D01*
X110553500Y-41783103D01*
X111645341Y-41783988D01*
M02*
