%FSLAX46Y46*%
G04 Gerber Fmt 4.6, Leading zero omitted, Abs format (unit mm)*
G04 Created by KiCad (PCBNEW (2014-10-27 BZR 5228)-product) date 22/05/2015 08:20:29*
%MOMM*%
G01*
G04 APERTURE LIST*
%ADD10C,0.100000*%
%ADD11R,1.250000X1.000000*%
%ADD12R,1.000000X1.250000*%
%ADD13R,4.200000X0.700000*%
%ADD14R,1.397000X1.397000*%
%ADD15C,1.397000*%
%ADD16C,1.998980*%
%ADD17C,3.500000*%
%ADD18C,2.000000*%
%ADD19R,1.800000X1.800000*%
%ADD20C,1.800000*%
%ADD21C,2.540000*%
%ADD22C,1.727200*%
%ADD23C,1.524000*%
%ADD24O,1.501140X2.499360*%
%ADD25R,1.397000X0.889000*%
%ADD26R,1.300000X1.500000*%
%ADD27R,1.500000X1.300000*%
%ADD28R,2.700020X4.000500*%
%ADD29R,1.800860X3.500120*%
%ADD30C,6.350000*%
%ADD31R,2.032000X2.032000*%
%ADD32O,2.032000X2.032000*%
G04 APERTURE END LIST*
D10*
D11*
X145400000Y-69450000D03*
X145400000Y-71450000D03*
X146800000Y-62700000D03*
X146800000Y-60700000D03*
X142000000Y-51600000D03*
X142000000Y-49600000D03*
X147600000Y-50600000D03*
X147600000Y-52600000D03*
D12*
X174600000Y-51600000D03*
X172600000Y-51600000D03*
D11*
X166850000Y-48200000D03*
X166850000Y-46200000D03*
D12*
X174600000Y-49000000D03*
X172600000Y-49000000D03*
D13*
X129500000Y-74500000D03*
X129500000Y-73500000D03*
X129500000Y-72500000D03*
X129500000Y-71500000D03*
X129500000Y-70500000D03*
X129500000Y-69500000D03*
X129500000Y-68500000D03*
X129500000Y-67500000D03*
X129500000Y-66500000D03*
X129500000Y-65500000D03*
X129500000Y-64500000D03*
X129500000Y-61500000D03*
X129500000Y-60500000D03*
X129500000Y-59500000D03*
X129500000Y-58500000D03*
X129500000Y-57500000D03*
X129500000Y-56500000D03*
X129500000Y-55500000D03*
D14*
X162560000Y-84455000D03*
D15*
X165100000Y-84455000D03*
X167640000Y-84455000D03*
X170180000Y-84455000D03*
X172720000Y-84455000D03*
X172720000Y-76835000D03*
X170180000Y-76835000D03*
X167640000Y-76835000D03*
X165100000Y-76835000D03*
X162560000Y-76835000D03*
D14*
X172339000Y-65913000D03*
D15*
X169799000Y-65913000D03*
X167259000Y-65913000D03*
X164719000Y-65913000D03*
X162179000Y-65913000D03*
X162179000Y-73533000D03*
X164719000Y-73533000D03*
X167259000Y-73533000D03*
X169799000Y-73533000D03*
X172339000Y-73533000D03*
D16*
X191242000Y-79146000D03*
X185654000Y-79146000D03*
X182492000Y-79246000D03*
X176904000Y-79246000D03*
X165496000Y-87258000D03*
X165496000Y-92846000D03*
X179254000Y-92892000D03*
X179254000Y-87304000D03*
D17*
X191800000Y-67600000D03*
X191800000Y-60000000D03*
D18*
X184000000Y-63800000D03*
D19*
X142200000Y-66800000D03*
D20*
X142200000Y-69300000D03*
X139200000Y-66800000D03*
X142200000Y-71800000D03*
X139200000Y-71800000D03*
X139200000Y-69300000D03*
D19*
X143500000Y-62000000D03*
D20*
X141000000Y-62000000D03*
X143500000Y-59000000D03*
X138500000Y-62000000D03*
X138500000Y-59000000D03*
X141000000Y-59000000D03*
D21*
X163461700Y-39199300D03*
D22*
X163461700Y-43199300D03*
D21*
X163461700Y-47199300D03*
D22*
X163461700Y-51199300D03*
D23*
X138600000Y-48460000D03*
X138600000Y-45920000D03*
X138600000Y-51000000D03*
D24*
X153893520Y-39451280D03*
X156433520Y-39451280D03*
X151353520Y-39451280D03*
D16*
X177599460Y-54600000D03*
X171000540Y-54600000D03*
D12*
X166450000Y-54650000D03*
X164450000Y-54650000D03*
D25*
X136800000Y-56252500D03*
X136800000Y-54347500D03*
D26*
X146800000Y-64150000D03*
X146800000Y-66850000D03*
X147600000Y-46050000D03*
X147600000Y-48750000D03*
X142000000Y-45450000D03*
X142000000Y-48150000D03*
D27*
X153750000Y-67400000D03*
X151050000Y-67400000D03*
X152650000Y-63500000D03*
X149950000Y-63500000D03*
X159850000Y-63200000D03*
X157150000Y-63200000D03*
D12*
X154300000Y-75550000D03*
X152300000Y-75550000D03*
D27*
X153800000Y-69700000D03*
X151100000Y-69700000D03*
D28*
X179200000Y-38761260D03*
X179200000Y-46538740D03*
D29*
X170200000Y-39800260D03*
X170200000Y-45799740D03*
D27*
X178800000Y-61700000D03*
X176100000Y-61700000D03*
D30*
X189700000Y-39500000D03*
X139100000Y-39500000D03*
X189700000Y-89900000D03*
X139100000Y-90000000D03*
D12*
X174600000Y-46250000D03*
X172600000Y-46250000D03*
D31*
X164150000Y-60000000D03*
D32*
X164150000Y-62540000D03*
D27*
X164200000Y-71100000D03*
X161500000Y-71100000D03*
D31*
X184300000Y-38200000D03*
D32*
X184300000Y-40740000D03*
D27*
X151950000Y-72200000D03*
X154650000Y-72200000D03*
D11*
X178650000Y-67300000D03*
X178650000Y-69300000D03*
X144600000Y-67200000D03*
X144600000Y-65200000D03*
D31*
X148800000Y-74700000D03*
D32*
X148800000Y-72160000D03*
M02*
