%FSLAX46Y46*%
G04 Gerber Fmt 4.6, Leading zero omitted, Abs format (unit mm)*
G04 Created by KiCad (PCBNEW (2014-10-27 BZR 5228)-product) date 22/05/2015 08:20:29*
%MOMM*%
G01*
G04 APERTURE LIST*
%ADD10C,0.100000*%
%ADD11C,0.150000*%
G04 APERTURE END LIST*
D10*
D11*
X144550000Y-70950000D02*
X144550000Y-69950000D01*
X146250000Y-69950000D02*
X146250000Y-70950000D01*
X147650000Y-61200000D02*
X147650000Y-62200000D01*
X145950000Y-62200000D02*
X145950000Y-61200000D01*
X142850000Y-50100000D02*
X142850000Y-51100000D01*
X141150000Y-51100000D02*
X141150000Y-50100000D01*
X146750000Y-52100000D02*
X146750000Y-51100000D01*
X148450000Y-51100000D02*
X148450000Y-52100000D01*
X173100000Y-50750000D02*
X174100000Y-50750000D01*
X174100000Y-52450000D02*
X173100000Y-52450000D01*
X167700000Y-46700000D02*
X167700000Y-47700000D01*
X166000000Y-47700000D02*
X166000000Y-46700000D01*
X173100000Y-48150000D02*
X174100000Y-48150000D01*
X174100000Y-49850000D02*
X173100000Y-49850000D01*
X164950000Y-53800000D02*
X165950000Y-53800000D01*
X165950000Y-55500000D02*
X164950000Y-55500000D01*
X136165000Y-56951000D02*
G75*
G03X136165000Y-56951000I-127000J0D01*
G01*
X136038000Y-55808000D02*
X136038000Y-56824000D01*
X136038000Y-56824000D02*
X137562000Y-56824000D01*
X137562000Y-56824000D02*
X137562000Y-55808000D01*
X137562000Y-54792000D02*
X137562000Y-53776000D01*
X137562000Y-53776000D02*
X136038000Y-53776000D01*
X136038000Y-53776000D02*
X136038000Y-54792000D01*
X147675000Y-66100000D02*
X147675000Y-64900000D01*
X145925000Y-64900000D02*
X145925000Y-66100000D01*
X148475000Y-48000000D02*
X148475000Y-46800000D01*
X146725000Y-46800000D02*
X146725000Y-48000000D01*
X142875000Y-47400000D02*
X142875000Y-46200000D01*
X141125000Y-46200000D02*
X141125000Y-47400000D01*
X151800000Y-68275000D02*
X153000000Y-68275000D01*
X153000000Y-66525000D02*
X151800000Y-66525000D01*
X150700000Y-64375000D02*
X151900000Y-64375000D01*
X151900000Y-62625000D02*
X150700000Y-62625000D01*
X157900000Y-64075000D02*
X159100000Y-64075000D01*
X159100000Y-62325000D02*
X157900000Y-62325000D01*
X152800000Y-74700000D02*
X153800000Y-74700000D01*
X153800000Y-76400000D02*
X152800000Y-76400000D01*
X151850000Y-70575000D02*
X153050000Y-70575000D01*
X153050000Y-68825000D02*
X151850000Y-68825000D01*
X181399640Y-49053340D02*
X177000360Y-49053340D01*
X177000360Y-47150880D02*
X177000360Y-38149120D01*
X181399640Y-38149120D02*
X181399640Y-47150880D01*
X182402940Y-49508000D02*
X181303120Y-49508000D01*
X181902560Y-50107440D02*
X181902560Y-48908560D01*
X171899260Y-48050180D02*
X168500740Y-48050180D01*
X168500740Y-39800260D02*
X168500740Y-45799740D01*
X171899260Y-39800260D02*
X171899260Y-45799740D01*
X172902560Y-48553100D02*
X171802740Y-48553100D01*
X172402180Y-49152540D02*
X172402180Y-47953660D01*
X176850000Y-62575000D02*
X178050000Y-62575000D01*
X178050000Y-60825000D02*
X176850000Y-60825000D01*
X173100000Y-45400000D02*
X174100000Y-45400000D01*
X174100000Y-47100000D02*
X173100000Y-47100000D01*
X162250000Y-71975000D02*
X163450000Y-71975000D01*
X163450000Y-70225000D02*
X162250000Y-70225000D01*
X153900000Y-71325000D02*
X152700000Y-71325000D01*
X152700000Y-73075000D02*
X153900000Y-73075000D01*
X177800000Y-68800000D02*
X177800000Y-67800000D01*
X179500000Y-67800000D02*
X179500000Y-68800000D01*
X145450000Y-65700000D02*
X145450000Y-66700000D01*
X143750000Y-66700000D02*
X143750000Y-65700000D01*
X147357143Y-69633334D02*
X147404762Y-69585715D01*
X147452381Y-69442858D01*
X147452381Y-69347620D01*
X147404762Y-69204762D01*
X147309524Y-69109524D01*
X147214286Y-69061905D01*
X147023810Y-69014286D01*
X146880952Y-69014286D01*
X146690476Y-69061905D01*
X146595238Y-69109524D01*
X146500000Y-69204762D01*
X146452381Y-69347620D01*
X146452381Y-69442858D01*
X146500000Y-69585715D01*
X146547619Y-69633334D01*
X146547619Y-70014286D02*
X146500000Y-70061905D01*
X146452381Y-70157143D01*
X146452381Y-70395239D01*
X146500000Y-70490477D01*
X146547619Y-70538096D01*
X146642857Y-70585715D01*
X146738095Y-70585715D01*
X146880952Y-70538096D01*
X147452381Y-69966667D01*
X147452381Y-70585715D01*
X148857143Y-61533334D02*
X148904762Y-61485715D01*
X148952381Y-61342858D01*
X148952381Y-61247620D01*
X148904762Y-61104762D01*
X148809524Y-61009524D01*
X148714286Y-60961905D01*
X148523810Y-60914286D01*
X148380952Y-60914286D01*
X148190476Y-60961905D01*
X148095238Y-61009524D01*
X148000000Y-61104762D01*
X147952381Y-61247620D01*
X147952381Y-61342858D01*
X148000000Y-61485715D01*
X148047619Y-61533334D01*
X147952381Y-61866667D02*
X147952381Y-62485715D01*
X148333333Y-62152381D01*
X148333333Y-62295239D01*
X148380952Y-62390477D01*
X148428571Y-62438096D01*
X148523810Y-62485715D01*
X148761905Y-62485715D01*
X148857143Y-62438096D01*
X148904762Y-62390477D01*
X148952381Y-62295239D01*
X148952381Y-62009524D01*
X148904762Y-61914286D01*
X148857143Y-61866667D01*
X140957143Y-49957143D02*
X141004762Y-49909524D01*
X141052381Y-49766667D01*
X141052381Y-49671429D01*
X141004762Y-49528571D01*
X140909524Y-49433333D01*
X140814286Y-49385714D01*
X140623810Y-49338095D01*
X140480952Y-49338095D01*
X140290476Y-49385714D01*
X140195238Y-49433333D01*
X140100000Y-49528571D01*
X140052381Y-49671429D01*
X140052381Y-49766667D01*
X140100000Y-49909524D01*
X140147619Y-49957143D01*
X141052381Y-50909524D02*
X141052381Y-50338095D01*
X141052381Y-50623809D02*
X140052381Y-50623809D01*
X140195238Y-50528571D01*
X140290476Y-50433333D01*
X140338095Y-50338095D01*
X140147619Y-51290476D02*
X140100000Y-51338095D01*
X140052381Y-51433333D01*
X140052381Y-51671429D01*
X140100000Y-51766667D01*
X140147619Y-51814286D01*
X140242857Y-51861905D01*
X140338095Y-51861905D01*
X140480952Y-51814286D01*
X141052381Y-51242857D01*
X141052381Y-51861905D01*
X146357143Y-50757143D02*
X146404762Y-50709524D01*
X146452381Y-50566667D01*
X146452381Y-50471429D01*
X146404762Y-50328571D01*
X146309524Y-50233333D01*
X146214286Y-50185714D01*
X146023810Y-50138095D01*
X145880952Y-50138095D01*
X145690476Y-50185714D01*
X145595238Y-50233333D01*
X145500000Y-50328571D01*
X145452381Y-50471429D01*
X145452381Y-50566667D01*
X145500000Y-50709524D01*
X145547619Y-50757143D01*
X146452381Y-51709524D02*
X146452381Y-51138095D01*
X146452381Y-51423809D02*
X145452381Y-51423809D01*
X145595238Y-51328571D01*
X145690476Y-51233333D01*
X145738095Y-51138095D01*
X145452381Y-52614286D02*
X145452381Y-52138095D01*
X145928571Y-52090476D01*
X145880952Y-52138095D01*
X145833333Y-52233333D01*
X145833333Y-52471429D01*
X145880952Y-52566667D01*
X145928571Y-52614286D01*
X146023810Y-52661905D01*
X146261905Y-52661905D01*
X146357143Y-52614286D01*
X146404762Y-52566667D01*
X146452381Y-52471429D01*
X146452381Y-52233333D01*
X146404762Y-52138095D01*
X146357143Y-52090476D01*
X177842857Y-51957143D02*
X177890476Y-52004762D01*
X178033333Y-52052381D01*
X178128571Y-52052381D01*
X178271429Y-52004762D01*
X178366667Y-51909524D01*
X178414286Y-51814286D01*
X178461905Y-51623810D01*
X178461905Y-51480952D01*
X178414286Y-51290476D01*
X178366667Y-51195238D01*
X178271429Y-51100000D01*
X178128571Y-51052381D01*
X178033333Y-51052381D01*
X177890476Y-51100000D01*
X177842857Y-51147619D01*
X176890476Y-52052381D02*
X177461905Y-52052381D01*
X177176191Y-52052381D02*
X177176191Y-51052381D01*
X177271429Y-51195238D01*
X177366667Y-51290476D01*
X177461905Y-51338095D01*
X176414286Y-52052381D02*
X176223810Y-52052381D01*
X176128571Y-52004762D01*
X176080952Y-51957143D01*
X175985714Y-51814286D01*
X175938095Y-51623810D01*
X175938095Y-51242857D01*
X175985714Y-51147619D01*
X176033333Y-51100000D01*
X176128571Y-51052381D01*
X176319048Y-51052381D01*
X176414286Y-51100000D01*
X176461905Y-51147619D01*
X176509524Y-51242857D01*
X176509524Y-51480952D01*
X176461905Y-51576190D01*
X176414286Y-51623810D01*
X176319048Y-51671429D01*
X176128571Y-51671429D01*
X176033333Y-51623810D01*
X175985714Y-51576190D01*
X175938095Y-51480952D01*
X167692857Y-50307143D02*
X167740476Y-50354762D01*
X167883333Y-50402381D01*
X167978571Y-50402381D01*
X168121429Y-50354762D01*
X168216667Y-50259524D01*
X168264286Y-50164286D01*
X168311905Y-49973810D01*
X168311905Y-49830952D01*
X168264286Y-49640476D01*
X168216667Y-49545238D01*
X168121429Y-49450000D01*
X167978571Y-49402381D01*
X167883333Y-49402381D01*
X167740476Y-49450000D01*
X167692857Y-49497619D01*
X167311905Y-49497619D02*
X167264286Y-49450000D01*
X167169048Y-49402381D01*
X166930952Y-49402381D01*
X166835714Y-49450000D01*
X166788095Y-49497619D01*
X166740476Y-49592857D01*
X166740476Y-49688095D01*
X166788095Y-49830952D01*
X167359524Y-50402381D01*
X166740476Y-50402381D01*
X166121429Y-49402381D02*
X166026190Y-49402381D01*
X165930952Y-49450000D01*
X165883333Y-49497619D01*
X165835714Y-49592857D01*
X165788095Y-49783333D01*
X165788095Y-50021429D01*
X165835714Y-50211905D01*
X165883333Y-50307143D01*
X165930952Y-50354762D01*
X166026190Y-50402381D01*
X166121429Y-50402381D01*
X166216667Y-50354762D01*
X166264286Y-50307143D01*
X166311905Y-50211905D01*
X166359524Y-50021429D01*
X166359524Y-49783333D01*
X166311905Y-49592857D01*
X166264286Y-49497619D01*
X166216667Y-49450000D01*
X166121429Y-49402381D01*
X177842857Y-49157143D02*
X177890476Y-49204762D01*
X178033333Y-49252381D01*
X178128571Y-49252381D01*
X178271429Y-49204762D01*
X178366667Y-49109524D01*
X178414286Y-49014286D01*
X178461905Y-48823810D01*
X178461905Y-48680952D01*
X178414286Y-48490476D01*
X178366667Y-48395238D01*
X178271429Y-48300000D01*
X178128571Y-48252381D01*
X178033333Y-48252381D01*
X177890476Y-48300000D01*
X177842857Y-48347619D01*
X177461905Y-48347619D02*
X177414286Y-48300000D01*
X177319048Y-48252381D01*
X177080952Y-48252381D01*
X176985714Y-48300000D01*
X176938095Y-48347619D01*
X176890476Y-48442857D01*
X176890476Y-48538095D01*
X176938095Y-48680952D01*
X177509524Y-49252381D01*
X176890476Y-49252381D01*
X175938095Y-49252381D02*
X176509524Y-49252381D01*
X176223810Y-49252381D02*
X176223810Y-48252381D01*
X176319048Y-48395238D01*
X176414286Y-48490476D01*
X176509524Y-48538095D01*
X166192857Y-56607143D02*
X166240476Y-56654762D01*
X166383333Y-56702381D01*
X166478571Y-56702381D01*
X166621429Y-56654762D01*
X166716667Y-56559524D01*
X166764286Y-56464286D01*
X166811905Y-56273810D01*
X166811905Y-56130952D01*
X166764286Y-55940476D01*
X166716667Y-55845238D01*
X166621429Y-55750000D01*
X166478571Y-55702381D01*
X166383333Y-55702381D01*
X166240476Y-55750000D01*
X166192857Y-55797619D01*
X165811905Y-55797619D02*
X165764286Y-55750000D01*
X165669048Y-55702381D01*
X165430952Y-55702381D01*
X165335714Y-55750000D01*
X165288095Y-55797619D01*
X165240476Y-55892857D01*
X165240476Y-55988095D01*
X165288095Y-56130952D01*
X165859524Y-56702381D01*
X165240476Y-56702381D01*
X164764286Y-56702381D02*
X164573810Y-56702381D01*
X164478571Y-56654762D01*
X164430952Y-56607143D01*
X164335714Y-56464286D01*
X164288095Y-56273810D01*
X164288095Y-55892857D01*
X164335714Y-55797619D01*
X164383333Y-55750000D01*
X164478571Y-55702381D01*
X164669048Y-55702381D01*
X164764286Y-55750000D01*
X164811905Y-55797619D01*
X164859524Y-55892857D01*
X164859524Y-56130952D01*
X164811905Y-56226190D01*
X164764286Y-56273810D01*
X164669048Y-56321429D01*
X164478571Y-56321429D01*
X164383333Y-56273810D01*
X164335714Y-56226190D01*
X164288095Y-56130952D01*
X138328571Y-54466667D02*
X138328571Y-54133333D01*
X138852381Y-54133333D02*
X137852381Y-54133333D01*
X137852381Y-54609524D01*
X138328571Y-55323810D02*
X138376190Y-55466667D01*
X138423810Y-55514286D01*
X138519048Y-55561905D01*
X138661905Y-55561905D01*
X138757143Y-55514286D01*
X138804762Y-55466667D01*
X138852381Y-55371429D01*
X138852381Y-54990476D01*
X137852381Y-54990476D01*
X137852381Y-55323810D01*
X137900000Y-55419048D01*
X137947619Y-55466667D01*
X138042857Y-55514286D01*
X138138095Y-55514286D01*
X138233333Y-55466667D01*
X138280952Y-55419048D01*
X138328571Y-55323810D01*
X138328571Y-54990476D01*
X138852381Y-56514286D02*
X138852381Y-55942857D01*
X138852381Y-56228571D02*
X137852381Y-56228571D01*
X137995238Y-56133333D01*
X138090476Y-56038095D01*
X138138095Y-55942857D01*
X148852381Y-65483334D02*
X148376190Y-65150000D01*
X148852381Y-64911905D02*
X147852381Y-64911905D01*
X147852381Y-65292858D01*
X147900000Y-65388096D01*
X147947619Y-65435715D01*
X148042857Y-65483334D01*
X148185714Y-65483334D01*
X148280952Y-65435715D01*
X148328571Y-65388096D01*
X148376190Y-65292858D01*
X148376190Y-64911905D01*
X148185714Y-66340477D02*
X148852381Y-66340477D01*
X147804762Y-66102381D02*
X148519048Y-65864286D01*
X148519048Y-66483334D01*
X146452381Y-47333334D02*
X145976190Y-47000000D01*
X146452381Y-46761905D02*
X145452381Y-46761905D01*
X145452381Y-47142858D01*
X145500000Y-47238096D01*
X145547619Y-47285715D01*
X145642857Y-47333334D01*
X145785714Y-47333334D01*
X145880952Y-47285715D01*
X145928571Y-47238096D01*
X145976190Y-47142858D01*
X145976190Y-46761905D01*
X145452381Y-48238096D02*
X145452381Y-47761905D01*
X145928571Y-47714286D01*
X145880952Y-47761905D01*
X145833333Y-47857143D01*
X145833333Y-48095239D01*
X145880952Y-48190477D01*
X145928571Y-48238096D01*
X146023810Y-48285715D01*
X146261905Y-48285715D01*
X146357143Y-48238096D01*
X146404762Y-48190477D01*
X146452381Y-48095239D01*
X146452381Y-47857143D01*
X146404762Y-47761905D01*
X146357143Y-47714286D01*
X140852381Y-46633334D02*
X140376190Y-46300000D01*
X140852381Y-46061905D02*
X139852381Y-46061905D01*
X139852381Y-46442858D01*
X139900000Y-46538096D01*
X139947619Y-46585715D01*
X140042857Y-46633334D01*
X140185714Y-46633334D01*
X140280952Y-46585715D01*
X140328571Y-46538096D01*
X140376190Y-46442858D01*
X140376190Y-46061905D01*
X139852381Y-47490477D02*
X139852381Y-47300000D01*
X139900000Y-47204762D01*
X139947619Y-47157143D01*
X140090476Y-47061905D01*
X140280952Y-47014286D01*
X140661905Y-47014286D01*
X140757143Y-47061905D01*
X140804762Y-47109524D01*
X140852381Y-47204762D01*
X140852381Y-47395239D01*
X140804762Y-47490477D01*
X140757143Y-47538096D01*
X140661905Y-47585715D01*
X140423810Y-47585715D01*
X140328571Y-47538096D01*
X140280952Y-47490477D01*
X140233333Y-47395239D01*
X140233333Y-47204762D01*
X140280952Y-47109524D01*
X140328571Y-47061905D01*
X140423810Y-47014286D01*
X153092857Y-66352381D02*
X153426191Y-65876190D01*
X153664286Y-66352381D02*
X153664286Y-65352381D01*
X153283333Y-65352381D01*
X153188095Y-65400000D01*
X153140476Y-65447619D01*
X153092857Y-65542857D01*
X153092857Y-65685714D01*
X153140476Y-65780952D01*
X153188095Y-65828571D01*
X153283333Y-65876190D01*
X153664286Y-65876190D01*
X152140476Y-66352381D02*
X152711905Y-66352381D01*
X152426191Y-66352381D02*
X152426191Y-65352381D01*
X152521429Y-65495238D01*
X152616667Y-65590476D01*
X152711905Y-65638095D01*
X151521429Y-65352381D02*
X151426190Y-65352381D01*
X151330952Y-65400000D01*
X151283333Y-65447619D01*
X151235714Y-65542857D01*
X151188095Y-65733333D01*
X151188095Y-65971429D01*
X151235714Y-66161905D01*
X151283333Y-66257143D01*
X151330952Y-66304762D01*
X151426190Y-66352381D01*
X151521429Y-66352381D01*
X151616667Y-66304762D01*
X151664286Y-66257143D01*
X151711905Y-66161905D01*
X151759524Y-65971429D01*
X151759524Y-65733333D01*
X151711905Y-65542857D01*
X151664286Y-65447619D01*
X151616667Y-65400000D01*
X151521429Y-65352381D01*
X151942857Y-62352381D02*
X152276191Y-61876190D01*
X152514286Y-62352381D02*
X152514286Y-61352381D01*
X152133333Y-61352381D01*
X152038095Y-61400000D01*
X151990476Y-61447619D01*
X151942857Y-61542857D01*
X151942857Y-61685714D01*
X151990476Y-61780952D01*
X152038095Y-61828571D01*
X152133333Y-61876190D01*
X152514286Y-61876190D01*
X150990476Y-62352381D02*
X151561905Y-62352381D01*
X151276191Y-62352381D02*
X151276191Y-61352381D01*
X151371429Y-61495238D01*
X151466667Y-61590476D01*
X151561905Y-61638095D01*
X150038095Y-62352381D02*
X150609524Y-62352381D01*
X150323810Y-62352381D02*
X150323810Y-61352381D01*
X150419048Y-61495238D01*
X150514286Y-61590476D01*
X150609524Y-61638095D01*
X159142857Y-62352381D02*
X159476191Y-61876190D01*
X159714286Y-62352381D02*
X159714286Y-61352381D01*
X159333333Y-61352381D01*
X159238095Y-61400000D01*
X159190476Y-61447619D01*
X159142857Y-61542857D01*
X159142857Y-61685714D01*
X159190476Y-61780952D01*
X159238095Y-61828571D01*
X159333333Y-61876190D01*
X159714286Y-61876190D01*
X158190476Y-62352381D02*
X158761905Y-62352381D01*
X158476191Y-62352381D02*
X158476191Y-61352381D01*
X158571429Y-61495238D01*
X158666667Y-61590476D01*
X158761905Y-61638095D01*
X157809524Y-61447619D02*
X157761905Y-61400000D01*
X157666667Y-61352381D01*
X157428571Y-61352381D01*
X157333333Y-61400000D01*
X157285714Y-61447619D01*
X157238095Y-61542857D01*
X157238095Y-61638095D01*
X157285714Y-61780952D01*
X157857143Y-62352381D01*
X157238095Y-62352381D01*
X154042857Y-77407143D02*
X154090476Y-77454762D01*
X154233333Y-77502381D01*
X154328571Y-77502381D01*
X154471429Y-77454762D01*
X154566667Y-77359524D01*
X154614286Y-77264286D01*
X154661905Y-77073810D01*
X154661905Y-76930952D01*
X154614286Y-76740476D01*
X154566667Y-76645238D01*
X154471429Y-76550000D01*
X154328571Y-76502381D01*
X154233333Y-76502381D01*
X154090476Y-76550000D01*
X154042857Y-76597619D01*
X153709524Y-76502381D02*
X153090476Y-76502381D01*
X153423810Y-76883333D01*
X153280952Y-76883333D01*
X153185714Y-76930952D01*
X153138095Y-76978571D01*
X153090476Y-77073810D01*
X153090476Y-77311905D01*
X153138095Y-77407143D01*
X153185714Y-77454762D01*
X153280952Y-77502381D01*
X153566667Y-77502381D01*
X153661905Y-77454762D01*
X153709524Y-77407143D01*
X152138095Y-77502381D02*
X152709524Y-77502381D01*
X152423810Y-77502381D02*
X152423810Y-76502381D01*
X152519048Y-76645238D01*
X152614286Y-76740476D01*
X152709524Y-76788095D01*
X155716666Y-70452381D02*
X156050000Y-69976190D01*
X156288095Y-70452381D02*
X156288095Y-69452381D01*
X155907142Y-69452381D01*
X155811904Y-69500000D01*
X155764285Y-69547619D01*
X155716666Y-69642857D01*
X155716666Y-69785714D01*
X155764285Y-69880952D01*
X155811904Y-69928571D01*
X155907142Y-69976190D01*
X156288095Y-69976190D01*
X154764285Y-70452381D02*
X155335714Y-70452381D01*
X155050000Y-70452381D02*
X155050000Y-69452381D01*
X155145238Y-69595238D01*
X155240476Y-69690476D01*
X155335714Y-69738095D01*
X176557143Y-42583334D02*
X176604762Y-42535715D01*
X176652381Y-42392858D01*
X176652381Y-42297620D01*
X176604762Y-42154762D01*
X176509524Y-42059524D01*
X176414286Y-42011905D01*
X176223810Y-41964286D01*
X176080952Y-41964286D01*
X175890476Y-42011905D01*
X175795238Y-42059524D01*
X175700000Y-42154762D01*
X175652381Y-42297620D01*
X175652381Y-42392858D01*
X175700000Y-42535715D01*
X175747619Y-42583334D01*
X175652381Y-42916667D02*
X175652381Y-43583334D01*
X176652381Y-43154762D01*
X178271429Y-49319048D02*
X178271429Y-50080953D01*
X178652381Y-49700001D02*
X177890476Y-49700001D01*
X173557143Y-40757143D02*
X173604762Y-40709524D01*
X173652381Y-40566667D01*
X173652381Y-40471429D01*
X173604762Y-40328571D01*
X173509524Y-40233333D01*
X173414286Y-40185714D01*
X173223810Y-40138095D01*
X173080952Y-40138095D01*
X172890476Y-40185714D01*
X172795238Y-40233333D01*
X172700000Y-40328571D01*
X172652381Y-40471429D01*
X172652381Y-40566667D01*
X172700000Y-40709524D01*
X172747619Y-40757143D01*
X172747619Y-41138095D02*
X172700000Y-41185714D01*
X172652381Y-41280952D01*
X172652381Y-41519048D01*
X172700000Y-41614286D01*
X172747619Y-41661905D01*
X172842857Y-41709524D01*
X172938095Y-41709524D01*
X173080952Y-41661905D01*
X173652381Y-41090476D01*
X173652381Y-41709524D01*
X172747619Y-42090476D02*
X172700000Y-42138095D01*
X172652381Y-42233333D01*
X172652381Y-42471429D01*
X172700000Y-42566667D01*
X172747619Y-42614286D01*
X172842857Y-42661905D01*
X172938095Y-42661905D01*
X173080952Y-42614286D01*
X173652381Y-42042857D01*
X173652381Y-42661905D01*
X167871429Y-46519048D02*
X167871429Y-47280953D01*
X168252381Y-46900001D02*
X167490476Y-46900001D01*
X177716666Y-63752381D02*
X178050000Y-63276190D01*
X178288095Y-63752381D02*
X178288095Y-62752381D01*
X177907142Y-62752381D01*
X177811904Y-62800000D01*
X177764285Y-62847619D01*
X177716666Y-62942857D01*
X177716666Y-63085714D01*
X177764285Y-63180952D01*
X177811904Y-63228571D01*
X177907142Y-63276190D01*
X178288095Y-63276190D01*
X177240476Y-63752381D02*
X177050000Y-63752381D01*
X176954761Y-63704762D01*
X176907142Y-63657143D01*
X176811904Y-63514286D01*
X176764285Y-63323810D01*
X176764285Y-62942857D01*
X176811904Y-62847619D01*
X176859523Y-62800000D01*
X176954761Y-62752381D01*
X177145238Y-62752381D01*
X177240476Y-62800000D01*
X177288095Y-62847619D01*
X177335714Y-62942857D01*
X177335714Y-63180952D01*
X177288095Y-63276190D01*
X177240476Y-63323810D01*
X177145238Y-63371429D01*
X176954761Y-63371429D01*
X176859523Y-63323810D01*
X176811904Y-63276190D01*
X176764285Y-63180952D01*
X177316666Y-46607143D02*
X177364285Y-46654762D01*
X177507142Y-46702381D01*
X177602380Y-46702381D01*
X177745238Y-46654762D01*
X177840476Y-46559524D01*
X177888095Y-46464286D01*
X177935714Y-46273810D01*
X177935714Y-46130952D01*
X177888095Y-45940476D01*
X177840476Y-45845238D01*
X177745238Y-45750000D01*
X177602380Y-45702381D01*
X177507142Y-45702381D01*
X177364285Y-45750000D01*
X177316666Y-45797619D01*
X176364285Y-46702381D02*
X176935714Y-46702381D01*
X176650000Y-46702381D02*
X176650000Y-45702381D01*
X176745238Y-45845238D01*
X176840476Y-45940476D01*
X176935714Y-45988095D01*
X163392857Y-69952381D02*
X163726191Y-69476190D01*
X163964286Y-69952381D02*
X163964286Y-68952381D01*
X163583333Y-68952381D01*
X163488095Y-69000000D01*
X163440476Y-69047619D01*
X163392857Y-69142857D01*
X163392857Y-69285714D01*
X163440476Y-69380952D01*
X163488095Y-69428571D01*
X163583333Y-69476190D01*
X163964286Y-69476190D01*
X162440476Y-69952381D02*
X163011905Y-69952381D01*
X162726191Y-69952381D02*
X162726191Y-68952381D01*
X162821429Y-69095238D01*
X162916667Y-69190476D01*
X163011905Y-69238095D01*
X161583333Y-69285714D02*
X161583333Y-69952381D01*
X161821429Y-68904762D02*
X162059524Y-69619048D01*
X161440476Y-69619048D01*
X153792857Y-74252381D02*
X154126191Y-73776190D01*
X154364286Y-74252381D02*
X154364286Y-73252381D01*
X153983333Y-73252381D01*
X153888095Y-73300000D01*
X153840476Y-73347619D01*
X153792857Y-73442857D01*
X153792857Y-73585714D01*
X153840476Y-73680952D01*
X153888095Y-73728571D01*
X153983333Y-73776190D01*
X154364286Y-73776190D01*
X152840476Y-74252381D02*
X153411905Y-74252381D01*
X153126191Y-74252381D02*
X153126191Y-73252381D01*
X153221429Y-73395238D01*
X153316667Y-73490476D01*
X153411905Y-73538095D01*
X151983333Y-73252381D02*
X152173810Y-73252381D01*
X152269048Y-73300000D01*
X152316667Y-73347619D01*
X152411905Y-73490476D01*
X152459524Y-73680952D01*
X152459524Y-74061905D01*
X152411905Y-74157143D01*
X152364286Y-74204762D01*
X152269048Y-74252381D01*
X152078571Y-74252381D01*
X151983333Y-74204762D01*
X151935714Y-74157143D01*
X151888095Y-74061905D01*
X151888095Y-73823810D01*
X151935714Y-73728571D01*
X151983333Y-73680952D01*
X152078571Y-73633333D01*
X152269048Y-73633333D01*
X152364286Y-73680952D01*
X152411905Y-73728571D01*
X152459524Y-73823810D01*
X176907143Y-67657143D02*
X176954762Y-67609524D01*
X177002381Y-67466667D01*
X177002381Y-67371429D01*
X176954762Y-67228571D01*
X176859524Y-67133333D01*
X176764286Y-67085714D01*
X176573810Y-67038095D01*
X176430952Y-67038095D01*
X176240476Y-67085714D01*
X176145238Y-67133333D01*
X176050000Y-67228571D01*
X176002381Y-67371429D01*
X176002381Y-67466667D01*
X176050000Y-67609524D01*
X176097619Y-67657143D01*
X177002381Y-68609524D02*
X177002381Y-68038095D01*
X177002381Y-68323809D02*
X176002381Y-68323809D01*
X176145238Y-68228571D01*
X176240476Y-68133333D01*
X176288095Y-68038095D01*
X176430952Y-69180952D02*
X176383333Y-69085714D01*
X176335714Y-69038095D01*
X176240476Y-68990476D01*
X176192857Y-68990476D01*
X176097619Y-69038095D01*
X176050000Y-69085714D01*
X176002381Y-69180952D01*
X176002381Y-69371429D01*
X176050000Y-69466667D01*
X176097619Y-69514286D01*
X176192857Y-69561905D01*
X176240476Y-69561905D01*
X176335714Y-69514286D01*
X176383333Y-69466667D01*
X176430952Y-69371429D01*
X176430952Y-69180952D01*
X176478571Y-69085714D01*
X176526190Y-69038095D01*
X176621429Y-68990476D01*
X176811905Y-68990476D01*
X176907143Y-69038095D01*
X176954762Y-69085714D01*
X177002381Y-69180952D01*
X177002381Y-69371429D01*
X176954762Y-69466667D01*
X176907143Y-69514286D01*
X176811905Y-69561905D01*
X176621429Y-69561905D01*
X176526190Y-69514286D01*
X176478571Y-69466667D01*
X176430952Y-69371429D01*
X143457143Y-64733334D02*
X143504762Y-64685715D01*
X143552381Y-64542858D01*
X143552381Y-64447620D01*
X143504762Y-64304762D01*
X143409524Y-64209524D01*
X143314286Y-64161905D01*
X143123810Y-64114286D01*
X142980952Y-64114286D01*
X142790476Y-64161905D01*
X142695238Y-64209524D01*
X142600000Y-64304762D01*
X142552381Y-64447620D01*
X142552381Y-64542858D01*
X142600000Y-64685715D01*
X142647619Y-64733334D01*
X142885714Y-65590477D02*
X143552381Y-65590477D01*
X142504762Y-65352381D02*
X143219048Y-65114286D01*
X143219048Y-65733334D01*
M02*
