%FSLAX46Y46*%
G04 Gerber Fmt 4.6, Leading zero omitted, Abs format (unit mm)*
G04 Created by KiCad (PCBNEW (2014-10-27 BZR 5228)-product) date 16/06/2015 16:22:24*
%MOMM*%
G01*
G04 APERTURE LIST*
%ADD10C,0.100000*%
%ADD11C,0.150000*%
G04 APERTURE END LIST*
D10*
D11*
X143750000Y-72000000D02*
X143750000Y-71000000D01*
X145450000Y-71000000D02*
X145450000Y-72000000D01*
X143900000Y-66850000D02*
X143900000Y-65850000D01*
X145600000Y-65850000D02*
X145600000Y-66850000D01*
X183450000Y-45650000D02*
X183450000Y-44650000D01*
X185150000Y-44650000D02*
X185150000Y-45650000D01*
X142850000Y-50100000D02*
X142850000Y-51100000D01*
X141150000Y-51100000D02*
X141150000Y-50100000D01*
X146750000Y-52100000D02*
X146750000Y-51100000D01*
X148450000Y-51100000D02*
X148450000Y-52100000D01*
X173100000Y-50750000D02*
X174100000Y-50750000D01*
X174100000Y-52450000D02*
X173100000Y-52450000D01*
X167150000Y-50400000D02*
X166150000Y-50400000D01*
X166150000Y-48700000D02*
X167150000Y-48700000D01*
X173100000Y-48150000D02*
X174100000Y-48150000D01*
X174100000Y-49850000D02*
X173100000Y-49850000D01*
X153900000Y-75100000D02*
X152900000Y-75100000D01*
X152900000Y-73400000D02*
X153900000Y-73400000D01*
X175450000Y-67800000D02*
X175450000Y-68800000D01*
X173750000Y-68800000D02*
X173750000Y-67800000D01*
X136165000Y-56951000D02*
G75*
G03X136165000Y-56951000I-127000J0D01*
G01*
X136038000Y-55808000D02*
X136038000Y-56824000D01*
X136038000Y-56824000D02*
X137562000Y-56824000D01*
X137562000Y-56824000D02*
X137562000Y-55808000D01*
X137562000Y-54792000D02*
X137562000Y-53776000D01*
X137562000Y-53776000D02*
X136038000Y-53776000D01*
X136038000Y-53776000D02*
X136038000Y-54792000D01*
X147625000Y-66900000D02*
X147625000Y-65700000D01*
X145875000Y-65700000D02*
X145875000Y-66900000D01*
X148475000Y-48000000D02*
X148475000Y-46800000D01*
X146725000Y-46800000D02*
X146725000Y-48000000D01*
X142875000Y-47400000D02*
X142875000Y-46200000D01*
X141125000Y-46200000D02*
X141125000Y-47400000D01*
X151800000Y-68275000D02*
X153000000Y-68275000D01*
X153000000Y-66525000D02*
X151800000Y-66525000D01*
X150700000Y-64375000D02*
X151900000Y-64375000D01*
X151900000Y-62625000D02*
X150700000Y-62625000D01*
X157900000Y-64075000D02*
X159100000Y-64075000D01*
X159100000Y-62325000D02*
X157900000Y-62325000D01*
X151850000Y-70575000D02*
X153050000Y-70575000D01*
X153050000Y-68825000D02*
X151850000Y-68825000D01*
X176700360Y-38496660D02*
X181099640Y-38496660D01*
X181099640Y-40399120D02*
X181099640Y-49400880D01*
X176700360Y-49400880D02*
X176700360Y-40399120D01*
X175697060Y-38042000D02*
X176796880Y-38042000D01*
X176197440Y-37442560D02*
X176197440Y-38641440D01*
X171899260Y-48050180D02*
X168500740Y-48050180D01*
X168500740Y-39800260D02*
X168500740Y-45799740D01*
X171899260Y-39800260D02*
X171899260Y-45799740D01*
X172902560Y-48553100D02*
X171802740Y-48553100D01*
X172402180Y-49152540D02*
X172402180Y-47953660D01*
X176850000Y-62575000D02*
X178050000Y-62575000D01*
X178050000Y-60825000D02*
X176850000Y-60825000D01*
X173100000Y-45400000D02*
X174100000Y-45400000D01*
X174100000Y-47100000D02*
X173100000Y-47100000D01*
X167200000Y-67925000D02*
X166000000Y-67925000D01*
X166000000Y-69675000D02*
X167200000Y-69675000D01*
X153900000Y-71325000D02*
X152700000Y-71325000D01*
X152700000Y-73075000D02*
X153900000Y-73075000D01*
X150800000Y-77650000D02*
X149800000Y-77650000D01*
X149800000Y-75950000D02*
X150800000Y-75950000D01*
X173275000Y-72200000D02*
X172275000Y-72200000D01*
X172275000Y-70500000D02*
X173275000Y-70500000D01*
X146757143Y-71533334D02*
X146804762Y-71485715D01*
X146852381Y-71342858D01*
X146852381Y-71247620D01*
X146804762Y-71104762D01*
X146709524Y-71009524D01*
X146614286Y-70961905D01*
X146423810Y-70914286D01*
X146280952Y-70914286D01*
X146090476Y-70961905D01*
X145995238Y-71009524D01*
X145900000Y-71104762D01*
X145852381Y-71247620D01*
X145852381Y-71342858D01*
X145900000Y-71485715D01*
X145947619Y-71533334D01*
X145947619Y-71914286D02*
X145900000Y-71961905D01*
X145852381Y-72057143D01*
X145852381Y-72295239D01*
X145900000Y-72390477D01*
X145947619Y-72438096D01*
X146042857Y-72485715D01*
X146138095Y-72485715D01*
X146280952Y-72438096D01*
X146852381Y-71866667D01*
X146852381Y-72485715D01*
X143657143Y-64733334D02*
X143704762Y-64685715D01*
X143752381Y-64542858D01*
X143752381Y-64447620D01*
X143704762Y-64304762D01*
X143609524Y-64209524D01*
X143514286Y-64161905D01*
X143323810Y-64114286D01*
X143180952Y-64114286D01*
X142990476Y-64161905D01*
X142895238Y-64209524D01*
X142800000Y-64304762D01*
X142752381Y-64447620D01*
X142752381Y-64542858D01*
X142800000Y-64685715D01*
X142847619Y-64733334D01*
X142752381Y-65066667D02*
X142752381Y-65685715D01*
X143133333Y-65352381D01*
X143133333Y-65495239D01*
X143180952Y-65590477D01*
X143228571Y-65638096D01*
X143323810Y-65685715D01*
X143561905Y-65685715D01*
X143657143Y-65638096D01*
X143704762Y-65590477D01*
X143752381Y-65495239D01*
X143752381Y-65209524D01*
X143704762Y-65114286D01*
X143657143Y-65066667D01*
X186457143Y-44933334D02*
X186504762Y-44885715D01*
X186552381Y-44742858D01*
X186552381Y-44647620D01*
X186504762Y-44504762D01*
X186409524Y-44409524D01*
X186314286Y-44361905D01*
X186123810Y-44314286D01*
X185980952Y-44314286D01*
X185790476Y-44361905D01*
X185695238Y-44409524D01*
X185600000Y-44504762D01*
X185552381Y-44647620D01*
X185552381Y-44742858D01*
X185600000Y-44885715D01*
X185647619Y-44933334D01*
X185885714Y-45790477D02*
X186552381Y-45790477D01*
X185504762Y-45552381D02*
X186219048Y-45314286D01*
X186219048Y-45933334D01*
X140957143Y-49957143D02*
X141004762Y-49909524D01*
X141052381Y-49766667D01*
X141052381Y-49671429D01*
X141004762Y-49528571D01*
X140909524Y-49433333D01*
X140814286Y-49385714D01*
X140623810Y-49338095D01*
X140480952Y-49338095D01*
X140290476Y-49385714D01*
X140195238Y-49433333D01*
X140100000Y-49528571D01*
X140052381Y-49671429D01*
X140052381Y-49766667D01*
X140100000Y-49909524D01*
X140147619Y-49957143D01*
X141052381Y-50909524D02*
X141052381Y-50338095D01*
X141052381Y-50623809D02*
X140052381Y-50623809D01*
X140195238Y-50528571D01*
X140290476Y-50433333D01*
X140338095Y-50338095D01*
X140147619Y-51290476D02*
X140100000Y-51338095D01*
X140052381Y-51433333D01*
X140052381Y-51671429D01*
X140100000Y-51766667D01*
X140147619Y-51814286D01*
X140242857Y-51861905D01*
X140338095Y-51861905D01*
X140480952Y-51814286D01*
X141052381Y-51242857D01*
X141052381Y-51861905D01*
X146357143Y-50757143D02*
X146404762Y-50709524D01*
X146452381Y-50566667D01*
X146452381Y-50471429D01*
X146404762Y-50328571D01*
X146309524Y-50233333D01*
X146214286Y-50185714D01*
X146023810Y-50138095D01*
X145880952Y-50138095D01*
X145690476Y-50185714D01*
X145595238Y-50233333D01*
X145500000Y-50328571D01*
X145452381Y-50471429D01*
X145452381Y-50566667D01*
X145500000Y-50709524D01*
X145547619Y-50757143D01*
X146452381Y-51709524D02*
X146452381Y-51138095D01*
X146452381Y-51423809D02*
X145452381Y-51423809D01*
X145595238Y-51328571D01*
X145690476Y-51233333D01*
X145738095Y-51138095D01*
X145452381Y-52614286D02*
X145452381Y-52138095D01*
X145928571Y-52090476D01*
X145880952Y-52138095D01*
X145833333Y-52233333D01*
X145833333Y-52471429D01*
X145880952Y-52566667D01*
X145928571Y-52614286D01*
X146023810Y-52661905D01*
X146261905Y-52661905D01*
X146357143Y-52614286D01*
X146404762Y-52566667D01*
X146452381Y-52471429D01*
X146452381Y-52233333D01*
X146404762Y-52138095D01*
X146357143Y-52090476D01*
X177392857Y-51957143D02*
X177440476Y-52004762D01*
X177583333Y-52052381D01*
X177678571Y-52052381D01*
X177821429Y-52004762D01*
X177916667Y-51909524D01*
X177964286Y-51814286D01*
X178011905Y-51623810D01*
X178011905Y-51480952D01*
X177964286Y-51290476D01*
X177916667Y-51195238D01*
X177821429Y-51100000D01*
X177678571Y-51052381D01*
X177583333Y-51052381D01*
X177440476Y-51100000D01*
X177392857Y-51147619D01*
X176440476Y-52052381D02*
X177011905Y-52052381D01*
X176726191Y-52052381D02*
X176726191Y-51052381D01*
X176821429Y-51195238D01*
X176916667Y-51290476D01*
X177011905Y-51338095D01*
X175964286Y-52052381D02*
X175773810Y-52052381D01*
X175678571Y-52004762D01*
X175630952Y-51957143D01*
X175535714Y-51814286D01*
X175488095Y-51623810D01*
X175488095Y-51242857D01*
X175535714Y-51147619D01*
X175583333Y-51100000D01*
X175678571Y-51052381D01*
X175869048Y-51052381D01*
X175964286Y-51100000D01*
X176011905Y-51147619D01*
X176059524Y-51242857D01*
X176059524Y-51480952D01*
X176011905Y-51576190D01*
X175964286Y-51623810D01*
X175869048Y-51671429D01*
X175678571Y-51671429D01*
X175583333Y-51623810D01*
X175535714Y-51576190D01*
X175488095Y-51480952D01*
X167492857Y-51957143D02*
X167540476Y-52004762D01*
X167683333Y-52052381D01*
X167778571Y-52052381D01*
X167921429Y-52004762D01*
X168016667Y-51909524D01*
X168064286Y-51814286D01*
X168111905Y-51623810D01*
X168111905Y-51480952D01*
X168064286Y-51290476D01*
X168016667Y-51195238D01*
X167921429Y-51100000D01*
X167778571Y-51052381D01*
X167683333Y-51052381D01*
X167540476Y-51100000D01*
X167492857Y-51147619D01*
X167111905Y-51147619D02*
X167064286Y-51100000D01*
X166969048Y-51052381D01*
X166730952Y-51052381D01*
X166635714Y-51100000D01*
X166588095Y-51147619D01*
X166540476Y-51242857D01*
X166540476Y-51338095D01*
X166588095Y-51480952D01*
X167159524Y-52052381D01*
X166540476Y-52052381D01*
X165921429Y-51052381D02*
X165826190Y-51052381D01*
X165730952Y-51100000D01*
X165683333Y-51147619D01*
X165635714Y-51242857D01*
X165588095Y-51433333D01*
X165588095Y-51671429D01*
X165635714Y-51861905D01*
X165683333Y-51957143D01*
X165730952Y-52004762D01*
X165826190Y-52052381D01*
X165921429Y-52052381D01*
X166016667Y-52004762D01*
X166064286Y-51957143D01*
X166111905Y-51861905D01*
X166159524Y-51671429D01*
X166159524Y-51433333D01*
X166111905Y-51242857D01*
X166064286Y-51147619D01*
X166016667Y-51100000D01*
X165921429Y-51052381D01*
X177092857Y-49407143D02*
X177140476Y-49454762D01*
X177283333Y-49502381D01*
X177378571Y-49502381D01*
X177521429Y-49454762D01*
X177616667Y-49359524D01*
X177664286Y-49264286D01*
X177711905Y-49073810D01*
X177711905Y-48930952D01*
X177664286Y-48740476D01*
X177616667Y-48645238D01*
X177521429Y-48550000D01*
X177378571Y-48502381D01*
X177283333Y-48502381D01*
X177140476Y-48550000D01*
X177092857Y-48597619D01*
X176711905Y-48597619D02*
X176664286Y-48550000D01*
X176569048Y-48502381D01*
X176330952Y-48502381D01*
X176235714Y-48550000D01*
X176188095Y-48597619D01*
X176140476Y-48692857D01*
X176140476Y-48788095D01*
X176188095Y-48930952D01*
X176759524Y-49502381D01*
X176140476Y-49502381D01*
X175188095Y-49502381D02*
X175759524Y-49502381D01*
X175473810Y-49502381D02*
X175473810Y-48502381D01*
X175569048Y-48645238D01*
X175664286Y-48740476D01*
X175759524Y-48788095D01*
X154142857Y-76307143D02*
X154190476Y-76354762D01*
X154333333Y-76402381D01*
X154428571Y-76402381D01*
X154571429Y-76354762D01*
X154666667Y-76259524D01*
X154714286Y-76164286D01*
X154761905Y-75973810D01*
X154761905Y-75830952D01*
X154714286Y-75640476D01*
X154666667Y-75545238D01*
X154571429Y-75450000D01*
X154428571Y-75402381D01*
X154333333Y-75402381D01*
X154190476Y-75450000D01*
X154142857Y-75497619D01*
X153761905Y-75497619D02*
X153714286Y-75450000D01*
X153619048Y-75402381D01*
X153380952Y-75402381D01*
X153285714Y-75450000D01*
X153238095Y-75497619D01*
X153190476Y-75592857D01*
X153190476Y-75688095D01*
X153238095Y-75830952D01*
X153809524Y-76402381D01*
X153190476Y-76402381D01*
X152333333Y-75402381D02*
X152523810Y-75402381D01*
X152619048Y-75450000D01*
X152666667Y-75497619D01*
X152761905Y-75640476D01*
X152809524Y-75830952D01*
X152809524Y-76211905D01*
X152761905Y-76307143D01*
X152714286Y-76354762D01*
X152619048Y-76402381D01*
X152428571Y-76402381D01*
X152333333Y-76354762D01*
X152285714Y-76307143D01*
X152238095Y-76211905D01*
X152238095Y-75973810D01*
X152285714Y-75878571D01*
X152333333Y-75830952D01*
X152428571Y-75783333D01*
X152619048Y-75783333D01*
X152714286Y-75830952D01*
X152761905Y-75878571D01*
X152809524Y-75973810D01*
X176507143Y-67557143D02*
X176554762Y-67509524D01*
X176602381Y-67366667D01*
X176602381Y-67271429D01*
X176554762Y-67128571D01*
X176459524Y-67033333D01*
X176364286Y-66985714D01*
X176173810Y-66938095D01*
X176030952Y-66938095D01*
X175840476Y-66985714D01*
X175745238Y-67033333D01*
X175650000Y-67128571D01*
X175602381Y-67271429D01*
X175602381Y-67366667D01*
X175650000Y-67509524D01*
X175697619Y-67557143D01*
X175697619Y-67938095D02*
X175650000Y-67985714D01*
X175602381Y-68080952D01*
X175602381Y-68319048D01*
X175650000Y-68414286D01*
X175697619Y-68461905D01*
X175792857Y-68509524D01*
X175888095Y-68509524D01*
X176030952Y-68461905D01*
X176602381Y-67890476D01*
X176602381Y-68509524D01*
X176602381Y-68985714D02*
X176602381Y-69176190D01*
X176554762Y-69271429D01*
X176507143Y-69319048D01*
X176364286Y-69414286D01*
X176173810Y-69461905D01*
X175792857Y-69461905D01*
X175697619Y-69414286D01*
X175650000Y-69366667D01*
X175602381Y-69271429D01*
X175602381Y-69080952D01*
X175650000Y-68985714D01*
X175697619Y-68938095D01*
X175792857Y-68890476D01*
X176030952Y-68890476D01*
X176126190Y-68938095D01*
X176173810Y-68985714D01*
X176221429Y-69080952D01*
X176221429Y-69271429D01*
X176173810Y-69366667D01*
X176126190Y-69414286D01*
X176030952Y-69461905D01*
X135178571Y-54366667D02*
X135178571Y-54033333D01*
X135702381Y-54033333D02*
X134702381Y-54033333D01*
X134702381Y-54509524D01*
X135178571Y-55223810D02*
X135226190Y-55366667D01*
X135273810Y-55414286D01*
X135369048Y-55461905D01*
X135511905Y-55461905D01*
X135607143Y-55414286D01*
X135654762Y-55366667D01*
X135702381Y-55271429D01*
X135702381Y-54890476D01*
X134702381Y-54890476D01*
X134702381Y-55223810D01*
X134750000Y-55319048D01*
X134797619Y-55366667D01*
X134892857Y-55414286D01*
X134988095Y-55414286D01*
X135083333Y-55366667D01*
X135130952Y-55319048D01*
X135178571Y-55223810D01*
X135178571Y-54890476D01*
X135702381Y-56414286D02*
X135702381Y-55842857D01*
X135702381Y-56128571D02*
X134702381Y-56128571D01*
X134845238Y-56033333D01*
X134940476Y-55938095D01*
X134988095Y-55842857D01*
X148802381Y-66183334D02*
X148326190Y-65850000D01*
X148802381Y-65611905D02*
X147802381Y-65611905D01*
X147802381Y-65992858D01*
X147850000Y-66088096D01*
X147897619Y-66135715D01*
X147992857Y-66183334D01*
X148135714Y-66183334D01*
X148230952Y-66135715D01*
X148278571Y-66088096D01*
X148326190Y-65992858D01*
X148326190Y-65611905D01*
X148135714Y-67040477D02*
X148802381Y-67040477D01*
X147754762Y-66802381D02*
X148469048Y-66564286D01*
X148469048Y-67183334D01*
X146452381Y-47333334D02*
X145976190Y-47000000D01*
X146452381Y-46761905D02*
X145452381Y-46761905D01*
X145452381Y-47142858D01*
X145500000Y-47238096D01*
X145547619Y-47285715D01*
X145642857Y-47333334D01*
X145785714Y-47333334D01*
X145880952Y-47285715D01*
X145928571Y-47238096D01*
X145976190Y-47142858D01*
X145976190Y-46761905D01*
X145452381Y-48238096D02*
X145452381Y-47761905D01*
X145928571Y-47714286D01*
X145880952Y-47761905D01*
X145833333Y-47857143D01*
X145833333Y-48095239D01*
X145880952Y-48190477D01*
X145928571Y-48238096D01*
X146023810Y-48285715D01*
X146261905Y-48285715D01*
X146357143Y-48238096D01*
X146404762Y-48190477D01*
X146452381Y-48095239D01*
X146452381Y-47857143D01*
X146404762Y-47761905D01*
X146357143Y-47714286D01*
X140852381Y-46633334D02*
X140376190Y-46300000D01*
X140852381Y-46061905D02*
X139852381Y-46061905D01*
X139852381Y-46442858D01*
X139900000Y-46538096D01*
X139947619Y-46585715D01*
X140042857Y-46633334D01*
X140185714Y-46633334D01*
X140280952Y-46585715D01*
X140328571Y-46538096D01*
X140376190Y-46442858D01*
X140376190Y-46061905D01*
X139852381Y-47490477D02*
X139852381Y-47300000D01*
X139900000Y-47204762D01*
X139947619Y-47157143D01*
X140090476Y-47061905D01*
X140280952Y-47014286D01*
X140661905Y-47014286D01*
X140757143Y-47061905D01*
X140804762Y-47109524D01*
X140852381Y-47204762D01*
X140852381Y-47395239D01*
X140804762Y-47490477D01*
X140757143Y-47538096D01*
X140661905Y-47585715D01*
X140423810Y-47585715D01*
X140328571Y-47538096D01*
X140280952Y-47490477D01*
X140233333Y-47395239D01*
X140233333Y-47204762D01*
X140280952Y-47109524D01*
X140328571Y-47061905D01*
X140423810Y-47014286D01*
X153092857Y-66352381D02*
X153426191Y-65876190D01*
X153664286Y-66352381D02*
X153664286Y-65352381D01*
X153283333Y-65352381D01*
X153188095Y-65400000D01*
X153140476Y-65447619D01*
X153092857Y-65542857D01*
X153092857Y-65685714D01*
X153140476Y-65780952D01*
X153188095Y-65828571D01*
X153283333Y-65876190D01*
X153664286Y-65876190D01*
X152140476Y-66352381D02*
X152711905Y-66352381D01*
X152426191Y-66352381D02*
X152426191Y-65352381D01*
X152521429Y-65495238D01*
X152616667Y-65590476D01*
X152711905Y-65638095D01*
X151521429Y-65352381D02*
X151426190Y-65352381D01*
X151330952Y-65400000D01*
X151283333Y-65447619D01*
X151235714Y-65542857D01*
X151188095Y-65733333D01*
X151188095Y-65971429D01*
X151235714Y-66161905D01*
X151283333Y-66257143D01*
X151330952Y-66304762D01*
X151426190Y-66352381D01*
X151521429Y-66352381D01*
X151616667Y-66304762D01*
X151664286Y-66257143D01*
X151711905Y-66161905D01*
X151759524Y-65971429D01*
X151759524Y-65733333D01*
X151711905Y-65542857D01*
X151664286Y-65447619D01*
X151616667Y-65400000D01*
X151521429Y-65352381D01*
X151942857Y-62352381D02*
X152276191Y-61876190D01*
X152514286Y-62352381D02*
X152514286Y-61352381D01*
X152133333Y-61352381D01*
X152038095Y-61400000D01*
X151990476Y-61447619D01*
X151942857Y-61542857D01*
X151942857Y-61685714D01*
X151990476Y-61780952D01*
X152038095Y-61828571D01*
X152133333Y-61876190D01*
X152514286Y-61876190D01*
X150990476Y-62352381D02*
X151561905Y-62352381D01*
X151276191Y-62352381D02*
X151276191Y-61352381D01*
X151371429Y-61495238D01*
X151466667Y-61590476D01*
X151561905Y-61638095D01*
X150038095Y-62352381D02*
X150609524Y-62352381D01*
X150323810Y-62352381D02*
X150323810Y-61352381D01*
X150419048Y-61495238D01*
X150514286Y-61590476D01*
X150609524Y-61638095D01*
X159142857Y-62352381D02*
X159476191Y-61876190D01*
X159714286Y-62352381D02*
X159714286Y-61352381D01*
X159333333Y-61352381D01*
X159238095Y-61400000D01*
X159190476Y-61447619D01*
X159142857Y-61542857D01*
X159142857Y-61685714D01*
X159190476Y-61780952D01*
X159238095Y-61828571D01*
X159333333Y-61876190D01*
X159714286Y-61876190D01*
X158190476Y-62352381D02*
X158761905Y-62352381D01*
X158476191Y-62352381D02*
X158476191Y-61352381D01*
X158571429Y-61495238D01*
X158666667Y-61590476D01*
X158761905Y-61638095D01*
X157809524Y-61447619D02*
X157761905Y-61400000D01*
X157666667Y-61352381D01*
X157428571Y-61352381D01*
X157333333Y-61400000D01*
X157285714Y-61447619D01*
X157238095Y-61542857D01*
X157238095Y-61638095D01*
X157285714Y-61780952D01*
X157857143Y-62352381D01*
X157238095Y-62352381D01*
X155716666Y-70452381D02*
X156050000Y-69976190D01*
X156288095Y-70452381D02*
X156288095Y-69452381D01*
X155907142Y-69452381D01*
X155811904Y-69500000D01*
X155764285Y-69547619D01*
X155716666Y-69642857D01*
X155716666Y-69785714D01*
X155764285Y-69880952D01*
X155811904Y-69928571D01*
X155907142Y-69976190D01*
X156288095Y-69976190D01*
X154764285Y-70452381D02*
X155335714Y-70452381D01*
X155050000Y-70452381D02*
X155050000Y-69452381D01*
X155145238Y-69595238D01*
X155240476Y-69690476D01*
X155335714Y-69738095D01*
X182257143Y-44633334D02*
X182304762Y-44585715D01*
X182352381Y-44442858D01*
X182352381Y-44347620D01*
X182304762Y-44204762D01*
X182209524Y-44109524D01*
X182114286Y-44061905D01*
X181923810Y-44014286D01*
X181780952Y-44014286D01*
X181590476Y-44061905D01*
X181495238Y-44109524D01*
X181400000Y-44204762D01*
X181352381Y-44347620D01*
X181352381Y-44442858D01*
X181400000Y-44585715D01*
X181447619Y-44633334D01*
X181352381Y-44966667D02*
X181352381Y-45633334D01*
X182352381Y-45204762D01*
X179971429Y-37469048D02*
X179971429Y-38230953D01*
X180352381Y-37850001D02*
X179590476Y-37850001D01*
X173557143Y-40757143D02*
X173604762Y-40709524D01*
X173652381Y-40566667D01*
X173652381Y-40471429D01*
X173604762Y-40328571D01*
X173509524Y-40233333D01*
X173414286Y-40185714D01*
X173223810Y-40138095D01*
X173080952Y-40138095D01*
X172890476Y-40185714D01*
X172795238Y-40233333D01*
X172700000Y-40328571D01*
X172652381Y-40471429D01*
X172652381Y-40566667D01*
X172700000Y-40709524D01*
X172747619Y-40757143D01*
X172747619Y-41138095D02*
X172700000Y-41185714D01*
X172652381Y-41280952D01*
X172652381Y-41519048D01*
X172700000Y-41614286D01*
X172747619Y-41661905D01*
X172842857Y-41709524D01*
X172938095Y-41709524D01*
X173080952Y-41661905D01*
X173652381Y-41090476D01*
X173652381Y-41709524D01*
X172747619Y-42090476D02*
X172700000Y-42138095D01*
X172652381Y-42233333D01*
X172652381Y-42471429D01*
X172700000Y-42566667D01*
X172747619Y-42614286D01*
X172842857Y-42661905D01*
X172938095Y-42661905D01*
X173080952Y-42614286D01*
X173652381Y-42042857D01*
X173652381Y-42661905D01*
X167871429Y-46519048D02*
X167871429Y-47280953D01*
X168252381Y-46900001D02*
X167490476Y-46900001D01*
X177716666Y-63752381D02*
X178050000Y-63276190D01*
X178288095Y-63752381D02*
X178288095Y-62752381D01*
X177907142Y-62752381D01*
X177811904Y-62800000D01*
X177764285Y-62847619D01*
X177716666Y-62942857D01*
X177716666Y-63085714D01*
X177764285Y-63180952D01*
X177811904Y-63228571D01*
X177907142Y-63276190D01*
X178288095Y-63276190D01*
X177240476Y-63752381D02*
X177050000Y-63752381D01*
X176954761Y-63704762D01*
X176907142Y-63657143D01*
X176811904Y-63514286D01*
X176764285Y-63323810D01*
X176764285Y-62942857D01*
X176811904Y-62847619D01*
X176859523Y-62800000D01*
X176954761Y-62752381D01*
X177145238Y-62752381D01*
X177240476Y-62800000D01*
X177288095Y-62847619D01*
X177335714Y-62942857D01*
X177335714Y-63180952D01*
X177288095Y-63276190D01*
X177240476Y-63323810D01*
X177145238Y-63371429D01*
X176954761Y-63371429D01*
X176859523Y-63323810D01*
X176811904Y-63276190D01*
X176764285Y-63180952D01*
X176316666Y-46607143D02*
X176364285Y-46654762D01*
X176507142Y-46702381D01*
X176602380Y-46702381D01*
X176745238Y-46654762D01*
X176840476Y-46559524D01*
X176888095Y-46464286D01*
X176935714Y-46273810D01*
X176935714Y-46130952D01*
X176888095Y-45940476D01*
X176840476Y-45845238D01*
X176745238Y-45750000D01*
X176602380Y-45702381D01*
X176507142Y-45702381D01*
X176364285Y-45750000D01*
X176316666Y-45797619D01*
X175364285Y-46702381D02*
X175935714Y-46702381D01*
X175650000Y-46702381D02*
X175650000Y-45702381D01*
X175745238Y-45845238D01*
X175840476Y-45940476D01*
X175935714Y-45988095D01*
X167342857Y-70852381D02*
X167676191Y-70376190D01*
X167914286Y-70852381D02*
X167914286Y-69852381D01*
X167533333Y-69852381D01*
X167438095Y-69900000D01*
X167390476Y-69947619D01*
X167342857Y-70042857D01*
X167342857Y-70185714D01*
X167390476Y-70280952D01*
X167438095Y-70328571D01*
X167533333Y-70376190D01*
X167914286Y-70376190D01*
X166390476Y-70852381D02*
X166961905Y-70852381D01*
X166676191Y-70852381D02*
X166676191Y-69852381D01*
X166771429Y-69995238D01*
X166866667Y-70090476D01*
X166961905Y-70138095D01*
X165533333Y-70185714D02*
X165533333Y-70852381D01*
X165771429Y-69804762D02*
X166009524Y-70519048D01*
X165390476Y-70519048D01*
X150492857Y-72652381D02*
X150826191Y-72176190D01*
X151064286Y-72652381D02*
X151064286Y-71652381D01*
X150683333Y-71652381D01*
X150588095Y-71700000D01*
X150540476Y-71747619D01*
X150492857Y-71842857D01*
X150492857Y-71985714D01*
X150540476Y-72080952D01*
X150588095Y-72128571D01*
X150683333Y-72176190D01*
X151064286Y-72176190D01*
X149540476Y-72652381D02*
X150111905Y-72652381D01*
X149826191Y-72652381D02*
X149826191Y-71652381D01*
X149921429Y-71795238D01*
X150016667Y-71890476D01*
X150111905Y-71938095D01*
X148683333Y-71652381D02*
X148873810Y-71652381D01*
X148969048Y-71700000D01*
X149016667Y-71747619D01*
X149111905Y-71890476D01*
X149159524Y-72080952D01*
X149159524Y-72461905D01*
X149111905Y-72557143D01*
X149064286Y-72604762D01*
X148969048Y-72652381D01*
X148778571Y-72652381D01*
X148683333Y-72604762D01*
X148635714Y-72557143D01*
X148588095Y-72461905D01*
X148588095Y-72223810D01*
X148635714Y-72128571D01*
X148683333Y-72080952D01*
X148778571Y-72033333D01*
X148969048Y-72033333D01*
X149064286Y-72080952D01*
X149111905Y-72128571D01*
X149159524Y-72223810D01*
X150842857Y-75357143D02*
X150890476Y-75404762D01*
X151033333Y-75452381D01*
X151128571Y-75452381D01*
X151271429Y-75404762D01*
X151366667Y-75309524D01*
X151414286Y-75214286D01*
X151461905Y-75023810D01*
X151461905Y-74880952D01*
X151414286Y-74690476D01*
X151366667Y-74595238D01*
X151271429Y-74500000D01*
X151128571Y-74452381D01*
X151033333Y-74452381D01*
X150890476Y-74500000D01*
X150842857Y-74547619D01*
X150461905Y-74547619D02*
X150414286Y-74500000D01*
X150319048Y-74452381D01*
X150080952Y-74452381D01*
X149985714Y-74500000D01*
X149938095Y-74547619D01*
X149890476Y-74642857D01*
X149890476Y-74738095D01*
X149938095Y-74880952D01*
X150509524Y-75452381D01*
X149890476Y-75452381D01*
X149033333Y-74785714D02*
X149033333Y-75452381D01*
X149271429Y-74404762D02*
X149509524Y-75119048D01*
X148890476Y-75119048D01*
X172792857Y-70232143D02*
X172840476Y-70279762D01*
X172983333Y-70327381D01*
X173078571Y-70327381D01*
X173221429Y-70279762D01*
X173316667Y-70184524D01*
X173364286Y-70089286D01*
X173411905Y-69898810D01*
X173411905Y-69755952D01*
X173364286Y-69565476D01*
X173316667Y-69470238D01*
X173221429Y-69375000D01*
X173078571Y-69327381D01*
X172983333Y-69327381D01*
X172840476Y-69375000D01*
X172792857Y-69422619D01*
X172411905Y-69422619D02*
X172364286Y-69375000D01*
X172269048Y-69327381D01*
X172030952Y-69327381D01*
X171935714Y-69375000D01*
X171888095Y-69422619D01*
X171840476Y-69517857D01*
X171840476Y-69613095D01*
X171888095Y-69755952D01*
X172459524Y-70327381D01*
X171840476Y-70327381D01*
X170935714Y-69327381D02*
X171411905Y-69327381D01*
X171459524Y-69803571D01*
X171411905Y-69755952D01*
X171316667Y-69708333D01*
X171078571Y-69708333D01*
X170983333Y-69755952D01*
X170935714Y-69803571D01*
X170888095Y-69898810D01*
X170888095Y-70136905D01*
X170935714Y-70232143D01*
X170983333Y-70279762D01*
X171078571Y-70327381D01*
X171316667Y-70327381D01*
X171411905Y-70279762D01*
X171459524Y-70232143D01*
M02*
