%FSLAX46Y46*%
G04 Gerber Fmt 4.6, Leading zero omitted, Abs format (unit mm)*
G04 Created by KiCad (PCBNEW (2014-10-27 BZR 5228)-product) date 16/06/2015 16:22:24*
%MOMM*%
G01*
G04 APERTURE LIST*
%ADD10C,0.100000*%
%ADD11R,1.000000X1.250000*%
%ADD12R,1.250000X1.000000*%
%ADD13R,4.200000X0.700000*%
%ADD14R,1.397000X1.397000*%
%ADD15C,1.397000*%
%ADD16C,1.998980*%
%ADD17C,3.500000*%
%ADD18C,2.000000*%
%ADD19R,1.800000X1.800000*%
%ADD20C,1.800000*%
%ADD21C,2.540000*%
%ADD22C,1.727200*%
%ADD23R,1.550000X0.600000*%
%ADD24C,1.524000*%
%ADD25O,1.501140X2.499360*%
%ADD26R,1.500000X1.300000*%
%ADD27R,1.300000X1.500000*%
%ADD28R,1.198880X1.198880*%
%ADD29C,6.350000*%
%ADD30R,2.032000X2.032000*%
%ADD31O,2.032000X2.032000*%
%ADD32R,0.914400X0.914400*%
%ADD33R,0.599440X1.000760*%
%ADD34C,0.889000*%
%ADD35C,0.381000*%
%ADD36C,0.780000*%
%ADD37C,0.508000*%
%ADD38C,2.400000*%
%ADD39C,0.635000*%
%ADD40C,0.254000*%
%ADD41C,1.270000*%
%ADD42C,2.810000*%
%ADD43C,2.000000*%
%ADD44C,1.000000*%
%ADD45C,2.200000*%
G04 APERTURE END LIST*
D10*
D11*
X148950000Y-84200000D03*
X146950000Y-84200000D03*
X142650000Y-86000000D03*
X144650000Y-86000000D03*
D12*
X143700000Y-77350000D03*
X143700000Y-75350000D03*
X144950000Y-89850000D03*
X144950000Y-91850000D03*
X185000000Y-84750000D03*
X185000000Y-82750000D03*
X176175000Y-83125000D03*
X176175000Y-85125000D03*
D11*
X189600000Y-84500000D03*
X191600000Y-84500000D03*
X152600000Y-46450000D03*
X150600000Y-46450000D03*
D12*
X191600000Y-54200000D03*
X191600000Y-56200000D03*
D13*
X129500000Y-74500000D03*
X129500000Y-73500000D03*
X129500000Y-72500000D03*
X129500000Y-71500000D03*
X129500000Y-70500000D03*
X129500000Y-69500000D03*
X129500000Y-68500000D03*
X129500000Y-67500000D03*
X129500000Y-66500000D03*
X129500000Y-65500000D03*
X129500000Y-64500000D03*
X129500000Y-61500000D03*
X129500000Y-60500000D03*
X129500000Y-59500000D03*
X129500000Y-58500000D03*
X129500000Y-57500000D03*
X129500000Y-56500000D03*
X129500000Y-55500000D03*
D14*
X162560000Y-84455000D03*
D15*
X165100000Y-84455000D03*
X167640000Y-84455000D03*
X170180000Y-84455000D03*
X172720000Y-84455000D03*
X172720000Y-76835000D03*
X170180000Y-76835000D03*
X167640000Y-76835000D03*
X165100000Y-76835000D03*
X162560000Y-76835000D03*
D14*
X172339000Y-65913000D03*
D15*
X169799000Y-65913000D03*
X167259000Y-65913000D03*
X164719000Y-65913000D03*
X162179000Y-65913000D03*
X162179000Y-73533000D03*
X164719000Y-73533000D03*
X167259000Y-73533000D03*
X169799000Y-73533000D03*
X172339000Y-73533000D03*
D16*
X158792000Y-79796000D03*
X153204000Y-79796000D03*
X142592000Y-80596000D03*
X137004000Y-80596000D03*
X152546000Y-87108000D03*
X152546000Y-92696000D03*
X144908000Y-79804000D03*
X150496000Y-79804000D03*
X183717000Y-78946000D03*
X178129000Y-78946000D03*
X180604000Y-92792000D03*
X180604000Y-87204000D03*
X167396000Y-87208000D03*
X167396000Y-92796000D03*
X186508000Y-78904000D03*
X192096000Y-78904000D03*
D17*
X191800000Y-67600000D03*
X191800000Y-60000000D03*
D18*
X184000000Y-63800000D03*
D19*
X142200000Y-66800000D03*
D20*
X142200000Y-69300000D03*
X139200000Y-66800000D03*
X142200000Y-71800000D03*
X139200000Y-71800000D03*
X139200000Y-69300000D03*
D19*
X143500000Y-62000000D03*
D20*
X141000000Y-62000000D03*
X143500000Y-59000000D03*
X138500000Y-62000000D03*
X138500000Y-59000000D03*
X141000000Y-59000000D03*
D21*
X163461700Y-39199300D03*
D22*
X163461700Y-43199300D03*
D21*
X163461700Y-47199300D03*
D22*
X163461700Y-51199300D03*
D23*
X185501300Y-48234600D03*
X185501300Y-49504600D03*
X185501300Y-50774600D03*
X185501300Y-52044600D03*
X190901300Y-52044600D03*
X190901300Y-50774600D03*
X190901300Y-49504600D03*
X190901300Y-48234600D03*
D24*
X138600000Y-48460000D03*
X138600000Y-45920000D03*
X138600000Y-51000000D03*
D25*
X153893520Y-39451280D03*
X156433520Y-39451280D03*
X151353520Y-39451280D03*
D11*
X184200000Y-54800000D03*
X182200000Y-54800000D03*
D16*
X177599460Y-54600000D03*
X171000540Y-54600000D03*
D11*
X170300000Y-87000000D03*
X172300000Y-87000000D03*
D26*
X158200000Y-46400000D03*
X155500000Y-46400000D03*
D27*
X188400000Y-53950000D03*
X188400000Y-56650000D03*
D11*
X182300000Y-59800000D03*
X180300000Y-59800000D03*
D26*
X151350000Y-67150000D03*
X148650000Y-67150000D03*
D28*
X170899020Y-59550000D03*
X168800980Y-59550000D03*
X174100980Y-61750000D03*
X176199020Y-61750000D03*
X182750980Y-71200000D03*
X184849020Y-71200000D03*
D26*
X167950000Y-62500000D03*
X170650000Y-62500000D03*
X190350000Y-71200000D03*
X187650000Y-71200000D03*
D29*
X189700000Y-39500000D03*
X139100000Y-39500000D03*
X189700000Y-89900000D03*
X139100000Y-90000000D03*
D30*
X163950000Y-61950000D03*
D31*
X163950000Y-59410000D03*
D30*
X184300000Y-38200000D03*
D31*
X184300000Y-40740000D03*
D32*
X157211000Y-65684000D03*
X158989000Y-65684000D03*
X158100000Y-67716000D03*
X150484000Y-64939000D03*
X150484000Y-63161000D03*
X152516000Y-64050000D03*
D26*
X158250000Y-62900000D03*
X155550000Y-62900000D03*
D33*
X144750000Y-73049820D03*
X144750000Y-70850180D03*
D11*
X178200000Y-68200000D03*
X180200000Y-68200000D03*
X153025000Y-84275000D03*
X155025000Y-84275000D03*
X174600000Y-65150000D03*
X176600000Y-65150000D03*
D30*
X146200000Y-59400000D03*
D31*
X146200000Y-61940000D03*
D11*
X147900000Y-65000000D03*
X145900000Y-65000000D03*
D34*
X151925000Y-84875000D03*
X158850000Y-61350000D03*
X177950000Y-64050000D03*
X146200000Y-73100000D03*
X190200000Y-57400000D03*
X183200000Y-52000000D03*
X132700000Y-68500000D03*
X132700000Y-74500000D03*
X132600000Y-71500000D03*
X154450000Y-65550000D03*
X173550000Y-86950000D03*
X143150000Y-91900000D03*
X178750000Y-59800000D03*
X147700000Y-43100000D03*
X136000000Y-61400000D03*
X138800000Y-55200000D03*
X148400000Y-63400000D03*
X154975000Y-82625000D03*
X153875000Y-77850000D03*
X156200000Y-74200000D03*
X159600000Y-67950000D03*
X135050000Y-64300000D03*
X141025000Y-64525000D03*
X149050000Y-69700000D03*
X181150000Y-63000000D03*
X185500000Y-56600000D03*
X140000000Y-63575000D03*
X133700000Y-61050000D03*
X176150000Y-59950000D03*
X154450000Y-64400000D03*
X167950000Y-64325000D03*
X156300000Y-68750000D03*
D35*
X153025000Y-84275000D02*
X152525000Y-84275000D01*
X152525000Y-84275000D02*
X151925000Y-84875000D01*
D36*
X158250000Y-62900000D02*
X158250000Y-61950000D01*
X158250000Y-61950000D02*
X158850000Y-61350000D01*
D37*
X176600000Y-65150000D02*
X176850000Y-65150000D01*
X176850000Y-65150000D02*
X177950000Y-64050000D01*
D36*
X144750000Y-73049820D02*
X146149820Y-73049820D01*
X146149820Y-73049820D02*
X146200000Y-73100000D01*
D38*
X191800000Y-60000000D02*
X191800000Y-67600000D01*
D39*
X191600000Y-56200000D02*
X191400000Y-56200000D01*
X191400000Y-56200000D02*
X190200000Y-57400000D01*
X183200000Y-52000000D02*
X183400000Y-52000000D01*
X183244600Y-52044600D02*
X183200000Y-52000000D01*
X185501300Y-52044600D02*
X183244600Y-52044600D01*
X184200000Y-52800000D02*
X184200000Y-54800000D01*
X183400000Y-52000000D02*
X184200000Y-52800000D01*
X132600000Y-68500000D02*
X129500000Y-68500000D01*
X132700000Y-68400000D02*
X132600000Y-68500000D01*
X132700000Y-66000000D02*
X132700000Y-68400000D01*
X132200000Y-65500000D02*
X132700000Y-66000000D01*
X129500000Y-65500000D02*
X132200000Y-65500000D01*
X132700000Y-68500000D02*
X132600000Y-68500000D01*
X129500000Y-74500000D02*
X132700000Y-74500000D01*
D40*
X129500000Y-71500000D02*
X132600000Y-71500000D01*
D36*
X150484000Y-64939000D02*
X150789000Y-64939000D01*
X157077000Y-65550000D02*
X157211000Y-65684000D01*
X151400000Y-65550000D02*
X150789000Y-64939000D01*
X151400000Y-65550000D02*
X154450000Y-65550000D01*
X157077000Y-65550000D02*
X154450000Y-65550000D01*
X157211000Y-64089000D02*
X157211000Y-65684000D01*
X158250000Y-63050000D02*
X157211000Y-64089000D01*
X158250000Y-62900000D02*
X158250000Y-63050000D01*
D37*
X173500000Y-87000000D02*
X173550000Y-86950000D01*
X172300000Y-87000000D02*
X173500000Y-87000000D01*
D41*
X192150000Y-78958000D02*
X192096000Y-78904000D01*
X191600000Y-79400000D02*
X192096000Y-78904000D01*
D36*
X143700000Y-74099820D02*
X144750000Y-73049820D01*
X143700000Y-75350000D02*
X143700000Y-74099820D01*
X143200000Y-91850000D02*
X143150000Y-91900000D01*
X144950000Y-91850000D02*
X143200000Y-91850000D01*
D37*
X180300000Y-59800000D02*
X178750000Y-59800000D01*
X145800000Y-59000000D02*
X146200000Y-59400000D01*
X143500000Y-59000000D02*
X145800000Y-59000000D01*
D36*
X190350000Y-69050000D02*
X191800000Y-67600000D01*
X190350000Y-71200000D02*
X190350000Y-69050000D01*
D41*
X191600000Y-84500000D02*
X191600000Y-79400000D01*
D38*
X152704000Y-87100000D02*
X152496000Y-87308000D01*
D42*
X163700000Y-87100000D02*
X152704000Y-87100000D01*
D38*
X165100000Y-85700000D02*
X163700000Y-87100000D01*
X165100000Y-84455000D02*
X165100000Y-85700000D01*
D41*
X146858000Y-87308000D02*
X146850000Y-87300000D01*
X152496000Y-87308000D02*
X146858000Y-87308000D01*
X145550000Y-86000000D02*
X146858000Y-87308000D01*
X144650000Y-86000000D02*
X145550000Y-86000000D01*
X144950000Y-89216000D02*
X146858000Y-87308000D01*
X144950000Y-89850000D02*
X144950000Y-89216000D01*
X186508000Y-78904000D02*
X186508000Y-79358000D01*
X186508000Y-79358000D02*
X186750000Y-79600000D01*
X186750000Y-79600000D02*
X186750000Y-84750000D01*
D35*
X186750000Y-79146000D02*
X186508000Y-78904000D01*
D41*
X185000000Y-84750000D02*
X186750000Y-84750000D01*
X186750000Y-84750000D02*
X189350000Y-84750000D01*
X189350000Y-84750000D02*
X189600000Y-84500000D01*
X185000000Y-84750000D02*
X183058000Y-84750000D01*
X183058000Y-84750000D02*
X180604000Y-87204000D01*
D35*
X185250000Y-84500000D02*
X185000000Y-84750000D01*
X185000000Y-82750000D02*
X185000000Y-82675000D01*
D41*
X185000000Y-82675000D02*
X183717000Y-81392000D01*
X183717000Y-81392000D02*
X183717000Y-78946000D01*
D43*
X174300000Y-82500000D02*
X175550000Y-82500000D01*
X175550000Y-82500000D02*
X176175000Y-83125000D01*
D41*
X170180000Y-84455000D02*
X170180000Y-83720000D01*
D43*
X170180000Y-83720000D02*
X171400000Y-82500000D01*
D41*
X170180000Y-86880000D02*
X170300000Y-87000000D01*
D38*
X170180000Y-84455000D02*
X170180000Y-86880000D01*
D41*
X167604000Y-87000000D02*
X167396000Y-87208000D01*
D38*
X170300000Y-87000000D02*
X167604000Y-87000000D01*
D43*
X171400000Y-82500000D02*
X174300000Y-82500000D01*
X174300000Y-82500000D02*
X174350000Y-82500000D01*
D37*
X152600000Y-46450000D02*
X155450000Y-46450000D01*
D40*
X155450000Y-46450000D02*
X155500000Y-46400000D01*
D37*
X147700000Y-43100000D02*
X147700000Y-43550000D01*
X147700000Y-43550000D02*
X150600000Y-46450000D01*
D35*
X145800000Y-40000000D02*
X145800000Y-39900000D01*
X145800000Y-54300000D02*
X145800000Y-40000000D01*
X146100000Y-39600000D02*
X147200000Y-39600000D01*
X147200000Y-39600000D02*
X147700000Y-40100000D01*
X145800000Y-39900000D02*
X146100000Y-39600000D01*
X147700000Y-43100000D02*
X147700000Y-40100000D01*
X144100000Y-54800000D02*
X145500000Y-54800000D01*
X143700000Y-54800000D02*
X144100000Y-54800000D01*
X143600000Y-54800000D02*
X143400000Y-54600000D01*
X143400000Y-37400000D02*
X143400000Y-54600000D01*
X156433520Y-37733520D02*
X156433520Y-39451280D01*
X143800000Y-37000000D02*
X143400000Y-37400000D01*
X155700000Y-37000000D02*
X143800000Y-37000000D01*
X156433520Y-37733520D02*
X155700000Y-37000000D01*
X144100000Y-54800000D02*
X143600000Y-54800000D01*
X145650000Y-54800000D02*
X145800000Y-54650000D01*
X145800000Y-54650000D02*
X145800000Y-54300000D01*
X145500000Y-54800000D02*
X145650000Y-54800000D01*
D37*
X137200000Y-73500000D02*
X137800000Y-74100000D01*
X132900000Y-73500000D02*
X137000000Y-73500000D01*
X132900000Y-73500000D02*
X129500000Y-73500000D01*
X142200000Y-71800000D02*
X142200000Y-72900000D01*
X141000000Y-74100000D02*
X142200000Y-72900000D01*
X137800000Y-74100000D02*
X141000000Y-74100000D01*
X137000000Y-73500000D02*
X137200000Y-73500000D01*
X137850000Y-69600000D02*
X138250000Y-69200000D01*
X135800000Y-71650000D02*
X134950000Y-72500000D01*
X129500000Y-72500000D02*
X134950000Y-72500000D01*
X135800000Y-71650000D02*
X137850000Y-69600000D01*
X138250000Y-69200000D02*
X139100000Y-69200000D01*
X139100000Y-69200000D02*
X139200000Y-69300000D01*
X137000000Y-60600000D02*
X137000000Y-57200000D01*
X141000000Y-58050000D02*
X141000000Y-59000000D01*
X139900000Y-56950000D02*
X141000000Y-58050000D01*
X137250000Y-56950000D02*
X139900000Y-56950000D01*
X137000000Y-57200000D02*
X137250000Y-56950000D01*
X137000000Y-69200000D02*
X137000000Y-60600000D01*
X136250000Y-69850000D02*
X137000000Y-69100000D01*
X135600000Y-70500000D02*
X136250000Y-69850000D01*
X135600000Y-70500000D02*
X129500000Y-70500000D01*
X136100000Y-68600000D02*
X136100000Y-61500000D01*
X135600000Y-69100000D02*
X136100000Y-68600000D01*
X135200000Y-69500000D02*
X135600000Y-69100000D01*
X129500000Y-69500000D02*
X135200000Y-69500000D01*
X136100000Y-61500000D02*
X136000000Y-61400000D01*
X138800000Y-55200000D02*
X141300000Y-55200000D01*
X142500000Y-56400000D02*
X142800000Y-56400000D01*
X141300000Y-55200000D02*
X142500000Y-56400000D01*
X145000000Y-56400000D02*
X142800000Y-56400000D01*
X148400000Y-63400000D02*
X148400000Y-60350000D01*
D40*
X148400000Y-60350000D02*
X148400000Y-60300000D01*
D37*
X146500000Y-56400000D02*
X148400000Y-58300000D01*
X148400000Y-58300000D02*
X148400000Y-60350000D01*
X145000000Y-56400000D02*
X146500000Y-56400000D01*
D43*
X166950000Y-82100000D02*
X166850000Y-82100000D01*
X167640000Y-82790000D02*
X166950000Y-82100000D01*
D41*
X167640000Y-84455000D02*
X167640000Y-82790000D01*
D44*
X166450000Y-75175000D02*
X167259000Y-74366000D01*
X167259000Y-74366000D02*
X167259000Y-73533000D01*
X160700000Y-75175000D02*
X166450000Y-75175000D01*
D43*
X160600000Y-75275000D02*
X160700000Y-75175000D01*
X158700000Y-75275000D02*
X160600000Y-75275000D01*
X156100000Y-77875000D02*
X158700000Y-75275000D01*
X156100000Y-81025000D02*
X156100000Y-77875000D01*
X157550000Y-82475000D02*
X156100000Y-81025000D01*
X159675000Y-82475000D02*
X157550000Y-82475000D01*
X160200000Y-81950000D02*
X159675000Y-82475000D01*
X166700000Y-81950000D02*
X160200000Y-81950000D01*
X166850000Y-82100000D02*
X166700000Y-81950000D01*
D35*
X167259000Y-65913000D02*
X167259000Y-65059000D01*
X165260000Y-59410000D02*
X163950000Y-59410000D01*
X166100000Y-60250000D02*
X165260000Y-59410000D01*
X166100000Y-63900000D02*
X166100000Y-60250000D01*
X167259000Y-65059000D02*
X166100000Y-63900000D01*
D37*
X158200000Y-46400000D02*
X162662400Y-46400000D01*
X162662400Y-46400000D02*
X163461700Y-47199300D01*
D38*
X163461700Y-43199300D02*
X163461700Y-47199300D01*
X151353520Y-39451280D02*
X151353520Y-41353520D01*
X153199300Y-43199300D02*
X155499300Y-43199300D01*
X155499300Y-43199300D02*
X163461700Y-43199300D01*
X151353520Y-41353520D02*
X153199300Y-43199300D01*
D40*
X190901300Y-50774600D02*
X189225400Y-50774600D01*
X189095400Y-49504600D02*
X190901300Y-49504600D01*
X189000000Y-49600000D02*
X189095400Y-49504600D01*
X189000000Y-50549200D02*
X189000000Y-49600000D01*
X189225400Y-50774600D02*
X189000000Y-50549200D01*
D35*
X182200000Y-54800000D02*
X181800000Y-54800000D01*
D40*
X187400000Y-48400000D02*
X187234600Y-48234600D01*
X187400000Y-49209200D02*
X187400000Y-48400000D01*
X185501300Y-49504600D02*
X187104600Y-49504600D01*
X187234600Y-48234600D02*
X185501300Y-48234600D01*
X187104600Y-49504600D02*
X187400000Y-49209200D01*
X181800000Y-54400000D02*
X182200000Y-54800000D01*
D35*
X181800000Y-50600000D02*
X181800000Y-54400000D01*
X182895400Y-49504600D02*
X181800000Y-50600000D01*
X185501300Y-49504600D02*
X182895400Y-49504600D01*
X145500000Y-55600000D02*
X142950000Y-55600000D01*
X142950000Y-55600000D02*
X141050000Y-53700000D01*
X141050000Y-53700000D02*
X138600000Y-51000000D01*
X182200000Y-54800000D02*
X180100000Y-56900000D01*
X171800000Y-56900000D02*
X180100000Y-56900000D01*
X152100000Y-60700000D02*
X157350000Y-60700000D01*
X158050000Y-60350000D02*
X161500000Y-56900000D01*
X161500000Y-56900000D02*
X171800000Y-56900000D01*
X147000000Y-55600000D02*
X152100000Y-60700000D01*
X145500000Y-55600000D02*
X147000000Y-55600000D01*
X157700000Y-60700000D02*
X158050000Y-60350000D01*
X157350000Y-60700000D02*
X157700000Y-60700000D01*
X156200000Y-74200000D02*
X156200000Y-75525000D01*
X155025000Y-82675000D02*
X155025000Y-84275000D01*
X154975000Y-82625000D02*
X155025000Y-82675000D01*
X156200000Y-75525000D02*
X153875000Y-77850000D01*
X162560000Y-84455000D02*
X155205000Y-84455000D01*
X156175000Y-74225000D02*
X156200000Y-74200000D01*
D37*
X170899020Y-59550000D02*
X171850000Y-59550000D01*
X172339000Y-65913000D02*
X172637000Y-65913000D01*
X172637000Y-65913000D02*
X173400000Y-65150000D01*
X173400000Y-65150000D02*
X174600000Y-65150000D01*
D36*
X159600000Y-67950000D02*
X159650000Y-67900000D01*
X159650000Y-67900000D02*
X162400000Y-67900000D01*
X170352000Y-67900000D02*
X172339000Y-65913000D01*
X162400000Y-67900000D02*
X170352000Y-67900000D01*
D39*
X172339000Y-63800000D02*
X172339000Y-63739000D01*
D36*
X172339000Y-61139000D02*
X172339000Y-60039000D01*
X172339000Y-63739000D02*
X172339000Y-61139000D01*
D39*
X186800000Y-58300000D02*
X186900000Y-58300000D01*
X172339000Y-63639000D02*
X172339000Y-63800000D01*
D36*
X172339000Y-63800000D02*
X172339000Y-65913000D01*
D40*
X172313000Y-65913000D02*
X172339000Y-65913000D01*
D36*
X191600000Y-54200000D02*
X192800000Y-53000000D01*
X192800000Y-45598740D02*
X192100000Y-44898740D01*
X192800000Y-53000000D02*
X192800000Y-45598740D01*
D39*
X192100000Y-44898740D02*
X192401260Y-45200000D01*
X190901300Y-48234600D02*
X190901300Y-46498700D01*
X190901300Y-46498700D02*
X192200000Y-45200000D01*
X192200000Y-45200000D02*
X192401260Y-45200000D01*
X186800000Y-56800000D02*
X186800000Y-56750000D01*
D36*
X186800000Y-58300000D02*
X186800000Y-56800000D01*
D39*
X189050000Y-56650000D02*
X188400000Y-56650000D01*
D36*
X189900000Y-55800000D02*
X189050000Y-56650000D01*
X189900000Y-54200000D02*
X189900000Y-55800000D01*
X191600000Y-54200000D02*
X189900000Y-54200000D01*
D39*
X188250000Y-56800000D02*
X188400000Y-56650000D01*
D36*
X186800000Y-56800000D02*
X188250000Y-56800000D01*
D38*
X177599460Y-50900540D02*
X177599460Y-54600000D01*
X184300000Y-44200000D02*
X183800000Y-44700000D01*
X177599460Y-50900540D02*
X183800000Y-44700000D01*
X184300000Y-40740000D02*
X184300000Y-44200000D01*
D39*
X189998200Y-44898740D02*
X189899460Y-44800000D01*
D36*
X192100000Y-44898740D02*
X189998200Y-44898740D01*
X187300000Y-44800000D02*
X189899460Y-44800000D01*
X187300000Y-44800000D02*
X184900000Y-44800000D01*
D37*
X171850000Y-59550000D02*
X172339000Y-60039000D01*
D36*
X172339000Y-60039000D02*
X172339000Y-58561000D01*
X186150000Y-58300000D02*
X186800000Y-58300000D01*
X183000000Y-58300000D02*
X186150000Y-58300000D01*
X179550000Y-58300000D02*
X183000000Y-58300000D01*
X173200000Y-58300000D02*
X179550000Y-58300000D01*
X172600000Y-58300000D02*
X173200000Y-58300000D01*
X172339000Y-58561000D02*
X172600000Y-58300000D01*
D37*
X183000000Y-59100000D02*
X182300000Y-59800000D01*
X183000000Y-58300000D02*
X183000000Y-59100000D01*
D36*
X186800000Y-58300000D02*
X186800000Y-64900000D01*
X186200000Y-65500000D02*
X186800000Y-64900000D01*
X182750980Y-71200000D02*
X182750980Y-68899020D01*
X186150000Y-65500000D02*
X182750980Y-68899020D01*
X186150000Y-65500000D02*
X186200000Y-65500000D01*
D35*
X172950000Y-61750000D02*
X172339000Y-61139000D01*
X174100980Y-61750000D02*
X172950000Y-61750000D01*
D41*
X176175000Y-85125000D02*
X176175000Y-88363000D01*
X176175000Y-88363000D02*
X180604000Y-92792000D01*
D40*
X129500000Y-64500000D02*
X132500000Y-64500000D01*
X132950000Y-64500000D02*
X132500000Y-64500000D01*
X133150000Y-64500000D02*
X132950000Y-64500000D01*
X134850000Y-64500000D02*
X135050000Y-64300000D01*
X134550000Y-64500000D02*
X133000000Y-64500000D01*
X134550000Y-64500000D02*
X134850000Y-64500000D01*
X141025000Y-64525000D02*
X141500000Y-65000000D01*
X141500000Y-65000000D02*
X141750000Y-65000000D01*
X144050000Y-65000000D02*
X144050000Y-67050000D01*
X146700000Y-69700000D02*
X149050000Y-69700000D01*
X144050000Y-67050000D02*
X146700000Y-69700000D01*
X144050000Y-65000000D02*
X141750000Y-65000000D01*
X188250000Y-54100000D02*
X188400000Y-53950000D01*
X172339000Y-71661000D02*
X172339000Y-73533000D01*
X188400000Y-51600000D02*
X187574600Y-50774600D01*
X187574600Y-50774600D02*
X185501300Y-50774600D01*
X188400000Y-53950000D02*
X188400000Y-51600000D01*
X158100000Y-69550000D02*
X159550000Y-71000000D01*
X159550000Y-71000000D02*
X171678000Y-71000000D01*
X171678000Y-71000000D02*
X172339000Y-71661000D01*
X158100000Y-67716000D02*
X158100000Y-69550000D01*
X176050000Y-67950000D02*
X176100000Y-67950000D01*
X176100000Y-67950000D02*
X181050000Y-63000000D01*
X181050000Y-63000000D02*
X181150000Y-63000000D01*
X172339000Y-71661000D02*
X174975000Y-69025000D01*
X174975000Y-69025000D02*
X175100000Y-68900000D01*
X175100000Y-68900000D02*
X176050000Y-67950000D01*
X186800000Y-55300000D02*
X186800000Y-54100000D01*
X185500000Y-56600000D02*
X186800000Y-55300000D01*
X186800000Y-54100000D02*
X188250000Y-54100000D01*
X140000000Y-63575000D02*
X140075000Y-63650000D01*
X140075000Y-63650000D02*
X142125000Y-63650000D01*
X143850000Y-63950000D02*
X142425000Y-63950000D01*
X144650000Y-64750000D02*
X143850000Y-63950000D01*
X144650000Y-66800000D02*
X145000000Y-67150000D01*
X145000000Y-67150000D02*
X148650000Y-67150000D01*
X144650000Y-64750000D02*
X144650000Y-66800000D01*
X142425000Y-63950000D02*
X142125000Y-63650000D01*
X133700000Y-57500000D02*
X133600000Y-57500000D01*
X133700000Y-61050000D02*
X133700000Y-57500000D01*
X129500000Y-57500000D02*
X133600000Y-57500000D01*
X168300000Y-59550000D02*
X168800980Y-59550000D01*
D35*
X170650000Y-61500000D02*
X170050000Y-60900000D01*
X170050000Y-60900000D02*
X170050000Y-60799020D01*
X170050000Y-60799020D02*
X168800980Y-59550000D01*
X170650000Y-62500000D02*
X170650000Y-61500000D01*
X176199020Y-59999020D02*
X176150000Y-59950000D01*
X176199020Y-61750000D02*
X176199020Y-59999020D01*
D40*
X184849020Y-71200000D02*
X187650000Y-71200000D01*
X152516000Y-64050000D02*
X154100000Y-64050000D01*
X154100000Y-64050000D02*
X154450000Y-64400000D01*
X167950000Y-64325000D02*
X167950000Y-62500000D01*
X156300000Y-68750000D02*
X156450000Y-68600000D01*
X156450000Y-68600000D02*
X156450000Y-67200000D01*
X156450000Y-67200000D02*
X156900000Y-66750000D01*
X156900000Y-66750000D02*
X157923000Y-66750000D01*
X157923000Y-66750000D02*
X158989000Y-65684000D01*
X151750000Y-61900000D02*
X154550000Y-61900000D01*
X154550000Y-61900000D02*
X155550000Y-62900000D01*
X150489000Y-63161000D02*
X151750000Y-61900000D01*
X150484000Y-63161000D02*
X150489000Y-63161000D01*
X150900000Y-67150000D02*
X151350000Y-67150000D01*
X149889000Y-63161000D02*
X149200000Y-63850000D01*
X149200000Y-63850000D02*
X149200000Y-65450000D01*
X149200000Y-65450000D02*
X150900000Y-67150000D01*
X150484000Y-63161000D02*
X149889000Y-63161000D01*
D35*
X144750000Y-70850180D02*
X144750000Y-69550000D01*
X144750000Y-69550000D02*
X145050000Y-69250000D01*
D37*
X144100000Y-68700000D02*
X142200000Y-66800000D01*
X144500000Y-68700000D02*
X144100000Y-68700000D01*
X146600000Y-70800000D02*
X145050000Y-69250000D01*
X145050000Y-69250000D02*
X144500000Y-68700000D01*
X147800000Y-70800000D02*
X146600000Y-70800000D01*
X147800000Y-70800000D02*
X153250000Y-70800000D01*
X159400000Y-72050000D02*
X158150000Y-70800000D01*
X158150000Y-70800000D02*
X153250000Y-70800000D01*
X169799000Y-73533000D02*
X169799000Y-72499000D01*
X169799000Y-72499000D02*
X169350000Y-72050000D01*
X169350000Y-72050000D02*
X159400000Y-72050000D01*
D38*
X177330000Y-70450000D02*
X177330000Y-69070000D01*
D41*
X177330000Y-69070000D02*
X178200000Y-68200000D01*
X177330000Y-70270000D02*
X177330000Y-70450000D01*
X177350000Y-70450000D02*
X177330000Y-70450000D01*
D38*
X174000000Y-74950000D02*
X177330000Y-71620000D01*
X177330000Y-70450000D02*
X177330000Y-71620000D01*
D41*
X174000000Y-75200000D02*
X169000000Y-75200000D01*
X169000000Y-75200000D02*
X169000000Y-75475000D01*
X169000000Y-75475000D02*
X167640000Y-76835000D01*
X174000000Y-75200000D02*
X174000000Y-74950000D01*
X180200000Y-68200000D02*
X180200000Y-67600000D01*
X180900000Y-66900000D02*
X180200000Y-67600000D01*
D38*
X184000000Y-63800000D02*
X180900000Y-66900000D01*
D37*
X146200000Y-62550000D02*
X146200000Y-61940000D01*
X147900000Y-64250000D02*
X146200000Y-62550000D01*
X147900000Y-65000000D02*
X147900000Y-64250000D01*
X143550000Y-61950000D02*
X143500000Y-62000000D01*
X145900000Y-64400000D02*
X143500000Y-62000000D01*
X145900000Y-65000000D02*
X145900000Y-64400000D01*
D41*
X150500000Y-84200000D02*
X153204000Y-81496000D01*
X153204000Y-81496000D02*
X153204000Y-79796000D01*
X148950000Y-84200000D02*
X150500000Y-84200000D01*
X145850000Y-83100000D02*
X145775000Y-83100000D01*
X146950000Y-84200000D02*
X145850000Y-83100000D01*
X144908000Y-82233000D02*
X144908000Y-79804000D01*
X145775000Y-83100000D02*
X144908000Y-82233000D01*
X144908000Y-78558000D02*
X143700000Y-77350000D01*
X144908000Y-79804000D02*
X144908000Y-78558000D01*
X144116000Y-80596000D02*
X144908000Y-79804000D01*
X142592000Y-80596000D02*
X144116000Y-80596000D01*
X142650000Y-86000000D02*
X142500000Y-86000000D01*
X142500000Y-86000000D02*
X141300000Y-84800000D01*
X137096000Y-80596000D02*
X141300000Y-84800000D01*
D38*
X137004000Y-80596000D02*
X137096000Y-80596000D01*
X170800000Y-78500000D02*
X170925000Y-78500000D01*
D41*
X170180000Y-76835000D02*
X170180000Y-77880000D01*
D38*
X170180000Y-77880000D02*
X170800000Y-78500000D01*
X171900000Y-79475000D02*
X177600000Y-79475000D01*
X170925000Y-78500000D02*
X171900000Y-79475000D01*
X177600000Y-79475000D02*
X178129000Y-78946000D01*
D36*
X165075000Y-78325000D02*
X165075000Y-76860000D01*
X165075000Y-76860000D02*
X165100000Y-76835000D01*
D45*
X158792000Y-79796000D02*
X158904000Y-79796000D01*
X158904000Y-79796000D02*
X159350000Y-79350000D01*
X159350000Y-79350000D02*
X164050000Y-79350000D01*
X164050000Y-79350000D02*
X165075000Y-78325000D01*
X165075000Y-78325000D02*
X165100000Y-78300000D01*
M02*
