%FSLAX46Y46*%
G04 Gerber Fmt 4.6, Leading zero omitted, Abs format (unit mm)*
G04 Created by KiCad (PCBNEW (2014-10-27 BZR 5228)-product) date 27/07/2015 07:41:13*
%MOMM*%
G01*
G04 APERTURE LIST*
%ADD10C,0.100000*%
%ADD11R,1.250000X1.000000*%
%ADD12R,1.000000X1.250000*%
%ADD13R,1.397000X0.889000*%
%ADD14R,1.300000X1.500000*%
%ADD15R,1.500000X1.300000*%
%ADD16R,2.700020X4.000500*%
%ADD17R,1.800860X3.500120*%
G04 APERTURE END LIST*
D10*
D11*
X144600000Y-70500000D03*
X144600000Y-72500000D03*
X144750000Y-65350000D03*
X144750000Y-67350000D03*
X184300000Y-44150000D03*
X184300000Y-46150000D03*
X142000000Y-51600000D03*
X142000000Y-49600000D03*
X147600000Y-50600000D03*
X147600000Y-52600000D03*
D12*
X174600000Y-51600000D03*
X172600000Y-51600000D03*
X165650000Y-49550000D03*
X167650000Y-49550000D03*
X174600000Y-49000000D03*
X172600000Y-49000000D03*
X152400000Y-74250000D03*
X154400000Y-74250000D03*
D11*
X174600000Y-69300000D03*
X174600000Y-67300000D03*
D13*
X136800000Y-56252500D03*
X136800000Y-54347500D03*
D14*
X146750000Y-64950000D03*
X146750000Y-67650000D03*
X147600000Y-46050000D03*
X147600000Y-48750000D03*
X142000000Y-45450000D03*
X142000000Y-48150000D03*
D15*
X153750000Y-67400000D03*
X151050000Y-67400000D03*
X152650000Y-63500000D03*
X149950000Y-63500000D03*
X159850000Y-63200000D03*
X157150000Y-63200000D03*
X153800000Y-69700000D03*
X151100000Y-69700000D03*
D16*
X178900000Y-48788740D03*
X178900000Y-41011260D03*
D17*
X170200000Y-39800260D03*
X170200000Y-45799740D03*
D15*
X178800000Y-61700000D03*
X176100000Y-61700000D03*
D12*
X174600000Y-46250000D03*
X172600000Y-46250000D03*
D15*
X165250000Y-68800000D03*
X167950000Y-68800000D03*
X151950000Y-72200000D03*
X154650000Y-72200000D03*
D12*
X149300000Y-76800000D03*
X151300000Y-76800000D03*
X171775000Y-71350000D03*
X173775000Y-71350000D03*
M02*
