%FSLAX46Y46*%
G04 Gerber Fmt 4.6, Leading zero omitted, Abs format (unit mm)*
G04 Created by KiCad (PCBNEW (2014-10-27 BZR 5228)-product) date 16/06/2015 16:22:24*
%MOMM*%
G01*
G04 APERTURE LIST*
%ADD10C,0.100000*%
%ADD11R,1.250000X1.000000*%
%ADD12R,1.000000X1.250000*%
%ADD13R,4.200000X0.700000*%
%ADD14R,1.397000X1.397000*%
%ADD15C,1.397000*%
%ADD16C,1.998980*%
%ADD17C,3.500000*%
%ADD18C,2.000000*%
%ADD19R,1.800000X1.800000*%
%ADD20C,1.800000*%
%ADD21C,2.540000*%
%ADD22C,1.727200*%
%ADD23C,1.524000*%
%ADD24O,1.501140X2.499360*%
%ADD25R,1.397000X0.889000*%
%ADD26R,1.300000X1.500000*%
%ADD27R,1.500000X1.300000*%
%ADD28R,2.700020X4.000500*%
%ADD29R,1.800860X3.500120*%
%ADD30C,6.350000*%
%ADD31R,2.032000X2.032000*%
%ADD32O,2.032000X2.032000*%
%ADD33C,0.889000*%
%ADD34C,0.635000*%
%ADD35C,0.508000*%
%ADD36C,0.254000*%
%ADD37C,0.381000*%
%ADD38C,1.270000*%
%ADD39C,0.780000*%
%ADD40C,2.400000*%
G04 APERTURE END LIST*
D10*
D11*
X144600000Y-70500000D03*
X144600000Y-72500000D03*
X144750000Y-65350000D03*
X144750000Y-67350000D03*
X184300000Y-44150000D03*
X184300000Y-46150000D03*
X142000000Y-51600000D03*
X142000000Y-49600000D03*
X147600000Y-50600000D03*
X147600000Y-52600000D03*
D12*
X174600000Y-51600000D03*
X172600000Y-51600000D03*
X165650000Y-49550000D03*
X167650000Y-49550000D03*
X174600000Y-49000000D03*
X172600000Y-49000000D03*
D13*
X129500000Y-74500000D03*
X129500000Y-73500000D03*
X129500000Y-72500000D03*
X129500000Y-71500000D03*
X129500000Y-70500000D03*
X129500000Y-69500000D03*
X129500000Y-68500000D03*
X129500000Y-67500000D03*
X129500000Y-66500000D03*
X129500000Y-65500000D03*
X129500000Y-64500000D03*
X129500000Y-61500000D03*
X129500000Y-60500000D03*
X129500000Y-59500000D03*
X129500000Y-58500000D03*
X129500000Y-57500000D03*
X129500000Y-56500000D03*
X129500000Y-55500000D03*
D14*
X162560000Y-84455000D03*
D15*
X165100000Y-84455000D03*
X167640000Y-84455000D03*
X170180000Y-84455000D03*
X172720000Y-84455000D03*
X172720000Y-76835000D03*
X170180000Y-76835000D03*
X167640000Y-76835000D03*
X165100000Y-76835000D03*
X162560000Y-76835000D03*
D14*
X172339000Y-65913000D03*
D15*
X169799000Y-65913000D03*
X167259000Y-65913000D03*
X164719000Y-65913000D03*
X162179000Y-65913000D03*
X162179000Y-73533000D03*
X164719000Y-73533000D03*
X167259000Y-73533000D03*
X169799000Y-73533000D03*
X172339000Y-73533000D03*
D16*
X158792000Y-79796000D03*
X153204000Y-79796000D03*
X142592000Y-80596000D03*
X137004000Y-80596000D03*
X152546000Y-87108000D03*
X152546000Y-92696000D03*
X144908000Y-79804000D03*
X150496000Y-79804000D03*
X183717000Y-78946000D03*
X178129000Y-78946000D03*
X180604000Y-92792000D03*
X180604000Y-87204000D03*
X167396000Y-87208000D03*
X167396000Y-92796000D03*
X186508000Y-78904000D03*
X192096000Y-78904000D03*
D17*
X191800000Y-67600000D03*
X191800000Y-60000000D03*
D18*
X184000000Y-63800000D03*
D19*
X142200000Y-66800000D03*
D20*
X142200000Y-69300000D03*
X139200000Y-66800000D03*
X142200000Y-71800000D03*
X139200000Y-71800000D03*
X139200000Y-69300000D03*
D19*
X143500000Y-62000000D03*
D20*
X141000000Y-62000000D03*
X143500000Y-59000000D03*
X138500000Y-62000000D03*
X138500000Y-59000000D03*
X141000000Y-59000000D03*
D21*
X163461700Y-39199300D03*
D22*
X163461700Y-43199300D03*
D21*
X163461700Y-47199300D03*
D22*
X163461700Y-51199300D03*
D23*
X138600000Y-48460000D03*
X138600000Y-45920000D03*
X138600000Y-51000000D03*
D24*
X153893520Y-39451280D03*
X156433520Y-39451280D03*
X151353520Y-39451280D03*
D12*
X152400000Y-74250000D03*
X154400000Y-74250000D03*
D16*
X177599460Y-54600000D03*
X171000540Y-54600000D03*
D11*
X174600000Y-69300000D03*
X174600000Y-67300000D03*
D25*
X136800000Y-56252500D03*
X136800000Y-54347500D03*
D26*
X146750000Y-64950000D03*
X146750000Y-67650000D03*
X147600000Y-46050000D03*
X147600000Y-48750000D03*
X142000000Y-45450000D03*
X142000000Y-48150000D03*
D27*
X153750000Y-67400000D03*
X151050000Y-67400000D03*
X152650000Y-63500000D03*
X149950000Y-63500000D03*
X159850000Y-63200000D03*
X157150000Y-63200000D03*
X153800000Y-69700000D03*
X151100000Y-69700000D03*
D28*
X178900000Y-48788740D03*
X178900000Y-41011260D03*
D29*
X170200000Y-39800260D03*
X170200000Y-45799740D03*
D27*
X178800000Y-61700000D03*
X176100000Y-61700000D03*
D30*
X189700000Y-39500000D03*
X139100000Y-39500000D03*
X189700000Y-89900000D03*
X139100000Y-90000000D03*
D12*
X174600000Y-46250000D03*
X172600000Y-46250000D03*
D31*
X163950000Y-61950000D03*
D32*
X163950000Y-59410000D03*
D27*
X165250000Y-68800000D03*
X167950000Y-68800000D03*
D31*
X184300000Y-38200000D03*
D32*
X184300000Y-40740000D03*
D27*
X151950000Y-72200000D03*
X154650000Y-72200000D03*
D12*
X149300000Y-76800000D03*
X151300000Y-76800000D03*
X171775000Y-71350000D03*
X173775000Y-71350000D03*
D31*
X146200000Y-59400000D03*
D32*
X146200000Y-61940000D03*
D33*
X151925000Y-84875000D03*
X158850000Y-61350000D03*
X177950000Y-64050000D03*
X146200000Y-73100000D03*
X190200000Y-57400000D03*
X183200000Y-52000000D03*
X132700000Y-68500000D03*
X132700000Y-74500000D03*
X132600000Y-71500000D03*
X154450000Y-65550000D03*
X173550000Y-86950000D03*
X143150000Y-91900000D03*
X178750000Y-59800000D03*
X147700000Y-43100000D03*
X136000000Y-61400000D03*
X138800000Y-55200000D03*
X148400000Y-63400000D03*
X154975000Y-82625000D03*
X153875000Y-77850000D03*
X156200000Y-74200000D03*
X159600000Y-67950000D03*
X135050000Y-64300000D03*
X141025000Y-64525000D03*
X149050000Y-69700000D03*
X181150000Y-63000000D03*
X185500000Y-56600000D03*
X140000000Y-63575000D03*
X133700000Y-61050000D03*
X176150000Y-59950000D03*
X154450000Y-64400000D03*
X167950000Y-64325000D03*
X156300000Y-68750000D03*
D34*
X132300000Y-65500000D02*
X132700000Y-65900000D01*
X132700000Y-66500000D02*
X132700000Y-67300000D01*
X132700000Y-65900000D02*
X132700000Y-66500000D01*
X132700000Y-67300000D02*
X132500000Y-67500000D01*
X132500000Y-67500000D02*
X129500000Y-67500000D01*
X129500000Y-65500000D02*
X132300000Y-65500000D01*
X132400000Y-66500000D02*
X132700000Y-66500000D01*
X132700000Y-66500000D02*
X132400000Y-66500000D01*
X129500000Y-66500000D02*
X132700000Y-66500000D01*
X132700000Y-73600000D02*
X132600000Y-73500000D01*
X132600000Y-73500000D02*
X129500000Y-73500000D01*
X132700000Y-72400000D02*
X132700000Y-73600000D01*
X132700000Y-71400000D02*
X132700000Y-72400000D01*
X132700000Y-70500000D02*
X132700000Y-71400000D01*
X132700000Y-70000000D02*
X132700000Y-70500000D01*
X132700000Y-68500000D02*
X132700000Y-70000000D01*
X132700000Y-67300000D02*
X132700000Y-68500000D01*
X132700000Y-72500000D02*
X132600000Y-72400000D01*
X132600000Y-72400000D02*
X132700000Y-72400000D01*
X129500000Y-72500000D02*
X132700000Y-72500000D01*
X132500000Y-70500000D02*
X132700000Y-70500000D01*
X132700000Y-70500000D02*
X132500000Y-70500000D01*
X129500000Y-70500000D02*
X132700000Y-70500000D01*
X132200000Y-69500000D02*
X132700000Y-70000000D01*
X129500000Y-69500000D02*
X132200000Y-69500000D01*
X138700000Y-67300000D02*
X139200000Y-66800000D01*
X132700000Y-67300000D02*
X138700000Y-67300000D01*
X132700000Y-74500000D02*
X132600000Y-74400000D01*
X132600000Y-74400000D02*
X132600000Y-73500000D01*
X129500000Y-74500000D02*
X132700000Y-74500000D01*
X129500000Y-68500000D02*
X132700000Y-68500000D01*
X132700000Y-71500000D02*
X132600000Y-71400000D01*
X132600000Y-71400000D02*
X132500000Y-71400000D01*
X132500000Y-71400000D02*
X132700000Y-71400000D01*
X132600000Y-71500000D02*
X132700000Y-71500000D01*
X129500000Y-71500000D02*
X132600000Y-71500000D01*
D35*
X139200000Y-71800000D02*
X139700000Y-71800000D01*
X139700000Y-71800000D02*
X142200000Y-69300000D01*
X144600000Y-70100000D02*
X144600000Y-70500000D01*
X143800000Y-69300000D02*
X144600000Y-70100000D01*
X142200000Y-69300000D02*
X143800000Y-69300000D01*
X146350000Y-65350000D02*
X146750000Y-64950000D01*
D36*
X141000000Y-62000000D02*
X141000000Y-62400000D01*
D35*
X141000000Y-61500000D02*
X138500000Y-59000000D01*
D36*
X141000000Y-62000000D02*
X141000000Y-61500000D01*
D35*
X143600000Y-65000000D02*
X143950000Y-65350000D01*
X143950000Y-65350000D02*
X144750000Y-65350000D01*
X141000000Y-62400000D02*
X142400000Y-63800000D01*
X142400000Y-63800000D02*
X143600000Y-65000000D01*
X144750000Y-65350000D02*
X146350000Y-65350000D01*
D36*
X140340000Y-48460000D02*
X141050000Y-47750000D01*
X141050000Y-47750000D02*
X142000000Y-47750000D01*
X138600000Y-48460000D02*
X140340000Y-48460000D01*
X142000000Y-49600000D02*
X142000000Y-47750000D01*
D35*
X147600000Y-48350000D02*
X147600000Y-50600000D01*
X147600000Y-57900000D02*
X151750000Y-62050000D01*
X151750000Y-62100000D02*
X153000000Y-62100000D01*
X147600000Y-52600000D02*
X147600000Y-57900000D01*
X151750000Y-62050000D02*
X151750000Y-62100000D01*
D36*
X157150000Y-63600000D02*
X157550000Y-63200000D01*
D35*
X156450000Y-62100000D02*
X157550000Y-63200000D01*
X153000000Y-62100000D02*
X156450000Y-62100000D01*
X152650000Y-62450000D02*
X153000000Y-62100000D01*
X152650000Y-63500000D02*
X152650000Y-62450000D01*
D37*
X147700000Y-45950000D02*
X147700000Y-43100000D01*
X147700000Y-45950000D02*
X147600000Y-46050000D01*
D35*
X145850000Y-45850000D02*
X146450000Y-46450000D01*
X142000000Y-45850000D02*
X145850000Y-45850000D01*
X146450000Y-46450000D02*
X147600000Y-46450000D01*
X132500000Y-59500000D02*
X132400000Y-59600000D01*
X129500000Y-59500000D02*
X132500000Y-59500000D01*
X132200000Y-60500000D02*
X129500000Y-60500000D01*
X132400000Y-60300000D02*
X132200000Y-60500000D01*
X132400000Y-59600000D02*
X132400000Y-60300000D01*
X135600000Y-57452500D02*
X136800000Y-56252500D01*
X135600000Y-58600000D02*
X135600000Y-57452500D01*
X134700000Y-59500000D02*
X135600000Y-58600000D01*
X129500000Y-59500000D02*
X134700000Y-59500000D01*
X136600000Y-62000000D02*
X138500000Y-62000000D01*
X136000000Y-61400000D02*
X136600000Y-62000000D01*
X148400000Y-65850000D02*
X148400000Y-66000000D01*
X148400000Y-66000000D02*
X146750000Y-67650000D01*
X138800000Y-55200000D02*
X137947500Y-54347500D01*
X137947500Y-54347500D02*
X136800000Y-54347500D01*
D36*
X148400000Y-65900000D02*
X148400000Y-65850000D01*
D35*
X148400000Y-65850000D02*
X148400000Y-63400000D01*
D36*
X165350000Y-68200000D02*
X165350000Y-66544000D01*
X165350000Y-66544000D02*
X164719000Y-65913000D01*
D38*
X164719000Y-70681000D02*
X169419000Y-70681000D01*
X164719000Y-73533000D02*
X164719000Y-70681000D01*
X170800000Y-69300000D02*
X174600000Y-69300000D01*
X169419000Y-70681000D02*
X170800000Y-69300000D01*
D36*
X174100000Y-69800000D02*
X174600000Y-69300000D01*
D37*
X154975000Y-78950000D02*
X154975000Y-82625000D01*
X153875000Y-77850000D02*
X154975000Y-78950000D01*
D35*
X156200000Y-74200000D02*
X157025000Y-74200000D01*
X159600000Y-71625000D02*
X159600000Y-70900000D01*
X157025000Y-74200000D02*
X159600000Y-71625000D01*
D38*
X162490000Y-84525000D02*
X162560000Y-84455000D01*
D37*
X156200000Y-74200000D02*
X156150000Y-74250000D01*
X156150000Y-74250000D02*
X156100000Y-74250000D01*
D39*
X184300000Y-40740000D02*
X184300000Y-44150000D01*
D35*
X154400000Y-74250000D02*
X156100000Y-74250000D01*
D39*
X156100000Y-74250000D02*
X156150000Y-74250000D01*
D40*
X184300000Y-40740000D02*
X179171260Y-40740000D01*
X179171260Y-40740000D02*
X178900000Y-41011260D01*
D35*
X159600000Y-70900000D02*
X159600000Y-70200000D01*
X159600000Y-70200000D02*
X159600000Y-67950000D01*
D34*
X170050000Y-68150000D02*
X168600000Y-68150000D01*
X168600000Y-68150000D02*
X167950000Y-68800000D01*
X170000000Y-68200000D02*
X170050000Y-68150000D01*
X170050000Y-68150000D02*
X172287000Y-65913000D01*
X172287000Y-65913000D02*
X172339000Y-65913000D01*
D35*
X159600000Y-70900000D02*
X159600000Y-70800000D01*
D36*
X150300000Y-69700000D02*
X151100000Y-69700000D01*
X138025000Y-64325000D02*
X138100000Y-64325000D01*
X135075000Y-64325000D02*
X138025000Y-64325000D01*
X135050000Y-64300000D02*
X135075000Y-64325000D01*
X139250000Y-64325000D02*
X138550000Y-64325000D01*
X139300000Y-64325000D02*
X139250000Y-64325000D01*
X138550000Y-64325000D02*
X138025000Y-64325000D01*
X139575000Y-64325000D02*
X139775000Y-64525000D01*
X139775000Y-64525000D02*
X141025000Y-64525000D01*
X149050000Y-69700000D02*
X151100000Y-69700000D01*
X139250000Y-64325000D02*
X139575000Y-64325000D01*
D37*
X172339000Y-73533000D02*
X172339000Y-71914000D01*
X172339000Y-71914000D02*
X171775000Y-71350000D01*
D36*
X179200000Y-61300000D02*
X178800000Y-61700000D01*
X181100000Y-61300000D02*
X179200000Y-61300000D01*
X183750000Y-61300000D02*
X181100000Y-61300000D01*
X183800000Y-61300000D02*
X183750000Y-61300000D01*
X181150000Y-63000000D02*
X181100000Y-62950000D01*
X181100000Y-62950000D02*
X181100000Y-61300000D01*
X183850000Y-61300000D02*
X185500000Y-59650000D01*
X185500000Y-59650000D02*
X185500000Y-59400000D01*
X185500000Y-59400000D02*
X185500000Y-56600000D01*
X183750000Y-61300000D02*
X183850000Y-61300000D01*
X139875000Y-63450000D02*
X140000000Y-63575000D01*
X139625000Y-63450000D02*
X135200000Y-63450000D01*
X135200000Y-62550000D02*
X133700000Y-61050000D01*
X135200000Y-63450000D02*
X135200000Y-62550000D01*
X139625000Y-63450000D02*
X139875000Y-63450000D01*
D37*
X176150000Y-59950000D02*
X176100000Y-60000000D01*
X176100000Y-60000000D02*
X176100000Y-61700000D01*
D36*
X154100000Y-76800000D02*
X162525000Y-76800000D01*
X162525000Y-76800000D02*
X162560000Y-76835000D01*
X151300000Y-76800000D02*
X154100000Y-76800000D01*
X154100000Y-76800000D02*
X154125000Y-76775000D01*
X153425000Y-75300000D02*
X153425000Y-76075000D01*
X153425000Y-76075000D02*
X154125000Y-76775000D01*
X154450000Y-64400000D02*
X154125000Y-64400000D01*
X153425000Y-71650000D02*
X153425000Y-75300000D01*
X153425000Y-75300000D02*
X153425000Y-75350000D01*
X152400000Y-70625000D02*
X153425000Y-71650000D01*
X152400000Y-66125000D02*
X152400000Y-70625000D01*
X154125000Y-64400000D02*
X152400000Y-66125000D01*
X161575000Y-64400000D02*
X161650000Y-64400000D01*
X154450000Y-64400000D02*
X155525000Y-64400000D01*
X155525000Y-64400000D02*
X161575000Y-64400000D01*
X154450000Y-64400000D02*
X154500000Y-64450000D01*
X167875000Y-64400000D02*
X167950000Y-64325000D01*
X161575000Y-64400000D02*
X167875000Y-64400000D01*
D38*
X163461700Y-39199300D02*
X163599560Y-39199300D01*
D40*
X163599560Y-39199300D02*
X170200000Y-45799740D01*
D34*
X170749400Y-44850600D02*
X170800000Y-44800000D01*
X170749400Y-44850600D02*
X170800000Y-44800000D01*
D40*
X170200000Y-53799460D02*
X171000540Y-54600000D01*
X170200000Y-53100000D02*
X170200000Y-53799460D01*
X170200000Y-49600000D02*
X170200000Y-53100000D01*
X170200000Y-45799740D02*
X170200000Y-49600000D01*
D38*
X170200000Y-49550000D02*
X170150000Y-49600000D01*
X170150000Y-49600000D02*
X169750000Y-49600000D01*
X169750000Y-49600000D02*
X170200000Y-49600000D01*
X167650000Y-49550000D02*
X170200000Y-49550000D01*
X170800000Y-49000000D02*
X170200000Y-49600000D01*
X172600000Y-49000000D02*
X170800000Y-49000000D01*
X170650260Y-46250000D02*
X170200000Y-45799740D01*
X172600000Y-46250000D02*
X170650260Y-46250000D01*
X171700000Y-51600000D02*
X170200000Y-53100000D01*
X172600000Y-51600000D02*
X171700000Y-51600000D01*
X174600000Y-65150000D02*
X174600000Y-67300000D01*
X163461700Y-54011700D02*
X173200000Y-63750000D01*
X163461700Y-51199300D02*
X163461700Y-54011700D01*
X173200000Y-63750000D02*
X174600000Y-65150000D01*
D36*
X153800000Y-70950000D02*
X153800000Y-69700000D01*
X154650000Y-71800000D02*
X153800000Y-70950000D01*
X154650000Y-72200000D02*
X154650000Y-71800000D01*
X155350000Y-69700000D02*
X156300000Y-68750000D01*
X153800000Y-69700000D02*
X155350000Y-69700000D01*
X150750000Y-67100000D02*
X151050000Y-67400000D01*
D35*
X149850000Y-64450000D02*
X149850000Y-63600000D01*
X150750000Y-65350000D02*
X149850000Y-64450000D01*
X150750000Y-65350000D02*
X150750000Y-67100000D01*
X149950000Y-62500000D02*
X149950000Y-63500000D01*
X149400000Y-61950000D02*
X149950000Y-62500000D01*
X146350000Y-61950000D02*
X149400000Y-61950000D01*
D36*
G36*
X193715000Y-94015000D02*
X193068557Y-94015000D01*
X193068557Y-80056163D01*
X192096000Y-79083605D01*
X191916395Y-79263210D01*
X191916395Y-78904000D01*
X190943837Y-77931443D01*
X190677035Y-78030042D01*
X190450599Y-78639582D01*
X190474659Y-79289377D01*
X190677035Y-79777958D01*
X190943837Y-79876557D01*
X191916395Y-78904000D01*
X191916395Y-79263210D01*
X191123443Y-80056163D01*
X191222042Y-80322965D01*
X191831582Y-80549401D01*
X192481377Y-80525341D01*
X192969958Y-80322965D01*
X193068557Y-80056163D01*
X193068557Y-94015000D01*
X188142774Y-94015000D01*
X188142774Y-78580306D01*
X187894462Y-77979345D01*
X187435073Y-77519154D01*
X186834547Y-77269794D01*
X186579687Y-77269571D01*
X186579687Y-56386216D01*
X186415689Y-55989311D01*
X186135000Y-55708131D01*
X186135000Y-40740000D01*
X185995319Y-40037776D01*
X185753763Y-39676262D01*
X185854327Y-39575699D01*
X185951000Y-39342310D01*
X185951000Y-39089691D01*
X185951000Y-38485750D01*
X185951000Y-37914250D01*
X185951000Y-37310309D01*
X185951000Y-37057690D01*
X185854327Y-36824301D01*
X185675698Y-36645673D01*
X185442309Y-36549000D01*
X184585750Y-36549000D01*
X184427000Y-36707750D01*
X184427000Y-38073000D01*
X185792250Y-38073000D01*
X185951000Y-37914250D01*
X185951000Y-38485750D01*
X185792250Y-38327000D01*
X184427000Y-38327000D01*
X184427000Y-38347000D01*
X184173000Y-38347000D01*
X184173000Y-38327000D01*
X184173000Y-38073000D01*
X184173000Y-36707750D01*
X184014250Y-36549000D01*
X183157691Y-36549000D01*
X182924302Y-36645673D01*
X182745673Y-36824301D01*
X182649000Y-37057690D01*
X182649000Y-37310309D01*
X182649000Y-37914250D01*
X182807750Y-38073000D01*
X184173000Y-38073000D01*
X184173000Y-38327000D01*
X182807750Y-38327000D01*
X182649000Y-38485750D01*
X182649000Y-38905000D01*
X180885010Y-38905000D01*
X180885010Y-38884701D01*
X180788337Y-38651312D01*
X180609709Y-38472683D01*
X180376320Y-38376010D01*
X180123701Y-38376010D01*
X177423681Y-38376010D01*
X177190292Y-38472683D01*
X177011663Y-38651311D01*
X176914990Y-38884700D01*
X176914990Y-39137319D01*
X176914990Y-43137819D01*
X177011663Y-43371208D01*
X177190291Y-43549837D01*
X177423680Y-43646510D01*
X177676299Y-43646510D01*
X180376319Y-43646510D01*
X180609708Y-43549837D01*
X180788337Y-43371209D01*
X180885010Y-43137820D01*
X180885010Y-42885201D01*
X180885010Y-42575000D01*
X183275000Y-42575000D01*
X183275000Y-43151974D01*
X183136673Y-43290301D01*
X183040000Y-43523690D01*
X183040000Y-43776309D01*
X183040000Y-44776309D01*
X183136673Y-45009698D01*
X183276974Y-45150000D01*
X183136673Y-45290302D01*
X183040000Y-45523691D01*
X183040000Y-45864250D01*
X183198750Y-46023000D01*
X184173000Y-46023000D01*
X184173000Y-46003000D01*
X184427000Y-46003000D01*
X184427000Y-46023000D01*
X185401250Y-46023000D01*
X185560000Y-45864250D01*
X185560000Y-45523691D01*
X185463327Y-45290302D01*
X185323025Y-45149999D01*
X185463327Y-45009699D01*
X185560000Y-44776310D01*
X185560000Y-44523691D01*
X185560000Y-43523691D01*
X185463327Y-43290302D01*
X185325000Y-43151974D01*
X185325000Y-42219647D01*
X185597541Y-42037541D01*
X185995319Y-41442224D01*
X186135000Y-40740000D01*
X186135000Y-55708131D01*
X186112286Y-55685378D01*
X185715668Y-55520687D01*
X185560000Y-55520551D01*
X185560000Y-46776309D01*
X185560000Y-46435750D01*
X185401250Y-46277000D01*
X184427000Y-46277000D01*
X184427000Y-47126250D01*
X184585750Y-47285000D01*
X184798691Y-47285000D01*
X185051310Y-47285000D01*
X185284699Y-47188327D01*
X185463327Y-47009698D01*
X185560000Y-46776309D01*
X185560000Y-55520551D01*
X185286216Y-55520313D01*
X184889311Y-55684311D01*
X184585378Y-55987714D01*
X184420687Y-56384332D01*
X184420313Y-56813784D01*
X184584311Y-57210689D01*
X184738000Y-57364646D01*
X184738000Y-59334369D01*
X184173000Y-59899369D01*
X184173000Y-47126250D01*
X184173000Y-46277000D01*
X183198750Y-46277000D01*
X183040000Y-46435750D01*
X183040000Y-46776309D01*
X183136673Y-47009698D01*
X183315301Y-47188327D01*
X183548690Y-47285000D01*
X183801309Y-47285000D01*
X184014250Y-47285000D01*
X184173000Y-47126250D01*
X184173000Y-59899369D01*
X183534369Y-60538000D01*
X181100000Y-60538000D01*
X180885010Y-60538000D01*
X180885010Y-50915299D01*
X180885010Y-49074490D01*
X180885010Y-48502990D01*
X180885010Y-46662181D01*
X180788337Y-46428792D01*
X180609709Y-46250163D01*
X180376320Y-46153490D01*
X180123701Y-46153490D01*
X179185750Y-46153490D01*
X179027000Y-46312240D01*
X179027000Y-48661740D01*
X180726260Y-48661740D01*
X180885010Y-48502990D01*
X180885010Y-49074490D01*
X180726260Y-48915740D01*
X179027000Y-48915740D01*
X179027000Y-51265240D01*
X179185750Y-51423990D01*
X180123701Y-51423990D01*
X180376320Y-51423990D01*
X180609709Y-51327317D01*
X180788337Y-51148688D01*
X180885010Y-50915299D01*
X180885010Y-60538000D01*
X179936025Y-60538000D01*
X179909699Y-60511673D01*
X179676310Y-60415000D01*
X179423691Y-60415000D01*
X179234234Y-60415000D01*
X179234234Y-54276306D01*
X178985922Y-53675345D01*
X178773000Y-53462051D01*
X178773000Y-51265240D01*
X178773000Y-48915740D01*
X178773000Y-48661740D01*
X178773000Y-46312240D01*
X178614250Y-46153490D01*
X177676299Y-46153490D01*
X177423680Y-46153490D01*
X177190291Y-46250163D01*
X177011663Y-46428792D01*
X176914990Y-46662181D01*
X176914990Y-48502990D01*
X177073740Y-48661740D01*
X178773000Y-48661740D01*
X178773000Y-48915740D01*
X177073740Y-48915740D01*
X176914990Y-49074490D01*
X176914990Y-50915299D01*
X177011663Y-51148688D01*
X177190291Y-51327317D01*
X177423680Y-51423990D01*
X177676299Y-51423990D01*
X178614250Y-51423990D01*
X178773000Y-51265240D01*
X178773000Y-53462051D01*
X178526533Y-53215154D01*
X177926007Y-52965794D01*
X177275766Y-52965226D01*
X176674805Y-53213538D01*
X176214614Y-53672927D01*
X175965254Y-54273453D01*
X175964686Y-54923694D01*
X176212998Y-55524655D01*
X176672387Y-55984846D01*
X177272913Y-56234206D01*
X177923154Y-56234774D01*
X178524115Y-55986462D01*
X178984306Y-55527073D01*
X179233666Y-54926547D01*
X179234234Y-54276306D01*
X179234234Y-60415000D01*
X177923691Y-60415000D01*
X177690302Y-60511673D01*
X177511673Y-60690301D01*
X177449999Y-60839193D01*
X177388327Y-60690302D01*
X177209699Y-60511673D01*
X177103845Y-60467826D01*
X177229313Y-60165668D01*
X177229687Y-59736216D01*
X177065689Y-59339311D01*
X176762286Y-59035378D01*
X176365668Y-58870687D01*
X175936216Y-58870313D01*
X175735000Y-58953453D01*
X175735000Y-52351310D01*
X175735000Y-52098691D01*
X175735000Y-51885750D01*
X175735000Y-51314250D01*
X175735000Y-51101309D01*
X175735000Y-50848690D01*
X175735000Y-49751310D01*
X175735000Y-49498691D01*
X175735000Y-49285750D01*
X175735000Y-48714250D01*
X175735000Y-48501309D01*
X175735000Y-48248690D01*
X175735000Y-47001310D01*
X175735000Y-46748691D01*
X175735000Y-46535750D01*
X175735000Y-45964250D01*
X175735000Y-45751309D01*
X175735000Y-45498690D01*
X175638327Y-45265301D01*
X175459698Y-45086673D01*
X175226309Y-44990000D01*
X174885750Y-44990000D01*
X174727000Y-45148750D01*
X174727000Y-46123000D01*
X175576250Y-46123000D01*
X175735000Y-45964250D01*
X175735000Y-46535750D01*
X175576250Y-46377000D01*
X174727000Y-46377000D01*
X174727000Y-47351250D01*
X174885750Y-47510000D01*
X175226309Y-47510000D01*
X175459698Y-47413327D01*
X175638327Y-47234699D01*
X175735000Y-47001310D01*
X175735000Y-48248690D01*
X175638327Y-48015301D01*
X175459698Y-47836673D01*
X175226309Y-47740000D01*
X174885750Y-47740000D01*
X174727000Y-47898750D01*
X174727000Y-48873000D01*
X175576250Y-48873000D01*
X175735000Y-48714250D01*
X175735000Y-49285750D01*
X175576250Y-49127000D01*
X174727000Y-49127000D01*
X174727000Y-50101250D01*
X174885750Y-50260000D01*
X175226309Y-50260000D01*
X175459698Y-50163327D01*
X175638327Y-49984699D01*
X175735000Y-49751310D01*
X175735000Y-50848690D01*
X175638327Y-50615301D01*
X175459698Y-50436673D01*
X175226309Y-50340000D01*
X174885750Y-50340000D01*
X174727000Y-50498750D01*
X174727000Y-51473000D01*
X175576250Y-51473000D01*
X175735000Y-51314250D01*
X175735000Y-51885750D01*
X175576250Y-51727000D01*
X174727000Y-51727000D01*
X174727000Y-52701250D01*
X174885750Y-52860000D01*
X175226309Y-52860000D01*
X175459698Y-52763327D01*
X175638327Y-52584699D01*
X175735000Y-52351310D01*
X175735000Y-58953453D01*
X175539311Y-59034311D01*
X175235378Y-59337714D01*
X175070687Y-59734332D01*
X175070313Y-60163784D01*
X175181358Y-60432534D01*
X174990302Y-60511673D01*
X174811673Y-60690301D01*
X174715000Y-60923690D01*
X174715000Y-61176309D01*
X174715000Y-62476309D01*
X174811673Y-62709698D01*
X174990301Y-62888327D01*
X175223690Y-62985000D01*
X175476309Y-62985000D01*
X176976309Y-62985000D01*
X177209698Y-62888327D01*
X177388327Y-62709699D01*
X177450000Y-62560806D01*
X177511673Y-62709698D01*
X177690301Y-62888327D01*
X177923690Y-62985000D01*
X178176309Y-62985000D01*
X179676309Y-62985000D01*
X179909698Y-62888327D01*
X180088327Y-62709699D01*
X180185000Y-62476310D01*
X180185000Y-62223691D01*
X180185000Y-62062000D01*
X180338000Y-62062000D01*
X180338000Y-62285270D01*
X180235378Y-62387714D01*
X180070687Y-62784332D01*
X180070313Y-63213784D01*
X180234311Y-63610689D01*
X180537714Y-63914622D01*
X180934332Y-64079313D01*
X181363784Y-64079687D01*
X181760689Y-63915689D01*
X182064622Y-63612286D01*
X182229313Y-63215668D01*
X182229687Y-62786216D01*
X182065689Y-62389311D01*
X181862000Y-62185266D01*
X181862000Y-62062000D01*
X183750000Y-62062000D01*
X183800000Y-62062000D01*
X183850000Y-62062000D01*
X183850000Y-62061999D01*
X184141604Y-62003996D01*
X184141605Y-62003996D01*
X184388815Y-61838815D01*
X186038815Y-60188816D01*
X186038815Y-60188815D01*
X186203996Y-59941605D01*
X186261999Y-59650000D01*
X186262000Y-59650000D01*
X186262000Y-59400000D01*
X186262000Y-57364641D01*
X186414622Y-57212286D01*
X186579313Y-56815668D01*
X186579687Y-56386216D01*
X186579687Y-77269571D01*
X186184306Y-77269226D01*
X185635284Y-77496077D01*
X185635284Y-63476205D01*
X185386894Y-62875057D01*
X184927363Y-62414722D01*
X184326648Y-62165284D01*
X183676205Y-62164716D01*
X183075057Y-62413106D01*
X182614722Y-62872637D01*
X182365284Y-63473352D01*
X182364716Y-64123795D01*
X182613106Y-64724943D01*
X183072637Y-65185278D01*
X183673352Y-65434716D01*
X184323795Y-65435284D01*
X184924943Y-65186894D01*
X185385278Y-64727363D01*
X185634716Y-64126648D01*
X185635284Y-63476205D01*
X185635284Y-77496077D01*
X185583345Y-77517538D01*
X185123154Y-77976927D01*
X185104084Y-78022851D01*
X185103462Y-78021345D01*
X184644073Y-77561154D01*
X184043547Y-77311794D01*
X183393306Y-77311226D01*
X182792345Y-77559538D01*
X182332154Y-78018927D01*
X182082794Y-78619453D01*
X182082226Y-79269694D01*
X182330538Y-79870655D01*
X182789927Y-80330846D01*
X183390453Y-80580206D01*
X184040694Y-80580774D01*
X184641655Y-80332462D01*
X185101846Y-79873073D01*
X185120915Y-79827148D01*
X185121538Y-79828655D01*
X185580927Y-80288846D01*
X186181453Y-80538206D01*
X186831694Y-80538774D01*
X187432655Y-80290462D01*
X187892846Y-79831073D01*
X188142206Y-79230547D01*
X188142774Y-78580306D01*
X188142774Y-94015000D01*
X181692402Y-94015000D01*
X181988846Y-93719073D01*
X182238206Y-93118547D01*
X182238774Y-92468306D01*
X182238774Y-86880306D01*
X181990462Y-86279345D01*
X181531073Y-85819154D01*
X180930547Y-85569794D01*
X180280306Y-85569226D01*
X179763774Y-85782652D01*
X179763774Y-78622306D01*
X179515462Y-78021345D01*
X179056073Y-77561154D01*
X178455547Y-77311794D01*
X177805306Y-77311226D01*
X177204345Y-77559538D01*
X176744154Y-78018927D01*
X176494794Y-78619453D01*
X176494226Y-79269694D01*
X176742538Y-79870655D01*
X177201927Y-80330846D01*
X177802453Y-80580206D01*
X178452694Y-80580774D01*
X179053655Y-80332462D01*
X179513846Y-79873073D01*
X179763206Y-79272547D01*
X179763774Y-78622306D01*
X179763774Y-85782652D01*
X179679345Y-85817538D01*
X179219154Y-86276927D01*
X178969794Y-86877453D01*
X178969226Y-87527694D01*
X179217538Y-88128655D01*
X179676927Y-88588846D01*
X180277453Y-88838206D01*
X180927694Y-88838774D01*
X181528655Y-88590462D01*
X181988846Y-88131073D01*
X182238206Y-87530547D01*
X182238774Y-86880306D01*
X182238774Y-92468306D01*
X181990462Y-91867345D01*
X181531073Y-91407154D01*
X180930547Y-91157794D01*
X180280306Y-91157226D01*
X179679345Y-91405538D01*
X179219154Y-91864927D01*
X178969794Y-92465453D01*
X178969226Y-93115694D01*
X179217538Y-93716655D01*
X179515363Y-94015000D01*
X174910000Y-94015000D01*
X174910000Y-72101310D01*
X174910000Y-71848691D01*
X174910000Y-71635750D01*
X174751250Y-71477000D01*
X173902000Y-71477000D01*
X173902000Y-72451250D01*
X174060750Y-72610000D01*
X174401309Y-72610000D01*
X174634698Y-72513327D01*
X174813327Y-72334699D01*
X174910000Y-72101310D01*
X174910000Y-94015000D01*
X174053731Y-94015000D01*
X174053731Y-84190914D01*
X173851146Y-83700620D01*
X173476353Y-83325173D01*
X172986413Y-83121732D01*
X172455914Y-83121269D01*
X171965620Y-83323854D01*
X171590173Y-83698647D01*
X171449906Y-84036446D01*
X171311146Y-83700620D01*
X170936353Y-83325173D01*
X170446413Y-83121732D01*
X169915914Y-83121269D01*
X169425620Y-83323854D01*
X169050173Y-83698647D01*
X168909906Y-84036446D01*
X168771146Y-83700620D01*
X168396353Y-83325173D01*
X167906413Y-83121732D01*
X167375914Y-83121269D01*
X166885620Y-83323854D01*
X166510173Y-83698647D01*
X166369906Y-84036446D01*
X166231146Y-83700620D01*
X165856353Y-83325173D01*
X165366413Y-83121732D01*
X164835914Y-83121269D01*
X164345620Y-83323854D01*
X163970173Y-83698647D01*
X163893500Y-83883295D01*
X163893500Y-83630191D01*
X163796827Y-83396802D01*
X163618199Y-83218173D01*
X163384810Y-83121500D01*
X163132191Y-83121500D01*
X161735191Y-83121500D01*
X161501802Y-83218173D01*
X161323173Y-83396801D01*
X161226500Y-83630190D01*
X161226500Y-83882809D01*
X161226500Y-84492317D01*
X161219999Y-84525000D01*
X161226500Y-84557682D01*
X161226500Y-85279809D01*
X161323173Y-85513198D01*
X161501801Y-85691827D01*
X161735190Y-85788500D01*
X161987809Y-85788500D01*
X162457317Y-85788500D01*
X162490000Y-85795001D01*
X162522682Y-85788500D01*
X163384809Y-85788500D01*
X163618198Y-85691827D01*
X163796827Y-85513199D01*
X163893500Y-85279810D01*
X163893500Y-85027191D01*
X163893500Y-85027009D01*
X163968854Y-85209380D01*
X164343647Y-85584827D01*
X164833587Y-85788268D01*
X165364086Y-85788731D01*
X165854380Y-85586146D01*
X166229827Y-85211353D01*
X166370093Y-84873553D01*
X166508854Y-85209380D01*
X166883647Y-85584827D01*
X166963740Y-85618084D01*
X166471345Y-85821538D01*
X166011154Y-86280927D01*
X165761794Y-86881453D01*
X165761226Y-87531694D01*
X166009538Y-88132655D01*
X166468927Y-88592846D01*
X167069453Y-88842206D01*
X167719694Y-88842774D01*
X168320655Y-88594462D01*
X168780846Y-88135073D01*
X169030206Y-87534547D01*
X169030774Y-86884306D01*
X168782462Y-86283345D01*
X168323073Y-85823154D01*
X168072544Y-85719125D01*
X168394380Y-85586146D01*
X168769827Y-85211353D01*
X168910093Y-84873553D01*
X169048854Y-85209380D01*
X169423647Y-85584827D01*
X169913587Y-85788268D01*
X170444086Y-85788731D01*
X170934380Y-85586146D01*
X171309827Y-85211353D01*
X171450093Y-84873553D01*
X171588854Y-85209380D01*
X171963647Y-85584827D01*
X172453587Y-85788268D01*
X172984086Y-85788731D01*
X173474380Y-85586146D01*
X173849827Y-85211353D01*
X174053268Y-84721413D01*
X174053731Y-84190914D01*
X174053731Y-94015000D01*
X169041401Y-94015000D01*
X169041401Y-93060418D01*
X169017341Y-92410623D01*
X168814965Y-91922042D01*
X168548163Y-91823443D01*
X168368557Y-92003048D01*
X168368557Y-91643837D01*
X168269958Y-91377035D01*
X167660418Y-91150599D01*
X167010623Y-91174659D01*
X166522042Y-91377035D01*
X166423443Y-91643837D01*
X167396000Y-92616395D01*
X168368557Y-91643837D01*
X168368557Y-92003048D01*
X167575605Y-92796000D01*
X168548163Y-93768557D01*
X168814965Y-93669958D01*
X169041401Y-93060418D01*
X169041401Y-94015000D01*
X168343856Y-94015000D01*
X168368557Y-93948163D01*
X167396000Y-92975605D01*
X167216395Y-93155210D01*
X167216395Y-92796000D01*
X166243837Y-91823443D01*
X165977035Y-91922042D01*
X165750599Y-92531582D01*
X165774659Y-93181377D01*
X165977035Y-93669958D01*
X166243837Y-93768557D01*
X167216395Y-92796000D01*
X167216395Y-93155210D01*
X166423443Y-93948163D01*
X166448143Y-94015000D01*
X160426774Y-94015000D01*
X160426774Y-79472306D01*
X160178462Y-78871345D01*
X159719073Y-78411154D01*
X159118547Y-78161794D01*
X158468306Y-78161226D01*
X157867345Y-78409538D01*
X157407154Y-78868927D01*
X157157794Y-79469453D01*
X157157226Y-80119694D01*
X157405538Y-80720655D01*
X157864927Y-81180846D01*
X158465453Y-81430206D01*
X159115694Y-81430774D01*
X159716655Y-81182462D01*
X160176846Y-80723073D01*
X160426206Y-80122547D01*
X160426774Y-79472306D01*
X160426774Y-94015000D01*
X154191401Y-94015000D01*
X154191401Y-92960418D01*
X154180774Y-92673411D01*
X154180774Y-86784306D01*
X153932462Y-86183345D01*
X153473073Y-85723154D01*
X152872547Y-85473794D01*
X152222306Y-85473226D01*
X151621345Y-85721538D01*
X151468557Y-85874059D01*
X151468557Y-80956163D01*
X150496000Y-79983605D01*
X150316395Y-80163210D01*
X150316395Y-79804000D01*
X149343837Y-78831443D01*
X149173000Y-78894577D01*
X149173000Y-77901250D01*
X149173000Y-76927000D01*
X149173000Y-76673000D01*
X149173000Y-75698750D01*
X149014250Y-75540000D01*
X148673691Y-75540000D01*
X148440302Y-75636673D01*
X148261673Y-75815301D01*
X148165000Y-76048690D01*
X148165000Y-76301309D01*
X148165000Y-76514250D01*
X148323750Y-76673000D01*
X149173000Y-76673000D01*
X149173000Y-76927000D01*
X148323750Y-76927000D01*
X148165000Y-77085750D01*
X148165000Y-77298691D01*
X148165000Y-77551310D01*
X148261673Y-77784699D01*
X148440302Y-77963327D01*
X148673691Y-78060000D01*
X149014250Y-78060000D01*
X149173000Y-77901250D01*
X149173000Y-78894577D01*
X149077035Y-78930042D01*
X148850599Y-79539582D01*
X148874659Y-80189377D01*
X149077035Y-80677958D01*
X149343837Y-80776557D01*
X150316395Y-79804000D01*
X150316395Y-80163210D01*
X149523443Y-80956163D01*
X149622042Y-81222965D01*
X150231582Y-81449401D01*
X150881377Y-81425341D01*
X151369958Y-81222965D01*
X151468557Y-80956163D01*
X151468557Y-85874059D01*
X151161154Y-86180927D01*
X150911794Y-86781453D01*
X150911226Y-87431694D01*
X151159538Y-88032655D01*
X151618927Y-88492846D01*
X152219453Y-88742206D01*
X152869694Y-88742774D01*
X153470655Y-88494462D01*
X153930846Y-88035073D01*
X154180206Y-87434547D01*
X154180774Y-86784306D01*
X154180774Y-92673411D01*
X154167341Y-92310623D01*
X153964965Y-91822042D01*
X153698163Y-91723443D01*
X153518557Y-91903048D01*
X153518557Y-91543837D01*
X153419958Y-91277035D01*
X152810418Y-91050599D01*
X152160623Y-91074659D01*
X151672042Y-91277035D01*
X151573443Y-91543837D01*
X152546000Y-92516395D01*
X153518557Y-91543837D01*
X153518557Y-91903048D01*
X152725605Y-92696000D01*
X153698163Y-93668557D01*
X153964965Y-93569958D01*
X154191401Y-92960418D01*
X154191401Y-94015000D01*
X153456900Y-94015000D01*
X153518557Y-93848163D01*
X152546000Y-92875605D01*
X152366395Y-93055210D01*
X152366395Y-92696000D01*
X151393837Y-91723443D01*
X151127035Y-91822042D01*
X150900599Y-92431582D01*
X150924659Y-93081377D01*
X151127035Y-93569958D01*
X151393837Y-93668557D01*
X152366395Y-92696000D01*
X152366395Y-93055210D01*
X151573443Y-93848163D01*
X151635099Y-94015000D01*
X146542774Y-94015000D01*
X146542774Y-79480306D01*
X146294462Y-78879345D01*
X145860000Y-78444124D01*
X145860000Y-73126309D01*
X145860000Y-72785750D01*
X145701250Y-72627000D01*
X144727000Y-72627000D01*
X144727000Y-73476250D01*
X144885750Y-73635000D01*
X145098691Y-73635000D01*
X145351310Y-73635000D01*
X145584699Y-73538327D01*
X145763327Y-73359698D01*
X145860000Y-73126309D01*
X145860000Y-78444124D01*
X145835073Y-78419154D01*
X145234547Y-78169794D01*
X144584306Y-78169226D01*
X143983345Y-78417538D01*
X143523154Y-78876927D01*
X143404180Y-79163446D01*
X142918547Y-78961794D01*
X142268306Y-78961226D01*
X141667345Y-79209538D01*
X141207154Y-79668927D01*
X140957794Y-80269453D01*
X140957226Y-80919694D01*
X141205538Y-81520655D01*
X141664927Y-81980846D01*
X142265453Y-82230206D01*
X142915694Y-82230774D01*
X143516655Y-81982462D01*
X143976846Y-81523073D01*
X144095819Y-81236553D01*
X144581453Y-81438206D01*
X145231694Y-81438774D01*
X145832655Y-81190462D01*
X146292846Y-80731073D01*
X146542206Y-80130547D01*
X146542774Y-79480306D01*
X146542774Y-94015000D01*
X138638774Y-94015000D01*
X138638774Y-80272306D01*
X138390462Y-79671345D01*
X137931073Y-79211154D01*
X137330547Y-78961794D01*
X136680306Y-78961226D01*
X136079345Y-79209538D01*
X135619154Y-79668927D01*
X135369794Y-80269453D01*
X135369226Y-80919694D01*
X135617538Y-81520655D01*
X136076927Y-81980846D01*
X136677453Y-82230206D01*
X137327694Y-82230774D01*
X137928655Y-81982462D01*
X138388846Y-81523073D01*
X138638206Y-80922547D01*
X138638774Y-80272306D01*
X138638774Y-94015000D01*
X135085000Y-94015000D01*
X135085000Y-76800000D01*
X135045000Y-76598908D01*
X135045000Y-76000000D01*
X135032606Y-75937696D01*
X135032607Y-75924167D01*
X134960293Y-75560618D01*
X134960292Y-75560617D01*
X134863984Y-75328109D01*
X134863983Y-75328108D01*
X134863983Y-75328107D01*
X134792032Y-75220426D01*
X134793534Y-74773000D01*
X134376901Y-74773000D01*
X134171893Y-74636017D01*
X134171891Y-74636016D01*
X133939383Y-74539708D01*
X133939381Y-74539707D01*
X133575833Y-74467393D01*
X133512304Y-74467393D01*
X133450000Y-74455000D01*
X132479460Y-74455000D01*
X132526300Y-65977000D01*
X134869381Y-65977000D01*
X134870492Y-65379344D01*
X135263784Y-65379687D01*
X135660689Y-65215689D01*
X135789602Y-65087000D01*
X138025000Y-65087000D01*
X138100000Y-65087000D01*
X138550000Y-65087000D01*
X139250000Y-65087000D01*
X139270882Y-65087000D01*
X139270883Y-65087000D01*
X139384376Y-65162834D01*
X139483395Y-65228996D01*
X139483396Y-65228996D01*
X139775000Y-65287000D01*
X140260358Y-65287000D01*
X140412714Y-65439622D01*
X140746043Y-65578033D01*
X140665000Y-65773690D01*
X140665000Y-66026309D01*
X140665000Y-67826309D01*
X140761673Y-68059698D01*
X140940301Y-68238327D01*
X141046674Y-68282388D01*
X140899449Y-68429357D01*
X140699797Y-68910171D01*
X140502068Y-68431629D01*
X140070643Y-67999449D01*
X139506670Y-67765267D01*
X138896009Y-67764735D01*
X138331629Y-67997932D01*
X137899449Y-68429357D01*
X137665267Y-68993330D01*
X137664735Y-69603991D01*
X137897932Y-70168371D01*
X138279181Y-70550287D01*
X137899449Y-70929357D01*
X137665267Y-71493330D01*
X137664735Y-72103991D01*
X137897932Y-72668371D01*
X138329357Y-73100551D01*
X138893330Y-73334733D01*
X139503991Y-73335265D01*
X140068371Y-73102068D01*
X140500551Y-72670643D01*
X140700202Y-72189828D01*
X140897932Y-72668371D01*
X141329357Y-73100551D01*
X141893330Y-73334733D01*
X142503991Y-73335265D01*
X143068371Y-73102068D01*
X143340000Y-72830913D01*
X143340000Y-73126309D01*
X143436673Y-73359698D01*
X143615301Y-73538327D01*
X143848690Y-73635000D01*
X144101309Y-73635000D01*
X144314250Y-73635000D01*
X144473000Y-73476250D01*
X144473000Y-72627000D01*
X144453000Y-72627000D01*
X144453000Y-72373000D01*
X144473000Y-72373000D01*
X144473000Y-72353000D01*
X144727000Y-72353000D01*
X144727000Y-72373000D01*
X145701250Y-72373000D01*
X145860000Y-72214250D01*
X145860000Y-71873691D01*
X145763327Y-71640302D01*
X145623025Y-71499999D01*
X145763327Y-71359699D01*
X145860000Y-71126310D01*
X145860000Y-70873691D01*
X145860000Y-69873691D01*
X145763327Y-69640302D01*
X145584699Y-69461673D01*
X145351310Y-69365000D01*
X145122236Y-69365000D01*
X144428618Y-68671382D01*
X144149678Y-68485000D01*
X144251309Y-68485000D01*
X144464250Y-68485000D01*
X144623000Y-68326250D01*
X144623000Y-67477000D01*
X144603000Y-67477000D01*
X144603000Y-67223000D01*
X144623000Y-67223000D01*
X144623000Y-67203000D01*
X144877000Y-67203000D01*
X144877000Y-67223000D01*
X144897000Y-67223000D01*
X144897000Y-67477000D01*
X144877000Y-67477000D01*
X144877000Y-68326250D01*
X145035750Y-68485000D01*
X145248691Y-68485000D01*
X145465000Y-68485000D01*
X145465000Y-68526309D01*
X145561673Y-68759698D01*
X145740301Y-68938327D01*
X145973690Y-69035000D01*
X146226309Y-69035000D01*
X147526309Y-69035000D01*
X147759698Y-68938327D01*
X147938327Y-68759699D01*
X148035000Y-68526310D01*
X148035000Y-68273691D01*
X148035000Y-67622236D01*
X149028618Y-66628618D01*
X149221329Y-66340206D01*
X149289000Y-66000000D01*
X149289000Y-65850000D01*
X149289000Y-65146236D01*
X149861000Y-65718236D01*
X149861000Y-66290974D01*
X149761673Y-66390301D01*
X149665000Y-66623690D01*
X149665000Y-66876309D01*
X149665000Y-68176309D01*
X149761673Y-68409698D01*
X149926974Y-68575000D01*
X149811673Y-68690301D01*
X149740031Y-68863259D01*
X149662286Y-68785378D01*
X149265668Y-68620687D01*
X148836216Y-68620313D01*
X148439311Y-68784311D01*
X148135378Y-69087714D01*
X147970687Y-69484332D01*
X147970313Y-69913784D01*
X148134311Y-70310689D01*
X148437714Y-70614622D01*
X148834332Y-70779313D01*
X149263784Y-70779687D01*
X149660689Y-70615689D01*
X149739956Y-70536559D01*
X149811673Y-70709698D01*
X149990301Y-70888327D01*
X150223690Y-70985000D01*
X150476309Y-70985000D01*
X150904696Y-70985000D01*
X150840302Y-71011673D01*
X150661673Y-71190301D01*
X150565000Y-71423690D01*
X150565000Y-71676309D01*
X150565000Y-71914250D01*
X150723750Y-72073000D01*
X151823000Y-72073000D01*
X151823000Y-72053000D01*
X152077000Y-72053000D01*
X152077000Y-72073000D01*
X152097000Y-72073000D01*
X152097000Y-72327000D01*
X152077000Y-72327000D01*
X152077000Y-72347000D01*
X151823000Y-72347000D01*
X151823000Y-72327000D01*
X150723750Y-72327000D01*
X150565000Y-72485750D01*
X150565000Y-72723691D01*
X150565000Y-72976310D01*
X150661673Y-73209699D01*
X150840302Y-73388327D01*
X151073691Y-73485000D01*
X151270670Y-73485000D01*
X151265000Y-73498690D01*
X151265000Y-73751309D01*
X151265000Y-73964250D01*
X151423750Y-74123000D01*
X152273000Y-74123000D01*
X152273000Y-74103000D01*
X152527000Y-74103000D01*
X152527000Y-74123000D01*
X152547000Y-74123000D01*
X152547000Y-74377000D01*
X152527000Y-74377000D01*
X152527000Y-75351250D01*
X152663000Y-75487250D01*
X152663000Y-76038000D01*
X152430571Y-76038000D01*
X152338327Y-75815302D01*
X152273000Y-75749974D01*
X152273000Y-75351250D01*
X152273000Y-74377000D01*
X151423750Y-74377000D01*
X151265000Y-74535750D01*
X151265000Y-74748691D01*
X151265000Y-75001310D01*
X151361673Y-75234699D01*
X151540302Y-75413327D01*
X151773691Y-75510000D01*
X152114250Y-75510000D01*
X152273000Y-75351250D01*
X152273000Y-75749974D01*
X152159699Y-75636673D01*
X151926310Y-75540000D01*
X151673691Y-75540000D01*
X150673691Y-75540000D01*
X150440302Y-75636673D01*
X150300000Y-75776974D01*
X150159698Y-75636673D01*
X149926309Y-75540000D01*
X149585750Y-75540000D01*
X149427000Y-75698750D01*
X149427000Y-76673000D01*
X149447000Y-76673000D01*
X149447000Y-76927000D01*
X149427000Y-76927000D01*
X149427000Y-77901250D01*
X149585750Y-78060000D01*
X149926309Y-78060000D01*
X150159698Y-77963327D01*
X150300000Y-77823025D01*
X150440301Y-77963327D01*
X150673690Y-78060000D01*
X150926309Y-78060000D01*
X151926309Y-78060000D01*
X152159698Y-77963327D01*
X152338327Y-77784699D01*
X152430572Y-77562000D01*
X152825722Y-77562000D01*
X152795687Y-77634332D01*
X152795313Y-78063784D01*
X152842098Y-78177013D01*
X152279345Y-78409538D01*
X151819154Y-78868927D01*
X151809899Y-78891214D01*
X151648163Y-78831443D01*
X151468557Y-79011048D01*
X151468557Y-78651837D01*
X151369958Y-78385035D01*
X150760418Y-78158599D01*
X150110623Y-78182659D01*
X149622042Y-78385035D01*
X149523443Y-78651837D01*
X150496000Y-79624395D01*
X151468557Y-78651837D01*
X151468557Y-79011048D01*
X150675605Y-79804000D01*
X151648163Y-80776557D01*
X151815139Y-80714849D01*
X151817538Y-80720655D01*
X152276927Y-81180846D01*
X152877453Y-81430206D01*
X153527694Y-81430774D01*
X154128655Y-81182462D01*
X154149500Y-81161653D01*
X154149500Y-81923747D01*
X154060378Y-82012714D01*
X153895687Y-82409332D01*
X153895313Y-82838784D01*
X154059311Y-83235689D01*
X154362714Y-83539622D01*
X154759332Y-83704313D01*
X155188784Y-83704687D01*
X155585689Y-83540689D01*
X155889622Y-83237286D01*
X156054313Y-82840668D01*
X156054687Y-82411216D01*
X155890689Y-82014311D01*
X155800500Y-81923964D01*
X155800500Y-78950005D01*
X155800500Y-78950000D01*
X155800501Y-78950000D01*
X155737663Y-78634095D01*
X155737663Y-78634094D01*
X155558717Y-78366283D01*
X154954577Y-77762143D01*
X154954687Y-77636216D01*
X154924021Y-77562000D01*
X161417540Y-77562000D01*
X161428854Y-77589380D01*
X161803647Y-77964827D01*
X162293587Y-78168268D01*
X162824086Y-78168731D01*
X163314380Y-77966146D01*
X163689827Y-77591353D01*
X163830093Y-77253553D01*
X163968854Y-77589380D01*
X164343647Y-77964827D01*
X164833587Y-78168268D01*
X165364086Y-78168731D01*
X165854380Y-77966146D01*
X166229827Y-77591353D01*
X166370093Y-77253553D01*
X166508854Y-77589380D01*
X166883647Y-77964827D01*
X167373587Y-78168268D01*
X167904086Y-78168731D01*
X168394380Y-77966146D01*
X168769827Y-77591353D01*
X168910093Y-77253553D01*
X169048854Y-77589380D01*
X169423647Y-77964827D01*
X169913587Y-78168268D01*
X170444086Y-78168731D01*
X170934380Y-77966146D01*
X171309827Y-77591353D01*
X171450093Y-77253553D01*
X171588854Y-77589380D01*
X171963647Y-77964827D01*
X172453587Y-78168268D01*
X172984086Y-78168731D01*
X173474380Y-77966146D01*
X173849827Y-77591353D01*
X174053268Y-77101413D01*
X174053731Y-76570914D01*
X173851146Y-76080620D01*
X173476353Y-75705173D01*
X172986413Y-75501732D01*
X172455914Y-75501269D01*
X171965620Y-75703854D01*
X171590173Y-76078647D01*
X171449906Y-76416446D01*
X171311146Y-76080620D01*
X170936353Y-75705173D01*
X170446413Y-75501732D01*
X169915914Y-75501269D01*
X169425620Y-75703854D01*
X169050173Y-76078647D01*
X168909906Y-76416446D01*
X168771146Y-76080620D01*
X168396353Y-75705173D01*
X167906413Y-75501732D01*
X167375914Y-75501269D01*
X166885620Y-75703854D01*
X166510173Y-76078647D01*
X166369906Y-76416446D01*
X166231146Y-76080620D01*
X165856353Y-75705173D01*
X165366413Y-75501732D01*
X164835914Y-75501269D01*
X164345620Y-75703854D01*
X163970173Y-76078647D01*
X163829906Y-76416446D01*
X163691146Y-76080620D01*
X163316353Y-75705173D01*
X162826413Y-75501732D01*
X162295914Y-75501269D01*
X161805620Y-75703854D01*
X161470890Y-76038000D01*
X154465630Y-76038000D01*
X154187000Y-75759369D01*
X154187000Y-75510000D01*
X155026309Y-75510000D01*
X155259698Y-75413327D01*
X155438327Y-75234699D01*
X155477966Y-75139000D01*
X155620980Y-75139000D01*
X155707749Y-75196977D01*
X155858039Y-75226871D01*
X155984332Y-75279313D01*
X156413784Y-75279687D01*
X156810689Y-75115689D01*
X156837424Y-75089000D01*
X157025000Y-75089000D01*
X157365205Y-75021329D01*
X157365206Y-75021329D01*
X157653618Y-74828618D01*
X160228618Y-72253618D01*
X160421329Y-71965206D01*
X160421329Y-71965205D01*
X160489000Y-71625000D01*
X160489000Y-70900000D01*
X160489000Y-70800000D01*
X160489000Y-70200000D01*
X160489000Y-68587863D01*
X160514622Y-68562286D01*
X160679313Y-68165668D01*
X160679687Y-67736216D01*
X160515689Y-67339311D01*
X160212286Y-67035378D01*
X159815668Y-66870687D01*
X159386216Y-66870313D01*
X158989311Y-67034311D01*
X158685378Y-67337714D01*
X158520687Y-67734332D01*
X158520313Y-68163784D01*
X158684311Y-68560689D01*
X158711000Y-68587424D01*
X158711000Y-70200000D01*
X158711000Y-70800000D01*
X158711000Y-70900000D01*
X158711000Y-71256764D01*
X156720499Y-73247264D01*
X156415668Y-73120687D01*
X155986216Y-73120313D01*
X155973108Y-73125728D01*
X156035000Y-72976310D01*
X156035000Y-72723691D01*
X156035000Y-71423691D01*
X155938327Y-71190302D01*
X155759699Y-71011673D01*
X155526310Y-70915000D01*
X155273691Y-70915000D01*
X154845303Y-70915000D01*
X154909698Y-70888327D01*
X155088327Y-70709699D01*
X155185000Y-70476310D01*
X155185000Y-70462000D01*
X155350000Y-70462000D01*
X155350000Y-70461999D01*
X155641604Y-70403996D01*
X155641605Y-70403996D01*
X155888815Y-70238815D01*
X156298130Y-69829499D01*
X156513784Y-69829687D01*
X156910689Y-69665689D01*
X157214622Y-69362286D01*
X157379313Y-68965668D01*
X157379687Y-68536216D01*
X157215689Y-68139311D01*
X156912286Y-67835378D01*
X156515668Y-67670687D01*
X156086216Y-67670313D01*
X155689311Y-67834311D01*
X155385378Y-68137714D01*
X155220687Y-68534332D01*
X155220497Y-68751872D01*
X155145072Y-68827297D01*
X155088327Y-68690302D01*
X154923025Y-68524999D01*
X155038327Y-68409699D01*
X155135000Y-68176310D01*
X155135000Y-67923691D01*
X155135000Y-67685750D01*
X155135000Y-67114250D01*
X155135000Y-66876309D01*
X155135000Y-66623690D01*
X155038327Y-66390301D01*
X154859698Y-66211673D01*
X154626309Y-66115000D01*
X154035750Y-66115000D01*
X153877000Y-66273750D01*
X153877000Y-67273000D01*
X154976250Y-67273000D01*
X155135000Y-67114250D01*
X155135000Y-67685750D01*
X154976250Y-67527000D01*
X153877000Y-67527000D01*
X153877000Y-67547000D01*
X153623000Y-67547000D01*
X153623000Y-67527000D01*
X153603000Y-67527000D01*
X153603000Y-67273000D01*
X153623000Y-67273000D01*
X153623000Y-66273750D01*
X153475940Y-66126690D01*
X154155889Y-65446740D01*
X154234332Y-65479313D01*
X154663784Y-65479687D01*
X155060689Y-65315689D01*
X155214646Y-65162000D01*
X155525000Y-65162000D01*
X161046950Y-65162000D01*
X160845732Y-65646587D01*
X160845269Y-66177086D01*
X161047854Y-66667380D01*
X161422647Y-67042827D01*
X161912587Y-67246268D01*
X162443086Y-67246731D01*
X162933380Y-67044146D01*
X163308827Y-66669353D01*
X163449093Y-66331553D01*
X163587854Y-66667380D01*
X163962647Y-67042827D01*
X164452587Y-67246268D01*
X164588000Y-67246386D01*
X164588000Y-67515000D01*
X164373691Y-67515000D01*
X164140302Y-67611673D01*
X163961673Y-67790301D01*
X163865000Y-68023690D01*
X163865000Y-68276309D01*
X163865000Y-69576309D01*
X163922503Y-69715134D01*
X163820974Y-69782974D01*
X163545673Y-70194992D01*
X163449000Y-70681000D01*
X163449000Y-73114220D01*
X163448906Y-73114446D01*
X163310146Y-72778620D01*
X162935353Y-72403173D01*
X162445413Y-72199732D01*
X161914914Y-72199269D01*
X161424620Y-72401854D01*
X161049173Y-72776647D01*
X160845732Y-73266587D01*
X160845269Y-73797086D01*
X161047854Y-74287380D01*
X161422647Y-74662827D01*
X161912587Y-74866268D01*
X162443086Y-74866731D01*
X162933380Y-74664146D01*
X163308827Y-74289353D01*
X163449093Y-73951553D01*
X163587854Y-74287380D01*
X163962647Y-74662827D01*
X164452587Y-74866268D01*
X164983086Y-74866731D01*
X165473380Y-74664146D01*
X165848827Y-74289353D01*
X165989093Y-73951553D01*
X166127854Y-74287380D01*
X166502647Y-74662827D01*
X166992587Y-74866268D01*
X167523086Y-74866731D01*
X168013380Y-74664146D01*
X168388827Y-74289353D01*
X168529093Y-73951553D01*
X168667854Y-74287380D01*
X169042647Y-74662827D01*
X169532587Y-74866268D01*
X170063086Y-74866731D01*
X170553380Y-74664146D01*
X170928827Y-74289353D01*
X171069093Y-73951553D01*
X171207854Y-74287380D01*
X171582647Y-74662827D01*
X172072587Y-74866268D01*
X172603086Y-74866731D01*
X173093380Y-74664146D01*
X173468827Y-74289353D01*
X173672268Y-73799413D01*
X173672731Y-73268914D01*
X173470146Y-72778620D01*
X173301819Y-72610000D01*
X173489250Y-72610000D01*
X173648000Y-72451250D01*
X173648000Y-71477000D01*
X173628000Y-71477000D01*
X173628000Y-71223000D01*
X173648000Y-71223000D01*
X173648000Y-71203000D01*
X173902000Y-71203000D01*
X173902000Y-71223000D01*
X174751250Y-71223000D01*
X174910000Y-71064250D01*
X174910000Y-70851309D01*
X174910000Y-70598690D01*
X174875423Y-70515214D01*
X175086008Y-70473327D01*
X175143368Y-70435000D01*
X175351309Y-70435000D01*
X175584698Y-70338327D01*
X175763327Y-70159699D01*
X175860000Y-69926310D01*
X175860000Y-69673691D01*
X175860000Y-69350273D01*
X175870000Y-69300000D01*
X175860000Y-69249726D01*
X175860000Y-68673691D01*
X175763327Y-68440302D01*
X175623025Y-68299999D01*
X175763327Y-68159699D01*
X175860000Y-67926310D01*
X175860000Y-67673691D01*
X175860000Y-67350273D01*
X175870000Y-67300000D01*
X175870000Y-65150005D01*
X175870000Y-65150000D01*
X175870001Y-65150000D01*
X175773327Y-64663992D01*
X175498026Y-64251974D01*
X174473000Y-63226948D01*
X174473000Y-52701250D01*
X174473000Y-51727000D01*
X174453000Y-51727000D01*
X174453000Y-51473000D01*
X174473000Y-51473000D01*
X174473000Y-50498750D01*
X174314250Y-50340000D01*
X173973691Y-50340000D01*
X173740302Y-50436673D01*
X173599999Y-50576974D01*
X173459699Y-50436673D01*
X173226310Y-50340000D01*
X172973691Y-50340000D01*
X172650273Y-50340000D01*
X172600000Y-50330000D01*
X172035000Y-50330000D01*
X172035000Y-50270000D01*
X172600000Y-50270000D01*
X172650273Y-50260000D01*
X173226309Y-50260000D01*
X173459698Y-50163327D01*
X173600000Y-50023025D01*
X173740302Y-50163327D01*
X173973691Y-50260000D01*
X174314250Y-50260000D01*
X174473000Y-50101250D01*
X174473000Y-49127000D01*
X174453000Y-49127000D01*
X174453000Y-48873000D01*
X174473000Y-48873000D01*
X174473000Y-47898750D01*
X174314250Y-47740000D01*
X173973691Y-47740000D01*
X173740302Y-47836673D01*
X173599999Y-47976974D01*
X173459699Y-47836673D01*
X173226310Y-47740000D01*
X172973691Y-47740000D01*
X172650273Y-47740000D01*
X172600000Y-47730000D01*
X172035000Y-47730000D01*
X172035000Y-47520000D01*
X172600000Y-47520000D01*
X172650273Y-47510000D01*
X173226309Y-47510000D01*
X173459698Y-47413327D01*
X173600000Y-47273025D01*
X173740302Y-47413327D01*
X173973691Y-47510000D01*
X174314250Y-47510000D01*
X174473000Y-47351250D01*
X174473000Y-46377000D01*
X174453000Y-46377000D01*
X174453000Y-46123000D01*
X174473000Y-46123000D01*
X174473000Y-45148750D01*
X174314250Y-44990000D01*
X173973691Y-44990000D01*
X173740302Y-45086673D01*
X173599999Y-45226974D01*
X173459699Y-45086673D01*
X173226310Y-44990000D01*
X172973691Y-44990000D01*
X172650273Y-44990000D01*
X172600000Y-44980000D01*
X171816797Y-44980000D01*
X171739659Y-44864554D01*
X171752500Y-44800000D01*
X171735430Y-44714183D01*
X171735430Y-43923371D01*
X171735430Y-41676629D01*
X171735430Y-40086010D01*
X171735430Y-39514510D01*
X171735430Y-37923891D01*
X171638757Y-37690502D01*
X171460129Y-37511873D01*
X171226740Y-37415200D01*
X170974121Y-37415200D01*
X170485750Y-37415200D01*
X170327000Y-37573950D01*
X170327000Y-39673260D01*
X171576680Y-39673260D01*
X171735430Y-39514510D01*
X171735430Y-40086010D01*
X171576680Y-39927260D01*
X170327000Y-39927260D01*
X170327000Y-42026570D01*
X170485750Y-42185320D01*
X170974121Y-42185320D01*
X171226740Y-42185320D01*
X171460129Y-42088647D01*
X171638757Y-41910018D01*
X171735430Y-41676629D01*
X171735430Y-43923371D01*
X171638757Y-43689982D01*
X171460129Y-43511353D01*
X171226740Y-43414680D01*
X170974121Y-43414680D01*
X170410022Y-43414680D01*
X169180661Y-42185320D01*
X169425879Y-42185320D01*
X169914250Y-42185320D01*
X170073000Y-42026570D01*
X170073000Y-39927260D01*
X170073000Y-39673260D01*
X170073000Y-37573950D01*
X169914250Y-37415200D01*
X169425879Y-37415200D01*
X169173260Y-37415200D01*
X168939871Y-37511873D01*
X168761243Y-37690502D01*
X168664570Y-37923891D01*
X168664570Y-39514510D01*
X168823320Y-39673260D01*
X170073000Y-39673260D01*
X170073000Y-39927260D01*
X168823320Y-39927260D01*
X168664570Y-40086010D01*
X168664570Y-41669228D01*
X164897101Y-37901759D01*
X164780128Y-37823600D01*
X164542205Y-37585261D01*
X163842290Y-37294632D01*
X163084435Y-37293970D01*
X162384014Y-37583378D01*
X161847661Y-38118795D01*
X161557032Y-38818710D01*
X161556370Y-39576565D01*
X161845778Y-40276986D01*
X162381195Y-40813339D01*
X162787036Y-40981858D01*
X163505916Y-41700738D01*
X163164918Y-41700441D01*
X162613920Y-41928108D01*
X162191990Y-42349303D01*
X161963361Y-42899902D01*
X161962841Y-43496082D01*
X162190508Y-44047080D01*
X162611703Y-44469010D01*
X163162302Y-44697639D01*
X163758482Y-44698159D01*
X164309480Y-44470492D01*
X164731410Y-44049297D01*
X164960039Y-43498698D01*
X164960338Y-43155160D01*
X168365000Y-46559822D01*
X168365000Y-48280000D01*
X167650000Y-48280000D01*
X167599726Y-48290000D01*
X167023691Y-48290000D01*
X166790302Y-48386673D01*
X166650000Y-48526974D01*
X166509698Y-48386673D01*
X166276309Y-48290000D01*
X165935750Y-48290000D01*
X165777000Y-48448750D01*
X165777000Y-49423000D01*
X165797000Y-49423000D01*
X165797000Y-49677000D01*
X165777000Y-49677000D01*
X165777000Y-50651250D01*
X165935750Y-50810000D01*
X166276309Y-50810000D01*
X166509698Y-50713327D01*
X166650000Y-50573025D01*
X166790301Y-50713327D01*
X167023690Y-50810000D01*
X167276309Y-50810000D01*
X167599726Y-50810000D01*
X167650000Y-50820000D01*
X168365000Y-50820000D01*
X168365000Y-53100000D01*
X168365000Y-53799460D01*
X168504681Y-54501684D01*
X168902459Y-55097001D01*
X169702999Y-55897541D01*
X170298316Y-56295319D01*
X171000540Y-56435000D01*
X171702765Y-56295319D01*
X172298081Y-55897541D01*
X172695859Y-55302225D01*
X172835540Y-54600000D01*
X172695859Y-53897776D01*
X172298081Y-53302459D01*
X172045836Y-53050214D01*
X172226051Y-52870000D01*
X172600000Y-52870000D01*
X172650273Y-52860000D01*
X173226309Y-52860000D01*
X173459698Y-52763327D01*
X173600000Y-52623025D01*
X173740302Y-52763327D01*
X173973691Y-52860000D01*
X174314250Y-52860000D01*
X174473000Y-52701250D01*
X174473000Y-63226948D01*
X174098026Y-62851974D01*
X164731700Y-53485648D01*
X164731700Y-52048598D01*
X164960039Y-51498698D01*
X164960559Y-50902518D01*
X164901401Y-50759346D01*
X165023691Y-50810000D01*
X165364250Y-50810000D01*
X165523000Y-50651250D01*
X165523000Y-49677000D01*
X165523000Y-49423000D01*
X165523000Y-48448750D01*
X165364250Y-48290000D01*
X165065526Y-48290000D01*
X165075739Y-48279805D01*
X165366368Y-47579890D01*
X165367030Y-46822035D01*
X165077622Y-46121614D01*
X164542205Y-45585261D01*
X163842290Y-45294632D01*
X163084435Y-45293970D01*
X162384014Y-45583378D01*
X161847661Y-46118795D01*
X161557032Y-46818710D01*
X161556370Y-47576565D01*
X161845778Y-48276986D01*
X162381195Y-48813339D01*
X163081110Y-49103968D01*
X163838965Y-49104630D01*
X164515000Y-48825298D01*
X164515000Y-49051309D01*
X164515000Y-49264250D01*
X164673750Y-49423000D01*
X165523000Y-49423000D01*
X165523000Y-49677000D01*
X164673750Y-49677000D01*
X164515000Y-49835750D01*
X164515000Y-50048691D01*
X164515000Y-50133247D01*
X164311697Y-49929590D01*
X163761098Y-49700961D01*
X163164918Y-49700441D01*
X162613920Y-49928108D01*
X162191990Y-50349303D01*
X161963361Y-50899902D01*
X161962841Y-51496082D01*
X162190508Y-52047080D01*
X162191700Y-52048274D01*
X162191700Y-54011694D01*
X162191699Y-54011700D01*
X162288373Y-54497708D01*
X162563674Y-54909726D01*
X172233448Y-64579500D01*
X171514191Y-64579500D01*
X171280802Y-64676173D01*
X171102173Y-64854801D01*
X171005500Y-65088190D01*
X171005500Y-65308672D01*
X170968800Y-65220071D01*
X170733188Y-65158417D01*
X170553583Y-65338022D01*
X169978605Y-65913000D01*
X169992747Y-65927142D01*
X169813142Y-66106747D01*
X169799000Y-66092605D01*
X169044417Y-66847188D01*
X169106071Y-67082800D01*
X169431954Y-67197500D01*
X168600000Y-67197500D01*
X168235494Y-67270005D01*
X167926481Y-67476481D01*
X167887962Y-67515000D01*
X167073691Y-67515000D01*
X166840302Y-67611673D01*
X166661673Y-67790301D01*
X166599999Y-67939193D01*
X166538327Y-67790302D01*
X166359699Y-67611673D01*
X166126310Y-67515000D01*
X166112000Y-67515000D01*
X166112000Y-66629010D01*
X166127854Y-66667380D01*
X166502647Y-67042827D01*
X166992587Y-67246268D01*
X167523086Y-67246731D01*
X168013380Y-67044146D01*
X168388827Y-66669353D01*
X168522313Y-66347881D01*
X168629200Y-66605929D01*
X168864812Y-66667583D01*
X169619395Y-65913000D01*
X169605252Y-65898857D01*
X169784857Y-65719252D01*
X169799000Y-65733395D01*
X170553583Y-64978812D01*
X170491929Y-64743200D01*
X169991520Y-64567073D01*
X169461801Y-64595852D01*
X169106071Y-64743200D01*
X169044417Y-64978809D01*
X168929163Y-64863555D01*
X168871147Y-64921570D01*
X169029313Y-64540668D01*
X169029687Y-64111216D01*
X168865689Y-63714311D01*
X168562286Y-63410378D01*
X168165668Y-63245687D01*
X167736216Y-63245313D01*
X167339311Y-63409311D01*
X167110222Y-63638000D01*
X165633345Y-63638000D01*
X165633345Y-59410000D01*
X165507670Y-58778190D01*
X165149778Y-58242567D01*
X164614155Y-57884675D01*
X163982345Y-57759000D01*
X163917655Y-57759000D01*
X163285845Y-57884675D01*
X162750222Y-58242567D01*
X162392330Y-58778190D01*
X162266655Y-59410000D01*
X162392330Y-60041810D01*
X162616965Y-60378001D01*
X162574302Y-60395673D01*
X162395673Y-60574301D01*
X162299000Y-60807690D01*
X162299000Y-61060309D01*
X162299000Y-61664250D01*
X162457750Y-61823000D01*
X163823000Y-61823000D01*
X163823000Y-61803000D01*
X164077000Y-61803000D01*
X164077000Y-61823000D01*
X165442250Y-61823000D01*
X165601000Y-61664250D01*
X165601000Y-61060309D01*
X165601000Y-60807690D01*
X165504327Y-60574301D01*
X165325698Y-60395673D01*
X165283034Y-60378001D01*
X165507670Y-60041810D01*
X165633345Y-59410000D01*
X165633345Y-63638000D01*
X165601000Y-63638000D01*
X165601000Y-63092310D01*
X165601000Y-62839691D01*
X165601000Y-62235750D01*
X165442250Y-62077000D01*
X164077000Y-62077000D01*
X164077000Y-63442250D01*
X164235750Y-63601000D01*
X165092309Y-63601000D01*
X165325698Y-63504327D01*
X165504327Y-63325699D01*
X165601000Y-63092310D01*
X165601000Y-63638000D01*
X163823000Y-63638000D01*
X163823000Y-63442250D01*
X163823000Y-62077000D01*
X162457750Y-62077000D01*
X162299000Y-62235750D01*
X162299000Y-62839691D01*
X162299000Y-63092310D01*
X162395673Y-63325699D01*
X162574302Y-63504327D01*
X162807691Y-63601000D01*
X163664250Y-63601000D01*
X163823000Y-63442250D01*
X163823000Y-63638000D01*
X161650000Y-63638000D01*
X161575000Y-63638000D01*
X161235000Y-63638000D01*
X161235000Y-63485750D01*
X161235000Y-62914250D01*
X161235000Y-62676309D01*
X161235000Y-62423690D01*
X161138327Y-62190301D01*
X160959698Y-62011673D01*
X160726309Y-61915000D01*
X160135750Y-61915000D01*
X159977000Y-62073750D01*
X159977000Y-63073000D01*
X161076250Y-63073000D01*
X161235000Y-62914250D01*
X161235000Y-63485750D01*
X161076250Y-63327000D01*
X159977000Y-63327000D01*
X159977000Y-63347000D01*
X159723000Y-63347000D01*
X159723000Y-63327000D01*
X159703000Y-63327000D01*
X159703000Y-63073000D01*
X159723000Y-63073000D01*
X159723000Y-62073750D01*
X159564250Y-61915000D01*
X158973691Y-61915000D01*
X158740302Y-62011673D01*
X158561673Y-62190301D01*
X158499999Y-62339193D01*
X158438327Y-62190302D01*
X158259699Y-62011673D01*
X158026310Y-61915000D01*
X157819090Y-61915000D01*
X157819090Y-39987313D01*
X157819090Y-38915247D01*
X157713620Y-38385012D01*
X157413266Y-37935501D01*
X156963755Y-37635147D01*
X156433520Y-37529677D01*
X155903285Y-37635147D01*
X155453774Y-37935501D01*
X155153420Y-38385012D01*
X155151570Y-38394312D01*
X155125019Y-38304603D01*
X154783464Y-37882622D01*
X154306423Y-37623470D01*
X154234795Y-37609287D01*
X154020520Y-37731941D01*
X154020520Y-39324280D01*
X154040520Y-39324280D01*
X154040520Y-39578280D01*
X154020520Y-39578280D01*
X154020520Y-41170619D01*
X154234795Y-41293273D01*
X154306423Y-41279090D01*
X154783464Y-41019938D01*
X155125019Y-40597957D01*
X155151570Y-40508247D01*
X155153420Y-40517548D01*
X155453774Y-40967059D01*
X155903285Y-41267413D01*
X156433520Y-41372883D01*
X156963755Y-41267413D01*
X157413266Y-40967059D01*
X157713620Y-40517548D01*
X157819090Y-39987313D01*
X157819090Y-61915000D01*
X157773691Y-61915000D01*
X157522236Y-61915000D01*
X157435370Y-61828134D01*
X157435370Y-53880177D01*
X156883180Y-52543775D01*
X155861603Y-51520414D01*
X154526166Y-50965892D01*
X153766520Y-50965229D01*
X153766520Y-41170619D01*
X153766520Y-39578280D01*
X153746520Y-39578280D01*
X153746520Y-39324280D01*
X153766520Y-39324280D01*
X153766520Y-37731941D01*
X153552245Y-37609287D01*
X153480617Y-37623470D01*
X153003576Y-37882622D01*
X152662021Y-38304603D01*
X152635469Y-38394312D01*
X152633620Y-38385012D01*
X152333266Y-37935501D01*
X151883755Y-37635147D01*
X151353520Y-37529677D01*
X150823285Y-37635147D01*
X150373774Y-37935501D01*
X150073420Y-38385012D01*
X149967950Y-38915247D01*
X149967950Y-39987313D01*
X150073420Y-40517548D01*
X150373774Y-40967059D01*
X150823285Y-41267413D01*
X151353520Y-41372883D01*
X151883755Y-41267413D01*
X152333266Y-40967059D01*
X152633620Y-40517548D01*
X152635469Y-40508247D01*
X152662021Y-40597957D01*
X153003576Y-41019938D01*
X153480617Y-41279090D01*
X153552245Y-41293273D01*
X153766520Y-41170619D01*
X153766520Y-50965229D01*
X153080177Y-50964630D01*
X151743775Y-51516820D01*
X150720414Y-52538397D01*
X150165892Y-53873834D01*
X150164630Y-55319823D01*
X150716820Y-56656225D01*
X151738397Y-57679586D01*
X153073834Y-58234108D01*
X154519823Y-58235370D01*
X155856225Y-57683180D01*
X156879586Y-56661603D01*
X157434108Y-55326166D01*
X157435370Y-53880177D01*
X157435370Y-61828134D01*
X157078618Y-61471382D01*
X156790206Y-61278671D01*
X156450000Y-61211000D01*
X153000000Y-61211000D01*
X152168236Y-61211000D01*
X148489000Y-57531764D01*
X148489000Y-53677966D01*
X148584698Y-53638327D01*
X148763327Y-53459699D01*
X148860000Y-53226310D01*
X148860000Y-52973691D01*
X148860000Y-51973691D01*
X148763327Y-51740302D01*
X148623025Y-51599999D01*
X148763327Y-51459699D01*
X148860000Y-51226310D01*
X148860000Y-50973691D01*
X148860000Y-49973691D01*
X148800554Y-49830178D01*
X148885000Y-49626310D01*
X148885000Y-49373691D01*
X148885000Y-47873691D01*
X148788327Y-47640302D01*
X148609699Y-47461673D01*
X148460806Y-47399999D01*
X148609698Y-47338327D01*
X148788327Y-47159699D01*
X148885000Y-46926310D01*
X148885000Y-46673691D01*
X148885000Y-45173691D01*
X148788327Y-44940302D01*
X148609699Y-44761673D01*
X148525500Y-44726796D01*
X148525500Y-43801252D01*
X148614622Y-43712286D01*
X148779313Y-43315668D01*
X148779687Y-42886216D01*
X148615689Y-42489311D01*
X148312286Y-42185378D01*
X147915668Y-42020687D01*
X147486216Y-42020313D01*
X147089311Y-42184311D01*
X146785378Y-42487714D01*
X146620687Y-42884332D01*
X146620313Y-43313784D01*
X146784311Y-43710689D01*
X146874500Y-43801035D01*
X146874500Y-44665000D01*
X146823691Y-44665000D01*
X146590302Y-44761673D01*
X146411673Y-44940301D01*
X146334995Y-45125416D01*
X146190206Y-45028671D01*
X145850000Y-44961000D01*
X143285000Y-44961000D01*
X143285000Y-44573691D01*
X143188327Y-44340302D01*
X143009699Y-44161673D01*
X142776310Y-44065000D01*
X142523691Y-44065000D01*
X141223691Y-44065000D01*
X140990302Y-44161673D01*
X140811673Y-44340301D01*
X140715000Y-44573690D01*
X140715000Y-44826309D01*
X140715000Y-46326309D01*
X140811673Y-46559698D01*
X140990301Y-46738327D01*
X141139193Y-46800000D01*
X140990302Y-46861673D01*
X140817783Y-47034190D01*
X140817782Y-47034191D01*
X140758395Y-47046004D01*
X140659376Y-47112165D01*
X140511185Y-47211184D01*
X140024369Y-47698000D01*
X140009144Y-47698000D01*
X140009144Y-46127698D01*
X139981362Y-45572632D01*
X139822397Y-45188857D01*
X139580213Y-45119392D01*
X139400608Y-45298997D01*
X139400608Y-44939787D01*
X139331143Y-44697603D01*
X138807698Y-44510856D01*
X138252632Y-44538638D01*
X137868857Y-44697603D01*
X137799392Y-44939787D01*
X138600000Y-45740395D01*
X139400608Y-44939787D01*
X139400608Y-45298997D01*
X138779605Y-45920000D01*
X139580213Y-46720608D01*
X139822397Y-46651143D01*
X140009144Y-46127698D01*
X140009144Y-47698000D01*
X139796704Y-47698000D01*
X139785010Y-47669697D01*
X139392370Y-47276371D01*
X139200272Y-47196605D01*
X139331143Y-47142397D01*
X139400608Y-46900213D01*
X138600000Y-46099605D01*
X138420395Y-46279210D01*
X138420395Y-45920000D01*
X137619787Y-45119392D01*
X137377603Y-45188857D01*
X137190856Y-45712302D01*
X137218638Y-46267368D01*
X137377603Y-46651143D01*
X137619787Y-46720608D01*
X138420395Y-45920000D01*
X138420395Y-46279210D01*
X137799392Y-46900213D01*
X137868857Y-47142397D01*
X138009317Y-47192508D01*
X137809697Y-47274990D01*
X137416371Y-47667630D01*
X137203243Y-48180900D01*
X137202758Y-48736661D01*
X137414990Y-49250303D01*
X137807630Y-49643629D01*
X138015512Y-49729949D01*
X137809697Y-49814990D01*
X137416371Y-50207630D01*
X137203243Y-50720900D01*
X137202758Y-51276661D01*
X137414990Y-51790303D01*
X137807630Y-52183629D01*
X138320900Y-52396757D01*
X138876661Y-52397242D01*
X139390303Y-52185010D01*
X139783629Y-51792370D01*
X139996757Y-51279100D01*
X139997242Y-50723339D01*
X139785010Y-50209697D01*
X139392370Y-49816371D01*
X139184487Y-49730050D01*
X139390303Y-49645010D01*
X139783629Y-49252370D01*
X139796239Y-49222000D01*
X140340000Y-49222000D01*
X140340000Y-49221999D01*
X140631604Y-49163996D01*
X140631605Y-49163996D01*
X140740000Y-49091568D01*
X140740000Y-49226309D01*
X140740000Y-50226309D01*
X140836673Y-50459698D01*
X140976974Y-50600000D01*
X140836673Y-50740302D01*
X140740000Y-50973691D01*
X140740000Y-51314250D01*
X140898750Y-51473000D01*
X141873000Y-51473000D01*
X141873000Y-51453000D01*
X142127000Y-51453000D01*
X142127000Y-51473000D01*
X143101250Y-51473000D01*
X143260000Y-51314250D01*
X143260000Y-50973691D01*
X143163327Y-50740302D01*
X143023025Y-50599999D01*
X143163327Y-50459699D01*
X143260000Y-50226310D01*
X143260000Y-49973691D01*
X143260000Y-49086665D01*
X143285000Y-49026310D01*
X143285000Y-48773691D01*
X143285000Y-47273691D01*
X143188327Y-47040302D01*
X143009699Y-46861673D01*
X142860806Y-46799999D01*
X143008073Y-46739000D01*
X145481764Y-46739000D01*
X145821382Y-47078618D01*
X146109794Y-47271329D01*
X146109795Y-47271329D01*
X146450000Y-47339000D01*
X146591925Y-47339000D01*
X146739193Y-47400000D01*
X146590302Y-47461673D01*
X146411673Y-47640301D01*
X146315000Y-47873690D01*
X146315000Y-48126309D01*
X146315000Y-49626309D01*
X146399445Y-49830177D01*
X146340000Y-49973690D01*
X146340000Y-50226309D01*
X146340000Y-51226309D01*
X146436673Y-51459698D01*
X146576974Y-51600000D01*
X146436673Y-51740301D01*
X146340000Y-51973690D01*
X146340000Y-52226309D01*
X146340000Y-53226309D01*
X146436673Y-53459698D01*
X146615301Y-53638327D01*
X146711000Y-53677966D01*
X146711000Y-57900000D01*
X146778671Y-58240206D01*
X146971382Y-58528618D01*
X149529528Y-61086764D01*
X149400000Y-61061000D01*
X147592502Y-61061000D01*
X147399778Y-60772567D01*
X146864155Y-60414675D01*
X146232345Y-60289000D01*
X146167655Y-60289000D01*
X145535845Y-60414675D01*
X145000222Y-60772567D01*
X144970263Y-60817403D01*
X144938327Y-60740302D01*
X144759699Y-60561673D01*
X144526310Y-60465000D01*
X144273691Y-60465000D01*
X143260000Y-60465000D01*
X143260000Y-52226309D01*
X143260000Y-51885750D01*
X143101250Y-51727000D01*
X142127000Y-51727000D01*
X142127000Y-52576250D01*
X142285750Y-52735000D01*
X142498691Y-52735000D01*
X142751310Y-52735000D01*
X142984699Y-52638327D01*
X143163327Y-52459698D01*
X143260000Y-52226309D01*
X143260000Y-60465000D01*
X142473691Y-60465000D01*
X142240302Y-60561673D01*
X142061673Y-60740301D01*
X142017611Y-60846674D01*
X141870643Y-60699449D01*
X141389828Y-60499797D01*
X141868371Y-60302068D01*
X142300551Y-59870643D01*
X142534733Y-59306670D01*
X142535265Y-58696009D01*
X142302068Y-58131629D01*
X141873000Y-57701810D01*
X141873000Y-52576250D01*
X141873000Y-51727000D01*
X140898750Y-51727000D01*
X140740000Y-51885750D01*
X140740000Y-52226309D01*
X140836673Y-52459698D01*
X141015301Y-52638327D01*
X141248690Y-52735000D01*
X141501309Y-52735000D01*
X141714250Y-52735000D01*
X141873000Y-52576250D01*
X141873000Y-57701810D01*
X141870643Y-57699449D01*
X141306670Y-57465267D01*
X140696009Y-57464735D01*
X140131629Y-57697932D01*
X139749712Y-58079181D01*
X139370643Y-57699449D01*
X138806670Y-57465267D01*
X138196009Y-57464735D01*
X137631629Y-57697932D01*
X137199449Y-58129357D01*
X136965267Y-58693330D01*
X136964735Y-59303991D01*
X137197932Y-59868371D01*
X137629357Y-60300551D01*
X138110171Y-60500202D01*
X137631629Y-60697932D01*
X137217838Y-61111000D01*
X137048608Y-61111000D01*
X136915689Y-60789311D01*
X136612286Y-60485378D01*
X136215668Y-60320687D01*
X135786216Y-60320313D01*
X135389311Y-60484311D01*
X135085378Y-60787714D01*
X134920687Y-61184332D01*
X134920679Y-61193048D01*
X134878358Y-61150727D01*
X134879841Y-60353227D01*
X135040205Y-60321329D01*
X135040206Y-60321329D01*
X135328618Y-60128618D01*
X136228618Y-59228618D01*
X136421329Y-58940206D01*
X136421329Y-58940205D01*
X136489000Y-58600000D01*
X136489000Y-57820736D01*
X136977736Y-57332000D01*
X137624809Y-57332000D01*
X137858198Y-57235327D01*
X138036827Y-57056699D01*
X138133500Y-56823310D01*
X138133500Y-56570691D01*
X138133500Y-56060313D01*
X138187714Y-56114622D01*
X138584332Y-56279313D01*
X139013784Y-56279687D01*
X139410689Y-56115689D01*
X139714622Y-55812286D01*
X139879313Y-55415668D01*
X139879687Y-54986216D01*
X139715689Y-54589311D01*
X139412286Y-54285378D01*
X139015668Y-54120687D01*
X138977890Y-54120654D01*
X138576118Y-53718882D01*
X138287706Y-53526171D01*
X137953149Y-53459623D01*
X137858199Y-53364673D01*
X137624810Y-53268000D01*
X137372191Y-53268000D01*
X135975191Y-53268000D01*
X135741802Y-53364673D01*
X135563173Y-53543301D01*
X135466500Y-53776690D01*
X135466500Y-54029309D01*
X135466500Y-54918309D01*
X135563173Y-55151698D01*
X135711474Y-55300000D01*
X135563173Y-55448301D01*
X135466500Y-55681690D01*
X135466500Y-55934309D01*
X135466500Y-56328764D01*
X134971382Y-56823882D01*
X134886169Y-56951411D01*
X134890528Y-54607807D01*
X134890528Y-54607806D01*
X134960292Y-54439383D01*
X134960293Y-54439382D01*
X135032607Y-54075833D01*
X135032606Y-54012304D01*
X135045000Y-53950000D01*
X135045000Y-53201091D01*
X135085000Y-53000000D01*
X135085000Y-35685000D01*
X193715000Y-35685000D01*
X193715000Y-58606770D01*
X193494528Y-58485077D01*
X193314923Y-58664682D01*
X193314923Y-58305472D01*
X193124636Y-57960729D01*
X192243409Y-57609044D01*
X191294677Y-57621359D01*
X190475364Y-57960729D01*
X190285077Y-58305472D01*
X191800000Y-59820395D01*
X193314923Y-58305472D01*
X193314923Y-58664682D01*
X191979605Y-60000000D01*
X193494528Y-61514923D01*
X193715000Y-61393229D01*
X193715000Y-66206770D01*
X193494528Y-66085077D01*
X193314923Y-66264682D01*
X193314923Y-65905472D01*
X193314923Y-61694528D01*
X191800000Y-60179605D01*
X191620395Y-60359210D01*
X191620395Y-60000000D01*
X190105472Y-58485077D01*
X189760729Y-58675364D01*
X189409044Y-59556591D01*
X189421359Y-60505323D01*
X189760729Y-61324636D01*
X190105472Y-61514923D01*
X191620395Y-60000000D01*
X191620395Y-60359210D01*
X190285077Y-61694528D01*
X190475364Y-62039271D01*
X191356591Y-62390956D01*
X192305323Y-62378641D01*
X193124636Y-62039271D01*
X193314923Y-61694528D01*
X193314923Y-65905472D01*
X193124636Y-65560729D01*
X192243409Y-65209044D01*
X191294677Y-65221359D01*
X190475364Y-65560729D01*
X190285077Y-65905472D01*
X191800000Y-67420395D01*
X193314923Y-65905472D01*
X193314923Y-66264682D01*
X191979605Y-67600000D01*
X193494528Y-69114923D01*
X193715000Y-68993229D01*
X193715000Y-78512971D01*
X193514965Y-78030042D01*
X193314923Y-77956114D01*
X193314923Y-69294528D01*
X191800000Y-67779605D01*
X191620395Y-67959210D01*
X191620395Y-67600000D01*
X190105472Y-66085077D01*
X189760729Y-66275364D01*
X189409044Y-67156591D01*
X189421359Y-68105323D01*
X189760729Y-68924636D01*
X190105472Y-69114923D01*
X191620395Y-67600000D01*
X191620395Y-67959210D01*
X190285077Y-69294528D01*
X190475364Y-69639271D01*
X191356591Y-69990956D01*
X192305323Y-69978641D01*
X193124636Y-69639271D01*
X193314923Y-69294528D01*
X193314923Y-77956114D01*
X193248163Y-77931443D01*
X193068557Y-78111048D01*
X193068557Y-77751837D01*
X192969958Y-77485035D01*
X192360418Y-77258599D01*
X191710623Y-77282659D01*
X191222042Y-77485035D01*
X191123443Y-77751837D01*
X192096000Y-78724395D01*
X193068557Y-77751837D01*
X193068557Y-78111048D01*
X192275605Y-78904000D01*
X193248163Y-79876557D01*
X193514965Y-79777958D01*
X193715000Y-79239486D01*
X193715000Y-94015000D01*
X193715000Y-94015000D01*
G37*
X193715000Y-94015000D02*
X193068557Y-94015000D01*
X193068557Y-80056163D01*
X192096000Y-79083605D01*
X191916395Y-79263210D01*
X191916395Y-78904000D01*
X190943837Y-77931443D01*
X190677035Y-78030042D01*
X190450599Y-78639582D01*
X190474659Y-79289377D01*
X190677035Y-79777958D01*
X190943837Y-79876557D01*
X191916395Y-78904000D01*
X191916395Y-79263210D01*
X191123443Y-80056163D01*
X191222042Y-80322965D01*
X191831582Y-80549401D01*
X192481377Y-80525341D01*
X192969958Y-80322965D01*
X193068557Y-80056163D01*
X193068557Y-94015000D01*
X188142774Y-94015000D01*
X188142774Y-78580306D01*
X187894462Y-77979345D01*
X187435073Y-77519154D01*
X186834547Y-77269794D01*
X186579687Y-77269571D01*
X186579687Y-56386216D01*
X186415689Y-55989311D01*
X186135000Y-55708131D01*
X186135000Y-40740000D01*
X185995319Y-40037776D01*
X185753763Y-39676262D01*
X185854327Y-39575699D01*
X185951000Y-39342310D01*
X185951000Y-39089691D01*
X185951000Y-38485750D01*
X185951000Y-37914250D01*
X185951000Y-37310309D01*
X185951000Y-37057690D01*
X185854327Y-36824301D01*
X185675698Y-36645673D01*
X185442309Y-36549000D01*
X184585750Y-36549000D01*
X184427000Y-36707750D01*
X184427000Y-38073000D01*
X185792250Y-38073000D01*
X185951000Y-37914250D01*
X185951000Y-38485750D01*
X185792250Y-38327000D01*
X184427000Y-38327000D01*
X184427000Y-38347000D01*
X184173000Y-38347000D01*
X184173000Y-38327000D01*
X184173000Y-38073000D01*
X184173000Y-36707750D01*
X184014250Y-36549000D01*
X183157691Y-36549000D01*
X182924302Y-36645673D01*
X182745673Y-36824301D01*
X182649000Y-37057690D01*
X182649000Y-37310309D01*
X182649000Y-37914250D01*
X182807750Y-38073000D01*
X184173000Y-38073000D01*
X184173000Y-38327000D01*
X182807750Y-38327000D01*
X182649000Y-38485750D01*
X182649000Y-38905000D01*
X180885010Y-38905000D01*
X180885010Y-38884701D01*
X180788337Y-38651312D01*
X180609709Y-38472683D01*
X180376320Y-38376010D01*
X180123701Y-38376010D01*
X177423681Y-38376010D01*
X177190292Y-38472683D01*
X177011663Y-38651311D01*
X176914990Y-38884700D01*
X176914990Y-39137319D01*
X176914990Y-43137819D01*
X177011663Y-43371208D01*
X177190291Y-43549837D01*
X177423680Y-43646510D01*
X177676299Y-43646510D01*
X180376319Y-43646510D01*
X180609708Y-43549837D01*
X180788337Y-43371209D01*
X180885010Y-43137820D01*
X180885010Y-42885201D01*
X180885010Y-42575000D01*
X183275000Y-42575000D01*
X183275000Y-43151974D01*
X183136673Y-43290301D01*
X183040000Y-43523690D01*
X183040000Y-43776309D01*
X183040000Y-44776309D01*
X183136673Y-45009698D01*
X183276974Y-45150000D01*
X183136673Y-45290302D01*
X183040000Y-45523691D01*
X183040000Y-45864250D01*
X183198750Y-46023000D01*
X184173000Y-46023000D01*
X184173000Y-46003000D01*
X184427000Y-46003000D01*
X184427000Y-46023000D01*
X185401250Y-46023000D01*
X185560000Y-45864250D01*
X185560000Y-45523691D01*
X185463327Y-45290302D01*
X185323025Y-45149999D01*
X185463327Y-45009699D01*
X185560000Y-44776310D01*
X185560000Y-44523691D01*
X185560000Y-43523691D01*
X185463327Y-43290302D01*
X185325000Y-43151974D01*
X185325000Y-42219647D01*
X185597541Y-42037541D01*
X185995319Y-41442224D01*
X186135000Y-40740000D01*
X186135000Y-55708131D01*
X186112286Y-55685378D01*
X185715668Y-55520687D01*
X185560000Y-55520551D01*
X185560000Y-46776309D01*
X185560000Y-46435750D01*
X185401250Y-46277000D01*
X184427000Y-46277000D01*
X184427000Y-47126250D01*
X184585750Y-47285000D01*
X184798691Y-47285000D01*
X185051310Y-47285000D01*
X185284699Y-47188327D01*
X185463327Y-47009698D01*
X185560000Y-46776309D01*
X185560000Y-55520551D01*
X185286216Y-55520313D01*
X184889311Y-55684311D01*
X184585378Y-55987714D01*
X184420687Y-56384332D01*
X184420313Y-56813784D01*
X184584311Y-57210689D01*
X184738000Y-57364646D01*
X184738000Y-59334369D01*
X184173000Y-59899369D01*
X184173000Y-47126250D01*
X184173000Y-46277000D01*
X183198750Y-46277000D01*
X183040000Y-46435750D01*
X183040000Y-46776309D01*
X183136673Y-47009698D01*
X183315301Y-47188327D01*
X183548690Y-47285000D01*
X183801309Y-47285000D01*
X184014250Y-47285000D01*
X184173000Y-47126250D01*
X184173000Y-59899369D01*
X183534369Y-60538000D01*
X181100000Y-60538000D01*
X180885010Y-60538000D01*
X180885010Y-50915299D01*
X180885010Y-49074490D01*
X180885010Y-48502990D01*
X180885010Y-46662181D01*
X180788337Y-46428792D01*
X180609709Y-46250163D01*
X180376320Y-46153490D01*
X180123701Y-46153490D01*
X179185750Y-46153490D01*
X179027000Y-46312240D01*
X179027000Y-48661740D01*
X180726260Y-48661740D01*
X180885010Y-48502990D01*
X180885010Y-49074490D01*
X180726260Y-48915740D01*
X179027000Y-48915740D01*
X179027000Y-51265240D01*
X179185750Y-51423990D01*
X180123701Y-51423990D01*
X180376320Y-51423990D01*
X180609709Y-51327317D01*
X180788337Y-51148688D01*
X180885010Y-50915299D01*
X180885010Y-60538000D01*
X179936025Y-60538000D01*
X179909699Y-60511673D01*
X179676310Y-60415000D01*
X179423691Y-60415000D01*
X179234234Y-60415000D01*
X179234234Y-54276306D01*
X178985922Y-53675345D01*
X178773000Y-53462051D01*
X178773000Y-51265240D01*
X178773000Y-48915740D01*
X178773000Y-48661740D01*
X178773000Y-46312240D01*
X178614250Y-46153490D01*
X177676299Y-46153490D01*
X177423680Y-46153490D01*
X177190291Y-46250163D01*
X177011663Y-46428792D01*
X176914990Y-46662181D01*
X176914990Y-48502990D01*
X177073740Y-48661740D01*
X178773000Y-48661740D01*
X178773000Y-48915740D01*
X177073740Y-48915740D01*
X176914990Y-49074490D01*
X176914990Y-50915299D01*
X177011663Y-51148688D01*
X177190291Y-51327317D01*
X177423680Y-51423990D01*
X177676299Y-51423990D01*
X178614250Y-51423990D01*
X178773000Y-51265240D01*
X178773000Y-53462051D01*
X178526533Y-53215154D01*
X177926007Y-52965794D01*
X177275766Y-52965226D01*
X176674805Y-53213538D01*
X176214614Y-53672927D01*
X175965254Y-54273453D01*
X175964686Y-54923694D01*
X176212998Y-55524655D01*
X176672387Y-55984846D01*
X177272913Y-56234206D01*
X177923154Y-56234774D01*
X178524115Y-55986462D01*
X178984306Y-55527073D01*
X179233666Y-54926547D01*
X179234234Y-54276306D01*
X179234234Y-60415000D01*
X177923691Y-60415000D01*
X177690302Y-60511673D01*
X177511673Y-60690301D01*
X177449999Y-60839193D01*
X177388327Y-60690302D01*
X177209699Y-60511673D01*
X177103845Y-60467826D01*
X177229313Y-60165668D01*
X177229687Y-59736216D01*
X177065689Y-59339311D01*
X176762286Y-59035378D01*
X176365668Y-58870687D01*
X175936216Y-58870313D01*
X175735000Y-58953453D01*
X175735000Y-52351310D01*
X175735000Y-52098691D01*
X175735000Y-51885750D01*
X175735000Y-51314250D01*
X175735000Y-51101309D01*
X175735000Y-50848690D01*
X175735000Y-49751310D01*
X175735000Y-49498691D01*
X175735000Y-49285750D01*
X175735000Y-48714250D01*
X175735000Y-48501309D01*
X175735000Y-48248690D01*
X175735000Y-47001310D01*
X175735000Y-46748691D01*
X175735000Y-46535750D01*
X175735000Y-45964250D01*
X175735000Y-45751309D01*
X175735000Y-45498690D01*
X175638327Y-45265301D01*
X175459698Y-45086673D01*
X175226309Y-44990000D01*
X174885750Y-44990000D01*
X174727000Y-45148750D01*
X174727000Y-46123000D01*
X175576250Y-46123000D01*
X175735000Y-45964250D01*
X175735000Y-46535750D01*
X175576250Y-46377000D01*
X174727000Y-46377000D01*
X174727000Y-47351250D01*
X174885750Y-47510000D01*
X175226309Y-47510000D01*
X175459698Y-47413327D01*
X175638327Y-47234699D01*
X175735000Y-47001310D01*
X175735000Y-48248690D01*
X175638327Y-48015301D01*
X175459698Y-47836673D01*
X175226309Y-47740000D01*
X174885750Y-47740000D01*
X174727000Y-47898750D01*
X174727000Y-48873000D01*
X175576250Y-48873000D01*
X175735000Y-48714250D01*
X175735000Y-49285750D01*
X175576250Y-49127000D01*
X174727000Y-49127000D01*
X174727000Y-50101250D01*
X174885750Y-50260000D01*
X175226309Y-50260000D01*
X175459698Y-50163327D01*
X175638327Y-49984699D01*
X175735000Y-49751310D01*
X175735000Y-50848690D01*
X175638327Y-50615301D01*
X175459698Y-50436673D01*
X175226309Y-50340000D01*
X174885750Y-50340000D01*
X174727000Y-50498750D01*
X174727000Y-51473000D01*
X175576250Y-51473000D01*
X175735000Y-51314250D01*
X175735000Y-51885750D01*
X175576250Y-51727000D01*
X174727000Y-51727000D01*
X174727000Y-52701250D01*
X174885750Y-52860000D01*
X175226309Y-52860000D01*
X175459698Y-52763327D01*
X175638327Y-52584699D01*
X175735000Y-52351310D01*
X175735000Y-58953453D01*
X175539311Y-59034311D01*
X175235378Y-59337714D01*
X175070687Y-59734332D01*
X175070313Y-60163784D01*
X175181358Y-60432534D01*
X174990302Y-60511673D01*
X174811673Y-60690301D01*
X174715000Y-60923690D01*
X174715000Y-61176309D01*
X174715000Y-62476309D01*
X174811673Y-62709698D01*
X174990301Y-62888327D01*
X175223690Y-62985000D01*
X175476309Y-62985000D01*
X176976309Y-62985000D01*
X177209698Y-62888327D01*
X177388327Y-62709699D01*
X177450000Y-62560806D01*
X177511673Y-62709698D01*
X177690301Y-62888327D01*
X177923690Y-62985000D01*
X178176309Y-62985000D01*
X179676309Y-62985000D01*
X179909698Y-62888327D01*
X180088327Y-62709699D01*
X180185000Y-62476310D01*
X180185000Y-62223691D01*
X180185000Y-62062000D01*
X180338000Y-62062000D01*
X180338000Y-62285270D01*
X180235378Y-62387714D01*
X180070687Y-62784332D01*
X180070313Y-63213784D01*
X180234311Y-63610689D01*
X180537714Y-63914622D01*
X180934332Y-64079313D01*
X181363784Y-64079687D01*
X181760689Y-63915689D01*
X182064622Y-63612286D01*
X182229313Y-63215668D01*
X182229687Y-62786216D01*
X182065689Y-62389311D01*
X181862000Y-62185266D01*
X181862000Y-62062000D01*
X183750000Y-62062000D01*
X183800000Y-62062000D01*
X183850000Y-62062000D01*
X183850000Y-62061999D01*
X184141604Y-62003996D01*
X184141605Y-62003996D01*
X184388815Y-61838815D01*
X186038815Y-60188816D01*
X186038815Y-60188815D01*
X186203996Y-59941605D01*
X186261999Y-59650000D01*
X186262000Y-59650000D01*
X186262000Y-59400000D01*
X186262000Y-57364641D01*
X186414622Y-57212286D01*
X186579313Y-56815668D01*
X186579687Y-56386216D01*
X186579687Y-77269571D01*
X186184306Y-77269226D01*
X185635284Y-77496077D01*
X185635284Y-63476205D01*
X185386894Y-62875057D01*
X184927363Y-62414722D01*
X184326648Y-62165284D01*
X183676205Y-62164716D01*
X183075057Y-62413106D01*
X182614722Y-62872637D01*
X182365284Y-63473352D01*
X182364716Y-64123795D01*
X182613106Y-64724943D01*
X183072637Y-65185278D01*
X183673352Y-65434716D01*
X184323795Y-65435284D01*
X184924943Y-65186894D01*
X185385278Y-64727363D01*
X185634716Y-64126648D01*
X185635284Y-63476205D01*
X185635284Y-77496077D01*
X185583345Y-77517538D01*
X185123154Y-77976927D01*
X185104084Y-78022851D01*
X185103462Y-78021345D01*
X184644073Y-77561154D01*
X184043547Y-77311794D01*
X183393306Y-77311226D01*
X182792345Y-77559538D01*
X182332154Y-78018927D01*
X182082794Y-78619453D01*
X182082226Y-79269694D01*
X182330538Y-79870655D01*
X182789927Y-80330846D01*
X183390453Y-80580206D01*
X184040694Y-80580774D01*
X184641655Y-80332462D01*
X185101846Y-79873073D01*
X185120915Y-79827148D01*
X185121538Y-79828655D01*
X185580927Y-80288846D01*
X186181453Y-80538206D01*
X186831694Y-80538774D01*
X187432655Y-80290462D01*
X187892846Y-79831073D01*
X188142206Y-79230547D01*
X188142774Y-78580306D01*
X188142774Y-94015000D01*
X181692402Y-94015000D01*
X181988846Y-93719073D01*
X182238206Y-93118547D01*
X182238774Y-92468306D01*
X182238774Y-86880306D01*
X181990462Y-86279345D01*
X181531073Y-85819154D01*
X180930547Y-85569794D01*
X180280306Y-85569226D01*
X179763774Y-85782652D01*
X179763774Y-78622306D01*
X179515462Y-78021345D01*
X179056073Y-77561154D01*
X178455547Y-77311794D01*
X177805306Y-77311226D01*
X177204345Y-77559538D01*
X176744154Y-78018927D01*
X176494794Y-78619453D01*
X176494226Y-79269694D01*
X176742538Y-79870655D01*
X177201927Y-80330846D01*
X177802453Y-80580206D01*
X178452694Y-80580774D01*
X179053655Y-80332462D01*
X179513846Y-79873073D01*
X179763206Y-79272547D01*
X179763774Y-78622306D01*
X179763774Y-85782652D01*
X179679345Y-85817538D01*
X179219154Y-86276927D01*
X178969794Y-86877453D01*
X178969226Y-87527694D01*
X179217538Y-88128655D01*
X179676927Y-88588846D01*
X180277453Y-88838206D01*
X180927694Y-88838774D01*
X181528655Y-88590462D01*
X181988846Y-88131073D01*
X182238206Y-87530547D01*
X182238774Y-86880306D01*
X182238774Y-92468306D01*
X181990462Y-91867345D01*
X181531073Y-91407154D01*
X180930547Y-91157794D01*
X180280306Y-91157226D01*
X179679345Y-91405538D01*
X179219154Y-91864927D01*
X178969794Y-92465453D01*
X178969226Y-93115694D01*
X179217538Y-93716655D01*
X179515363Y-94015000D01*
X174910000Y-94015000D01*
X174910000Y-72101310D01*
X174910000Y-71848691D01*
X174910000Y-71635750D01*
X174751250Y-71477000D01*
X173902000Y-71477000D01*
X173902000Y-72451250D01*
X174060750Y-72610000D01*
X174401309Y-72610000D01*
X174634698Y-72513327D01*
X174813327Y-72334699D01*
X174910000Y-72101310D01*
X174910000Y-94015000D01*
X174053731Y-94015000D01*
X174053731Y-84190914D01*
X173851146Y-83700620D01*
X173476353Y-83325173D01*
X172986413Y-83121732D01*
X172455914Y-83121269D01*
X171965620Y-83323854D01*
X171590173Y-83698647D01*
X171449906Y-84036446D01*
X171311146Y-83700620D01*
X170936353Y-83325173D01*
X170446413Y-83121732D01*
X169915914Y-83121269D01*
X169425620Y-83323854D01*
X169050173Y-83698647D01*
X168909906Y-84036446D01*
X168771146Y-83700620D01*
X168396353Y-83325173D01*
X167906413Y-83121732D01*
X167375914Y-83121269D01*
X166885620Y-83323854D01*
X166510173Y-83698647D01*
X166369906Y-84036446D01*
X166231146Y-83700620D01*
X165856353Y-83325173D01*
X165366413Y-83121732D01*
X164835914Y-83121269D01*
X164345620Y-83323854D01*
X163970173Y-83698647D01*
X163893500Y-83883295D01*
X163893500Y-83630191D01*
X163796827Y-83396802D01*
X163618199Y-83218173D01*
X163384810Y-83121500D01*
X163132191Y-83121500D01*
X161735191Y-83121500D01*
X161501802Y-83218173D01*
X161323173Y-83396801D01*
X161226500Y-83630190D01*
X161226500Y-83882809D01*
X161226500Y-84492317D01*
X161219999Y-84525000D01*
X161226500Y-84557682D01*
X161226500Y-85279809D01*
X161323173Y-85513198D01*
X161501801Y-85691827D01*
X161735190Y-85788500D01*
X161987809Y-85788500D01*
X162457317Y-85788500D01*
X162490000Y-85795001D01*
X162522682Y-85788500D01*
X163384809Y-85788500D01*
X163618198Y-85691827D01*
X163796827Y-85513199D01*
X163893500Y-85279810D01*
X163893500Y-85027191D01*
X163893500Y-85027009D01*
X163968854Y-85209380D01*
X164343647Y-85584827D01*
X164833587Y-85788268D01*
X165364086Y-85788731D01*
X165854380Y-85586146D01*
X166229827Y-85211353D01*
X166370093Y-84873553D01*
X166508854Y-85209380D01*
X166883647Y-85584827D01*
X166963740Y-85618084D01*
X166471345Y-85821538D01*
X166011154Y-86280927D01*
X165761794Y-86881453D01*
X165761226Y-87531694D01*
X166009538Y-88132655D01*
X166468927Y-88592846D01*
X167069453Y-88842206D01*
X167719694Y-88842774D01*
X168320655Y-88594462D01*
X168780846Y-88135073D01*
X169030206Y-87534547D01*
X169030774Y-86884306D01*
X168782462Y-86283345D01*
X168323073Y-85823154D01*
X168072544Y-85719125D01*
X168394380Y-85586146D01*
X168769827Y-85211353D01*
X168910093Y-84873553D01*
X169048854Y-85209380D01*
X169423647Y-85584827D01*
X169913587Y-85788268D01*
X170444086Y-85788731D01*
X170934380Y-85586146D01*
X171309827Y-85211353D01*
X171450093Y-84873553D01*
X171588854Y-85209380D01*
X171963647Y-85584827D01*
X172453587Y-85788268D01*
X172984086Y-85788731D01*
X173474380Y-85586146D01*
X173849827Y-85211353D01*
X174053268Y-84721413D01*
X174053731Y-84190914D01*
X174053731Y-94015000D01*
X169041401Y-94015000D01*
X169041401Y-93060418D01*
X169017341Y-92410623D01*
X168814965Y-91922042D01*
X168548163Y-91823443D01*
X168368557Y-92003048D01*
X168368557Y-91643837D01*
X168269958Y-91377035D01*
X167660418Y-91150599D01*
X167010623Y-91174659D01*
X166522042Y-91377035D01*
X166423443Y-91643837D01*
X167396000Y-92616395D01*
X168368557Y-91643837D01*
X168368557Y-92003048D01*
X167575605Y-92796000D01*
X168548163Y-93768557D01*
X168814965Y-93669958D01*
X169041401Y-93060418D01*
X169041401Y-94015000D01*
X168343856Y-94015000D01*
X168368557Y-93948163D01*
X167396000Y-92975605D01*
X167216395Y-93155210D01*
X167216395Y-92796000D01*
X166243837Y-91823443D01*
X165977035Y-91922042D01*
X165750599Y-92531582D01*
X165774659Y-93181377D01*
X165977035Y-93669958D01*
X166243837Y-93768557D01*
X167216395Y-92796000D01*
X167216395Y-93155210D01*
X166423443Y-93948163D01*
X166448143Y-94015000D01*
X160426774Y-94015000D01*
X160426774Y-79472306D01*
X160178462Y-78871345D01*
X159719073Y-78411154D01*
X159118547Y-78161794D01*
X158468306Y-78161226D01*
X157867345Y-78409538D01*
X157407154Y-78868927D01*
X157157794Y-79469453D01*
X157157226Y-80119694D01*
X157405538Y-80720655D01*
X157864927Y-81180846D01*
X158465453Y-81430206D01*
X159115694Y-81430774D01*
X159716655Y-81182462D01*
X160176846Y-80723073D01*
X160426206Y-80122547D01*
X160426774Y-79472306D01*
X160426774Y-94015000D01*
X154191401Y-94015000D01*
X154191401Y-92960418D01*
X154180774Y-92673411D01*
X154180774Y-86784306D01*
X153932462Y-86183345D01*
X153473073Y-85723154D01*
X152872547Y-85473794D01*
X152222306Y-85473226D01*
X151621345Y-85721538D01*
X151468557Y-85874059D01*
X151468557Y-80956163D01*
X150496000Y-79983605D01*
X150316395Y-80163210D01*
X150316395Y-79804000D01*
X149343837Y-78831443D01*
X149173000Y-78894577D01*
X149173000Y-77901250D01*
X149173000Y-76927000D01*
X149173000Y-76673000D01*
X149173000Y-75698750D01*
X149014250Y-75540000D01*
X148673691Y-75540000D01*
X148440302Y-75636673D01*
X148261673Y-75815301D01*
X148165000Y-76048690D01*
X148165000Y-76301309D01*
X148165000Y-76514250D01*
X148323750Y-76673000D01*
X149173000Y-76673000D01*
X149173000Y-76927000D01*
X148323750Y-76927000D01*
X148165000Y-77085750D01*
X148165000Y-77298691D01*
X148165000Y-77551310D01*
X148261673Y-77784699D01*
X148440302Y-77963327D01*
X148673691Y-78060000D01*
X149014250Y-78060000D01*
X149173000Y-77901250D01*
X149173000Y-78894577D01*
X149077035Y-78930042D01*
X148850599Y-79539582D01*
X148874659Y-80189377D01*
X149077035Y-80677958D01*
X149343837Y-80776557D01*
X150316395Y-79804000D01*
X150316395Y-80163210D01*
X149523443Y-80956163D01*
X149622042Y-81222965D01*
X150231582Y-81449401D01*
X150881377Y-81425341D01*
X151369958Y-81222965D01*
X151468557Y-80956163D01*
X151468557Y-85874059D01*
X151161154Y-86180927D01*
X150911794Y-86781453D01*
X150911226Y-87431694D01*
X151159538Y-88032655D01*
X151618927Y-88492846D01*
X152219453Y-88742206D01*
X152869694Y-88742774D01*
X153470655Y-88494462D01*
X153930846Y-88035073D01*
X154180206Y-87434547D01*
X154180774Y-86784306D01*
X154180774Y-92673411D01*
X154167341Y-92310623D01*
X153964965Y-91822042D01*
X153698163Y-91723443D01*
X153518557Y-91903048D01*
X153518557Y-91543837D01*
X153419958Y-91277035D01*
X152810418Y-91050599D01*
X152160623Y-91074659D01*
X151672042Y-91277035D01*
X151573443Y-91543837D01*
X152546000Y-92516395D01*
X153518557Y-91543837D01*
X153518557Y-91903048D01*
X152725605Y-92696000D01*
X153698163Y-93668557D01*
X153964965Y-93569958D01*
X154191401Y-92960418D01*
X154191401Y-94015000D01*
X153456900Y-94015000D01*
X153518557Y-93848163D01*
X152546000Y-92875605D01*
X152366395Y-93055210D01*
X152366395Y-92696000D01*
X151393837Y-91723443D01*
X151127035Y-91822042D01*
X150900599Y-92431582D01*
X150924659Y-93081377D01*
X151127035Y-93569958D01*
X151393837Y-93668557D01*
X152366395Y-92696000D01*
X152366395Y-93055210D01*
X151573443Y-93848163D01*
X151635099Y-94015000D01*
X146542774Y-94015000D01*
X146542774Y-79480306D01*
X146294462Y-78879345D01*
X145860000Y-78444124D01*
X145860000Y-73126309D01*
X145860000Y-72785750D01*
X145701250Y-72627000D01*
X144727000Y-72627000D01*
X144727000Y-73476250D01*
X144885750Y-73635000D01*
X145098691Y-73635000D01*
X145351310Y-73635000D01*
X145584699Y-73538327D01*
X145763327Y-73359698D01*
X145860000Y-73126309D01*
X145860000Y-78444124D01*
X145835073Y-78419154D01*
X145234547Y-78169794D01*
X144584306Y-78169226D01*
X143983345Y-78417538D01*
X143523154Y-78876927D01*
X143404180Y-79163446D01*
X142918547Y-78961794D01*
X142268306Y-78961226D01*
X141667345Y-79209538D01*
X141207154Y-79668927D01*
X140957794Y-80269453D01*
X140957226Y-80919694D01*
X141205538Y-81520655D01*
X141664927Y-81980846D01*
X142265453Y-82230206D01*
X142915694Y-82230774D01*
X143516655Y-81982462D01*
X143976846Y-81523073D01*
X144095819Y-81236553D01*
X144581453Y-81438206D01*
X145231694Y-81438774D01*
X145832655Y-81190462D01*
X146292846Y-80731073D01*
X146542206Y-80130547D01*
X146542774Y-79480306D01*
X146542774Y-94015000D01*
X138638774Y-94015000D01*
X138638774Y-80272306D01*
X138390462Y-79671345D01*
X137931073Y-79211154D01*
X137330547Y-78961794D01*
X136680306Y-78961226D01*
X136079345Y-79209538D01*
X135619154Y-79668927D01*
X135369794Y-80269453D01*
X135369226Y-80919694D01*
X135617538Y-81520655D01*
X136076927Y-81980846D01*
X136677453Y-82230206D01*
X137327694Y-82230774D01*
X137928655Y-81982462D01*
X138388846Y-81523073D01*
X138638206Y-80922547D01*
X138638774Y-80272306D01*
X138638774Y-94015000D01*
X135085000Y-94015000D01*
X135085000Y-76800000D01*
X135045000Y-76598908D01*
X135045000Y-76000000D01*
X135032606Y-75937696D01*
X135032607Y-75924167D01*
X134960293Y-75560618D01*
X134960292Y-75560617D01*
X134863984Y-75328109D01*
X134863983Y-75328108D01*
X134863983Y-75328107D01*
X134792032Y-75220426D01*
X134793534Y-74773000D01*
X134376901Y-74773000D01*
X134171893Y-74636017D01*
X134171891Y-74636016D01*
X133939383Y-74539708D01*
X133939381Y-74539707D01*
X133575833Y-74467393D01*
X133512304Y-74467393D01*
X133450000Y-74455000D01*
X132479460Y-74455000D01*
X132526300Y-65977000D01*
X134869381Y-65977000D01*
X134870492Y-65379344D01*
X135263784Y-65379687D01*
X135660689Y-65215689D01*
X135789602Y-65087000D01*
X138025000Y-65087000D01*
X138100000Y-65087000D01*
X138550000Y-65087000D01*
X139250000Y-65087000D01*
X139270882Y-65087000D01*
X139270883Y-65087000D01*
X139384376Y-65162834D01*
X139483395Y-65228996D01*
X139483396Y-65228996D01*
X139775000Y-65287000D01*
X140260358Y-65287000D01*
X140412714Y-65439622D01*
X140746043Y-65578033D01*
X140665000Y-65773690D01*
X140665000Y-66026309D01*
X140665000Y-67826309D01*
X140761673Y-68059698D01*
X140940301Y-68238327D01*
X141046674Y-68282388D01*
X140899449Y-68429357D01*
X140699797Y-68910171D01*
X140502068Y-68431629D01*
X140070643Y-67999449D01*
X139506670Y-67765267D01*
X138896009Y-67764735D01*
X138331629Y-67997932D01*
X137899449Y-68429357D01*
X137665267Y-68993330D01*
X137664735Y-69603991D01*
X137897932Y-70168371D01*
X138279181Y-70550287D01*
X137899449Y-70929357D01*
X137665267Y-71493330D01*
X137664735Y-72103991D01*
X137897932Y-72668371D01*
X138329357Y-73100551D01*
X138893330Y-73334733D01*
X139503991Y-73335265D01*
X140068371Y-73102068D01*
X140500551Y-72670643D01*
X140700202Y-72189828D01*
X140897932Y-72668371D01*
X141329357Y-73100551D01*
X141893330Y-73334733D01*
X142503991Y-73335265D01*
X143068371Y-73102068D01*
X143340000Y-72830913D01*
X143340000Y-73126309D01*
X143436673Y-73359698D01*
X143615301Y-73538327D01*
X143848690Y-73635000D01*
X144101309Y-73635000D01*
X144314250Y-73635000D01*
X144473000Y-73476250D01*
X144473000Y-72627000D01*
X144453000Y-72627000D01*
X144453000Y-72373000D01*
X144473000Y-72373000D01*
X144473000Y-72353000D01*
X144727000Y-72353000D01*
X144727000Y-72373000D01*
X145701250Y-72373000D01*
X145860000Y-72214250D01*
X145860000Y-71873691D01*
X145763327Y-71640302D01*
X145623025Y-71499999D01*
X145763327Y-71359699D01*
X145860000Y-71126310D01*
X145860000Y-70873691D01*
X145860000Y-69873691D01*
X145763327Y-69640302D01*
X145584699Y-69461673D01*
X145351310Y-69365000D01*
X145122236Y-69365000D01*
X144428618Y-68671382D01*
X144149678Y-68485000D01*
X144251309Y-68485000D01*
X144464250Y-68485000D01*
X144623000Y-68326250D01*
X144623000Y-67477000D01*
X144603000Y-67477000D01*
X144603000Y-67223000D01*
X144623000Y-67223000D01*
X144623000Y-67203000D01*
X144877000Y-67203000D01*
X144877000Y-67223000D01*
X144897000Y-67223000D01*
X144897000Y-67477000D01*
X144877000Y-67477000D01*
X144877000Y-68326250D01*
X145035750Y-68485000D01*
X145248691Y-68485000D01*
X145465000Y-68485000D01*
X145465000Y-68526309D01*
X145561673Y-68759698D01*
X145740301Y-68938327D01*
X145973690Y-69035000D01*
X146226309Y-69035000D01*
X147526309Y-69035000D01*
X147759698Y-68938327D01*
X147938327Y-68759699D01*
X148035000Y-68526310D01*
X148035000Y-68273691D01*
X148035000Y-67622236D01*
X149028618Y-66628618D01*
X149221329Y-66340206D01*
X149289000Y-66000000D01*
X149289000Y-65850000D01*
X149289000Y-65146236D01*
X149861000Y-65718236D01*
X149861000Y-66290974D01*
X149761673Y-66390301D01*
X149665000Y-66623690D01*
X149665000Y-66876309D01*
X149665000Y-68176309D01*
X149761673Y-68409698D01*
X149926974Y-68575000D01*
X149811673Y-68690301D01*
X149740031Y-68863259D01*
X149662286Y-68785378D01*
X149265668Y-68620687D01*
X148836216Y-68620313D01*
X148439311Y-68784311D01*
X148135378Y-69087714D01*
X147970687Y-69484332D01*
X147970313Y-69913784D01*
X148134311Y-70310689D01*
X148437714Y-70614622D01*
X148834332Y-70779313D01*
X149263784Y-70779687D01*
X149660689Y-70615689D01*
X149739956Y-70536559D01*
X149811673Y-70709698D01*
X149990301Y-70888327D01*
X150223690Y-70985000D01*
X150476309Y-70985000D01*
X150904696Y-70985000D01*
X150840302Y-71011673D01*
X150661673Y-71190301D01*
X150565000Y-71423690D01*
X150565000Y-71676309D01*
X150565000Y-71914250D01*
X150723750Y-72073000D01*
X151823000Y-72073000D01*
X151823000Y-72053000D01*
X152077000Y-72053000D01*
X152077000Y-72073000D01*
X152097000Y-72073000D01*
X152097000Y-72327000D01*
X152077000Y-72327000D01*
X152077000Y-72347000D01*
X151823000Y-72347000D01*
X151823000Y-72327000D01*
X150723750Y-72327000D01*
X150565000Y-72485750D01*
X150565000Y-72723691D01*
X150565000Y-72976310D01*
X150661673Y-73209699D01*
X150840302Y-73388327D01*
X151073691Y-73485000D01*
X151270670Y-73485000D01*
X151265000Y-73498690D01*
X151265000Y-73751309D01*
X151265000Y-73964250D01*
X151423750Y-74123000D01*
X152273000Y-74123000D01*
X152273000Y-74103000D01*
X152527000Y-74103000D01*
X152527000Y-74123000D01*
X152547000Y-74123000D01*
X152547000Y-74377000D01*
X152527000Y-74377000D01*
X152527000Y-75351250D01*
X152663000Y-75487250D01*
X152663000Y-76038000D01*
X152430571Y-76038000D01*
X152338327Y-75815302D01*
X152273000Y-75749974D01*
X152273000Y-75351250D01*
X152273000Y-74377000D01*
X151423750Y-74377000D01*
X151265000Y-74535750D01*
X151265000Y-74748691D01*
X151265000Y-75001310D01*
X151361673Y-75234699D01*
X151540302Y-75413327D01*
X151773691Y-75510000D01*
X152114250Y-75510000D01*
X152273000Y-75351250D01*
X152273000Y-75749974D01*
X152159699Y-75636673D01*
X151926310Y-75540000D01*
X151673691Y-75540000D01*
X150673691Y-75540000D01*
X150440302Y-75636673D01*
X150300000Y-75776974D01*
X150159698Y-75636673D01*
X149926309Y-75540000D01*
X149585750Y-75540000D01*
X149427000Y-75698750D01*
X149427000Y-76673000D01*
X149447000Y-76673000D01*
X149447000Y-76927000D01*
X149427000Y-76927000D01*
X149427000Y-77901250D01*
X149585750Y-78060000D01*
X149926309Y-78060000D01*
X150159698Y-77963327D01*
X150300000Y-77823025D01*
X150440301Y-77963327D01*
X150673690Y-78060000D01*
X150926309Y-78060000D01*
X151926309Y-78060000D01*
X152159698Y-77963327D01*
X152338327Y-77784699D01*
X152430572Y-77562000D01*
X152825722Y-77562000D01*
X152795687Y-77634332D01*
X152795313Y-78063784D01*
X152842098Y-78177013D01*
X152279345Y-78409538D01*
X151819154Y-78868927D01*
X151809899Y-78891214D01*
X151648163Y-78831443D01*
X151468557Y-79011048D01*
X151468557Y-78651837D01*
X151369958Y-78385035D01*
X150760418Y-78158599D01*
X150110623Y-78182659D01*
X149622042Y-78385035D01*
X149523443Y-78651837D01*
X150496000Y-79624395D01*
X151468557Y-78651837D01*
X151468557Y-79011048D01*
X150675605Y-79804000D01*
X151648163Y-80776557D01*
X151815139Y-80714849D01*
X151817538Y-80720655D01*
X152276927Y-81180846D01*
X152877453Y-81430206D01*
X153527694Y-81430774D01*
X154128655Y-81182462D01*
X154149500Y-81161653D01*
X154149500Y-81923747D01*
X154060378Y-82012714D01*
X153895687Y-82409332D01*
X153895313Y-82838784D01*
X154059311Y-83235689D01*
X154362714Y-83539622D01*
X154759332Y-83704313D01*
X155188784Y-83704687D01*
X155585689Y-83540689D01*
X155889622Y-83237286D01*
X156054313Y-82840668D01*
X156054687Y-82411216D01*
X155890689Y-82014311D01*
X155800500Y-81923964D01*
X155800500Y-78950005D01*
X155800500Y-78950000D01*
X155800501Y-78950000D01*
X155737663Y-78634095D01*
X155737663Y-78634094D01*
X155558717Y-78366283D01*
X154954577Y-77762143D01*
X154954687Y-77636216D01*
X154924021Y-77562000D01*
X161417540Y-77562000D01*
X161428854Y-77589380D01*
X161803647Y-77964827D01*
X162293587Y-78168268D01*
X162824086Y-78168731D01*
X163314380Y-77966146D01*
X163689827Y-77591353D01*
X163830093Y-77253553D01*
X163968854Y-77589380D01*
X164343647Y-77964827D01*
X164833587Y-78168268D01*
X165364086Y-78168731D01*
X165854380Y-77966146D01*
X166229827Y-77591353D01*
X166370093Y-77253553D01*
X166508854Y-77589380D01*
X166883647Y-77964827D01*
X167373587Y-78168268D01*
X167904086Y-78168731D01*
X168394380Y-77966146D01*
X168769827Y-77591353D01*
X168910093Y-77253553D01*
X169048854Y-77589380D01*
X169423647Y-77964827D01*
X169913587Y-78168268D01*
X170444086Y-78168731D01*
X170934380Y-77966146D01*
X171309827Y-77591353D01*
X171450093Y-77253553D01*
X171588854Y-77589380D01*
X171963647Y-77964827D01*
X172453587Y-78168268D01*
X172984086Y-78168731D01*
X173474380Y-77966146D01*
X173849827Y-77591353D01*
X174053268Y-77101413D01*
X174053731Y-76570914D01*
X173851146Y-76080620D01*
X173476353Y-75705173D01*
X172986413Y-75501732D01*
X172455914Y-75501269D01*
X171965620Y-75703854D01*
X171590173Y-76078647D01*
X171449906Y-76416446D01*
X171311146Y-76080620D01*
X170936353Y-75705173D01*
X170446413Y-75501732D01*
X169915914Y-75501269D01*
X169425620Y-75703854D01*
X169050173Y-76078647D01*
X168909906Y-76416446D01*
X168771146Y-76080620D01*
X168396353Y-75705173D01*
X167906413Y-75501732D01*
X167375914Y-75501269D01*
X166885620Y-75703854D01*
X166510173Y-76078647D01*
X166369906Y-76416446D01*
X166231146Y-76080620D01*
X165856353Y-75705173D01*
X165366413Y-75501732D01*
X164835914Y-75501269D01*
X164345620Y-75703854D01*
X163970173Y-76078647D01*
X163829906Y-76416446D01*
X163691146Y-76080620D01*
X163316353Y-75705173D01*
X162826413Y-75501732D01*
X162295914Y-75501269D01*
X161805620Y-75703854D01*
X161470890Y-76038000D01*
X154465630Y-76038000D01*
X154187000Y-75759369D01*
X154187000Y-75510000D01*
X155026309Y-75510000D01*
X155259698Y-75413327D01*
X155438327Y-75234699D01*
X155477966Y-75139000D01*
X155620980Y-75139000D01*
X155707749Y-75196977D01*
X155858039Y-75226871D01*
X155984332Y-75279313D01*
X156413784Y-75279687D01*
X156810689Y-75115689D01*
X156837424Y-75089000D01*
X157025000Y-75089000D01*
X157365205Y-75021329D01*
X157365206Y-75021329D01*
X157653618Y-74828618D01*
X160228618Y-72253618D01*
X160421329Y-71965206D01*
X160421329Y-71965205D01*
X160489000Y-71625000D01*
X160489000Y-70900000D01*
X160489000Y-70800000D01*
X160489000Y-70200000D01*
X160489000Y-68587863D01*
X160514622Y-68562286D01*
X160679313Y-68165668D01*
X160679687Y-67736216D01*
X160515689Y-67339311D01*
X160212286Y-67035378D01*
X159815668Y-66870687D01*
X159386216Y-66870313D01*
X158989311Y-67034311D01*
X158685378Y-67337714D01*
X158520687Y-67734332D01*
X158520313Y-68163784D01*
X158684311Y-68560689D01*
X158711000Y-68587424D01*
X158711000Y-70200000D01*
X158711000Y-70800000D01*
X158711000Y-70900000D01*
X158711000Y-71256764D01*
X156720499Y-73247264D01*
X156415668Y-73120687D01*
X155986216Y-73120313D01*
X155973108Y-73125728D01*
X156035000Y-72976310D01*
X156035000Y-72723691D01*
X156035000Y-71423691D01*
X155938327Y-71190302D01*
X155759699Y-71011673D01*
X155526310Y-70915000D01*
X155273691Y-70915000D01*
X154845303Y-70915000D01*
X154909698Y-70888327D01*
X155088327Y-70709699D01*
X155185000Y-70476310D01*
X155185000Y-70462000D01*
X155350000Y-70462000D01*
X155350000Y-70461999D01*
X155641604Y-70403996D01*
X155641605Y-70403996D01*
X155888815Y-70238815D01*
X156298130Y-69829499D01*
X156513784Y-69829687D01*
X156910689Y-69665689D01*
X157214622Y-69362286D01*
X157379313Y-68965668D01*
X157379687Y-68536216D01*
X157215689Y-68139311D01*
X156912286Y-67835378D01*
X156515668Y-67670687D01*
X156086216Y-67670313D01*
X155689311Y-67834311D01*
X155385378Y-68137714D01*
X155220687Y-68534332D01*
X155220497Y-68751872D01*
X155145072Y-68827297D01*
X155088327Y-68690302D01*
X154923025Y-68524999D01*
X155038327Y-68409699D01*
X155135000Y-68176310D01*
X155135000Y-67923691D01*
X155135000Y-67685750D01*
X155135000Y-67114250D01*
X155135000Y-66876309D01*
X155135000Y-66623690D01*
X155038327Y-66390301D01*
X154859698Y-66211673D01*
X154626309Y-66115000D01*
X154035750Y-66115000D01*
X153877000Y-66273750D01*
X153877000Y-67273000D01*
X154976250Y-67273000D01*
X155135000Y-67114250D01*
X155135000Y-67685750D01*
X154976250Y-67527000D01*
X153877000Y-67527000D01*
X153877000Y-67547000D01*
X153623000Y-67547000D01*
X153623000Y-67527000D01*
X153603000Y-67527000D01*
X153603000Y-67273000D01*
X153623000Y-67273000D01*
X153623000Y-66273750D01*
X153475940Y-66126690D01*
X154155889Y-65446740D01*
X154234332Y-65479313D01*
X154663784Y-65479687D01*
X155060689Y-65315689D01*
X155214646Y-65162000D01*
X155525000Y-65162000D01*
X161046950Y-65162000D01*
X160845732Y-65646587D01*
X160845269Y-66177086D01*
X161047854Y-66667380D01*
X161422647Y-67042827D01*
X161912587Y-67246268D01*
X162443086Y-67246731D01*
X162933380Y-67044146D01*
X163308827Y-66669353D01*
X163449093Y-66331553D01*
X163587854Y-66667380D01*
X163962647Y-67042827D01*
X164452587Y-67246268D01*
X164588000Y-67246386D01*
X164588000Y-67515000D01*
X164373691Y-67515000D01*
X164140302Y-67611673D01*
X163961673Y-67790301D01*
X163865000Y-68023690D01*
X163865000Y-68276309D01*
X163865000Y-69576309D01*
X163922503Y-69715134D01*
X163820974Y-69782974D01*
X163545673Y-70194992D01*
X163449000Y-70681000D01*
X163449000Y-73114220D01*
X163448906Y-73114446D01*
X163310146Y-72778620D01*
X162935353Y-72403173D01*
X162445413Y-72199732D01*
X161914914Y-72199269D01*
X161424620Y-72401854D01*
X161049173Y-72776647D01*
X160845732Y-73266587D01*
X160845269Y-73797086D01*
X161047854Y-74287380D01*
X161422647Y-74662827D01*
X161912587Y-74866268D01*
X162443086Y-74866731D01*
X162933380Y-74664146D01*
X163308827Y-74289353D01*
X163449093Y-73951553D01*
X163587854Y-74287380D01*
X163962647Y-74662827D01*
X164452587Y-74866268D01*
X164983086Y-74866731D01*
X165473380Y-74664146D01*
X165848827Y-74289353D01*
X165989093Y-73951553D01*
X166127854Y-74287380D01*
X166502647Y-74662827D01*
X166992587Y-74866268D01*
X167523086Y-74866731D01*
X168013380Y-74664146D01*
X168388827Y-74289353D01*
X168529093Y-73951553D01*
X168667854Y-74287380D01*
X169042647Y-74662827D01*
X169532587Y-74866268D01*
X170063086Y-74866731D01*
X170553380Y-74664146D01*
X170928827Y-74289353D01*
X171069093Y-73951553D01*
X171207854Y-74287380D01*
X171582647Y-74662827D01*
X172072587Y-74866268D01*
X172603086Y-74866731D01*
X173093380Y-74664146D01*
X173468827Y-74289353D01*
X173672268Y-73799413D01*
X173672731Y-73268914D01*
X173470146Y-72778620D01*
X173301819Y-72610000D01*
X173489250Y-72610000D01*
X173648000Y-72451250D01*
X173648000Y-71477000D01*
X173628000Y-71477000D01*
X173628000Y-71223000D01*
X173648000Y-71223000D01*
X173648000Y-71203000D01*
X173902000Y-71203000D01*
X173902000Y-71223000D01*
X174751250Y-71223000D01*
X174910000Y-71064250D01*
X174910000Y-70851309D01*
X174910000Y-70598690D01*
X174875423Y-70515214D01*
X175086008Y-70473327D01*
X175143368Y-70435000D01*
X175351309Y-70435000D01*
X175584698Y-70338327D01*
X175763327Y-70159699D01*
X175860000Y-69926310D01*
X175860000Y-69673691D01*
X175860000Y-69350273D01*
X175870000Y-69300000D01*
X175860000Y-69249726D01*
X175860000Y-68673691D01*
X175763327Y-68440302D01*
X175623025Y-68299999D01*
X175763327Y-68159699D01*
X175860000Y-67926310D01*
X175860000Y-67673691D01*
X175860000Y-67350273D01*
X175870000Y-67300000D01*
X175870000Y-65150005D01*
X175870000Y-65150000D01*
X175870001Y-65150000D01*
X175773327Y-64663992D01*
X175498026Y-64251974D01*
X174473000Y-63226948D01*
X174473000Y-52701250D01*
X174473000Y-51727000D01*
X174453000Y-51727000D01*
X174453000Y-51473000D01*
X174473000Y-51473000D01*
X174473000Y-50498750D01*
X174314250Y-50340000D01*
X173973691Y-50340000D01*
X173740302Y-50436673D01*
X173599999Y-50576974D01*
X173459699Y-50436673D01*
X173226310Y-50340000D01*
X172973691Y-50340000D01*
X172650273Y-50340000D01*
X172600000Y-50330000D01*
X172035000Y-50330000D01*
X172035000Y-50270000D01*
X172600000Y-50270000D01*
X172650273Y-50260000D01*
X173226309Y-50260000D01*
X173459698Y-50163327D01*
X173600000Y-50023025D01*
X173740302Y-50163327D01*
X173973691Y-50260000D01*
X174314250Y-50260000D01*
X174473000Y-50101250D01*
X174473000Y-49127000D01*
X174453000Y-49127000D01*
X174453000Y-48873000D01*
X174473000Y-48873000D01*
X174473000Y-47898750D01*
X174314250Y-47740000D01*
X173973691Y-47740000D01*
X173740302Y-47836673D01*
X173599999Y-47976974D01*
X173459699Y-47836673D01*
X173226310Y-47740000D01*
X172973691Y-47740000D01*
X172650273Y-47740000D01*
X172600000Y-47730000D01*
X172035000Y-47730000D01*
X172035000Y-47520000D01*
X172600000Y-47520000D01*
X172650273Y-47510000D01*
X173226309Y-47510000D01*
X173459698Y-47413327D01*
X173600000Y-47273025D01*
X173740302Y-47413327D01*
X173973691Y-47510000D01*
X174314250Y-47510000D01*
X174473000Y-47351250D01*
X174473000Y-46377000D01*
X174453000Y-46377000D01*
X174453000Y-46123000D01*
X174473000Y-46123000D01*
X174473000Y-45148750D01*
X174314250Y-44990000D01*
X173973691Y-44990000D01*
X173740302Y-45086673D01*
X173599999Y-45226974D01*
X173459699Y-45086673D01*
X173226310Y-44990000D01*
X172973691Y-44990000D01*
X172650273Y-44990000D01*
X172600000Y-44980000D01*
X171816797Y-44980000D01*
X171739659Y-44864554D01*
X171752500Y-44800000D01*
X171735430Y-44714183D01*
X171735430Y-43923371D01*
X171735430Y-41676629D01*
X171735430Y-40086010D01*
X171735430Y-39514510D01*
X171735430Y-37923891D01*
X171638757Y-37690502D01*
X171460129Y-37511873D01*
X171226740Y-37415200D01*
X170974121Y-37415200D01*
X170485750Y-37415200D01*
X170327000Y-37573950D01*
X170327000Y-39673260D01*
X171576680Y-39673260D01*
X171735430Y-39514510D01*
X171735430Y-40086010D01*
X171576680Y-39927260D01*
X170327000Y-39927260D01*
X170327000Y-42026570D01*
X170485750Y-42185320D01*
X170974121Y-42185320D01*
X171226740Y-42185320D01*
X171460129Y-42088647D01*
X171638757Y-41910018D01*
X171735430Y-41676629D01*
X171735430Y-43923371D01*
X171638757Y-43689982D01*
X171460129Y-43511353D01*
X171226740Y-43414680D01*
X170974121Y-43414680D01*
X170410022Y-43414680D01*
X169180661Y-42185320D01*
X169425879Y-42185320D01*
X169914250Y-42185320D01*
X170073000Y-42026570D01*
X170073000Y-39927260D01*
X170073000Y-39673260D01*
X170073000Y-37573950D01*
X169914250Y-37415200D01*
X169425879Y-37415200D01*
X169173260Y-37415200D01*
X168939871Y-37511873D01*
X168761243Y-37690502D01*
X168664570Y-37923891D01*
X168664570Y-39514510D01*
X168823320Y-39673260D01*
X170073000Y-39673260D01*
X170073000Y-39927260D01*
X168823320Y-39927260D01*
X168664570Y-40086010D01*
X168664570Y-41669228D01*
X164897101Y-37901759D01*
X164780128Y-37823600D01*
X164542205Y-37585261D01*
X163842290Y-37294632D01*
X163084435Y-37293970D01*
X162384014Y-37583378D01*
X161847661Y-38118795D01*
X161557032Y-38818710D01*
X161556370Y-39576565D01*
X161845778Y-40276986D01*
X162381195Y-40813339D01*
X162787036Y-40981858D01*
X163505916Y-41700738D01*
X163164918Y-41700441D01*
X162613920Y-41928108D01*
X162191990Y-42349303D01*
X161963361Y-42899902D01*
X161962841Y-43496082D01*
X162190508Y-44047080D01*
X162611703Y-44469010D01*
X163162302Y-44697639D01*
X163758482Y-44698159D01*
X164309480Y-44470492D01*
X164731410Y-44049297D01*
X164960039Y-43498698D01*
X164960338Y-43155160D01*
X168365000Y-46559822D01*
X168365000Y-48280000D01*
X167650000Y-48280000D01*
X167599726Y-48290000D01*
X167023691Y-48290000D01*
X166790302Y-48386673D01*
X166650000Y-48526974D01*
X166509698Y-48386673D01*
X166276309Y-48290000D01*
X165935750Y-48290000D01*
X165777000Y-48448750D01*
X165777000Y-49423000D01*
X165797000Y-49423000D01*
X165797000Y-49677000D01*
X165777000Y-49677000D01*
X165777000Y-50651250D01*
X165935750Y-50810000D01*
X166276309Y-50810000D01*
X166509698Y-50713327D01*
X166650000Y-50573025D01*
X166790301Y-50713327D01*
X167023690Y-50810000D01*
X167276309Y-50810000D01*
X167599726Y-50810000D01*
X167650000Y-50820000D01*
X168365000Y-50820000D01*
X168365000Y-53100000D01*
X168365000Y-53799460D01*
X168504681Y-54501684D01*
X168902459Y-55097001D01*
X169702999Y-55897541D01*
X170298316Y-56295319D01*
X171000540Y-56435000D01*
X171702765Y-56295319D01*
X172298081Y-55897541D01*
X172695859Y-55302225D01*
X172835540Y-54600000D01*
X172695859Y-53897776D01*
X172298081Y-53302459D01*
X172045836Y-53050214D01*
X172226051Y-52870000D01*
X172600000Y-52870000D01*
X172650273Y-52860000D01*
X173226309Y-52860000D01*
X173459698Y-52763327D01*
X173600000Y-52623025D01*
X173740302Y-52763327D01*
X173973691Y-52860000D01*
X174314250Y-52860000D01*
X174473000Y-52701250D01*
X174473000Y-63226948D01*
X174098026Y-62851974D01*
X164731700Y-53485648D01*
X164731700Y-52048598D01*
X164960039Y-51498698D01*
X164960559Y-50902518D01*
X164901401Y-50759346D01*
X165023691Y-50810000D01*
X165364250Y-50810000D01*
X165523000Y-50651250D01*
X165523000Y-49677000D01*
X165523000Y-49423000D01*
X165523000Y-48448750D01*
X165364250Y-48290000D01*
X165065526Y-48290000D01*
X165075739Y-48279805D01*
X165366368Y-47579890D01*
X165367030Y-46822035D01*
X165077622Y-46121614D01*
X164542205Y-45585261D01*
X163842290Y-45294632D01*
X163084435Y-45293970D01*
X162384014Y-45583378D01*
X161847661Y-46118795D01*
X161557032Y-46818710D01*
X161556370Y-47576565D01*
X161845778Y-48276986D01*
X162381195Y-48813339D01*
X163081110Y-49103968D01*
X163838965Y-49104630D01*
X164515000Y-48825298D01*
X164515000Y-49051309D01*
X164515000Y-49264250D01*
X164673750Y-49423000D01*
X165523000Y-49423000D01*
X165523000Y-49677000D01*
X164673750Y-49677000D01*
X164515000Y-49835750D01*
X164515000Y-50048691D01*
X164515000Y-50133247D01*
X164311697Y-49929590D01*
X163761098Y-49700961D01*
X163164918Y-49700441D01*
X162613920Y-49928108D01*
X162191990Y-50349303D01*
X161963361Y-50899902D01*
X161962841Y-51496082D01*
X162190508Y-52047080D01*
X162191700Y-52048274D01*
X162191700Y-54011694D01*
X162191699Y-54011700D01*
X162288373Y-54497708D01*
X162563674Y-54909726D01*
X172233448Y-64579500D01*
X171514191Y-64579500D01*
X171280802Y-64676173D01*
X171102173Y-64854801D01*
X171005500Y-65088190D01*
X171005500Y-65308672D01*
X170968800Y-65220071D01*
X170733188Y-65158417D01*
X170553583Y-65338022D01*
X169978605Y-65913000D01*
X169992747Y-65927142D01*
X169813142Y-66106747D01*
X169799000Y-66092605D01*
X169044417Y-66847188D01*
X169106071Y-67082800D01*
X169431954Y-67197500D01*
X168600000Y-67197500D01*
X168235494Y-67270005D01*
X167926481Y-67476481D01*
X167887962Y-67515000D01*
X167073691Y-67515000D01*
X166840302Y-67611673D01*
X166661673Y-67790301D01*
X166599999Y-67939193D01*
X166538327Y-67790302D01*
X166359699Y-67611673D01*
X166126310Y-67515000D01*
X166112000Y-67515000D01*
X166112000Y-66629010D01*
X166127854Y-66667380D01*
X166502647Y-67042827D01*
X166992587Y-67246268D01*
X167523086Y-67246731D01*
X168013380Y-67044146D01*
X168388827Y-66669353D01*
X168522313Y-66347881D01*
X168629200Y-66605929D01*
X168864812Y-66667583D01*
X169619395Y-65913000D01*
X169605252Y-65898857D01*
X169784857Y-65719252D01*
X169799000Y-65733395D01*
X170553583Y-64978812D01*
X170491929Y-64743200D01*
X169991520Y-64567073D01*
X169461801Y-64595852D01*
X169106071Y-64743200D01*
X169044417Y-64978809D01*
X168929163Y-64863555D01*
X168871147Y-64921570D01*
X169029313Y-64540668D01*
X169029687Y-64111216D01*
X168865689Y-63714311D01*
X168562286Y-63410378D01*
X168165668Y-63245687D01*
X167736216Y-63245313D01*
X167339311Y-63409311D01*
X167110222Y-63638000D01*
X165633345Y-63638000D01*
X165633345Y-59410000D01*
X165507670Y-58778190D01*
X165149778Y-58242567D01*
X164614155Y-57884675D01*
X163982345Y-57759000D01*
X163917655Y-57759000D01*
X163285845Y-57884675D01*
X162750222Y-58242567D01*
X162392330Y-58778190D01*
X162266655Y-59410000D01*
X162392330Y-60041810D01*
X162616965Y-60378001D01*
X162574302Y-60395673D01*
X162395673Y-60574301D01*
X162299000Y-60807690D01*
X162299000Y-61060309D01*
X162299000Y-61664250D01*
X162457750Y-61823000D01*
X163823000Y-61823000D01*
X163823000Y-61803000D01*
X164077000Y-61803000D01*
X164077000Y-61823000D01*
X165442250Y-61823000D01*
X165601000Y-61664250D01*
X165601000Y-61060309D01*
X165601000Y-60807690D01*
X165504327Y-60574301D01*
X165325698Y-60395673D01*
X165283034Y-60378001D01*
X165507670Y-60041810D01*
X165633345Y-59410000D01*
X165633345Y-63638000D01*
X165601000Y-63638000D01*
X165601000Y-63092310D01*
X165601000Y-62839691D01*
X165601000Y-62235750D01*
X165442250Y-62077000D01*
X164077000Y-62077000D01*
X164077000Y-63442250D01*
X164235750Y-63601000D01*
X165092309Y-63601000D01*
X165325698Y-63504327D01*
X165504327Y-63325699D01*
X165601000Y-63092310D01*
X165601000Y-63638000D01*
X163823000Y-63638000D01*
X163823000Y-63442250D01*
X163823000Y-62077000D01*
X162457750Y-62077000D01*
X162299000Y-62235750D01*
X162299000Y-62839691D01*
X162299000Y-63092310D01*
X162395673Y-63325699D01*
X162574302Y-63504327D01*
X162807691Y-63601000D01*
X163664250Y-63601000D01*
X163823000Y-63442250D01*
X163823000Y-63638000D01*
X161650000Y-63638000D01*
X161575000Y-63638000D01*
X161235000Y-63638000D01*
X161235000Y-63485750D01*
X161235000Y-62914250D01*
X161235000Y-62676309D01*
X161235000Y-62423690D01*
X161138327Y-62190301D01*
X160959698Y-62011673D01*
X160726309Y-61915000D01*
X160135750Y-61915000D01*
X159977000Y-62073750D01*
X159977000Y-63073000D01*
X161076250Y-63073000D01*
X161235000Y-62914250D01*
X161235000Y-63485750D01*
X161076250Y-63327000D01*
X159977000Y-63327000D01*
X159977000Y-63347000D01*
X159723000Y-63347000D01*
X159723000Y-63327000D01*
X159703000Y-63327000D01*
X159703000Y-63073000D01*
X159723000Y-63073000D01*
X159723000Y-62073750D01*
X159564250Y-61915000D01*
X158973691Y-61915000D01*
X158740302Y-62011673D01*
X158561673Y-62190301D01*
X158499999Y-62339193D01*
X158438327Y-62190302D01*
X158259699Y-62011673D01*
X158026310Y-61915000D01*
X157819090Y-61915000D01*
X157819090Y-39987313D01*
X157819090Y-38915247D01*
X157713620Y-38385012D01*
X157413266Y-37935501D01*
X156963755Y-37635147D01*
X156433520Y-37529677D01*
X155903285Y-37635147D01*
X155453774Y-37935501D01*
X155153420Y-38385012D01*
X155151570Y-38394312D01*
X155125019Y-38304603D01*
X154783464Y-37882622D01*
X154306423Y-37623470D01*
X154234795Y-37609287D01*
X154020520Y-37731941D01*
X154020520Y-39324280D01*
X154040520Y-39324280D01*
X154040520Y-39578280D01*
X154020520Y-39578280D01*
X154020520Y-41170619D01*
X154234795Y-41293273D01*
X154306423Y-41279090D01*
X154783464Y-41019938D01*
X155125019Y-40597957D01*
X155151570Y-40508247D01*
X155153420Y-40517548D01*
X155453774Y-40967059D01*
X155903285Y-41267413D01*
X156433520Y-41372883D01*
X156963755Y-41267413D01*
X157413266Y-40967059D01*
X157713620Y-40517548D01*
X157819090Y-39987313D01*
X157819090Y-61915000D01*
X157773691Y-61915000D01*
X157522236Y-61915000D01*
X157435370Y-61828134D01*
X157435370Y-53880177D01*
X156883180Y-52543775D01*
X155861603Y-51520414D01*
X154526166Y-50965892D01*
X153766520Y-50965229D01*
X153766520Y-41170619D01*
X153766520Y-39578280D01*
X153746520Y-39578280D01*
X153746520Y-39324280D01*
X153766520Y-39324280D01*
X153766520Y-37731941D01*
X153552245Y-37609287D01*
X153480617Y-37623470D01*
X153003576Y-37882622D01*
X152662021Y-38304603D01*
X152635469Y-38394312D01*
X152633620Y-38385012D01*
X152333266Y-37935501D01*
X151883755Y-37635147D01*
X151353520Y-37529677D01*
X150823285Y-37635147D01*
X150373774Y-37935501D01*
X150073420Y-38385012D01*
X149967950Y-38915247D01*
X149967950Y-39987313D01*
X150073420Y-40517548D01*
X150373774Y-40967059D01*
X150823285Y-41267413D01*
X151353520Y-41372883D01*
X151883755Y-41267413D01*
X152333266Y-40967059D01*
X152633620Y-40517548D01*
X152635469Y-40508247D01*
X152662021Y-40597957D01*
X153003576Y-41019938D01*
X153480617Y-41279090D01*
X153552245Y-41293273D01*
X153766520Y-41170619D01*
X153766520Y-50965229D01*
X153080177Y-50964630D01*
X151743775Y-51516820D01*
X150720414Y-52538397D01*
X150165892Y-53873834D01*
X150164630Y-55319823D01*
X150716820Y-56656225D01*
X151738397Y-57679586D01*
X153073834Y-58234108D01*
X154519823Y-58235370D01*
X155856225Y-57683180D01*
X156879586Y-56661603D01*
X157434108Y-55326166D01*
X157435370Y-53880177D01*
X157435370Y-61828134D01*
X157078618Y-61471382D01*
X156790206Y-61278671D01*
X156450000Y-61211000D01*
X153000000Y-61211000D01*
X152168236Y-61211000D01*
X148489000Y-57531764D01*
X148489000Y-53677966D01*
X148584698Y-53638327D01*
X148763327Y-53459699D01*
X148860000Y-53226310D01*
X148860000Y-52973691D01*
X148860000Y-51973691D01*
X148763327Y-51740302D01*
X148623025Y-51599999D01*
X148763327Y-51459699D01*
X148860000Y-51226310D01*
X148860000Y-50973691D01*
X148860000Y-49973691D01*
X148800554Y-49830178D01*
X148885000Y-49626310D01*
X148885000Y-49373691D01*
X148885000Y-47873691D01*
X148788327Y-47640302D01*
X148609699Y-47461673D01*
X148460806Y-47399999D01*
X148609698Y-47338327D01*
X148788327Y-47159699D01*
X148885000Y-46926310D01*
X148885000Y-46673691D01*
X148885000Y-45173691D01*
X148788327Y-44940302D01*
X148609699Y-44761673D01*
X148525500Y-44726796D01*
X148525500Y-43801252D01*
X148614622Y-43712286D01*
X148779313Y-43315668D01*
X148779687Y-42886216D01*
X148615689Y-42489311D01*
X148312286Y-42185378D01*
X147915668Y-42020687D01*
X147486216Y-42020313D01*
X147089311Y-42184311D01*
X146785378Y-42487714D01*
X146620687Y-42884332D01*
X146620313Y-43313784D01*
X146784311Y-43710689D01*
X146874500Y-43801035D01*
X146874500Y-44665000D01*
X146823691Y-44665000D01*
X146590302Y-44761673D01*
X146411673Y-44940301D01*
X146334995Y-45125416D01*
X146190206Y-45028671D01*
X145850000Y-44961000D01*
X143285000Y-44961000D01*
X143285000Y-44573691D01*
X143188327Y-44340302D01*
X143009699Y-44161673D01*
X142776310Y-44065000D01*
X142523691Y-44065000D01*
X141223691Y-44065000D01*
X140990302Y-44161673D01*
X140811673Y-44340301D01*
X140715000Y-44573690D01*
X140715000Y-44826309D01*
X140715000Y-46326309D01*
X140811673Y-46559698D01*
X140990301Y-46738327D01*
X141139193Y-46800000D01*
X140990302Y-46861673D01*
X140817783Y-47034190D01*
X140817782Y-47034191D01*
X140758395Y-47046004D01*
X140659376Y-47112165D01*
X140511185Y-47211184D01*
X140024369Y-47698000D01*
X140009144Y-47698000D01*
X140009144Y-46127698D01*
X139981362Y-45572632D01*
X139822397Y-45188857D01*
X139580213Y-45119392D01*
X139400608Y-45298997D01*
X139400608Y-44939787D01*
X139331143Y-44697603D01*
X138807698Y-44510856D01*
X138252632Y-44538638D01*
X137868857Y-44697603D01*
X137799392Y-44939787D01*
X138600000Y-45740395D01*
X139400608Y-44939787D01*
X139400608Y-45298997D01*
X138779605Y-45920000D01*
X139580213Y-46720608D01*
X139822397Y-46651143D01*
X140009144Y-46127698D01*
X140009144Y-47698000D01*
X139796704Y-47698000D01*
X139785010Y-47669697D01*
X139392370Y-47276371D01*
X139200272Y-47196605D01*
X139331143Y-47142397D01*
X139400608Y-46900213D01*
X138600000Y-46099605D01*
X138420395Y-46279210D01*
X138420395Y-45920000D01*
X137619787Y-45119392D01*
X137377603Y-45188857D01*
X137190856Y-45712302D01*
X137218638Y-46267368D01*
X137377603Y-46651143D01*
X137619787Y-46720608D01*
X138420395Y-45920000D01*
X138420395Y-46279210D01*
X137799392Y-46900213D01*
X137868857Y-47142397D01*
X138009317Y-47192508D01*
X137809697Y-47274990D01*
X137416371Y-47667630D01*
X137203243Y-48180900D01*
X137202758Y-48736661D01*
X137414990Y-49250303D01*
X137807630Y-49643629D01*
X138015512Y-49729949D01*
X137809697Y-49814990D01*
X137416371Y-50207630D01*
X137203243Y-50720900D01*
X137202758Y-51276661D01*
X137414990Y-51790303D01*
X137807630Y-52183629D01*
X138320900Y-52396757D01*
X138876661Y-52397242D01*
X139390303Y-52185010D01*
X139783629Y-51792370D01*
X139996757Y-51279100D01*
X139997242Y-50723339D01*
X139785010Y-50209697D01*
X139392370Y-49816371D01*
X139184487Y-49730050D01*
X139390303Y-49645010D01*
X139783629Y-49252370D01*
X139796239Y-49222000D01*
X140340000Y-49222000D01*
X140340000Y-49221999D01*
X140631604Y-49163996D01*
X140631605Y-49163996D01*
X140740000Y-49091568D01*
X140740000Y-49226309D01*
X140740000Y-50226309D01*
X140836673Y-50459698D01*
X140976974Y-50600000D01*
X140836673Y-50740302D01*
X140740000Y-50973691D01*
X140740000Y-51314250D01*
X140898750Y-51473000D01*
X141873000Y-51473000D01*
X141873000Y-51453000D01*
X142127000Y-51453000D01*
X142127000Y-51473000D01*
X143101250Y-51473000D01*
X143260000Y-51314250D01*
X143260000Y-50973691D01*
X143163327Y-50740302D01*
X143023025Y-50599999D01*
X143163327Y-50459699D01*
X143260000Y-50226310D01*
X143260000Y-49973691D01*
X143260000Y-49086665D01*
X143285000Y-49026310D01*
X143285000Y-48773691D01*
X143285000Y-47273691D01*
X143188327Y-47040302D01*
X143009699Y-46861673D01*
X142860806Y-46799999D01*
X143008073Y-46739000D01*
X145481764Y-46739000D01*
X145821382Y-47078618D01*
X146109794Y-47271329D01*
X146109795Y-47271329D01*
X146450000Y-47339000D01*
X146591925Y-47339000D01*
X146739193Y-47400000D01*
X146590302Y-47461673D01*
X146411673Y-47640301D01*
X146315000Y-47873690D01*
X146315000Y-48126309D01*
X146315000Y-49626309D01*
X146399445Y-49830177D01*
X146340000Y-49973690D01*
X146340000Y-50226309D01*
X146340000Y-51226309D01*
X146436673Y-51459698D01*
X146576974Y-51600000D01*
X146436673Y-51740301D01*
X146340000Y-51973690D01*
X146340000Y-52226309D01*
X146340000Y-53226309D01*
X146436673Y-53459698D01*
X146615301Y-53638327D01*
X146711000Y-53677966D01*
X146711000Y-57900000D01*
X146778671Y-58240206D01*
X146971382Y-58528618D01*
X149529528Y-61086764D01*
X149400000Y-61061000D01*
X147592502Y-61061000D01*
X147399778Y-60772567D01*
X146864155Y-60414675D01*
X146232345Y-60289000D01*
X146167655Y-60289000D01*
X145535845Y-60414675D01*
X145000222Y-60772567D01*
X144970263Y-60817403D01*
X144938327Y-60740302D01*
X144759699Y-60561673D01*
X144526310Y-60465000D01*
X144273691Y-60465000D01*
X143260000Y-60465000D01*
X143260000Y-52226309D01*
X143260000Y-51885750D01*
X143101250Y-51727000D01*
X142127000Y-51727000D01*
X142127000Y-52576250D01*
X142285750Y-52735000D01*
X142498691Y-52735000D01*
X142751310Y-52735000D01*
X142984699Y-52638327D01*
X143163327Y-52459698D01*
X143260000Y-52226309D01*
X143260000Y-60465000D01*
X142473691Y-60465000D01*
X142240302Y-60561673D01*
X142061673Y-60740301D01*
X142017611Y-60846674D01*
X141870643Y-60699449D01*
X141389828Y-60499797D01*
X141868371Y-60302068D01*
X142300551Y-59870643D01*
X142534733Y-59306670D01*
X142535265Y-58696009D01*
X142302068Y-58131629D01*
X141873000Y-57701810D01*
X141873000Y-52576250D01*
X141873000Y-51727000D01*
X140898750Y-51727000D01*
X140740000Y-51885750D01*
X140740000Y-52226309D01*
X140836673Y-52459698D01*
X141015301Y-52638327D01*
X141248690Y-52735000D01*
X141501309Y-52735000D01*
X141714250Y-52735000D01*
X141873000Y-52576250D01*
X141873000Y-57701810D01*
X141870643Y-57699449D01*
X141306670Y-57465267D01*
X140696009Y-57464735D01*
X140131629Y-57697932D01*
X139749712Y-58079181D01*
X139370643Y-57699449D01*
X138806670Y-57465267D01*
X138196009Y-57464735D01*
X137631629Y-57697932D01*
X137199449Y-58129357D01*
X136965267Y-58693330D01*
X136964735Y-59303991D01*
X137197932Y-59868371D01*
X137629357Y-60300551D01*
X138110171Y-60500202D01*
X137631629Y-60697932D01*
X137217838Y-61111000D01*
X137048608Y-61111000D01*
X136915689Y-60789311D01*
X136612286Y-60485378D01*
X136215668Y-60320687D01*
X135786216Y-60320313D01*
X135389311Y-60484311D01*
X135085378Y-60787714D01*
X134920687Y-61184332D01*
X134920679Y-61193048D01*
X134878358Y-61150727D01*
X134879841Y-60353227D01*
X135040205Y-60321329D01*
X135040206Y-60321329D01*
X135328618Y-60128618D01*
X136228618Y-59228618D01*
X136421329Y-58940206D01*
X136421329Y-58940205D01*
X136489000Y-58600000D01*
X136489000Y-57820736D01*
X136977736Y-57332000D01*
X137624809Y-57332000D01*
X137858198Y-57235327D01*
X138036827Y-57056699D01*
X138133500Y-56823310D01*
X138133500Y-56570691D01*
X138133500Y-56060313D01*
X138187714Y-56114622D01*
X138584332Y-56279313D01*
X139013784Y-56279687D01*
X139410689Y-56115689D01*
X139714622Y-55812286D01*
X139879313Y-55415668D01*
X139879687Y-54986216D01*
X139715689Y-54589311D01*
X139412286Y-54285378D01*
X139015668Y-54120687D01*
X138977890Y-54120654D01*
X138576118Y-53718882D01*
X138287706Y-53526171D01*
X137953149Y-53459623D01*
X137858199Y-53364673D01*
X137624810Y-53268000D01*
X137372191Y-53268000D01*
X135975191Y-53268000D01*
X135741802Y-53364673D01*
X135563173Y-53543301D01*
X135466500Y-53776690D01*
X135466500Y-54029309D01*
X135466500Y-54918309D01*
X135563173Y-55151698D01*
X135711474Y-55300000D01*
X135563173Y-55448301D01*
X135466500Y-55681690D01*
X135466500Y-55934309D01*
X135466500Y-56328764D01*
X134971382Y-56823882D01*
X134886169Y-56951411D01*
X134890528Y-54607807D01*
X134890528Y-54607806D01*
X134960292Y-54439383D01*
X134960293Y-54439382D01*
X135032607Y-54075833D01*
X135032606Y-54012304D01*
X135045000Y-53950000D01*
X135045000Y-53201091D01*
X135085000Y-53000000D01*
X135085000Y-35685000D01*
X193715000Y-35685000D01*
X193715000Y-58606770D01*
X193494528Y-58485077D01*
X193314923Y-58664682D01*
X193314923Y-58305472D01*
X193124636Y-57960729D01*
X192243409Y-57609044D01*
X191294677Y-57621359D01*
X190475364Y-57960729D01*
X190285077Y-58305472D01*
X191800000Y-59820395D01*
X193314923Y-58305472D01*
X193314923Y-58664682D01*
X191979605Y-60000000D01*
X193494528Y-61514923D01*
X193715000Y-61393229D01*
X193715000Y-66206770D01*
X193494528Y-66085077D01*
X193314923Y-66264682D01*
X193314923Y-65905472D01*
X193314923Y-61694528D01*
X191800000Y-60179605D01*
X191620395Y-60359210D01*
X191620395Y-60000000D01*
X190105472Y-58485077D01*
X189760729Y-58675364D01*
X189409044Y-59556591D01*
X189421359Y-60505323D01*
X189760729Y-61324636D01*
X190105472Y-61514923D01*
X191620395Y-60000000D01*
X191620395Y-60359210D01*
X190285077Y-61694528D01*
X190475364Y-62039271D01*
X191356591Y-62390956D01*
X192305323Y-62378641D01*
X193124636Y-62039271D01*
X193314923Y-61694528D01*
X193314923Y-65905472D01*
X193124636Y-65560729D01*
X192243409Y-65209044D01*
X191294677Y-65221359D01*
X190475364Y-65560729D01*
X190285077Y-65905472D01*
X191800000Y-67420395D01*
X193314923Y-65905472D01*
X193314923Y-66264682D01*
X191979605Y-67600000D01*
X193494528Y-69114923D01*
X193715000Y-68993229D01*
X193715000Y-78512971D01*
X193514965Y-78030042D01*
X193314923Y-77956114D01*
X193314923Y-69294528D01*
X191800000Y-67779605D01*
X191620395Y-67959210D01*
X191620395Y-67600000D01*
X190105472Y-66085077D01*
X189760729Y-66275364D01*
X189409044Y-67156591D01*
X189421359Y-68105323D01*
X189760729Y-68924636D01*
X190105472Y-69114923D01*
X191620395Y-67600000D01*
X191620395Y-67959210D01*
X190285077Y-69294528D01*
X190475364Y-69639271D01*
X191356591Y-69990956D01*
X192305323Y-69978641D01*
X193124636Y-69639271D01*
X193314923Y-69294528D01*
X193314923Y-77956114D01*
X193248163Y-77931443D01*
X193068557Y-78111048D01*
X193068557Y-77751837D01*
X192969958Y-77485035D01*
X192360418Y-77258599D01*
X191710623Y-77282659D01*
X191222042Y-77485035D01*
X191123443Y-77751837D01*
X192096000Y-78724395D01*
X193068557Y-77751837D01*
X193068557Y-78111048D01*
X192275605Y-78904000D01*
X193248163Y-79876557D01*
X193514965Y-79777958D01*
X193715000Y-79239486D01*
X193715000Y-94015000D01*
M02*
