M48
;DRILL file {kicad (2014-10-27 BZR 5228)-product} date 16/06/2015 16:22:27
;FORMAT={3:3/ absolute / metric / keep zeros}
FMAT,2
METRIC,TZ
T1C0.635
T2C0.800
T3C0.813
T4C0.900
T5C0.920
T6C1.001
T7C1.016
T8C1.500
T9C1.800
T10C3.900
T11C5.999
%
G90
G05
M71
T1
X132600Y-071500
X132700Y-068500
X132700Y-074500
X133700Y-061050
X135050Y-064300
X136000Y-061400
X138800Y-055200
X140000Y-063575
X141025Y-064525
X143150Y-091900
X146200Y-073100
X147700Y-043100
X148400Y-063400
X149050Y-069700
X151925Y-084875
X153875Y-077850
X154450Y-064400
X154450Y-065550
X154975Y-082625
X156200Y-074200
X156300Y-068750
X158850Y-061350
X159600Y-067950
X167950Y-064325
X173550Y-086950
X176150Y-059950
X177950Y-064050
X178750Y-059800
X181150Y-063000
X183200Y-052000
X185500Y-056600
X190200Y-057400
T2
X171001Y-054600
X177599Y-054600
T3
X138600Y-045920
X138600Y-048460
X138600Y-051000
X162179Y-065913
X162179Y-073533
X162560Y-076835
X162560Y-084455
X164719Y-065913
X164719Y-073533
X165100Y-076835
X165100Y-084455
X167259Y-065913
X167259Y-073533
X167640Y-076835
X167640Y-084455
X169799Y-065913
X169799Y-073533
X170180Y-076835
X170180Y-084455
X172339Y-065913
X172339Y-073533
X172720Y-076835
X172720Y-084455
T4
X138500Y-059000
X138500Y-062000
X139200Y-066800
X139200Y-069300
X139200Y-071800
X141000Y-059000
X141000Y-062000
X142200Y-066800
X142200Y-069300
X142200Y-071800
X143500Y-059000
X143500Y-062000
T5
X184000Y-063800
T6
X137004Y-080596
X142592Y-080596
X144908Y-079804
X150496Y-079804
X151354Y-039451
X152546Y-087108
X152546Y-092696
X153204Y-079796
X153894Y-039451
X156434Y-039451
X158792Y-079796
X167396Y-087208
X167396Y-092796
X178129Y-078946
X180604Y-087204
X180604Y-092792
X183717Y-078946
X186508Y-078904
X192096Y-078904
T7
X146200Y-059400
X146200Y-061940
X163462Y-043199
X163462Y-051199
X163950Y-059410
X163950Y-061950
X184300Y-038200
X184300Y-040740
T8
X163462Y-039199
X163462Y-047199
T9
X191800Y-060000
X191800Y-067600
T10
X139100Y-039500
X139100Y-090000
X189700Y-039500
X189700Y-089900
T11
X153800Y-054600
T0
M30
