%FSLAX46Y46*%
G04 Gerber Fmt 4.6, Leading zero omitted, Abs format (unit mm)*
G04 Created by KiCad (PCBNEW (2014-10-27 BZR 5228)-product) date 16/06/2015 16:22:24*
%MOMM*%
G01*
G04 APERTURE LIST*
%ADD10C,0.100000*%
%ADD11C,0.020000*%
G04 APERTURE END LIST*
D10*
X194400000Y-94700000D02*
X134400000Y-94700000D01*
X194400000Y-35000000D02*
X194400000Y-94700000D01*
X134400000Y-35000000D02*
X194400000Y-35000000D01*
X134400000Y-53000000D02*
X134400000Y-35000000D01*
X129974340Y-95006160D02*
X129943860Y-95006160D01*
X134400000Y-76800000D02*
X134400000Y-94700000D01*
D11*
X134400000Y-76000000D02*
X134400000Y-77000000D01*
X134400000Y-53950000D02*
X134400000Y-53000000D01*
X133450000Y-75100000D02*
G75*
G02X134400000Y-76050000I0J-950000D01*
G01*
X126000000Y-74750000D02*
X126350000Y-75100000D01*
X126350000Y-75100000D02*
X133450000Y-75100000D01*
X126000000Y-64300000D02*
X126000000Y-74750000D01*
X134400000Y-53950000D02*
G75*
G02X133450000Y-54900000I-950000J0D01*
G01*
X126000000Y-55250000D02*
X126350000Y-54900000D01*
X126350000Y-54900000D02*
X133450000Y-54900000D01*
X133450000Y-62050000D02*
X126350000Y-62050000D01*
X126350000Y-62050000D02*
X126000000Y-61700000D01*
X126000000Y-61700000D02*
X126000000Y-55250000D01*
X126350000Y-63950000D02*
X133450000Y-63950000D01*
X126350000Y-63950000D02*
X126000000Y-64300000D01*
X134400000Y-63000000D02*
G75*
G02X133450000Y-63950000I-950000J0D01*
G01*
X133450000Y-62050000D02*
G75*
G02X134400000Y-63000000I0J-950000D01*
G01*
M02*
