%FSLAX46Y46*%
G04 Gerber Fmt 4.6, Leading zero omitted, Abs format (unit mm)*
G04 Created by KiCad (PCBNEW (2014-10-27 BZR 5228)-product) date 16/06/2015 16:22:24*
%MOMM*%
G01*
G04 APERTURE LIST*
%ADD10C,0.100000*%
%ADD11R,1.000000X1.250000*%
%ADD12R,1.250000X1.000000*%
%ADD13R,1.550000X0.600000*%
%ADD14R,1.500000X1.300000*%
%ADD15R,1.300000X1.500000*%
%ADD16R,1.198880X1.198880*%
%ADD17R,0.914400X0.914400*%
%ADD18R,0.599440X1.000760*%
G04 APERTURE END LIST*
D10*
D11*
X148950000Y-84200000D03*
X146950000Y-84200000D03*
X142650000Y-86000000D03*
X144650000Y-86000000D03*
D12*
X143700000Y-77350000D03*
X143700000Y-75350000D03*
X144950000Y-89850000D03*
X144950000Y-91850000D03*
X185000000Y-84750000D03*
X185000000Y-82750000D03*
X176175000Y-83125000D03*
X176175000Y-85125000D03*
D11*
X189600000Y-84500000D03*
X191600000Y-84500000D03*
X152600000Y-46450000D03*
X150600000Y-46450000D03*
D12*
X191600000Y-54200000D03*
X191600000Y-56200000D03*
D13*
X185501300Y-48234600D03*
X185501300Y-49504600D03*
X185501300Y-50774600D03*
X185501300Y-52044600D03*
X190901300Y-52044600D03*
X190901300Y-50774600D03*
X190901300Y-49504600D03*
X190901300Y-48234600D03*
D11*
X184200000Y-54800000D03*
X182200000Y-54800000D03*
X170300000Y-87000000D03*
X172300000Y-87000000D03*
D14*
X158200000Y-46400000D03*
X155500000Y-46400000D03*
D15*
X188400000Y-53950000D03*
X188400000Y-56650000D03*
D11*
X182300000Y-59800000D03*
X180300000Y-59800000D03*
D14*
X151350000Y-67150000D03*
X148650000Y-67150000D03*
D16*
X170899020Y-59550000D03*
X168800980Y-59550000D03*
X174100980Y-61750000D03*
X176199020Y-61750000D03*
X182750980Y-71200000D03*
X184849020Y-71200000D03*
D14*
X167950000Y-62500000D03*
X170650000Y-62500000D03*
X190350000Y-71200000D03*
X187650000Y-71200000D03*
D17*
X157211000Y-65684000D03*
X158989000Y-65684000D03*
X158100000Y-67716000D03*
X150484000Y-64939000D03*
X150484000Y-63161000D03*
X152516000Y-64050000D03*
D14*
X158250000Y-62900000D03*
X155550000Y-62900000D03*
D18*
X144750000Y-73049820D03*
X144750000Y-70850180D03*
D11*
X178200000Y-68200000D03*
X180200000Y-68200000D03*
X153025000Y-84275000D03*
X155025000Y-84275000D03*
X174600000Y-65150000D03*
X176600000Y-65150000D03*
X147900000Y-65000000D03*
X145900000Y-65000000D03*
M02*
