M48
;DRILL file {kicad (2014-10-27 BZR 5228)-product} date 14/05/2015 10:32:46
;FORMAT={3:3/ absolute / metric / keep zeros}
FMAT,2
METRIC,TZ
T1C0.635
T2C0.813
T3C1.001
T4C1.016
T5C1.321
T6C1.500
T7C3.900
T8C5.999
%
G90
G05
M71
T1
X102500Y-122900
X102800Y-098900
X110400Y-130500
X114757Y-079362
X114800Y-130500
X115000Y-051500
X115000Y-148500
X116200Y-110500
X117300Y-096700
X118300Y-127900
X120000Y-051500
X120000Y-148500
X120100Y-071900
X122400Y-105000
X122500Y-096600
X123000Y-134000
X123200Y-135600
X123300Y-085100
X123400Y-122300
X123500Y-110800
X123500Y-124300
X123600Y-142400
X123600Y-144600
X123800Y-102100
X123900Y-113400
X124500Y-133900
X125000Y-051500
X125000Y-148500
X125400Y-100800
X125600Y-136300
X125800Y-123800
X125900Y-114100
X126300Y-140400
X126300Y-143400
X129300Y-136100
X129400Y-132300
X129500Y-134800
X129700Y-113900
X130000Y-051500
X130000Y-125100
X130000Y-148500
X130700Y-105100
X131600Y-110300
X131600Y-113600
X132100Y-096600
X132100Y-124200
X132200Y-122100
X132800Y-105100
X133000Y-137600
X133050Y-089500
X134500Y-096100
X135000Y-051500
X135000Y-148500
X136700Y-106700
X136700Y-127400
X137700Y-092800
X137800Y-137700
X138000Y-131900
X138900Y-088500
X139300Y-096000
X140000Y-148500
X140300Y-117900
X141900Y-091000
X142950Y-090200
X143900Y-104900
X144600Y-141300
X145000Y-148500
X147400Y-067700
X148800Y-098100
X149400Y-121700
X149550Y-078050
X150000Y-148500
X150500Y-080700
X150600Y-085000
X150800Y-101500
X151200Y-133300
X151700Y-124900
X152500Y-105600
X153100Y-120100
X153600Y-116100
X154150Y-126400
X155000Y-135450
X155000Y-148500
X155200Y-118700
X155500Y-106700
X157600Y-105200
X157600Y-112950
X157800Y-103800
X158350Y-092900
X158600Y-110700
X159700Y-120650
X160000Y-051500
X160000Y-148500
X160500Y-106850
X161100Y-120550
X161800Y-081000
X161900Y-106950
X162000Y-094800
X162000Y-123250
X163100Y-060800
X163200Y-081600
X163200Y-136800
X164200Y-113400
X165000Y-051500
X165000Y-148500
X165700Y-105700
X166000Y-087400
X166500Y-115700
X168600Y-072200
X169100Y-136700
X170000Y-051500
X170000Y-148500
X175000Y-051500
X175000Y-148500
X178400Y-088900
X178500Y-085600
X180000Y-051500
X180000Y-148500
X180100Y-134600
X182000Y-118200
X183000Y-131900
X185000Y-051600
X185000Y-148500
T2
X117170Y-062128
X117170Y-064668
X117170Y-067208
X152603Y-082207
X152603Y-084747
X152603Y-087287
X152603Y-089827
X152603Y-092367
X160223Y-082207
X160223Y-084747
X160223Y-087287
X160223Y-089827
X160223Y-092367
X168590Y-059520
X168590Y-062060
X168590Y-064600
X168590Y-067140
X168590Y-069680
X168590Y-074920
X168590Y-077460
X168590Y-080000
X168590Y-082540
X168590Y-085080
X168690Y-091320
X168690Y-093860
X168690Y-096400
X168690Y-098940
X168690Y-101480
X168790Y-107920
X168790Y-110460
X168790Y-113000
X168790Y-115540
X168790Y-118080
X168790Y-123420
X168790Y-125960
X168790Y-128500
X168790Y-131040
X168790Y-133580
X176210Y-059520
X176210Y-062060
X176210Y-064600
X176210Y-067140
X176210Y-069680
X176210Y-074920
X176210Y-077460
X176210Y-080000
X176210Y-082540
X176210Y-085080
X176310Y-091320
X176310Y-093860
X176310Y-096400
X176310Y-098940
X176310Y-101480
X176410Y-107920
X176410Y-110460
X176410Y-113000
X176410Y-115540
X176410Y-118080
X176410Y-123420
X176410Y-125960
X176410Y-128500
X176410Y-131040
X176410Y-133580
X177620Y-137290
X177620Y-144910
X180160Y-137290
X180160Y-144910
X182700Y-137290
X182700Y-144910
X185240Y-137290
X185240Y-144910
X187780Y-137290
X187780Y-144910
T3
X110500Y-098901
X110500Y-103902
X127660Y-055900
X130200Y-055900
X132740Y-055900
X142392Y-071641
X142392Y-077229
X142900Y-097398
X142900Y-102399
X156197Y-071704
X156197Y-077292
X160376Y-054760
X160376Y-064920
X180104Y-096796
X180204Y-112796
X180304Y-064396
X180304Y-079396
X181308Y-127804
X185692Y-096796
X185792Y-112796
X185892Y-064396
X185892Y-079396
X186896Y-127804
X190304Y-096996
X190404Y-112896
X190504Y-064396
X190504Y-127896
X190704Y-079396
X195892Y-096996
X195992Y-112896
X196092Y-064396
X196092Y-127896
X196292Y-079396
T4
X104730Y-082700
X104930Y-062400
X107270Y-082700
X107470Y-062400
X135230Y-083700
X137770Y-083700
X138582Y-059976
X138582Y-067976
X159300Y-126500
X159300Y-129040
X159300Y-131580
X159300Y-134120
X159300Y-136660
X159300Y-139200
X159300Y-141740
X169830Y-145700
X172370Y-145700
T5
X106300Y-070900
X106300Y-075900
T6
X138582Y-055976
X138582Y-063976
T7
X103950Y-146050
X104000Y-092400
X104100Y-053900
X145850Y-083400
X146600Y-053800
X196000Y-054000
X196200Y-146250
T8
X130200Y-071200
T0
M30
