%FSLAX45Y45*%
G04 Gerber Fmt 4.5, Leading zero omitted, Abs format (unit mm)*
G04 Created by KiCad (PCBNEW (2014-10-27 BZR 5228)-product) date 14/05/2015 10:32:46*
%MOMM*%
G01*
G04 APERTURE LIST*
%ADD10C,0.127000*%
%ADD11C,0.100000*%
%ADD12C,0.200000*%
%ADD13C,0.300000*%
G04 APERTURE END LIST*
D10*
D11*
X20000000Y-5000000D02*
X10000000Y-5000000D01*
X20000000Y-15000000D02*
X20000000Y-5000000D01*
X10000000Y-15000000D02*
X20000000Y-15000000D01*
X10000000Y-5000000D02*
X10000000Y-15000000D01*
D12*
X10218250Y-12258250D02*
X10281750Y-12321750D01*
X10281750Y-12258250D02*
X10218250Y-12321750D01*
X10248250Y-9858250D02*
X10311750Y-9921750D01*
X10311750Y-9858250D02*
X10248250Y-9921750D01*
X11008250Y-13018250D02*
X11071750Y-13081750D01*
X11071750Y-13018250D02*
X11008250Y-13081750D01*
X11443970Y-7904480D02*
X11507470Y-7967980D01*
X11507470Y-7904480D02*
X11443970Y-7967980D01*
X11448250Y-13018250D02*
X11511750Y-13081750D01*
X11511750Y-13018250D02*
X11448250Y-13081750D01*
X11468250Y-5118250D02*
X11531750Y-5181750D01*
X11531750Y-5118250D02*
X11468250Y-5181750D01*
X11468250Y-14818250D02*
X11531750Y-14881750D01*
X11531750Y-14818250D02*
X11468250Y-14881750D01*
X11588250Y-11018250D02*
X11651750Y-11081750D01*
X11651750Y-11018250D02*
X11588250Y-11081750D01*
X11698250Y-9638250D02*
X11761750Y-9701750D01*
X11761750Y-9638250D02*
X11698250Y-9701750D01*
X11798250Y-12758250D02*
X11861750Y-12821750D01*
X11861750Y-12758250D02*
X11798250Y-12821750D01*
X11968250Y-5118250D02*
X12031750Y-5181750D01*
X12031750Y-5118250D02*
X11968250Y-5181750D01*
X11968250Y-14818250D02*
X12031750Y-14881750D01*
X12031750Y-14818250D02*
X11968250Y-14881750D01*
X11978250Y-7158250D02*
X12041750Y-7221750D01*
X12041750Y-7158250D02*
X11978250Y-7221750D01*
X12208250Y-10468250D02*
X12271750Y-10531750D01*
X12271750Y-10468250D02*
X12208250Y-10531750D01*
X12218250Y-9628250D02*
X12281750Y-9691750D01*
X12281750Y-9628250D02*
X12218250Y-9691750D01*
X12268250Y-13368250D02*
X12331750Y-13431750D01*
X12331750Y-13368250D02*
X12268250Y-13431750D01*
X12288250Y-13528250D02*
X12351750Y-13591750D01*
X12351750Y-13528250D02*
X12288250Y-13591750D01*
X12298250Y-8478250D02*
X12361750Y-8541750D01*
X12361750Y-8478250D02*
X12298250Y-8541750D01*
X12308250Y-12198250D02*
X12371750Y-12261750D01*
X12371750Y-12198250D02*
X12308250Y-12261750D01*
X12318250Y-11048250D02*
X12381750Y-11111750D01*
X12381750Y-11048250D02*
X12318250Y-11111750D01*
X12318250Y-12398250D02*
X12381750Y-12461750D01*
X12381750Y-12398250D02*
X12318250Y-12461750D01*
X12328250Y-14208250D02*
X12391750Y-14271750D01*
X12391750Y-14208250D02*
X12328250Y-14271750D01*
X12328250Y-14428250D02*
X12391750Y-14491750D01*
X12391750Y-14428250D02*
X12328250Y-14491750D01*
X12348250Y-10178250D02*
X12411750Y-10241750D01*
X12411750Y-10178250D02*
X12348250Y-10241750D01*
X12358250Y-11308250D02*
X12421750Y-11371750D01*
X12421750Y-11308250D02*
X12358250Y-11371750D01*
X12418250Y-13358250D02*
X12481750Y-13421750D01*
X12481750Y-13358250D02*
X12418250Y-13421750D01*
X12468250Y-5118250D02*
X12531750Y-5181750D01*
X12531750Y-5118250D02*
X12468250Y-5181750D01*
X12468250Y-14818250D02*
X12531750Y-14881750D01*
X12531750Y-14818250D02*
X12468250Y-14881750D01*
X12508250Y-10048250D02*
X12571750Y-10111750D01*
X12571750Y-10048250D02*
X12508250Y-10111750D01*
X12528250Y-13598250D02*
X12591750Y-13661750D01*
X12591750Y-13598250D02*
X12528250Y-13661750D01*
X12548250Y-12348250D02*
X12611750Y-12411750D01*
X12611750Y-12348250D02*
X12548250Y-12411750D01*
X12558250Y-11378250D02*
X12621750Y-11441750D01*
X12621750Y-11378250D02*
X12558250Y-11441750D01*
X12598250Y-14008250D02*
X12661750Y-14071750D01*
X12661750Y-14008250D02*
X12598250Y-14071750D01*
X12598250Y-14308250D02*
X12661750Y-14371750D01*
X12661750Y-14308250D02*
X12598250Y-14371750D01*
X12898250Y-13578250D02*
X12961750Y-13641750D01*
X12961750Y-13578250D02*
X12898250Y-13641750D01*
X12908250Y-13198250D02*
X12971750Y-13261750D01*
X12971750Y-13198250D02*
X12908250Y-13261750D01*
X12918250Y-13448250D02*
X12981750Y-13511750D01*
X12981750Y-13448250D02*
X12918250Y-13511750D01*
X12938250Y-11358250D02*
X13001750Y-11421750D01*
X13001750Y-11358250D02*
X12938250Y-11421750D01*
X12968250Y-5118250D02*
X13031750Y-5181750D01*
X13031750Y-5118250D02*
X12968250Y-5181750D01*
X12968250Y-12478250D02*
X13031750Y-12541750D01*
X13031750Y-12478250D02*
X12968250Y-12541750D01*
X12968250Y-14818250D02*
X13031750Y-14881750D01*
X13031750Y-14818250D02*
X12968250Y-14881750D01*
X13038250Y-10478250D02*
X13101750Y-10541750D01*
X13101750Y-10478250D02*
X13038250Y-10541750D01*
X13128250Y-10998250D02*
X13191750Y-11061750D01*
X13191750Y-10998250D02*
X13128250Y-11061750D01*
X13128250Y-11328250D02*
X13191750Y-11391750D01*
X13191750Y-11328250D02*
X13128250Y-11391750D01*
X13178250Y-9628250D02*
X13241750Y-9691750D01*
X13241750Y-9628250D02*
X13178250Y-9691750D01*
X13178250Y-12388250D02*
X13241750Y-12451750D01*
X13241750Y-12388250D02*
X13178250Y-12451750D01*
X13188250Y-12178250D02*
X13251750Y-12241750D01*
X13251750Y-12178250D02*
X13188250Y-12241750D01*
X13248250Y-10478250D02*
X13311750Y-10541750D01*
X13311750Y-10478250D02*
X13248250Y-10541750D01*
X13268250Y-13728250D02*
X13331750Y-13791750D01*
X13331750Y-13728250D02*
X13268250Y-13791750D01*
X13273250Y-8918250D02*
X13336750Y-8981750D01*
X13336750Y-8918250D02*
X13273250Y-8981750D01*
X13418250Y-9578250D02*
X13481750Y-9641750D01*
X13481750Y-9578250D02*
X13418250Y-9641750D01*
X13468250Y-5118250D02*
X13531750Y-5181750D01*
X13531750Y-5118250D02*
X13468250Y-5181750D01*
X13468250Y-14818250D02*
X13531750Y-14881750D01*
X13531750Y-14818250D02*
X13468250Y-14881750D01*
X13638250Y-10638250D02*
X13701750Y-10701750D01*
X13701750Y-10638250D02*
X13638250Y-10701750D01*
X13638250Y-12708250D02*
X13701750Y-12771750D01*
X13701750Y-12708250D02*
X13638250Y-12771750D01*
X13738250Y-9248250D02*
X13801750Y-9311750D01*
X13801750Y-9248250D02*
X13738250Y-9311750D01*
X13748250Y-13738250D02*
X13811750Y-13801750D01*
X13811750Y-13738250D02*
X13748250Y-13801750D01*
X13768250Y-13158250D02*
X13831750Y-13221750D01*
X13831750Y-13158250D02*
X13768250Y-13221750D01*
X13858250Y-8818250D02*
X13921750Y-8881750D01*
X13921750Y-8818250D02*
X13858250Y-8881750D01*
X13898250Y-9568250D02*
X13961750Y-9631750D01*
X13961750Y-9568250D02*
X13898250Y-9631750D01*
X13968250Y-14818250D02*
X14031750Y-14881750D01*
X14031750Y-14818250D02*
X13968250Y-14881750D01*
X13998250Y-11758250D02*
X14061750Y-11821750D01*
X14061750Y-11758250D02*
X13998250Y-11821750D01*
X14158250Y-9068250D02*
X14221750Y-9131750D01*
X14221750Y-9068250D02*
X14158250Y-9131750D01*
X14263250Y-8988250D02*
X14326750Y-9051750D01*
X14326750Y-8988250D02*
X14263250Y-9051750D01*
X14358250Y-10458250D02*
X14421750Y-10521750D01*
X14421750Y-10458250D02*
X14358250Y-10521750D01*
X14428250Y-14098250D02*
X14491750Y-14161750D01*
X14491750Y-14098250D02*
X14428250Y-14161750D01*
X14468250Y-14818250D02*
X14531750Y-14881750D01*
X14531750Y-14818250D02*
X14468250Y-14881750D01*
X14708250Y-6738250D02*
X14771750Y-6801750D01*
X14771750Y-6738250D02*
X14708250Y-6801750D01*
X14848250Y-9778250D02*
X14911750Y-9841750D01*
X14911750Y-9778250D02*
X14848250Y-9841750D01*
X14908250Y-12138250D02*
X14971750Y-12201750D01*
X14971750Y-12138250D02*
X14908250Y-12201750D01*
X14923250Y-7773250D02*
X14986750Y-7836750D01*
X14986750Y-7773250D02*
X14923250Y-7836750D01*
X14968250Y-14818250D02*
X15031750Y-14881750D01*
X15031750Y-14818250D02*
X14968250Y-14881750D01*
X15018250Y-8038250D02*
X15081750Y-8101750D01*
X15081750Y-8038250D02*
X15018250Y-8101750D01*
X15028250Y-8468250D02*
X15091750Y-8531750D01*
X15091750Y-8468250D02*
X15028250Y-8531750D01*
X15048250Y-10118250D02*
X15111750Y-10181750D01*
X15111750Y-10118250D02*
X15048250Y-10181750D01*
X15088250Y-13298250D02*
X15151750Y-13361750D01*
X15151750Y-13298250D02*
X15088250Y-13361750D01*
X15138250Y-12458250D02*
X15201750Y-12521750D01*
X15201750Y-12458250D02*
X15138250Y-12521750D01*
X15218250Y-10528250D02*
X15281750Y-10591750D01*
X15281750Y-10528250D02*
X15218250Y-10591750D01*
X15278250Y-11978250D02*
X15341750Y-12041750D01*
X15341750Y-11978250D02*
X15278250Y-12041750D01*
X15328250Y-11578250D02*
X15391750Y-11641750D01*
X15391750Y-11578250D02*
X15328250Y-11641750D01*
X15383250Y-12608250D02*
X15446750Y-12671750D01*
X15446750Y-12608250D02*
X15383250Y-12671750D01*
X15468250Y-13513250D02*
X15531750Y-13576750D01*
X15531750Y-13513250D02*
X15468250Y-13576750D01*
X15468250Y-14818250D02*
X15531750Y-14881750D01*
X15531750Y-14818250D02*
X15468250Y-14881750D01*
X15488250Y-11838250D02*
X15551750Y-11901750D01*
X15551750Y-11838250D02*
X15488250Y-11901750D01*
X15518250Y-10638250D02*
X15581750Y-10701750D01*
X15581750Y-10638250D02*
X15518250Y-10701750D01*
X15728250Y-10488250D02*
X15791750Y-10551750D01*
X15791750Y-10488250D02*
X15728250Y-10551750D01*
X15728250Y-11263250D02*
X15791750Y-11326750D01*
X15791750Y-11263250D02*
X15728250Y-11326750D01*
X15748250Y-10348250D02*
X15811750Y-10411750D01*
X15811750Y-10348250D02*
X15748250Y-10411750D01*
X15803250Y-9258250D02*
X15866750Y-9321750D01*
X15866750Y-9258250D02*
X15803250Y-9321750D01*
X15828250Y-11038250D02*
X15891750Y-11101750D01*
X15891750Y-11038250D02*
X15828250Y-11101750D01*
X15938250Y-12033250D02*
X16001750Y-12096750D01*
X16001750Y-12033250D02*
X15938250Y-12096750D01*
X15968250Y-5118250D02*
X16031750Y-5181750D01*
X16031750Y-5118250D02*
X15968250Y-5181750D01*
X15968250Y-14818250D02*
X16031750Y-14881750D01*
X16031750Y-14818250D02*
X15968250Y-14881750D01*
X16018250Y-10653250D02*
X16081750Y-10716750D01*
X16081750Y-10653250D02*
X16018250Y-10716750D01*
X16078250Y-12023250D02*
X16141750Y-12086750D01*
X16141750Y-12023250D02*
X16078250Y-12086750D01*
X16148250Y-8068250D02*
X16211750Y-8131750D01*
X16211750Y-8068250D02*
X16148250Y-8131750D01*
X16158250Y-10663250D02*
X16221750Y-10726750D01*
X16221750Y-10663250D02*
X16158250Y-10726750D01*
X16168250Y-9448250D02*
X16231750Y-9511750D01*
X16231750Y-9448250D02*
X16168250Y-9511750D01*
X16168250Y-12293250D02*
X16231750Y-12356750D01*
X16231750Y-12293250D02*
X16168250Y-12356750D01*
X16278250Y-6048250D02*
X16341750Y-6111750D01*
X16341750Y-6048250D02*
X16278250Y-6111750D01*
X16288250Y-8128250D02*
X16351750Y-8191750D01*
X16351750Y-8128250D02*
X16288250Y-8191750D01*
X16288250Y-13648250D02*
X16351750Y-13711750D01*
X16351750Y-13648250D02*
X16288250Y-13711750D01*
X16388250Y-11308250D02*
X16451750Y-11371750D01*
X16451750Y-11308250D02*
X16388250Y-11371750D01*
X16468250Y-5118250D02*
X16531750Y-5181750D01*
X16531750Y-5118250D02*
X16468250Y-5181750D01*
X16468250Y-14818250D02*
X16531750Y-14881750D01*
X16531750Y-14818250D02*
X16468250Y-14881750D01*
X16538250Y-10538250D02*
X16601750Y-10601750D01*
X16601750Y-10538250D02*
X16538250Y-10601750D01*
X16568250Y-8708250D02*
X16631750Y-8771750D01*
X16631750Y-8708250D02*
X16568250Y-8771750D01*
X16618250Y-11538250D02*
X16681750Y-11601750D01*
X16681750Y-11538250D02*
X16618250Y-11601750D01*
X16828250Y-7188250D02*
X16891750Y-7251750D01*
X16891750Y-7188250D02*
X16828250Y-7251750D01*
X16878250Y-13638250D02*
X16941750Y-13701750D01*
X16941750Y-13638250D02*
X16878250Y-13701750D01*
X16968250Y-5118250D02*
X17031750Y-5181750D01*
X17031750Y-5118250D02*
X16968250Y-5181750D01*
X16968250Y-14818250D02*
X17031750Y-14881750D01*
X17031750Y-14818250D02*
X16968250Y-14881750D01*
X17468250Y-5118250D02*
X17531750Y-5181750D01*
X17531750Y-5118250D02*
X17468250Y-5181750D01*
X17468250Y-14818250D02*
X17531750Y-14881750D01*
X17531750Y-14818250D02*
X17468250Y-14881750D01*
X17808250Y-8858250D02*
X17871750Y-8921750D01*
X17871750Y-8858250D02*
X17808250Y-8921750D01*
X17818250Y-8528250D02*
X17881750Y-8591750D01*
X17881750Y-8528250D02*
X17818250Y-8591750D01*
X17968250Y-5118250D02*
X18031750Y-5181750D01*
X18031750Y-5118250D02*
X17968250Y-5181750D01*
X17968250Y-14818250D02*
X18031750Y-14881750D01*
X18031750Y-14818250D02*
X17968250Y-14881750D01*
X17978250Y-13428250D02*
X18041750Y-13491750D01*
X18041750Y-13428250D02*
X17978250Y-13491750D01*
X18168250Y-11788250D02*
X18231750Y-11851750D01*
X18231750Y-11788250D02*
X18168250Y-11851750D01*
X18268250Y-13158250D02*
X18331750Y-13221750D01*
X18331750Y-13158250D02*
X18268250Y-13221750D01*
X18468250Y-5128250D02*
X18531750Y-5191750D01*
X18531750Y-5128250D02*
X18468250Y-5191750D01*
X18468250Y-14818250D02*
X18531750Y-14881750D01*
X18531750Y-14818250D02*
X18468250Y-14881750D01*
X11757660Y-6212840D02*
G75*
G03X11757660Y-6212840I-40640J0D01*
G01*
X11757660Y-6466840D02*
G75*
G03X11757660Y-6466840I-40640J0D01*
G01*
X11757660Y-6720840D02*
G75*
G03X11757660Y-6720840I-40640J0D01*
G01*
X15300960Y-8220710D02*
G75*
G03X15300960Y-8220710I-40640J0D01*
G01*
X15300960Y-8474710D02*
G75*
G03X15300960Y-8474710I-40640J0D01*
G01*
X15300960Y-8728710D02*
G75*
G03X15300960Y-8728710I-40640J0D01*
G01*
X15300960Y-8982710D02*
G75*
G03X15300960Y-8982710I-40640J0D01*
G01*
X15300960Y-9236710D02*
G75*
G03X15300960Y-9236710I-40640J0D01*
G01*
X16062960Y-8220710D02*
G75*
G03X16062960Y-8220710I-40640J0D01*
G01*
X16062960Y-8474710D02*
G75*
G03X16062960Y-8474710I-40640J0D01*
G01*
X16062960Y-8728710D02*
G75*
G03X16062960Y-8728710I-40640J0D01*
G01*
X16062960Y-8982710D02*
G75*
G03X16062960Y-8982710I-40640J0D01*
G01*
X16062960Y-9236710D02*
G75*
G03X16062960Y-9236710I-40640J0D01*
G01*
X16899640Y-5952000D02*
G75*
G03X16899640Y-5952000I-40640J0D01*
G01*
X16899640Y-6206000D02*
G75*
G03X16899640Y-6206000I-40640J0D01*
G01*
X16899640Y-6460000D02*
G75*
G03X16899640Y-6460000I-40640J0D01*
G01*
X16899640Y-6714000D02*
G75*
G03X16899640Y-6714000I-40640J0D01*
G01*
X16899640Y-6968000D02*
G75*
G03X16899640Y-6968000I-40640J0D01*
G01*
X16899640Y-7492000D02*
G75*
G03X16899640Y-7492000I-40640J0D01*
G01*
X16899640Y-7746000D02*
G75*
G03X16899640Y-7746000I-40640J0D01*
G01*
X16899640Y-8000000D02*
G75*
G03X16899640Y-8000000I-40640J0D01*
G01*
X16899640Y-8254000D02*
G75*
G03X16899640Y-8254000I-40640J0D01*
G01*
X16899640Y-8508000D02*
G75*
G03X16899640Y-8508000I-40640J0D01*
G01*
X16909640Y-9132000D02*
G75*
G03X16909640Y-9132000I-40640J0D01*
G01*
X16909640Y-9386000D02*
G75*
G03X16909640Y-9386000I-40640J0D01*
G01*
X16909640Y-9640000D02*
G75*
G03X16909640Y-9640000I-40640J0D01*
G01*
X16909640Y-9894000D02*
G75*
G03X16909640Y-9894000I-40640J0D01*
G01*
X16909640Y-10148000D02*
G75*
G03X16909640Y-10148000I-40640J0D01*
G01*
X16919640Y-10792000D02*
G75*
G03X16919640Y-10792000I-40640J0D01*
G01*
X16919640Y-11046000D02*
G75*
G03X16919640Y-11046000I-40640J0D01*
G01*
X16919640Y-11300000D02*
G75*
G03X16919640Y-11300000I-40640J0D01*
G01*
X16919640Y-11554000D02*
G75*
G03X16919640Y-11554000I-40640J0D01*
G01*
X16919640Y-11808000D02*
G75*
G03X16919640Y-11808000I-40640J0D01*
G01*
X16919640Y-12342000D02*
G75*
G03X16919640Y-12342000I-40640J0D01*
G01*
X16919640Y-12596000D02*
G75*
G03X16919640Y-12596000I-40640J0D01*
G01*
X16919640Y-12850000D02*
G75*
G03X16919640Y-12850000I-40640J0D01*
G01*
X16919640Y-13104000D02*
G75*
G03X16919640Y-13104000I-40640J0D01*
G01*
X16919640Y-13358000D02*
G75*
G03X16919640Y-13358000I-40640J0D01*
G01*
X17661640Y-5952000D02*
G75*
G03X17661640Y-5952000I-40640J0D01*
G01*
X17661640Y-6206000D02*
G75*
G03X17661640Y-6206000I-40640J0D01*
G01*
X17661640Y-6460000D02*
G75*
G03X17661640Y-6460000I-40640J0D01*
G01*
X17661640Y-6714000D02*
G75*
G03X17661640Y-6714000I-40640J0D01*
G01*
X17661640Y-6968000D02*
G75*
G03X17661640Y-6968000I-40640J0D01*
G01*
X17661640Y-7492000D02*
G75*
G03X17661640Y-7492000I-40640J0D01*
G01*
X17661640Y-7746000D02*
G75*
G03X17661640Y-7746000I-40640J0D01*
G01*
X17661640Y-8000000D02*
G75*
G03X17661640Y-8000000I-40640J0D01*
G01*
X17661640Y-8254000D02*
G75*
G03X17661640Y-8254000I-40640J0D01*
G01*
X17661640Y-8508000D02*
G75*
G03X17661640Y-8508000I-40640J0D01*
G01*
X17671640Y-9132000D02*
G75*
G03X17671640Y-9132000I-40640J0D01*
G01*
X17671640Y-9386000D02*
G75*
G03X17671640Y-9386000I-40640J0D01*
G01*
X17671640Y-9640000D02*
G75*
G03X17671640Y-9640000I-40640J0D01*
G01*
X17671640Y-9894000D02*
G75*
G03X17671640Y-9894000I-40640J0D01*
G01*
X17671640Y-10148000D02*
G75*
G03X17671640Y-10148000I-40640J0D01*
G01*
X17681640Y-10792000D02*
G75*
G03X17681640Y-10792000I-40640J0D01*
G01*
X17681640Y-11046000D02*
G75*
G03X17681640Y-11046000I-40640J0D01*
G01*
X17681640Y-11300000D02*
G75*
G03X17681640Y-11300000I-40640J0D01*
G01*
X17681640Y-11554000D02*
G75*
G03X17681640Y-11554000I-40640J0D01*
G01*
X17681640Y-11808000D02*
G75*
G03X17681640Y-11808000I-40640J0D01*
G01*
X17681640Y-12342000D02*
G75*
G03X17681640Y-12342000I-40640J0D01*
G01*
X17681640Y-12596000D02*
G75*
G03X17681640Y-12596000I-40640J0D01*
G01*
X17681640Y-12850000D02*
G75*
G03X17681640Y-12850000I-40640J0D01*
G01*
X17681640Y-13104000D02*
G75*
G03X17681640Y-13104000I-40640J0D01*
G01*
X17681640Y-13358000D02*
G75*
G03X17681640Y-13358000I-40640J0D01*
G01*
X17802640Y-13729000D02*
G75*
G03X17802640Y-13729000I-40640J0D01*
G01*
X17802640Y-14491000D02*
G75*
G03X17802640Y-14491000I-40640J0D01*
G01*
X18056640Y-13729000D02*
G75*
G03X18056640Y-13729000I-40640J0D01*
G01*
X18056640Y-14491000D02*
G75*
G03X18056640Y-14491000I-40640J0D01*
G01*
X18310640Y-13729000D02*
G75*
G03X18310640Y-13729000I-40640J0D01*
G01*
X18310640Y-14491000D02*
G75*
G03X18310640Y-14491000I-40640J0D01*
G01*
X18564640Y-13729000D02*
G75*
G03X18564640Y-13729000I-40640J0D01*
G01*
X18564640Y-14491000D02*
G75*
G03X18564640Y-14491000I-40640J0D01*
G01*
X18818640Y-13729000D02*
G75*
G03X18818640Y-13729000I-40640J0D01*
G01*
X18818640Y-14491000D02*
G75*
G03X18818640Y-14491000I-40640J0D01*
G01*
X11050000Y-9840026D02*
X11050000Y-9940102D01*
X10999962Y-9890064D02*
X11100038Y-9890064D01*
X11050000Y-10340152D02*
X11050000Y-10440228D01*
X10999962Y-10390190D02*
X11100038Y-10390190D01*
X12766000Y-5539962D02*
X12766000Y-5640038D01*
X12715962Y-5590000D02*
X12816038Y-5590000D01*
X13020000Y-5539962D02*
X13020000Y-5640038D01*
X12969962Y-5590000D02*
X13070038Y-5590000D01*
X13274000Y-5539962D02*
X13274000Y-5640038D01*
X13223962Y-5590000D02*
X13324038Y-5590000D01*
X14239240Y-7114032D02*
X14239240Y-7214108D01*
X14189202Y-7164070D02*
X14289278Y-7164070D01*
X14239240Y-7672832D02*
X14239240Y-7772908D01*
X14189202Y-7722870D02*
X14289278Y-7722870D01*
X14290000Y-9689772D02*
X14290000Y-9789848D01*
X14239962Y-9739810D02*
X14340038Y-9739810D01*
X14290000Y-10189898D02*
X14290000Y-10289974D01*
X14239962Y-10239936D02*
X14340038Y-10239936D01*
X15619730Y-7120382D02*
X15619730Y-7220458D01*
X15569692Y-7170420D02*
X15669768Y-7170420D01*
X15619730Y-7679182D02*
X15619730Y-7779258D01*
X15569692Y-7729220D02*
X15669768Y-7729220D01*
X16037560Y-5425948D02*
X16037560Y-5526024D01*
X15987522Y-5475986D02*
X16087598Y-5475986D01*
X16037560Y-6441948D02*
X16037560Y-6542024D01*
X15987522Y-6491986D02*
X16087598Y-6491986D01*
X18010400Y-9629562D02*
X18010400Y-9729638D01*
X17960362Y-9679600D02*
X18060438Y-9679600D01*
X18020400Y-11229562D02*
X18020400Y-11329638D01*
X17970362Y-11279600D02*
X18070438Y-11279600D01*
X18030400Y-6389562D02*
X18030400Y-6489638D01*
X17980362Y-6439600D02*
X18080438Y-6439600D01*
X18030400Y-7889562D02*
X18030400Y-7989638D01*
X17980362Y-7939600D02*
X18080438Y-7939600D01*
X18130800Y-12730362D02*
X18130800Y-12830438D01*
X18080762Y-12780400D02*
X18180838Y-12780400D01*
X18569200Y-9629562D02*
X18569200Y-9729638D01*
X18519162Y-9679600D02*
X18619238Y-9679600D01*
X18579200Y-11229562D02*
X18579200Y-11329638D01*
X18529162Y-11279600D02*
X18629238Y-11279600D01*
X18589200Y-6389562D02*
X18589200Y-6489638D01*
X18539162Y-6439600D02*
X18639238Y-6439600D01*
X18589200Y-7889562D02*
X18589200Y-7989638D01*
X18539162Y-7939600D02*
X18639238Y-7939600D01*
X18689600Y-12730362D02*
X18689600Y-12830438D01*
X18639562Y-12780400D02*
X18739638Y-12780400D01*
X19030400Y-9649562D02*
X19030400Y-9749638D01*
X18980362Y-9699600D02*
X19080438Y-9699600D01*
X19040400Y-11239562D02*
X19040400Y-11339638D01*
X18990362Y-11289600D02*
X19090438Y-11289600D01*
X19050400Y-6389562D02*
X19050400Y-6489638D01*
X19000362Y-6439600D02*
X19100438Y-6439600D01*
X19050400Y-12739562D02*
X19050400Y-12839638D01*
X19000362Y-12789600D02*
X19100438Y-12789600D01*
X19070400Y-7889562D02*
X19070400Y-7989638D01*
X19020362Y-7939600D02*
X19120438Y-7939600D01*
X19589200Y-9649562D02*
X19589200Y-9749638D01*
X19539162Y-9699600D02*
X19639238Y-9699600D01*
X19599200Y-11239562D02*
X19599200Y-11339638D01*
X19549162Y-11289600D02*
X19649238Y-11289600D01*
X19609200Y-6389562D02*
X19609200Y-6489638D01*
X19559162Y-6439600D02*
X19659238Y-6439600D01*
X19609200Y-12739562D02*
X19609200Y-12839638D01*
X19559162Y-12789600D02*
X19659238Y-12789600D01*
X19629200Y-7889562D02*
X19629200Y-7989638D01*
X19579162Y-7939600D02*
X19679238Y-7939600D01*
X10508921Y-8305921D02*
X10508921Y-8234079D01*
X10437079Y-8234079D01*
X10437079Y-8305921D01*
X10508921Y-8305921D01*
X10528921Y-6275921D02*
X10528921Y-6204079D01*
X10457079Y-6204079D01*
X10457079Y-6275921D01*
X10528921Y-6275921D01*
X10762921Y-8305921D02*
X10762921Y-8234079D01*
X10691079Y-8234079D01*
X10691079Y-8305921D01*
X10762921Y-8305921D01*
X10782921Y-6275921D02*
X10782921Y-6204079D01*
X10711079Y-6204079D01*
X10711079Y-6275921D01*
X10782921Y-6275921D01*
X13558921Y-8405921D02*
X13558921Y-8334079D01*
X13487079Y-8334079D01*
X13487079Y-8405921D01*
X13558921Y-8405921D01*
X13812921Y-8405921D02*
X13812921Y-8334079D01*
X13741079Y-8334079D01*
X13741079Y-8405921D01*
X13812921Y-8405921D01*
X13894161Y-6033521D02*
X13894161Y-5961679D01*
X13822319Y-5961679D01*
X13822319Y-6033521D01*
X13894161Y-6033521D01*
X13894161Y-6833521D02*
X13894161Y-6761679D01*
X13822319Y-6761679D01*
X13822319Y-6833521D01*
X13894161Y-6833521D01*
X15965921Y-12685921D02*
X15965921Y-12614079D01*
X15894079Y-12614079D01*
X15894079Y-12685921D01*
X15965921Y-12685921D01*
X15965921Y-12939921D02*
X15965921Y-12868079D01*
X15894079Y-12868079D01*
X15894079Y-12939921D01*
X15965921Y-12939921D01*
X15965921Y-13193921D02*
X15965921Y-13122079D01*
X15894079Y-13122079D01*
X15894079Y-13193921D01*
X15965921Y-13193921D01*
X15965921Y-13447921D02*
X15965921Y-13376079D01*
X15894079Y-13376079D01*
X15894079Y-13447921D01*
X15965921Y-13447921D01*
X15965921Y-13701921D02*
X15965921Y-13630079D01*
X15894079Y-13630079D01*
X15894079Y-13701921D01*
X15965921Y-13701921D01*
X15965921Y-13955921D02*
X15965921Y-13884079D01*
X15894079Y-13884079D01*
X15894079Y-13955921D01*
X15965921Y-13955921D01*
X15965921Y-14209921D02*
X15965921Y-14138079D01*
X15894079Y-14138079D01*
X15894079Y-14209921D01*
X15965921Y-14209921D01*
X17018921Y-14605921D02*
X17018921Y-14534079D01*
X16947079Y-14534079D01*
X16947079Y-14605921D01*
X17018921Y-14605921D01*
X17272921Y-14605921D02*
X17272921Y-14534079D01*
X17201079Y-14534079D01*
X17201079Y-14605921D01*
X17272921Y-14605921D01*
X10630000Y-7156040D02*
X10696040Y-7090000D01*
X10630000Y-7023960D01*
X10563960Y-7090000D01*
X10630000Y-7156040D01*
X10630000Y-7656040D02*
X10696040Y-7590000D01*
X10630000Y-7523960D01*
X10563960Y-7590000D01*
X10630000Y-7656040D01*
X13783240Y-5522600D02*
X13933240Y-5672600D01*
X13933240Y-5522600D02*
X13783240Y-5672600D01*
X13933240Y-5597600D02*
G75*
G03X13933240Y-5597600I-75000J0D01*
G01*
X13783240Y-6322600D02*
X13933240Y-6472600D01*
X13933240Y-6322600D02*
X13783240Y-6472600D01*
X13933240Y-6397600D02*
G75*
G03X13933240Y-6397600I-75000J0D01*
G01*
X10200000Y-14410000D02*
X10590000Y-14800000D01*
X10590000Y-14410000D02*
X10200000Y-14800000D01*
X10395000Y-14410000D02*
X10395000Y-14800000D01*
X10200000Y-14605000D02*
X10590000Y-14605000D01*
X10205000Y-9045000D02*
X10595000Y-9435000D01*
X10595000Y-9045000D02*
X10205000Y-9435000D01*
X10400000Y-9045000D02*
X10400000Y-9435000D01*
X10205000Y-9240000D02*
X10595000Y-9240000D01*
X10215000Y-5195000D02*
X10605000Y-5585000D01*
X10605000Y-5195000D02*
X10215000Y-5585000D01*
X10410000Y-5195000D02*
X10410000Y-5585000D01*
X10215000Y-5390000D02*
X10605000Y-5390000D01*
X14390000Y-8145000D02*
X14780000Y-8535000D01*
X14780000Y-8145000D02*
X14390000Y-8535000D01*
X14585000Y-8145000D02*
X14585000Y-8535000D01*
X14390000Y-8340000D02*
X14780000Y-8340000D01*
X14465000Y-5185000D02*
X14855000Y-5575000D01*
X14855000Y-5185000D02*
X14465000Y-5575000D01*
X14660000Y-5185000D02*
X14660000Y-5575000D01*
X14465000Y-5380000D02*
X14855000Y-5380000D01*
X19405000Y-5205000D02*
X19795000Y-5595000D01*
X19795000Y-5205000D02*
X19405000Y-5595000D01*
X19600000Y-5205000D02*
X19600000Y-5595000D01*
X19405000Y-5400000D02*
X19795000Y-5400000D01*
X19425000Y-14430000D02*
X19815000Y-14820000D01*
X19815000Y-14430000D02*
X19425000Y-14820000D01*
X19620000Y-14430000D02*
X19620000Y-14820000D01*
X19425000Y-14625000D02*
X19815000Y-14625000D01*
X12720026Y-6820026D02*
X13319974Y-7419974D01*
X13319974Y-6820026D02*
X12720026Y-7419974D01*
X13232116Y-7332116D02*
X13232116Y-6907884D01*
X12807884Y-6907884D01*
X12807884Y-7332116D01*
X13232116Y-7332116D01*
D13*
X10266429Y-15470714D02*
X10266429Y-15170714D01*
X10337857Y-15170714D01*
X10380714Y-15185000D01*
X10409286Y-15213571D01*
X10423571Y-15242143D01*
X10437857Y-15299286D01*
X10437857Y-15342143D01*
X10423571Y-15399286D01*
X10409286Y-15427857D01*
X10380714Y-15456429D01*
X10337857Y-15470714D01*
X10266429Y-15470714D01*
X10566429Y-15470714D02*
X10566429Y-15270714D01*
X10566429Y-15327857D02*
X10580714Y-15299286D01*
X10595000Y-15285000D01*
X10623571Y-15270714D01*
X10652143Y-15270714D01*
X10752143Y-15470714D02*
X10752143Y-15270714D01*
X10752143Y-15170714D02*
X10737857Y-15185000D01*
X10752143Y-15199286D01*
X10766429Y-15185000D01*
X10752143Y-15170714D01*
X10752143Y-15199286D01*
X10937857Y-15470714D02*
X10909286Y-15456429D01*
X10895000Y-15427857D01*
X10895000Y-15170714D01*
X11095000Y-15470714D02*
X11066429Y-15456429D01*
X11052143Y-15427857D01*
X11052143Y-15170714D01*
X11437857Y-15470714D02*
X11437857Y-15170714D01*
X11537857Y-15385000D01*
X11637857Y-15170714D01*
X11637857Y-15470714D01*
X11909286Y-15470714D02*
X11909286Y-15313571D01*
X11895000Y-15285000D01*
X11866428Y-15270714D01*
X11809286Y-15270714D01*
X11780714Y-15285000D01*
X11909286Y-15456429D02*
X11880714Y-15470714D01*
X11809286Y-15470714D01*
X11780714Y-15456429D01*
X11766428Y-15427857D01*
X11766428Y-15399286D01*
X11780714Y-15370714D01*
X11809286Y-15356429D01*
X11880714Y-15356429D01*
X11909286Y-15342143D01*
X12052143Y-15270714D02*
X12052143Y-15570714D01*
X12052143Y-15285000D02*
X12080714Y-15270714D01*
X12137857Y-15270714D01*
X12166428Y-15285000D01*
X12180714Y-15299286D01*
X12195000Y-15327857D01*
X12195000Y-15413571D01*
X12180714Y-15442143D01*
X12166428Y-15456429D01*
X12137857Y-15470714D01*
X12080714Y-15470714D01*
X12052143Y-15456429D01*
X12323571Y-15442143D02*
X12337857Y-15456429D01*
X12323571Y-15470714D01*
X12309286Y-15456429D01*
X12323571Y-15442143D01*
X12323571Y-15470714D01*
X12323571Y-15285000D02*
X12337857Y-15299286D01*
X12323571Y-15313571D01*
X12309286Y-15299286D01*
X12323571Y-15285000D01*
X12323571Y-15313571D01*
X9931500Y-15933250D02*
X9995000Y-15996750D01*
X9995000Y-15933250D02*
X9931500Y-15996750D01*
X10323571Y-15800714D02*
X10352143Y-15800714D01*
X10380714Y-15815000D01*
X10395000Y-15829286D01*
X10409286Y-15857857D01*
X10423571Y-15915000D01*
X10423571Y-15986429D01*
X10409286Y-16043571D01*
X10395000Y-16072143D01*
X10380714Y-16086429D01*
X10352143Y-16100714D01*
X10323571Y-16100714D01*
X10295000Y-16086429D01*
X10280714Y-16072143D01*
X10266429Y-16043571D01*
X10252143Y-15986429D01*
X10252143Y-15915000D01*
X10266429Y-15857857D01*
X10280714Y-15829286D01*
X10295000Y-15815000D01*
X10323571Y-15800714D01*
X10552143Y-16072143D02*
X10566429Y-16086429D01*
X10552143Y-16100714D01*
X10537857Y-16086429D01*
X10552143Y-16072143D01*
X10552143Y-16100714D01*
X10823571Y-15800714D02*
X10766428Y-15800714D01*
X10737857Y-15815000D01*
X10723571Y-15829286D01*
X10695000Y-15872143D01*
X10680714Y-15929286D01*
X10680714Y-16043571D01*
X10695000Y-16072143D01*
X10709286Y-16086429D01*
X10737857Y-16100714D01*
X10795000Y-16100714D01*
X10823571Y-16086429D01*
X10837857Y-16072143D01*
X10852143Y-16043571D01*
X10852143Y-15972143D01*
X10837857Y-15943571D01*
X10823571Y-15929286D01*
X10795000Y-15915000D01*
X10737857Y-15915000D01*
X10709286Y-15929286D01*
X10695000Y-15943571D01*
X10680714Y-15972143D01*
X11109286Y-15900714D02*
X11109286Y-16100714D01*
X11037857Y-15786429D02*
X10966429Y-16000714D01*
X11152143Y-16000714D01*
X11266428Y-16100714D02*
X11266428Y-15900714D01*
X11266428Y-15929286D02*
X11280714Y-15915000D01*
X11309286Y-15900714D01*
X11352143Y-15900714D01*
X11380714Y-15915000D01*
X11395000Y-15943571D01*
X11395000Y-16100714D01*
X11395000Y-15943571D02*
X11409286Y-15915000D01*
X11437857Y-15900714D01*
X11480714Y-15900714D01*
X11509286Y-15915000D01*
X11523571Y-15943571D01*
X11523571Y-16100714D01*
X11666428Y-16100714D02*
X11666428Y-15900714D01*
X11666428Y-15929286D02*
X11680714Y-15915000D01*
X11709286Y-15900714D01*
X11752143Y-15900714D01*
X11780714Y-15915000D01*
X11795000Y-15943571D01*
X11795000Y-16100714D01*
X11795000Y-15943571D02*
X11809286Y-15915000D01*
X11837857Y-15900714D01*
X11880714Y-15900714D01*
X11909286Y-15915000D01*
X11923571Y-15943571D01*
X11923571Y-16100714D01*
X12509286Y-15786429D02*
X12252143Y-16172143D01*
X12895000Y-15800714D02*
X12923571Y-15800714D01*
X12952143Y-15815000D01*
X12966428Y-15829286D01*
X12980714Y-15857857D01*
X12995000Y-15915000D01*
X12995000Y-15986429D01*
X12980714Y-16043571D01*
X12966428Y-16072143D01*
X12952143Y-16086429D01*
X12923571Y-16100714D01*
X12895000Y-16100714D01*
X12866428Y-16086429D01*
X12852143Y-16072143D01*
X12837857Y-16043571D01*
X12823571Y-15986429D01*
X12823571Y-15915000D01*
X12837857Y-15857857D01*
X12852143Y-15829286D01*
X12866428Y-15815000D01*
X12895000Y-15800714D01*
X13123571Y-16072143D02*
X13137857Y-16086429D01*
X13123571Y-16100714D01*
X13109286Y-16086429D01*
X13123571Y-16072143D01*
X13123571Y-16100714D01*
X13323571Y-15800714D02*
X13352143Y-15800714D01*
X13380714Y-15815000D01*
X13395000Y-15829286D01*
X13409285Y-15857857D01*
X13423571Y-15915000D01*
X13423571Y-15986429D01*
X13409285Y-16043571D01*
X13395000Y-16072143D01*
X13380714Y-16086429D01*
X13352143Y-16100714D01*
X13323571Y-16100714D01*
X13295000Y-16086429D01*
X13280714Y-16072143D01*
X13266428Y-16043571D01*
X13252143Y-15986429D01*
X13252143Y-15915000D01*
X13266428Y-15857857D01*
X13280714Y-15829286D01*
X13295000Y-15815000D01*
X13323571Y-15800714D01*
X13537857Y-15829286D02*
X13552143Y-15815000D01*
X13580714Y-15800714D01*
X13652143Y-15800714D01*
X13680714Y-15815000D01*
X13695000Y-15829286D01*
X13709285Y-15857857D01*
X13709285Y-15886429D01*
X13695000Y-15929286D01*
X13523571Y-16100714D01*
X13709285Y-16100714D01*
X13980714Y-15800714D02*
X13837857Y-15800714D01*
X13823571Y-15943571D01*
X13837857Y-15929286D01*
X13866428Y-15915000D01*
X13937857Y-15915000D01*
X13966428Y-15929286D01*
X13980714Y-15943571D01*
X13995000Y-15972143D01*
X13995000Y-16043571D01*
X13980714Y-16072143D01*
X13966428Y-16086429D01*
X13937857Y-16100714D01*
X13866428Y-16100714D01*
X13837857Y-16086429D01*
X13823571Y-16072143D01*
X14109286Y-15800714D02*
X14109286Y-15857857D01*
X14223571Y-15800714D02*
X14223571Y-15857857D01*
X14666428Y-16215000D02*
X14652143Y-16200714D01*
X14623571Y-16157857D01*
X14609285Y-16129286D01*
X14595000Y-16086429D01*
X14580714Y-16015000D01*
X14580714Y-15957857D01*
X14595000Y-15886429D01*
X14609285Y-15843571D01*
X14623571Y-15815000D01*
X14652143Y-15772143D01*
X14666428Y-15757857D01*
X14937857Y-16100714D02*
X14766428Y-16100714D01*
X14852143Y-16100714D02*
X14852143Y-15800714D01*
X14823571Y-15843571D01*
X14795000Y-15872143D01*
X14766428Y-15886429D01*
X15052143Y-15829286D02*
X15066428Y-15815000D01*
X15095000Y-15800714D01*
X15166428Y-15800714D01*
X15195000Y-15815000D01*
X15209285Y-15829286D01*
X15223571Y-15857857D01*
X15223571Y-15886429D01*
X15209285Y-15929286D01*
X15037857Y-16100714D01*
X15223571Y-16100714D01*
X15323571Y-15800714D02*
X15509285Y-15800714D01*
X15409285Y-15915000D01*
X15452143Y-15915000D01*
X15480714Y-15929286D01*
X15495000Y-15943571D01*
X15509285Y-15972143D01*
X15509285Y-16043571D01*
X15495000Y-16072143D01*
X15480714Y-16086429D01*
X15452143Y-16100714D01*
X15366428Y-16100714D01*
X15337857Y-16086429D01*
X15323571Y-16072143D01*
X15866428Y-16100714D02*
X15866428Y-15800714D01*
X15995000Y-16100714D02*
X15995000Y-15943571D01*
X15980714Y-15915000D01*
X15952143Y-15900714D01*
X15909285Y-15900714D01*
X15880714Y-15915000D01*
X15866428Y-15929286D01*
X16180714Y-16100714D02*
X16152143Y-16086429D01*
X16137857Y-16072143D01*
X16123571Y-16043571D01*
X16123571Y-15957857D01*
X16137857Y-15929286D01*
X16152143Y-15915000D01*
X16180714Y-15900714D01*
X16223571Y-15900714D01*
X16252143Y-15915000D01*
X16266428Y-15929286D01*
X16280714Y-15957857D01*
X16280714Y-16043571D01*
X16266428Y-16072143D01*
X16252143Y-16086429D01*
X16223571Y-16100714D01*
X16180714Y-16100714D01*
X16452143Y-16100714D02*
X16423571Y-16086429D01*
X16409286Y-16057857D01*
X16409286Y-15800714D01*
X16680714Y-16086429D02*
X16652143Y-16100714D01*
X16595000Y-16100714D01*
X16566428Y-16086429D01*
X16552143Y-16057857D01*
X16552143Y-15943571D01*
X16566428Y-15915000D01*
X16595000Y-15900714D01*
X16652143Y-15900714D01*
X16680714Y-15915000D01*
X16695000Y-15943571D01*
X16695000Y-15972143D01*
X16552143Y-16000714D01*
X16809286Y-16086429D02*
X16837857Y-16100714D01*
X16895000Y-16100714D01*
X16923571Y-16086429D01*
X16937857Y-16057857D01*
X16937857Y-16043571D01*
X16923571Y-16015000D01*
X16895000Y-16000714D01*
X16852143Y-16000714D01*
X16823571Y-15986429D01*
X16809286Y-15957857D01*
X16809286Y-15943571D01*
X16823571Y-15915000D01*
X16852143Y-15900714D01*
X16895000Y-15900714D01*
X16923571Y-15915000D01*
X17037857Y-16215000D02*
X17052143Y-16200714D01*
X17080714Y-16157857D01*
X17095000Y-16129286D01*
X17109286Y-16086429D01*
X17123571Y-16015000D01*
X17123571Y-15957857D01*
X17109286Y-15886429D01*
X17095000Y-15843571D01*
X17080714Y-15815000D01*
X17052143Y-15772143D01*
X17037857Y-15757857D01*
X9995000Y-16361000D02*
G75*
G03X9995000Y-16361000I-40640J0D01*
G01*
X10323571Y-16196714D02*
X10352143Y-16196714D01*
X10380714Y-16211000D01*
X10395000Y-16225286D01*
X10409286Y-16253857D01*
X10423571Y-16311000D01*
X10423571Y-16382429D01*
X10409286Y-16439571D01*
X10395000Y-16468143D01*
X10380714Y-16482429D01*
X10352143Y-16496714D01*
X10323571Y-16496714D01*
X10295000Y-16482429D01*
X10280714Y-16468143D01*
X10266429Y-16439571D01*
X10252143Y-16382429D01*
X10252143Y-16311000D01*
X10266429Y-16253857D01*
X10280714Y-16225286D01*
X10295000Y-16211000D01*
X10323571Y-16196714D01*
X10552143Y-16468143D02*
X10566429Y-16482429D01*
X10552143Y-16496714D01*
X10537857Y-16482429D01*
X10552143Y-16468143D01*
X10552143Y-16496714D01*
X10737857Y-16325286D02*
X10709286Y-16311000D01*
X10695000Y-16296714D01*
X10680714Y-16268143D01*
X10680714Y-16253857D01*
X10695000Y-16225286D01*
X10709286Y-16211000D01*
X10737857Y-16196714D01*
X10795000Y-16196714D01*
X10823571Y-16211000D01*
X10837857Y-16225286D01*
X10852143Y-16253857D01*
X10852143Y-16268143D01*
X10837857Y-16296714D01*
X10823571Y-16311000D01*
X10795000Y-16325286D01*
X10737857Y-16325286D01*
X10709286Y-16339571D01*
X10695000Y-16353857D01*
X10680714Y-16382429D01*
X10680714Y-16439571D01*
X10695000Y-16468143D01*
X10709286Y-16482429D01*
X10737857Y-16496714D01*
X10795000Y-16496714D01*
X10823571Y-16482429D01*
X10837857Y-16468143D01*
X10852143Y-16439571D01*
X10852143Y-16382429D01*
X10837857Y-16353857D01*
X10823571Y-16339571D01*
X10795000Y-16325286D01*
X11137857Y-16496714D02*
X10966429Y-16496714D01*
X11052143Y-16496714D02*
X11052143Y-16196714D01*
X11023571Y-16239571D01*
X10995000Y-16268143D01*
X10966429Y-16282429D01*
X11266428Y-16496714D02*
X11266428Y-16296714D01*
X11266428Y-16325286D02*
X11280714Y-16311000D01*
X11309286Y-16296714D01*
X11352143Y-16296714D01*
X11380714Y-16311000D01*
X11395000Y-16339571D01*
X11395000Y-16496714D01*
X11395000Y-16339571D02*
X11409286Y-16311000D01*
X11437857Y-16296714D01*
X11480714Y-16296714D01*
X11509286Y-16311000D01*
X11523571Y-16339571D01*
X11523571Y-16496714D01*
X11666428Y-16496714D02*
X11666428Y-16296714D01*
X11666428Y-16325286D02*
X11680714Y-16311000D01*
X11709286Y-16296714D01*
X11752143Y-16296714D01*
X11780714Y-16311000D01*
X11795000Y-16339571D01*
X11795000Y-16496714D01*
X11795000Y-16339571D02*
X11809286Y-16311000D01*
X11837857Y-16296714D01*
X11880714Y-16296714D01*
X11909286Y-16311000D01*
X11923571Y-16339571D01*
X11923571Y-16496714D01*
X12509286Y-16182429D02*
X12252143Y-16568143D01*
X12895000Y-16196714D02*
X12923571Y-16196714D01*
X12952143Y-16211000D01*
X12966428Y-16225286D01*
X12980714Y-16253857D01*
X12995000Y-16311000D01*
X12995000Y-16382429D01*
X12980714Y-16439571D01*
X12966428Y-16468143D01*
X12952143Y-16482429D01*
X12923571Y-16496714D01*
X12895000Y-16496714D01*
X12866428Y-16482429D01*
X12852143Y-16468143D01*
X12837857Y-16439571D01*
X12823571Y-16382429D01*
X12823571Y-16311000D01*
X12837857Y-16253857D01*
X12852143Y-16225286D01*
X12866428Y-16211000D01*
X12895000Y-16196714D01*
X13123571Y-16468143D02*
X13137857Y-16482429D01*
X13123571Y-16496714D01*
X13109286Y-16482429D01*
X13123571Y-16468143D01*
X13123571Y-16496714D01*
X13323571Y-16196714D02*
X13352143Y-16196714D01*
X13380714Y-16211000D01*
X13395000Y-16225286D01*
X13409285Y-16253857D01*
X13423571Y-16311000D01*
X13423571Y-16382429D01*
X13409285Y-16439571D01*
X13395000Y-16468143D01*
X13380714Y-16482429D01*
X13352143Y-16496714D01*
X13323571Y-16496714D01*
X13295000Y-16482429D01*
X13280714Y-16468143D01*
X13266428Y-16439571D01*
X13252143Y-16382429D01*
X13252143Y-16311000D01*
X13266428Y-16253857D01*
X13280714Y-16225286D01*
X13295000Y-16211000D01*
X13323571Y-16196714D01*
X13523571Y-16196714D02*
X13709285Y-16196714D01*
X13609285Y-16311000D01*
X13652143Y-16311000D01*
X13680714Y-16325286D01*
X13695000Y-16339571D01*
X13709285Y-16368143D01*
X13709285Y-16439571D01*
X13695000Y-16468143D01*
X13680714Y-16482429D01*
X13652143Y-16496714D01*
X13566428Y-16496714D01*
X13537857Y-16482429D01*
X13523571Y-16468143D01*
X13823571Y-16225286D02*
X13837857Y-16211000D01*
X13866428Y-16196714D01*
X13937857Y-16196714D01*
X13966428Y-16211000D01*
X13980714Y-16225286D01*
X13995000Y-16253857D01*
X13995000Y-16282429D01*
X13980714Y-16325286D01*
X13809285Y-16496714D01*
X13995000Y-16496714D01*
X14109286Y-16196714D02*
X14109286Y-16253857D01*
X14223571Y-16196714D02*
X14223571Y-16253857D01*
X14666428Y-16611000D02*
X14652143Y-16596714D01*
X14623571Y-16553857D01*
X14609285Y-16525286D01*
X14595000Y-16482429D01*
X14580714Y-16411000D01*
X14580714Y-16353857D01*
X14595000Y-16282429D01*
X14609285Y-16239571D01*
X14623571Y-16211000D01*
X14652143Y-16168143D01*
X14666428Y-16153857D01*
X14752143Y-16196714D02*
X14952143Y-16196714D01*
X14823571Y-16496714D01*
X15037857Y-16196714D02*
X15223571Y-16196714D01*
X15123571Y-16311000D01*
X15166428Y-16311000D01*
X15195000Y-16325286D01*
X15209285Y-16339571D01*
X15223571Y-16368143D01*
X15223571Y-16439571D01*
X15209285Y-16468143D01*
X15195000Y-16482429D01*
X15166428Y-16496714D01*
X15080714Y-16496714D01*
X15052143Y-16482429D01*
X15037857Y-16468143D01*
X15580714Y-16496714D02*
X15580714Y-16196714D01*
X15709285Y-16496714D02*
X15709285Y-16339571D01*
X15695000Y-16311000D01*
X15666428Y-16296714D01*
X15623571Y-16296714D01*
X15595000Y-16311000D01*
X15580714Y-16325286D01*
X15895000Y-16496714D02*
X15866428Y-16482429D01*
X15852143Y-16468143D01*
X15837857Y-16439571D01*
X15837857Y-16353857D01*
X15852143Y-16325286D01*
X15866428Y-16311000D01*
X15895000Y-16296714D01*
X15937857Y-16296714D01*
X15966428Y-16311000D01*
X15980714Y-16325286D01*
X15995000Y-16353857D01*
X15995000Y-16439571D01*
X15980714Y-16468143D01*
X15966428Y-16482429D01*
X15937857Y-16496714D01*
X15895000Y-16496714D01*
X16166428Y-16496714D02*
X16137857Y-16482429D01*
X16123571Y-16453857D01*
X16123571Y-16196714D01*
X16395000Y-16482429D02*
X16366428Y-16496714D01*
X16309286Y-16496714D01*
X16280714Y-16482429D01*
X16266428Y-16453857D01*
X16266428Y-16339571D01*
X16280714Y-16311000D01*
X16309286Y-16296714D01*
X16366428Y-16296714D01*
X16395000Y-16311000D01*
X16409286Y-16339571D01*
X16409286Y-16368143D01*
X16266428Y-16396714D01*
X16523571Y-16482429D02*
X16552143Y-16496714D01*
X16609286Y-16496714D01*
X16637857Y-16482429D01*
X16652143Y-16453857D01*
X16652143Y-16439571D01*
X16637857Y-16411000D01*
X16609286Y-16396714D01*
X16566428Y-16396714D01*
X16537857Y-16382429D01*
X16523571Y-16353857D01*
X16523571Y-16339571D01*
X16537857Y-16311000D01*
X16566428Y-16296714D01*
X16609286Y-16296714D01*
X16637857Y-16311000D01*
X16752143Y-16611000D02*
X16766428Y-16596714D01*
X16795000Y-16553857D01*
X16809286Y-16525286D01*
X16823571Y-16482429D01*
X16837857Y-16411000D01*
X16837857Y-16353857D01*
X16823571Y-16282429D01*
X16809286Y-16239571D01*
X16795000Y-16211000D01*
X16766428Y-16168143D01*
X16752143Y-16153857D01*
X9944962Y-16706962D02*
X9944962Y-16807038D01*
X9894924Y-16757000D02*
X9995000Y-16757000D01*
X10423571Y-16892714D02*
X10252143Y-16892714D01*
X10337857Y-16892714D02*
X10337857Y-16592714D01*
X10309286Y-16635571D01*
X10280714Y-16664143D01*
X10252143Y-16678429D01*
X10552143Y-16864143D02*
X10566429Y-16878429D01*
X10552143Y-16892714D01*
X10537857Y-16878429D01*
X10552143Y-16864143D01*
X10552143Y-16892714D01*
X10752143Y-16592714D02*
X10780714Y-16592714D01*
X10809286Y-16607000D01*
X10823571Y-16621286D01*
X10837857Y-16649857D01*
X10852143Y-16707000D01*
X10852143Y-16778429D01*
X10837857Y-16835572D01*
X10823571Y-16864143D01*
X10809286Y-16878429D01*
X10780714Y-16892714D01*
X10752143Y-16892714D01*
X10723571Y-16878429D01*
X10709286Y-16864143D01*
X10695000Y-16835572D01*
X10680714Y-16778429D01*
X10680714Y-16707000D01*
X10695000Y-16649857D01*
X10709286Y-16621286D01*
X10723571Y-16607000D01*
X10752143Y-16592714D01*
X11037857Y-16592714D02*
X11066429Y-16592714D01*
X11095000Y-16607000D01*
X11109286Y-16621286D01*
X11123571Y-16649857D01*
X11137857Y-16707000D01*
X11137857Y-16778429D01*
X11123571Y-16835572D01*
X11109286Y-16864143D01*
X11095000Y-16878429D01*
X11066429Y-16892714D01*
X11037857Y-16892714D01*
X11009286Y-16878429D01*
X10995000Y-16864143D01*
X10980714Y-16835572D01*
X10966429Y-16778429D01*
X10966429Y-16707000D01*
X10980714Y-16649857D01*
X10995000Y-16621286D01*
X11009286Y-16607000D01*
X11037857Y-16592714D01*
X11266428Y-16892714D02*
X11266428Y-16692714D01*
X11266428Y-16721286D02*
X11280714Y-16707000D01*
X11309286Y-16692714D01*
X11352143Y-16692714D01*
X11380714Y-16707000D01*
X11395000Y-16735571D01*
X11395000Y-16892714D01*
X11395000Y-16735571D02*
X11409286Y-16707000D01*
X11437857Y-16692714D01*
X11480714Y-16692714D01*
X11509286Y-16707000D01*
X11523571Y-16735571D01*
X11523571Y-16892714D01*
X11666428Y-16892714D02*
X11666428Y-16692714D01*
X11666428Y-16721286D02*
X11680714Y-16707000D01*
X11709286Y-16692714D01*
X11752143Y-16692714D01*
X11780714Y-16707000D01*
X11795000Y-16735571D01*
X11795000Y-16892714D01*
X11795000Y-16735571D02*
X11809286Y-16707000D01*
X11837857Y-16692714D01*
X11880714Y-16692714D01*
X11909286Y-16707000D01*
X11923571Y-16735571D01*
X11923571Y-16892714D01*
X12509286Y-16578429D02*
X12252143Y-16964143D01*
X12895000Y-16592714D02*
X12923571Y-16592714D01*
X12952143Y-16607000D01*
X12966428Y-16621286D01*
X12980714Y-16649857D01*
X12995000Y-16707000D01*
X12995000Y-16778429D01*
X12980714Y-16835572D01*
X12966428Y-16864143D01*
X12952143Y-16878429D01*
X12923571Y-16892714D01*
X12895000Y-16892714D01*
X12866428Y-16878429D01*
X12852143Y-16864143D01*
X12837857Y-16835572D01*
X12823571Y-16778429D01*
X12823571Y-16707000D01*
X12837857Y-16649857D01*
X12852143Y-16621286D01*
X12866428Y-16607000D01*
X12895000Y-16592714D01*
X13123571Y-16864143D02*
X13137857Y-16878429D01*
X13123571Y-16892714D01*
X13109286Y-16878429D01*
X13123571Y-16864143D01*
X13123571Y-16892714D01*
X13323571Y-16592714D02*
X13352143Y-16592714D01*
X13380714Y-16607000D01*
X13395000Y-16621286D01*
X13409285Y-16649857D01*
X13423571Y-16707000D01*
X13423571Y-16778429D01*
X13409285Y-16835572D01*
X13395000Y-16864143D01*
X13380714Y-16878429D01*
X13352143Y-16892714D01*
X13323571Y-16892714D01*
X13295000Y-16878429D01*
X13280714Y-16864143D01*
X13266428Y-16835572D01*
X13252143Y-16778429D01*
X13252143Y-16707000D01*
X13266428Y-16649857D01*
X13280714Y-16621286D01*
X13295000Y-16607000D01*
X13323571Y-16592714D01*
X13523571Y-16592714D02*
X13709285Y-16592714D01*
X13609285Y-16707000D01*
X13652143Y-16707000D01*
X13680714Y-16721286D01*
X13695000Y-16735571D01*
X13709285Y-16764143D01*
X13709285Y-16835572D01*
X13695000Y-16864143D01*
X13680714Y-16878429D01*
X13652143Y-16892714D01*
X13566428Y-16892714D01*
X13537857Y-16878429D01*
X13523571Y-16864143D01*
X13852143Y-16892714D02*
X13909285Y-16892714D01*
X13937857Y-16878429D01*
X13952143Y-16864143D01*
X13980714Y-16821286D01*
X13995000Y-16764143D01*
X13995000Y-16649857D01*
X13980714Y-16621286D01*
X13966428Y-16607000D01*
X13937857Y-16592714D01*
X13880714Y-16592714D01*
X13852143Y-16607000D01*
X13837857Y-16621286D01*
X13823571Y-16649857D01*
X13823571Y-16721286D01*
X13837857Y-16749857D01*
X13852143Y-16764143D01*
X13880714Y-16778429D01*
X13937857Y-16778429D01*
X13966428Y-16764143D01*
X13980714Y-16749857D01*
X13995000Y-16721286D01*
X14109286Y-16592714D02*
X14109286Y-16649857D01*
X14223571Y-16592714D02*
X14223571Y-16649857D01*
X14666428Y-17007000D02*
X14652143Y-16992714D01*
X14623571Y-16949857D01*
X14609285Y-16921286D01*
X14595000Y-16878429D01*
X14580714Y-16807000D01*
X14580714Y-16749857D01*
X14595000Y-16678429D01*
X14609285Y-16635571D01*
X14623571Y-16607000D01*
X14652143Y-16564143D01*
X14666428Y-16549857D01*
X14752143Y-16592714D02*
X14937857Y-16592714D01*
X14837857Y-16707000D01*
X14880714Y-16707000D01*
X14909285Y-16721286D01*
X14923571Y-16735571D01*
X14937857Y-16764143D01*
X14937857Y-16835572D01*
X14923571Y-16864143D01*
X14909285Y-16878429D01*
X14880714Y-16892714D01*
X14795000Y-16892714D01*
X14766428Y-16878429D01*
X14752143Y-16864143D01*
X15037857Y-16592714D02*
X15223571Y-16592714D01*
X15123571Y-16707000D01*
X15166428Y-16707000D01*
X15195000Y-16721286D01*
X15209285Y-16735571D01*
X15223571Y-16764143D01*
X15223571Y-16835572D01*
X15209285Y-16864143D01*
X15195000Y-16878429D01*
X15166428Y-16892714D01*
X15080714Y-16892714D01*
X15052143Y-16878429D01*
X15037857Y-16864143D01*
X15580714Y-16892714D02*
X15580714Y-16592714D01*
X15709285Y-16892714D02*
X15709285Y-16735571D01*
X15695000Y-16707000D01*
X15666428Y-16692714D01*
X15623571Y-16692714D01*
X15595000Y-16707000D01*
X15580714Y-16721286D01*
X15895000Y-16892714D02*
X15866428Y-16878429D01*
X15852143Y-16864143D01*
X15837857Y-16835572D01*
X15837857Y-16749857D01*
X15852143Y-16721286D01*
X15866428Y-16707000D01*
X15895000Y-16692714D01*
X15937857Y-16692714D01*
X15966428Y-16707000D01*
X15980714Y-16721286D01*
X15995000Y-16749857D01*
X15995000Y-16835572D01*
X15980714Y-16864143D01*
X15966428Y-16878429D01*
X15937857Y-16892714D01*
X15895000Y-16892714D01*
X16166428Y-16892714D02*
X16137857Y-16878429D01*
X16123571Y-16849857D01*
X16123571Y-16592714D01*
X16395000Y-16878429D02*
X16366428Y-16892714D01*
X16309286Y-16892714D01*
X16280714Y-16878429D01*
X16266428Y-16849857D01*
X16266428Y-16735571D01*
X16280714Y-16707000D01*
X16309286Y-16692714D01*
X16366428Y-16692714D01*
X16395000Y-16707000D01*
X16409286Y-16735571D01*
X16409286Y-16764143D01*
X16266428Y-16792714D01*
X16523571Y-16878429D02*
X16552143Y-16892714D01*
X16609286Y-16892714D01*
X16637857Y-16878429D01*
X16652143Y-16849857D01*
X16652143Y-16835572D01*
X16637857Y-16807000D01*
X16609286Y-16792714D01*
X16566428Y-16792714D01*
X16537857Y-16778429D01*
X16523571Y-16749857D01*
X16523571Y-16735571D01*
X16537857Y-16707000D01*
X16566428Y-16692714D01*
X16609286Y-16692714D01*
X16637857Y-16707000D01*
X16752143Y-17007000D02*
X16766428Y-16992714D01*
X16795000Y-16949857D01*
X16809286Y-16921286D01*
X16823571Y-16878429D01*
X16837857Y-16807000D01*
X16837857Y-16749857D01*
X16823571Y-16678429D01*
X16809286Y-16635571D01*
X16795000Y-16607000D01*
X16766428Y-16564143D01*
X16752143Y-16549857D01*
X9980121Y-17188922D02*
X9980121Y-17117079D01*
X9908279Y-17117079D01*
X9908279Y-17188922D01*
X9980121Y-17188922D01*
X10423571Y-17288714D02*
X10252143Y-17288714D01*
X10337857Y-17288714D02*
X10337857Y-16988714D01*
X10309286Y-17031572D01*
X10280714Y-17060143D01*
X10252143Y-17074429D01*
X10552143Y-17260143D02*
X10566429Y-17274429D01*
X10552143Y-17288714D01*
X10537857Y-17274429D01*
X10552143Y-17260143D01*
X10552143Y-17288714D01*
X10752143Y-16988714D02*
X10780714Y-16988714D01*
X10809286Y-17003000D01*
X10823571Y-17017286D01*
X10837857Y-17045857D01*
X10852143Y-17103000D01*
X10852143Y-17174429D01*
X10837857Y-17231572D01*
X10823571Y-17260143D01*
X10809286Y-17274429D01*
X10780714Y-17288714D01*
X10752143Y-17288714D01*
X10723571Y-17274429D01*
X10709286Y-17260143D01*
X10695000Y-17231572D01*
X10680714Y-17174429D01*
X10680714Y-17103000D01*
X10695000Y-17045857D01*
X10709286Y-17017286D01*
X10723571Y-17003000D01*
X10752143Y-16988714D01*
X10966429Y-17017286D02*
X10980714Y-17003000D01*
X11009286Y-16988714D01*
X11080714Y-16988714D01*
X11109286Y-17003000D01*
X11123571Y-17017286D01*
X11137857Y-17045857D01*
X11137857Y-17074429D01*
X11123571Y-17117286D01*
X10952143Y-17288714D01*
X11137857Y-17288714D01*
X11266428Y-17288714D02*
X11266428Y-17088714D01*
X11266428Y-17117286D02*
X11280714Y-17103000D01*
X11309286Y-17088714D01*
X11352143Y-17088714D01*
X11380714Y-17103000D01*
X11395000Y-17131572D01*
X11395000Y-17288714D01*
X11395000Y-17131572D02*
X11409286Y-17103000D01*
X11437857Y-17088714D01*
X11480714Y-17088714D01*
X11509286Y-17103000D01*
X11523571Y-17131572D01*
X11523571Y-17288714D01*
X11666428Y-17288714D02*
X11666428Y-17088714D01*
X11666428Y-17117286D02*
X11680714Y-17103000D01*
X11709286Y-17088714D01*
X11752143Y-17088714D01*
X11780714Y-17103000D01*
X11795000Y-17131572D01*
X11795000Y-17288714D01*
X11795000Y-17131572D02*
X11809286Y-17103000D01*
X11837857Y-17088714D01*
X11880714Y-17088714D01*
X11909286Y-17103000D01*
X11923571Y-17131572D01*
X11923571Y-17288714D01*
X12509286Y-16974429D02*
X12252143Y-17360143D01*
X12895000Y-16988714D02*
X12923571Y-16988714D01*
X12952143Y-17003000D01*
X12966428Y-17017286D01*
X12980714Y-17045857D01*
X12995000Y-17103000D01*
X12995000Y-17174429D01*
X12980714Y-17231572D01*
X12966428Y-17260143D01*
X12952143Y-17274429D01*
X12923571Y-17288714D01*
X12895000Y-17288714D01*
X12866428Y-17274429D01*
X12852143Y-17260143D01*
X12837857Y-17231572D01*
X12823571Y-17174429D01*
X12823571Y-17103000D01*
X12837857Y-17045857D01*
X12852143Y-17017286D01*
X12866428Y-17003000D01*
X12895000Y-16988714D01*
X13123571Y-17260143D02*
X13137857Y-17274429D01*
X13123571Y-17288714D01*
X13109286Y-17274429D01*
X13123571Y-17260143D01*
X13123571Y-17288714D01*
X13323571Y-16988714D02*
X13352143Y-16988714D01*
X13380714Y-17003000D01*
X13395000Y-17017286D01*
X13409285Y-17045857D01*
X13423571Y-17103000D01*
X13423571Y-17174429D01*
X13409285Y-17231572D01*
X13395000Y-17260143D01*
X13380714Y-17274429D01*
X13352143Y-17288714D01*
X13323571Y-17288714D01*
X13295000Y-17274429D01*
X13280714Y-17260143D01*
X13266428Y-17231572D01*
X13252143Y-17174429D01*
X13252143Y-17103000D01*
X13266428Y-17045857D01*
X13280714Y-17017286D01*
X13295000Y-17003000D01*
X13323571Y-16988714D01*
X13680714Y-17088714D02*
X13680714Y-17288714D01*
X13609285Y-16974429D02*
X13537857Y-17188714D01*
X13723571Y-17188714D01*
X13895000Y-16988714D02*
X13923571Y-16988714D01*
X13952143Y-17003000D01*
X13966428Y-17017286D01*
X13980714Y-17045857D01*
X13995000Y-17103000D01*
X13995000Y-17174429D01*
X13980714Y-17231572D01*
X13966428Y-17260143D01*
X13952143Y-17274429D01*
X13923571Y-17288714D01*
X13895000Y-17288714D01*
X13866428Y-17274429D01*
X13852143Y-17260143D01*
X13837857Y-17231572D01*
X13823571Y-17174429D01*
X13823571Y-17103000D01*
X13837857Y-17045857D01*
X13852143Y-17017286D01*
X13866428Y-17003000D01*
X13895000Y-16988714D01*
X14109286Y-16988714D02*
X14109286Y-17045857D01*
X14223571Y-16988714D02*
X14223571Y-17045857D01*
X14666428Y-17403000D02*
X14652143Y-17388714D01*
X14623571Y-17345857D01*
X14609285Y-17317286D01*
X14595000Y-17274429D01*
X14580714Y-17203000D01*
X14580714Y-17145857D01*
X14595000Y-17074429D01*
X14609285Y-17031572D01*
X14623571Y-17003000D01*
X14652143Y-16960143D01*
X14666428Y-16945857D01*
X14937857Y-17288714D02*
X14766428Y-17288714D01*
X14852143Y-17288714D02*
X14852143Y-16988714D01*
X14823571Y-17031572D01*
X14795000Y-17060143D01*
X14766428Y-17074429D01*
X15037857Y-16988714D02*
X15237857Y-16988714D01*
X15109285Y-17288714D01*
X15580714Y-17288714D02*
X15580714Y-16988714D01*
X15709285Y-17288714D02*
X15709285Y-17131572D01*
X15695000Y-17103000D01*
X15666428Y-17088714D01*
X15623571Y-17088714D01*
X15595000Y-17103000D01*
X15580714Y-17117286D01*
X15895000Y-17288714D02*
X15866428Y-17274429D01*
X15852143Y-17260143D01*
X15837857Y-17231572D01*
X15837857Y-17145857D01*
X15852143Y-17117286D01*
X15866428Y-17103000D01*
X15895000Y-17088714D01*
X15937857Y-17088714D01*
X15966428Y-17103000D01*
X15980714Y-17117286D01*
X15995000Y-17145857D01*
X15995000Y-17231572D01*
X15980714Y-17260143D01*
X15966428Y-17274429D01*
X15937857Y-17288714D01*
X15895000Y-17288714D01*
X16166428Y-17288714D02*
X16137857Y-17274429D01*
X16123571Y-17245857D01*
X16123571Y-16988714D01*
X16395000Y-17274429D02*
X16366428Y-17288714D01*
X16309286Y-17288714D01*
X16280714Y-17274429D01*
X16266428Y-17245857D01*
X16266428Y-17131572D01*
X16280714Y-17103000D01*
X16309286Y-17088714D01*
X16366428Y-17088714D01*
X16395000Y-17103000D01*
X16409286Y-17131572D01*
X16409286Y-17160143D01*
X16266428Y-17188714D01*
X16523571Y-17274429D02*
X16552143Y-17288714D01*
X16609286Y-17288714D01*
X16637857Y-17274429D01*
X16652143Y-17245857D01*
X16652143Y-17231572D01*
X16637857Y-17203000D01*
X16609286Y-17188714D01*
X16566428Y-17188714D01*
X16537857Y-17174429D01*
X16523571Y-17145857D01*
X16523571Y-17131572D01*
X16537857Y-17103000D01*
X16566428Y-17088714D01*
X16609286Y-17088714D01*
X16637857Y-17103000D01*
X16752143Y-17403000D02*
X16766428Y-17388714D01*
X16795000Y-17345857D01*
X16809286Y-17317286D01*
X16823571Y-17274429D01*
X16837857Y-17203000D01*
X16837857Y-17145857D01*
X16823571Y-17074429D01*
X16809286Y-17031572D01*
X16795000Y-17003000D01*
X16766428Y-16960143D01*
X16752143Y-16945857D01*
X9928960Y-17615040D02*
X9995000Y-17549000D01*
X9928960Y-17482960D01*
X9862920Y-17549000D01*
X9928960Y-17615040D01*
X10423571Y-17684714D02*
X10252143Y-17684714D01*
X10337857Y-17684714D02*
X10337857Y-17384714D01*
X10309286Y-17427572D01*
X10280714Y-17456143D01*
X10252143Y-17470429D01*
X10552143Y-17656143D02*
X10566429Y-17670429D01*
X10552143Y-17684714D01*
X10537857Y-17670429D01*
X10552143Y-17656143D01*
X10552143Y-17684714D01*
X10666428Y-17384714D02*
X10852143Y-17384714D01*
X10752143Y-17499000D01*
X10795000Y-17499000D01*
X10823571Y-17513286D01*
X10837857Y-17527572D01*
X10852143Y-17556143D01*
X10852143Y-17627572D01*
X10837857Y-17656143D01*
X10823571Y-17670429D01*
X10795000Y-17684714D01*
X10709286Y-17684714D01*
X10680714Y-17670429D01*
X10666428Y-17656143D01*
X10966429Y-17413286D02*
X10980714Y-17399000D01*
X11009286Y-17384714D01*
X11080714Y-17384714D01*
X11109286Y-17399000D01*
X11123571Y-17413286D01*
X11137857Y-17441857D01*
X11137857Y-17470429D01*
X11123571Y-17513286D01*
X10952143Y-17684714D01*
X11137857Y-17684714D01*
X11266428Y-17684714D02*
X11266428Y-17484714D01*
X11266428Y-17513286D02*
X11280714Y-17499000D01*
X11309286Y-17484714D01*
X11352143Y-17484714D01*
X11380714Y-17499000D01*
X11395000Y-17527572D01*
X11395000Y-17684714D01*
X11395000Y-17527572D02*
X11409286Y-17499000D01*
X11437857Y-17484714D01*
X11480714Y-17484714D01*
X11509286Y-17499000D01*
X11523571Y-17527572D01*
X11523571Y-17684714D01*
X11666428Y-17684714D02*
X11666428Y-17484714D01*
X11666428Y-17513286D02*
X11680714Y-17499000D01*
X11709286Y-17484714D01*
X11752143Y-17484714D01*
X11780714Y-17499000D01*
X11795000Y-17527572D01*
X11795000Y-17684714D01*
X11795000Y-17527572D02*
X11809286Y-17499000D01*
X11837857Y-17484714D01*
X11880714Y-17484714D01*
X11909286Y-17499000D01*
X11923571Y-17527572D01*
X11923571Y-17684714D01*
X12509286Y-17370429D02*
X12252143Y-17756143D01*
X12895000Y-17384714D02*
X12923571Y-17384714D01*
X12952143Y-17399000D01*
X12966428Y-17413286D01*
X12980714Y-17441857D01*
X12995000Y-17499000D01*
X12995000Y-17570429D01*
X12980714Y-17627572D01*
X12966428Y-17656143D01*
X12952143Y-17670429D01*
X12923571Y-17684714D01*
X12895000Y-17684714D01*
X12866428Y-17670429D01*
X12852143Y-17656143D01*
X12837857Y-17627572D01*
X12823571Y-17570429D01*
X12823571Y-17499000D01*
X12837857Y-17441857D01*
X12852143Y-17413286D01*
X12866428Y-17399000D01*
X12895000Y-17384714D01*
X13123571Y-17656143D02*
X13137857Y-17670429D01*
X13123571Y-17684714D01*
X13109286Y-17670429D01*
X13123571Y-17656143D01*
X13123571Y-17684714D01*
X13323571Y-17384714D02*
X13352143Y-17384714D01*
X13380714Y-17399000D01*
X13395000Y-17413286D01*
X13409285Y-17441857D01*
X13423571Y-17499000D01*
X13423571Y-17570429D01*
X13409285Y-17627572D01*
X13395000Y-17656143D01*
X13380714Y-17670429D01*
X13352143Y-17684714D01*
X13323571Y-17684714D01*
X13295000Y-17670429D01*
X13280714Y-17656143D01*
X13266428Y-17627572D01*
X13252143Y-17570429D01*
X13252143Y-17499000D01*
X13266428Y-17441857D01*
X13280714Y-17413286D01*
X13295000Y-17399000D01*
X13323571Y-17384714D01*
X13695000Y-17384714D02*
X13552143Y-17384714D01*
X13537857Y-17527572D01*
X13552143Y-17513286D01*
X13580714Y-17499000D01*
X13652143Y-17499000D01*
X13680714Y-17513286D01*
X13695000Y-17527572D01*
X13709285Y-17556143D01*
X13709285Y-17627572D01*
X13695000Y-17656143D01*
X13680714Y-17670429D01*
X13652143Y-17684714D01*
X13580714Y-17684714D01*
X13552143Y-17670429D01*
X13537857Y-17656143D01*
X13823571Y-17413286D02*
X13837857Y-17399000D01*
X13866428Y-17384714D01*
X13937857Y-17384714D01*
X13966428Y-17399000D01*
X13980714Y-17413286D01*
X13995000Y-17441857D01*
X13995000Y-17470429D01*
X13980714Y-17513286D01*
X13809285Y-17684714D01*
X13995000Y-17684714D01*
X14109286Y-17384714D02*
X14109286Y-17441857D01*
X14223571Y-17384714D02*
X14223571Y-17441857D01*
X14666428Y-17799000D02*
X14652143Y-17784714D01*
X14623571Y-17741857D01*
X14609285Y-17713286D01*
X14595000Y-17670429D01*
X14580714Y-17599000D01*
X14580714Y-17541857D01*
X14595000Y-17470429D01*
X14609285Y-17427572D01*
X14623571Y-17399000D01*
X14652143Y-17356143D01*
X14666428Y-17341857D01*
X14766428Y-17413286D02*
X14780714Y-17399000D01*
X14809285Y-17384714D01*
X14880714Y-17384714D01*
X14909285Y-17399000D01*
X14923571Y-17413286D01*
X14937857Y-17441857D01*
X14937857Y-17470429D01*
X14923571Y-17513286D01*
X14752143Y-17684714D01*
X14937857Y-17684714D01*
X15295000Y-17684714D02*
X15295000Y-17384714D01*
X15423571Y-17684714D02*
X15423571Y-17527572D01*
X15409285Y-17499000D01*
X15380714Y-17484714D01*
X15337857Y-17484714D01*
X15309285Y-17499000D01*
X15295000Y-17513286D01*
X15609285Y-17684714D02*
X15580714Y-17670429D01*
X15566428Y-17656143D01*
X15552143Y-17627572D01*
X15552143Y-17541857D01*
X15566428Y-17513286D01*
X15580714Y-17499000D01*
X15609285Y-17484714D01*
X15652143Y-17484714D01*
X15680714Y-17499000D01*
X15695000Y-17513286D01*
X15709285Y-17541857D01*
X15709285Y-17627572D01*
X15695000Y-17656143D01*
X15680714Y-17670429D01*
X15652143Y-17684714D01*
X15609285Y-17684714D01*
X15880714Y-17684714D02*
X15852143Y-17670429D01*
X15837857Y-17641857D01*
X15837857Y-17384714D01*
X16109286Y-17670429D02*
X16080714Y-17684714D01*
X16023571Y-17684714D01*
X15995000Y-17670429D01*
X15980714Y-17641857D01*
X15980714Y-17527572D01*
X15995000Y-17499000D01*
X16023571Y-17484714D01*
X16080714Y-17484714D01*
X16109286Y-17499000D01*
X16123571Y-17527572D01*
X16123571Y-17556143D01*
X15980714Y-17584714D01*
X16237857Y-17670429D02*
X16266428Y-17684714D01*
X16323571Y-17684714D01*
X16352143Y-17670429D01*
X16366428Y-17641857D01*
X16366428Y-17627572D01*
X16352143Y-17599000D01*
X16323571Y-17584714D01*
X16280714Y-17584714D01*
X16252143Y-17570429D01*
X16237857Y-17541857D01*
X16237857Y-17527572D01*
X16252143Y-17499000D01*
X16280714Y-17484714D01*
X16323571Y-17484714D01*
X16352143Y-17499000D01*
X16466428Y-17799000D02*
X16480714Y-17784714D01*
X16509286Y-17741857D01*
X16523571Y-17713286D01*
X16537857Y-17670429D01*
X16552143Y-17599000D01*
X16552143Y-17541857D01*
X16537857Y-17470429D01*
X16523571Y-17427572D01*
X16509286Y-17399000D01*
X16480714Y-17356143D01*
X16466428Y-17341857D01*
X9845000Y-17870000D02*
X9995000Y-18020000D01*
X9995000Y-17870000D02*
X9845000Y-18020000D01*
X9995000Y-17945000D02*
G75*
G03X9995000Y-17945000I-75000J0D01*
G01*
X10423571Y-18080714D02*
X10252143Y-18080714D01*
X10337857Y-18080714D02*
X10337857Y-17780714D01*
X10309286Y-17823572D01*
X10280714Y-17852143D01*
X10252143Y-17866429D01*
X10552143Y-18052143D02*
X10566429Y-18066429D01*
X10552143Y-18080714D01*
X10537857Y-18066429D01*
X10552143Y-18052143D01*
X10552143Y-18080714D01*
X10837857Y-17780714D02*
X10695000Y-17780714D01*
X10680714Y-17923572D01*
X10695000Y-17909286D01*
X10723571Y-17895000D01*
X10795000Y-17895000D01*
X10823571Y-17909286D01*
X10837857Y-17923572D01*
X10852143Y-17952143D01*
X10852143Y-18023572D01*
X10837857Y-18052143D01*
X10823571Y-18066429D01*
X10795000Y-18080714D01*
X10723571Y-18080714D01*
X10695000Y-18066429D01*
X10680714Y-18052143D01*
X11037857Y-17780714D02*
X11066429Y-17780714D01*
X11095000Y-17795000D01*
X11109286Y-17809286D01*
X11123571Y-17837857D01*
X11137857Y-17895000D01*
X11137857Y-17966429D01*
X11123571Y-18023572D01*
X11109286Y-18052143D01*
X11095000Y-18066429D01*
X11066429Y-18080714D01*
X11037857Y-18080714D01*
X11009286Y-18066429D01*
X10995000Y-18052143D01*
X10980714Y-18023572D01*
X10966429Y-17966429D01*
X10966429Y-17895000D01*
X10980714Y-17837857D01*
X10995000Y-17809286D01*
X11009286Y-17795000D01*
X11037857Y-17780714D01*
X11266428Y-18080714D02*
X11266428Y-17880714D01*
X11266428Y-17909286D02*
X11280714Y-17895000D01*
X11309286Y-17880714D01*
X11352143Y-17880714D01*
X11380714Y-17895000D01*
X11395000Y-17923572D01*
X11395000Y-18080714D01*
X11395000Y-17923572D02*
X11409286Y-17895000D01*
X11437857Y-17880714D01*
X11480714Y-17880714D01*
X11509286Y-17895000D01*
X11523571Y-17923572D01*
X11523571Y-18080714D01*
X11666428Y-18080714D02*
X11666428Y-17880714D01*
X11666428Y-17909286D02*
X11680714Y-17895000D01*
X11709286Y-17880714D01*
X11752143Y-17880714D01*
X11780714Y-17895000D01*
X11795000Y-17923572D01*
X11795000Y-18080714D01*
X11795000Y-17923572D02*
X11809286Y-17895000D01*
X11837857Y-17880714D01*
X11880714Y-17880714D01*
X11909286Y-17895000D01*
X11923571Y-17923572D01*
X11923571Y-18080714D01*
X12509286Y-17766429D02*
X12252143Y-18152143D01*
X12895000Y-17780714D02*
X12923571Y-17780714D01*
X12952143Y-17795000D01*
X12966428Y-17809286D01*
X12980714Y-17837857D01*
X12995000Y-17895000D01*
X12995000Y-17966429D01*
X12980714Y-18023572D01*
X12966428Y-18052143D01*
X12952143Y-18066429D01*
X12923571Y-18080714D01*
X12895000Y-18080714D01*
X12866428Y-18066429D01*
X12852143Y-18052143D01*
X12837857Y-18023572D01*
X12823571Y-17966429D01*
X12823571Y-17895000D01*
X12837857Y-17837857D01*
X12852143Y-17809286D01*
X12866428Y-17795000D01*
X12895000Y-17780714D01*
X13123571Y-18052143D02*
X13137857Y-18066429D01*
X13123571Y-18080714D01*
X13109286Y-18066429D01*
X13123571Y-18052143D01*
X13123571Y-18080714D01*
X13323571Y-17780714D02*
X13352143Y-17780714D01*
X13380714Y-17795000D01*
X13395000Y-17809286D01*
X13409285Y-17837857D01*
X13423571Y-17895000D01*
X13423571Y-17966429D01*
X13409285Y-18023572D01*
X13395000Y-18052143D01*
X13380714Y-18066429D01*
X13352143Y-18080714D01*
X13323571Y-18080714D01*
X13295000Y-18066429D01*
X13280714Y-18052143D01*
X13266428Y-18023572D01*
X13252143Y-17966429D01*
X13252143Y-17895000D01*
X13266428Y-17837857D01*
X13280714Y-17809286D01*
X13295000Y-17795000D01*
X13323571Y-17780714D01*
X13695000Y-17780714D02*
X13552143Y-17780714D01*
X13537857Y-17923572D01*
X13552143Y-17909286D01*
X13580714Y-17895000D01*
X13652143Y-17895000D01*
X13680714Y-17909286D01*
X13695000Y-17923572D01*
X13709285Y-17952143D01*
X13709285Y-18023572D01*
X13695000Y-18052143D01*
X13680714Y-18066429D01*
X13652143Y-18080714D01*
X13580714Y-18080714D01*
X13552143Y-18066429D01*
X13537857Y-18052143D01*
X13852143Y-18080714D02*
X13909285Y-18080714D01*
X13937857Y-18066429D01*
X13952143Y-18052143D01*
X13980714Y-18009286D01*
X13995000Y-17952143D01*
X13995000Y-17837857D01*
X13980714Y-17809286D01*
X13966428Y-17795000D01*
X13937857Y-17780714D01*
X13880714Y-17780714D01*
X13852143Y-17795000D01*
X13837857Y-17809286D01*
X13823571Y-17837857D01*
X13823571Y-17909286D01*
X13837857Y-17937857D01*
X13852143Y-17952143D01*
X13880714Y-17966429D01*
X13937857Y-17966429D01*
X13966428Y-17952143D01*
X13980714Y-17937857D01*
X13995000Y-17909286D01*
X14109286Y-17780714D02*
X14109286Y-17837857D01*
X14223571Y-17780714D02*
X14223571Y-17837857D01*
X14666428Y-18195000D02*
X14652143Y-18180714D01*
X14623571Y-18137857D01*
X14609285Y-18109286D01*
X14595000Y-18066429D01*
X14580714Y-17995000D01*
X14580714Y-17937857D01*
X14595000Y-17866429D01*
X14609285Y-17823572D01*
X14623571Y-17795000D01*
X14652143Y-17752143D01*
X14666428Y-17737857D01*
X14766428Y-17809286D02*
X14780714Y-17795000D01*
X14809285Y-17780714D01*
X14880714Y-17780714D01*
X14909285Y-17795000D01*
X14923571Y-17809286D01*
X14937857Y-17837857D01*
X14937857Y-17866429D01*
X14923571Y-17909286D01*
X14752143Y-18080714D01*
X14937857Y-18080714D01*
X15295000Y-18080714D02*
X15295000Y-17780714D01*
X15423571Y-18080714D02*
X15423571Y-17923572D01*
X15409285Y-17895000D01*
X15380714Y-17880714D01*
X15337857Y-17880714D01*
X15309285Y-17895000D01*
X15295000Y-17909286D01*
X15609285Y-18080714D02*
X15580714Y-18066429D01*
X15566428Y-18052143D01*
X15552143Y-18023572D01*
X15552143Y-17937857D01*
X15566428Y-17909286D01*
X15580714Y-17895000D01*
X15609285Y-17880714D01*
X15652143Y-17880714D01*
X15680714Y-17895000D01*
X15695000Y-17909286D01*
X15709285Y-17937857D01*
X15709285Y-18023572D01*
X15695000Y-18052143D01*
X15680714Y-18066429D01*
X15652143Y-18080714D01*
X15609285Y-18080714D01*
X15880714Y-18080714D02*
X15852143Y-18066429D01*
X15837857Y-18037857D01*
X15837857Y-17780714D01*
X16109286Y-18066429D02*
X16080714Y-18080714D01*
X16023571Y-18080714D01*
X15995000Y-18066429D01*
X15980714Y-18037857D01*
X15980714Y-17923572D01*
X15995000Y-17895000D01*
X16023571Y-17880714D01*
X16080714Y-17880714D01*
X16109286Y-17895000D01*
X16123571Y-17923572D01*
X16123571Y-17952143D01*
X15980714Y-17980714D01*
X16237857Y-18066429D02*
X16266428Y-18080714D01*
X16323571Y-18080714D01*
X16352143Y-18066429D01*
X16366428Y-18037857D01*
X16366428Y-18023572D01*
X16352143Y-17995000D01*
X16323571Y-17980714D01*
X16280714Y-17980714D01*
X16252143Y-17966429D01*
X16237857Y-17937857D01*
X16237857Y-17923572D01*
X16252143Y-17895000D01*
X16280714Y-17880714D01*
X16323571Y-17880714D01*
X16352143Y-17895000D01*
X16466428Y-18195000D02*
X16480714Y-18180714D01*
X16509286Y-18137857D01*
X16523571Y-18109286D01*
X16537857Y-18066429D01*
X16552143Y-17995000D01*
X16552143Y-17937857D01*
X16537857Y-17866429D01*
X16523571Y-17823572D01*
X16509286Y-17795000D01*
X16480714Y-17752143D01*
X16466428Y-17737857D01*
X9605000Y-18146000D02*
X9995000Y-18536000D01*
X9995000Y-18146000D02*
X9605000Y-18536000D01*
X9800000Y-18146000D02*
X9800000Y-18536000D01*
X9605000Y-18341000D02*
X9995000Y-18341000D01*
X10237857Y-18176714D02*
X10423571Y-18176714D01*
X10323571Y-18291000D01*
X10366429Y-18291000D01*
X10395000Y-18305286D01*
X10409286Y-18319572D01*
X10423571Y-18348143D01*
X10423571Y-18419572D01*
X10409286Y-18448143D01*
X10395000Y-18462429D01*
X10366429Y-18476714D01*
X10280714Y-18476714D01*
X10252143Y-18462429D01*
X10237857Y-18448143D01*
X10552143Y-18448143D02*
X10566429Y-18462429D01*
X10552143Y-18476714D01*
X10537857Y-18462429D01*
X10552143Y-18448143D01*
X10552143Y-18476714D01*
X10709286Y-18476714D02*
X10766428Y-18476714D01*
X10795000Y-18462429D01*
X10809286Y-18448143D01*
X10837857Y-18405286D01*
X10852143Y-18348143D01*
X10852143Y-18233857D01*
X10837857Y-18205286D01*
X10823571Y-18191000D01*
X10795000Y-18176714D01*
X10737857Y-18176714D01*
X10709286Y-18191000D01*
X10695000Y-18205286D01*
X10680714Y-18233857D01*
X10680714Y-18305286D01*
X10695000Y-18333857D01*
X10709286Y-18348143D01*
X10737857Y-18362429D01*
X10795000Y-18362429D01*
X10823571Y-18348143D01*
X10837857Y-18333857D01*
X10852143Y-18305286D01*
X11037857Y-18176714D02*
X11066429Y-18176714D01*
X11095000Y-18191000D01*
X11109286Y-18205286D01*
X11123571Y-18233857D01*
X11137857Y-18291000D01*
X11137857Y-18362429D01*
X11123571Y-18419572D01*
X11109286Y-18448143D01*
X11095000Y-18462429D01*
X11066429Y-18476714D01*
X11037857Y-18476714D01*
X11009286Y-18462429D01*
X10995000Y-18448143D01*
X10980714Y-18419572D01*
X10966429Y-18362429D01*
X10966429Y-18291000D01*
X10980714Y-18233857D01*
X10995000Y-18205286D01*
X11009286Y-18191000D01*
X11037857Y-18176714D01*
X11266428Y-18476714D02*
X11266428Y-18276714D01*
X11266428Y-18305286D02*
X11280714Y-18291000D01*
X11309286Y-18276714D01*
X11352143Y-18276714D01*
X11380714Y-18291000D01*
X11395000Y-18319572D01*
X11395000Y-18476714D01*
X11395000Y-18319572D02*
X11409286Y-18291000D01*
X11437857Y-18276714D01*
X11480714Y-18276714D01*
X11509286Y-18291000D01*
X11523571Y-18319572D01*
X11523571Y-18476714D01*
X11666428Y-18476714D02*
X11666428Y-18276714D01*
X11666428Y-18305286D02*
X11680714Y-18291000D01*
X11709286Y-18276714D01*
X11752143Y-18276714D01*
X11780714Y-18291000D01*
X11795000Y-18319572D01*
X11795000Y-18476714D01*
X11795000Y-18319572D02*
X11809286Y-18291000D01*
X11837857Y-18276714D01*
X11880714Y-18276714D01*
X11909286Y-18291000D01*
X11923571Y-18319572D01*
X11923571Y-18476714D01*
X12509286Y-18162429D02*
X12252143Y-18548143D01*
X12895000Y-18176714D02*
X12923571Y-18176714D01*
X12952143Y-18191000D01*
X12966428Y-18205286D01*
X12980714Y-18233857D01*
X12995000Y-18291000D01*
X12995000Y-18362429D01*
X12980714Y-18419572D01*
X12966428Y-18448143D01*
X12952143Y-18462429D01*
X12923571Y-18476714D01*
X12895000Y-18476714D01*
X12866428Y-18462429D01*
X12852143Y-18448143D01*
X12837857Y-18419572D01*
X12823571Y-18362429D01*
X12823571Y-18291000D01*
X12837857Y-18233857D01*
X12852143Y-18205286D01*
X12866428Y-18191000D01*
X12895000Y-18176714D01*
X13123571Y-18448143D02*
X13137857Y-18462429D01*
X13123571Y-18476714D01*
X13109286Y-18462429D01*
X13123571Y-18448143D01*
X13123571Y-18476714D01*
X13423571Y-18476714D02*
X13252143Y-18476714D01*
X13337857Y-18476714D02*
X13337857Y-18176714D01*
X13309285Y-18219572D01*
X13280714Y-18248143D01*
X13252143Y-18262429D01*
X13695000Y-18176714D02*
X13552143Y-18176714D01*
X13537857Y-18319572D01*
X13552143Y-18305286D01*
X13580714Y-18291000D01*
X13652143Y-18291000D01*
X13680714Y-18305286D01*
X13695000Y-18319572D01*
X13709285Y-18348143D01*
X13709285Y-18419572D01*
X13695000Y-18448143D01*
X13680714Y-18462429D01*
X13652143Y-18476714D01*
X13580714Y-18476714D01*
X13552143Y-18462429D01*
X13537857Y-18448143D01*
X13966428Y-18276714D02*
X13966428Y-18476714D01*
X13895000Y-18162429D02*
X13823571Y-18376714D01*
X14009285Y-18376714D01*
X14109286Y-18176714D02*
X14109286Y-18233857D01*
X14223571Y-18176714D02*
X14223571Y-18233857D01*
X14666428Y-18591000D02*
X14652143Y-18576714D01*
X14623571Y-18533857D01*
X14609285Y-18505286D01*
X14595000Y-18462429D01*
X14580714Y-18391000D01*
X14580714Y-18333857D01*
X14595000Y-18262429D01*
X14609285Y-18219572D01*
X14623571Y-18191000D01*
X14652143Y-18148143D01*
X14666428Y-18133857D01*
X14752143Y-18176714D02*
X14952143Y-18176714D01*
X14823571Y-18476714D01*
X15295000Y-18476714D02*
X15295000Y-18176714D01*
X15423571Y-18476714D02*
X15423571Y-18319572D01*
X15409285Y-18291000D01*
X15380714Y-18276714D01*
X15337857Y-18276714D01*
X15309285Y-18291000D01*
X15295000Y-18305286D01*
X15609285Y-18476714D02*
X15580714Y-18462429D01*
X15566428Y-18448143D01*
X15552143Y-18419572D01*
X15552143Y-18333857D01*
X15566428Y-18305286D01*
X15580714Y-18291000D01*
X15609285Y-18276714D01*
X15652143Y-18276714D01*
X15680714Y-18291000D01*
X15695000Y-18305286D01*
X15709285Y-18333857D01*
X15709285Y-18419572D01*
X15695000Y-18448143D01*
X15680714Y-18462429D01*
X15652143Y-18476714D01*
X15609285Y-18476714D01*
X15880714Y-18476714D02*
X15852143Y-18462429D01*
X15837857Y-18433857D01*
X15837857Y-18176714D01*
X16109286Y-18462429D02*
X16080714Y-18476714D01*
X16023571Y-18476714D01*
X15995000Y-18462429D01*
X15980714Y-18433857D01*
X15980714Y-18319572D01*
X15995000Y-18291000D01*
X16023571Y-18276714D01*
X16080714Y-18276714D01*
X16109286Y-18291000D01*
X16123571Y-18319572D01*
X16123571Y-18348143D01*
X15980714Y-18376714D01*
X16237857Y-18462429D02*
X16266428Y-18476714D01*
X16323571Y-18476714D01*
X16352143Y-18462429D01*
X16366428Y-18433857D01*
X16366428Y-18419572D01*
X16352143Y-18391000D01*
X16323571Y-18376714D01*
X16280714Y-18376714D01*
X16252143Y-18362429D01*
X16237857Y-18333857D01*
X16237857Y-18319572D01*
X16252143Y-18291000D01*
X16280714Y-18276714D01*
X16323571Y-18276714D01*
X16352143Y-18291000D01*
X16466428Y-18591000D02*
X16480714Y-18576714D01*
X16509286Y-18533857D01*
X16523571Y-18505286D01*
X16537857Y-18462429D01*
X16552143Y-18391000D01*
X16552143Y-18333857D01*
X16537857Y-18262429D01*
X16523571Y-18219572D01*
X16509286Y-18191000D01*
X16480714Y-18148143D01*
X16466428Y-18133857D01*
X9395052Y-18561026D02*
X9995000Y-19160974D01*
X9995000Y-18561026D02*
X9395052Y-19160974D01*
X9907142Y-19073116D02*
X9907142Y-18648884D01*
X9482910Y-18648884D01*
X9482910Y-19073116D01*
X9907142Y-19073116D01*
X10395000Y-18696714D02*
X10337857Y-18696714D01*
X10309286Y-18711000D01*
X10295000Y-18725286D01*
X10266429Y-18768143D01*
X10252143Y-18825286D01*
X10252143Y-18939572D01*
X10266429Y-18968143D01*
X10280714Y-18982429D01*
X10309286Y-18996714D01*
X10366429Y-18996714D01*
X10395000Y-18982429D01*
X10409286Y-18968143D01*
X10423571Y-18939572D01*
X10423571Y-18868143D01*
X10409286Y-18839572D01*
X10395000Y-18825286D01*
X10366429Y-18811000D01*
X10309286Y-18811000D01*
X10280714Y-18825286D01*
X10266429Y-18839572D01*
X10252143Y-18868143D01*
X10552143Y-18968143D02*
X10566429Y-18982429D01*
X10552143Y-18996714D01*
X10537857Y-18982429D01*
X10552143Y-18968143D01*
X10552143Y-18996714D01*
X10752143Y-18696714D02*
X10780714Y-18696714D01*
X10809286Y-18711000D01*
X10823571Y-18725286D01*
X10837857Y-18753857D01*
X10852143Y-18811000D01*
X10852143Y-18882429D01*
X10837857Y-18939572D01*
X10823571Y-18968143D01*
X10809286Y-18982429D01*
X10780714Y-18996714D01*
X10752143Y-18996714D01*
X10723571Y-18982429D01*
X10709286Y-18968143D01*
X10695000Y-18939572D01*
X10680714Y-18882429D01*
X10680714Y-18811000D01*
X10695000Y-18753857D01*
X10709286Y-18725286D01*
X10723571Y-18711000D01*
X10752143Y-18696714D01*
X11037857Y-18696714D02*
X11066429Y-18696714D01*
X11095000Y-18711000D01*
X11109286Y-18725286D01*
X11123571Y-18753857D01*
X11137857Y-18811000D01*
X11137857Y-18882429D01*
X11123571Y-18939572D01*
X11109286Y-18968143D01*
X11095000Y-18982429D01*
X11066429Y-18996714D01*
X11037857Y-18996714D01*
X11009286Y-18982429D01*
X10995000Y-18968143D01*
X10980714Y-18939572D01*
X10966429Y-18882429D01*
X10966429Y-18811000D01*
X10980714Y-18753857D01*
X10995000Y-18725286D01*
X11009286Y-18711000D01*
X11037857Y-18696714D01*
X11266428Y-18996714D02*
X11266428Y-18796714D01*
X11266428Y-18825286D02*
X11280714Y-18811000D01*
X11309286Y-18796714D01*
X11352143Y-18796714D01*
X11380714Y-18811000D01*
X11395000Y-18839572D01*
X11395000Y-18996714D01*
X11395000Y-18839572D02*
X11409286Y-18811000D01*
X11437857Y-18796714D01*
X11480714Y-18796714D01*
X11509286Y-18811000D01*
X11523571Y-18839572D01*
X11523571Y-18996714D01*
X11666428Y-18996714D02*
X11666428Y-18796714D01*
X11666428Y-18825286D02*
X11680714Y-18811000D01*
X11709286Y-18796714D01*
X11752143Y-18796714D01*
X11780714Y-18811000D01*
X11795000Y-18839572D01*
X11795000Y-18996714D01*
X11795000Y-18839572D02*
X11809286Y-18811000D01*
X11837857Y-18796714D01*
X11880714Y-18796714D01*
X11909286Y-18811000D01*
X11923571Y-18839572D01*
X11923571Y-18996714D01*
X12509286Y-18682429D02*
X12252143Y-19068143D01*
X12895000Y-18696714D02*
X12923571Y-18696714D01*
X12952143Y-18711000D01*
X12966428Y-18725286D01*
X12980714Y-18753857D01*
X12995000Y-18811000D01*
X12995000Y-18882429D01*
X12980714Y-18939572D01*
X12966428Y-18968143D01*
X12952143Y-18982429D01*
X12923571Y-18996714D01*
X12895000Y-18996714D01*
X12866428Y-18982429D01*
X12852143Y-18968143D01*
X12837857Y-18939572D01*
X12823571Y-18882429D01*
X12823571Y-18811000D01*
X12837857Y-18753857D01*
X12852143Y-18725286D01*
X12866428Y-18711000D01*
X12895000Y-18696714D01*
X13123571Y-18968143D02*
X13137857Y-18982429D01*
X13123571Y-18996714D01*
X13109286Y-18982429D01*
X13123571Y-18968143D01*
X13123571Y-18996714D01*
X13252143Y-18725286D02*
X13266428Y-18711000D01*
X13295000Y-18696714D01*
X13366428Y-18696714D01*
X13395000Y-18711000D01*
X13409285Y-18725286D01*
X13423571Y-18753857D01*
X13423571Y-18782429D01*
X13409285Y-18825286D01*
X13237857Y-18996714D01*
X13423571Y-18996714D01*
X13523571Y-18696714D02*
X13709285Y-18696714D01*
X13609285Y-18811000D01*
X13652143Y-18811000D01*
X13680714Y-18825286D01*
X13695000Y-18839572D01*
X13709285Y-18868143D01*
X13709285Y-18939572D01*
X13695000Y-18968143D01*
X13680714Y-18982429D01*
X13652143Y-18996714D01*
X13566428Y-18996714D01*
X13537857Y-18982429D01*
X13523571Y-18968143D01*
X13966428Y-18696714D02*
X13909285Y-18696714D01*
X13880714Y-18711000D01*
X13866428Y-18725286D01*
X13837857Y-18768143D01*
X13823571Y-18825286D01*
X13823571Y-18939572D01*
X13837857Y-18968143D01*
X13852143Y-18982429D01*
X13880714Y-18996714D01*
X13937857Y-18996714D01*
X13966428Y-18982429D01*
X13980714Y-18968143D01*
X13995000Y-18939572D01*
X13995000Y-18868143D01*
X13980714Y-18839572D01*
X13966428Y-18825286D01*
X13937857Y-18811000D01*
X13880714Y-18811000D01*
X13852143Y-18825286D01*
X13837857Y-18839572D01*
X13823571Y-18868143D01*
X14109286Y-18696714D02*
X14109286Y-18753857D01*
X14223571Y-18696714D02*
X14223571Y-18753857D01*
X14666428Y-19111000D02*
X14652143Y-19096714D01*
X14623571Y-19053857D01*
X14609285Y-19025286D01*
X14595000Y-18982429D01*
X14580714Y-18911000D01*
X14580714Y-18853857D01*
X14595000Y-18782429D01*
X14609285Y-18739572D01*
X14623571Y-18711000D01*
X14652143Y-18668143D01*
X14666428Y-18653857D01*
X14937857Y-18996714D02*
X14766428Y-18996714D01*
X14852143Y-18996714D02*
X14852143Y-18696714D01*
X14823571Y-18739572D01*
X14795000Y-18768143D01*
X14766428Y-18782429D01*
X15295000Y-18996714D02*
X15295000Y-18696714D01*
X15423571Y-18996714D02*
X15423571Y-18839572D01*
X15409285Y-18811000D01*
X15380714Y-18796714D01*
X15337857Y-18796714D01*
X15309285Y-18811000D01*
X15295000Y-18825286D01*
X15609285Y-18996714D02*
X15580714Y-18982429D01*
X15566428Y-18968143D01*
X15552143Y-18939572D01*
X15552143Y-18853857D01*
X15566428Y-18825286D01*
X15580714Y-18811000D01*
X15609285Y-18796714D01*
X15652143Y-18796714D01*
X15680714Y-18811000D01*
X15695000Y-18825286D01*
X15709285Y-18853857D01*
X15709285Y-18939572D01*
X15695000Y-18968143D01*
X15680714Y-18982429D01*
X15652143Y-18996714D01*
X15609285Y-18996714D01*
X15880714Y-18996714D02*
X15852143Y-18982429D01*
X15837857Y-18953857D01*
X15837857Y-18696714D01*
X16109286Y-18982429D02*
X16080714Y-18996714D01*
X16023571Y-18996714D01*
X15995000Y-18982429D01*
X15980714Y-18953857D01*
X15980714Y-18839572D01*
X15995000Y-18811000D01*
X16023571Y-18796714D01*
X16080714Y-18796714D01*
X16109286Y-18811000D01*
X16123571Y-18839572D01*
X16123571Y-18868143D01*
X15980714Y-18896714D01*
X16223571Y-19111000D02*
X16237857Y-19096714D01*
X16266428Y-19053857D01*
X16280714Y-19025286D01*
X16295000Y-18982429D01*
X16309286Y-18911000D01*
X16309286Y-18853857D01*
X16295000Y-18782429D01*
X16280714Y-18739572D01*
X16266428Y-18711000D01*
X16237857Y-18668143D01*
X16223571Y-18653857D01*
M02*
