%FSLAX46Y46*%
G04 Gerber Fmt 4.6, Leading zero omitted, Abs format (unit mm)*
G04 Created by KiCad (PCBNEW (2014-10-27 BZR 5228)-product) date 22/05/2015 08:20:29*
%MOMM*%
G01*
G04 APERTURE LIST*
%ADD10C,0.100000*%
%ADD11R,1.250000X1.000000*%
%ADD12R,1.000000X1.250000*%
%ADD13R,4.200000X0.700000*%
%ADD14R,1.397000X1.397000*%
%ADD15C,1.397000*%
%ADD16C,1.998980*%
%ADD17C,3.500000*%
%ADD18C,2.000000*%
%ADD19R,1.800000X1.800000*%
%ADD20C,1.800000*%
%ADD21C,2.540000*%
%ADD22C,1.727200*%
%ADD23R,1.550000X0.600000*%
%ADD24C,1.524000*%
%ADD25O,1.501140X2.499360*%
%ADD26R,1.500000X1.300000*%
%ADD27R,1.300000X1.500000*%
%ADD28R,1.198880X1.198880*%
%ADD29C,6.350000*%
%ADD30R,2.032000X2.032000*%
%ADD31O,2.032000X2.032000*%
%ADD32R,0.914400X0.914400*%
%ADD33R,1.000760X0.599440*%
%ADD34R,1.600200X1.198880*%
G04 APERTURE END LIST*
D10*
D11*
X190900000Y-76400000D03*
X190900000Y-74400000D03*
D12*
X189550000Y-83350000D03*
X187550000Y-83350000D03*
D11*
X184150000Y-81350000D03*
X184150000Y-83350000D03*
D12*
X182050000Y-85500000D03*
X184050000Y-85500000D03*
D11*
X173900000Y-90900000D03*
X173900000Y-88900000D03*
X170350000Y-88900000D03*
X170350000Y-90900000D03*
D12*
X162900000Y-91000000D03*
X160900000Y-91000000D03*
X152050000Y-45700000D03*
X150050000Y-45700000D03*
D11*
X191600000Y-54200000D03*
X191600000Y-56200000D03*
D13*
X129500000Y-74500000D03*
X129500000Y-73500000D03*
X129500000Y-72500000D03*
X129500000Y-71500000D03*
X129500000Y-70500000D03*
X129500000Y-69500000D03*
X129500000Y-68500000D03*
X129500000Y-67500000D03*
X129500000Y-66500000D03*
X129500000Y-65500000D03*
X129500000Y-64500000D03*
X129500000Y-61500000D03*
X129500000Y-60500000D03*
X129500000Y-59500000D03*
X129500000Y-58500000D03*
X129500000Y-57500000D03*
X129500000Y-56500000D03*
X129500000Y-55500000D03*
D14*
X162560000Y-84455000D03*
D15*
X165100000Y-84455000D03*
X167640000Y-84455000D03*
X170180000Y-84455000D03*
X172720000Y-84455000D03*
X172720000Y-76835000D03*
X170180000Y-76835000D03*
X167640000Y-76835000D03*
X165100000Y-76835000D03*
X162560000Y-76835000D03*
D14*
X172339000Y-65913000D03*
D15*
X169799000Y-65913000D03*
X167259000Y-65913000D03*
X164719000Y-65913000D03*
X162179000Y-65913000D03*
X162179000Y-73533000D03*
X164719000Y-73533000D03*
X167259000Y-73533000D03*
X169799000Y-73533000D03*
X172339000Y-73533000D03*
D16*
X191242000Y-79146000D03*
X185654000Y-79146000D03*
X182492000Y-79246000D03*
X176904000Y-79246000D03*
X165496000Y-87258000D03*
X165496000Y-92846000D03*
X179254000Y-92892000D03*
X179254000Y-87304000D03*
D17*
X191800000Y-67600000D03*
X191800000Y-60000000D03*
D18*
X184000000Y-63800000D03*
D19*
X142200000Y-66800000D03*
D20*
X142200000Y-69300000D03*
X139200000Y-66800000D03*
X142200000Y-71800000D03*
X139200000Y-71800000D03*
X139200000Y-69300000D03*
D19*
X143500000Y-62000000D03*
D20*
X141000000Y-62000000D03*
X143500000Y-59000000D03*
X138500000Y-62000000D03*
X138500000Y-59000000D03*
X141000000Y-59000000D03*
D21*
X163461700Y-39199300D03*
D22*
X163461700Y-43199300D03*
D21*
X163461700Y-47199300D03*
D22*
X163461700Y-51199300D03*
D23*
X185501300Y-48234600D03*
X185501300Y-49504600D03*
X185501300Y-50774600D03*
X185501300Y-52044600D03*
X190901300Y-52044600D03*
X190901300Y-50774600D03*
X190901300Y-49504600D03*
X190901300Y-48234600D03*
D24*
X138600000Y-48460000D03*
X138600000Y-45920000D03*
X138600000Y-51000000D03*
D25*
X153893520Y-39451280D03*
X156433520Y-39451280D03*
X151353520Y-39451280D03*
D11*
X154800000Y-89450000D03*
X154800000Y-91450000D03*
D12*
X184200000Y-54800000D03*
X182200000Y-54800000D03*
D16*
X177599460Y-54600000D03*
X171000540Y-54600000D03*
D12*
X162900000Y-87250000D03*
X160900000Y-87250000D03*
D26*
X156850000Y-45700000D03*
X154150000Y-45700000D03*
D27*
X188400000Y-53950000D03*
X188400000Y-56650000D03*
D12*
X176550000Y-61700000D03*
X178550000Y-61700000D03*
D27*
X146700000Y-64050000D03*
X146700000Y-61350000D03*
D28*
X157900000Y-91499020D03*
X157900000Y-89400980D03*
X170949020Y-63300000D03*
X168850980Y-63300000D03*
X182750980Y-71200000D03*
X184849020Y-71200000D03*
D27*
X157950000Y-84300000D03*
X157950000Y-87000000D03*
D26*
X190350000Y-71200000D03*
X187650000Y-71200000D03*
D29*
X189700000Y-39500000D03*
X139100000Y-39500000D03*
X189700000Y-89900000D03*
X139100000Y-90000000D03*
D30*
X164150000Y-60000000D03*
D31*
X164150000Y-62540000D03*
D30*
X184300000Y-38200000D03*
D31*
X184300000Y-40740000D03*
D32*
X157211000Y-65684000D03*
X158989000Y-65684000D03*
X158100000Y-67716000D03*
X150484000Y-64939000D03*
X150484000Y-63161000D03*
X152516000Y-64050000D03*
D26*
X158250000Y-62900000D03*
X155550000Y-62900000D03*
D33*
X146749820Y-73100000D03*
X144550180Y-73100000D03*
D11*
X155100000Y-83500000D03*
X155100000Y-85500000D03*
X152350000Y-84550000D03*
X152350000Y-86550000D03*
D12*
X146350000Y-83250000D03*
X144350000Y-83250000D03*
D11*
X145750000Y-77450000D03*
X145750000Y-75450000D03*
D12*
X180750000Y-83400000D03*
X178750000Y-83400000D03*
D11*
X183500000Y-89150000D03*
X183500000Y-91150000D03*
D34*
X156850860Y-79800000D03*
X153249140Y-79800000D03*
X152350860Y-82350000D03*
X148749140Y-82350000D03*
X147450860Y-79800000D03*
X143849140Y-79800000D03*
D30*
X148800000Y-74700000D03*
D31*
X148800000Y-72160000D03*
M02*
