M48
;DRILL file {kicad (2014-10-27 BZR 5228)-product} date 22/05/2015 08:20:32
;FORMAT={3:3/ absolute / metric / keep zeros}
FMAT,2
METRIC,TZ
T1C0.635
T2C0.800
T3C0.813
T4C0.900
T5C0.920
T6C1.001
T7C1.016
T8C1.500
T9C1.800
T10C3.900
T11C5.999
%
G90
G05
M71
T1
X132600Y-071500
X132700Y-068500
X132700Y-074500
X133800Y-065800
X136000Y-061400
X138050Y-063950
X138800Y-055200
X142600Y-083300
X147700Y-043100
X148400Y-063400
X149200Y-069750
X154150Y-087600
X154450Y-064400
X155450Y-066750
X156300Y-068750
X156450Y-077250
X159000Y-079900
X159600Y-067950
X160950Y-089250
X161100Y-079450
X161450Y-061600
X161700Y-078450
X164700Y-081450
X171000Y-061550
X171400Y-082400
X174700Y-067950
X176400Y-064500
X177050Y-075200
X179600Y-059700
X183200Y-052000
X185550Y-084400
X186100Y-054250
X190200Y-057400
T2
X171001Y-054600
X177599Y-054600
T3
X138600Y-045920
X138600Y-048460
X138600Y-051000
X162179Y-065913
X162179Y-073533
X162560Y-076835
X162560Y-084455
X164719Y-065913
X164719Y-073533
X165100Y-076835
X165100Y-084455
X167259Y-065913
X167259Y-073533
X167640Y-076835
X167640Y-084455
X169799Y-065913
X169799Y-073533
X170180Y-076835
X170180Y-084455
X172339Y-065913
X172339Y-073533
X172720Y-076835
X172720Y-084455
T4
X138500Y-059000
X138500Y-062000
X139200Y-066800
X139200Y-069300
X139200Y-071800
X141000Y-059000
X141000Y-062000
X142200Y-066800
X142200Y-069300
X142200Y-071800
X143500Y-059000
X143500Y-062000
T5
X184000Y-063800
T6
X151354Y-039451
X153894Y-039451
X156434Y-039451
X165496Y-087258
X165496Y-092846
X176904Y-079246
X179254Y-087304
X179254Y-092892
X182492Y-079246
X185654Y-079146
X191242Y-079146
T7
X148800Y-072160
X148800Y-074700
X163462Y-043199
X163462Y-051199
X164150Y-060000
X164150Y-062540
X184300Y-038200
X184300Y-040740
T8
X163462Y-039199
X163462Y-047199
T9
X191800Y-060000
X191800Y-067600
T10
X139100Y-039500
X139100Y-090000
X189700Y-039500
X189700Y-089900
T11
X153800Y-054600
T0
M30
