%FSLAX46Y46*%
G04 Gerber Fmt 4.6, Leading zero omitted, Abs format (unit mm)*
G04 Created by KiCad (PCBNEW (2014-10-27 BZR 5228)-product) date 22/05/2015 08:20:29*
%MOMM*%
G01*
G04 APERTURE LIST*
%ADD10C,0.100000*%
%ADD11R,1.250000X1.000000*%
%ADD12R,1.000000X1.250000*%
%ADD13R,1.550000X0.600000*%
%ADD14R,1.500000X1.300000*%
%ADD15R,1.300000X1.500000*%
%ADD16R,1.198880X1.198880*%
%ADD17R,0.914400X0.914400*%
%ADD18R,1.000760X0.599440*%
%ADD19R,1.600200X1.198880*%
G04 APERTURE END LIST*
D10*
D11*
X190900000Y-76400000D03*
X190900000Y-74400000D03*
D12*
X189550000Y-83350000D03*
X187550000Y-83350000D03*
D11*
X184150000Y-81350000D03*
X184150000Y-83350000D03*
D12*
X182050000Y-85500000D03*
X184050000Y-85500000D03*
D11*
X173900000Y-90900000D03*
X173900000Y-88900000D03*
X170350000Y-88900000D03*
X170350000Y-90900000D03*
D12*
X162900000Y-91000000D03*
X160900000Y-91000000D03*
X152050000Y-45700000D03*
X150050000Y-45700000D03*
D11*
X191600000Y-54200000D03*
X191600000Y-56200000D03*
D13*
X185501300Y-48234600D03*
X185501300Y-49504600D03*
X185501300Y-50774600D03*
X185501300Y-52044600D03*
X190901300Y-52044600D03*
X190901300Y-50774600D03*
X190901300Y-49504600D03*
X190901300Y-48234600D03*
D11*
X154800000Y-89450000D03*
X154800000Y-91450000D03*
D12*
X184200000Y-54800000D03*
X182200000Y-54800000D03*
X162900000Y-87250000D03*
X160900000Y-87250000D03*
D14*
X156850000Y-45700000D03*
X154150000Y-45700000D03*
D15*
X188400000Y-53950000D03*
X188400000Y-56650000D03*
D12*
X176550000Y-61700000D03*
X178550000Y-61700000D03*
D15*
X146700000Y-64050000D03*
X146700000Y-61350000D03*
D16*
X157900000Y-91499020D03*
X157900000Y-89400980D03*
X170949020Y-63300000D03*
X168850980Y-63300000D03*
X182750980Y-71200000D03*
X184849020Y-71200000D03*
D15*
X157950000Y-84300000D03*
X157950000Y-87000000D03*
D14*
X190350000Y-71200000D03*
X187650000Y-71200000D03*
D17*
X157211000Y-65684000D03*
X158989000Y-65684000D03*
X158100000Y-67716000D03*
X150484000Y-64939000D03*
X150484000Y-63161000D03*
X152516000Y-64050000D03*
D14*
X158250000Y-62900000D03*
X155550000Y-62900000D03*
D18*
X146749820Y-73100000D03*
X144550180Y-73100000D03*
D11*
X155100000Y-83500000D03*
X155100000Y-85500000D03*
X152350000Y-84550000D03*
X152350000Y-86550000D03*
D12*
X146350000Y-83250000D03*
X144350000Y-83250000D03*
D11*
X145750000Y-77450000D03*
X145750000Y-75450000D03*
D12*
X180750000Y-83400000D03*
X178750000Y-83400000D03*
D11*
X183500000Y-89150000D03*
X183500000Y-91150000D03*
D19*
X156850860Y-79800000D03*
X153249140Y-79800000D03*
X152350860Y-82350000D03*
X148749140Y-82350000D03*
X147450860Y-79800000D03*
X143849140Y-79800000D03*
M02*
