%FSLAX46Y46*%
G04 Gerber Fmt 4.6, Leading zero omitted, Abs format (unit mm)*
G04 Created by KiCad (PCBNEW (2014-10-27 BZR 5228)-product) date 06/09/2015 15:27:03*
%MOMM*%
G01*
G04 APERTURE LIST*
%ADD10C,0.100000*%
%ADD11R,1.000000X1.250000*%
%ADD12R,1.250000X1.000000*%
%ADD13C,3.500000*%
%ADD14C,2.000000*%
%ADD15C,1.524000*%
%ADD16C,6.350000*%
%ADD17R,2.032000X2.032000*%
%ADD18O,2.032000X2.032000*%
%ADD19O,1.501140X2.499360*%
%ADD20R,1.500000X1.300000*%
%ADD21C,2.540000*%
%ADD22C,1.727200*%
%ADD23C,1.998980*%
%ADD24R,1.300000X1.500000*%
%ADD25R,0.600000X1.550000*%
%ADD26R,1.727200X1.727200*%
%ADD27O,1.727200X1.727200*%
%ADD28R,3.657600X2.032000*%
%ADD29R,1.016000X2.032000*%
%ADD30R,1.800000X1.800000*%
%ADD31C,1.800000*%
%ADD32R,1.727200X2.032000*%
%ADD33O,1.727200X2.032000*%
%ADD34C,0.889000*%
%ADD35C,0.780000*%
%ADD36C,0.910000*%
%ADD37C,1.270000*%
%ADD38C,0.381000*%
%ADD39C,0.254000*%
%ADD40C,0.508000*%
%ADD41C,1.850000*%
G04 APERTURE END LIST*
D10*
D11*
X182388000Y-38862000D03*
X184388000Y-38862000D03*
X174514000Y-40640000D03*
X176514000Y-40640000D03*
D12*
X167386000Y-40148000D03*
X167386000Y-42148000D03*
D11*
X162798000Y-36830000D03*
X160798000Y-36830000D03*
X123460000Y-130048000D03*
X125460000Y-130048000D03*
X125714000Y-74930000D03*
X123714000Y-74930000D03*
X158766000Y-58166000D03*
X160766000Y-58166000D03*
D13*
X192024000Y-53330000D03*
X192024000Y-45730000D03*
D14*
X184224000Y-49530000D03*
D15*
X118364000Y-91440000D03*
X118364000Y-93980000D03*
X118364000Y-88900000D03*
D11*
X158766000Y-112522000D03*
X160766000Y-112522000D03*
X161020000Y-71120000D03*
X159020000Y-71120000D03*
X160766000Y-82296000D03*
X158766000Y-82296000D03*
X160512000Y-93218000D03*
X158512000Y-93218000D03*
X160766000Y-104140000D03*
X158766000Y-104140000D03*
D16*
X191008000Y-39116000D03*
X119126000Y-39116000D03*
X191008000Y-131064000D03*
X119126000Y-131064000D03*
D11*
X184388000Y-41910000D03*
X182388000Y-41910000D03*
D17*
X117856000Y-103505000D03*
D18*
X117856000Y-106045000D03*
D11*
X158766000Y-79756000D03*
X160766000Y-79756000D03*
X158512000Y-90932000D03*
X160512000Y-90932000D03*
X158766000Y-101854000D03*
X160766000Y-101854000D03*
X161020000Y-60706000D03*
X159020000Y-60706000D03*
X160766000Y-114808000D03*
X158766000Y-114808000D03*
X162322000Y-66040000D03*
X164322000Y-66040000D03*
D12*
X171704000Y-39354000D03*
X171704000Y-37354000D03*
D11*
X158766000Y-68834000D03*
X160766000Y-68834000D03*
X162068000Y-76708000D03*
X164068000Y-76708000D03*
X162576000Y-87630000D03*
X164576000Y-87630000D03*
X162322000Y-98552000D03*
X164322000Y-98552000D03*
X161814000Y-109728000D03*
X163814000Y-109728000D03*
X161814000Y-120650000D03*
X163814000Y-120650000D03*
X166227000Y-61976000D03*
X164227000Y-61976000D03*
X166100000Y-72136000D03*
X164100000Y-72136000D03*
X166354000Y-83312000D03*
X164354000Y-83312000D03*
X166354000Y-94234000D03*
X164354000Y-94234000D03*
X166354000Y-105156000D03*
X164354000Y-105156000D03*
X166354000Y-116332000D03*
X164354000Y-116332000D03*
X169148000Y-58166000D03*
X167148000Y-58166000D03*
X169402000Y-68580000D03*
X167402000Y-68580000D03*
X169148000Y-79502000D03*
X167148000Y-79502000D03*
X169148000Y-90424000D03*
X167148000Y-90424000D03*
X169402000Y-101346000D03*
X167402000Y-101346000D03*
X169148000Y-112268000D03*
X167148000Y-112268000D03*
X173212000Y-62992000D03*
X171212000Y-62992000D03*
X173466000Y-73660000D03*
X171466000Y-73660000D03*
X173466000Y-84582000D03*
X171466000Y-84582000D03*
X173466000Y-95504000D03*
X171466000Y-95504000D03*
X173466000Y-106426000D03*
X171466000Y-106426000D03*
X173466000Y-116840000D03*
X171466000Y-116840000D03*
X171942000Y-65786000D03*
X169942000Y-65786000D03*
X171942000Y-76454000D03*
X169942000Y-76454000D03*
X171942000Y-87376000D03*
X169942000Y-87376000D03*
X171942000Y-98552000D03*
X169942000Y-98552000D03*
X171942000Y-109474000D03*
X169942000Y-109474000D03*
X171942000Y-120142000D03*
X169942000Y-120142000D03*
D15*
X159004000Y-45466000D03*
X156464000Y-45466000D03*
X146304000Y-45466000D03*
X146304000Y-53086000D03*
X159004000Y-53086000D03*
X156464000Y-53086000D03*
X140208000Y-65786000D03*
X142748000Y-65786000D03*
X152908000Y-65786000D03*
X152908000Y-58166000D03*
X140208000Y-58166000D03*
X142748000Y-58166000D03*
X140208000Y-76708000D03*
X142748000Y-76708000D03*
X152908000Y-76708000D03*
X152908000Y-69088000D03*
X140208000Y-69088000D03*
X142748000Y-69088000D03*
X140208000Y-87630000D03*
X142748000Y-87630000D03*
X152908000Y-87630000D03*
X152908000Y-80010000D03*
X140208000Y-80010000D03*
X142748000Y-80010000D03*
X140208000Y-98552000D03*
X142748000Y-98552000D03*
X152908000Y-98552000D03*
X152908000Y-90932000D03*
X140208000Y-90932000D03*
X142748000Y-90932000D03*
X140208000Y-109474000D03*
X142748000Y-109474000D03*
X152908000Y-109474000D03*
X152908000Y-101854000D03*
X140208000Y-101854000D03*
X142748000Y-101854000D03*
X140208000Y-120396000D03*
X142748000Y-120396000D03*
X152908000Y-120396000D03*
X152908000Y-112776000D03*
X140208000Y-112776000D03*
X142748000Y-112776000D03*
X140208000Y-131826000D03*
X142748000Y-131826000D03*
X152908000Y-131826000D03*
X152908000Y-124206000D03*
X140208000Y-124206000D03*
X142748000Y-124206000D03*
X190500000Y-58166000D03*
X187960000Y-58166000D03*
X177800000Y-58166000D03*
X177800000Y-65786000D03*
X190500000Y-65786000D03*
X187960000Y-65786000D03*
X190500000Y-69088000D03*
X187960000Y-69088000D03*
X177800000Y-69088000D03*
X177800000Y-76708000D03*
X190500000Y-76708000D03*
X187960000Y-76708000D03*
X190500000Y-80010000D03*
X187960000Y-80010000D03*
X177800000Y-80010000D03*
X177800000Y-87630000D03*
X190500000Y-87630000D03*
X187960000Y-87630000D03*
X190500000Y-90932000D03*
X187960000Y-90932000D03*
X177800000Y-90932000D03*
X177800000Y-98552000D03*
X190500000Y-98552000D03*
X187960000Y-98552000D03*
X190500000Y-101854000D03*
X187960000Y-101854000D03*
X177800000Y-101854000D03*
X177800000Y-109474000D03*
X190500000Y-109474000D03*
X187960000Y-109474000D03*
X190500000Y-112522000D03*
X187960000Y-112522000D03*
X177800000Y-112522000D03*
X177800000Y-120142000D03*
X190500000Y-120142000D03*
X187960000Y-120142000D03*
D17*
X146812000Y-38100000D03*
D18*
X149352000Y-38100000D03*
D17*
X136144000Y-38100000D03*
D18*
X138684000Y-38100000D03*
D19*
X125730000Y-66548000D03*
X128270000Y-66548000D03*
X123190000Y-66548000D03*
D20*
X123364000Y-70866000D03*
X126064000Y-70866000D03*
D21*
X119984000Y-59436000D03*
D22*
X123984000Y-59436000D03*
D21*
X127984000Y-59436000D03*
D22*
X131984000Y-59436000D03*
D23*
X179324000Y-39624000D03*
X171704000Y-42164000D03*
X168656000Y-45212000D03*
X166116000Y-37592000D03*
X155956000Y-58166000D03*
X158496000Y-65786000D03*
X155956000Y-69088000D03*
X158496000Y-76708000D03*
X155956000Y-80010000D03*
X158496000Y-87630000D03*
X155956000Y-90932000D03*
X158496000Y-98552000D03*
X155956000Y-101854000D03*
X158496000Y-109474000D03*
X155956000Y-112776000D03*
X158496000Y-120396000D03*
X161544000Y-63500000D03*
X169164000Y-60960000D03*
X161544000Y-73660000D03*
X169164000Y-71120000D03*
X161544000Y-84836000D03*
X169164000Y-82296000D03*
X161544000Y-95758000D03*
X169164000Y-93218000D03*
X161544000Y-106680000D03*
X169164000Y-104140000D03*
X161544000Y-117602000D03*
X169164000Y-115062000D03*
X172212000Y-58166000D03*
X174752000Y-65786000D03*
X172212000Y-69088000D03*
X174752000Y-76708000D03*
X172212000Y-80010000D03*
X174752000Y-87630000D03*
X172212000Y-90932000D03*
X174752000Y-98552000D03*
X172212000Y-101854000D03*
X174752000Y-109474000D03*
X172212000Y-112522000D03*
X174752000Y-120142000D03*
D11*
X158258000Y-40640000D03*
X160258000Y-40640000D03*
X155210000Y-36830000D03*
X157210000Y-36830000D03*
D23*
X143507460Y-47498000D03*
X136908540Y-47498000D03*
X163068000Y-39624000D03*
X155448000Y-42164000D03*
D24*
X133604000Y-84248000D03*
X133604000Y-86948000D03*
D11*
X122952000Y-126492000D03*
X124952000Y-126492000D03*
D15*
X184912000Y-123698000D03*
X182372000Y-123698000D03*
X172212000Y-123698000D03*
X172212000Y-131318000D03*
X184912000Y-131318000D03*
X182372000Y-131318000D03*
D25*
X127381000Y-131732000D03*
X128651000Y-131732000D03*
X129921000Y-131732000D03*
X131191000Y-131732000D03*
X131191000Y-126332000D03*
X129921000Y-126332000D03*
X128651000Y-126332000D03*
X127381000Y-126332000D03*
D11*
X122063000Y-94615000D03*
X124063000Y-94615000D03*
D26*
X121666000Y-124206000D03*
D27*
X119126000Y-124206000D03*
X121666000Y-121666000D03*
X119126000Y-121666000D03*
X121666000Y-119126000D03*
X119126000Y-119126000D03*
X121666000Y-116586000D03*
X119126000Y-116586000D03*
X121666000Y-114046000D03*
X119126000Y-114046000D03*
X121666000Y-111506000D03*
X119126000Y-111506000D03*
D28*
X127508000Y-109728000D03*
D29*
X127508000Y-103124000D03*
X125222000Y-103124000D03*
X129794000Y-103124000D03*
D30*
X126365000Y-91440000D03*
D31*
X128865000Y-91440000D03*
X126365000Y-94440000D03*
X131365000Y-91440000D03*
X131365000Y-94440000D03*
X128865000Y-94440000D03*
D32*
X173101000Y-44831000D03*
D33*
X175641000Y-44831000D03*
X178181000Y-44831000D03*
D34*
X149860000Y-59944000D03*
X176784000Y-53166000D03*
X169672000Y-53166000D03*
X159004000Y-47244000D03*
X159004000Y-36830000D03*
X143256000Y-50292000D03*
X166878000Y-120650000D03*
X163830000Y-112522000D03*
X166878000Y-109728000D03*
X164338000Y-101854000D03*
X167132000Y-98552000D03*
X163830000Y-90932000D03*
X167386000Y-87630000D03*
X164084000Y-68834000D03*
X163830000Y-79756000D03*
X167132000Y-76708000D03*
X167386000Y-66040000D03*
X164084000Y-58166000D03*
X123952000Y-50562000D03*
X127508000Y-50562000D03*
X131064000Y-50562000D03*
X169672000Y-37338000D03*
X133858000Y-62230000D03*
X127508000Y-77470000D03*
X161544000Y-51816000D03*
X181991000Y-54864000D03*
X117729000Y-108966000D03*
X120904000Y-71962000D03*
X125222000Y-101346000D03*
X127508000Y-101346000D03*
X129794000Y-101219000D03*
D35*
X176784000Y-53166000D02*
X176784000Y-53086000D01*
X169672000Y-53166000D02*
X169672000Y-53086000D01*
D36*
X160798000Y-36830000D02*
X159004000Y-36830000D01*
X159004000Y-36830000D02*
X157210000Y-36830000D01*
X166878000Y-120650000D02*
X169434000Y-120650000D01*
X163814000Y-120650000D02*
X166878000Y-120650000D01*
X169434000Y-120650000D02*
X169942000Y-120142000D01*
X160766000Y-112522000D02*
X163830000Y-112522000D01*
X163830000Y-112522000D02*
X166894000Y-112522000D01*
D35*
X166894000Y-112522000D02*
X167148000Y-112268000D01*
D36*
X163814000Y-109728000D02*
X166878000Y-109728000D01*
X166878000Y-109728000D02*
X169688000Y-109728000D01*
D35*
X169688000Y-109728000D02*
X169942000Y-109474000D01*
D36*
X164338000Y-101854000D02*
X166894000Y-101854000D01*
X160766000Y-101854000D02*
X164338000Y-101854000D01*
X166894000Y-101854000D02*
X167402000Y-101346000D01*
X164322000Y-98552000D02*
X167132000Y-98552000D01*
X167132000Y-98552000D02*
X169942000Y-98552000D01*
X163830000Y-90932000D02*
X166640000Y-90932000D01*
X160512000Y-90932000D02*
X163830000Y-90932000D01*
X166640000Y-90932000D02*
X167148000Y-90424000D01*
X164576000Y-87630000D02*
X167386000Y-87630000D01*
X167386000Y-87630000D02*
X169688000Y-87630000D01*
D35*
X169688000Y-87630000D02*
X169942000Y-87376000D01*
D36*
X160766000Y-68834000D02*
X164084000Y-68834000D01*
X164084000Y-68834000D02*
X167148000Y-68834000D01*
D35*
X167148000Y-68834000D02*
X167402000Y-68580000D01*
D36*
X160766000Y-79756000D02*
X163830000Y-79756000D01*
X163830000Y-79756000D02*
X166894000Y-79756000D01*
D35*
X166894000Y-79756000D02*
X167148000Y-79502000D01*
D36*
X164068000Y-76708000D02*
X167132000Y-76708000D01*
X167132000Y-76708000D02*
X169688000Y-76708000D01*
D35*
X169688000Y-76708000D02*
X169942000Y-76454000D01*
D36*
X164322000Y-66040000D02*
X167386000Y-66040000D01*
X167386000Y-66040000D02*
X169688000Y-66040000D01*
D35*
X169688000Y-66040000D02*
X169942000Y-65786000D01*
D36*
X160766000Y-58166000D02*
X164084000Y-58166000D01*
X164084000Y-58166000D02*
X167148000Y-58166000D01*
D35*
X123952000Y-50562000D02*
X123952000Y-50546000D01*
X127508000Y-50562000D02*
X127508000Y-50546000D01*
X131064000Y-50562000D02*
X131064000Y-50546000D01*
D37*
X190754000Y-38862000D02*
X191008000Y-39116000D01*
D36*
X184388000Y-38862000D02*
X190754000Y-38862000D01*
X169688000Y-37354000D02*
X169672000Y-37338000D01*
X171704000Y-37354000D02*
X169688000Y-37354000D01*
D38*
X120396000Y-126492000D02*
X122952000Y-126492000D01*
X119126000Y-125222000D02*
X120396000Y-126492000D01*
X119126000Y-124206000D02*
X119126000Y-125222000D01*
X124968000Y-133858000D02*
X130048000Y-133858000D01*
X130048000Y-133858000D02*
X131191000Y-132715000D01*
X131191000Y-132715000D02*
X131191000Y-131732000D01*
X122174000Y-131064000D02*
X124968000Y-133858000D01*
D39*
X119126000Y-131064000D02*
X122174000Y-131064000D01*
X122174000Y-131064000D02*
X119126000Y-131064000D01*
D38*
X123190000Y-130048000D02*
X122174000Y-131064000D01*
D39*
X123460000Y-130048000D02*
X123190000Y-130048000D01*
D36*
X168656000Y-45212000D02*
X171704000Y-42164000D01*
X167386000Y-43942000D02*
X168656000Y-45212000D01*
X167386000Y-42148000D02*
X167386000Y-43942000D01*
X171704000Y-42164000D02*
X171704000Y-39354000D01*
X172990000Y-42164000D02*
X174514000Y-40640000D01*
X171704000Y-42164000D02*
X172990000Y-42164000D01*
D38*
X127381000Y-131732000D02*
X128651000Y-131732000D01*
X125697000Y-130048000D02*
X127381000Y-131732000D01*
D39*
X125460000Y-130048000D02*
X125697000Y-130048000D01*
D38*
X115824000Y-91440000D02*
X115824000Y-98425000D01*
X118364000Y-88900000D02*
X115824000Y-91440000D01*
X116586000Y-108585000D02*
X115824000Y-107823000D01*
X115824000Y-107823000D02*
X115824000Y-98425000D01*
X116586000Y-108966000D02*
X116586000Y-108585000D01*
X117729000Y-108966000D02*
X116586000Y-108966000D01*
X120269000Y-127508000D02*
X116586000Y-123825000D01*
X116586000Y-123825000D02*
X116586000Y-123571000D01*
X116586000Y-109601000D02*
X116586000Y-108966000D01*
X116586000Y-109601000D02*
X116586000Y-123571000D01*
X120523000Y-127508000D02*
X121539000Y-127508000D01*
X121539000Y-127508000D02*
X122682000Y-128651000D01*
X122682000Y-128651000D02*
X124063000Y-128651000D01*
X125460000Y-130048000D02*
X124063000Y-128651000D01*
X120523000Y-127508000D02*
X120269000Y-127508000D01*
D40*
X125714000Y-71216000D02*
X126064000Y-70866000D01*
X125714000Y-74930000D02*
X125714000Y-71216000D01*
D36*
X162576000Y-87630000D02*
X158496000Y-87630000D01*
X161544000Y-84836000D02*
X162814000Y-83566000D01*
X162814000Y-83566000D02*
X164100000Y-83566000D01*
X164100000Y-83566000D02*
X164354000Y-83312000D01*
X160766000Y-82296000D02*
X160766000Y-84058000D01*
X160766000Y-84058000D02*
X160782000Y-84074000D01*
X158750000Y-87630000D02*
X161544000Y-84836000D01*
D41*
X158496000Y-87630000D02*
X158750000Y-87630000D01*
D36*
X160782000Y-84074000D02*
X161544000Y-84836000D01*
X164084000Y-39624000D02*
X166116000Y-37592000D01*
X163068000Y-39624000D02*
X164084000Y-39624000D01*
X162052000Y-40640000D02*
X163068000Y-39624000D01*
X160258000Y-40640000D02*
X162052000Y-40640000D01*
X167386000Y-38862000D02*
X166116000Y-37592000D01*
X167386000Y-40148000D02*
X167386000Y-38862000D01*
D37*
X162798000Y-39354000D02*
X163068000Y-39624000D01*
D36*
X162798000Y-36830000D02*
X162798000Y-39354000D01*
D38*
X133604000Y-84248000D02*
X135890000Y-84248000D01*
D39*
X130302000Y-124714000D02*
X128016000Y-124714000D01*
X132842000Y-127508000D02*
X132842000Y-124714000D01*
X130302000Y-124714000D02*
X132842000Y-124714000D01*
X120396000Y-117856000D02*
X123190000Y-117856000D01*
X119126000Y-116586000D02*
X120396000Y-117856000D01*
X123190000Y-117856000D02*
X123444000Y-117856000D01*
X128016000Y-124714000D02*
X123444000Y-120142000D01*
X123444000Y-120142000D02*
X123444000Y-117856000D01*
D38*
X135890000Y-115062000D02*
X135890000Y-124460000D01*
X135890000Y-84074000D02*
X135890000Y-88392000D01*
X135890000Y-58166000D02*
X135890000Y-84074000D01*
X135890000Y-88392000D02*
X135890000Y-115062000D01*
X146304000Y-55372000D02*
X156210000Y-45466000D01*
X135890000Y-58166000D02*
X138684000Y-55372000D01*
X138684000Y-55372000D02*
X146304000Y-55372000D01*
X135890000Y-124460000D02*
X132842000Y-127508000D01*
X156464000Y-45466000D02*
X156210000Y-45466000D01*
X129921000Y-130429000D02*
X132842000Y-127508000D01*
X129921000Y-131732000D02*
X129921000Y-130429000D01*
D36*
X180102000Y-39624000D02*
X182388000Y-41910000D01*
D37*
X179324000Y-39624000D02*
X180102000Y-39624000D01*
D36*
X181626000Y-39624000D02*
X182388000Y-38862000D01*
X179324000Y-39624000D02*
X181626000Y-39624000D01*
X178308000Y-40640000D02*
X179324000Y-39624000D01*
X176514000Y-40640000D02*
X178308000Y-40640000D01*
X178181000Y-40767000D02*
X179324000Y-39624000D01*
X178181000Y-44831000D02*
X178181000Y-40767000D01*
X164354000Y-116332000D02*
X162814000Y-116332000D01*
X162814000Y-116332000D02*
X161544000Y-117602000D01*
X160766000Y-114808000D02*
X160766000Y-116824000D01*
X160766000Y-116824000D02*
X161544000Y-117602000D01*
X158496000Y-120396000D02*
X161560000Y-120396000D01*
X161560000Y-120396000D02*
X161814000Y-120650000D01*
X158750000Y-120396000D02*
X161544000Y-117602000D01*
X158496000Y-120396000D02*
X158750000Y-120396000D01*
X158766000Y-82296000D02*
X158242000Y-82296000D01*
X158242000Y-82296000D02*
X155956000Y-80010000D01*
X158766000Y-79756000D02*
X156210000Y-79756000D01*
D37*
X156210000Y-79756000D02*
X155956000Y-80010000D01*
D36*
X152908000Y-80010000D02*
X155956000Y-80010000D01*
D37*
X155956000Y-90932000D02*
X156226000Y-90932000D01*
D36*
X156226000Y-90932000D02*
X158512000Y-93218000D01*
X155956000Y-90932000D02*
X158512000Y-90932000D01*
X152908000Y-90932000D02*
X155956000Y-90932000D01*
X158766000Y-104140000D02*
X158242000Y-104140000D01*
X158242000Y-104140000D02*
X155956000Y-101854000D01*
X158766000Y-101854000D02*
X155956000Y-101854000D01*
X152908000Y-101854000D02*
X155956000Y-101854000D01*
X161544000Y-63500000D02*
X161544000Y-63373000D01*
X161544000Y-63373000D02*
X162941000Y-61976000D01*
X162941000Y-61976000D02*
X164227000Y-61976000D01*
X158496000Y-65786000D02*
X159258000Y-65786000D01*
X159258000Y-65786000D02*
X161544000Y-63500000D01*
D37*
X158750000Y-66040000D02*
X158496000Y-65786000D01*
D36*
X162322000Y-66040000D02*
X158750000Y-66040000D01*
X161020000Y-60706000D02*
X161020000Y-62976000D01*
D37*
X184388000Y-49366000D02*
X184224000Y-49530000D01*
D36*
X184388000Y-41910000D02*
X184388000Y-49366000D01*
D38*
X116078000Y-81534000D02*
X116586000Y-82042000D01*
X118618000Y-82042000D02*
X119126000Y-81534000D01*
X116586000Y-82042000D02*
X118618000Y-82042000D01*
X116078000Y-79248000D02*
X116078000Y-81534000D01*
X119126000Y-81534000D02*
X119126000Y-78994000D01*
X119126000Y-72390000D02*
X119634000Y-71882000D01*
X120824000Y-71882000D02*
X120904000Y-71962000D01*
X119634000Y-71882000D02*
X120824000Y-71882000D01*
X116078000Y-76708000D02*
X116078000Y-79248000D01*
X119126000Y-78994000D02*
X119126000Y-76708000D01*
X119126000Y-76708000D02*
X119126000Y-72390000D01*
X128270000Y-66548000D02*
X128270000Y-64516000D01*
X116078000Y-65024000D02*
X116078000Y-76708000D01*
X117094000Y-64008000D02*
X116078000Y-65024000D01*
X127762000Y-64008000D02*
X117094000Y-64008000D01*
X128270000Y-64516000D02*
X127762000Y-64008000D01*
D40*
X123714000Y-74772000D02*
X120904000Y-71962000D01*
X123714000Y-74930000D02*
X123714000Y-74772000D01*
D36*
X152908000Y-58166000D02*
X155956000Y-58166000D01*
X158766000Y-58166000D02*
X155956000Y-58166000D01*
X158496000Y-60706000D02*
X155956000Y-58166000D01*
X159020000Y-60706000D02*
X158496000Y-60706000D01*
X159020000Y-71120000D02*
X157988000Y-71120000D01*
X157988000Y-71120000D02*
X155956000Y-69088000D01*
X158766000Y-68834000D02*
X156210000Y-68834000D01*
D37*
X156210000Y-68834000D02*
X155956000Y-69088000D01*
D36*
X152908000Y-69088000D02*
X155956000Y-69088000D01*
X158766000Y-114808000D02*
X157988000Y-114808000D01*
X157988000Y-114808000D02*
X155956000Y-112776000D01*
X155956000Y-112776000D02*
X158512000Y-112776000D01*
X158512000Y-112776000D02*
X158766000Y-112522000D01*
X152908000Y-112776000D02*
X155956000Y-112776000D01*
X161020000Y-71120000D02*
X161020000Y-73136000D01*
X161020000Y-73136000D02*
X161544000Y-73660000D01*
X164100000Y-72136000D02*
X163068000Y-72136000D01*
X163068000Y-72136000D02*
X161544000Y-73660000D01*
X162068000Y-76708000D02*
X158496000Y-76708000D01*
X158496000Y-76708000D02*
X161544000Y-73660000D01*
D37*
X161544000Y-95758000D02*
X161798000Y-95758000D01*
D36*
X161798000Y-95758000D02*
X163322000Y-94234000D01*
X163322000Y-94234000D02*
X164354000Y-94234000D01*
X158496000Y-98552000D02*
X162322000Y-98552000D01*
X160512000Y-93218000D02*
X160512000Y-94726000D01*
X160512000Y-94726000D02*
X161544000Y-95758000D01*
X158750000Y-98552000D02*
X161544000Y-95758000D01*
D41*
X158496000Y-98552000D02*
X158750000Y-98552000D01*
D36*
X161544000Y-106680000D02*
X162814000Y-105410000D01*
X162814000Y-105410000D02*
X164100000Y-105410000D01*
D37*
X164100000Y-105410000D02*
X164354000Y-105156000D01*
D36*
X161814000Y-109728000D02*
X158750000Y-109728000D01*
D37*
X158750000Y-109728000D02*
X158496000Y-109474000D01*
X160766000Y-104140000D02*
X160766000Y-105902000D01*
X160766000Y-105902000D02*
X161544000Y-106680000D01*
D36*
X158750000Y-109474000D02*
X161544000Y-106680000D01*
D41*
X158496000Y-109474000D02*
X158750000Y-109474000D01*
D36*
X166227000Y-61976000D02*
X168148000Y-61976000D01*
X168148000Y-61976000D02*
X169164000Y-60960000D01*
X169164000Y-60960000D02*
X169418000Y-60960000D01*
X169418000Y-60960000D02*
X172212000Y-58166000D01*
X169148000Y-58166000D02*
X172212000Y-58166000D01*
X171196000Y-62992000D02*
X169164000Y-60960000D01*
X171212000Y-62992000D02*
X171196000Y-62992000D01*
X166100000Y-72136000D02*
X168148000Y-72136000D01*
X168148000Y-72136000D02*
X169164000Y-71120000D01*
X171466000Y-73660000D02*
X171466000Y-72406000D01*
X171466000Y-72406000D02*
X170180000Y-71120000D01*
D37*
X172482000Y-69358000D02*
X172212000Y-69088000D01*
D36*
X169402000Y-68580000D02*
X171704000Y-68580000D01*
D37*
X171704000Y-68580000D02*
X172212000Y-69088000D01*
D36*
X170180000Y-71120000D02*
X170561000Y-70739000D01*
X170561000Y-70739000D02*
X172212000Y-69088000D01*
X169164000Y-71120000D02*
X170180000Y-71120000D01*
D37*
X169164000Y-82296000D02*
X169180000Y-82296000D01*
D36*
X169180000Y-82296000D02*
X171466000Y-84582000D01*
X169148000Y-79502000D02*
X171704000Y-79502000D01*
X171704000Y-79502000D02*
X172212000Y-80010000D01*
X166354000Y-83312000D02*
X168148000Y-83312000D01*
X168148000Y-83312000D02*
X169164000Y-82296000D01*
X169926000Y-82296000D02*
X172212000Y-80010000D01*
D41*
X169164000Y-82296000D02*
X169926000Y-82296000D01*
D37*
X171466000Y-95504000D02*
X171450000Y-95504000D01*
D36*
X171450000Y-95504000D02*
X169164000Y-93218000D01*
X169148000Y-90424000D02*
X171704000Y-90424000D01*
D37*
X171704000Y-90424000D02*
X172212000Y-90932000D01*
D36*
X166354000Y-94234000D02*
X167640000Y-94234000D01*
X167640000Y-94234000D02*
X168656000Y-93218000D01*
D37*
X168656000Y-93218000D02*
X169164000Y-93218000D01*
D36*
X169926000Y-93218000D02*
X172212000Y-90932000D01*
X169164000Y-93218000D02*
X169926000Y-93218000D01*
D35*
X169402000Y-101346000D02*
X171704000Y-101346000D01*
X171704000Y-101346000D02*
X172212000Y-101854000D01*
D37*
X171466000Y-106426000D02*
X171450000Y-106426000D01*
D36*
X171450000Y-106426000D02*
X169164000Y-104140000D01*
X166354000Y-105156000D02*
X167640000Y-105156000D01*
X167640000Y-105156000D02*
X168656000Y-104140000D01*
D37*
X168656000Y-104140000D02*
X169164000Y-104140000D01*
D36*
X169926000Y-104140000D02*
X172212000Y-101854000D01*
X169164000Y-104140000D02*
X169926000Y-104140000D01*
X171466000Y-116840000D02*
X170942000Y-116840000D01*
X170942000Y-116840000D02*
X169164000Y-115062000D01*
X169148000Y-112268000D02*
X171958000Y-112268000D01*
D37*
X171958000Y-112268000D02*
X172212000Y-112522000D01*
D36*
X166354000Y-116332000D02*
X167894000Y-116332000D01*
X167894000Y-116332000D02*
X169164000Y-115062000D01*
X169672000Y-115062000D02*
X172212000Y-112522000D01*
D41*
X169164000Y-115062000D02*
X169672000Y-115062000D01*
D36*
X174752000Y-65786000D02*
X177800000Y-65786000D01*
X171942000Y-65786000D02*
X174752000Y-65786000D01*
X173212000Y-64246000D02*
X174752000Y-65786000D01*
X173212000Y-62992000D02*
X173212000Y-64246000D01*
X173466000Y-73660000D02*
X173466000Y-75422000D01*
X173466000Y-75422000D02*
X174752000Y-76708000D01*
D37*
X174482000Y-76438000D02*
X174752000Y-76708000D01*
D36*
X171942000Y-76454000D02*
X174498000Y-76454000D01*
D37*
X174498000Y-76454000D02*
X174752000Y-76708000D01*
D36*
X174752000Y-76708000D02*
X177800000Y-76708000D01*
X171942000Y-87376000D02*
X174498000Y-87376000D01*
D37*
X174498000Y-87376000D02*
X174752000Y-87630000D01*
D36*
X173466000Y-84582000D02*
X173466000Y-86344000D01*
X173466000Y-86344000D02*
X174752000Y-87630000D01*
X174752000Y-87630000D02*
X177800000Y-87630000D01*
X171942000Y-98552000D02*
X174752000Y-98552000D01*
X173466000Y-95504000D02*
X173466000Y-97266000D01*
X173466000Y-97266000D02*
X174752000Y-98552000D01*
X174752000Y-98552000D02*
X177800000Y-98552000D01*
X171942000Y-109474000D02*
X174752000Y-109474000D01*
X173466000Y-106426000D02*
X173466000Y-108188000D01*
X173466000Y-108188000D02*
X174752000Y-109474000D01*
X174752000Y-109474000D02*
X177800000Y-109474000D01*
X171942000Y-120142000D02*
X174752000Y-120142000D01*
X173466000Y-116840000D02*
X173466000Y-118856000D01*
X173466000Y-118856000D02*
X174752000Y-120142000D01*
X174752000Y-120142000D02*
X177800000Y-120142000D01*
D40*
X123364000Y-66722000D02*
X123190000Y-66548000D01*
X123364000Y-70866000D02*
X123364000Y-66722000D01*
D36*
X146304000Y-45466000D02*
X152146000Y-45466000D01*
X152146000Y-45466000D02*
X155448000Y-42164000D01*
X155210000Y-40402000D02*
X155210000Y-36830000D01*
X155448000Y-42164000D02*
X155448000Y-40640000D01*
X155448000Y-40640000D02*
X155210000Y-40402000D01*
X156972000Y-40640000D02*
X155448000Y-42164000D01*
X158258000Y-40640000D02*
X156972000Y-40640000D01*
X160655000Y-42164000D02*
X166243000Y-47752000D01*
X166243000Y-47752000D02*
X171323000Y-47752000D01*
X171323000Y-47752000D02*
X173101000Y-45974000D01*
X173101000Y-45974000D02*
X173101000Y-44831000D01*
X155448000Y-42164000D02*
X160655000Y-42164000D01*
X190500000Y-122428000D02*
X189230000Y-123698000D01*
X190500000Y-120142000D02*
X190500000Y-122428000D01*
X189230000Y-123698000D02*
X184912000Y-123698000D01*
X161798000Y-55118000D02*
X161036000Y-55118000D01*
X188722000Y-61468000D02*
X184404000Y-61468000D01*
X184404000Y-61468000D02*
X178054000Y-55118000D01*
X190500000Y-65786000D02*
X190500000Y-63246000D01*
X161798000Y-55118000D02*
X178054000Y-55118000D01*
X190500000Y-63246000D02*
X188722000Y-61468000D01*
X161036000Y-55118000D02*
X159004000Y-53086000D01*
X193294000Y-73914000D02*
X190500000Y-76708000D01*
X191008000Y-65786000D02*
X193294000Y-68072000D01*
X193294000Y-68072000D02*
X193294000Y-73914000D01*
X191008000Y-65786000D02*
X190500000Y-65786000D01*
X190500000Y-87630000D02*
X190754000Y-87630000D01*
X193294000Y-79502000D02*
X190500000Y-76708000D01*
X193294000Y-85090000D02*
X193294000Y-79502000D01*
X190754000Y-87630000D02*
X193294000Y-85090000D01*
X190500000Y-98552000D02*
X191008000Y-98552000D01*
X193294000Y-96266000D02*
X193294000Y-90424000D01*
X193294000Y-90424000D02*
X190500000Y-87630000D01*
X191008000Y-98552000D02*
X193294000Y-96266000D01*
X190500000Y-109474000D02*
X190754000Y-109474000D01*
X193294000Y-106934000D02*
X193294000Y-101346000D01*
X193294000Y-101346000D02*
X190500000Y-98552000D01*
X190754000Y-109474000D02*
X193294000Y-106934000D01*
X190500000Y-109474000D02*
X191262000Y-109474000D01*
X193294000Y-117348000D02*
X190500000Y-120142000D01*
X193294000Y-111506000D02*
X193294000Y-117348000D01*
X191262000Y-109474000D02*
X193294000Y-111506000D01*
X140208000Y-131826000D02*
X139192000Y-131826000D01*
X137160000Y-115316000D02*
X137160000Y-124714000D01*
X137160000Y-115316000D02*
X139700000Y-112776000D01*
X137160000Y-129794000D02*
X137160000Y-124714000D01*
X139192000Y-131826000D02*
X137160000Y-129794000D01*
X140208000Y-112776000D02*
X139700000Y-112776000D01*
X140208000Y-101854000D02*
X139954000Y-101854000D01*
X137160000Y-104648000D02*
X137160000Y-109728000D01*
X137160000Y-109728000D02*
X140208000Y-112776000D01*
X139954000Y-101854000D02*
X137160000Y-104648000D01*
X140208000Y-90932000D02*
X139954000Y-90932000D01*
X137414000Y-93472000D02*
X137414000Y-99060000D01*
X137414000Y-99060000D02*
X140208000Y-101854000D01*
X139954000Y-90932000D02*
X137414000Y-93472000D01*
X140208000Y-80010000D02*
X139700000Y-80010000D01*
X137160000Y-82550000D02*
X137160000Y-87884000D01*
X137160000Y-87884000D02*
X140208000Y-90932000D01*
X139700000Y-80010000D02*
X137160000Y-82550000D01*
X140208000Y-69088000D02*
X140208000Y-69850000D01*
X137414000Y-72644000D02*
X137414000Y-77216000D01*
X137414000Y-77216000D02*
X140208000Y-80010000D01*
X140208000Y-69850000D02*
X137414000Y-72644000D01*
X140208000Y-58166000D02*
X140208000Y-60960000D01*
X140208000Y-60960000D02*
X137668000Y-63500000D01*
X137668000Y-63500000D02*
X137668000Y-66548000D01*
X137668000Y-66548000D02*
X140208000Y-69088000D01*
X152908000Y-124206000D02*
X160020000Y-124206000D01*
X167132000Y-131318000D02*
X172212000Y-131318000D01*
X160020000Y-124206000D02*
X167132000Y-131318000D01*
D38*
X128651000Y-126332000D02*
X129921000Y-126332000D01*
X131171000Y-89134000D02*
X131211000Y-89134000D01*
X131211000Y-89134000D02*
X133397000Y-86948000D01*
D39*
X133397000Y-86948000D02*
X133604000Y-86948000D01*
X127381000Y-124841000D02*
X127381000Y-126332000D01*
X122936000Y-120396000D02*
X126492000Y-123952000D01*
X127381000Y-124841000D02*
X127254000Y-124714000D01*
X126492000Y-123952000D02*
X127381000Y-124841000D01*
X117348000Y-115316000D02*
X117348000Y-119888000D01*
X117348000Y-119888000D02*
X117856000Y-120396000D01*
X117856000Y-120396000D02*
X122936000Y-120396000D01*
X118618000Y-114046000D02*
X117348000Y-115316000D01*
X119126000Y-114046000D02*
X118618000Y-114046000D01*
X127221000Y-126492000D02*
X127381000Y-126332000D01*
D38*
X124952000Y-126492000D02*
X127221000Y-126492000D01*
X131238000Y-89067000D02*
X131171000Y-89134000D01*
X131171000Y-89134000D02*
X128865000Y-91440000D01*
X121039000Y-94623000D02*
X121047000Y-94615000D01*
X119761000Y-95901000D02*
X121039000Y-94623000D01*
X119761000Y-104775000D02*
X119761000Y-95901000D01*
X118491000Y-106045000D02*
X119761000Y-104775000D01*
X117856000Y-106045000D02*
X118491000Y-106045000D01*
X122055000Y-94623000D02*
X122063000Y-94615000D01*
X121039000Y-94623000D02*
X122055000Y-94623000D01*
X126190000Y-94615000D02*
X126365000Y-94440000D01*
X126190000Y-94615000D02*
X126365000Y-94440000D01*
X124063000Y-94615000D02*
X126190000Y-94615000D01*
X125222000Y-103124000D02*
X125222000Y-101346000D01*
D35*
X127508000Y-103124000D02*
X127508000Y-109728000D01*
D38*
X127508000Y-101346000D02*
X127508000Y-103124000D01*
X129794000Y-101219000D02*
X129794000Y-103124000D01*
D39*
G36*
X134999307Y-123825000D02*
X131191000Y-123825000D01*
X131191000Y-104902000D01*
X131191000Y-100457000D01*
X130558641Y-100457000D01*
X130406286Y-100304378D01*
X130009668Y-100139687D01*
X129580216Y-100139313D01*
X129183311Y-100303311D01*
X129029353Y-100457000D01*
X125859863Y-100457000D01*
X125834286Y-100431378D01*
X125437668Y-100266687D01*
X125008216Y-100266313D01*
X124611311Y-100430311D01*
X124584575Y-100457000D01*
X123825000Y-100457000D01*
X123825000Y-104902000D01*
X131191000Y-104902000D01*
X131191000Y-123825000D01*
X131064000Y-123825000D01*
X128204630Y-123825000D01*
X124206000Y-119826369D01*
X124206000Y-117856000D01*
X124147996Y-117564395D01*
X124079000Y-117461135D01*
X124079000Y-108966000D01*
X118808500Y-108966000D01*
X118808687Y-108752216D01*
X118745000Y-108598081D01*
X118745000Y-107420088D01*
X119055778Y-107212433D01*
X119413670Y-106676810D01*
X119509774Y-106193658D01*
X120344713Y-105358719D01*
X120344716Y-105358717D01*
X120344717Y-105358717D01*
X120451986Y-105198175D01*
X120523663Y-105090906D01*
X120523663Y-105090905D01*
X120586500Y-104775000D01*
X120586500Y-96774000D01*
X123952000Y-96774000D01*
X134621969Y-96774000D01*
X134747013Y-104776833D01*
X134999307Y-123825000D01*
X134999307Y-123825000D01*
G37*
X134999307Y-123825000D02*
X131191000Y-123825000D01*
X131191000Y-104902000D01*
X131191000Y-100457000D01*
X130558641Y-100457000D01*
X130406286Y-100304378D01*
X130009668Y-100139687D01*
X129580216Y-100139313D01*
X129183311Y-100303311D01*
X129029353Y-100457000D01*
X125859863Y-100457000D01*
X125834286Y-100431378D01*
X125437668Y-100266687D01*
X125008216Y-100266313D01*
X124611311Y-100430311D01*
X124584575Y-100457000D01*
X123825000Y-100457000D01*
X123825000Y-104902000D01*
X131191000Y-104902000D01*
X131191000Y-123825000D01*
X131064000Y-123825000D01*
X128204630Y-123825000D01*
X124206000Y-119826369D01*
X124206000Y-117856000D01*
X124147996Y-117564395D01*
X124079000Y-117461135D01*
X124079000Y-108966000D01*
X118808500Y-108966000D01*
X118808687Y-108752216D01*
X118745000Y-108598081D01*
X118745000Y-107420088D01*
X119055778Y-107212433D01*
X119413670Y-106676810D01*
X119509774Y-106193658D01*
X120344713Y-105358719D01*
X120344716Y-105358717D01*
X120344717Y-105358717D01*
X120451986Y-105198175D01*
X120523663Y-105090906D01*
X120523663Y-105090905D01*
X120586500Y-104775000D01*
X120586500Y-96774000D01*
X123952000Y-96774000D01*
X134621969Y-96774000D01*
X134747013Y-104776833D01*
X134999307Y-123825000D01*
M02*
