%FSLAX46Y46*%
G04 Gerber Fmt 4.6, Leading zero omitted, Abs format (unit mm)*
G04 Created by KiCad (PCBNEW (2014-10-27 BZR 5228)-product) date 05/09/2015 11:13:03*
%MOMM*%
G01*
G04 APERTURE LIST*
%ADD10C,0.100000*%
%ADD11C,0.500000*%
%ADD12C,0.150000*%
%ADD13C,0.437500*%
G04 APERTURE END LIST*
D10*
D11*
X131445000Y-96059762D02*
X131445000Y-96535952D01*
X131921191Y-96345476D02*
X131445000Y-96535952D01*
X130968810Y-96345476D01*
X131730715Y-96916905D02*
X131445000Y-96535952D01*
X131159286Y-96916905D01*
X128905000Y-96059762D02*
X128905000Y-96535952D01*
X129381191Y-96345476D02*
X128905000Y-96535952D01*
X128428810Y-96345476D01*
X129190715Y-96916905D02*
X128905000Y-96535952D01*
X128619286Y-96916905D01*
X126238000Y-96059762D02*
X126238000Y-96535952D01*
X126714191Y-96345476D02*
X126238000Y-96535952D01*
X125761810Y-96345476D01*
X126523715Y-96916905D02*
X126238000Y-96535952D01*
X125952286Y-96916905D01*
D12*
X116290429Y-100213000D02*
X116171381Y-100153476D01*
X115992810Y-100153476D01*
X115814238Y-100213000D01*
X115695191Y-100332048D01*
X115635667Y-100451095D01*
X115576143Y-100689190D01*
X115576143Y-100867762D01*
X115635667Y-101105857D01*
X115695191Y-101224905D01*
X115814238Y-101343952D01*
X115992810Y-101403476D01*
X116111858Y-101403476D01*
X116290429Y-101343952D01*
X116349953Y-101284429D01*
X116349953Y-100867762D01*
X116111858Y-100867762D01*
X116885667Y-100570143D02*
X116885667Y-101403476D01*
X116885667Y-100689190D02*
X116945191Y-100629667D01*
X117064238Y-100570143D01*
X117242810Y-100570143D01*
X117361858Y-100629667D01*
X117421381Y-100748714D01*
X117421381Y-101403476D01*
X118552333Y-101403476D02*
X118552333Y-100153476D01*
X118552333Y-101343952D02*
X118433286Y-101403476D01*
X118195190Y-101403476D01*
X118076143Y-101343952D01*
X118016619Y-101284429D01*
X117957095Y-101165381D01*
X117957095Y-100808238D01*
X118016619Y-100689190D01*
X118076143Y-100629667D01*
X118195190Y-100570143D01*
X118433286Y-100570143D01*
X118552333Y-100629667D01*
X146280382Y-36266381D02*
X145947048Y-35790190D01*
X145708953Y-36266381D02*
X145708953Y-35266381D01*
X146089906Y-35266381D01*
X146185144Y-35314000D01*
X146232763Y-35361619D01*
X146280382Y-35456857D01*
X146280382Y-35599714D01*
X146232763Y-35694952D01*
X146185144Y-35742571D01*
X146089906Y-35790190D01*
X145708953Y-35790190D01*
X146613715Y-35266381D02*
X147280382Y-36266381D01*
X147280382Y-35266381D02*
X146613715Y-36266381D01*
X147661334Y-35885429D02*
X148423239Y-35885429D01*
X148899429Y-36266381D02*
X148899429Y-35266381D01*
X149375619Y-36266381D02*
X149375619Y-35266381D01*
X149947048Y-36266381D01*
X149947048Y-35266381D01*
X135826858Y-36266381D02*
X135255429Y-36266381D01*
X135541143Y-36266381D02*
X135541143Y-35266381D01*
X135445905Y-35409238D01*
X135350667Y-35504476D01*
X135255429Y-35552095D01*
X136207810Y-35361619D02*
X136255429Y-35314000D01*
X136350667Y-35266381D01*
X136588763Y-35266381D01*
X136684001Y-35314000D01*
X136731620Y-35361619D01*
X136779239Y-35456857D01*
X136779239Y-35552095D01*
X136731620Y-35694952D01*
X136160191Y-36266381D01*
X136779239Y-36266381D01*
X137207810Y-35885429D02*
X137969715Y-35885429D01*
X138969715Y-36266381D02*
X138398286Y-36266381D01*
X138684000Y-36266381D02*
X138684000Y-35266381D01*
X138588762Y-35409238D01*
X138493524Y-35504476D01*
X138398286Y-35552095D01*
X139303048Y-35266381D02*
X139922096Y-35266381D01*
X139588762Y-35647333D01*
X139731620Y-35647333D01*
X139826858Y-35694952D01*
X139874477Y-35742571D01*
X139922096Y-35837810D01*
X139922096Y-36075905D01*
X139874477Y-36171143D01*
X139826858Y-36218762D01*
X139731620Y-36266381D01*
X139445905Y-36266381D01*
X139350667Y-36218762D01*
X139303048Y-36171143D01*
X140350667Y-36171143D02*
X140398286Y-36218762D01*
X140350667Y-36266381D01*
X140303048Y-36218762D01*
X140350667Y-36171143D01*
X140350667Y-36266381D01*
X140969714Y-35694952D02*
X140874476Y-35647333D01*
X140826857Y-35599714D01*
X140779238Y-35504476D01*
X140779238Y-35456857D01*
X140826857Y-35361619D01*
X140874476Y-35314000D01*
X140969714Y-35266381D01*
X141160191Y-35266381D01*
X141255429Y-35314000D01*
X141303048Y-35361619D01*
X141350667Y-35456857D01*
X141350667Y-35504476D01*
X141303048Y-35599714D01*
X141255429Y-35647333D01*
X141160191Y-35694952D01*
X140969714Y-35694952D01*
X140874476Y-35742571D01*
X140826857Y-35790190D01*
X140779238Y-35885429D01*
X140779238Y-36075905D01*
X140826857Y-36171143D01*
X140874476Y-36218762D01*
X140969714Y-36266381D01*
X141160191Y-36266381D01*
X141255429Y-36218762D01*
X141303048Y-36171143D01*
X141350667Y-36075905D01*
X141350667Y-35885429D01*
X141303048Y-35790190D01*
X141255429Y-35742571D01*
X141160191Y-35694952D01*
X141684000Y-35599714D02*
X141922095Y-36266381D01*
X142160191Y-35599714D01*
X115205143Y-107656381D02*
X115776572Y-107656381D01*
X115490857Y-108656381D02*
X115490857Y-107656381D01*
X116014667Y-107656381D02*
X116681334Y-108656381D01*
X116681334Y-107656381D02*
X116014667Y-108656381D01*
X117062286Y-108275429D02*
X117824191Y-108275429D01*
X118300381Y-108656381D02*
X118300381Y-107656381D01*
X118776571Y-108656381D02*
X118776571Y-107656381D01*
X119348000Y-108656381D01*
X119348000Y-107656381D01*
X143393000Y-38903571D02*
X143333476Y-39022619D01*
X143333476Y-39201190D01*
X143393000Y-39379762D01*
X143512048Y-39498809D01*
X143631095Y-39558333D01*
X143869190Y-39617857D01*
X144047762Y-39617857D01*
X144285857Y-39558333D01*
X144404905Y-39498809D01*
X144523952Y-39379762D01*
X144583476Y-39201190D01*
X144583476Y-39082142D01*
X144523952Y-38903571D01*
X144464429Y-38844047D01*
X144047762Y-38844047D01*
X144047762Y-39082142D01*
X143750143Y-38308333D02*
X144583476Y-38308333D01*
X143869190Y-38308333D02*
X143809667Y-38248809D01*
X143750143Y-38129762D01*
X143750143Y-37951190D01*
X143809667Y-37832142D01*
X143928714Y-37772619D01*
X144583476Y-37772619D01*
X144583476Y-36641667D02*
X143333476Y-36641667D01*
X144523952Y-36641667D02*
X144583476Y-36760714D01*
X144583476Y-36998810D01*
X144523952Y-37117857D01*
X144464429Y-37177381D01*
X144345381Y-37236905D01*
X143988238Y-37236905D01*
X143869190Y-37177381D01*
X143809667Y-37117857D01*
X143750143Y-36998810D01*
X143750143Y-36760714D01*
X143809667Y-36641667D01*
X131963000Y-38903571D02*
X131903476Y-39022619D01*
X131903476Y-39201190D01*
X131963000Y-39379762D01*
X132082048Y-39498809D01*
X132201095Y-39558333D01*
X132439190Y-39617857D01*
X132617762Y-39617857D01*
X132855857Y-39558333D01*
X132974905Y-39498809D01*
X133093952Y-39379762D01*
X133153476Y-39201190D01*
X133153476Y-39082142D01*
X133093952Y-38903571D01*
X133034429Y-38844047D01*
X132617762Y-38844047D01*
X132617762Y-39082142D01*
X132320143Y-38308333D02*
X133153476Y-38308333D01*
X132439190Y-38308333D02*
X132379667Y-38248809D01*
X132320143Y-38129762D01*
X132320143Y-37951190D01*
X132379667Y-37832142D01*
X132498714Y-37772619D01*
X133153476Y-37772619D01*
X133153476Y-36641667D02*
X131903476Y-36641667D01*
X133093952Y-36641667D02*
X133153476Y-36760714D01*
X133153476Y-36998810D01*
X133093952Y-37117857D01*
X133034429Y-37177381D01*
X132915381Y-37236905D01*
X132558238Y-37236905D01*
X132439190Y-37177381D01*
X132379667Y-37117857D01*
X132320143Y-36998810D01*
X132320143Y-36760714D01*
X132379667Y-36641667D01*
D13*
X118713334Y-106551000D02*
X120046667Y-106551000D01*
X119380000Y-107217667D02*
X119380000Y-105884333D01*
X151479334Y-38225000D02*
X152812667Y-38225000D01*
X152146000Y-38891667D02*
X152146000Y-37558333D01*
X140557334Y-38225000D02*
X141890667Y-38225000D01*
X141224000Y-38891667D02*
X141224000Y-37558333D01*
D12*
X183888000Y-38012000D02*
X182888000Y-38012000D01*
X182888000Y-39712000D02*
X183888000Y-39712000D01*
X176014000Y-39790000D02*
X175014000Y-39790000D01*
X175014000Y-41490000D02*
X176014000Y-41490000D01*
X168236000Y-41648000D02*
X168236000Y-40648000D01*
X166536000Y-40648000D02*
X166536000Y-41648000D01*
X161298000Y-37680000D02*
X162298000Y-37680000D01*
X162298000Y-35980000D02*
X161298000Y-35980000D01*
X124960000Y-129198000D02*
X123960000Y-129198000D01*
X123960000Y-130898000D02*
X124960000Y-130898000D01*
X124214000Y-75780000D02*
X125214000Y-75780000D01*
X125214000Y-74080000D02*
X124214000Y-74080000D01*
X160266000Y-57316000D02*
X159266000Y-57316000D01*
X159266000Y-59016000D02*
X160266000Y-59016000D01*
D10*
X192024000Y-55930000D02*
X182424000Y-55930000D01*
X182424000Y-55930000D02*
X182424000Y-43530000D01*
X182424000Y-43530000D02*
X194424000Y-43530000D01*
X194424000Y-43530000D02*
X194424000Y-55930000D01*
X194424000Y-55930000D02*
X192024000Y-55930000D01*
D12*
X120396000Y-87884000D02*
X119126000Y-87884000D01*
X119646700Y-88671400D02*
X119900700Y-88633300D01*
X119900700Y-88633300D02*
X120180100Y-88455500D01*
X120180100Y-88455500D02*
X120396000Y-88138000D01*
X120396000Y-88138000D02*
X120408700Y-87693500D01*
X120408700Y-87693500D02*
X120205500Y-87337900D01*
X120205500Y-87337900D02*
X119913400Y-87160100D01*
X119913400Y-87160100D02*
X119595900Y-87109300D01*
X119595900Y-87109300D02*
X119189500Y-87210900D01*
X119189500Y-87210900D02*
X118935500Y-87553800D01*
X118935500Y-87553800D02*
X118846600Y-87731600D01*
X116586000Y-96266000D02*
X116586000Y-86614000D01*
X119634000Y-86614000D02*
X120904000Y-86614000D01*
X120904000Y-86614000D02*
X120904000Y-96266000D01*
X120904000Y-96266000D02*
X115824000Y-96266000D01*
X115824000Y-86614000D02*
X118364000Y-86614000D01*
X118364000Y-86614000D02*
X119634000Y-86614000D01*
X160266000Y-111672000D02*
X159266000Y-111672000D01*
X159266000Y-113372000D02*
X160266000Y-113372000D01*
X159520000Y-71970000D02*
X160520000Y-71970000D01*
X160520000Y-70270000D02*
X159520000Y-70270000D01*
X159266000Y-83146000D02*
X160266000Y-83146000D01*
X160266000Y-81446000D02*
X159266000Y-81446000D01*
X159012000Y-94068000D02*
X160012000Y-94068000D01*
X160012000Y-92368000D02*
X159012000Y-92368000D01*
X159266000Y-104990000D02*
X160266000Y-104990000D01*
X160266000Y-103290000D02*
X159266000Y-103290000D01*
X182888000Y-42760000D02*
X183888000Y-42760000D01*
X183888000Y-41060000D02*
X182888000Y-41060000D01*
X119126000Y-104775000D02*
X119126000Y-107315000D01*
X119406000Y-101955000D02*
X119406000Y-103505000D01*
X119126000Y-104775000D02*
X116586000Y-104775000D01*
X116306000Y-103505000D02*
X116306000Y-101955000D01*
X116306000Y-101955000D02*
X119406000Y-101955000D01*
X116586000Y-104775000D02*
X116586000Y-107315000D01*
X116586000Y-107315000D02*
X119126000Y-107315000D01*
X160266000Y-78906000D02*
X159266000Y-78906000D01*
X159266000Y-80606000D02*
X160266000Y-80606000D01*
X160012000Y-90082000D02*
X159012000Y-90082000D01*
X159012000Y-91782000D02*
X160012000Y-91782000D01*
X160266000Y-101004000D02*
X159266000Y-101004000D01*
X159266000Y-102704000D02*
X160266000Y-102704000D01*
X159520000Y-61556000D02*
X160520000Y-61556000D01*
X160520000Y-59856000D02*
X159520000Y-59856000D01*
X159266000Y-115658000D02*
X160266000Y-115658000D01*
X160266000Y-113958000D02*
X159266000Y-113958000D01*
X163822000Y-65190000D02*
X162822000Y-65190000D01*
X162822000Y-66890000D02*
X163822000Y-66890000D01*
X170854000Y-37854000D02*
X170854000Y-38854000D01*
X172554000Y-38854000D02*
X172554000Y-37854000D01*
X160266000Y-67984000D02*
X159266000Y-67984000D01*
X159266000Y-69684000D02*
X160266000Y-69684000D01*
X163568000Y-75858000D02*
X162568000Y-75858000D01*
X162568000Y-77558000D02*
X163568000Y-77558000D01*
X164076000Y-86780000D02*
X163076000Y-86780000D01*
X163076000Y-88480000D02*
X164076000Y-88480000D01*
X163822000Y-97702000D02*
X162822000Y-97702000D01*
X162822000Y-99402000D02*
X163822000Y-99402000D01*
X163314000Y-108878000D02*
X162314000Y-108878000D01*
X162314000Y-110578000D02*
X163314000Y-110578000D01*
X163314000Y-119800000D02*
X162314000Y-119800000D01*
X162314000Y-121500000D02*
X163314000Y-121500000D01*
X164727000Y-62826000D02*
X165727000Y-62826000D01*
X165727000Y-61126000D02*
X164727000Y-61126000D01*
X164600000Y-72986000D02*
X165600000Y-72986000D01*
X165600000Y-71286000D02*
X164600000Y-71286000D01*
X164854000Y-84162000D02*
X165854000Y-84162000D01*
X165854000Y-82462000D02*
X164854000Y-82462000D01*
X164854000Y-95084000D02*
X165854000Y-95084000D01*
X165854000Y-93384000D02*
X164854000Y-93384000D01*
X164854000Y-106006000D02*
X165854000Y-106006000D01*
X165854000Y-104306000D02*
X164854000Y-104306000D01*
X164854000Y-117182000D02*
X165854000Y-117182000D01*
X165854000Y-115482000D02*
X164854000Y-115482000D01*
X167648000Y-59016000D02*
X168648000Y-59016000D01*
X168648000Y-57316000D02*
X167648000Y-57316000D01*
X167902000Y-69430000D02*
X168902000Y-69430000D01*
X168902000Y-67730000D02*
X167902000Y-67730000D01*
X167648000Y-80352000D02*
X168648000Y-80352000D01*
X168648000Y-78652000D02*
X167648000Y-78652000D01*
X167648000Y-91274000D02*
X168648000Y-91274000D01*
X168648000Y-89574000D02*
X167648000Y-89574000D01*
X167902000Y-102196000D02*
X168902000Y-102196000D01*
X168902000Y-100496000D02*
X167902000Y-100496000D01*
X167648000Y-113118000D02*
X168648000Y-113118000D01*
X168648000Y-111418000D02*
X167648000Y-111418000D01*
X171712000Y-63842000D02*
X172712000Y-63842000D01*
X172712000Y-62142000D02*
X171712000Y-62142000D01*
X171966000Y-74510000D02*
X172966000Y-74510000D01*
X172966000Y-72810000D02*
X171966000Y-72810000D01*
X171966000Y-85432000D02*
X172966000Y-85432000D01*
X172966000Y-83732000D02*
X171966000Y-83732000D01*
X171966000Y-96354000D02*
X172966000Y-96354000D01*
X172966000Y-94654000D02*
X171966000Y-94654000D01*
X171966000Y-107276000D02*
X172966000Y-107276000D01*
X172966000Y-105576000D02*
X171966000Y-105576000D01*
X171966000Y-117690000D02*
X172966000Y-117690000D01*
X172966000Y-115990000D02*
X171966000Y-115990000D01*
X170442000Y-66636000D02*
X171442000Y-66636000D01*
X171442000Y-64936000D02*
X170442000Y-64936000D01*
X170442000Y-77304000D02*
X171442000Y-77304000D01*
X171442000Y-75604000D02*
X170442000Y-75604000D01*
X170442000Y-88226000D02*
X171442000Y-88226000D01*
X171442000Y-86526000D02*
X170442000Y-86526000D01*
X170442000Y-99402000D02*
X171442000Y-99402000D01*
X171442000Y-97702000D02*
X170442000Y-97702000D01*
X170442000Y-110324000D02*
X171442000Y-110324000D01*
X171442000Y-108624000D02*
X170442000Y-108624000D01*
X170442000Y-120992000D02*
X171442000Y-120992000D01*
X171442000Y-119292000D02*
X170442000Y-119292000D01*
X145288000Y-48768000D02*
X145034000Y-48768000D01*
X145034000Y-49784000D02*
X146304000Y-49784000D01*
X146304000Y-49784000D02*
X146304000Y-48768000D01*
X146304000Y-48768000D02*
X145288000Y-48768000D01*
X160274000Y-44196000D02*
X145034000Y-44196000D01*
X145034000Y-44196000D02*
X145034000Y-54356000D01*
X145034000Y-54356000D02*
X160274000Y-54356000D01*
X160274000Y-54356000D02*
X160286000Y-44244000D01*
X153924000Y-62484000D02*
X154178000Y-62484000D01*
X154178000Y-61468000D02*
X152908000Y-61468000D01*
X152908000Y-61468000D02*
X152908000Y-62484000D01*
X152908000Y-62484000D02*
X153924000Y-62484000D01*
X138938000Y-67056000D02*
X154178000Y-67056000D01*
X154178000Y-67056000D02*
X154178000Y-56896000D01*
X154178000Y-56896000D02*
X138938000Y-56896000D01*
X138938000Y-56896000D02*
X138926000Y-67008000D01*
X153924000Y-73406000D02*
X154178000Y-73406000D01*
X154178000Y-72390000D02*
X152908000Y-72390000D01*
X152908000Y-72390000D02*
X152908000Y-73406000D01*
X152908000Y-73406000D02*
X153924000Y-73406000D01*
X138938000Y-77978000D02*
X154178000Y-77978000D01*
X154178000Y-77978000D02*
X154178000Y-67818000D01*
X154178000Y-67818000D02*
X138938000Y-67818000D01*
X138938000Y-67818000D02*
X138926000Y-77930000D01*
X153924000Y-84328000D02*
X154178000Y-84328000D01*
X154178000Y-83312000D02*
X152908000Y-83312000D01*
X152908000Y-83312000D02*
X152908000Y-84328000D01*
X152908000Y-84328000D02*
X153924000Y-84328000D01*
X138938000Y-88900000D02*
X154178000Y-88900000D01*
X154178000Y-88900000D02*
X154178000Y-78740000D01*
X154178000Y-78740000D02*
X138938000Y-78740000D01*
X138938000Y-78740000D02*
X138926000Y-88852000D01*
X153924000Y-95250000D02*
X154178000Y-95250000D01*
X154178000Y-94234000D02*
X152908000Y-94234000D01*
X152908000Y-94234000D02*
X152908000Y-95250000D01*
X152908000Y-95250000D02*
X153924000Y-95250000D01*
X138938000Y-99822000D02*
X154178000Y-99822000D01*
X154178000Y-99822000D02*
X154178000Y-89662000D01*
X154178000Y-89662000D02*
X138938000Y-89662000D01*
X138938000Y-89662000D02*
X138926000Y-99774000D01*
X153924000Y-106172000D02*
X154178000Y-106172000D01*
X154178000Y-105156000D02*
X152908000Y-105156000D01*
X152908000Y-105156000D02*
X152908000Y-106172000D01*
X152908000Y-106172000D02*
X153924000Y-106172000D01*
X138938000Y-110744000D02*
X154178000Y-110744000D01*
X154178000Y-110744000D02*
X154178000Y-100584000D01*
X154178000Y-100584000D02*
X138938000Y-100584000D01*
X138938000Y-100584000D02*
X138926000Y-110696000D01*
X153924000Y-117094000D02*
X154178000Y-117094000D01*
X154178000Y-116078000D02*
X152908000Y-116078000D01*
X152908000Y-116078000D02*
X152908000Y-117094000D01*
X152908000Y-117094000D02*
X153924000Y-117094000D01*
X138938000Y-121666000D02*
X154178000Y-121666000D01*
X154178000Y-121666000D02*
X154178000Y-111506000D01*
X154178000Y-111506000D02*
X138938000Y-111506000D01*
X138938000Y-111506000D02*
X138926000Y-121618000D01*
X153924000Y-128524000D02*
X154178000Y-128524000D01*
X154178000Y-127508000D02*
X152908000Y-127508000D01*
X152908000Y-127508000D02*
X152908000Y-128524000D01*
X152908000Y-128524000D02*
X153924000Y-128524000D01*
X138938000Y-133096000D02*
X154178000Y-133096000D01*
X154178000Y-133096000D02*
X154178000Y-122936000D01*
X154178000Y-122936000D02*
X138938000Y-122936000D01*
X138938000Y-122936000D02*
X138926000Y-133048000D01*
X176784000Y-61468000D02*
X176530000Y-61468000D01*
X176530000Y-62484000D02*
X177800000Y-62484000D01*
X177800000Y-62484000D02*
X177800000Y-61468000D01*
X177800000Y-61468000D02*
X176784000Y-61468000D01*
X191770000Y-56896000D02*
X176530000Y-56896000D01*
X176530000Y-56896000D02*
X176530000Y-67056000D01*
X176530000Y-67056000D02*
X191770000Y-67056000D01*
X191770000Y-67056000D02*
X191782000Y-56944000D01*
X176784000Y-72390000D02*
X176530000Y-72390000D01*
X176530000Y-73406000D02*
X177800000Y-73406000D01*
X177800000Y-73406000D02*
X177800000Y-72390000D01*
X177800000Y-72390000D02*
X176784000Y-72390000D01*
X191770000Y-67818000D02*
X176530000Y-67818000D01*
X176530000Y-67818000D02*
X176530000Y-77978000D01*
X176530000Y-77978000D02*
X191770000Y-77978000D01*
X191770000Y-77978000D02*
X191782000Y-67866000D01*
X176784000Y-83312000D02*
X176530000Y-83312000D01*
X176530000Y-84328000D02*
X177800000Y-84328000D01*
X177800000Y-84328000D02*
X177800000Y-83312000D01*
X177800000Y-83312000D02*
X176784000Y-83312000D01*
X191770000Y-78740000D02*
X176530000Y-78740000D01*
X176530000Y-78740000D02*
X176530000Y-88900000D01*
X176530000Y-88900000D02*
X191770000Y-88900000D01*
X191770000Y-88900000D02*
X191782000Y-78788000D01*
X176784000Y-94234000D02*
X176530000Y-94234000D01*
X176530000Y-95250000D02*
X177800000Y-95250000D01*
X177800000Y-95250000D02*
X177800000Y-94234000D01*
X177800000Y-94234000D02*
X176784000Y-94234000D01*
X191770000Y-89662000D02*
X176530000Y-89662000D01*
X176530000Y-89662000D02*
X176530000Y-99822000D01*
X176530000Y-99822000D02*
X191770000Y-99822000D01*
X191770000Y-99822000D02*
X191782000Y-89710000D01*
X176784000Y-105156000D02*
X176530000Y-105156000D01*
X176530000Y-106172000D02*
X177800000Y-106172000D01*
X177800000Y-106172000D02*
X177800000Y-105156000D01*
X177800000Y-105156000D02*
X176784000Y-105156000D01*
X191770000Y-100584000D02*
X176530000Y-100584000D01*
X176530000Y-100584000D02*
X176530000Y-110744000D01*
X176530000Y-110744000D02*
X191770000Y-110744000D01*
X191770000Y-110744000D02*
X191782000Y-100632000D01*
X176784000Y-115824000D02*
X176530000Y-115824000D01*
X176530000Y-116840000D02*
X177800000Y-116840000D01*
X177800000Y-116840000D02*
X177800000Y-115824000D01*
X177800000Y-115824000D02*
X176784000Y-115824000D01*
X191770000Y-111252000D02*
X176530000Y-111252000D01*
X176530000Y-111252000D02*
X176530000Y-121412000D01*
X176530000Y-121412000D02*
X191770000Y-121412000D01*
X191770000Y-121412000D02*
X191782000Y-111300000D01*
X148082000Y-36830000D02*
X150622000Y-36830000D01*
X145262000Y-36550000D02*
X146812000Y-36550000D01*
X148082000Y-36830000D02*
X148082000Y-39370000D01*
X146812000Y-39650000D02*
X145262000Y-39650000D01*
X145262000Y-39650000D02*
X145262000Y-36550000D01*
X148082000Y-39370000D02*
X150622000Y-39370000D01*
X150622000Y-39370000D02*
X150622000Y-36830000D01*
X137414000Y-36830000D02*
X139954000Y-36830000D01*
X134594000Y-36550000D02*
X136144000Y-36550000D01*
X137414000Y-36830000D02*
X137414000Y-39370000D01*
X136144000Y-39650000D02*
X134594000Y-39650000D01*
X134594000Y-39650000D02*
X134594000Y-36550000D01*
X137414000Y-39370000D02*
X139954000Y-39370000D01*
X139954000Y-39370000D02*
X139954000Y-36830000D01*
X127254000Y-69596000D02*
X127254000Y-68453000D01*
X124206000Y-69596000D02*
X124206000Y-68453000D01*
X120396000Y-68453000D02*
X120396000Y-64770000D01*
X120396000Y-64770000D02*
X131064000Y-64770000D01*
X131064000Y-64770000D02*
X131064000Y-68453000D01*
X120396000Y-69596000D02*
X120396000Y-68453000D01*
X120396000Y-68453000D02*
X131064000Y-68453000D01*
X131064000Y-68453000D02*
X131064000Y-69596000D01*
X125730000Y-69596000D02*
X131064000Y-69596000D01*
X125730000Y-69596000D02*
X120396000Y-69596000D01*
X125314000Y-71741000D02*
X124114000Y-71741000D01*
X124114000Y-69991000D02*
X125314000Y-69991000D01*
X119984000Y-56636000D02*
X119984000Y-40636000D01*
X119984000Y-40636000D02*
X131984000Y-40636000D01*
X131984000Y-40636000D02*
X131984000Y-56636000D01*
X131984000Y-56636000D02*
X119984000Y-56636000D01*
X177038000Y-38354000D02*
X173990000Y-38354000D01*
X177038000Y-43434000D02*
X173990000Y-43434000D01*
X180594000Y-38354000D02*
X177038000Y-38354000D01*
X180594000Y-43434000D02*
X177038000Y-43434000D01*
X172974000Y-38354000D02*
X173990000Y-38354000D01*
X172974000Y-43434000D02*
X173990000Y-43434000D01*
X170434000Y-38354000D02*
X172974000Y-38354000D01*
X170434000Y-43434000D02*
X172974000Y-43434000D01*
X170434000Y-38354000D02*
X170434000Y-43434000D01*
X180594000Y-43434000D02*
X180594000Y-38354000D01*
X169926000Y-42926000D02*
X169926000Y-39878000D01*
X164846000Y-42926000D02*
X164846000Y-39878000D01*
X169926000Y-46482000D02*
X169926000Y-42926000D01*
X164846000Y-46482000D02*
X164846000Y-42926000D01*
X169926000Y-38862000D02*
X169926000Y-39878000D01*
X164846000Y-38862000D02*
X164846000Y-39878000D01*
X169926000Y-36322000D02*
X169926000Y-38862000D01*
X164846000Y-36322000D02*
X164846000Y-38862000D01*
X169926000Y-36322000D02*
X164846000Y-36322000D01*
X164846000Y-46482000D02*
X169926000Y-46482000D01*
X154686000Y-60452000D02*
X154686000Y-63500000D01*
X159766000Y-60452000D02*
X159766000Y-63500000D01*
X154686000Y-56896000D02*
X154686000Y-60452000D01*
X159766000Y-56896000D02*
X159766000Y-60452000D01*
X154686000Y-64516000D02*
X154686000Y-63500000D01*
X159766000Y-64516000D02*
X159766000Y-63500000D01*
X154686000Y-67056000D02*
X154686000Y-64516000D01*
X159766000Y-67056000D02*
X159766000Y-64516000D01*
X154686000Y-67056000D02*
X159766000Y-67056000D01*
X159766000Y-56896000D02*
X154686000Y-56896000D01*
X154686000Y-71374000D02*
X154686000Y-74422000D01*
X159766000Y-71374000D02*
X159766000Y-74422000D01*
X154686000Y-67818000D02*
X154686000Y-71374000D01*
X159766000Y-67818000D02*
X159766000Y-71374000D01*
X154686000Y-75438000D02*
X154686000Y-74422000D01*
X159766000Y-75438000D02*
X159766000Y-74422000D01*
X154686000Y-77978000D02*
X154686000Y-75438000D01*
X159766000Y-77978000D02*
X159766000Y-75438000D01*
X154686000Y-77978000D02*
X159766000Y-77978000D01*
X159766000Y-67818000D02*
X154686000Y-67818000D01*
X154686000Y-82296000D02*
X154686000Y-85344000D01*
X159766000Y-82296000D02*
X159766000Y-85344000D01*
X154686000Y-78740000D02*
X154686000Y-82296000D01*
X159766000Y-78740000D02*
X159766000Y-82296000D01*
X154686000Y-86360000D02*
X154686000Y-85344000D01*
X159766000Y-86360000D02*
X159766000Y-85344000D01*
X154686000Y-88900000D02*
X154686000Y-86360000D01*
X159766000Y-88900000D02*
X159766000Y-86360000D01*
X154686000Y-88900000D02*
X159766000Y-88900000D01*
X159766000Y-78740000D02*
X154686000Y-78740000D01*
X154686000Y-93218000D02*
X154686000Y-96266000D01*
X159766000Y-93218000D02*
X159766000Y-96266000D01*
X154686000Y-89662000D02*
X154686000Y-93218000D01*
X159766000Y-89662000D02*
X159766000Y-93218000D01*
X154686000Y-97282000D02*
X154686000Y-96266000D01*
X159766000Y-97282000D02*
X159766000Y-96266000D01*
X154686000Y-99822000D02*
X154686000Y-97282000D01*
X159766000Y-99822000D02*
X159766000Y-97282000D01*
X154686000Y-99822000D02*
X159766000Y-99822000D01*
X159766000Y-89662000D02*
X154686000Y-89662000D01*
X154686000Y-104140000D02*
X154686000Y-107188000D01*
X159766000Y-104140000D02*
X159766000Y-107188000D01*
X154686000Y-100584000D02*
X154686000Y-104140000D01*
X159766000Y-100584000D02*
X159766000Y-104140000D01*
X154686000Y-108204000D02*
X154686000Y-107188000D01*
X159766000Y-108204000D02*
X159766000Y-107188000D01*
X154686000Y-110744000D02*
X154686000Y-108204000D01*
X159766000Y-110744000D02*
X159766000Y-108204000D01*
X154686000Y-110744000D02*
X159766000Y-110744000D01*
X159766000Y-100584000D02*
X154686000Y-100584000D01*
X154686000Y-115062000D02*
X154686000Y-118110000D01*
X159766000Y-115062000D02*
X159766000Y-118110000D01*
X154686000Y-111506000D02*
X154686000Y-115062000D01*
X159766000Y-111506000D02*
X159766000Y-115062000D01*
X154686000Y-119126000D02*
X154686000Y-118110000D01*
X159766000Y-119126000D02*
X159766000Y-118110000D01*
X154686000Y-121666000D02*
X154686000Y-119126000D01*
X159766000Y-121666000D02*
X159766000Y-119126000D01*
X154686000Y-121666000D02*
X159766000Y-121666000D01*
X159766000Y-111506000D02*
X154686000Y-111506000D01*
X163830000Y-64770000D02*
X166878000Y-64770000D01*
X163830000Y-59690000D02*
X166878000Y-59690000D01*
X160274000Y-64770000D02*
X163830000Y-64770000D01*
X160274000Y-59690000D02*
X163830000Y-59690000D01*
X167894000Y-64770000D02*
X166878000Y-64770000D01*
X167894000Y-59690000D02*
X166878000Y-59690000D01*
X170434000Y-64770000D02*
X167894000Y-64770000D01*
X170434000Y-59690000D02*
X167894000Y-59690000D01*
X170434000Y-64770000D02*
X170434000Y-59690000D01*
X160274000Y-59690000D02*
X160274000Y-64770000D01*
X163830000Y-74930000D02*
X166878000Y-74930000D01*
X163830000Y-69850000D02*
X166878000Y-69850000D01*
X160274000Y-74930000D02*
X163830000Y-74930000D01*
X160274000Y-69850000D02*
X163830000Y-69850000D01*
X167894000Y-74930000D02*
X166878000Y-74930000D01*
X167894000Y-69850000D02*
X166878000Y-69850000D01*
X170434000Y-74930000D02*
X167894000Y-74930000D01*
X170434000Y-69850000D02*
X167894000Y-69850000D01*
X170434000Y-74930000D02*
X170434000Y-69850000D01*
X160274000Y-69850000D02*
X160274000Y-74930000D01*
X163830000Y-86106000D02*
X166878000Y-86106000D01*
X163830000Y-81026000D02*
X166878000Y-81026000D01*
X160274000Y-86106000D02*
X163830000Y-86106000D01*
X160274000Y-81026000D02*
X163830000Y-81026000D01*
X167894000Y-86106000D02*
X166878000Y-86106000D01*
X167894000Y-81026000D02*
X166878000Y-81026000D01*
X170434000Y-86106000D02*
X167894000Y-86106000D01*
X170434000Y-81026000D02*
X167894000Y-81026000D01*
X170434000Y-86106000D02*
X170434000Y-81026000D01*
X160274000Y-81026000D02*
X160274000Y-86106000D01*
X163830000Y-97028000D02*
X166878000Y-97028000D01*
X163830000Y-91948000D02*
X166878000Y-91948000D01*
X160274000Y-97028000D02*
X163830000Y-97028000D01*
X160274000Y-91948000D02*
X163830000Y-91948000D01*
X167894000Y-97028000D02*
X166878000Y-97028000D01*
X167894000Y-91948000D02*
X166878000Y-91948000D01*
X170434000Y-97028000D02*
X167894000Y-97028000D01*
X170434000Y-91948000D02*
X167894000Y-91948000D01*
X170434000Y-97028000D02*
X170434000Y-91948000D01*
X160274000Y-91948000D02*
X160274000Y-97028000D01*
X163830000Y-107950000D02*
X166878000Y-107950000D01*
X163830000Y-102870000D02*
X166878000Y-102870000D01*
X160274000Y-107950000D02*
X163830000Y-107950000D01*
X160274000Y-102870000D02*
X163830000Y-102870000D01*
X167894000Y-107950000D02*
X166878000Y-107950000D01*
X167894000Y-102870000D02*
X166878000Y-102870000D01*
X170434000Y-107950000D02*
X167894000Y-107950000D01*
X170434000Y-102870000D02*
X167894000Y-102870000D01*
X170434000Y-107950000D02*
X170434000Y-102870000D01*
X160274000Y-102870000D02*
X160274000Y-107950000D01*
X163830000Y-118872000D02*
X166878000Y-118872000D01*
X163830000Y-113792000D02*
X166878000Y-113792000D01*
X160274000Y-118872000D02*
X163830000Y-118872000D01*
X160274000Y-113792000D02*
X163830000Y-113792000D01*
X167894000Y-118872000D02*
X166878000Y-118872000D01*
X167894000Y-113792000D02*
X166878000Y-113792000D01*
X170434000Y-118872000D02*
X167894000Y-118872000D01*
X170434000Y-113792000D02*
X167894000Y-113792000D01*
X170434000Y-118872000D02*
X170434000Y-113792000D01*
X160274000Y-113792000D02*
X160274000Y-118872000D01*
X170942000Y-60452000D02*
X170942000Y-63500000D01*
X176022000Y-60452000D02*
X176022000Y-63500000D01*
X170942000Y-56896000D02*
X170942000Y-60452000D01*
X176022000Y-56896000D02*
X176022000Y-60452000D01*
X170942000Y-64516000D02*
X170942000Y-63500000D01*
X176022000Y-64516000D02*
X176022000Y-63500000D01*
X170942000Y-67056000D02*
X170942000Y-64516000D01*
X176022000Y-67056000D02*
X176022000Y-64516000D01*
X170942000Y-67056000D02*
X176022000Y-67056000D01*
X176022000Y-56896000D02*
X170942000Y-56896000D01*
X170942000Y-71374000D02*
X170942000Y-74422000D01*
X176022000Y-71374000D02*
X176022000Y-74422000D01*
X170942000Y-67818000D02*
X170942000Y-71374000D01*
X176022000Y-67818000D02*
X176022000Y-71374000D01*
X170942000Y-75438000D02*
X170942000Y-74422000D01*
X176022000Y-75438000D02*
X176022000Y-74422000D01*
X170942000Y-77978000D02*
X170942000Y-75438000D01*
X176022000Y-77978000D02*
X176022000Y-75438000D01*
X170942000Y-77978000D02*
X176022000Y-77978000D01*
X176022000Y-67818000D02*
X170942000Y-67818000D01*
X170942000Y-82296000D02*
X170942000Y-85344000D01*
X176022000Y-82296000D02*
X176022000Y-85344000D01*
X170942000Y-78740000D02*
X170942000Y-82296000D01*
X176022000Y-78740000D02*
X176022000Y-82296000D01*
X170942000Y-86360000D02*
X170942000Y-85344000D01*
X176022000Y-86360000D02*
X176022000Y-85344000D01*
X170942000Y-88900000D02*
X170942000Y-86360000D01*
X176022000Y-88900000D02*
X176022000Y-86360000D01*
X170942000Y-88900000D02*
X176022000Y-88900000D01*
X176022000Y-78740000D02*
X170942000Y-78740000D01*
X170942000Y-93218000D02*
X170942000Y-96266000D01*
X176022000Y-93218000D02*
X176022000Y-96266000D01*
X170942000Y-89662000D02*
X170942000Y-93218000D01*
X176022000Y-89662000D02*
X176022000Y-93218000D01*
X170942000Y-97282000D02*
X170942000Y-96266000D01*
X176022000Y-97282000D02*
X176022000Y-96266000D01*
X170942000Y-99822000D02*
X170942000Y-97282000D01*
X176022000Y-99822000D02*
X176022000Y-97282000D01*
X170942000Y-99822000D02*
X176022000Y-99822000D01*
X176022000Y-89662000D02*
X170942000Y-89662000D01*
X170942000Y-104140000D02*
X170942000Y-107188000D01*
X176022000Y-104140000D02*
X176022000Y-107188000D01*
X170942000Y-100584000D02*
X170942000Y-104140000D01*
X176022000Y-100584000D02*
X176022000Y-104140000D01*
X170942000Y-108204000D02*
X170942000Y-107188000D01*
X176022000Y-108204000D02*
X176022000Y-107188000D01*
X170942000Y-110744000D02*
X170942000Y-108204000D01*
X176022000Y-110744000D02*
X176022000Y-108204000D01*
X170942000Y-110744000D02*
X176022000Y-110744000D01*
X176022000Y-100584000D02*
X170942000Y-100584000D01*
X170942000Y-114808000D02*
X170942000Y-117856000D01*
X176022000Y-114808000D02*
X176022000Y-117856000D01*
X170942000Y-111252000D02*
X170942000Y-114808000D01*
X176022000Y-111252000D02*
X176022000Y-114808000D01*
X170942000Y-118872000D02*
X170942000Y-117856000D01*
X176022000Y-118872000D02*
X176022000Y-117856000D01*
X170942000Y-121412000D02*
X170942000Y-118872000D01*
X176022000Y-121412000D02*
X176022000Y-118872000D01*
X170942000Y-121412000D02*
X176022000Y-121412000D01*
X176022000Y-111252000D02*
X170942000Y-111252000D01*
X159758000Y-39790000D02*
X158758000Y-39790000D01*
X158758000Y-41490000D02*
X159758000Y-41490000D01*
X156710000Y-35980000D02*
X155710000Y-35980000D01*
X155710000Y-37680000D02*
X156710000Y-37680000D01*
X142008860Y-47498000D02*
X141008100Y-47498000D01*
X141008100Y-47498000D02*
X141709140Y-46697900D01*
X141709140Y-46697900D02*
X140807440Y-46997620D01*
X140807440Y-46997620D02*
X141008100Y-45996860D01*
X141008100Y-45996860D02*
X140307060Y-46796960D01*
X140307060Y-46796960D02*
X140307060Y-45798740D01*
X140307060Y-45798740D02*
X139908280Y-46898560D01*
X139908280Y-46898560D02*
X139207240Y-46098460D01*
X139207240Y-46098460D02*
X139608560Y-47099220D01*
X139608560Y-47099220D02*
X138706860Y-46796960D01*
X138706860Y-46796960D02*
X139407900Y-47498000D01*
X139407900Y-47498000D02*
X138508740Y-47498000D01*
X140909040Y-47498000D02*
G75*
G03X140909040Y-47498000I-701040J0D01*
G01*
X142008860Y-47498000D02*
G75*
G03X142008860Y-47498000I-1800860J0D01*
G01*
X160782000Y-38354000D02*
X157734000Y-38354000D01*
X160782000Y-43434000D02*
X157734000Y-43434000D01*
X164338000Y-38354000D02*
X160782000Y-38354000D01*
X164338000Y-43434000D02*
X160782000Y-43434000D01*
X156718000Y-38354000D02*
X157734000Y-38354000D01*
X156718000Y-43434000D02*
X157734000Y-43434000D01*
X154178000Y-38354000D02*
X156718000Y-38354000D01*
X154178000Y-43434000D02*
X156718000Y-43434000D01*
X154178000Y-38354000D02*
X154178000Y-43434000D01*
X164338000Y-43434000D02*
X164338000Y-38354000D01*
X131988000Y-87517000D02*
X133188000Y-87517000D01*
X133188000Y-89267000D02*
X131988000Y-89267000D01*
X124452000Y-125642000D02*
X123452000Y-125642000D01*
X123452000Y-127342000D02*
X124452000Y-127342000D01*
X171196000Y-127000000D02*
X170942000Y-127000000D01*
X170942000Y-128016000D02*
X172212000Y-128016000D01*
X172212000Y-128016000D02*
X172212000Y-127000000D01*
X172212000Y-127000000D02*
X171196000Y-127000000D01*
X186182000Y-122428000D02*
X170942000Y-122428000D01*
X170942000Y-122428000D02*
X170942000Y-132588000D01*
X170942000Y-132588000D02*
X186182000Y-132588000D01*
X186182000Y-132588000D02*
X186194000Y-122476000D01*
X126711000Y-131107000D02*
X126856000Y-131107000D01*
X126711000Y-126957000D02*
X126856000Y-126957000D01*
X131861000Y-126957000D02*
X131716000Y-126957000D01*
X131861000Y-131107000D02*
X131716000Y-131107000D01*
X126711000Y-131107000D02*
X126711000Y-126957000D01*
X131861000Y-131107000D02*
X131861000Y-126957000D01*
X126856000Y-131107000D02*
X126856000Y-132507000D01*
X123563000Y-93765000D02*
X122563000Y-93765000D01*
X122563000Y-95465000D02*
X123563000Y-95465000D01*
X120142000Y-111760000D02*
X120650000Y-111760000D01*
X120142000Y-111252000D02*
X120650000Y-111252000D01*
X120142000Y-113792000D02*
X120650000Y-113792000D01*
X120142000Y-114300000D02*
X120650000Y-114300000D01*
X120142000Y-116332000D02*
X120650000Y-116332000D01*
X120142000Y-116840000D02*
X120650000Y-116840000D01*
X120142000Y-124460000D02*
X120650000Y-124460000D01*
X120142000Y-123952000D02*
X120650000Y-123952000D01*
X120142000Y-118872000D02*
X120650000Y-118872000D01*
X120142000Y-119380000D02*
X120650000Y-119380000D01*
X120142000Y-121412000D02*
X120650000Y-121412000D01*
X120142000Y-121920000D02*
X120650000Y-121920000D01*
X117602000Y-111252000D02*
X118110000Y-111252000D01*
X117602000Y-111760000D02*
X118110000Y-111760000D01*
X117602000Y-113792000D02*
X118110000Y-113792000D01*
X117602000Y-114300000D02*
X118110000Y-114300000D01*
X117602000Y-124460000D02*
X118110000Y-124460000D01*
X117602000Y-123952000D02*
X118110000Y-123952000D01*
X117602000Y-121920000D02*
X118110000Y-121920000D01*
X117602000Y-121412000D02*
X118110000Y-121412000D01*
X117602000Y-116332000D02*
X118110000Y-116332000D01*
X117602000Y-116840000D02*
X118110000Y-116840000D01*
X117602000Y-118872000D02*
X118110000Y-118872000D01*
X117602000Y-119380000D02*
X118110000Y-119380000D01*
X121666000Y-125756000D02*
X122816000Y-125756000D01*
X122816000Y-125756000D02*
X122816000Y-124206000D01*
X115062000Y-124333000D02*
X109093000Y-124333000D01*
X109093000Y-124333000D02*
X109093000Y-124079000D01*
X109093000Y-124079000D02*
X114935000Y-124079000D01*
X114935000Y-124079000D02*
X114935000Y-124206000D01*
X114935000Y-124206000D02*
X109093000Y-124206000D01*
X117602000Y-115316000D02*
X115062000Y-115316000D01*
X117602000Y-115316000D02*
X117602000Y-112776000D01*
X117602000Y-112776000D02*
X115062000Y-112776000D01*
X115062000Y-114300000D02*
X108966000Y-114300000D01*
X108966000Y-114300000D02*
X108966000Y-113792000D01*
X108966000Y-113792000D02*
X115062000Y-113792000D01*
X115062000Y-112776000D02*
X115062000Y-115316000D01*
X115062000Y-110236000D02*
X115062000Y-112776000D01*
X108966000Y-111252000D02*
X115062000Y-111252000D01*
X108966000Y-111760000D02*
X108966000Y-111252000D01*
X115062000Y-111760000D02*
X108966000Y-111760000D01*
X117602000Y-112776000D02*
X117602000Y-110236000D01*
X117602000Y-112776000D02*
X115062000Y-112776000D01*
X117602000Y-110236000D02*
X115062000Y-110236000D01*
X117602000Y-120396000D02*
X115062000Y-120396000D01*
X117602000Y-120396000D02*
X117602000Y-117856000D01*
X117602000Y-117856000D02*
X115062000Y-117856000D01*
X115062000Y-119380000D02*
X108966000Y-119380000D01*
X108966000Y-119380000D02*
X108966000Y-118872000D01*
X108966000Y-118872000D02*
X115062000Y-118872000D01*
X115062000Y-117856000D02*
X115062000Y-120396000D01*
X115062000Y-115316000D02*
X115062000Y-117856000D01*
X108966000Y-116332000D02*
X115062000Y-116332000D01*
X108966000Y-116840000D02*
X108966000Y-116332000D01*
X115062000Y-116840000D02*
X108966000Y-116840000D01*
X117602000Y-115316000D02*
X115062000Y-115316000D01*
X117602000Y-117856000D02*
X117602000Y-115316000D01*
X117602000Y-117856000D02*
X115062000Y-117856000D01*
X117602000Y-122936000D02*
X115062000Y-122936000D01*
X117602000Y-122936000D02*
X117602000Y-120396000D01*
X117602000Y-120396000D02*
X115062000Y-120396000D01*
X115062000Y-121920000D02*
X108966000Y-121920000D01*
X108966000Y-121920000D02*
X108966000Y-121412000D01*
X108966000Y-121412000D02*
X115062000Y-121412000D01*
X115062000Y-120396000D02*
X115062000Y-122936000D01*
X115062000Y-122936000D02*
X115062000Y-125476000D01*
X108966000Y-123952000D02*
X115062000Y-123952000D01*
X108966000Y-124460000D02*
X108966000Y-123952000D01*
X115062000Y-124460000D02*
X108966000Y-124460000D01*
X117602000Y-122936000D02*
X115062000Y-122936000D01*
X117602000Y-125476000D02*
X117602000Y-122936000D01*
X117602000Y-125476000D02*
X115062000Y-125476000D01*
X131064000Y-104902000D02*
X131064000Y-101854000D01*
X131064000Y-101854000D02*
X123952000Y-101854000D01*
X123952000Y-101854000D02*
X123952000Y-104902000D01*
X131064000Y-107950000D02*
X131064000Y-108712000D01*
X131064000Y-108712000D02*
X129540000Y-110998000D01*
X129540000Y-110998000D02*
X125476000Y-110998000D01*
X125476000Y-110998000D02*
X123952000Y-108712000D01*
X123952000Y-108712000D02*
X123952000Y-107950000D01*
D10*
X125165000Y-90240000D02*
X132565000Y-90240000D01*
X132565000Y-90240000D02*
X132565000Y-95640000D01*
X132565000Y-95640000D02*
X125165000Y-95640000D01*
X125165000Y-95640000D02*
X125165000Y-90240000D01*
D12*
X183221334Y-37695143D02*
X183173715Y-37742762D01*
X183030858Y-37790381D01*
X182935620Y-37790381D01*
X182792762Y-37742762D01*
X182697524Y-37647524D01*
X182649905Y-37552286D01*
X182602286Y-37361810D01*
X182602286Y-37218952D01*
X182649905Y-37028476D01*
X182697524Y-36933238D01*
X182792762Y-36838000D01*
X182935620Y-36790381D01*
X183030858Y-36790381D01*
X183173715Y-36838000D01*
X183221334Y-36885619D01*
X183602286Y-36885619D02*
X183649905Y-36838000D01*
X183745143Y-36790381D01*
X183983239Y-36790381D01*
X184078477Y-36838000D01*
X184126096Y-36885619D01*
X184173715Y-36980857D01*
X184173715Y-37076095D01*
X184126096Y-37218952D01*
X183554667Y-37790381D01*
X184173715Y-37790381D01*
X175347334Y-39297143D02*
X175299715Y-39344762D01*
X175156858Y-39392381D01*
X175061620Y-39392381D01*
X174918762Y-39344762D01*
X174823524Y-39249524D01*
X174775905Y-39154286D01*
X174728286Y-38963810D01*
X174728286Y-38820952D01*
X174775905Y-38630476D01*
X174823524Y-38535238D01*
X174918762Y-38440000D01*
X175061620Y-38392381D01*
X175156858Y-38392381D01*
X175299715Y-38440000D01*
X175347334Y-38487619D01*
X175680667Y-38392381D02*
X176299715Y-38392381D01*
X175966381Y-38773333D01*
X176109239Y-38773333D01*
X176204477Y-38820952D01*
X176252096Y-38868571D01*
X176299715Y-38963810D01*
X176299715Y-39201905D01*
X176252096Y-39297143D01*
X176204477Y-39344762D01*
X176109239Y-39392381D01*
X175823524Y-39392381D01*
X175728286Y-39344762D01*
X175680667Y-39297143D01*
X166043143Y-41414666D02*
X166090762Y-41462285D01*
X166138381Y-41605142D01*
X166138381Y-41700380D01*
X166090762Y-41843238D01*
X165995524Y-41938476D01*
X165900286Y-41986095D01*
X165709810Y-42033714D01*
X165566952Y-42033714D01*
X165376476Y-41986095D01*
X165281238Y-41938476D01*
X165186000Y-41843238D01*
X165138381Y-41700380D01*
X165138381Y-41605142D01*
X165186000Y-41462285D01*
X165233619Y-41414666D01*
X165138381Y-40509904D02*
X165138381Y-40986095D01*
X165614571Y-41033714D01*
X165566952Y-40986095D01*
X165519333Y-40890857D01*
X165519333Y-40652761D01*
X165566952Y-40557523D01*
X165614571Y-40509904D01*
X165709810Y-40462285D01*
X165947905Y-40462285D01*
X166043143Y-40509904D01*
X166090762Y-40557523D01*
X166138381Y-40652761D01*
X166138381Y-40890857D01*
X166090762Y-40986095D01*
X166043143Y-41033714D01*
X160615334Y-38965143D02*
X160567715Y-39012762D01*
X160424858Y-39060381D01*
X160329620Y-39060381D01*
X160186762Y-39012762D01*
X160091524Y-38917524D01*
X160043905Y-38822286D01*
X159996286Y-38631810D01*
X159996286Y-38488952D01*
X160043905Y-38298476D01*
X160091524Y-38203238D01*
X160186762Y-38108000D01*
X160329620Y-38060381D01*
X160424858Y-38060381D01*
X160567715Y-38108000D01*
X160615334Y-38155619D01*
X161472477Y-38060381D02*
X161282000Y-38060381D01*
X161186762Y-38108000D01*
X161139143Y-38155619D01*
X161043905Y-38298476D01*
X160996286Y-38488952D01*
X160996286Y-38869905D01*
X161043905Y-38965143D01*
X161091524Y-39012762D01*
X161186762Y-39060381D01*
X161377239Y-39060381D01*
X161472477Y-39012762D01*
X161520096Y-38965143D01*
X161567715Y-38869905D01*
X161567715Y-38631810D01*
X161520096Y-38536571D01*
X161472477Y-38488952D01*
X161377239Y-38441333D01*
X161186762Y-38441333D01*
X161091524Y-38488952D01*
X161043905Y-38536571D01*
X160996286Y-38631810D01*
X123767143Y-131955143D02*
X123719524Y-132002762D01*
X123576667Y-132050381D01*
X123481429Y-132050381D01*
X123338571Y-132002762D01*
X123243333Y-131907524D01*
X123195714Y-131812286D01*
X123148095Y-131621810D01*
X123148095Y-131478952D01*
X123195714Y-131288476D01*
X123243333Y-131193238D01*
X123338571Y-131098000D01*
X123481429Y-131050381D01*
X123576667Y-131050381D01*
X123719524Y-131098000D01*
X123767143Y-131145619D01*
X124719524Y-132050381D02*
X124148095Y-132050381D01*
X124433809Y-132050381D02*
X124433809Y-131050381D01*
X124338571Y-131193238D01*
X124243333Y-131288476D01*
X124148095Y-131336095D01*
X125338571Y-131050381D02*
X125433810Y-131050381D01*
X125529048Y-131098000D01*
X125576667Y-131145619D01*
X125624286Y-131240857D01*
X125671905Y-131431333D01*
X125671905Y-131669429D01*
X125624286Y-131859905D01*
X125576667Y-131955143D01*
X125529048Y-132002762D01*
X125433810Y-132050381D01*
X125338571Y-132050381D01*
X125243333Y-132002762D01*
X125195714Y-131955143D01*
X125148095Y-131859905D01*
X125100476Y-131669429D01*
X125100476Y-131431333D01*
X125148095Y-131240857D01*
X125195714Y-131145619D01*
X125243333Y-131098000D01*
X125338571Y-131050381D01*
X124071143Y-73509143D02*
X124023524Y-73556762D01*
X123880667Y-73604381D01*
X123785429Y-73604381D01*
X123642571Y-73556762D01*
X123547333Y-73461524D01*
X123499714Y-73366286D01*
X123452095Y-73175810D01*
X123452095Y-73032952D01*
X123499714Y-72842476D01*
X123547333Y-72747238D01*
X123642571Y-72652000D01*
X123785429Y-72604381D01*
X123880667Y-72604381D01*
X124023524Y-72652000D01*
X124071143Y-72699619D01*
X125023524Y-73604381D02*
X124452095Y-73604381D01*
X124737809Y-73604381D02*
X124737809Y-72604381D01*
X124642571Y-72747238D01*
X124547333Y-72842476D01*
X124452095Y-72890095D01*
X125975905Y-73604381D02*
X125404476Y-73604381D01*
X125690190Y-73604381D02*
X125690190Y-72604381D01*
X125594952Y-72747238D01*
X125499714Y-72842476D01*
X125404476Y-72890095D01*
X162663143Y-58808857D02*
X162710762Y-58856476D01*
X162758381Y-58999333D01*
X162758381Y-59094571D01*
X162710762Y-59237429D01*
X162615524Y-59332667D01*
X162520286Y-59380286D01*
X162329810Y-59427905D01*
X162186952Y-59427905D01*
X161996476Y-59380286D01*
X161901238Y-59332667D01*
X161806000Y-59237429D01*
X161758381Y-59094571D01*
X161758381Y-58999333D01*
X161806000Y-58856476D01*
X161853619Y-58808857D01*
X161853619Y-58427905D02*
X161806000Y-58380286D01*
X161758381Y-58285048D01*
X161758381Y-58046952D01*
X161806000Y-57951714D01*
X161853619Y-57904095D01*
X161948857Y-57856476D01*
X162044095Y-57856476D01*
X162186952Y-57904095D01*
X162758381Y-58475524D01*
X162758381Y-57856476D01*
X162758381Y-56904095D02*
X162758381Y-57475524D01*
X162758381Y-57189810D02*
X161758381Y-57189810D01*
X161901238Y-57285048D01*
X161996476Y-57380286D01*
X162044095Y-57475524D01*
D10*
X183704667Y-55126666D02*
X183004667Y-55126666D01*
X183004667Y-54860000D01*
X183038000Y-54793333D01*
X183071333Y-54760000D01*
X183138000Y-54726666D01*
X183238000Y-54726666D01*
X183304667Y-54760000D01*
X183338000Y-54793333D01*
X183371333Y-54860000D01*
X183371333Y-55126666D01*
X183704667Y-54060000D02*
X183704667Y-54460000D01*
X183704667Y-54260000D02*
X183004667Y-54260000D01*
X183104667Y-54326666D01*
X183171333Y-54393333D01*
X183204667Y-54460000D01*
D12*
X119516381Y-92709524D02*
X120516381Y-92376191D01*
X119516381Y-92042857D01*
X120516381Y-91138095D02*
X120040190Y-91471429D01*
X120516381Y-91709524D02*
X119516381Y-91709524D01*
X119516381Y-91328571D01*
X119564000Y-91233333D01*
X119611619Y-91185714D01*
X119706857Y-91138095D01*
X119849714Y-91138095D01*
X119944952Y-91185714D01*
X119992571Y-91233333D01*
X120040190Y-91328571D01*
X120040190Y-91709524D01*
X120516381Y-90185714D02*
X120516381Y-90757143D01*
X120516381Y-90471429D02*
X119516381Y-90471429D01*
X119659238Y-90566667D01*
X119754476Y-90661905D01*
X119802095Y-90757143D01*
X162917143Y-113418857D02*
X162964762Y-113466476D01*
X163012381Y-113609333D01*
X163012381Y-113704571D01*
X162964762Y-113847429D01*
X162869524Y-113942667D01*
X162774286Y-113990286D01*
X162583810Y-114037905D01*
X162440952Y-114037905D01*
X162250476Y-113990286D01*
X162155238Y-113942667D01*
X162060000Y-113847429D01*
X162012381Y-113704571D01*
X162012381Y-113609333D01*
X162060000Y-113466476D01*
X162107619Y-113418857D01*
X162107619Y-113037905D02*
X162060000Y-112990286D01*
X162012381Y-112895048D01*
X162012381Y-112656952D01*
X162060000Y-112561714D01*
X162107619Y-112514095D01*
X162202857Y-112466476D01*
X162298095Y-112466476D01*
X162440952Y-112514095D01*
X163012381Y-113085524D01*
X163012381Y-112466476D01*
X162012381Y-111609333D02*
X162012381Y-111799810D01*
X162060000Y-111895048D01*
X162107619Y-111942667D01*
X162250476Y-112037905D01*
X162440952Y-112085524D01*
X162821905Y-112085524D01*
X162917143Y-112037905D01*
X162964762Y-111990286D01*
X163012381Y-111895048D01*
X163012381Y-111704571D01*
X162964762Y-111609333D01*
X162917143Y-111561714D01*
X162821905Y-111514095D01*
X162583810Y-111514095D01*
X162488571Y-111561714D01*
X162440952Y-111609333D01*
X162393333Y-111704571D01*
X162393333Y-111895048D01*
X162440952Y-111990286D01*
X162488571Y-112037905D01*
X162583810Y-112085524D01*
X157599143Y-73255143D02*
X157551524Y-73302762D01*
X157408667Y-73350381D01*
X157313429Y-73350381D01*
X157170571Y-73302762D01*
X157075333Y-73207524D01*
X157027714Y-73112286D01*
X156980095Y-72921810D01*
X156980095Y-72778952D01*
X157027714Y-72588476D01*
X157075333Y-72493238D01*
X157170571Y-72398000D01*
X157313429Y-72350381D01*
X157408667Y-72350381D01*
X157551524Y-72398000D01*
X157599143Y-72445619D01*
X157980095Y-72445619D02*
X158027714Y-72398000D01*
X158122952Y-72350381D01*
X158361048Y-72350381D01*
X158456286Y-72398000D01*
X158503905Y-72445619D01*
X158551524Y-72540857D01*
X158551524Y-72636095D01*
X158503905Y-72778952D01*
X157932476Y-73350381D01*
X158551524Y-73350381D01*
X159122952Y-72778952D02*
X159027714Y-72731333D01*
X158980095Y-72683714D01*
X158932476Y-72588476D01*
X158932476Y-72540857D01*
X158980095Y-72445619D01*
X159027714Y-72398000D01*
X159122952Y-72350381D01*
X159313429Y-72350381D01*
X159408667Y-72398000D01*
X159456286Y-72445619D01*
X159503905Y-72540857D01*
X159503905Y-72588476D01*
X159456286Y-72683714D01*
X159408667Y-72731333D01*
X159313429Y-72778952D01*
X159122952Y-72778952D01*
X159027714Y-72826571D01*
X158980095Y-72874190D01*
X158932476Y-72969429D01*
X158932476Y-73159905D01*
X158980095Y-73255143D01*
X159027714Y-73302762D01*
X159122952Y-73350381D01*
X159313429Y-73350381D01*
X159408667Y-73302762D01*
X159456286Y-73255143D01*
X159503905Y-73159905D01*
X159503905Y-72969429D01*
X159456286Y-72874190D01*
X159408667Y-72826571D01*
X159313429Y-72778952D01*
X157345143Y-84685143D02*
X157297524Y-84732762D01*
X157154667Y-84780381D01*
X157059429Y-84780381D01*
X156916571Y-84732762D01*
X156821333Y-84637524D01*
X156773714Y-84542286D01*
X156726095Y-84351810D01*
X156726095Y-84208952D01*
X156773714Y-84018476D01*
X156821333Y-83923238D01*
X156916571Y-83828000D01*
X157059429Y-83780381D01*
X157154667Y-83780381D01*
X157297524Y-83828000D01*
X157345143Y-83875619D01*
X157726095Y-83875619D02*
X157773714Y-83828000D01*
X157868952Y-83780381D01*
X158107048Y-83780381D01*
X158202286Y-83828000D01*
X158249905Y-83875619D01*
X158297524Y-83970857D01*
X158297524Y-84066095D01*
X158249905Y-84208952D01*
X157678476Y-84780381D01*
X158297524Y-84780381D01*
X158773714Y-84780381D02*
X158964190Y-84780381D01*
X159059429Y-84732762D01*
X159107048Y-84685143D01*
X159202286Y-84542286D01*
X159249905Y-84351810D01*
X159249905Y-83970857D01*
X159202286Y-83875619D01*
X159154667Y-83828000D01*
X159059429Y-83780381D01*
X158868952Y-83780381D01*
X158773714Y-83828000D01*
X158726095Y-83875619D01*
X158678476Y-83970857D01*
X158678476Y-84208952D01*
X158726095Y-84304190D01*
X158773714Y-84351810D01*
X158868952Y-84399429D01*
X159059429Y-84399429D01*
X159154667Y-84351810D01*
X159202286Y-84304190D01*
X159249905Y-84208952D01*
X157345143Y-95607143D02*
X157297524Y-95654762D01*
X157154667Y-95702381D01*
X157059429Y-95702381D01*
X156916571Y-95654762D01*
X156821333Y-95559524D01*
X156773714Y-95464286D01*
X156726095Y-95273810D01*
X156726095Y-95130952D01*
X156773714Y-94940476D01*
X156821333Y-94845238D01*
X156916571Y-94750000D01*
X157059429Y-94702381D01*
X157154667Y-94702381D01*
X157297524Y-94750000D01*
X157345143Y-94797619D01*
X157678476Y-94702381D02*
X158297524Y-94702381D01*
X157964190Y-95083333D01*
X158107048Y-95083333D01*
X158202286Y-95130952D01*
X158249905Y-95178571D01*
X158297524Y-95273810D01*
X158297524Y-95511905D01*
X158249905Y-95607143D01*
X158202286Y-95654762D01*
X158107048Y-95702381D01*
X157821333Y-95702381D01*
X157726095Y-95654762D01*
X157678476Y-95607143D01*
X158916571Y-94702381D02*
X159011810Y-94702381D01*
X159107048Y-94750000D01*
X159154667Y-94797619D01*
X159202286Y-94892857D01*
X159249905Y-95083333D01*
X159249905Y-95321429D01*
X159202286Y-95511905D01*
X159154667Y-95607143D01*
X159107048Y-95654762D01*
X159011810Y-95702381D01*
X158916571Y-95702381D01*
X158821333Y-95654762D01*
X158773714Y-95607143D01*
X158726095Y-95511905D01*
X158678476Y-95321429D01*
X158678476Y-95083333D01*
X158726095Y-94892857D01*
X158773714Y-94797619D01*
X158821333Y-94750000D01*
X158916571Y-94702381D01*
X157599143Y-106529143D02*
X157551524Y-106576762D01*
X157408667Y-106624381D01*
X157313429Y-106624381D01*
X157170571Y-106576762D01*
X157075333Y-106481524D01*
X157027714Y-106386286D01*
X156980095Y-106195810D01*
X156980095Y-106052952D01*
X157027714Y-105862476D01*
X157075333Y-105767238D01*
X157170571Y-105672000D01*
X157313429Y-105624381D01*
X157408667Y-105624381D01*
X157551524Y-105672000D01*
X157599143Y-105719619D01*
X157932476Y-105624381D02*
X158551524Y-105624381D01*
X158218190Y-106005333D01*
X158361048Y-106005333D01*
X158456286Y-106052952D01*
X158503905Y-106100571D01*
X158551524Y-106195810D01*
X158551524Y-106433905D01*
X158503905Y-106529143D01*
X158456286Y-106576762D01*
X158361048Y-106624381D01*
X158075333Y-106624381D01*
X157980095Y-106576762D01*
X157932476Y-106529143D01*
X159503905Y-106624381D02*
X158932476Y-106624381D01*
X159218190Y-106624381D02*
X159218190Y-105624381D01*
X159122952Y-105767238D01*
X159027714Y-105862476D01*
X158932476Y-105910095D01*
X186015334Y-42267143D02*
X185967715Y-42314762D01*
X185824858Y-42362381D01*
X185729620Y-42362381D01*
X185586762Y-42314762D01*
X185491524Y-42219524D01*
X185443905Y-42124286D01*
X185396286Y-41933810D01*
X185396286Y-41790952D01*
X185443905Y-41600476D01*
X185491524Y-41505238D01*
X185586762Y-41410000D01*
X185729620Y-41362381D01*
X185824858Y-41362381D01*
X185967715Y-41410000D01*
X186015334Y-41457619D01*
X186967715Y-42362381D02*
X186396286Y-42362381D01*
X186682000Y-42362381D02*
X186682000Y-41362381D01*
X186586762Y-41505238D01*
X186491524Y-41600476D01*
X186396286Y-41648095D01*
X119403905Y-105481381D02*
X119403905Y-104481381D01*
X119784858Y-104481381D01*
X119880096Y-104529000D01*
X119927715Y-104576619D01*
X119975334Y-104671857D01*
X119975334Y-104814714D01*
X119927715Y-104909952D01*
X119880096Y-104957571D01*
X119784858Y-105005190D01*
X119403905Y-105005190D01*
X120832477Y-104814714D02*
X120832477Y-105481381D01*
X120594381Y-104433762D02*
X120356286Y-105148048D01*
X120975334Y-105148048D01*
X162663143Y-80398857D02*
X162710762Y-80446476D01*
X162758381Y-80589333D01*
X162758381Y-80684571D01*
X162710762Y-80827429D01*
X162615524Y-80922667D01*
X162520286Y-80970286D01*
X162329810Y-81017905D01*
X162186952Y-81017905D01*
X161996476Y-80970286D01*
X161901238Y-80922667D01*
X161806000Y-80827429D01*
X161758381Y-80684571D01*
X161758381Y-80589333D01*
X161806000Y-80446476D01*
X161853619Y-80398857D01*
X161853619Y-80017905D02*
X161806000Y-79970286D01*
X161758381Y-79875048D01*
X161758381Y-79636952D01*
X161806000Y-79541714D01*
X161853619Y-79494095D01*
X161948857Y-79446476D01*
X162044095Y-79446476D01*
X162186952Y-79494095D01*
X162758381Y-80065524D01*
X162758381Y-79446476D01*
X161758381Y-79113143D02*
X161758381Y-78494095D01*
X162139333Y-78827429D01*
X162139333Y-78684571D01*
X162186952Y-78589333D01*
X162234571Y-78541714D01*
X162329810Y-78494095D01*
X162567905Y-78494095D01*
X162663143Y-78541714D01*
X162710762Y-78589333D01*
X162758381Y-78684571D01*
X162758381Y-78970286D01*
X162710762Y-79065524D01*
X162663143Y-79113143D01*
X162663143Y-91574857D02*
X162710762Y-91622476D01*
X162758381Y-91765333D01*
X162758381Y-91860571D01*
X162710762Y-92003429D01*
X162615524Y-92098667D01*
X162520286Y-92146286D01*
X162329810Y-92193905D01*
X162186952Y-92193905D01*
X161996476Y-92146286D01*
X161901238Y-92098667D01*
X161806000Y-92003429D01*
X161758381Y-91860571D01*
X161758381Y-91765333D01*
X161806000Y-91622476D01*
X161853619Y-91574857D01*
X161853619Y-91193905D02*
X161806000Y-91146286D01*
X161758381Y-91051048D01*
X161758381Y-90812952D01*
X161806000Y-90717714D01*
X161853619Y-90670095D01*
X161948857Y-90622476D01*
X162044095Y-90622476D01*
X162186952Y-90670095D01*
X162758381Y-91241524D01*
X162758381Y-90622476D01*
X162091714Y-89765333D02*
X162758381Y-89765333D01*
X161710762Y-90003429D02*
X162425048Y-90241524D01*
X162425048Y-89622476D01*
X162663143Y-102496857D02*
X162710762Y-102544476D01*
X162758381Y-102687333D01*
X162758381Y-102782571D01*
X162710762Y-102925429D01*
X162615524Y-103020667D01*
X162520286Y-103068286D01*
X162329810Y-103115905D01*
X162186952Y-103115905D01*
X161996476Y-103068286D01*
X161901238Y-103020667D01*
X161806000Y-102925429D01*
X161758381Y-102782571D01*
X161758381Y-102687333D01*
X161806000Y-102544476D01*
X161853619Y-102496857D01*
X161853619Y-102115905D02*
X161806000Y-102068286D01*
X161758381Y-101973048D01*
X161758381Y-101734952D01*
X161806000Y-101639714D01*
X161853619Y-101592095D01*
X161948857Y-101544476D01*
X162044095Y-101544476D01*
X162186952Y-101592095D01*
X162758381Y-102163524D01*
X162758381Y-101544476D01*
X161758381Y-100639714D02*
X161758381Y-101115905D01*
X162234571Y-101163524D01*
X162186952Y-101115905D01*
X162139333Y-101020667D01*
X162139333Y-100782571D01*
X162186952Y-100687333D01*
X162234571Y-100639714D01*
X162329810Y-100592095D01*
X162567905Y-100592095D01*
X162663143Y-100639714D01*
X162710762Y-100687333D01*
X162758381Y-100782571D01*
X162758381Y-101020667D01*
X162710762Y-101115905D01*
X162663143Y-101163524D01*
X157599143Y-62841143D02*
X157551524Y-62888762D01*
X157408667Y-62936381D01*
X157313429Y-62936381D01*
X157170571Y-62888762D01*
X157075333Y-62793524D01*
X157027714Y-62698286D01*
X156980095Y-62507810D01*
X156980095Y-62364952D01*
X157027714Y-62174476D01*
X157075333Y-62079238D01*
X157170571Y-61984000D01*
X157313429Y-61936381D01*
X157408667Y-61936381D01*
X157551524Y-61984000D01*
X157599143Y-62031619D01*
X157980095Y-62031619D02*
X158027714Y-61984000D01*
X158122952Y-61936381D01*
X158361048Y-61936381D01*
X158456286Y-61984000D01*
X158503905Y-62031619D01*
X158551524Y-62126857D01*
X158551524Y-62222095D01*
X158503905Y-62364952D01*
X157932476Y-62936381D01*
X158551524Y-62936381D01*
X158884857Y-61936381D02*
X159551524Y-61936381D01*
X159122952Y-62936381D01*
X157345143Y-116943143D02*
X157297524Y-116990762D01*
X157154667Y-117038381D01*
X157059429Y-117038381D01*
X156916571Y-116990762D01*
X156821333Y-116895524D01*
X156773714Y-116800286D01*
X156726095Y-116609810D01*
X156726095Y-116466952D01*
X156773714Y-116276476D01*
X156821333Y-116181238D01*
X156916571Y-116086000D01*
X157059429Y-116038381D01*
X157154667Y-116038381D01*
X157297524Y-116086000D01*
X157345143Y-116133619D01*
X157678476Y-116038381D02*
X158297524Y-116038381D01*
X157964190Y-116419333D01*
X158107048Y-116419333D01*
X158202286Y-116466952D01*
X158249905Y-116514571D01*
X158297524Y-116609810D01*
X158297524Y-116847905D01*
X158249905Y-116943143D01*
X158202286Y-116990762D01*
X158107048Y-117038381D01*
X157821333Y-117038381D01*
X157726095Y-116990762D01*
X157678476Y-116943143D01*
X158678476Y-116133619D02*
X158726095Y-116086000D01*
X158821333Y-116038381D01*
X159059429Y-116038381D01*
X159154667Y-116086000D01*
X159202286Y-116133619D01*
X159249905Y-116228857D01*
X159249905Y-116324095D01*
X159202286Y-116466952D01*
X158630857Y-117038381D01*
X159249905Y-117038381D01*
X166219143Y-66682857D02*
X166266762Y-66730476D01*
X166314381Y-66873333D01*
X166314381Y-66968571D01*
X166266762Y-67111429D01*
X166171524Y-67206667D01*
X166076286Y-67254286D01*
X165885810Y-67301905D01*
X165742952Y-67301905D01*
X165552476Y-67254286D01*
X165457238Y-67206667D01*
X165362000Y-67111429D01*
X165314381Y-66968571D01*
X165314381Y-66873333D01*
X165362000Y-66730476D01*
X165409619Y-66682857D01*
X165314381Y-66349524D02*
X165314381Y-65730476D01*
X165695333Y-66063810D01*
X165695333Y-65920952D01*
X165742952Y-65825714D01*
X165790571Y-65778095D01*
X165885810Y-65730476D01*
X166123905Y-65730476D01*
X166219143Y-65778095D01*
X166266762Y-65825714D01*
X166314381Y-65920952D01*
X166314381Y-66206667D01*
X166266762Y-66301905D01*
X166219143Y-66349524D01*
X165314381Y-65397143D02*
X165314381Y-64778095D01*
X165695333Y-65111429D01*
X165695333Y-64968571D01*
X165742952Y-64873333D01*
X165790571Y-64825714D01*
X165885810Y-64778095D01*
X166123905Y-64778095D01*
X166219143Y-64825714D01*
X166266762Y-64873333D01*
X166314381Y-64968571D01*
X166314381Y-65254286D01*
X166266762Y-65349524D01*
X166219143Y-65397143D01*
X173569334Y-37695143D02*
X173521715Y-37742762D01*
X173378858Y-37790381D01*
X173283620Y-37790381D01*
X173140762Y-37742762D01*
X173045524Y-37647524D01*
X172997905Y-37552286D01*
X172950286Y-37361810D01*
X172950286Y-37218952D01*
X172997905Y-37028476D01*
X173045524Y-36933238D01*
X173140762Y-36838000D01*
X173283620Y-36790381D01*
X173378858Y-36790381D01*
X173521715Y-36838000D01*
X173569334Y-36885619D01*
X174426477Y-37123714D02*
X174426477Y-37790381D01*
X174188381Y-36742762D02*
X173950286Y-37457048D01*
X174569334Y-37457048D01*
X162663143Y-69476857D02*
X162710762Y-69524476D01*
X162758381Y-69667333D01*
X162758381Y-69762571D01*
X162710762Y-69905429D01*
X162615524Y-70000667D01*
X162520286Y-70048286D01*
X162329810Y-70095905D01*
X162186952Y-70095905D01*
X161996476Y-70048286D01*
X161901238Y-70000667D01*
X161806000Y-69905429D01*
X161758381Y-69762571D01*
X161758381Y-69667333D01*
X161806000Y-69524476D01*
X161853619Y-69476857D01*
X161853619Y-69095905D02*
X161806000Y-69048286D01*
X161758381Y-68953048D01*
X161758381Y-68714952D01*
X161806000Y-68619714D01*
X161853619Y-68572095D01*
X161948857Y-68524476D01*
X162044095Y-68524476D01*
X162186952Y-68572095D01*
X162758381Y-69143524D01*
X162758381Y-68524476D01*
X161853619Y-68143524D02*
X161806000Y-68095905D01*
X161758381Y-68000667D01*
X161758381Y-67762571D01*
X161806000Y-67667333D01*
X161853619Y-67619714D01*
X161948857Y-67572095D01*
X162044095Y-67572095D01*
X162186952Y-67619714D01*
X162758381Y-68191143D01*
X162758381Y-67572095D01*
X165965143Y-77350857D02*
X166012762Y-77398476D01*
X166060381Y-77541333D01*
X166060381Y-77636571D01*
X166012762Y-77779429D01*
X165917524Y-77874667D01*
X165822286Y-77922286D01*
X165631810Y-77969905D01*
X165488952Y-77969905D01*
X165298476Y-77922286D01*
X165203238Y-77874667D01*
X165108000Y-77779429D01*
X165060381Y-77636571D01*
X165060381Y-77541333D01*
X165108000Y-77398476D01*
X165155619Y-77350857D01*
X165060381Y-77017524D02*
X165060381Y-76398476D01*
X165441333Y-76731810D01*
X165441333Y-76588952D01*
X165488952Y-76493714D01*
X165536571Y-76446095D01*
X165631810Y-76398476D01*
X165869905Y-76398476D01*
X165965143Y-76446095D01*
X166012762Y-76493714D01*
X166060381Y-76588952D01*
X166060381Y-76874667D01*
X166012762Y-76969905D01*
X165965143Y-77017524D01*
X165393714Y-75541333D02*
X166060381Y-75541333D01*
X165012762Y-75779429D02*
X165727048Y-76017524D01*
X165727048Y-75398476D01*
X166727143Y-88272857D02*
X166774762Y-88320476D01*
X166822381Y-88463333D01*
X166822381Y-88558571D01*
X166774762Y-88701429D01*
X166679524Y-88796667D01*
X166584286Y-88844286D01*
X166393810Y-88891905D01*
X166250952Y-88891905D01*
X166060476Y-88844286D01*
X165965238Y-88796667D01*
X165870000Y-88701429D01*
X165822381Y-88558571D01*
X165822381Y-88463333D01*
X165870000Y-88320476D01*
X165917619Y-88272857D01*
X165822381Y-87939524D02*
X165822381Y-87320476D01*
X166203333Y-87653810D01*
X166203333Y-87510952D01*
X166250952Y-87415714D01*
X166298571Y-87368095D01*
X166393810Y-87320476D01*
X166631905Y-87320476D01*
X166727143Y-87368095D01*
X166774762Y-87415714D01*
X166822381Y-87510952D01*
X166822381Y-87796667D01*
X166774762Y-87891905D01*
X166727143Y-87939524D01*
X165822381Y-86415714D02*
X165822381Y-86891905D01*
X166298571Y-86939524D01*
X166250952Y-86891905D01*
X166203333Y-86796667D01*
X166203333Y-86558571D01*
X166250952Y-86463333D01*
X166298571Y-86415714D01*
X166393810Y-86368095D01*
X166631905Y-86368095D01*
X166727143Y-86415714D01*
X166774762Y-86463333D01*
X166822381Y-86558571D01*
X166822381Y-86796667D01*
X166774762Y-86891905D01*
X166727143Y-86939524D01*
X166219143Y-99194857D02*
X166266762Y-99242476D01*
X166314381Y-99385333D01*
X166314381Y-99480571D01*
X166266762Y-99623429D01*
X166171524Y-99718667D01*
X166076286Y-99766286D01*
X165885810Y-99813905D01*
X165742952Y-99813905D01*
X165552476Y-99766286D01*
X165457238Y-99718667D01*
X165362000Y-99623429D01*
X165314381Y-99480571D01*
X165314381Y-99385333D01*
X165362000Y-99242476D01*
X165409619Y-99194857D01*
X165314381Y-98861524D02*
X165314381Y-98242476D01*
X165695333Y-98575810D01*
X165695333Y-98432952D01*
X165742952Y-98337714D01*
X165790571Y-98290095D01*
X165885810Y-98242476D01*
X166123905Y-98242476D01*
X166219143Y-98290095D01*
X166266762Y-98337714D01*
X166314381Y-98432952D01*
X166314381Y-98718667D01*
X166266762Y-98813905D01*
X166219143Y-98861524D01*
X165314381Y-97385333D02*
X165314381Y-97575810D01*
X165362000Y-97671048D01*
X165409619Y-97718667D01*
X165552476Y-97813905D01*
X165742952Y-97861524D01*
X166123905Y-97861524D01*
X166219143Y-97813905D01*
X166266762Y-97766286D01*
X166314381Y-97671048D01*
X166314381Y-97480571D01*
X166266762Y-97385333D01*
X166219143Y-97337714D01*
X166123905Y-97290095D01*
X165885810Y-97290095D01*
X165790571Y-97337714D01*
X165742952Y-97385333D01*
X165695333Y-97480571D01*
X165695333Y-97671048D01*
X165742952Y-97766286D01*
X165790571Y-97813905D01*
X165885810Y-97861524D01*
X165711143Y-110370857D02*
X165758762Y-110418476D01*
X165806381Y-110561333D01*
X165806381Y-110656571D01*
X165758762Y-110799429D01*
X165663524Y-110894667D01*
X165568286Y-110942286D01*
X165377810Y-110989905D01*
X165234952Y-110989905D01*
X165044476Y-110942286D01*
X164949238Y-110894667D01*
X164854000Y-110799429D01*
X164806381Y-110656571D01*
X164806381Y-110561333D01*
X164854000Y-110418476D01*
X164901619Y-110370857D01*
X164806381Y-110037524D02*
X164806381Y-109418476D01*
X165187333Y-109751810D01*
X165187333Y-109608952D01*
X165234952Y-109513714D01*
X165282571Y-109466095D01*
X165377810Y-109418476D01*
X165615905Y-109418476D01*
X165711143Y-109466095D01*
X165758762Y-109513714D01*
X165806381Y-109608952D01*
X165806381Y-109894667D01*
X165758762Y-109989905D01*
X165711143Y-110037524D01*
X164806381Y-109085143D02*
X164806381Y-108418476D01*
X165806381Y-108847048D01*
X165711143Y-121292857D02*
X165758762Y-121340476D01*
X165806381Y-121483333D01*
X165806381Y-121578571D01*
X165758762Y-121721429D01*
X165663524Y-121816667D01*
X165568286Y-121864286D01*
X165377810Y-121911905D01*
X165234952Y-121911905D01*
X165044476Y-121864286D01*
X164949238Y-121816667D01*
X164854000Y-121721429D01*
X164806381Y-121578571D01*
X164806381Y-121483333D01*
X164854000Y-121340476D01*
X164901619Y-121292857D01*
X164806381Y-120959524D02*
X164806381Y-120340476D01*
X165187333Y-120673810D01*
X165187333Y-120530952D01*
X165234952Y-120435714D01*
X165282571Y-120388095D01*
X165377810Y-120340476D01*
X165615905Y-120340476D01*
X165711143Y-120388095D01*
X165758762Y-120435714D01*
X165806381Y-120530952D01*
X165806381Y-120816667D01*
X165758762Y-120911905D01*
X165711143Y-120959524D01*
X165234952Y-119769048D02*
X165187333Y-119864286D01*
X165139714Y-119911905D01*
X165044476Y-119959524D01*
X164996857Y-119959524D01*
X164901619Y-119911905D01*
X164854000Y-119864286D01*
X164806381Y-119769048D01*
X164806381Y-119578571D01*
X164854000Y-119483333D01*
X164901619Y-119435714D01*
X164996857Y-119388095D01*
X165044476Y-119388095D01*
X165139714Y-119435714D01*
X165187333Y-119483333D01*
X165234952Y-119578571D01*
X165234952Y-119769048D01*
X165282571Y-119864286D01*
X165330190Y-119911905D01*
X165425429Y-119959524D01*
X165615905Y-119959524D01*
X165711143Y-119911905D01*
X165758762Y-119864286D01*
X165806381Y-119769048D01*
X165806381Y-119578571D01*
X165758762Y-119483333D01*
X165711143Y-119435714D01*
X165615905Y-119388095D01*
X165425429Y-119388095D01*
X165330190Y-119435714D01*
X165282571Y-119483333D01*
X165234952Y-119578571D01*
X164584143Y-64111143D02*
X164536524Y-64158762D01*
X164393667Y-64206381D01*
X164298429Y-64206381D01*
X164155571Y-64158762D01*
X164060333Y-64063524D01*
X164012714Y-63968286D01*
X163965095Y-63777810D01*
X163965095Y-63634952D01*
X164012714Y-63444476D01*
X164060333Y-63349238D01*
X164155571Y-63254000D01*
X164298429Y-63206381D01*
X164393667Y-63206381D01*
X164536524Y-63254000D01*
X164584143Y-63301619D01*
X164917476Y-63206381D02*
X165536524Y-63206381D01*
X165203190Y-63587333D01*
X165346048Y-63587333D01*
X165441286Y-63634952D01*
X165488905Y-63682571D01*
X165536524Y-63777810D01*
X165536524Y-64015905D01*
X165488905Y-64111143D01*
X165441286Y-64158762D01*
X165346048Y-64206381D01*
X165060333Y-64206381D01*
X164965095Y-64158762D01*
X164917476Y-64111143D01*
X166012714Y-64206381D02*
X166203190Y-64206381D01*
X166298429Y-64158762D01*
X166346048Y-64111143D01*
X166441286Y-63968286D01*
X166488905Y-63777810D01*
X166488905Y-63396857D01*
X166441286Y-63301619D01*
X166393667Y-63254000D01*
X166298429Y-63206381D01*
X166107952Y-63206381D01*
X166012714Y-63254000D01*
X165965095Y-63301619D01*
X165917476Y-63396857D01*
X165917476Y-63634952D01*
X165965095Y-63730190D01*
X166012714Y-63777810D01*
X166107952Y-63825429D01*
X166298429Y-63825429D01*
X166393667Y-63777810D01*
X166441286Y-63730190D01*
X166488905Y-63634952D01*
X164457143Y-74271143D02*
X164409524Y-74318762D01*
X164266667Y-74366381D01*
X164171429Y-74366381D01*
X164028571Y-74318762D01*
X163933333Y-74223524D01*
X163885714Y-74128286D01*
X163838095Y-73937810D01*
X163838095Y-73794952D01*
X163885714Y-73604476D01*
X163933333Y-73509238D01*
X164028571Y-73414000D01*
X164171429Y-73366381D01*
X164266667Y-73366381D01*
X164409524Y-73414000D01*
X164457143Y-73461619D01*
X165314286Y-73699714D02*
X165314286Y-74366381D01*
X165076190Y-73318762D02*
X164838095Y-74033048D01*
X165457143Y-74033048D01*
X166028571Y-73366381D02*
X166123810Y-73366381D01*
X166219048Y-73414000D01*
X166266667Y-73461619D01*
X166314286Y-73556857D01*
X166361905Y-73747333D01*
X166361905Y-73985429D01*
X166314286Y-74175905D01*
X166266667Y-74271143D01*
X166219048Y-74318762D01*
X166123810Y-74366381D01*
X166028571Y-74366381D01*
X165933333Y-74318762D01*
X165885714Y-74271143D01*
X165838095Y-74175905D01*
X165790476Y-73985429D01*
X165790476Y-73747333D01*
X165838095Y-73556857D01*
X165885714Y-73461619D01*
X165933333Y-73414000D01*
X166028571Y-73366381D01*
X164457143Y-85447143D02*
X164409524Y-85494762D01*
X164266667Y-85542381D01*
X164171429Y-85542381D01*
X164028571Y-85494762D01*
X163933333Y-85399524D01*
X163885714Y-85304286D01*
X163838095Y-85113810D01*
X163838095Y-84970952D01*
X163885714Y-84780476D01*
X163933333Y-84685238D01*
X164028571Y-84590000D01*
X164171429Y-84542381D01*
X164266667Y-84542381D01*
X164409524Y-84590000D01*
X164457143Y-84637619D01*
X165314286Y-84875714D02*
X165314286Y-85542381D01*
X165076190Y-84494762D02*
X164838095Y-85209048D01*
X165457143Y-85209048D01*
X166361905Y-85542381D02*
X165790476Y-85542381D01*
X166076190Y-85542381D02*
X166076190Y-84542381D01*
X165980952Y-84685238D01*
X165885714Y-84780476D01*
X165790476Y-84828095D01*
X164711143Y-96369143D02*
X164663524Y-96416762D01*
X164520667Y-96464381D01*
X164425429Y-96464381D01*
X164282571Y-96416762D01*
X164187333Y-96321524D01*
X164139714Y-96226286D01*
X164092095Y-96035810D01*
X164092095Y-95892952D01*
X164139714Y-95702476D01*
X164187333Y-95607238D01*
X164282571Y-95512000D01*
X164425429Y-95464381D01*
X164520667Y-95464381D01*
X164663524Y-95512000D01*
X164711143Y-95559619D01*
X165568286Y-95797714D02*
X165568286Y-96464381D01*
X165330190Y-95416762D02*
X165092095Y-96131048D01*
X165711143Y-96131048D01*
X166044476Y-95559619D02*
X166092095Y-95512000D01*
X166187333Y-95464381D01*
X166425429Y-95464381D01*
X166520667Y-95512000D01*
X166568286Y-95559619D01*
X166615905Y-95654857D01*
X166615905Y-95750095D01*
X166568286Y-95892952D01*
X165996857Y-96464381D01*
X166615905Y-96464381D01*
X164711143Y-107291143D02*
X164663524Y-107338762D01*
X164520667Y-107386381D01*
X164425429Y-107386381D01*
X164282571Y-107338762D01*
X164187333Y-107243524D01*
X164139714Y-107148286D01*
X164092095Y-106957810D01*
X164092095Y-106814952D01*
X164139714Y-106624476D01*
X164187333Y-106529238D01*
X164282571Y-106434000D01*
X164425429Y-106386381D01*
X164520667Y-106386381D01*
X164663524Y-106434000D01*
X164711143Y-106481619D01*
X165568286Y-106719714D02*
X165568286Y-107386381D01*
X165330190Y-106338762D02*
X165092095Y-107053048D01*
X165711143Y-107053048D01*
X165996857Y-106386381D02*
X166615905Y-106386381D01*
X166282571Y-106767333D01*
X166425429Y-106767333D01*
X166520667Y-106814952D01*
X166568286Y-106862571D01*
X166615905Y-106957810D01*
X166615905Y-107195905D01*
X166568286Y-107291143D01*
X166520667Y-107338762D01*
X166425429Y-107386381D01*
X166139714Y-107386381D01*
X166044476Y-107338762D01*
X165996857Y-107291143D01*
X164711143Y-118213143D02*
X164663524Y-118260762D01*
X164520667Y-118308381D01*
X164425429Y-118308381D01*
X164282571Y-118260762D01*
X164187333Y-118165524D01*
X164139714Y-118070286D01*
X164092095Y-117879810D01*
X164092095Y-117736952D01*
X164139714Y-117546476D01*
X164187333Y-117451238D01*
X164282571Y-117356000D01*
X164425429Y-117308381D01*
X164520667Y-117308381D01*
X164663524Y-117356000D01*
X164711143Y-117403619D01*
X165568286Y-117641714D02*
X165568286Y-118308381D01*
X165330190Y-117260762D02*
X165092095Y-117975048D01*
X165711143Y-117975048D01*
X166520667Y-117641714D02*
X166520667Y-118308381D01*
X166282571Y-117260762D02*
X166044476Y-117975048D01*
X166663524Y-117975048D01*
X166219143Y-58808857D02*
X166266762Y-58856476D01*
X166314381Y-58999333D01*
X166314381Y-59094571D01*
X166266762Y-59237429D01*
X166171524Y-59332667D01*
X166076286Y-59380286D01*
X165885810Y-59427905D01*
X165742952Y-59427905D01*
X165552476Y-59380286D01*
X165457238Y-59332667D01*
X165362000Y-59237429D01*
X165314381Y-59094571D01*
X165314381Y-58999333D01*
X165362000Y-58856476D01*
X165409619Y-58808857D01*
X165647714Y-57951714D02*
X166314381Y-57951714D01*
X165266762Y-58189810D02*
X165981048Y-58427905D01*
X165981048Y-57808857D01*
X165314381Y-56951714D02*
X165314381Y-57427905D01*
X165790571Y-57475524D01*
X165742952Y-57427905D01*
X165695333Y-57332667D01*
X165695333Y-57094571D01*
X165742952Y-56999333D01*
X165790571Y-56951714D01*
X165885810Y-56904095D01*
X166123905Y-56904095D01*
X166219143Y-56951714D01*
X166266762Y-56999333D01*
X166314381Y-57094571D01*
X166314381Y-57332667D01*
X166266762Y-57427905D01*
X166219143Y-57475524D01*
X166219143Y-69730857D02*
X166266762Y-69778476D01*
X166314381Y-69921333D01*
X166314381Y-70016571D01*
X166266762Y-70159429D01*
X166171524Y-70254667D01*
X166076286Y-70302286D01*
X165885810Y-70349905D01*
X165742952Y-70349905D01*
X165552476Y-70302286D01*
X165457238Y-70254667D01*
X165362000Y-70159429D01*
X165314381Y-70016571D01*
X165314381Y-69921333D01*
X165362000Y-69778476D01*
X165409619Y-69730857D01*
X165647714Y-68873714D02*
X166314381Y-68873714D01*
X165266762Y-69111810D02*
X165981048Y-69349905D01*
X165981048Y-68730857D01*
X165314381Y-67921333D02*
X165314381Y-68111810D01*
X165362000Y-68207048D01*
X165409619Y-68254667D01*
X165552476Y-68349905D01*
X165742952Y-68397524D01*
X166123905Y-68397524D01*
X166219143Y-68349905D01*
X166266762Y-68302286D01*
X166314381Y-68207048D01*
X166314381Y-68016571D01*
X166266762Y-67921333D01*
X166219143Y-67873714D01*
X166123905Y-67826095D01*
X165885810Y-67826095D01*
X165790571Y-67873714D01*
X165742952Y-67921333D01*
X165695333Y-68016571D01*
X165695333Y-68207048D01*
X165742952Y-68302286D01*
X165790571Y-68349905D01*
X165885810Y-68397524D01*
X165965143Y-80144857D02*
X166012762Y-80192476D01*
X166060381Y-80335333D01*
X166060381Y-80430571D01*
X166012762Y-80573429D01*
X165917524Y-80668667D01*
X165822286Y-80716286D01*
X165631810Y-80763905D01*
X165488952Y-80763905D01*
X165298476Y-80716286D01*
X165203238Y-80668667D01*
X165108000Y-80573429D01*
X165060381Y-80430571D01*
X165060381Y-80335333D01*
X165108000Y-80192476D01*
X165155619Y-80144857D01*
X165393714Y-79287714D02*
X166060381Y-79287714D01*
X165012762Y-79525810D02*
X165727048Y-79763905D01*
X165727048Y-79144857D01*
X165060381Y-78859143D02*
X165060381Y-78192476D01*
X166060381Y-78621048D01*
X165965143Y-91320857D02*
X166012762Y-91368476D01*
X166060381Y-91511333D01*
X166060381Y-91606571D01*
X166012762Y-91749429D01*
X165917524Y-91844667D01*
X165822286Y-91892286D01*
X165631810Y-91939905D01*
X165488952Y-91939905D01*
X165298476Y-91892286D01*
X165203238Y-91844667D01*
X165108000Y-91749429D01*
X165060381Y-91606571D01*
X165060381Y-91511333D01*
X165108000Y-91368476D01*
X165155619Y-91320857D01*
X165393714Y-90463714D02*
X166060381Y-90463714D01*
X165012762Y-90701810D02*
X165727048Y-90939905D01*
X165727048Y-90320857D01*
X165488952Y-89797048D02*
X165441333Y-89892286D01*
X165393714Y-89939905D01*
X165298476Y-89987524D01*
X165250857Y-89987524D01*
X165155619Y-89939905D01*
X165108000Y-89892286D01*
X165060381Y-89797048D01*
X165060381Y-89606571D01*
X165108000Y-89511333D01*
X165155619Y-89463714D01*
X165250857Y-89416095D01*
X165298476Y-89416095D01*
X165393714Y-89463714D01*
X165441333Y-89511333D01*
X165488952Y-89606571D01*
X165488952Y-89797048D01*
X165536571Y-89892286D01*
X165584190Y-89939905D01*
X165679429Y-89987524D01*
X165869905Y-89987524D01*
X165965143Y-89939905D01*
X166012762Y-89892286D01*
X166060381Y-89797048D01*
X166060381Y-89606571D01*
X166012762Y-89511333D01*
X165965143Y-89463714D01*
X165869905Y-89416095D01*
X165679429Y-89416095D01*
X165584190Y-89463714D01*
X165536571Y-89511333D01*
X165488952Y-89606571D01*
X166219143Y-102242857D02*
X166266762Y-102290476D01*
X166314381Y-102433333D01*
X166314381Y-102528571D01*
X166266762Y-102671429D01*
X166171524Y-102766667D01*
X166076286Y-102814286D01*
X165885810Y-102861905D01*
X165742952Y-102861905D01*
X165552476Y-102814286D01*
X165457238Y-102766667D01*
X165362000Y-102671429D01*
X165314381Y-102528571D01*
X165314381Y-102433333D01*
X165362000Y-102290476D01*
X165409619Y-102242857D01*
X165647714Y-101385714D02*
X166314381Y-101385714D01*
X165266762Y-101623810D02*
X165981048Y-101861905D01*
X165981048Y-101242857D01*
X166314381Y-100814286D02*
X166314381Y-100623810D01*
X166266762Y-100528571D01*
X166219143Y-100480952D01*
X166076286Y-100385714D01*
X165885810Y-100338095D01*
X165504857Y-100338095D01*
X165409619Y-100385714D01*
X165362000Y-100433333D01*
X165314381Y-100528571D01*
X165314381Y-100719048D01*
X165362000Y-100814286D01*
X165409619Y-100861905D01*
X165504857Y-100909524D01*
X165742952Y-100909524D01*
X165838190Y-100861905D01*
X165885810Y-100814286D01*
X165933429Y-100719048D01*
X165933429Y-100528571D01*
X165885810Y-100433333D01*
X165838190Y-100385714D01*
X165742952Y-100338095D01*
X165965143Y-113164857D02*
X166012762Y-113212476D01*
X166060381Y-113355333D01*
X166060381Y-113450571D01*
X166012762Y-113593429D01*
X165917524Y-113688667D01*
X165822286Y-113736286D01*
X165631810Y-113783905D01*
X165488952Y-113783905D01*
X165298476Y-113736286D01*
X165203238Y-113688667D01*
X165108000Y-113593429D01*
X165060381Y-113450571D01*
X165060381Y-113355333D01*
X165108000Y-113212476D01*
X165155619Y-113164857D01*
X165060381Y-112260095D02*
X165060381Y-112736286D01*
X165536571Y-112783905D01*
X165488952Y-112736286D01*
X165441333Y-112641048D01*
X165441333Y-112402952D01*
X165488952Y-112307714D01*
X165536571Y-112260095D01*
X165631810Y-112212476D01*
X165869905Y-112212476D01*
X165965143Y-112260095D01*
X166012762Y-112307714D01*
X166060381Y-112402952D01*
X166060381Y-112641048D01*
X166012762Y-112736286D01*
X165965143Y-112783905D01*
X165060381Y-111593429D02*
X165060381Y-111498190D01*
X165108000Y-111402952D01*
X165155619Y-111355333D01*
X165250857Y-111307714D01*
X165441333Y-111260095D01*
X165679429Y-111260095D01*
X165869905Y-111307714D01*
X165965143Y-111355333D01*
X166012762Y-111402952D01*
X166060381Y-111498190D01*
X166060381Y-111593429D01*
X166012762Y-111688667D01*
X165965143Y-111736286D01*
X165869905Y-111783905D01*
X165679429Y-111831524D01*
X165441333Y-111831524D01*
X165250857Y-111783905D01*
X165155619Y-111736286D01*
X165108000Y-111688667D01*
X165060381Y-111593429D01*
X171569143Y-61571143D02*
X171521524Y-61618762D01*
X171378667Y-61666381D01*
X171283429Y-61666381D01*
X171140571Y-61618762D01*
X171045333Y-61523524D01*
X170997714Y-61428286D01*
X170950095Y-61237810D01*
X170950095Y-61094952D01*
X170997714Y-60904476D01*
X171045333Y-60809238D01*
X171140571Y-60714000D01*
X171283429Y-60666381D01*
X171378667Y-60666381D01*
X171521524Y-60714000D01*
X171569143Y-60761619D01*
X172473905Y-60666381D02*
X171997714Y-60666381D01*
X171950095Y-61142571D01*
X171997714Y-61094952D01*
X172092952Y-61047333D01*
X172331048Y-61047333D01*
X172426286Y-61094952D01*
X172473905Y-61142571D01*
X172521524Y-61237810D01*
X172521524Y-61475905D01*
X172473905Y-61571143D01*
X172426286Y-61618762D01*
X172331048Y-61666381D01*
X172092952Y-61666381D01*
X171997714Y-61618762D01*
X171950095Y-61571143D01*
X173473905Y-61666381D02*
X172902476Y-61666381D01*
X173188190Y-61666381D02*
X173188190Y-60666381D01*
X173092952Y-60809238D01*
X172997714Y-60904476D01*
X172902476Y-60952095D01*
X172077143Y-72493143D02*
X172029524Y-72540762D01*
X171886667Y-72588381D01*
X171791429Y-72588381D01*
X171648571Y-72540762D01*
X171553333Y-72445524D01*
X171505714Y-72350286D01*
X171458095Y-72159810D01*
X171458095Y-72016952D01*
X171505714Y-71826476D01*
X171553333Y-71731238D01*
X171648571Y-71636000D01*
X171791429Y-71588381D01*
X171886667Y-71588381D01*
X172029524Y-71636000D01*
X172077143Y-71683619D01*
X172981905Y-71588381D02*
X172505714Y-71588381D01*
X172458095Y-72064571D01*
X172505714Y-72016952D01*
X172600952Y-71969333D01*
X172839048Y-71969333D01*
X172934286Y-72016952D01*
X172981905Y-72064571D01*
X173029524Y-72159810D01*
X173029524Y-72397905D01*
X172981905Y-72493143D01*
X172934286Y-72540762D01*
X172839048Y-72588381D01*
X172600952Y-72588381D01*
X172505714Y-72540762D01*
X172458095Y-72493143D01*
X173410476Y-71683619D02*
X173458095Y-71636000D01*
X173553333Y-71588381D01*
X173791429Y-71588381D01*
X173886667Y-71636000D01*
X173934286Y-71683619D01*
X173981905Y-71778857D01*
X173981905Y-71874095D01*
X173934286Y-72016952D01*
X173362857Y-72588381D01*
X173981905Y-72588381D01*
X172077143Y-83161143D02*
X172029524Y-83208762D01*
X171886667Y-83256381D01*
X171791429Y-83256381D01*
X171648571Y-83208762D01*
X171553333Y-83113524D01*
X171505714Y-83018286D01*
X171458095Y-82827810D01*
X171458095Y-82684952D01*
X171505714Y-82494476D01*
X171553333Y-82399238D01*
X171648571Y-82304000D01*
X171791429Y-82256381D01*
X171886667Y-82256381D01*
X172029524Y-82304000D01*
X172077143Y-82351619D01*
X172981905Y-82256381D02*
X172505714Y-82256381D01*
X172458095Y-82732571D01*
X172505714Y-82684952D01*
X172600952Y-82637333D01*
X172839048Y-82637333D01*
X172934286Y-82684952D01*
X172981905Y-82732571D01*
X173029524Y-82827810D01*
X173029524Y-83065905D01*
X172981905Y-83161143D01*
X172934286Y-83208762D01*
X172839048Y-83256381D01*
X172600952Y-83256381D01*
X172505714Y-83208762D01*
X172458095Y-83161143D01*
X173362857Y-82256381D02*
X173981905Y-82256381D01*
X173648571Y-82637333D01*
X173791429Y-82637333D01*
X173886667Y-82684952D01*
X173934286Y-82732571D01*
X173981905Y-82827810D01*
X173981905Y-83065905D01*
X173934286Y-83161143D01*
X173886667Y-83208762D01*
X173791429Y-83256381D01*
X173505714Y-83256381D01*
X173410476Y-83208762D01*
X173362857Y-83161143D01*
X172077143Y-94083143D02*
X172029524Y-94130762D01*
X171886667Y-94178381D01*
X171791429Y-94178381D01*
X171648571Y-94130762D01*
X171553333Y-94035524D01*
X171505714Y-93940286D01*
X171458095Y-93749810D01*
X171458095Y-93606952D01*
X171505714Y-93416476D01*
X171553333Y-93321238D01*
X171648571Y-93226000D01*
X171791429Y-93178381D01*
X171886667Y-93178381D01*
X172029524Y-93226000D01*
X172077143Y-93273619D01*
X172981905Y-93178381D02*
X172505714Y-93178381D01*
X172458095Y-93654571D01*
X172505714Y-93606952D01*
X172600952Y-93559333D01*
X172839048Y-93559333D01*
X172934286Y-93606952D01*
X172981905Y-93654571D01*
X173029524Y-93749810D01*
X173029524Y-93987905D01*
X172981905Y-94083143D01*
X172934286Y-94130762D01*
X172839048Y-94178381D01*
X172600952Y-94178381D01*
X172505714Y-94130762D01*
X172458095Y-94083143D01*
X173886667Y-93511714D02*
X173886667Y-94178381D01*
X173648571Y-93130762D02*
X173410476Y-93845048D01*
X174029524Y-93845048D01*
X172077143Y-105005143D02*
X172029524Y-105052762D01*
X171886667Y-105100381D01*
X171791429Y-105100381D01*
X171648571Y-105052762D01*
X171553333Y-104957524D01*
X171505714Y-104862286D01*
X171458095Y-104671810D01*
X171458095Y-104528952D01*
X171505714Y-104338476D01*
X171553333Y-104243238D01*
X171648571Y-104148000D01*
X171791429Y-104100381D01*
X171886667Y-104100381D01*
X172029524Y-104148000D01*
X172077143Y-104195619D01*
X172981905Y-104100381D02*
X172505714Y-104100381D01*
X172458095Y-104576571D01*
X172505714Y-104528952D01*
X172600952Y-104481333D01*
X172839048Y-104481333D01*
X172934286Y-104528952D01*
X172981905Y-104576571D01*
X173029524Y-104671810D01*
X173029524Y-104909905D01*
X172981905Y-105005143D01*
X172934286Y-105052762D01*
X172839048Y-105100381D01*
X172600952Y-105100381D01*
X172505714Y-105052762D01*
X172458095Y-105005143D01*
X173934286Y-104100381D02*
X173458095Y-104100381D01*
X173410476Y-104576571D01*
X173458095Y-104528952D01*
X173553333Y-104481333D01*
X173791429Y-104481333D01*
X173886667Y-104528952D01*
X173934286Y-104576571D01*
X173981905Y-104671810D01*
X173981905Y-104909905D01*
X173934286Y-105005143D01*
X173886667Y-105052762D01*
X173791429Y-105100381D01*
X173553333Y-105100381D01*
X173458095Y-105052762D01*
X173410476Y-105005143D01*
X172331143Y-115419143D02*
X172283524Y-115466762D01*
X172140667Y-115514381D01*
X172045429Y-115514381D01*
X171902571Y-115466762D01*
X171807333Y-115371524D01*
X171759714Y-115276286D01*
X171712095Y-115085810D01*
X171712095Y-114942952D01*
X171759714Y-114752476D01*
X171807333Y-114657238D01*
X171902571Y-114562000D01*
X172045429Y-114514381D01*
X172140667Y-114514381D01*
X172283524Y-114562000D01*
X172331143Y-114609619D01*
X173235905Y-114514381D02*
X172759714Y-114514381D01*
X172712095Y-114990571D01*
X172759714Y-114942952D01*
X172854952Y-114895333D01*
X173093048Y-114895333D01*
X173188286Y-114942952D01*
X173235905Y-114990571D01*
X173283524Y-115085810D01*
X173283524Y-115323905D01*
X173235905Y-115419143D01*
X173188286Y-115466762D01*
X173093048Y-115514381D01*
X172854952Y-115514381D01*
X172759714Y-115466762D01*
X172712095Y-115419143D01*
X174140667Y-114514381D02*
X173950190Y-114514381D01*
X173854952Y-114562000D01*
X173807333Y-114609619D01*
X173712095Y-114752476D01*
X173664476Y-114942952D01*
X173664476Y-115323905D01*
X173712095Y-115419143D01*
X173759714Y-115466762D01*
X173854952Y-115514381D01*
X174045429Y-115514381D01*
X174140667Y-115466762D01*
X174188286Y-115419143D01*
X174235905Y-115323905D01*
X174235905Y-115085810D01*
X174188286Y-114990571D01*
X174140667Y-114942952D01*
X174045429Y-114895333D01*
X173854952Y-114895333D01*
X173759714Y-114942952D01*
X173712095Y-114990571D01*
X173664476Y-115085810D01*
X168759143Y-66682857D02*
X168806762Y-66730476D01*
X168854381Y-66873333D01*
X168854381Y-66968571D01*
X168806762Y-67111429D01*
X168711524Y-67206667D01*
X168616286Y-67254286D01*
X168425810Y-67301905D01*
X168282952Y-67301905D01*
X168092476Y-67254286D01*
X167997238Y-67206667D01*
X167902000Y-67111429D01*
X167854381Y-66968571D01*
X167854381Y-66873333D01*
X167902000Y-66730476D01*
X167949619Y-66682857D01*
X167854381Y-65778095D02*
X167854381Y-66254286D01*
X168330571Y-66301905D01*
X168282952Y-66254286D01*
X168235333Y-66159048D01*
X168235333Y-65920952D01*
X168282952Y-65825714D01*
X168330571Y-65778095D01*
X168425810Y-65730476D01*
X168663905Y-65730476D01*
X168759143Y-65778095D01*
X168806762Y-65825714D01*
X168854381Y-65920952D01*
X168854381Y-66159048D01*
X168806762Y-66254286D01*
X168759143Y-66301905D01*
X167854381Y-65397143D02*
X167854381Y-64730476D01*
X168854381Y-65159048D01*
X168759143Y-77096857D02*
X168806762Y-77144476D01*
X168854381Y-77287333D01*
X168854381Y-77382571D01*
X168806762Y-77525429D01*
X168711524Y-77620667D01*
X168616286Y-77668286D01*
X168425810Y-77715905D01*
X168282952Y-77715905D01*
X168092476Y-77668286D01*
X167997238Y-77620667D01*
X167902000Y-77525429D01*
X167854381Y-77382571D01*
X167854381Y-77287333D01*
X167902000Y-77144476D01*
X167949619Y-77096857D01*
X167854381Y-76192095D02*
X167854381Y-76668286D01*
X168330571Y-76715905D01*
X168282952Y-76668286D01*
X168235333Y-76573048D01*
X168235333Y-76334952D01*
X168282952Y-76239714D01*
X168330571Y-76192095D01*
X168425810Y-76144476D01*
X168663905Y-76144476D01*
X168759143Y-76192095D01*
X168806762Y-76239714D01*
X168854381Y-76334952D01*
X168854381Y-76573048D01*
X168806762Y-76668286D01*
X168759143Y-76715905D01*
X168282952Y-75573048D02*
X168235333Y-75668286D01*
X168187714Y-75715905D01*
X168092476Y-75763524D01*
X168044857Y-75763524D01*
X167949619Y-75715905D01*
X167902000Y-75668286D01*
X167854381Y-75573048D01*
X167854381Y-75382571D01*
X167902000Y-75287333D01*
X167949619Y-75239714D01*
X168044857Y-75192095D01*
X168092476Y-75192095D01*
X168187714Y-75239714D01*
X168235333Y-75287333D01*
X168282952Y-75382571D01*
X168282952Y-75573048D01*
X168330571Y-75668286D01*
X168378190Y-75715905D01*
X168473429Y-75763524D01*
X168663905Y-75763524D01*
X168759143Y-75715905D01*
X168806762Y-75668286D01*
X168854381Y-75573048D01*
X168854381Y-75382571D01*
X168806762Y-75287333D01*
X168759143Y-75239714D01*
X168663905Y-75192095D01*
X168473429Y-75192095D01*
X168378190Y-75239714D01*
X168330571Y-75287333D01*
X168282952Y-75382571D01*
X168759143Y-88272857D02*
X168806762Y-88320476D01*
X168854381Y-88463333D01*
X168854381Y-88558571D01*
X168806762Y-88701429D01*
X168711524Y-88796667D01*
X168616286Y-88844286D01*
X168425810Y-88891905D01*
X168282952Y-88891905D01*
X168092476Y-88844286D01*
X167997238Y-88796667D01*
X167902000Y-88701429D01*
X167854381Y-88558571D01*
X167854381Y-88463333D01*
X167902000Y-88320476D01*
X167949619Y-88272857D01*
X167854381Y-87368095D02*
X167854381Y-87844286D01*
X168330571Y-87891905D01*
X168282952Y-87844286D01*
X168235333Y-87749048D01*
X168235333Y-87510952D01*
X168282952Y-87415714D01*
X168330571Y-87368095D01*
X168425810Y-87320476D01*
X168663905Y-87320476D01*
X168759143Y-87368095D01*
X168806762Y-87415714D01*
X168854381Y-87510952D01*
X168854381Y-87749048D01*
X168806762Y-87844286D01*
X168759143Y-87891905D01*
X168854381Y-86844286D02*
X168854381Y-86653810D01*
X168806762Y-86558571D01*
X168759143Y-86510952D01*
X168616286Y-86415714D01*
X168425810Y-86368095D01*
X168044857Y-86368095D01*
X167949619Y-86415714D01*
X167902000Y-86463333D01*
X167854381Y-86558571D01*
X167854381Y-86749048D01*
X167902000Y-86844286D01*
X167949619Y-86891905D01*
X168044857Y-86939524D01*
X168282952Y-86939524D01*
X168378190Y-86891905D01*
X168425810Y-86844286D01*
X168473429Y-86749048D01*
X168473429Y-86558571D01*
X168425810Y-86463333D01*
X168378190Y-86415714D01*
X168282952Y-86368095D01*
X168759143Y-99194857D02*
X168806762Y-99242476D01*
X168854381Y-99385333D01*
X168854381Y-99480571D01*
X168806762Y-99623429D01*
X168711524Y-99718667D01*
X168616286Y-99766286D01*
X168425810Y-99813905D01*
X168282952Y-99813905D01*
X168092476Y-99766286D01*
X167997238Y-99718667D01*
X167902000Y-99623429D01*
X167854381Y-99480571D01*
X167854381Y-99385333D01*
X167902000Y-99242476D01*
X167949619Y-99194857D01*
X167854381Y-98337714D02*
X167854381Y-98528191D01*
X167902000Y-98623429D01*
X167949619Y-98671048D01*
X168092476Y-98766286D01*
X168282952Y-98813905D01*
X168663905Y-98813905D01*
X168759143Y-98766286D01*
X168806762Y-98718667D01*
X168854381Y-98623429D01*
X168854381Y-98432952D01*
X168806762Y-98337714D01*
X168759143Y-98290095D01*
X168663905Y-98242476D01*
X168425810Y-98242476D01*
X168330571Y-98290095D01*
X168282952Y-98337714D01*
X168235333Y-98432952D01*
X168235333Y-98623429D01*
X168282952Y-98718667D01*
X168330571Y-98766286D01*
X168425810Y-98813905D01*
X167854381Y-97623429D02*
X167854381Y-97528190D01*
X167902000Y-97432952D01*
X167949619Y-97385333D01*
X168044857Y-97337714D01*
X168235333Y-97290095D01*
X168473429Y-97290095D01*
X168663905Y-97337714D01*
X168759143Y-97385333D01*
X168806762Y-97432952D01*
X168854381Y-97528190D01*
X168854381Y-97623429D01*
X168806762Y-97718667D01*
X168759143Y-97766286D01*
X168663905Y-97813905D01*
X168473429Y-97861524D01*
X168235333Y-97861524D01*
X168044857Y-97813905D01*
X167949619Y-97766286D01*
X167902000Y-97718667D01*
X167854381Y-97623429D01*
X168759143Y-110116857D02*
X168806762Y-110164476D01*
X168854381Y-110307333D01*
X168854381Y-110402571D01*
X168806762Y-110545429D01*
X168711524Y-110640667D01*
X168616286Y-110688286D01*
X168425810Y-110735905D01*
X168282952Y-110735905D01*
X168092476Y-110688286D01*
X167997238Y-110640667D01*
X167902000Y-110545429D01*
X167854381Y-110402571D01*
X167854381Y-110307333D01*
X167902000Y-110164476D01*
X167949619Y-110116857D01*
X167854381Y-109259714D02*
X167854381Y-109450191D01*
X167902000Y-109545429D01*
X167949619Y-109593048D01*
X168092476Y-109688286D01*
X168282952Y-109735905D01*
X168663905Y-109735905D01*
X168759143Y-109688286D01*
X168806762Y-109640667D01*
X168854381Y-109545429D01*
X168854381Y-109354952D01*
X168806762Y-109259714D01*
X168759143Y-109212095D01*
X168663905Y-109164476D01*
X168425810Y-109164476D01*
X168330571Y-109212095D01*
X168282952Y-109259714D01*
X168235333Y-109354952D01*
X168235333Y-109545429D01*
X168282952Y-109640667D01*
X168330571Y-109688286D01*
X168425810Y-109735905D01*
X168854381Y-108212095D02*
X168854381Y-108783524D01*
X168854381Y-108497810D02*
X167854381Y-108497810D01*
X167997238Y-108593048D01*
X168092476Y-108688286D01*
X168140095Y-108783524D01*
X168759143Y-121038857D02*
X168806762Y-121086476D01*
X168854381Y-121229333D01*
X168854381Y-121324571D01*
X168806762Y-121467429D01*
X168711524Y-121562667D01*
X168616286Y-121610286D01*
X168425810Y-121657905D01*
X168282952Y-121657905D01*
X168092476Y-121610286D01*
X167997238Y-121562667D01*
X167902000Y-121467429D01*
X167854381Y-121324571D01*
X167854381Y-121229333D01*
X167902000Y-121086476D01*
X167949619Y-121038857D01*
X167854381Y-120181714D02*
X167854381Y-120372191D01*
X167902000Y-120467429D01*
X167949619Y-120515048D01*
X168092476Y-120610286D01*
X168282952Y-120657905D01*
X168663905Y-120657905D01*
X168759143Y-120610286D01*
X168806762Y-120562667D01*
X168854381Y-120467429D01*
X168854381Y-120276952D01*
X168806762Y-120181714D01*
X168759143Y-120134095D01*
X168663905Y-120086476D01*
X168425810Y-120086476D01*
X168330571Y-120134095D01*
X168282952Y-120181714D01*
X168235333Y-120276952D01*
X168235333Y-120467429D01*
X168282952Y-120562667D01*
X168330571Y-120610286D01*
X168425810Y-120657905D01*
X167949619Y-119705524D02*
X167902000Y-119657905D01*
X167854381Y-119562667D01*
X167854381Y-119324571D01*
X167902000Y-119229333D01*
X167949619Y-119181714D01*
X168044857Y-119134095D01*
X168140095Y-119134095D01*
X168282952Y-119181714D01*
X168854381Y-119753143D01*
X168854381Y-119134095D01*
X151546858Y-52240571D02*
X151546858Y-50740571D01*
X152404001Y-52240571D02*
X151761144Y-51383429D01*
X152404001Y-50740571D02*
X151546858Y-51597714D01*
X153832572Y-52240571D02*
X152975429Y-52240571D01*
X153404001Y-52240571D02*
X153404001Y-50740571D01*
X153261144Y-50954857D01*
X153118286Y-51097714D01*
X152975429Y-51169143D01*
X146720858Y-59860571D02*
X146720858Y-58360571D01*
X147578001Y-59860571D02*
X146935144Y-59003429D01*
X147578001Y-58360571D02*
X146720858Y-59217714D01*
X148149429Y-58503429D02*
X148220858Y-58432000D01*
X148363715Y-58360571D01*
X148720858Y-58360571D01*
X148863715Y-58432000D01*
X148935144Y-58503429D01*
X149006572Y-58646286D01*
X149006572Y-58789143D01*
X148935144Y-59003429D01*
X148078001Y-59860571D01*
X149006572Y-59860571D01*
X146720858Y-70782571D02*
X146720858Y-69282571D01*
X147578001Y-70782571D02*
X146935144Y-69925429D01*
X147578001Y-69282571D02*
X146720858Y-70139714D01*
X148078001Y-69282571D02*
X149006572Y-69282571D01*
X148506572Y-69854000D01*
X148720858Y-69854000D01*
X148863715Y-69925429D01*
X148935144Y-69996857D01*
X149006572Y-70139714D01*
X149006572Y-70496857D01*
X148935144Y-70639714D01*
X148863715Y-70711143D01*
X148720858Y-70782571D01*
X148292286Y-70782571D01*
X148149429Y-70711143D01*
X148078001Y-70639714D01*
X146720858Y-81704571D02*
X146720858Y-80204571D01*
X147578001Y-81704571D02*
X146935144Y-80847429D01*
X147578001Y-80204571D02*
X146720858Y-81061714D01*
X148863715Y-80704571D02*
X148863715Y-81704571D01*
X148506572Y-80133143D02*
X148149429Y-81204571D01*
X149078001Y-81204571D01*
X146720858Y-92626571D02*
X146720858Y-91126571D01*
X147578001Y-92626571D02*
X146935144Y-91769429D01*
X147578001Y-91126571D02*
X146720858Y-91983714D01*
X148935144Y-91126571D02*
X148220858Y-91126571D01*
X148149429Y-91840857D01*
X148220858Y-91769429D01*
X148363715Y-91698000D01*
X148720858Y-91698000D01*
X148863715Y-91769429D01*
X148935144Y-91840857D01*
X149006572Y-91983714D01*
X149006572Y-92340857D01*
X148935144Y-92483714D01*
X148863715Y-92555143D01*
X148720858Y-92626571D01*
X148363715Y-92626571D01*
X148220858Y-92555143D01*
X148149429Y-92483714D01*
X146720858Y-103548571D02*
X146720858Y-102048571D01*
X147578001Y-103548571D02*
X146935144Y-102691429D01*
X147578001Y-102048571D02*
X146720858Y-102905714D01*
X148863715Y-102048571D02*
X148578001Y-102048571D01*
X148435144Y-102120000D01*
X148363715Y-102191429D01*
X148220858Y-102405714D01*
X148149429Y-102691429D01*
X148149429Y-103262857D01*
X148220858Y-103405714D01*
X148292286Y-103477143D01*
X148435144Y-103548571D01*
X148720858Y-103548571D01*
X148863715Y-103477143D01*
X148935144Y-103405714D01*
X149006572Y-103262857D01*
X149006572Y-102905714D01*
X148935144Y-102762857D01*
X148863715Y-102691429D01*
X148720858Y-102620000D01*
X148435144Y-102620000D01*
X148292286Y-102691429D01*
X148220858Y-102762857D01*
X148149429Y-102905714D01*
X146720858Y-114470571D02*
X146720858Y-112970571D01*
X147578001Y-114470571D02*
X146935144Y-113613429D01*
X147578001Y-112970571D02*
X146720858Y-113827714D01*
X148078001Y-112970571D02*
X149078001Y-112970571D01*
X148435144Y-114470571D01*
X146720858Y-125900571D02*
X146720858Y-124400571D01*
X147578001Y-125900571D02*
X146935144Y-125043429D01*
X147578001Y-124400571D02*
X146720858Y-125257714D01*
X148435144Y-125043429D02*
X148292286Y-124972000D01*
X148220858Y-124900571D01*
X148149429Y-124757714D01*
X148149429Y-124686286D01*
X148220858Y-124543429D01*
X148292286Y-124472000D01*
X148435144Y-124400571D01*
X148720858Y-124400571D01*
X148863715Y-124472000D01*
X148935144Y-124543429D01*
X149006572Y-124686286D01*
X149006572Y-124757714D01*
X148935144Y-124900571D01*
X148863715Y-124972000D01*
X148720858Y-125043429D01*
X148435144Y-125043429D01*
X148292286Y-125114857D01*
X148220858Y-125186286D01*
X148149429Y-125329143D01*
X148149429Y-125614857D01*
X148220858Y-125757714D01*
X148292286Y-125829143D01*
X148435144Y-125900571D01*
X148720858Y-125900571D01*
X148863715Y-125829143D01*
X148935144Y-125757714D01*
X149006572Y-125614857D01*
X149006572Y-125329143D01*
X148935144Y-125186286D01*
X148863715Y-125114857D01*
X148720858Y-125043429D01*
X181772858Y-65448571D02*
X181772858Y-63948571D01*
X182630001Y-65448571D02*
X181987144Y-64591429D01*
X182630001Y-63948571D02*
X181772858Y-64805714D01*
X183344286Y-65448571D02*
X183630001Y-65448571D01*
X183772858Y-65377143D01*
X183844286Y-65305714D01*
X183987144Y-65091429D01*
X184058572Y-64805714D01*
X184058572Y-64234286D01*
X183987144Y-64091429D01*
X183915715Y-64020000D01*
X183772858Y-63948571D01*
X183487144Y-63948571D01*
X183344286Y-64020000D01*
X183272858Y-64091429D01*
X183201429Y-64234286D01*
X183201429Y-64591429D01*
X183272858Y-64734286D01*
X183344286Y-64805714D01*
X183487144Y-64877143D01*
X183772858Y-64877143D01*
X183915715Y-64805714D01*
X183987144Y-64734286D01*
X184058572Y-64591429D01*
X181058572Y-76370571D02*
X181058572Y-74870571D01*
X181915715Y-76370571D02*
X181272858Y-75513429D01*
X181915715Y-74870571D02*
X181058572Y-75727714D01*
X183344286Y-76370571D02*
X182487143Y-76370571D01*
X182915715Y-76370571D02*
X182915715Y-74870571D01*
X182772858Y-75084857D01*
X182630000Y-75227714D01*
X182487143Y-75299143D01*
X184272857Y-74870571D02*
X184415714Y-74870571D01*
X184558571Y-74942000D01*
X184630000Y-75013429D01*
X184701429Y-75156286D01*
X184772857Y-75442000D01*
X184772857Y-75799143D01*
X184701429Y-76084857D01*
X184630000Y-76227714D01*
X184558571Y-76299143D01*
X184415714Y-76370571D01*
X184272857Y-76370571D01*
X184130000Y-76299143D01*
X184058571Y-76227714D01*
X183987143Y-76084857D01*
X183915714Y-75799143D01*
X183915714Y-75442000D01*
X183987143Y-75156286D01*
X184058571Y-75013429D01*
X184130000Y-74942000D01*
X184272857Y-74870571D01*
X181058572Y-87292571D02*
X181058572Y-85792571D01*
X181915715Y-87292571D02*
X181272858Y-86435429D01*
X181915715Y-85792571D02*
X181058572Y-86649714D01*
X183344286Y-87292571D02*
X182487143Y-87292571D01*
X182915715Y-87292571D02*
X182915715Y-85792571D01*
X182772858Y-86006857D01*
X182630000Y-86149714D01*
X182487143Y-86221143D01*
X184772857Y-87292571D02*
X183915714Y-87292571D01*
X184344286Y-87292571D02*
X184344286Y-85792571D01*
X184201429Y-86006857D01*
X184058571Y-86149714D01*
X183915714Y-86221143D01*
X181058572Y-98214571D02*
X181058572Y-96714571D01*
X181915715Y-98214571D02*
X181272858Y-97357429D01*
X181915715Y-96714571D02*
X181058572Y-97571714D01*
X183344286Y-98214571D02*
X182487143Y-98214571D01*
X182915715Y-98214571D02*
X182915715Y-96714571D01*
X182772858Y-96928857D01*
X182630000Y-97071714D01*
X182487143Y-97143143D01*
X183915714Y-96857429D02*
X183987143Y-96786000D01*
X184130000Y-96714571D01*
X184487143Y-96714571D01*
X184630000Y-96786000D01*
X184701429Y-96857429D01*
X184772857Y-97000286D01*
X184772857Y-97143143D01*
X184701429Y-97357429D01*
X183844286Y-98214571D01*
X184772857Y-98214571D01*
X181058572Y-109136571D02*
X181058572Y-107636571D01*
X181915715Y-109136571D02*
X181272858Y-108279429D01*
X181915715Y-107636571D02*
X181058572Y-108493714D01*
X183344286Y-109136571D02*
X182487143Y-109136571D01*
X182915715Y-109136571D02*
X182915715Y-107636571D01*
X182772858Y-107850857D01*
X182630000Y-107993714D01*
X182487143Y-108065143D01*
X183844286Y-107636571D02*
X184772857Y-107636571D01*
X184272857Y-108208000D01*
X184487143Y-108208000D01*
X184630000Y-108279429D01*
X184701429Y-108350857D01*
X184772857Y-108493714D01*
X184772857Y-108850857D01*
X184701429Y-108993714D01*
X184630000Y-109065143D01*
X184487143Y-109136571D01*
X184058571Y-109136571D01*
X183915714Y-109065143D01*
X183844286Y-108993714D01*
X181058572Y-119804571D02*
X181058572Y-118304571D01*
X181915715Y-119804571D02*
X181272858Y-118947429D01*
X181915715Y-118304571D02*
X181058572Y-119161714D01*
X183344286Y-119804571D02*
X182487143Y-119804571D01*
X182915715Y-119804571D02*
X182915715Y-118304571D01*
X182772858Y-118518857D01*
X182630000Y-118661714D01*
X182487143Y-118733143D01*
X184630000Y-118804571D02*
X184630000Y-119804571D01*
X184272857Y-118233143D02*
X183915714Y-119304571D01*
X184844286Y-119304571D01*
X151407905Y-36520381D02*
X151407905Y-35520381D01*
X151788858Y-35520381D01*
X151884096Y-35568000D01*
X151931715Y-35615619D01*
X151979334Y-35710857D01*
X151979334Y-35853714D01*
X151931715Y-35948952D01*
X151884096Y-35996571D01*
X151788858Y-36044190D01*
X151407905Y-36044190D01*
X152884096Y-35520381D02*
X152407905Y-35520381D01*
X152360286Y-35996571D01*
X152407905Y-35948952D01*
X152503143Y-35901333D01*
X152741239Y-35901333D01*
X152836477Y-35948952D01*
X152884096Y-35996571D01*
X152931715Y-36091810D01*
X152931715Y-36329905D01*
X152884096Y-36425143D01*
X152836477Y-36472762D01*
X152741239Y-36520381D01*
X152503143Y-36520381D01*
X152407905Y-36472762D01*
X152360286Y-36425143D01*
X132865905Y-36266381D02*
X132865905Y-35266381D01*
X133246858Y-35266381D01*
X133342096Y-35314000D01*
X133389715Y-35361619D01*
X133437334Y-35456857D01*
X133437334Y-35599714D01*
X133389715Y-35694952D01*
X133342096Y-35742571D01*
X133246858Y-35790190D01*
X132865905Y-35790190D01*
X134294477Y-35266381D02*
X134104000Y-35266381D01*
X134008762Y-35314000D01*
X133961143Y-35361619D01*
X133865905Y-35504476D01*
X133818286Y-35694952D01*
X133818286Y-36075905D01*
X133865905Y-36171143D01*
X133913524Y-36218762D01*
X134008762Y-36266381D01*
X134199239Y-36266381D01*
X134294477Y-36218762D01*
X134342096Y-36171143D01*
X134389715Y-36075905D01*
X134389715Y-35837810D01*
X134342096Y-35742571D01*
X134294477Y-35694952D01*
X134199239Y-35647333D01*
X134008762Y-35647333D01*
X133913524Y-35694952D01*
X133865905Y-35742571D01*
X133818286Y-35837810D01*
X125634762Y-69635619D02*
X125539524Y-69588000D01*
X125444286Y-69492762D01*
X125301429Y-69349905D01*
X125206190Y-69302286D01*
X125110952Y-69302286D01*
X125158571Y-69540381D02*
X125063333Y-69492762D01*
X124968095Y-69397524D01*
X124920476Y-69207048D01*
X124920476Y-68873714D01*
X124968095Y-68683238D01*
X125063333Y-68588000D01*
X125158571Y-68540381D01*
X125349048Y-68540381D01*
X125444286Y-68588000D01*
X125539524Y-68683238D01*
X125587143Y-68873714D01*
X125587143Y-69207048D01*
X125539524Y-69397524D01*
X125444286Y-69492762D01*
X125349048Y-69540381D01*
X125158571Y-69540381D01*
X125968095Y-68635619D02*
X126015714Y-68588000D01*
X126110952Y-68540381D01*
X126349048Y-68540381D01*
X126444286Y-68588000D01*
X126491905Y-68635619D01*
X126539524Y-68730857D01*
X126539524Y-68826095D01*
X126491905Y-68968952D01*
X125920476Y-69540381D01*
X126539524Y-69540381D01*
X128389143Y-71572381D02*
X128055809Y-71096190D01*
X127817714Y-71572381D02*
X127817714Y-70572381D01*
X128198667Y-70572381D01*
X128293905Y-70620000D01*
X128341524Y-70667619D01*
X128389143Y-70762857D01*
X128389143Y-70905714D01*
X128341524Y-71000952D01*
X128293905Y-71048571D01*
X128198667Y-71096190D01*
X127817714Y-71096190D01*
X129341524Y-71572381D02*
X128770095Y-71572381D01*
X129055809Y-71572381D02*
X129055809Y-70572381D01*
X128960571Y-70715238D01*
X128865333Y-70810476D01*
X128770095Y-70858095D01*
X129674857Y-70572381D02*
X130341524Y-70572381D01*
X129912952Y-71572381D01*
X125222095Y-47688381D02*
X125793524Y-47688381D01*
X125507809Y-48688381D02*
X125507809Y-47688381D01*
X126650667Y-48688381D02*
X126079238Y-48688381D01*
X126364952Y-48688381D02*
X126364952Y-47688381D01*
X126269714Y-47831238D01*
X126174476Y-47926476D01*
X126079238Y-47974095D01*
X175347334Y-43124381D02*
X174871143Y-43124381D01*
X174871143Y-42124381D01*
X176204477Y-43124381D02*
X175633048Y-43124381D01*
X175918762Y-43124381D02*
X175918762Y-42124381D01*
X175823524Y-42267238D01*
X175728286Y-42362476D01*
X175633048Y-42410095D01*
X166568381Y-45378666D02*
X166568381Y-45854857D01*
X165568381Y-45854857D01*
X165663619Y-45092952D02*
X165616000Y-45045333D01*
X165568381Y-44950095D01*
X165568381Y-44711999D01*
X165616000Y-44616761D01*
X165663619Y-44569142D01*
X165758857Y-44521523D01*
X165854095Y-44521523D01*
X165996952Y-44569142D01*
X166568381Y-45140571D01*
X166568381Y-44521523D01*
X156408381Y-65190666D02*
X156408381Y-65666857D01*
X155408381Y-65666857D01*
X155741714Y-64428761D02*
X156408381Y-64428761D01*
X155360762Y-64666857D02*
X156075048Y-64904952D01*
X156075048Y-64285904D01*
X156408381Y-76620666D02*
X156408381Y-77096857D01*
X155408381Y-77096857D01*
X155408381Y-75811142D02*
X155408381Y-76287333D01*
X155884571Y-76334952D01*
X155836952Y-76287333D01*
X155789333Y-76192095D01*
X155789333Y-75953999D01*
X155836952Y-75858761D01*
X155884571Y-75811142D01*
X155979810Y-75763523D01*
X156217905Y-75763523D01*
X156313143Y-75811142D01*
X156360762Y-75858761D01*
X156408381Y-75953999D01*
X156408381Y-76192095D01*
X156360762Y-76287333D01*
X156313143Y-76334952D01*
X156408381Y-87542666D02*
X156408381Y-88018857D01*
X155408381Y-88018857D01*
X155408381Y-86780761D02*
X155408381Y-86971238D01*
X155456000Y-87066476D01*
X155503619Y-87114095D01*
X155646476Y-87209333D01*
X155836952Y-87256952D01*
X156217905Y-87256952D01*
X156313143Y-87209333D01*
X156360762Y-87161714D01*
X156408381Y-87066476D01*
X156408381Y-86875999D01*
X156360762Y-86780761D01*
X156313143Y-86733142D01*
X156217905Y-86685523D01*
X155979810Y-86685523D01*
X155884571Y-86733142D01*
X155836952Y-86780761D01*
X155789333Y-86875999D01*
X155789333Y-87066476D01*
X155836952Y-87161714D01*
X155884571Y-87209333D01*
X155979810Y-87256952D01*
X156408381Y-98718666D02*
X156408381Y-99194857D01*
X155408381Y-99194857D01*
X155408381Y-98480571D02*
X155408381Y-97813904D01*
X156408381Y-98242476D01*
X156408381Y-109386666D02*
X156408381Y-109862857D01*
X155408381Y-109862857D01*
X155836952Y-108910476D02*
X155789333Y-109005714D01*
X155741714Y-109053333D01*
X155646476Y-109100952D01*
X155598857Y-109100952D01*
X155503619Y-109053333D01*
X155456000Y-109005714D01*
X155408381Y-108910476D01*
X155408381Y-108719999D01*
X155456000Y-108624761D01*
X155503619Y-108577142D01*
X155598857Y-108529523D01*
X155646476Y-108529523D01*
X155741714Y-108577142D01*
X155789333Y-108624761D01*
X155836952Y-108719999D01*
X155836952Y-108910476D01*
X155884571Y-109005714D01*
X155932190Y-109053333D01*
X156027429Y-109100952D01*
X156217905Y-109100952D01*
X156313143Y-109053333D01*
X156360762Y-109005714D01*
X156408381Y-108910476D01*
X156408381Y-108719999D01*
X156360762Y-108624761D01*
X156313143Y-108577142D01*
X156217905Y-108529523D01*
X156027429Y-108529523D01*
X155932190Y-108577142D01*
X155884571Y-108624761D01*
X155836952Y-108719999D01*
X156408381Y-120308666D02*
X156408381Y-120784857D01*
X155408381Y-120784857D01*
X156408381Y-119927714D02*
X156408381Y-119737238D01*
X156360762Y-119641999D01*
X156313143Y-119594380D01*
X156170286Y-119499142D01*
X155979810Y-119451523D01*
X155598857Y-119451523D01*
X155503619Y-119499142D01*
X155456000Y-119546761D01*
X155408381Y-119641999D01*
X155408381Y-119832476D01*
X155456000Y-119927714D01*
X155503619Y-119975333D01*
X155598857Y-120022952D01*
X155836952Y-120022952D01*
X155932190Y-119975333D01*
X155979810Y-119927714D01*
X156027429Y-119832476D01*
X156027429Y-119641999D01*
X155979810Y-119546761D01*
X155932190Y-119499142D01*
X155836952Y-119451523D01*
X168267143Y-64206381D02*
X167790952Y-64206381D01*
X167790952Y-63206381D01*
X169124286Y-64206381D02*
X168552857Y-64206381D01*
X168838571Y-64206381D02*
X168838571Y-63206381D01*
X168743333Y-63349238D01*
X168648095Y-63444476D01*
X168552857Y-63492095D01*
X169743333Y-63206381D02*
X169838572Y-63206381D01*
X169933810Y-63254000D01*
X169981429Y-63301619D01*
X170029048Y-63396857D01*
X170076667Y-63587333D01*
X170076667Y-63825429D01*
X170029048Y-64015905D01*
X169981429Y-64111143D01*
X169933810Y-64158762D01*
X169838572Y-64206381D01*
X169743333Y-64206381D01*
X169648095Y-64158762D01*
X169600476Y-64111143D01*
X169552857Y-64015905D01*
X169505238Y-63825429D01*
X169505238Y-63587333D01*
X169552857Y-63396857D01*
X169600476Y-63301619D01*
X169648095Y-63254000D01*
X169743333Y-63206381D01*
X168521143Y-74366381D02*
X168044952Y-74366381D01*
X168044952Y-73366381D01*
X169378286Y-74366381D02*
X168806857Y-74366381D01*
X169092571Y-74366381D02*
X169092571Y-73366381D01*
X168997333Y-73509238D01*
X168902095Y-73604476D01*
X168806857Y-73652095D01*
X170330667Y-74366381D02*
X169759238Y-74366381D01*
X170044952Y-74366381D02*
X170044952Y-73366381D01*
X169949714Y-73509238D01*
X169854476Y-73604476D01*
X169759238Y-73652095D01*
X168267143Y-85542381D02*
X167790952Y-85542381D01*
X167790952Y-84542381D01*
X169124286Y-85542381D02*
X168552857Y-85542381D01*
X168838571Y-85542381D02*
X168838571Y-84542381D01*
X168743333Y-84685238D01*
X168648095Y-84780476D01*
X168552857Y-84828095D01*
X169505238Y-84637619D02*
X169552857Y-84590000D01*
X169648095Y-84542381D01*
X169886191Y-84542381D01*
X169981429Y-84590000D01*
X170029048Y-84637619D01*
X170076667Y-84732857D01*
X170076667Y-84828095D01*
X170029048Y-84970952D01*
X169457619Y-85542381D01*
X170076667Y-85542381D01*
X168267143Y-96464381D02*
X167790952Y-96464381D01*
X167790952Y-95464381D01*
X169124286Y-96464381D02*
X168552857Y-96464381D01*
X168838571Y-96464381D02*
X168838571Y-95464381D01*
X168743333Y-95607238D01*
X168648095Y-95702476D01*
X168552857Y-95750095D01*
X169457619Y-95464381D02*
X170076667Y-95464381D01*
X169743333Y-95845333D01*
X169886191Y-95845333D01*
X169981429Y-95892952D01*
X170029048Y-95940571D01*
X170076667Y-96035810D01*
X170076667Y-96273905D01*
X170029048Y-96369143D01*
X169981429Y-96416762D01*
X169886191Y-96464381D01*
X169600476Y-96464381D01*
X169505238Y-96416762D01*
X169457619Y-96369143D01*
X168267143Y-107386381D02*
X167790952Y-107386381D01*
X167790952Y-106386381D01*
X169124286Y-107386381D02*
X168552857Y-107386381D01*
X168838571Y-107386381D02*
X168838571Y-106386381D01*
X168743333Y-106529238D01*
X168648095Y-106624476D01*
X168552857Y-106672095D01*
X169981429Y-106719714D02*
X169981429Y-107386381D01*
X169743333Y-106338762D02*
X169505238Y-107053048D01*
X170124286Y-107053048D01*
X168267143Y-118308381D02*
X167790952Y-118308381D01*
X167790952Y-117308381D01*
X169124286Y-118308381D02*
X168552857Y-118308381D01*
X168838571Y-118308381D02*
X168838571Y-117308381D01*
X168743333Y-117451238D01*
X168648095Y-117546476D01*
X168552857Y-117594095D01*
X170029048Y-117308381D02*
X169552857Y-117308381D01*
X169505238Y-117784571D01*
X169552857Y-117736952D01*
X169648095Y-117689333D01*
X169886191Y-117689333D01*
X169981429Y-117736952D01*
X170029048Y-117784571D01*
X170076667Y-117879810D01*
X170076667Y-118117905D01*
X170029048Y-118213143D01*
X169981429Y-118260762D01*
X169886191Y-118308381D01*
X169648095Y-118308381D01*
X169552857Y-118260762D01*
X169505238Y-118213143D01*
X175458381Y-59316857D02*
X175458381Y-59793048D01*
X174458381Y-59793048D01*
X175458381Y-58459714D02*
X175458381Y-59031143D01*
X175458381Y-58745429D02*
X174458381Y-58745429D01*
X174601238Y-58840667D01*
X174696476Y-58935905D01*
X174744095Y-59031143D01*
X174458381Y-57602571D02*
X174458381Y-57793048D01*
X174506000Y-57888286D01*
X174553619Y-57935905D01*
X174696476Y-58031143D01*
X174886952Y-58078762D01*
X175267905Y-58078762D01*
X175363143Y-58031143D01*
X175410762Y-57983524D01*
X175458381Y-57888286D01*
X175458381Y-57697809D01*
X175410762Y-57602571D01*
X175363143Y-57554952D01*
X175267905Y-57507333D01*
X175029810Y-57507333D01*
X174934571Y-57554952D01*
X174886952Y-57602571D01*
X174839333Y-57697809D01*
X174839333Y-57888286D01*
X174886952Y-57983524D01*
X174934571Y-58031143D01*
X175029810Y-58078762D01*
X175458381Y-70492857D02*
X175458381Y-70969048D01*
X174458381Y-70969048D01*
X175458381Y-69635714D02*
X175458381Y-70207143D01*
X175458381Y-69921429D02*
X174458381Y-69921429D01*
X174601238Y-70016667D01*
X174696476Y-70111905D01*
X174744095Y-70207143D01*
X174458381Y-69302381D02*
X174458381Y-68635714D01*
X175458381Y-69064286D01*
X175204381Y-81414857D02*
X175204381Y-81891048D01*
X174204381Y-81891048D01*
X175204381Y-80557714D02*
X175204381Y-81129143D01*
X175204381Y-80843429D02*
X174204381Y-80843429D01*
X174347238Y-80938667D01*
X174442476Y-81033905D01*
X174490095Y-81129143D01*
X174632952Y-79986286D02*
X174585333Y-80081524D01*
X174537714Y-80129143D01*
X174442476Y-80176762D01*
X174394857Y-80176762D01*
X174299619Y-80129143D01*
X174252000Y-80081524D01*
X174204381Y-79986286D01*
X174204381Y-79795809D01*
X174252000Y-79700571D01*
X174299619Y-79652952D01*
X174394857Y-79605333D01*
X174442476Y-79605333D01*
X174537714Y-79652952D01*
X174585333Y-79700571D01*
X174632952Y-79795809D01*
X174632952Y-79986286D01*
X174680571Y-80081524D01*
X174728190Y-80129143D01*
X174823429Y-80176762D01*
X175013905Y-80176762D01*
X175109143Y-80129143D01*
X175156762Y-80081524D01*
X175204381Y-79986286D01*
X175204381Y-79795809D01*
X175156762Y-79700571D01*
X175109143Y-79652952D01*
X175013905Y-79605333D01*
X174823429Y-79605333D01*
X174728190Y-79652952D01*
X174680571Y-79700571D01*
X174632952Y-79795809D01*
X175458381Y-92082857D02*
X175458381Y-92559048D01*
X174458381Y-92559048D01*
X175458381Y-91225714D02*
X175458381Y-91797143D01*
X175458381Y-91511429D02*
X174458381Y-91511429D01*
X174601238Y-91606667D01*
X174696476Y-91701905D01*
X174744095Y-91797143D01*
X175458381Y-90749524D02*
X175458381Y-90559048D01*
X175410762Y-90463809D01*
X175363143Y-90416190D01*
X175220286Y-90320952D01*
X175029810Y-90273333D01*
X174648857Y-90273333D01*
X174553619Y-90320952D01*
X174506000Y-90368571D01*
X174458381Y-90463809D01*
X174458381Y-90654286D01*
X174506000Y-90749524D01*
X174553619Y-90797143D01*
X174648857Y-90844762D01*
X174886952Y-90844762D01*
X174982190Y-90797143D01*
X175029810Y-90749524D01*
X175077429Y-90654286D01*
X175077429Y-90463809D01*
X175029810Y-90368571D01*
X174982190Y-90320952D01*
X174886952Y-90273333D01*
X175458381Y-102750857D02*
X175458381Y-103227048D01*
X174458381Y-103227048D01*
X174553619Y-102465143D02*
X174506000Y-102417524D01*
X174458381Y-102322286D01*
X174458381Y-102084190D01*
X174506000Y-101988952D01*
X174553619Y-101941333D01*
X174648857Y-101893714D01*
X174744095Y-101893714D01*
X174886952Y-101941333D01*
X175458381Y-102512762D01*
X175458381Y-101893714D01*
X174458381Y-101274667D02*
X174458381Y-101179428D01*
X174506000Y-101084190D01*
X174553619Y-101036571D01*
X174648857Y-100988952D01*
X174839333Y-100941333D01*
X175077429Y-100941333D01*
X175267905Y-100988952D01*
X175363143Y-101036571D01*
X175410762Y-101084190D01*
X175458381Y-101179428D01*
X175458381Y-101274667D01*
X175410762Y-101369905D01*
X175363143Y-101417524D01*
X175267905Y-101465143D01*
X175077429Y-101512762D01*
X174839333Y-101512762D01*
X174648857Y-101465143D01*
X174553619Y-101417524D01*
X174506000Y-101369905D01*
X174458381Y-101274667D01*
X175204381Y-113418857D02*
X175204381Y-113895048D01*
X174204381Y-113895048D01*
X174299619Y-113133143D02*
X174252000Y-113085524D01*
X174204381Y-112990286D01*
X174204381Y-112752190D01*
X174252000Y-112656952D01*
X174299619Y-112609333D01*
X174394857Y-112561714D01*
X174490095Y-112561714D01*
X174632952Y-112609333D01*
X175204381Y-113180762D01*
X175204381Y-112561714D01*
X175204381Y-111609333D02*
X175204381Y-112180762D01*
X175204381Y-111895048D02*
X174204381Y-111895048D01*
X174347238Y-111990286D01*
X174442476Y-112085524D01*
X174490095Y-112180762D01*
X158107143Y-42775143D02*
X158059524Y-42822762D01*
X157916667Y-42870381D01*
X157821429Y-42870381D01*
X157678571Y-42822762D01*
X157583333Y-42727524D01*
X157535714Y-42632286D01*
X157488095Y-42441810D01*
X157488095Y-42298952D01*
X157535714Y-42108476D01*
X157583333Y-42013238D01*
X157678571Y-41918000D01*
X157821429Y-41870381D01*
X157916667Y-41870381D01*
X158059524Y-41918000D01*
X158107143Y-41965619D01*
X158964286Y-41870381D02*
X158773809Y-41870381D01*
X158678571Y-41918000D01*
X158630952Y-41965619D01*
X158535714Y-42108476D01*
X158488095Y-42298952D01*
X158488095Y-42679905D01*
X158535714Y-42775143D01*
X158583333Y-42822762D01*
X158678571Y-42870381D01*
X158869048Y-42870381D01*
X158964286Y-42822762D01*
X159011905Y-42775143D01*
X159059524Y-42679905D01*
X159059524Y-42441810D01*
X159011905Y-42346571D01*
X158964286Y-42298952D01*
X158869048Y-42251333D01*
X158678571Y-42251333D01*
X158583333Y-42298952D01*
X158535714Y-42346571D01*
X158488095Y-42441810D01*
X159392857Y-41870381D02*
X160011905Y-41870381D01*
X159678571Y-42251333D01*
X159821429Y-42251333D01*
X159916667Y-42298952D01*
X159964286Y-42346571D01*
X160011905Y-42441810D01*
X160011905Y-42679905D01*
X159964286Y-42775143D01*
X159916667Y-42822762D01*
X159821429Y-42870381D01*
X159535714Y-42870381D01*
X159440476Y-42822762D01*
X159392857Y-42775143D01*
X155567143Y-38965143D02*
X155519524Y-39012762D01*
X155376667Y-39060381D01*
X155281429Y-39060381D01*
X155138571Y-39012762D01*
X155043333Y-38917524D01*
X154995714Y-38822286D01*
X154948095Y-38631810D01*
X154948095Y-38488952D01*
X154995714Y-38298476D01*
X155043333Y-38203238D01*
X155138571Y-38108000D01*
X155281429Y-38060381D01*
X155376667Y-38060381D01*
X155519524Y-38108000D01*
X155567143Y-38155619D01*
X156424286Y-38060381D02*
X156233809Y-38060381D01*
X156138571Y-38108000D01*
X156090952Y-38155619D01*
X155995714Y-38298476D01*
X155948095Y-38488952D01*
X155948095Y-38869905D01*
X155995714Y-38965143D01*
X156043333Y-39012762D01*
X156138571Y-39060381D01*
X156329048Y-39060381D01*
X156424286Y-39012762D01*
X156471905Y-38965143D01*
X156519524Y-38869905D01*
X156519524Y-38631810D01*
X156471905Y-38536571D01*
X156424286Y-38488952D01*
X156329048Y-38441333D01*
X156138571Y-38441333D01*
X156043333Y-38488952D01*
X155995714Y-38536571D01*
X155948095Y-38631810D01*
X157376667Y-38393714D02*
X157376667Y-39060381D01*
X157138571Y-38012762D02*
X156900476Y-38727048D01*
X157519524Y-38727048D01*
X140295334Y-50744381D02*
X139819143Y-50744381D01*
X139819143Y-49744381D01*
X140533429Y-49744381D02*
X141152477Y-49744381D01*
X140819143Y-50125333D01*
X140962001Y-50125333D01*
X141057239Y-50172952D01*
X141104858Y-50220571D01*
X141152477Y-50315810D01*
X141152477Y-50553905D01*
X141104858Y-50649143D01*
X141057239Y-50696762D01*
X140962001Y-50744381D01*
X140676286Y-50744381D01*
X140581048Y-50696762D01*
X140533429Y-50649143D01*
X161663143Y-42870381D02*
X161186952Y-42870381D01*
X161186952Y-41870381D01*
X161948857Y-41965619D02*
X161996476Y-41918000D01*
X162091714Y-41870381D01*
X162329810Y-41870381D01*
X162425048Y-41918000D01*
X162472667Y-41965619D01*
X162520286Y-42060857D01*
X162520286Y-42156095D01*
X162472667Y-42298952D01*
X161901238Y-42870381D01*
X162520286Y-42870381D01*
X162901238Y-41965619D02*
X162948857Y-41918000D01*
X163044095Y-41870381D01*
X163282191Y-41870381D01*
X163377429Y-41918000D01*
X163425048Y-41965619D01*
X163472667Y-42060857D01*
X163472667Y-42156095D01*
X163425048Y-42298952D01*
X162853619Y-42870381D01*
X163472667Y-42870381D01*
X131945143Y-87066381D02*
X131611809Y-86590190D01*
X131373714Y-87066381D02*
X131373714Y-86066381D01*
X131754667Y-86066381D01*
X131849905Y-86114000D01*
X131897524Y-86161619D01*
X131945143Y-86256857D01*
X131945143Y-86399714D01*
X131897524Y-86494952D01*
X131849905Y-86542571D01*
X131754667Y-86590190D01*
X131373714Y-86590190D01*
X132897524Y-87066381D02*
X132326095Y-87066381D01*
X132611809Y-87066381D02*
X132611809Y-86066381D01*
X132516571Y-86209238D01*
X132421333Y-86304476D01*
X132326095Y-86352095D01*
X133754667Y-86399714D02*
X133754667Y-87066381D01*
X133516571Y-86018762D02*
X133278476Y-86733048D01*
X133897524Y-86733048D01*
X123309143Y-128627143D02*
X123261524Y-128674762D01*
X123118667Y-128722381D01*
X123023429Y-128722381D01*
X122880571Y-128674762D01*
X122785333Y-128579524D01*
X122737714Y-128484286D01*
X122690095Y-128293810D01*
X122690095Y-128150952D01*
X122737714Y-127960476D01*
X122785333Y-127865238D01*
X122880571Y-127770000D01*
X123023429Y-127722381D01*
X123118667Y-127722381D01*
X123261524Y-127770000D01*
X123309143Y-127817619D01*
X123880571Y-128150952D02*
X123785333Y-128103333D01*
X123737714Y-128055714D01*
X123690095Y-127960476D01*
X123690095Y-127912857D01*
X123737714Y-127817619D01*
X123785333Y-127770000D01*
X123880571Y-127722381D01*
X124071048Y-127722381D01*
X124166286Y-127770000D01*
X124213905Y-127817619D01*
X124261524Y-127912857D01*
X124261524Y-127960476D01*
X124213905Y-128055714D01*
X124166286Y-128103333D01*
X124071048Y-128150952D01*
X123880571Y-128150952D01*
X123785333Y-128198571D01*
X123737714Y-128246190D01*
X123690095Y-128341429D01*
X123690095Y-128531905D01*
X123737714Y-128627143D01*
X123785333Y-128674762D01*
X123880571Y-128722381D01*
X124071048Y-128722381D01*
X124166286Y-128674762D01*
X124213905Y-128627143D01*
X124261524Y-128531905D01*
X124261524Y-128341429D01*
X124213905Y-128246190D01*
X124166286Y-128198571D01*
X124071048Y-128150952D01*
X125118667Y-128055714D02*
X125118667Y-128722381D01*
X124880571Y-127674762D02*
X124642476Y-128389048D01*
X125261524Y-128389048D01*
X175470572Y-130980571D02*
X175470572Y-129480571D01*
X176327715Y-130980571D02*
X175684858Y-130123429D01*
X176327715Y-129480571D02*
X175470572Y-130337714D01*
X177756286Y-130980571D02*
X176899143Y-130980571D01*
X177327715Y-130980571D02*
X177327715Y-129480571D01*
X177184858Y-129694857D01*
X177042000Y-129837714D01*
X176899143Y-129909143D01*
X179113429Y-129480571D02*
X178399143Y-129480571D01*
X178327714Y-130194857D01*
X178399143Y-130123429D01*
X178542000Y-130052000D01*
X178899143Y-130052000D01*
X179042000Y-130123429D01*
X179113429Y-130194857D01*
X179184857Y-130337714D01*
X179184857Y-130694857D01*
X179113429Y-130837714D01*
X179042000Y-130909143D01*
X178899143Y-130980571D01*
X178542000Y-130980571D01*
X178399143Y-130909143D01*
X178327714Y-130837714D01*
X128992381Y-129793905D02*
X129801905Y-129793905D01*
X129897143Y-129746286D01*
X129944762Y-129698667D01*
X129992381Y-129603429D01*
X129992381Y-129412952D01*
X129944762Y-129317714D01*
X129897143Y-129270095D01*
X129801905Y-129222476D01*
X128992381Y-129222476D01*
X129992381Y-128222476D02*
X129992381Y-128793905D01*
X129992381Y-128508191D02*
X128992381Y-128508191D01*
X129135238Y-128603429D01*
X129230476Y-128698667D01*
X129278095Y-128793905D01*
X122420143Y-92872143D02*
X122372524Y-92919762D01*
X122229667Y-92967381D01*
X122134429Y-92967381D01*
X121991571Y-92919762D01*
X121896333Y-92824524D01*
X121848714Y-92729286D01*
X121801095Y-92538810D01*
X121801095Y-92395952D01*
X121848714Y-92205476D01*
X121896333Y-92110238D01*
X121991571Y-92015000D01*
X122134429Y-91967381D01*
X122229667Y-91967381D01*
X122372524Y-92015000D01*
X122420143Y-92062619D01*
X123372524Y-92967381D02*
X122801095Y-92967381D01*
X123086809Y-92967381D02*
X123086809Y-91967381D01*
X122991571Y-92110238D01*
X122896333Y-92205476D01*
X122801095Y-92253095D01*
X123753476Y-92062619D02*
X123801095Y-92015000D01*
X123896333Y-91967381D01*
X124134429Y-91967381D01*
X124229667Y-92015000D01*
X124277286Y-92062619D01*
X124324905Y-92157857D01*
X124324905Y-92253095D01*
X124277286Y-92395952D01*
X123705857Y-92967381D01*
X124324905Y-92967381D01*
X118895905Y-126944381D02*
X118895905Y-125944381D01*
X119276858Y-125944381D01*
X119372096Y-125992000D01*
X119419715Y-126039619D01*
X119467334Y-126134857D01*
X119467334Y-126277714D01*
X119419715Y-126372952D01*
X119372096Y-126420571D01*
X119276858Y-126468190D01*
X118895905Y-126468190D01*
X119848286Y-126039619D02*
X119895905Y-125992000D01*
X119991143Y-125944381D01*
X120229239Y-125944381D01*
X120324477Y-125992000D01*
X120372096Y-126039619D01*
X120419715Y-126134857D01*
X120419715Y-126230095D01*
X120372096Y-126372952D01*
X119800667Y-126944381D01*
X120419715Y-126944381D01*
X127412762Y-107735619D02*
X127317524Y-107688000D01*
X127222286Y-107592762D01*
X127079429Y-107449905D01*
X126984190Y-107402286D01*
X126888952Y-107402286D01*
X126936571Y-107640381D02*
X126841333Y-107592762D01*
X126746095Y-107497524D01*
X126698476Y-107307048D01*
X126698476Y-106973714D01*
X126746095Y-106783238D01*
X126841333Y-106688000D01*
X126936571Y-106640381D01*
X127127048Y-106640381D01*
X127222286Y-106688000D01*
X127317524Y-106783238D01*
X127365143Y-106973714D01*
X127365143Y-107307048D01*
X127317524Y-107497524D01*
X127222286Y-107592762D01*
X127127048Y-107640381D01*
X126936571Y-107640381D01*
X128317524Y-107640381D02*
X127746095Y-107640381D01*
X128031809Y-107640381D02*
X128031809Y-106640381D01*
X127936571Y-106783238D01*
X127841333Y-106878476D01*
X127746095Y-106926095D01*
D10*
X132981667Y-93473333D02*
X132981667Y-93073333D01*
X133681667Y-93273333D02*
X132981667Y-93273333D01*
X133048333Y-92873334D02*
X133015000Y-92840000D01*
X132981667Y-92773334D01*
X132981667Y-92606667D01*
X133015000Y-92540000D01*
X133048333Y-92506667D01*
X133115000Y-92473334D01*
X133181667Y-92473334D01*
X133281667Y-92506667D01*
X133681667Y-92906667D01*
X133681667Y-92473334D01*
M02*
