G04 #@! TF.FileFunction,Copper,L2,Inr,Signal*
%FSLAX46Y46*%
G04 Gerber Fmt 4.6, Leading zero omitted, Abs format (unit mm)*
G04 Created by KiCad (PCBNEW 4.0.1-stable) date 03/05/2016 06:21:55*
%MOMM*%
G01*
G04 APERTURE LIST*
%ADD10C,0.100000*%
%ADD11C,3.500000*%
%ADD12C,2.000000*%
%ADD13C,1.524000*%
%ADD14C,6.350000*%
%ADD15R,2.032000X2.032000*%
%ADD16O,2.032000X2.032000*%
%ADD17C,2.540000*%
%ADD18C,1.727200*%
%ADD19C,1.998980*%
%ADD20R,1.727200X1.727200*%
%ADD21O,1.727200X1.727200*%
%ADD22O,1.501140X2.499360*%
%ADD23C,0.889000*%
%ADD24C,0.254000*%
G04 APERTURE END LIST*
D10*
D11*
X192024000Y-53330000D03*
X192024000Y-45730000D03*
D12*
X184224000Y-49530000D03*
D13*
X124079000Y-93218000D03*
X126619000Y-93218000D03*
X121539000Y-93218000D03*
D14*
X191008000Y-39116000D03*
X119126000Y-39116000D03*
X191008000Y-131064000D03*
X119126000Y-131064000D03*
D15*
X117792500Y-99441000D03*
D16*
X117792500Y-101981000D03*
D13*
X159004000Y-45466000D03*
X156464000Y-45466000D03*
X146304000Y-45466000D03*
X146304000Y-53086000D03*
X159004000Y-53086000D03*
X156464000Y-53086000D03*
X140208000Y-65786000D03*
X142748000Y-65786000D03*
X152908000Y-65786000D03*
X152908000Y-58166000D03*
X140208000Y-58166000D03*
X142748000Y-58166000D03*
X140208000Y-76708000D03*
X142748000Y-76708000D03*
X152908000Y-76708000D03*
X152908000Y-69088000D03*
X140208000Y-69088000D03*
X142748000Y-69088000D03*
X140208000Y-87630000D03*
X142748000Y-87630000D03*
X152908000Y-87630000D03*
X152908000Y-80010000D03*
X140208000Y-80010000D03*
X142748000Y-80010000D03*
X140208000Y-98552000D03*
X142748000Y-98552000D03*
X152908000Y-98552000D03*
X152908000Y-90932000D03*
X140208000Y-90932000D03*
X142748000Y-90932000D03*
X140208000Y-109474000D03*
X142748000Y-109474000D03*
X152908000Y-109474000D03*
X152908000Y-101854000D03*
X140208000Y-101854000D03*
X142748000Y-101854000D03*
X140208000Y-120396000D03*
X142748000Y-120396000D03*
X152908000Y-120396000D03*
X152908000Y-112776000D03*
X140208000Y-112776000D03*
X142748000Y-112776000D03*
X140144500Y-131191000D03*
X142684500Y-131191000D03*
X152844500Y-131191000D03*
X152844500Y-123571000D03*
X140144500Y-123571000D03*
X142684500Y-123571000D03*
X190500000Y-58166000D03*
X187960000Y-58166000D03*
X177800000Y-58166000D03*
X177800000Y-65786000D03*
X190500000Y-65786000D03*
X187960000Y-65786000D03*
X190500000Y-69088000D03*
X187960000Y-69088000D03*
X177800000Y-69088000D03*
X177800000Y-76708000D03*
X190500000Y-76708000D03*
X187960000Y-76708000D03*
X190500000Y-80010000D03*
X187960000Y-80010000D03*
X177800000Y-80010000D03*
X177800000Y-87630000D03*
X190500000Y-87630000D03*
X187960000Y-87630000D03*
X190500000Y-90932000D03*
X187960000Y-90932000D03*
X177800000Y-90932000D03*
X177800000Y-98552000D03*
X190500000Y-98552000D03*
X187960000Y-98552000D03*
X190500000Y-101854000D03*
X187960000Y-101854000D03*
X177800000Y-101854000D03*
X177800000Y-109474000D03*
X190500000Y-109474000D03*
X187960000Y-109474000D03*
X190500000Y-112522000D03*
X187960000Y-112522000D03*
X177800000Y-112522000D03*
X177800000Y-120142000D03*
X190500000Y-120142000D03*
X187960000Y-120142000D03*
D15*
X118046500Y-49847500D03*
D16*
X118046500Y-47307500D03*
D15*
X136461500Y-42227500D03*
D16*
X139001500Y-42227500D03*
D17*
X119984000Y-59436000D03*
D18*
X123984000Y-59436000D03*
D17*
X127984000Y-59436000D03*
D18*
X131984000Y-59436000D03*
D19*
X155956000Y-58166000D03*
X158496000Y-65786000D03*
X155956000Y-69088000D03*
X158496000Y-76708000D03*
X155956000Y-80010000D03*
X158496000Y-87630000D03*
X155956000Y-90932000D03*
X158496000Y-98552000D03*
X155956000Y-101854000D03*
X158496000Y-109474000D03*
X155956000Y-112776000D03*
X158496000Y-120396000D03*
X161544000Y-63500000D03*
X169164000Y-60960000D03*
X161544000Y-73660000D03*
X169164000Y-71120000D03*
X161544000Y-84836000D03*
X169164000Y-82296000D03*
X161544000Y-95758000D03*
X169164000Y-93218000D03*
X161544000Y-106680000D03*
X169164000Y-104140000D03*
X161544000Y-117602000D03*
X169164000Y-115062000D03*
X172212000Y-58166000D03*
X174752000Y-65786000D03*
X172212000Y-69088000D03*
X174752000Y-76708000D03*
X172212000Y-80010000D03*
X174752000Y-87630000D03*
X172212000Y-90932000D03*
X174752000Y-98552000D03*
X172212000Y-101854000D03*
X174752000Y-109474000D03*
X172212000Y-112522000D03*
X174752000Y-120142000D03*
X143507460Y-47498000D03*
X136908540Y-47498000D03*
D13*
X184848500Y-123317000D03*
X182308500Y-123317000D03*
X172148500Y-123317000D03*
X172148500Y-130937000D03*
X184848500Y-130937000D03*
X182308500Y-130937000D03*
D15*
X161925000Y-46355000D03*
D16*
X161925000Y-48895000D03*
D20*
X121666000Y-124206000D03*
D21*
X119126000Y-124206000D03*
X121666000Y-121666000D03*
X119126000Y-121666000D03*
X121666000Y-119126000D03*
X119126000Y-119126000D03*
X121666000Y-116586000D03*
X119126000Y-116586000D03*
X121666000Y-114046000D03*
X119126000Y-114046000D03*
X121666000Y-111506000D03*
X119126000Y-111506000D03*
X121666000Y-108966000D03*
X119126000Y-108966000D03*
D22*
X125730000Y-66548000D03*
X128270000Y-66548000D03*
X123190000Y-66548000D03*
D23*
X168973500Y-122110500D03*
X162179000Y-123380500D03*
X165862000Y-132016500D03*
X155765500Y-131508500D03*
X165925500Y-112395000D03*
X162115500Y-112649000D03*
X168592500Y-120142000D03*
X164592000Y-120586500D03*
X168465500Y-109537500D03*
X164528500Y-109664500D03*
X165925500Y-101282500D03*
X162242500Y-101854000D03*
X168592500Y-98615500D03*
X164592000Y-98488500D03*
X165798500Y-90424000D03*
X161925000Y-90932000D03*
X168529000Y-87376000D03*
X164719000Y-87630000D03*
X165735000Y-79502000D03*
X162179000Y-79756000D03*
X168465500Y-76454000D03*
X164719000Y-76771500D03*
X165989000Y-68643500D03*
X162242500Y-68834000D03*
X164782500Y-66040000D03*
X168529000Y-65786000D03*
X165671500Y-58166000D03*
X162306000Y-58166000D03*
X169989500Y-53149500D03*
X134937500Y-132524500D03*
X159004000Y-47244000D03*
X127508000Y-77470000D03*
X133858000Y-62230000D03*
X131064000Y-50562000D03*
X127508000Y-50562000D03*
X123952000Y-50562000D03*
X143256000Y-50292000D03*
X176784000Y-53166000D03*
X149860000Y-59944000D03*
X125857000Y-131826000D03*
X128397000Y-129794000D03*
X128714500Y-128016000D03*
D24*
G36*
X194315000Y-45013093D02*
X194063271Y-44405364D01*
X193718528Y-44215077D01*
X192203605Y-45730000D01*
X193718528Y-47244923D01*
X194063271Y-47054636D01*
X194315000Y-46423872D01*
X194315000Y-52613093D01*
X194063271Y-52005364D01*
X193718528Y-51815077D01*
X192203605Y-53330000D01*
X193718528Y-54844923D01*
X194063271Y-54654636D01*
X194315000Y-54023872D01*
X194315000Y-133985000D01*
X115824000Y-133985000D01*
X115824000Y-132039784D01*
X124777313Y-132039784D01*
X124941311Y-132436689D01*
X125244714Y-132740622D01*
X125641332Y-132905313D01*
X126070784Y-132905687D01*
X126467689Y-132741689D01*
X126771622Y-132438286D01*
X126936313Y-132041668D01*
X126936687Y-131612216D01*
X126876959Y-131467661D01*
X138747258Y-131467661D01*
X138959490Y-131981303D01*
X139352130Y-132374629D01*
X139865400Y-132587757D01*
X140421161Y-132588242D01*
X140934803Y-132376010D01*
X141328129Y-131983370D01*
X141414449Y-131775488D01*
X141499490Y-131981303D01*
X141892130Y-132374629D01*
X142405400Y-132587757D01*
X142961161Y-132588242D01*
X143474803Y-132376010D01*
X143868129Y-131983370D01*
X144081257Y-131470100D01*
X144081259Y-131467661D01*
X151447258Y-131467661D01*
X151659490Y-131981303D01*
X152052130Y-132374629D01*
X152565400Y-132587757D01*
X153121161Y-132588242D01*
X153634803Y-132376010D01*
X154028129Y-131983370D01*
X154241257Y-131470100D01*
X154241480Y-131213661D01*
X170751258Y-131213661D01*
X170963490Y-131727303D01*
X171356130Y-132120629D01*
X171869400Y-132333757D01*
X172425161Y-132334242D01*
X172938803Y-132122010D01*
X173332129Y-131729370D01*
X173545257Y-131216100D01*
X173545259Y-131213661D01*
X180911258Y-131213661D01*
X181123490Y-131727303D01*
X181516130Y-132120629D01*
X182029400Y-132333757D01*
X182585161Y-132334242D01*
X183098803Y-132122010D01*
X183303957Y-131917213D01*
X184047892Y-131917213D01*
X184117357Y-132159397D01*
X184640802Y-132346144D01*
X185195868Y-132318362D01*
X185579643Y-132159397D01*
X185649108Y-131917213D01*
X184848500Y-131116605D01*
X184047892Y-131917213D01*
X183303957Y-131917213D01*
X183492129Y-131729370D01*
X183571895Y-131537273D01*
X183626103Y-131668143D01*
X183868287Y-131737608D01*
X184668895Y-130937000D01*
X185028105Y-130937000D01*
X185828713Y-131737608D01*
X186070897Y-131668143D01*
X186257644Y-131144698D01*
X186229862Y-130589632D01*
X186070897Y-130205857D01*
X185828713Y-130136392D01*
X185028105Y-130937000D01*
X184668895Y-130937000D01*
X183868287Y-130136392D01*
X183626103Y-130205857D01*
X183575991Y-130346318D01*
X183493510Y-130146697D01*
X183303932Y-129956787D01*
X184047892Y-129956787D01*
X184848500Y-130757395D01*
X185649108Y-129956787D01*
X185579643Y-129714603D01*
X185056198Y-129527856D01*
X184501132Y-129555638D01*
X184117357Y-129714603D01*
X184047892Y-129956787D01*
X183303932Y-129956787D01*
X183100870Y-129753371D01*
X182587600Y-129540243D01*
X182031839Y-129539758D01*
X181518197Y-129751990D01*
X181124871Y-130144630D01*
X180911743Y-130657900D01*
X180911258Y-131213661D01*
X173545259Y-131213661D01*
X173545742Y-130660339D01*
X173333510Y-130146697D01*
X172940870Y-129753371D01*
X172427600Y-129540243D01*
X171871839Y-129539758D01*
X171358197Y-129751990D01*
X170964871Y-130144630D01*
X170751743Y-130657900D01*
X170751258Y-131213661D01*
X154241480Y-131213661D01*
X154241742Y-130914339D01*
X154029510Y-130400697D01*
X153636870Y-130007371D01*
X153123600Y-129794243D01*
X152567839Y-129793758D01*
X152054197Y-130005990D01*
X151660871Y-130398630D01*
X151447743Y-130911900D01*
X151447258Y-131467661D01*
X144081259Y-131467661D01*
X144081742Y-130914339D01*
X143869510Y-130400697D01*
X143476870Y-130007371D01*
X142963600Y-129794243D01*
X142407839Y-129793758D01*
X141894197Y-130005990D01*
X141500871Y-130398630D01*
X141414551Y-130606512D01*
X141329510Y-130400697D01*
X140936870Y-130007371D01*
X140423600Y-129794243D01*
X139867839Y-129793758D01*
X139354197Y-130005990D01*
X138960871Y-130398630D01*
X138747743Y-130911900D01*
X138747258Y-131467661D01*
X126876959Y-131467661D01*
X126772689Y-131215311D01*
X126469286Y-130911378D01*
X126072668Y-130746687D01*
X125643216Y-130746313D01*
X125246311Y-130910311D01*
X124942378Y-131213714D01*
X124777687Y-131610332D01*
X124777313Y-132039784D01*
X115824000Y-132039784D01*
X115824000Y-130007784D01*
X127317313Y-130007784D01*
X127481311Y-130404689D01*
X127784714Y-130708622D01*
X128181332Y-130873313D01*
X128610784Y-130873687D01*
X129007689Y-130709689D01*
X129311622Y-130406286D01*
X129476313Y-130009668D01*
X129476687Y-129580216D01*
X129312689Y-129183311D01*
X129138507Y-129008825D01*
X129325189Y-128931689D01*
X129629122Y-128628286D01*
X129793813Y-128231668D01*
X129794187Y-127802216D01*
X129630189Y-127405311D01*
X129326786Y-127101378D01*
X128930168Y-126936687D01*
X128500716Y-126936313D01*
X128103811Y-127100311D01*
X127799878Y-127403714D01*
X127635187Y-127800332D01*
X127634813Y-128229784D01*
X127798811Y-128626689D01*
X127972993Y-128801175D01*
X127786311Y-128878311D01*
X127482378Y-129181714D01*
X127317687Y-129578332D01*
X127317313Y-130007784D01*
X115824000Y-130007784D01*
X115824000Y-124587000D01*
X115819551Y-124565026D01*
X117671042Y-124565026D01*
X117843312Y-124980947D01*
X118237510Y-125412821D01*
X118766973Y-125660968D01*
X118999000Y-125540469D01*
X118999000Y-124333000D01*
X117792183Y-124333000D01*
X117671042Y-124565026D01*
X115819551Y-124565026D01*
X115813994Y-124537590D01*
X115785553Y-124495965D01*
X115760500Y-124479844D01*
X115760500Y-122025026D01*
X117671042Y-122025026D01*
X117843312Y-122440947D01*
X118237510Y-122872821D01*
X118372313Y-122936000D01*
X118237510Y-122999179D01*
X117843312Y-123431053D01*
X117671042Y-123846974D01*
X117792183Y-124079000D01*
X118999000Y-124079000D01*
X118999000Y-121793000D01*
X117792183Y-121793000D01*
X117671042Y-122025026D01*
X115760500Y-122025026D01*
X115760500Y-119485026D01*
X117671042Y-119485026D01*
X117843312Y-119900947D01*
X118237510Y-120332821D01*
X118372313Y-120396000D01*
X118237510Y-120459179D01*
X117843312Y-120891053D01*
X117671042Y-121306974D01*
X117792183Y-121539000D01*
X118999000Y-121539000D01*
X118999000Y-119253000D01*
X117792183Y-119253000D01*
X117671042Y-119485026D01*
X115760500Y-119485026D01*
X115760500Y-108966000D01*
X117598041Y-108966000D01*
X117712115Y-109539489D01*
X118036971Y-110025670D01*
X118351752Y-110236000D01*
X118036971Y-110446330D01*
X117712115Y-110932511D01*
X117598041Y-111506000D01*
X117712115Y-112079489D01*
X118036971Y-112565670D01*
X118351752Y-112776000D01*
X118036971Y-112986330D01*
X117712115Y-113472511D01*
X117598041Y-114046000D01*
X117712115Y-114619489D01*
X118036971Y-115105670D01*
X118351752Y-115316000D01*
X118036971Y-115526330D01*
X117712115Y-116012511D01*
X117598041Y-116586000D01*
X117712115Y-117159489D01*
X118036971Y-117645670D01*
X118360228Y-117861664D01*
X118237510Y-117919179D01*
X117843312Y-118351053D01*
X117671042Y-118766974D01*
X117792183Y-118999000D01*
X118999000Y-118999000D01*
X118999000Y-118979000D01*
X119253000Y-118979000D01*
X119253000Y-118999000D01*
X119273000Y-118999000D01*
X119273000Y-119253000D01*
X119253000Y-119253000D01*
X119253000Y-121539000D01*
X119273000Y-121539000D01*
X119273000Y-121793000D01*
X119253000Y-121793000D01*
X119253000Y-124079000D01*
X119273000Y-124079000D01*
X119273000Y-124333000D01*
X119253000Y-124333000D01*
X119253000Y-125540469D01*
X119485027Y-125660968D01*
X120014490Y-125412821D01*
X120184495Y-125226567D01*
X120199238Y-125304917D01*
X120338310Y-125521041D01*
X120550510Y-125666031D01*
X120802400Y-125717040D01*
X122529600Y-125717040D01*
X122764917Y-125672762D01*
X122981041Y-125533690D01*
X123126031Y-125321490D01*
X123177040Y-125069600D01*
X123177040Y-124551213D01*
X139343892Y-124551213D01*
X139413357Y-124793397D01*
X139936802Y-124980144D01*
X140491868Y-124952362D01*
X140875643Y-124793397D01*
X140945108Y-124551213D01*
X140144500Y-123750605D01*
X139343892Y-124551213D01*
X123177040Y-124551213D01*
X123177040Y-123363302D01*
X138735356Y-123363302D01*
X138763138Y-123918368D01*
X138922103Y-124302143D01*
X139164287Y-124371608D01*
X139964895Y-123571000D01*
X140324105Y-123571000D01*
X141124713Y-124371608D01*
X141366897Y-124302143D01*
X141417009Y-124161682D01*
X141499490Y-124361303D01*
X141892130Y-124754629D01*
X142405400Y-124967757D01*
X142961161Y-124968242D01*
X143474803Y-124756010D01*
X143868129Y-124363370D01*
X144081257Y-123850100D01*
X144081259Y-123847661D01*
X151447258Y-123847661D01*
X151659490Y-124361303D01*
X152052130Y-124754629D01*
X152565400Y-124967757D01*
X153121161Y-124968242D01*
X153634803Y-124756010D01*
X154028129Y-124363370D01*
X154241257Y-123850100D01*
X154241480Y-123593661D01*
X170751258Y-123593661D01*
X170963490Y-124107303D01*
X171356130Y-124500629D01*
X171869400Y-124713757D01*
X172425161Y-124714242D01*
X172938803Y-124502010D01*
X173332129Y-124109370D01*
X173545257Y-123596100D01*
X173545259Y-123593661D01*
X180911258Y-123593661D01*
X181123490Y-124107303D01*
X181516130Y-124500629D01*
X182029400Y-124713757D01*
X182585161Y-124714242D01*
X183098803Y-124502010D01*
X183492129Y-124109370D01*
X183578449Y-123901488D01*
X183663490Y-124107303D01*
X184056130Y-124500629D01*
X184569400Y-124713757D01*
X185125161Y-124714242D01*
X185638803Y-124502010D01*
X186032129Y-124109370D01*
X186245257Y-123596100D01*
X186245742Y-123040339D01*
X186033510Y-122526697D01*
X185640870Y-122133371D01*
X185127600Y-121920243D01*
X184571839Y-121919758D01*
X184058197Y-122131990D01*
X183664871Y-122524630D01*
X183578551Y-122732512D01*
X183493510Y-122526697D01*
X183100870Y-122133371D01*
X182587600Y-121920243D01*
X182031839Y-121919758D01*
X181518197Y-122131990D01*
X181124871Y-122524630D01*
X180911743Y-123037900D01*
X180911258Y-123593661D01*
X173545259Y-123593661D01*
X173545742Y-123040339D01*
X173333510Y-122526697D01*
X172940870Y-122133371D01*
X172427600Y-121920243D01*
X171871839Y-121919758D01*
X171358197Y-122131990D01*
X170964871Y-122524630D01*
X170751743Y-123037900D01*
X170751258Y-123593661D01*
X154241480Y-123593661D01*
X154241742Y-123294339D01*
X154029510Y-122780697D01*
X153636870Y-122387371D01*
X153123600Y-122174243D01*
X152567839Y-122173758D01*
X152054197Y-122385990D01*
X151660871Y-122778630D01*
X151447743Y-123291900D01*
X151447258Y-123847661D01*
X144081259Y-123847661D01*
X144081742Y-123294339D01*
X143869510Y-122780697D01*
X143476870Y-122387371D01*
X142963600Y-122174243D01*
X142407839Y-122173758D01*
X141894197Y-122385990D01*
X141500871Y-122778630D01*
X141421105Y-122970727D01*
X141366897Y-122839857D01*
X141124713Y-122770392D01*
X140324105Y-123571000D01*
X139964895Y-123571000D01*
X139164287Y-122770392D01*
X138922103Y-122839857D01*
X138735356Y-123363302D01*
X123177040Y-123363302D01*
X123177040Y-123342400D01*
X123132762Y-123107083D01*
X122993690Y-122890959D01*
X122781490Y-122745969D01*
X122737869Y-122737136D01*
X122755029Y-122725670D01*
X122845155Y-122590787D01*
X139343892Y-122590787D01*
X140144500Y-123391395D01*
X140945108Y-122590787D01*
X140875643Y-122348603D01*
X140352198Y-122161856D01*
X139797132Y-122189638D01*
X139413357Y-122348603D01*
X139343892Y-122590787D01*
X122845155Y-122590787D01*
X123079885Y-122239489D01*
X123193959Y-121666000D01*
X123136317Y-121376213D01*
X139407392Y-121376213D01*
X139476857Y-121618397D01*
X140000302Y-121805144D01*
X140555368Y-121777362D01*
X140939143Y-121618397D01*
X141008608Y-121376213D01*
X140208000Y-120575605D01*
X139407392Y-121376213D01*
X123136317Y-121376213D01*
X123079885Y-121092511D01*
X122755029Y-120606330D01*
X122440248Y-120396000D01*
X122751089Y-120188302D01*
X138798856Y-120188302D01*
X138826638Y-120743368D01*
X138985603Y-121127143D01*
X139227787Y-121196608D01*
X140028395Y-120396000D01*
X140387605Y-120396000D01*
X141188213Y-121196608D01*
X141430397Y-121127143D01*
X141480509Y-120986682D01*
X141562990Y-121186303D01*
X141955630Y-121579629D01*
X142468900Y-121792757D01*
X143024661Y-121793242D01*
X143538303Y-121581010D01*
X143931629Y-121188370D01*
X144144757Y-120675100D01*
X144144759Y-120672661D01*
X151510758Y-120672661D01*
X151722990Y-121186303D01*
X152115630Y-121579629D01*
X152628900Y-121792757D01*
X153184661Y-121793242D01*
X153698303Y-121581010D01*
X154091629Y-121188370D01*
X154286239Y-120719694D01*
X156861226Y-120719694D01*
X157109538Y-121320655D01*
X157568927Y-121780846D01*
X158169453Y-122030206D01*
X158819694Y-122030774D01*
X159420655Y-121782462D01*
X159880846Y-121323073D01*
X160130206Y-120722547D01*
X160130430Y-120465694D01*
X173117226Y-120465694D01*
X173365538Y-121066655D01*
X173824927Y-121526846D01*
X174425453Y-121776206D01*
X175075694Y-121776774D01*
X175676655Y-121528462D01*
X176136846Y-121069073D01*
X176386206Y-120468547D01*
X176386249Y-120418661D01*
X176402758Y-120418661D01*
X176614990Y-120932303D01*
X177007630Y-121325629D01*
X177520900Y-121538757D01*
X178076661Y-121539242D01*
X178590303Y-121327010D01*
X178983629Y-120934370D01*
X179196757Y-120421100D01*
X179196759Y-120418661D01*
X186562758Y-120418661D01*
X186774990Y-120932303D01*
X187167630Y-121325629D01*
X187680900Y-121538757D01*
X188236661Y-121539242D01*
X188750303Y-121327010D01*
X189143629Y-120934370D01*
X189229949Y-120726488D01*
X189314990Y-120932303D01*
X189707630Y-121325629D01*
X190220900Y-121538757D01*
X190776661Y-121539242D01*
X191290303Y-121327010D01*
X191683629Y-120934370D01*
X191896757Y-120421100D01*
X191897242Y-119865339D01*
X191685010Y-119351697D01*
X191292370Y-118958371D01*
X190779100Y-118745243D01*
X190223339Y-118744758D01*
X189709697Y-118956990D01*
X189316371Y-119349630D01*
X189230051Y-119557512D01*
X189145010Y-119351697D01*
X188752370Y-118958371D01*
X188239100Y-118745243D01*
X187683339Y-118744758D01*
X187169697Y-118956990D01*
X186776371Y-119349630D01*
X186563243Y-119862900D01*
X186562758Y-120418661D01*
X179196759Y-120418661D01*
X179197242Y-119865339D01*
X178985010Y-119351697D01*
X178592370Y-118958371D01*
X178079100Y-118745243D01*
X177523339Y-118744758D01*
X177009697Y-118956990D01*
X176616371Y-119349630D01*
X176403243Y-119862900D01*
X176402758Y-120418661D01*
X176386249Y-120418661D01*
X176386774Y-119818306D01*
X176138462Y-119217345D01*
X175679073Y-118757154D01*
X175078547Y-118507794D01*
X174428306Y-118507226D01*
X173827345Y-118755538D01*
X173367154Y-119214927D01*
X173117794Y-119815453D01*
X173117226Y-120465694D01*
X160130430Y-120465694D01*
X160130774Y-120072306D01*
X159882462Y-119471345D01*
X159423073Y-119011154D01*
X158822547Y-118761794D01*
X158172306Y-118761226D01*
X157571345Y-119009538D01*
X157111154Y-119468927D01*
X156861794Y-120069453D01*
X156861226Y-120719694D01*
X154286239Y-120719694D01*
X154304757Y-120675100D01*
X154305242Y-120119339D01*
X154093010Y-119605697D01*
X153700370Y-119212371D01*
X153187100Y-118999243D01*
X152631339Y-118998758D01*
X152117697Y-119210990D01*
X151724371Y-119603630D01*
X151511243Y-120116900D01*
X151510758Y-120672661D01*
X144144759Y-120672661D01*
X144145242Y-120119339D01*
X143933010Y-119605697D01*
X143540370Y-119212371D01*
X143027100Y-118999243D01*
X142471339Y-118998758D01*
X141957697Y-119210990D01*
X141564371Y-119603630D01*
X141484605Y-119795727D01*
X141430397Y-119664857D01*
X141188213Y-119595392D01*
X140387605Y-120396000D01*
X140028395Y-120396000D01*
X139227787Y-119595392D01*
X138985603Y-119664857D01*
X138798856Y-120188302D01*
X122751089Y-120188302D01*
X122755029Y-120185670D01*
X123079885Y-119699489D01*
X123136316Y-119415787D01*
X139407392Y-119415787D01*
X140208000Y-120216395D01*
X141008608Y-119415787D01*
X140939143Y-119173603D01*
X140415698Y-118986856D01*
X139860632Y-119014638D01*
X139476857Y-119173603D01*
X139407392Y-119415787D01*
X123136316Y-119415787D01*
X123193959Y-119126000D01*
X123079885Y-118552511D01*
X122755029Y-118066330D01*
X122544553Y-117925694D01*
X159909226Y-117925694D01*
X160157538Y-118526655D01*
X160616927Y-118986846D01*
X161217453Y-119236206D01*
X161867694Y-119236774D01*
X162468655Y-118988462D01*
X162928846Y-118529073D01*
X163178206Y-117928547D01*
X163178774Y-117278306D01*
X162930462Y-116677345D01*
X162471073Y-116217154D01*
X161870547Y-115967794D01*
X161220306Y-115967226D01*
X160619345Y-116215538D01*
X160159154Y-116674927D01*
X159909794Y-117275453D01*
X159909226Y-117925694D01*
X122544553Y-117925694D01*
X122440248Y-117856000D01*
X122755029Y-117645670D01*
X123079885Y-117159489D01*
X123193959Y-116586000D01*
X123079885Y-116012511D01*
X122755029Y-115526330D01*
X122544553Y-115385694D01*
X167529226Y-115385694D01*
X167777538Y-115986655D01*
X168236927Y-116446846D01*
X168837453Y-116696206D01*
X169487694Y-116696774D01*
X170088655Y-116448462D01*
X170548846Y-115989073D01*
X170798206Y-115388547D01*
X170798774Y-114738306D01*
X170550462Y-114137345D01*
X170091073Y-113677154D01*
X169490547Y-113427794D01*
X168840306Y-113427226D01*
X168239345Y-113675538D01*
X167779154Y-114134927D01*
X167529794Y-114735453D01*
X167529226Y-115385694D01*
X122544553Y-115385694D01*
X122440248Y-115316000D01*
X122755029Y-115105670D01*
X123079885Y-114619489D01*
X123193959Y-114046000D01*
X123079885Y-113472511D01*
X122799350Y-113052661D01*
X138810758Y-113052661D01*
X139022990Y-113566303D01*
X139415630Y-113959629D01*
X139928900Y-114172757D01*
X140484661Y-114173242D01*
X140998303Y-113961010D01*
X141391629Y-113568370D01*
X141477949Y-113360488D01*
X141562990Y-113566303D01*
X141955630Y-113959629D01*
X142468900Y-114172757D01*
X143024661Y-114173242D01*
X143538303Y-113961010D01*
X143931629Y-113568370D01*
X144144757Y-113055100D01*
X144144759Y-113052661D01*
X151510758Y-113052661D01*
X151722990Y-113566303D01*
X152115630Y-113959629D01*
X152628900Y-114172757D01*
X153184661Y-114173242D01*
X153698303Y-113961010D01*
X154091629Y-113568370D01*
X154286239Y-113099694D01*
X154321226Y-113099694D01*
X154569538Y-113700655D01*
X155028927Y-114160846D01*
X155629453Y-114410206D01*
X156279694Y-114410774D01*
X156880655Y-114162462D01*
X157340846Y-113703073D01*
X157590206Y-113102547D01*
X157590430Y-112845694D01*
X170577226Y-112845694D01*
X170825538Y-113446655D01*
X171284927Y-113906846D01*
X171885453Y-114156206D01*
X172535694Y-114156774D01*
X173136655Y-113908462D01*
X173596846Y-113449073D01*
X173846206Y-112848547D01*
X173846249Y-112798661D01*
X176402758Y-112798661D01*
X176614990Y-113312303D01*
X177007630Y-113705629D01*
X177520900Y-113918757D01*
X178076661Y-113919242D01*
X178590303Y-113707010D01*
X178983629Y-113314370D01*
X179196757Y-112801100D01*
X179196759Y-112798661D01*
X186562758Y-112798661D01*
X186774990Y-113312303D01*
X187167630Y-113705629D01*
X187680900Y-113918757D01*
X188236661Y-113919242D01*
X188750303Y-113707010D01*
X188955457Y-113502213D01*
X189699392Y-113502213D01*
X189768857Y-113744397D01*
X190292302Y-113931144D01*
X190847368Y-113903362D01*
X191231143Y-113744397D01*
X191300608Y-113502213D01*
X190500000Y-112701605D01*
X189699392Y-113502213D01*
X188955457Y-113502213D01*
X189143629Y-113314370D01*
X189223395Y-113122273D01*
X189277603Y-113253143D01*
X189519787Y-113322608D01*
X190320395Y-112522000D01*
X190679605Y-112522000D01*
X191480213Y-113322608D01*
X191722397Y-113253143D01*
X191909144Y-112729698D01*
X191881362Y-112174632D01*
X191722397Y-111790857D01*
X191480213Y-111721392D01*
X190679605Y-112522000D01*
X190320395Y-112522000D01*
X189519787Y-111721392D01*
X189277603Y-111790857D01*
X189227491Y-111931318D01*
X189145010Y-111731697D01*
X188955432Y-111541787D01*
X189699392Y-111541787D01*
X190500000Y-112342395D01*
X191300608Y-111541787D01*
X191231143Y-111299603D01*
X190707698Y-111112856D01*
X190152632Y-111140638D01*
X189768857Y-111299603D01*
X189699392Y-111541787D01*
X188955432Y-111541787D01*
X188752370Y-111338371D01*
X188239100Y-111125243D01*
X187683339Y-111124758D01*
X187169697Y-111336990D01*
X186776371Y-111729630D01*
X186563243Y-112242900D01*
X186562758Y-112798661D01*
X179196759Y-112798661D01*
X179197242Y-112245339D01*
X178985010Y-111731697D01*
X178592370Y-111338371D01*
X178079100Y-111125243D01*
X177523339Y-111124758D01*
X177009697Y-111336990D01*
X176616371Y-111729630D01*
X176403243Y-112242900D01*
X176402758Y-112798661D01*
X173846249Y-112798661D01*
X173846774Y-112198306D01*
X173598462Y-111597345D01*
X173139073Y-111137154D01*
X172538547Y-110887794D01*
X171888306Y-110887226D01*
X171287345Y-111135538D01*
X170827154Y-111594927D01*
X170577794Y-112195453D01*
X170577226Y-112845694D01*
X157590430Y-112845694D01*
X157590774Y-112452306D01*
X157342462Y-111851345D01*
X156883073Y-111391154D01*
X156282547Y-111141794D01*
X155632306Y-111141226D01*
X155031345Y-111389538D01*
X154571154Y-111848927D01*
X154321794Y-112449453D01*
X154321226Y-113099694D01*
X154286239Y-113099694D01*
X154304757Y-113055100D01*
X154305242Y-112499339D01*
X154093010Y-111985697D01*
X153700370Y-111592371D01*
X153187100Y-111379243D01*
X152631339Y-111378758D01*
X152117697Y-111590990D01*
X151724371Y-111983630D01*
X151511243Y-112496900D01*
X151510758Y-113052661D01*
X144144759Y-113052661D01*
X144145242Y-112499339D01*
X143933010Y-111985697D01*
X143540370Y-111592371D01*
X143027100Y-111379243D01*
X142471339Y-111378758D01*
X141957697Y-111590990D01*
X141564371Y-111983630D01*
X141478051Y-112191512D01*
X141393010Y-111985697D01*
X141000370Y-111592371D01*
X140487100Y-111379243D01*
X139931339Y-111378758D01*
X139417697Y-111590990D01*
X139024371Y-111983630D01*
X138811243Y-112496900D01*
X138810758Y-113052661D01*
X122799350Y-113052661D01*
X122755029Y-112986330D01*
X122440248Y-112776000D01*
X122755029Y-112565670D01*
X123079885Y-112079489D01*
X123193959Y-111506000D01*
X123079885Y-110932511D01*
X122760297Y-110454213D01*
X139407392Y-110454213D01*
X139476857Y-110696397D01*
X140000302Y-110883144D01*
X140555368Y-110855362D01*
X140939143Y-110696397D01*
X141008608Y-110454213D01*
X140208000Y-109653605D01*
X139407392Y-110454213D01*
X122760297Y-110454213D01*
X122755029Y-110446330D01*
X122440248Y-110236000D01*
X122755029Y-110025670D01*
X123079885Y-109539489D01*
X123134225Y-109266302D01*
X138798856Y-109266302D01*
X138826638Y-109821368D01*
X138985603Y-110205143D01*
X139227787Y-110274608D01*
X140028395Y-109474000D01*
X140387605Y-109474000D01*
X141188213Y-110274608D01*
X141430397Y-110205143D01*
X141480509Y-110064682D01*
X141562990Y-110264303D01*
X141955630Y-110657629D01*
X142468900Y-110870757D01*
X143024661Y-110871242D01*
X143538303Y-110659010D01*
X143931629Y-110266370D01*
X144144757Y-109753100D01*
X144144759Y-109750661D01*
X151510758Y-109750661D01*
X151722990Y-110264303D01*
X152115630Y-110657629D01*
X152628900Y-110870757D01*
X153184661Y-110871242D01*
X153698303Y-110659010D01*
X154091629Y-110266370D01*
X154286239Y-109797694D01*
X156861226Y-109797694D01*
X157109538Y-110398655D01*
X157568927Y-110858846D01*
X158169453Y-111108206D01*
X158819694Y-111108774D01*
X159420655Y-110860462D01*
X159880846Y-110401073D01*
X160130206Y-109800547D01*
X160130208Y-109797694D01*
X173117226Y-109797694D01*
X173365538Y-110398655D01*
X173824927Y-110858846D01*
X174425453Y-111108206D01*
X175075694Y-111108774D01*
X175676655Y-110860462D01*
X176136846Y-110401073D01*
X176386206Y-109800547D01*
X176386249Y-109750661D01*
X176402758Y-109750661D01*
X176614990Y-110264303D01*
X177007630Y-110657629D01*
X177520900Y-110870757D01*
X178076661Y-110871242D01*
X178590303Y-110659010D01*
X178983629Y-110266370D01*
X179196757Y-109753100D01*
X179196759Y-109750661D01*
X186562758Y-109750661D01*
X186774990Y-110264303D01*
X187167630Y-110657629D01*
X187680900Y-110870757D01*
X188236661Y-110871242D01*
X188750303Y-110659010D01*
X189143629Y-110266370D01*
X189229949Y-110058488D01*
X189314990Y-110264303D01*
X189707630Y-110657629D01*
X190220900Y-110870757D01*
X190776661Y-110871242D01*
X191290303Y-110659010D01*
X191683629Y-110266370D01*
X191896757Y-109753100D01*
X191897242Y-109197339D01*
X191685010Y-108683697D01*
X191292370Y-108290371D01*
X190779100Y-108077243D01*
X190223339Y-108076758D01*
X189709697Y-108288990D01*
X189316371Y-108681630D01*
X189230051Y-108889512D01*
X189145010Y-108683697D01*
X188752370Y-108290371D01*
X188239100Y-108077243D01*
X187683339Y-108076758D01*
X187169697Y-108288990D01*
X186776371Y-108681630D01*
X186563243Y-109194900D01*
X186562758Y-109750661D01*
X179196759Y-109750661D01*
X179197242Y-109197339D01*
X178985010Y-108683697D01*
X178592370Y-108290371D01*
X178079100Y-108077243D01*
X177523339Y-108076758D01*
X177009697Y-108288990D01*
X176616371Y-108681630D01*
X176403243Y-109194900D01*
X176402758Y-109750661D01*
X176386249Y-109750661D01*
X176386774Y-109150306D01*
X176138462Y-108549345D01*
X175679073Y-108089154D01*
X175078547Y-107839794D01*
X174428306Y-107839226D01*
X173827345Y-108087538D01*
X173367154Y-108546927D01*
X173117794Y-109147453D01*
X173117226Y-109797694D01*
X160130208Y-109797694D01*
X160130774Y-109150306D01*
X159882462Y-108549345D01*
X159423073Y-108089154D01*
X158822547Y-107839794D01*
X158172306Y-107839226D01*
X157571345Y-108087538D01*
X157111154Y-108546927D01*
X156861794Y-109147453D01*
X156861226Y-109797694D01*
X154286239Y-109797694D01*
X154304757Y-109753100D01*
X154305242Y-109197339D01*
X154093010Y-108683697D01*
X153700370Y-108290371D01*
X153187100Y-108077243D01*
X152631339Y-108076758D01*
X152117697Y-108288990D01*
X151724371Y-108681630D01*
X151511243Y-109194900D01*
X151510758Y-109750661D01*
X144144759Y-109750661D01*
X144145242Y-109197339D01*
X143933010Y-108683697D01*
X143540370Y-108290371D01*
X143027100Y-108077243D01*
X142471339Y-108076758D01*
X141957697Y-108288990D01*
X141564371Y-108681630D01*
X141484605Y-108873727D01*
X141430397Y-108742857D01*
X141188213Y-108673392D01*
X140387605Y-109474000D01*
X140028395Y-109474000D01*
X139227787Y-108673392D01*
X138985603Y-108742857D01*
X138798856Y-109266302D01*
X123134225Y-109266302D01*
X123193959Y-108966000D01*
X123100031Y-108493787D01*
X139407392Y-108493787D01*
X140208000Y-109294395D01*
X141008608Y-108493787D01*
X140939143Y-108251603D01*
X140415698Y-108064856D01*
X139860632Y-108092638D01*
X139476857Y-108251603D01*
X139407392Y-108493787D01*
X123100031Y-108493787D01*
X123079885Y-108392511D01*
X122755029Y-107906330D01*
X122268848Y-107581474D01*
X121695359Y-107467400D01*
X121636641Y-107467400D01*
X121063152Y-107581474D01*
X120576971Y-107906330D01*
X120396000Y-108177172D01*
X120215029Y-107906330D01*
X119728848Y-107581474D01*
X119155359Y-107467400D01*
X119096641Y-107467400D01*
X118523152Y-107581474D01*
X118036971Y-107906330D01*
X117712115Y-108392511D01*
X117598041Y-108966000D01*
X115760500Y-108966000D01*
X115760500Y-107003694D01*
X159909226Y-107003694D01*
X160157538Y-107604655D01*
X160616927Y-108064846D01*
X161217453Y-108314206D01*
X161867694Y-108314774D01*
X162468655Y-108066462D01*
X162928846Y-107607073D01*
X163178206Y-107006547D01*
X163178774Y-106356306D01*
X162930462Y-105755345D01*
X162471073Y-105295154D01*
X161870547Y-105045794D01*
X161220306Y-105045226D01*
X160619345Y-105293538D01*
X160159154Y-105752927D01*
X159909794Y-106353453D01*
X159909226Y-107003694D01*
X115760500Y-107003694D01*
X115760500Y-104463694D01*
X167529226Y-104463694D01*
X167777538Y-105064655D01*
X168236927Y-105524846D01*
X168837453Y-105774206D01*
X169487694Y-105774774D01*
X170088655Y-105526462D01*
X170548846Y-105067073D01*
X170798206Y-104466547D01*
X170798774Y-103816306D01*
X170550462Y-103215345D01*
X170091073Y-102755154D01*
X169490547Y-102505794D01*
X168840306Y-102505226D01*
X168239345Y-102753538D01*
X167779154Y-103212927D01*
X167529794Y-103813453D01*
X167529226Y-104463694D01*
X115760500Y-104463694D01*
X115760500Y-101981000D01*
X116109155Y-101981000D01*
X116234830Y-102612810D01*
X116592722Y-103148433D01*
X117128345Y-103506325D01*
X117760155Y-103632000D01*
X117824845Y-103632000D01*
X118456655Y-103506325D01*
X118992278Y-103148433D01*
X119350170Y-102612810D01*
X119446075Y-102130661D01*
X138810758Y-102130661D01*
X139022990Y-102644303D01*
X139415630Y-103037629D01*
X139928900Y-103250757D01*
X140484661Y-103251242D01*
X140998303Y-103039010D01*
X141391629Y-102646370D01*
X141477949Y-102438488D01*
X141562990Y-102644303D01*
X141955630Y-103037629D01*
X142468900Y-103250757D01*
X143024661Y-103251242D01*
X143538303Y-103039010D01*
X143931629Y-102646370D01*
X144144757Y-102133100D01*
X144144759Y-102130661D01*
X151510758Y-102130661D01*
X151722990Y-102644303D01*
X152115630Y-103037629D01*
X152628900Y-103250757D01*
X153184661Y-103251242D01*
X153698303Y-103039010D01*
X154091629Y-102646370D01*
X154286239Y-102177694D01*
X154321226Y-102177694D01*
X154569538Y-102778655D01*
X155028927Y-103238846D01*
X155629453Y-103488206D01*
X156279694Y-103488774D01*
X156880655Y-103240462D01*
X157340846Y-102781073D01*
X157590206Y-102180547D01*
X157590208Y-102177694D01*
X170577226Y-102177694D01*
X170825538Y-102778655D01*
X171284927Y-103238846D01*
X171885453Y-103488206D01*
X172535694Y-103488774D01*
X173136655Y-103240462D01*
X173596846Y-102781073D01*
X173846206Y-102180547D01*
X173846249Y-102130661D01*
X176402758Y-102130661D01*
X176614990Y-102644303D01*
X177007630Y-103037629D01*
X177520900Y-103250757D01*
X178076661Y-103251242D01*
X178590303Y-103039010D01*
X178983629Y-102646370D01*
X179196757Y-102133100D01*
X179196759Y-102130661D01*
X186562758Y-102130661D01*
X186774990Y-102644303D01*
X187167630Y-103037629D01*
X187680900Y-103250757D01*
X188236661Y-103251242D01*
X188750303Y-103039010D01*
X188955457Y-102834213D01*
X189699392Y-102834213D01*
X189768857Y-103076397D01*
X190292302Y-103263144D01*
X190847368Y-103235362D01*
X191231143Y-103076397D01*
X191300608Y-102834213D01*
X190500000Y-102033605D01*
X189699392Y-102834213D01*
X188955457Y-102834213D01*
X189143629Y-102646370D01*
X189223395Y-102454273D01*
X189277603Y-102585143D01*
X189519787Y-102654608D01*
X190320395Y-101854000D01*
X190679605Y-101854000D01*
X191480213Y-102654608D01*
X191722397Y-102585143D01*
X191909144Y-102061698D01*
X191881362Y-101506632D01*
X191722397Y-101122857D01*
X191480213Y-101053392D01*
X190679605Y-101854000D01*
X190320395Y-101854000D01*
X189519787Y-101053392D01*
X189277603Y-101122857D01*
X189227491Y-101263318D01*
X189145010Y-101063697D01*
X188955432Y-100873787D01*
X189699392Y-100873787D01*
X190500000Y-101674395D01*
X191300608Y-100873787D01*
X191231143Y-100631603D01*
X190707698Y-100444856D01*
X190152632Y-100472638D01*
X189768857Y-100631603D01*
X189699392Y-100873787D01*
X188955432Y-100873787D01*
X188752370Y-100670371D01*
X188239100Y-100457243D01*
X187683339Y-100456758D01*
X187169697Y-100668990D01*
X186776371Y-101061630D01*
X186563243Y-101574900D01*
X186562758Y-102130661D01*
X179196759Y-102130661D01*
X179197242Y-101577339D01*
X178985010Y-101063697D01*
X178592370Y-100670371D01*
X178079100Y-100457243D01*
X177523339Y-100456758D01*
X177009697Y-100668990D01*
X176616371Y-101061630D01*
X176403243Y-101574900D01*
X176402758Y-102130661D01*
X173846249Y-102130661D01*
X173846774Y-101530306D01*
X173598462Y-100929345D01*
X173139073Y-100469154D01*
X172538547Y-100219794D01*
X171888306Y-100219226D01*
X171287345Y-100467538D01*
X170827154Y-100926927D01*
X170577794Y-101527453D01*
X170577226Y-102177694D01*
X157590208Y-102177694D01*
X157590774Y-101530306D01*
X157342462Y-100929345D01*
X156883073Y-100469154D01*
X156282547Y-100219794D01*
X155632306Y-100219226D01*
X155031345Y-100467538D01*
X154571154Y-100926927D01*
X154321794Y-101527453D01*
X154321226Y-102177694D01*
X154286239Y-102177694D01*
X154304757Y-102133100D01*
X154305242Y-101577339D01*
X154093010Y-101063697D01*
X153700370Y-100670371D01*
X153187100Y-100457243D01*
X152631339Y-100456758D01*
X152117697Y-100668990D01*
X151724371Y-101061630D01*
X151511243Y-101574900D01*
X151510758Y-102130661D01*
X144144759Y-102130661D01*
X144145242Y-101577339D01*
X143933010Y-101063697D01*
X143540370Y-100670371D01*
X143027100Y-100457243D01*
X142471339Y-100456758D01*
X141957697Y-100668990D01*
X141564371Y-101061630D01*
X141478051Y-101269512D01*
X141393010Y-101063697D01*
X141000370Y-100670371D01*
X140487100Y-100457243D01*
X139931339Y-100456758D01*
X139417697Y-100668990D01*
X139024371Y-101061630D01*
X138811243Y-101574900D01*
X138810758Y-102130661D01*
X119446075Y-102130661D01*
X119475845Y-101981000D01*
X119350170Y-101349190D01*
X119125534Y-101012999D01*
X119168198Y-100995327D01*
X119346827Y-100816699D01*
X119443500Y-100583310D01*
X119443500Y-99726750D01*
X119284750Y-99568000D01*
X117919500Y-99568000D01*
X117919500Y-99588000D01*
X117665500Y-99588000D01*
X117665500Y-99568000D01*
X116300250Y-99568000D01*
X116141500Y-99726750D01*
X116141500Y-100583310D01*
X116238173Y-100816699D01*
X116416802Y-100995327D01*
X116459466Y-101012999D01*
X116234830Y-101349190D01*
X116109155Y-101981000D01*
X115760500Y-101981000D01*
X115760500Y-99532213D01*
X139407392Y-99532213D01*
X139476857Y-99774397D01*
X140000302Y-99961144D01*
X140555368Y-99933362D01*
X140939143Y-99774397D01*
X141008608Y-99532213D01*
X140208000Y-98731605D01*
X139407392Y-99532213D01*
X115760500Y-99532213D01*
X115760500Y-98298690D01*
X116141500Y-98298690D01*
X116141500Y-99155250D01*
X116300250Y-99314000D01*
X117665500Y-99314000D01*
X117665500Y-97948750D01*
X117919500Y-97948750D01*
X117919500Y-99314000D01*
X119284750Y-99314000D01*
X119443500Y-99155250D01*
X119443500Y-98344302D01*
X138798856Y-98344302D01*
X138826638Y-98899368D01*
X138985603Y-99283143D01*
X139227787Y-99352608D01*
X140028395Y-98552000D01*
X140387605Y-98552000D01*
X141188213Y-99352608D01*
X141430397Y-99283143D01*
X141480509Y-99142682D01*
X141562990Y-99342303D01*
X141955630Y-99735629D01*
X142468900Y-99948757D01*
X143024661Y-99949242D01*
X143538303Y-99737010D01*
X143931629Y-99344370D01*
X144144757Y-98831100D01*
X144144759Y-98828661D01*
X151510758Y-98828661D01*
X151722990Y-99342303D01*
X152115630Y-99735629D01*
X152628900Y-99948757D01*
X153184661Y-99949242D01*
X153698303Y-99737010D01*
X154091629Y-99344370D01*
X154286239Y-98875694D01*
X156861226Y-98875694D01*
X157109538Y-99476655D01*
X157568927Y-99936846D01*
X158169453Y-100186206D01*
X158819694Y-100186774D01*
X159420655Y-99938462D01*
X159880846Y-99479073D01*
X160130206Y-98878547D01*
X160130208Y-98875694D01*
X173117226Y-98875694D01*
X173365538Y-99476655D01*
X173824927Y-99936846D01*
X174425453Y-100186206D01*
X175075694Y-100186774D01*
X175676655Y-99938462D01*
X176136846Y-99479073D01*
X176386206Y-98878547D01*
X176386249Y-98828661D01*
X176402758Y-98828661D01*
X176614990Y-99342303D01*
X177007630Y-99735629D01*
X177520900Y-99948757D01*
X178076661Y-99949242D01*
X178590303Y-99737010D01*
X178983629Y-99344370D01*
X179196757Y-98831100D01*
X179196759Y-98828661D01*
X186562758Y-98828661D01*
X186774990Y-99342303D01*
X187167630Y-99735629D01*
X187680900Y-99948757D01*
X188236661Y-99949242D01*
X188750303Y-99737010D01*
X189143629Y-99344370D01*
X189229949Y-99136488D01*
X189314990Y-99342303D01*
X189707630Y-99735629D01*
X190220900Y-99948757D01*
X190776661Y-99949242D01*
X191290303Y-99737010D01*
X191683629Y-99344370D01*
X191896757Y-98831100D01*
X191897242Y-98275339D01*
X191685010Y-97761697D01*
X191292370Y-97368371D01*
X190779100Y-97155243D01*
X190223339Y-97154758D01*
X189709697Y-97366990D01*
X189316371Y-97759630D01*
X189230051Y-97967512D01*
X189145010Y-97761697D01*
X188752370Y-97368371D01*
X188239100Y-97155243D01*
X187683339Y-97154758D01*
X187169697Y-97366990D01*
X186776371Y-97759630D01*
X186563243Y-98272900D01*
X186562758Y-98828661D01*
X179196759Y-98828661D01*
X179197242Y-98275339D01*
X178985010Y-97761697D01*
X178592370Y-97368371D01*
X178079100Y-97155243D01*
X177523339Y-97154758D01*
X177009697Y-97366990D01*
X176616371Y-97759630D01*
X176403243Y-98272900D01*
X176402758Y-98828661D01*
X176386249Y-98828661D01*
X176386774Y-98228306D01*
X176138462Y-97627345D01*
X175679073Y-97167154D01*
X175078547Y-96917794D01*
X174428306Y-96917226D01*
X173827345Y-97165538D01*
X173367154Y-97624927D01*
X173117794Y-98225453D01*
X173117226Y-98875694D01*
X160130208Y-98875694D01*
X160130774Y-98228306D01*
X159882462Y-97627345D01*
X159423073Y-97167154D01*
X158822547Y-96917794D01*
X158172306Y-96917226D01*
X157571345Y-97165538D01*
X157111154Y-97624927D01*
X156861794Y-98225453D01*
X156861226Y-98875694D01*
X154286239Y-98875694D01*
X154304757Y-98831100D01*
X154305242Y-98275339D01*
X154093010Y-97761697D01*
X153700370Y-97368371D01*
X153187100Y-97155243D01*
X152631339Y-97154758D01*
X152117697Y-97366990D01*
X151724371Y-97759630D01*
X151511243Y-98272900D01*
X151510758Y-98828661D01*
X144144759Y-98828661D01*
X144145242Y-98275339D01*
X143933010Y-97761697D01*
X143540370Y-97368371D01*
X143027100Y-97155243D01*
X142471339Y-97154758D01*
X141957697Y-97366990D01*
X141564371Y-97759630D01*
X141484605Y-97951727D01*
X141430397Y-97820857D01*
X141188213Y-97751392D01*
X140387605Y-98552000D01*
X140028395Y-98552000D01*
X139227787Y-97751392D01*
X138985603Y-97820857D01*
X138798856Y-98344302D01*
X119443500Y-98344302D01*
X119443500Y-98298690D01*
X119346827Y-98065301D01*
X119168198Y-97886673D01*
X118934809Y-97790000D01*
X118078250Y-97790000D01*
X117919500Y-97948750D01*
X117665500Y-97948750D01*
X117506750Y-97790000D01*
X116650191Y-97790000D01*
X116416802Y-97886673D01*
X116238173Y-98065301D01*
X116141500Y-98298690D01*
X115760500Y-98298690D01*
X115760500Y-97571787D01*
X139407392Y-97571787D01*
X140208000Y-98372395D01*
X141008608Y-97571787D01*
X140939143Y-97329603D01*
X140415698Y-97142856D01*
X139860632Y-97170638D01*
X139476857Y-97329603D01*
X139407392Y-97571787D01*
X115760500Y-97571787D01*
X115760500Y-96583500D01*
X115750494Y-96534090D01*
X115723303Y-96493697D01*
X115697219Y-96467613D01*
X115698826Y-96081694D01*
X159909226Y-96081694D01*
X160157538Y-96682655D01*
X160616927Y-97142846D01*
X161217453Y-97392206D01*
X161867694Y-97392774D01*
X162468655Y-97144462D01*
X162928846Y-96685073D01*
X163178206Y-96084547D01*
X163178774Y-95434306D01*
X162930462Y-94833345D01*
X162471073Y-94373154D01*
X161870547Y-94123794D01*
X161220306Y-94123226D01*
X160619345Y-94371538D01*
X160159154Y-94830927D01*
X159909794Y-95431453D01*
X159909226Y-96081694D01*
X115698826Y-96081694D01*
X115709606Y-93494661D01*
X120141758Y-93494661D01*
X120353990Y-94008303D01*
X120746630Y-94401629D01*
X121259900Y-94614757D01*
X121815661Y-94615242D01*
X122329303Y-94403010D01*
X122722629Y-94010370D01*
X122808949Y-93802488D01*
X122893990Y-94008303D01*
X123286630Y-94401629D01*
X123799900Y-94614757D01*
X124355661Y-94615242D01*
X124869303Y-94403010D01*
X125074457Y-94198213D01*
X125818392Y-94198213D01*
X125887857Y-94440397D01*
X126411302Y-94627144D01*
X126966368Y-94599362D01*
X127350143Y-94440397D01*
X127419608Y-94198213D01*
X126619000Y-93397605D01*
X125818392Y-94198213D01*
X125074457Y-94198213D01*
X125262629Y-94010370D01*
X125342395Y-93818273D01*
X125396603Y-93949143D01*
X125638787Y-94018608D01*
X126439395Y-93218000D01*
X126798605Y-93218000D01*
X127599213Y-94018608D01*
X127841397Y-93949143D01*
X127986760Y-93541694D01*
X167529226Y-93541694D01*
X167777538Y-94142655D01*
X168236927Y-94602846D01*
X168837453Y-94852206D01*
X169487694Y-94852774D01*
X170088655Y-94604462D01*
X170548846Y-94145073D01*
X170798206Y-93544547D01*
X170798774Y-92894306D01*
X170550462Y-92293345D01*
X170091073Y-91833154D01*
X169490547Y-91583794D01*
X168840306Y-91583226D01*
X168239345Y-91831538D01*
X167779154Y-92290927D01*
X167529794Y-92891453D01*
X167529226Y-93541694D01*
X127986760Y-93541694D01*
X128028144Y-93425698D01*
X128000362Y-92870632D01*
X127841397Y-92486857D01*
X127599213Y-92417392D01*
X126798605Y-93218000D01*
X126439395Y-93218000D01*
X125638787Y-92417392D01*
X125396603Y-92486857D01*
X125346491Y-92627318D01*
X125264010Y-92427697D01*
X125074432Y-92237787D01*
X125818392Y-92237787D01*
X126619000Y-93038395D01*
X127419608Y-92237787D01*
X127350143Y-91995603D01*
X126826698Y-91808856D01*
X126271632Y-91836638D01*
X125887857Y-91995603D01*
X125818392Y-92237787D01*
X125074432Y-92237787D01*
X124871370Y-92034371D01*
X124358100Y-91821243D01*
X123802339Y-91820758D01*
X123288697Y-92032990D01*
X122895371Y-92425630D01*
X122809051Y-92633512D01*
X122724010Y-92427697D01*
X122331370Y-92034371D01*
X121818100Y-91821243D01*
X121262339Y-91820758D01*
X120748697Y-92032990D01*
X120355371Y-92425630D01*
X120142243Y-92938900D01*
X120141758Y-93494661D01*
X115709606Y-93494661D01*
X115719130Y-91208661D01*
X138810758Y-91208661D01*
X139022990Y-91722303D01*
X139415630Y-92115629D01*
X139928900Y-92328757D01*
X140484661Y-92329242D01*
X140998303Y-92117010D01*
X141391629Y-91724370D01*
X141477949Y-91516488D01*
X141562990Y-91722303D01*
X141955630Y-92115629D01*
X142468900Y-92328757D01*
X143024661Y-92329242D01*
X143538303Y-92117010D01*
X143931629Y-91724370D01*
X144144757Y-91211100D01*
X144144759Y-91208661D01*
X151510758Y-91208661D01*
X151722990Y-91722303D01*
X152115630Y-92115629D01*
X152628900Y-92328757D01*
X153184661Y-92329242D01*
X153698303Y-92117010D01*
X154091629Y-91724370D01*
X154286239Y-91255694D01*
X154321226Y-91255694D01*
X154569538Y-91856655D01*
X155028927Y-92316846D01*
X155629453Y-92566206D01*
X156279694Y-92566774D01*
X156880655Y-92318462D01*
X157340846Y-91859073D01*
X157590206Y-91258547D01*
X157590208Y-91255694D01*
X170577226Y-91255694D01*
X170825538Y-91856655D01*
X171284927Y-92316846D01*
X171885453Y-92566206D01*
X172535694Y-92566774D01*
X173136655Y-92318462D01*
X173596846Y-91859073D01*
X173846206Y-91258547D01*
X173846249Y-91208661D01*
X176402758Y-91208661D01*
X176614990Y-91722303D01*
X177007630Y-92115629D01*
X177520900Y-92328757D01*
X178076661Y-92329242D01*
X178590303Y-92117010D01*
X178983629Y-91724370D01*
X179196757Y-91211100D01*
X179196759Y-91208661D01*
X186562758Y-91208661D01*
X186774990Y-91722303D01*
X187167630Y-92115629D01*
X187680900Y-92328757D01*
X188236661Y-92329242D01*
X188750303Y-92117010D01*
X188955457Y-91912213D01*
X189699392Y-91912213D01*
X189768857Y-92154397D01*
X190292302Y-92341144D01*
X190847368Y-92313362D01*
X191231143Y-92154397D01*
X191300608Y-91912213D01*
X190500000Y-91111605D01*
X189699392Y-91912213D01*
X188955457Y-91912213D01*
X189143629Y-91724370D01*
X189223395Y-91532273D01*
X189277603Y-91663143D01*
X189519787Y-91732608D01*
X190320395Y-90932000D01*
X190679605Y-90932000D01*
X191480213Y-91732608D01*
X191722397Y-91663143D01*
X191909144Y-91139698D01*
X191881362Y-90584632D01*
X191722397Y-90200857D01*
X191480213Y-90131392D01*
X190679605Y-90932000D01*
X190320395Y-90932000D01*
X189519787Y-90131392D01*
X189277603Y-90200857D01*
X189227491Y-90341318D01*
X189145010Y-90141697D01*
X188955432Y-89951787D01*
X189699392Y-89951787D01*
X190500000Y-90752395D01*
X191300608Y-89951787D01*
X191231143Y-89709603D01*
X190707698Y-89522856D01*
X190152632Y-89550638D01*
X189768857Y-89709603D01*
X189699392Y-89951787D01*
X188955432Y-89951787D01*
X188752370Y-89748371D01*
X188239100Y-89535243D01*
X187683339Y-89534758D01*
X187169697Y-89746990D01*
X186776371Y-90139630D01*
X186563243Y-90652900D01*
X186562758Y-91208661D01*
X179196759Y-91208661D01*
X179197242Y-90655339D01*
X178985010Y-90141697D01*
X178592370Y-89748371D01*
X178079100Y-89535243D01*
X177523339Y-89534758D01*
X177009697Y-89746990D01*
X176616371Y-90139630D01*
X176403243Y-90652900D01*
X176402758Y-91208661D01*
X173846249Y-91208661D01*
X173846774Y-90608306D01*
X173598462Y-90007345D01*
X173139073Y-89547154D01*
X172538547Y-89297794D01*
X171888306Y-89297226D01*
X171287345Y-89545538D01*
X170827154Y-90004927D01*
X170577794Y-90605453D01*
X170577226Y-91255694D01*
X157590208Y-91255694D01*
X157590774Y-90608306D01*
X157342462Y-90007345D01*
X156883073Y-89547154D01*
X156282547Y-89297794D01*
X155632306Y-89297226D01*
X155031345Y-89545538D01*
X154571154Y-90004927D01*
X154321794Y-90605453D01*
X154321226Y-91255694D01*
X154286239Y-91255694D01*
X154304757Y-91211100D01*
X154305242Y-90655339D01*
X154093010Y-90141697D01*
X153700370Y-89748371D01*
X153187100Y-89535243D01*
X152631339Y-89534758D01*
X152117697Y-89746990D01*
X151724371Y-90139630D01*
X151511243Y-90652900D01*
X151510758Y-91208661D01*
X144144759Y-91208661D01*
X144145242Y-90655339D01*
X143933010Y-90141697D01*
X143540370Y-89748371D01*
X143027100Y-89535243D01*
X142471339Y-89534758D01*
X141957697Y-89746990D01*
X141564371Y-90139630D01*
X141478051Y-90347512D01*
X141393010Y-90141697D01*
X141000370Y-89748371D01*
X140487100Y-89535243D01*
X139931339Y-89534758D01*
X139417697Y-89746990D01*
X139024371Y-90139630D01*
X138811243Y-90652900D01*
X138810758Y-91208661D01*
X115719130Y-91208661D01*
X115729957Y-88610213D01*
X139407392Y-88610213D01*
X139476857Y-88852397D01*
X140000302Y-89039144D01*
X140555368Y-89011362D01*
X140939143Y-88852397D01*
X141008608Y-88610213D01*
X140208000Y-87809605D01*
X139407392Y-88610213D01*
X115729957Y-88610213D01*
X115745859Y-84793823D01*
X122348630Y-84793823D01*
X122900820Y-86130225D01*
X123922397Y-87153586D01*
X125257834Y-87708108D01*
X126703823Y-87709370D01*
X127398580Y-87422302D01*
X138798856Y-87422302D01*
X138826638Y-87977368D01*
X138985603Y-88361143D01*
X139227787Y-88430608D01*
X140028395Y-87630000D01*
X140387605Y-87630000D01*
X141188213Y-88430608D01*
X141430397Y-88361143D01*
X141480509Y-88220682D01*
X141562990Y-88420303D01*
X141955630Y-88813629D01*
X142468900Y-89026757D01*
X143024661Y-89027242D01*
X143538303Y-88815010D01*
X143931629Y-88422370D01*
X144144757Y-87909100D01*
X144144759Y-87906661D01*
X151510758Y-87906661D01*
X151722990Y-88420303D01*
X152115630Y-88813629D01*
X152628900Y-89026757D01*
X153184661Y-89027242D01*
X153698303Y-88815010D01*
X154091629Y-88422370D01*
X154286239Y-87953694D01*
X156861226Y-87953694D01*
X157109538Y-88554655D01*
X157568927Y-89014846D01*
X158169453Y-89264206D01*
X158819694Y-89264774D01*
X159420655Y-89016462D01*
X159880846Y-88557073D01*
X160130206Y-87956547D01*
X160130208Y-87953694D01*
X173117226Y-87953694D01*
X173365538Y-88554655D01*
X173824927Y-89014846D01*
X174425453Y-89264206D01*
X175075694Y-89264774D01*
X175676655Y-89016462D01*
X176136846Y-88557073D01*
X176386206Y-87956547D01*
X176386249Y-87906661D01*
X176402758Y-87906661D01*
X176614990Y-88420303D01*
X177007630Y-88813629D01*
X177520900Y-89026757D01*
X178076661Y-89027242D01*
X178590303Y-88815010D01*
X178983629Y-88422370D01*
X179196757Y-87909100D01*
X179196759Y-87906661D01*
X186562758Y-87906661D01*
X186774990Y-88420303D01*
X187167630Y-88813629D01*
X187680900Y-89026757D01*
X188236661Y-89027242D01*
X188750303Y-88815010D01*
X189143629Y-88422370D01*
X189229949Y-88214488D01*
X189314990Y-88420303D01*
X189707630Y-88813629D01*
X190220900Y-89026757D01*
X190776661Y-89027242D01*
X191290303Y-88815010D01*
X191683629Y-88422370D01*
X191896757Y-87909100D01*
X191897242Y-87353339D01*
X191685010Y-86839697D01*
X191292370Y-86446371D01*
X190779100Y-86233243D01*
X190223339Y-86232758D01*
X189709697Y-86444990D01*
X189316371Y-86837630D01*
X189230051Y-87045512D01*
X189145010Y-86839697D01*
X188752370Y-86446371D01*
X188239100Y-86233243D01*
X187683339Y-86232758D01*
X187169697Y-86444990D01*
X186776371Y-86837630D01*
X186563243Y-87350900D01*
X186562758Y-87906661D01*
X179196759Y-87906661D01*
X179197242Y-87353339D01*
X178985010Y-86839697D01*
X178592370Y-86446371D01*
X178079100Y-86233243D01*
X177523339Y-86232758D01*
X177009697Y-86444990D01*
X176616371Y-86837630D01*
X176403243Y-87350900D01*
X176402758Y-87906661D01*
X176386249Y-87906661D01*
X176386774Y-87306306D01*
X176138462Y-86705345D01*
X175679073Y-86245154D01*
X175078547Y-85995794D01*
X174428306Y-85995226D01*
X173827345Y-86243538D01*
X173367154Y-86702927D01*
X173117794Y-87303453D01*
X173117226Y-87953694D01*
X160130208Y-87953694D01*
X160130774Y-87306306D01*
X159882462Y-86705345D01*
X159423073Y-86245154D01*
X158822547Y-85995794D01*
X158172306Y-85995226D01*
X157571345Y-86243538D01*
X157111154Y-86702927D01*
X156861794Y-87303453D01*
X156861226Y-87953694D01*
X154286239Y-87953694D01*
X154304757Y-87909100D01*
X154305242Y-87353339D01*
X154093010Y-86839697D01*
X153700370Y-86446371D01*
X153187100Y-86233243D01*
X152631339Y-86232758D01*
X152117697Y-86444990D01*
X151724371Y-86837630D01*
X151511243Y-87350900D01*
X151510758Y-87906661D01*
X144144759Y-87906661D01*
X144145242Y-87353339D01*
X143933010Y-86839697D01*
X143540370Y-86446371D01*
X143027100Y-86233243D01*
X142471339Y-86232758D01*
X141957697Y-86444990D01*
X141564371Y-86837630D01*
X141484605Y-87029727D01*
X141430397Y-86898857D01*
X141188213Y-86829392D01*
X140387605Y-87630000D01*
X140028395Y-87630000D01*
X139227787Y-86829392D01*
X138985603Y-86898857D01*
X138798856Y-87422302D01*
X127398580Y-87422302D01*
X128040225Y-87157180D01*
X128548504Y-86649787D01*
X139407392Y-86649787D01*
X140208000Y-87450395D01*
X141008608Y-86649787D01*
X140939143Y-86407603D01*
X140415698Y-86220856D01*
X139860632Y-86248638D01*
X139476857Y-86407603D01*
X139407392Y-86649787D01*
X128548504Y-86649787D01*
X129063586Y-86135603D01*
X129468818Y-85159694D01*
X159909226Y-85159694D01*
X160157538Y-85760655D01*
X160616927Y-86220846D01*
X161217453Y-86470206D01*
X161867694Y-86470774D01*
X162468655Y-86222462D01*
X162928846Y-85763073D01*
X163178206Y-85162547D01*
X163178774Y-84512306D01*
X162930462Y-83911345D01*
X162471073Y-83451154D01*
X161870547Y-83201794D01*
X161220306Y-83201226D01*
X160619345Y-83449538D01*
X160159154Y-83908927D01*
X159909794Y-84509453D01*
X159909226Y-85159694D01*
X129468818Y-85159694D01*
X129618108Y-84800166D01*
X129619370Y-83354177D01*
X129315888Y-82619694D01*
X167529226Y-82619694D01*
X167777538Y-83220655D01*
X168236927Y-83680846D01*
X168837453Y-83930206D01*
X169487694Y-83930774D01*
X170088655Y-83682462D01*
X170548846Y-83223073D01*
X170798206Y-82622547D01*
X170798774Y-81972306D01*
X170550462Y-81371345D01*
X170091073Y-80911154D01*
X169490547Y-80661794D01*
X168840306Y-80661226D01*
X168239345Y-80909538D01*
X167779154Y-81368927D01*
X167529794Y-81969453D01*
X167529226Y-82619694D01*
X129315888Y-82619694D01*
X129067180Y-82017775D01*
X128045603Y-80994414D01*
X126710166Y-80439892D01*
X125264177Y-80438630D01*
X123927775Y-80990820D01*
X122904414Y-82012397D01*
X122349892Y-83347834D01*
X122348630Y-84793823D01*
X115745859Y-84793823D01*
X115764638Y-80286661D01*
X138810758Y-80286661D01*
X139022990Y-80800303D01*
X139415630Y-81193629D01*
X139928900Y-81406757D01*
X140484661Y-81407242D01*
X140998303Y-81195010D01*
X141391629Y-80802370D01*
X141477949Y-80594488D01*
X141562990Y-80800303D01*
X141955630Y-81193629D01*
X142468900Y-81406757D01*
X143024661Y-81407242D01*
X143538303Y-81195010D01*
X143931629Y-80802370D01*
X144144757Y-80289100D01*
X144144759Y-80286661D01*
X151510758Y-80286661D01*
X151722990Y-80800303D01*
X152115630Y-81193629D01*
X152628900Y-81406757D01*
X153184661Y-81407242D01*
X153698303Y-81195010D01*
X154091629Y-80802370D01*
X154286239Y-80333694D01*
X154321226Y-80333694D01*
X154569538Y-80934655D01*
X155028927Y-81394846D01*
X155629453Y-81644206D01*
X156279694Y-81644774D01*
X156880655Y-81396462D01*
X157340846Y-80937073D01*
X157590206Y-80336547D01*
X157590208Y-80333694D01*
X170577226Y-80333694D01*
X170825538Y-80934655D01*
X171284927Y-81394846D01*
X171885453Y-81644206D01*
X172535694Y-81644774D01*
X173136655Y-81396462D01*
X173596846Y-80937073D01*
X173846206Y-80336547D01*
X173846249Y-80286661D01*
X176402758Y-80286661D01*
X176614990Y-80800303D01*
X177007630Y-81193629D01*
X177520900Y-81406757D01*
X178076661Y-81407242D01*
X178590303Y-81195010D01*
X178983629Y-80802370D01*
X179196757Y-80289100D01*
X179196759Y-80286661D01*
X186562758Y-80286661D01*
X186774990Y-80800303D01*
X187167630Y-81193629D01*
X187680900Y-81406757D01*
X188236661Y-81407242D01*
X188750303Y-81195010D01*
X188955457Y-80990213D01*
X189699392Y-80990213D01*
X189768857Y-81232397D01*
X190292302Y-81419144D01*
X190847368Y-81391362D01*
X191231143Y-81232397D01*
X191300608Y-80990213D01*
X190500000Y-80189605D01*
X189699392Y-80990213D01*
X188955457Y-80990213D01*
X189143629Y-80802370D01*
X189223395Y-80610273D01*
X189277603Y-80741143D01*
X189519787Y-80810608D01*
X190320395Y-80010000D01*
X190679605Y-80010000D01*
X191480213Y-80810608D01*
X191722397Y-80741143D01*
X191909144Y-80217698D01*
X191881362Y-79662632D01*
X191722397Y-79278857D01*
X191480213Y-79209392D01*
X190679605Y-80010000D01*
X190320395Y-80010000D01*
X189519787Y-79209392D01*
X189277603Y-79278857D01*
X189227491Y-79419318D01*
X189145010Y-79219697D01*
X188955432Y-79029787D01*
X189699392Y-79029787D01*
X190500000Y-79830395D01*
X191300608Y-79029787D01*
X191231143Y-78787603D01*
X190707698Y-78600856D01*
X190152632Y-78628638D01*
X189768857Y-78787603D01*
X189699392Y-79029787D01*
X188955432Y-79029787D01*
X188752370Y-78826371D01*
X188239100Y-78613243D01*
X187683339Y-78612758D01*
X187169697Y-78824990D01*
X186776371Y-79217630D01*
X186563243Y-79730900D01*
X186562758Y-80286661D01*
X179196759Y-80286661D01*
X179197242Y-79733339D01*
X178985010Y-79219697D01*
X178592370Y-78826371D01*
X178079100Y-78613243D01*
X177523339Y-78612758D01*
X177009697Y-78824990D01*
X176616371Y-79217630D01*
X176403243Y-79730900D01*
X176402758Y-80286661D01*
X173846249Y-80286661D01*
X173846774Y-79686306D01*
X173598462Y-79085345D01*
X173139073Y-78625154D01*
X172538547Y-78375794D01*
X171888306Y-78375226D01*
X171287345Y-78623538D01*
X170827154Y-79082927D01*
X170577794Y-79683453D01*
X170577226Y-80333694D01*
X157590208Y-80333694D01*
X157590774Y-79686306D01*
X157342462Y-79085345D01*
X156883073Y-78625154D01*
X156282547Y-78375794D01*
X155632306Y-78375226D01*
X155031345Y-78623538D01*
X154571154Y-79082927D01*
X154321794Y-79683453D01*
X154321226Y-80333694D01*
X154286239Y-80333694D01*
X154304757Y-80289100D01*
X154305242Y-79733339D01*
X154093010Y-79219697D01*
X153700370Y-78826371D01*
X153187100Y-78613243D01*
X152631339Y-78612758D01*
X152117697Y-78824990D01*
X151724371Y-79217630D01*
X151511243Y-79730900D01*
X151510758Y-80286661D01*
X144144759Y-80286661D01*
X144145242Y-79733339D01*
X143933010Y-79219697D01*
X143540370Y-78826371D01*
X143027100Y-78613243D01*
X142471339Y-78612758D01*
X141957697Y-78824990D01*
X141564371Y-79217630D01*
X141478051Y-79425512D01*
X141393010Y-79219697D01*
X141000370Y-78826371D01*
X140487100Y-78613243D01*
X139931339Y-78612758D01*
X139417697Y-78824990D01*
X139024371Y-79217630D01*
X138811243Y-79730900D01*
X138810758Y-80286661D01*
X115764638Y-80286661D01*
X115775465Y-77688213D01*
X139407392Y-77688213D01*
X139476857Y-77930397D01*
X140000302Y-78117144D01*
X140555368Y-78089362D01*
X140939143Y-77930397D01*
X141008608Y-77688213D01*
X140208000Y-76887605D01*
X139407392Y-77688213D01*
X115775465Y-77688213D01*
X115780415Y-76500302D01*
X138798856Y-76500302D01*
X138826638Y-77055368D01*
X138985603Y-77439143D01*
X139227787Y-77508608D01*
X140028395Y-76708000D01*
X140387605Y-76708000D01*
X141188213Y-77508608D01*
X141430397Y-77439143D01*
X141480509Y-77298682D01*
X141562990Y-77498303D01*
X141955630Y-77891629D01*
X142468900Y-78104757D01*
X143024661Y-78105242D01*
X143538303Y-77893010D01*
X143931629Y-77500370D01*
X144144757Y-76987100D01*
X144144759Y-76984661D01*
X151510758Y-76984661D01*
X151722990Y-77498303D01*
X152115630Y-77891629D01*
X152628900Y-78104757D01*
X153184661Y-78105242D01*
X153698303Y-77893010D01*
X154091629Y-77500370D01*
X154286239Y-77031694D01*
X156861226Y-77031694D01*
X157109538Y-77632655D01*
X157568927Y-78092846D01*
X158169453Y-78342206D01*
X158819694Y-78342774D01*
X159420655Y-78094462D01*
X159880846Y-77635073D01*
X160130206Y-77034547D01*
X160130208Y-77031694D01*
X173117226Y-77031694D01*
X173365538Y-77632655D01*
X173824927Y-78092846D01*
X174425453Y-78342206D01*
X175075694Y-78342774D01*
X175676655Y-78094462D01*
X176136846Y-77635073D01*
X176386206Y-77034547D01*
X176386249Y-76984661D01*
X176402758Y-76984661D01*
X176614990Y-77498303D01*
X177007630Y-77891629D01*
X177520900Y-78104757D01*
X178076661Y-78105242D01*
X178590303Y-77893010D01*
X178983629Y-77500370D01*
X179196757Y-76987100D01*
X179196759Y-76984661D01*
X186562758Y-76984661D01*
X186774990Y-77498303D01*
X187167630Y-77891629D01*
X187680900Y-78104757D01*
X188236661Y-78105242D01*
X188750303Y-77893010D01*
X189143629Y-77500370D01*
X189229949Y-77292488D01*
X189314990Y-77498303D01*
X189707630Y-77891629D01*
X190220900Y-78104757D01*
X190776661Y-78105242D01*
X191290303Y-77893010D01*
X191683629Y-77500370D01*
X191896757Y-76987100D01*
X191897242Y-76431339D01*
X191685010Y-75917697D01*
X191292370Y-75524371D01*
X190779100Y-75311243D01*
X190223339Y-75310758D01*
X189709697Y-75522990D01*
X189316371Y-75915630D01*
X189230051Y-76123512D01*
X189145010Y-75917697D01*
X188752370Y-75524371D01*
X188239100Y-75311243D01*
X187683339Y-75310758D01*
X187169697Y-75522990D01*
X186776371Y-75915630D01*
X186563243Y-76428900D01*
X186562758Y-76984661D01*
X179196759Y-76984661D01*
X179197242Y-76431339D01*
X178985010Y-75917697D01*
X178592370Y-75524371D01*
X178079100Y-75311243D01*
X177523339Y-75310758D01*
X177009697Y-75522990D01*
X176616371Y-75915630D01*
X176403243Y-76428900D01*
X176402758Y-76984661D01*
X176386249Y-76984661D01*
X176386774Y-76384306D01*
X176138462Y-75783345D01*
X175679073Y-75323154D01*
X175078547Y-75073794D01*
X174428306Y-75073226D01*
X173827345Y-75321538D01*
X173367154Y-75780927D01*
X173117794Y-76381453D01*
X173117226Y-77031694D01*
X160130208Y-77031694D01*
X160130774Y-76384306D01*
X159882462Y-75783345D01*
X159423073Y-75323154D01*
X158822547Y-75073794D01*
X158172306Y-75073226D01*
X157571345Y-75321538D01*
X157111154Y-75780927D01*
X156861794Y-76381453D01*
X156861226Y-77031694D01*
X154286239Y-77031694D01*
X154304757Y-76987100D01*
X154305242Y-76431339D01*
X154093010Y-75917697D01*
X153700370Y-75524371D01*
X153187100Y-75311243D01*
X152631339Y-75310758D01*
X152117697Y-75522990D01*
X151724371Y-75915630D01*
X151511243Y-76428900D01*
X151510758Y-76984661D01*
X144144759Y-76984661D01*
X144145242Y-76431339D01*
X143933010Y-75917697D01*
X143540370Y-75524371D01*
X143027100Y-75311243D01*
X142471339Y-75310758D01*
X141957697Y-75522990D01*
X141564371Y-75915630D01*
X141484605Y-76107727D01*
X141430397Y-75976857D01*
X141188213Y-75907392D01*
X140387605Y-76708000D01*
X140028395Y-76708000D01*
X139227787Y-75907392D01*
X138985603Y-75976857D01*
X138798856Y-76500302D01*
X115780415Y-76500302D01*
X115783633Y-75727787D01*
X139407392Y-75727787D01*
X140208000Y-76528395D01*
X141008608Y-75727787D01*
X140939143Y-75485603D01*
X140415698Y-75298856D01*
X139860632Y-75326638D01*
X139476857Y-75485603D01*
X139407392Y-75727787D01*
X115783633Y-75727787D01*
X115790900Y-73983694D01*
X159909226Y-73983694D01*
X160157538Y-74584655D01*
X160616927Y-75044846D01*
X161217453Y-75294206D01*
X161867694Y-75294774D01*
X162468655Y-75046462D01*
X162928846Y-74587073D01*
X163178206Y-73986547D01*
X163178774Y-73336306D01*
X162930462Y-72735345D01*
X162471073Y-72275154D01*
X161870547Y-72025794D01*
X161220306Y-72025226D01*
X160619345Y-72273538D01*
X160159154Y-72732927D01*
X159909794Y-73333453D01*
X159909226Y-73983694D01*
X115790900Y-73983694D01*
X115801483Y-71443694D01*
X167529226Y-71443694D01*
X167777538Y-72044655D01*
X168236927Y-72504846D01*
X168837453Y-72754206D01*
X169487694Y-72754774D01*
X170088655Y-72506462D01*
X170548846Y-72047073D01*
X170798206Y-71446547D01*
X170798774Y-70796306D01*
X170550462Y-70195345D01*
X170091073Y-69735154D01*
X169490547Y-69485794D01*
X168840306Y-69485226D01*
X168239345Y-69733538D01*
X167779154Y-70192927D01*
X167529794Y-70793453D01*
X167529226Y-71443694D01*
X115801483Y-71443694D01*
X115810147Y-69364661D01*
X138810758Y-69364661D01*
X139022990Y-69878303D01*
X139415630Y-70271629D01*
X139928900Y-70484757D01*
X140484661Y-70485242D01*
X140998303Y-70273010D01*
X141391629Y-69880370D01*
X141477949Y-69672488D01*
X141562990Y-69878303D01*
X141955630Y-70271629D01*
X142468900Y-70484757D01*
X143024661Y-70485242D01*
X143538303Y-70273010D01*
X143931629Y-69880370D01*
X144144757Y-69367100D01*
X144144759Y-69364661D01*
X151510758Y-69364661D01*
X151722990Y-69878303D01*
X152115630Y-70271629D01*
X152628900Y-70484757D01*
X153184661Y-70485242D01*
X153698303Y-70273010D01*
X154091629Y-69880370D01*
X154286239Y-69411694D01*
X154321226Y-69411694D01*
X154569538Y-70012655D01*
X155028927Y-70472846D01*
X155629453Y-70722206D01*
X156279694Y-70722774D01*
X156880655Y-70474462D01*
X157340846Y-70015073D01*
X157590206Y-69414547D01*
X157590208Y-69411694D01*
X170577226Y-69411694D01*
X170825538Y-70012655D01*
X171284927Y-70472846D01*
X171885453Y-70722206D01*
X172535694Y-70722774D01*
X173136655Y-70474462D01*
X173596846Y-70015073D01*
X173846206Y-69414547D01*
X173846249Y-69364661D01*
X176402758Y-69364661D01*
X176614990Y-69878303D01*
X177007630Y-70271629D01*
X177520900Y-70484757D01*
X178076661Y-70485242D01*
X178590303Y-70273010D01*
X178983629Y-69880370D01*
X179196757Y-69367100D01*
X179196759Y-69364661D01*
X186562758Y-69364661D01*
X186774990Y-69878303D01*
X187167630Y-70271629D01*
X187680900Y-70484757D01*
X188236661Y-70485242D01*
X188750303Y-70273010D01*
X188955457Y-70068213D01*
X189699392Y-70068213D01*
X189768857Y-70310397D01*
X190292302Y-70497144D01*
X190847368Y-70469362D01*
X191231143Y-70310397D01*
X191300608Y-70068213D01*
X190500000Y-69267605D01*
X189699392Y-70068213D01*
X188955457Y-70068213D01*
X189143629Y-69880370D01*
X189223395Y-69688273D01*
X189277603Y-69819143D01*
X189519787Y-69888608D01*
X190320395Y-69088000D01*
X190679605Y-69088000D01*
X191480213Y-69888608D01*
X191722397Y-69819143D01*
X191909144Y-69295698D01*
X191881362Y-68740632D01*
X191722397Y-68356857D01*
X191480213Y-68287392D01*
X190679605Y-69088000D01*
X190320395Y-69088000D01*
X189519787Y-68287392D01*
X189277603Y-68356857D01*
X189227491Y-68497318D01*
X189145010Y-68297697D01*
X188955432Y-68107787D01*
X189699392Y-68107787D01*
X190500000Y-68908395D01*
X191300608Y-68107787D01*
X191231143Y-67865603D01*
X190707698Y-67678856D01*
X190152632Y-67706638D01*
X189768857Y-67865603D01*
X189699392Y-68107787D01*
X188955432Y-68107787D01*
X188752370Y-67904371D01*
X188239100Y-67691243D01*
X187683339Y-67690758D01*
X187169697Y-67902990D01*
X186776371Y-68295630D01*
X186563243Y-68808900D01*
X186562758Y-69364661D01*
X179196759Y-69364661D01*
X179197242Y-68811339D01*
X178985010Y-68297697D01*
X178592370Y-67904371D01*
X178079100Y-67691243D01*
X177523339Y-67690758D01*
X177009697Y-67902990D01*
X176616371Y-68295630D01*
X176403243Y-68808900D01*
X176402758Y-69364661D01*
X173846249Y-69364661D01*
X173846774Y-68764306D01*
X173598462Y-68163345D01*
X173139073Y-67703154D01*
X172538547Y-67453794D01*
X171888306Y-67453226D01*
X171287345Y-67701538D01*
X170827154Y-68160927D01*
X170577794Y-68761453D01*
X170577226Y-69411694D01*
X157590208Y-69411694D01*
X157590774Y-68764306D01*
X157342462Y-68163345D01*
X156883073Y-67703154D01*
X156282547Y-67453794D01*
X155632306Y-67453226D01*
X155031345Y-67701538D01*
X154571154Y-68160927D01*
X154321794Y-68761453D01*
X154321226Y-69411694D01*
X154286239Y-69411694D01*
X154304757Y-69367100D01*
X154305242Y-68811339D01*
X154093010Y-68297697D01*
X153700370Y-67904371D01*
X153187100Y-67691243D01*
X152631339Y-67690758D01*
X152117697Y-67902990D01*
X151724371Y-68295630D01*
X151511243Y-68808900D01*
X151510758Y-69364661D01*
X144144759Y-69364661D01*
X144145242Y-68811339D01*
X143933010Y-68297697D01*
X143540370Y-67904371D01*
X143027100Y-67691243D01*
X142471339Y-67690758D01*
X141957697Y-67902990D01*
X141564371Y-68295630D01*
X141478051Y-68503512D01*
X141393010Y-68297697D01*
X141000370Y-67904371D01*
X140487100Y-67691243D01*
X139931339Y-67690758D01*
X139417697Y-67902990D01*
X139024371Y-68295630D01*
X138811243Y-68808900D01*
X138810758Y-69364661D01*
X115810147Y-69364661D01*
X115824117Y-66011967D01*
X121804430Y-66011967D01*
X121804430Y-67084033D01*
X121909900Y-67614268D01*
X122210254Y-68063779D01*
X122659765Y-68364133D01*
X123190000Y-68469603D01*
X123720235Y-68364133D01*
X124169746Y-68063779D01*
X124470100Y-67614268D01*
X124471950Y-67604968D01*
X124498501Y-67694677D01*
X124840056Y-68116658D01*
X125317097Y-68375810D01*
X125388725Y-68389993D01*
X125603000Y-68267339D01*
X125603000Y-66675000D01*
X125583000Y-66675000D01*
X125583000Y-66421000D01*
X125603000Y-66421000D01*
X125603000Y-64828661D01*
X125857000Y-64828661D01*
X125857000Y-66421000D01*
X125877000Y-66421000D01*
X125877000Y-66675000D01*
X125857000Y-66675000D01*
X125857000Y-68267339D01*
X126071275Y-68389993D01*
X126142903Y-68375810D01*
X126619944Y-68116658D01*
X126961499Y-67694677D01*
X126988050Y-67604968D01*
X126989900Y-67614268D01*
X127290254Y-68063779D01*
X127739765Y-68364133D01*
X128270000Y-68469603D01*
X128800235Y-68364133D01*
X129249746Y-68063779D01*
X129550100Y-67614268D01*
X129655570Y-67084033D01*
X129655570Y-66766213D01*
X139407392Y-66766213D01*
X139476857Y-67008397D01*
X140000302Y-67195144D01*
X140555368Y-67167362D01*
X140939143Y-67008397D01*
X141008608Y-66766213D01*
X140208000Y-65965605D01*
X139407392Y-66766213D01*
X129655570Y-66766213D01*
X129655570Y-66011967D01*
X129569309Y-65578302D01*
X138798856Y-65578302D01*
X138826638Y-66133368D01*
X138985603Y-66517143D01*
X139227787Y-66586608D01*
X140028395Y-65786000D01*
X140387605Y-65786000D01*
X141188213Y-66586608D01*
X141430397Y-66517143D01*
X141480509Y-66376682D01*
X141562990Y-66576303D01*
X141955630Y-66969629D01*
X142468900Y-67182757D01*
X143024661Y-67183242D01*
X143538303Y-66971010D01*
X143931629Y-66578370D01*
X144144757Y-66065100D01*
X144144759Y-66062661D01*
X151510758Y-66062661D01*
X151722990Y-66576303D01*
X152115630Y-66969629D01*
X152628900Y-67182757D01*
X153184661Y-67183242D01*
X153698303Y-66971010D01*
X154091629Y-66578370D01*
X154286239Y-66109694D01*
X156861226Y-66109694D01*
X157109538Y-66710655D01*
X157568927Y-67170846D01*
X158169453Y-67420206D01*
X158819694Y-67420774D01*
X159420655Y-67172462D01*
X159880846Y-66713073D01*
X160130206Y-66112547D01*
X160130208Y-66109694D01*
X173117226Y-66109694D01*
X173365538Y-66710655D01*
X173824927Y-67170846D01*
X174425453Y-67420206D01*
X175075694Y-67420774D01*
X175676655Y-67172462D01*
X176136846Y-66713073D01*
X176386206Y-66112547D01*
X176386249Y-66062661D01*
X176402758Y-66062661D01*
X176614990Y-66576303D01*
X177007630Y-66969629D01*
X177520900Y-67182757D01*
X178076661Y-67183242D01*
X178590303Y-66971010D01*
X178983629Y-66578370D01*
X179196757Y-66065100D01*
X179196759Y-66062661D01*
X186562758Y-66062661D01*
X186774990Y-66576303D01*
X187167630Y-66969629D01*
X187680900Y-67182757D01*
X188236661Y-67183242D01*
X188750303Y-66971010D01*
X189143629Y-66578370D01*
X189229949Y-66370488D01*
X189314990Y-66576303D01*
X189707630Y-66969629D01*
X190220900Y-67182757D01*
X190776661Y-67183242D01*
X191290303Y-66971010D01*
X191683629Y-66578370D01*
X191896757Y-66065100D01*
X191897242Y-65509339D01*
X191685010Y-64995697D01*
X191292370Y-64602371D01*
X190779100Y-64389243D01*
X190223339Y-64388758D01*
X189709697Y-64600990D01*
X189316371Y-64993630D01*
X189230051Y-65201512D01*
X189145010Y-64995697D01*
X188752370Y-64602371D01*
X188239100Y-64389243D01*
X187683339Y-64388758D01*
X187169697Y-64600990D01*
X186776371Y-64993630D01*
X186563243Y-65506900D01*
X186562758Y-66062661D01*
X179196759Y-66062661D01*
X179197242Y-65509339D01*
X178985010Y-64995697D01*
X178592370Y-64602371D01*
X178079100Y-64389243D01*
X177523339Y-64388758D01*
X177009697Y-64600990D01*
X176616371Y-64993630D01*
X176403243Y-65506900D01*
X176402758Y-66062661D01*
X176386249Y-66062661D01*
X176386774Y-65462306D01*
X176138462Y-64861345D01*
X175679073Y-64401154D01*
X175078547Y-64151794D01*
X174428306Y-64151226D01*
X173827345Y-64399538D01*
X173367154Y-64858927D01*
X173117794Y-65459453D01*
X173117226Y-66109694D01*
X160130208Y-66109694D01*
X160130774Y-65462306D01*
X159882462Y-64861345D01*
X159423073Y-64401154D01*
X158822547Y-64151794D01*
X158172306Y-64151226D01*
X157571345Y-64399538D01*
X157111154Y-64858927D01*
X156861794Y-65459453D01*
X156861226Y-66109694D01*
X154286239Y-66109694D01*
X154304757Y-66065100D01*
X154305242Y-65509339D01*
X154093010Y-64995697D01*
X153700370Y-64602371D01*
X153187100Y-64389243D01*
X152631339Y-64388758D01*
X152117697Y-64600990D01*
X151724371Y-64993630D01*
X151511243Y-65506900D01*
X151510758Y-66062661D01*
X144144759Y-66062661D01*
X144145242Y-65509339D01*
X143933010Y-64995697D01*
X143540370Y-64602371D01*
X143027100Y-64389243D01*
X142471339Y-64388758D01*
X141957697Y-64600990D01*
X141564371Y-64993630D01*
X141484605Y-65185727D01*
X141430397Y-65054857D01*
X141188213Y-64985392D01*
X140387605Y-65786000D01*
X140028395Y-65786000D01*
X139227787Y-64985392D01*
X138985603Y-65054857D01*
X138798856Y-65578302D01*
X129569309Y-65578302D01*
X129550100Y-65481732D01*
X129249746Y-65032221D01*
X128910864Y-64805787D01*
X139407392Y-64805787D01*
X140208000Y-65606395D01*
X141008608Y-64805787D01*
X140939143Y-64563603D01*
X140415698Y-64376856D01*
X139860632Y-64404638D01*
X139476857Y-64563603D01*
X139407392Y-64805787D01*
X128910864Y-64805787D01*
X128800235Y-64731867D01*
X128270000Y-64626397D01*
X127739765Y-64731867D01*
X127290254Y-65032221D01*
X126989900Y-65481732D01*
X126988050Y-65491032D01*
X126961499Y-65401323D01*
X126619944Y-64979342D01*
X126142903Y-64720190D01*
X126071275Y-64706007D01*
X125857000Y-64828661D01*
X125603000Y-64828661D01*
X125388725Y-64706007D01*
X125317097Y-64720190D01*
X124840056Y-64979342D01*
X124498501Y-65401323D01*
X124471950Y-65491032D01*
X124470100Y-65481732D01*
X124169746Y-65032221D01*
X123720235Y-64731867D01*
X123190000Y-64626397D01*
X122659765Y-64731867D01*
X122210254Y-65032221D01*
X121909900Y-65481732D01*
X121804430Y-66011967D01*
X115824117Y-66011967D01*
X115833234Y-63823694D01*
X159909226Y-63823694D01*
X160157538Y-64424655D01*
X160616927Y-64884846D01*
X161217453Y-65134206D01*
X161867694Y-65134774D01*
X162468655Y-64886462D01*
X162928846Y-64427073D01*
X163178206Y-63826547D01*
X163178774Y-63176306D01*
X162930462Y-62575345D01*
X162471073Y-62115154D01*
X161870547Y-61865794D01*
X161220306Y-61865226D01*
X160619345Y-62113538D01*
X160159154Y-62572927D01*
X159909794Y-63173453D01*
X159909226Y-63823694D01*
X115833234Y-63823694D01*
X115849945Y-59813265D01*
X118078670Y-59813265D01*
X118368078Y-60513686D01*
X118903495Y-61050039D01*
X119603410Y-61340668D01*
X120361265Y-61341330D01*
X121061686Y-61051922D01*
X121598039Y-60516505D01*
X121888668Y-59816590D01*
X121888741Y-59732782D01*
X122485141Y-59732782D01*
X122712808Y-60283780D01*
X123134003Y-60705710D01*
X123684602Y-60934339D01*
X124280782Y-60934859D01*
X124831780Y-60707192D01*
X125253710Y-60285997D01*
X125450005Y-59813265D01*
X126078670Y-59813265D01*
X126368078Y-60513686D01*
X126903495Y-61050039D01*
X127603410Y-61340668D01*
X128361265Y-61341330D01*
X128500754Y-61283694D01*
X167529226Y-61283694D01*
X167777538Y-61884655D01*
X168236927Y-62344846D01*
X168837453Y-62594206D01*
X169487694Y-62594774D01*
X170088655Y-62346462D01*
X170548846Y-61887073D01*
X170798206Y-61286547D01*
X170798774Y-60636306D01*
X170550462Y-60035345D01*
X170091073Y-59575154D01*
X169490547Y-59325794D01*
X168840306Y-59325226D01*
X168239345Y-59573538D01*
X167779154Y-60032927D01*
X167529794Y-60633453D01*
X167529226Y-61283694D01*
X128500754Y-61283694D01*
X129061686Y-61051922D01*
X129598039Y-60516505D01*
X129888668Y-59816590D01*
X129888741Y-59732782D01*
X130485141Y-59732782D01*
X130712808Y-60283780D01*
X131134003Y-60705710D01*
X131684602Y-60934339D01*
X132280782Y-60934859D01*
X132831780Y-60707192D01*
X133253710Y-60285997D01*
X133482339Y-59735398D01*
X133482859Y-59139218D01*
X133255192Y-58588220D01*
X133109887Y-58442661D01*
X138810758Y-58442661D01*
X139022990Y-58956303D01*
X139415630Y-59349629D01*
X139928900Y-59562757D01*
X140484661Y-59563242D01*
X140998303Y-59351010D01*
X141391629Y-58958370D01*
X141477949Y-58750488D01*
X141562990Y-58956303D01*
X141955630Y-59349629D01*
X142468900Y-59562757D01*
X143024661Y-59563242D01*
X143538303Y-59351010D01*
X143931629Y-58958370D01*
X144144757Y-58445100D01*
X144144759Y-58442661D01*
X151510758Y-58442661D01*
X151722990Y-58956303D01*
X152115630Y-59349629D01*
X152628900Y-59562757D01*
X153184661Y-59563242D01*
X153698303Y-59351010D01*
X154091629Y-58958370D01*
X154286239Y-58489694D01*
X154321226Y-58489694D01*
X154569538Y-59090655D01*
X155028927Y-59550846D01*
X155629453Y-59800206D01*
X156279694Y-59800774D01*
X156880655Y-59552462D01*
X157340846Y-59093073D01*
X157590206Y-58492547D01*
X157590208Y-58489694D01*
X170577226Y-58489694D01*
X170825538Y-59090655D01*
X171284927Y-59550846D01*
X171885453Y-59800206D01*
X172535694Y-59800774D01*
X173136655Y-59552462D01*
X173596846Y-59093073D01*
X173846206Y-58492547D01*
X173846249Y-58442661D01*
X176402758Y-58442661D01*
X176614990Y-58956303D01*
X177007630Y-59349629D01*
X177520900Y-59562757D01*
X178076661Y-59563242D01*
X178590303Y-59351010D01*
X178983629Y-58958370D01*
X179196757Y-58445100D01*
X179196759Y-58442661D01*
X186562758Y-58442661D01*
X186774990Y-58956303D01*
X187167630Y-59349629D01*
X187680900Y-59562757D01*
X188236661Y-59563242D01*
X188750303Y-59351010D01*
X188955457Y-59146213D01*
X189699392Y-59146213D01*
X189768857Y-59388397D01*
X190292302Y-59575144D01*
X190847368Y-59547362D01*
X191231143Y-59388397D01*
X191300608Y-59146213D01*
X190500000Y-58345605D01*
X189699392Y-59146213D01*
X188955457Y-59146213D01*
X189143629Y-58958370D01*
X189223395Y-58766273D01*
X189277603Y-58897143D01*
X189519787Y-58966608D01*
X190320395Y-58166000D01*
X190679605Y-58166000D01*
X191480213Y-58966608D01*
X191722397Y-58897143D01*
X191909144Y-58373698D01*
X191881362Y-57818632D01*
X191722397Y-57434857D01*
X191480213Y-57365392D01*
X190679605Y-58166000D01*
X190320395Y-58166000D01*
X189519787Y-57365392D01*
X189277603Y-57434857D01*
X189227491Y-57575318D01*
X189145010Y-57375697D01*
X188955432Y-57185787D01*
X189699392Y-57185787D01*
X190500000Y-57986395D01*
X191300608Y-57185787D01*
X191231143Y-56943603D01*
X190707698Y-56756856D01*
X190152632Y-56784638D01*
X189768857Y-56943603D01*
X189699392Y-57185787D01*
X188955432Y-57185787D01*
X188752370Y-56982371D01*
X188239100Y-56769243D01*
X187683339Y-56768758D01*
X187169697Y-56980990D01*
X186776371Y-57373630D01*
X186563243Y-57886900D01*
X186562758Y-58442661D01*
X179196759Y-58442661D01*
X179197242Y-57889339D01*
X178985010Y-57375697D01*
X178592370Y-56982371D01*
X178079100Y-56769243D01*
X177523339Y-56768758D01*
X177009697Y-56980990D01*
X176616371Y-57373630D01*
X176403243Y-57886900D01*
X176402758Y-58442661D01*
X173846249Y-58442661D01*
X173846774Y-57842306D01*
X173598462Y-57241345D01*
X173139073Y-56781154D01*
X172538547Y-56531794D01*
X171888306Y-56531226D01*
X171287345Y-56779538D01*
X170827154Y-57238927D01*
X170577794Y-57839453D01*
X170577226Y-58489694D01*
X157590208Y-58489694D01*
X157590774Y-57842306D01*
X157342462Y-57241345D01*
X156883073Y-56781154D01*
X156282547Y-56531794D01*
X155632306Y-56531226D01*
X155031345Y-56779538D01*
X154571154Y-57238927D01*
X154321794Y-57839453D01*
X154321226Y-58489694D01*
X154286239Y-58489694D01*
X154304757Y-58445100D01*
X154305242Y-57889339D01*
X154093010Y-57375697D01*
X153700370Y-56982371D01*
X153187100Y-56769243D01*
X152631339Y-56768758D01*
X152117697Y-56980990D01*
X151724371Y-57373630D01*
X151511243Y-57886900D01*
X151510758Y-58442661D01*
X144144759Y-58442661D01*
X144145242Y-57889339D01*
X143933010Y-57375697D01*
X143540370Y-56982371D01*
X143027100Y-56769243D01*
X142471339Y-56768758D01*
X141957697Y-56980990D01*
X141564371Y-57373630D01*
X141478051Y-57581512D01*
X141393010Y-57375697D01*
X141000370Y-56982371D01*
X140487100Y-56769243D01*
X139931339Y-56768758D01*
X139417697Y-56980990D01*
X139024371Y-57373630D01*
X138811243Y-57886900D01*
X138810758Y-58442661D01*
X133109887Y-58442661D01*
X132833997Y-58166290D01*
X132283398Y-57937661D01*
X131687218Y-57937141D01*
X131136220Y-58164808D01*
X130714290Y-58586003D01*
X130485661Y-59136602D01*
X130485141Y-59732782D01*
X129888741Y-59732782D01*
X129889330Y-59058735D01*
X129599922Y-58358314D01*
X129064505Y-57821961D01*
X128364590Y-57531332D01*
X127606735Y-57530670D01*
X126906314Y-57820078D01*
X126369961Y-58355495D01*
X126079332Y-59055410D01*
X126078670Y-59813265D01*
X125450005Y-59813265D01*
X125482339Y-59735398D01*
X125482859Y-59139218D01*
X125255192Y-58588220D01*
X124833997Y-58166290D01*
X124283398Y-57937661D01*
X123687218Y-57937141D01*
X123136220Y-58164808D01*
X122714290Y-58586003D01*
X122485661Y-59136602D01*
X122485141Y-59732782D01*
X121888741Y-59732782D01*
X121889330Y-59058735D01*
X121599922Y-58358314D01*
X121064505Y-57821961D01*
X120364590Y-57531332D01*
X119606735Y-57530670D01*
X118906314Y-57820078D01*
X118369961Y-58355495D01*
X118079332Y-59055410D01*
X118078670Y-59813265D01*
X115849945Y-59813265D01*
X115869897Y-55024528D01*
X190509077Y-55024528D01*
X190699364Y-55369271D01*
X191580591Y-55720956D01*
X192529323Y-55708641D01*
X193348636Y-55369271D01*
X193538923Y-55024528D01*
X192024000Y-53509605D01*
X190509077Y-55024528D01*
X115869897Y-55024528D01*
X115876822Y-53362661D01*
X144906758Y-53362661D01*
X145118990Y-53876303D01*
X145511630Y-54269629D01*
X146024900Y-54482757D01*
X146580661Y-54483242D01*
X147094303Y-54271010D01*
X147487629Y-53878370D01*
X147700757Y-53365100D01*
X147700759Y-53362661D01*
X155066758Y-53362661D01*
X155278990Y-53876303D01*
X155671630Y-54269629D01*
X156184900Y-54482757D01*
X156740661Y-54483242D01*
X157254303Y-54271010D01*
X157647629Y-53878370D01*
X157733949Y-53670488D01*
X157818990Y-53876303D01*
X158211630Y-54269629D01*
X158724900Y-54482757D01*
X159280661Y-54483242D01*
X159794303Y-54271010D01*
X160187629Y-53878370D01*
X160400757Y-53365100D01*
X160401174Y-52886591D01*
X189633044Y-52886591D01*
X189645359Y-53835323D01*
X189984729Y-54654636D01*
X190329472Y-54844923D01*
X191844395Y-53330000D01*
X190329472Y-51815077D01*
X189984729Y-52005364D01*
X189633044Y-52886591D01*
X160401174Y-52886591D01*
X160401242Y-52809339D01*
X160189010Y-52295697D01*
X159796370Y-51902371D01*
X159283100Y-51689243D01*
X158727339Y-51688758D01*
X158213697Y-51900990D01*
X157820371Y-52293630D01*
X157734051Y-52501512D01*
X157649010Y-52295697D01*
X157256370Y-51902371D01*
X156743100Y-51689243D01*
X156187339Y-51688758D01*
X155673697Y-51900990D01*
X155280371Y-52293630D01*
X155067243Y-52806900D01*
X155066758Y-53362661D01*
X147700759Y-53362661D01*
X147701242Y-52809339D01*
X147489010Y-52295697D01*
X147096370Y-51902371D01*
X146583100Y-51689243D01*
X146027339Y-51688758D01*
X145513697Y-51900990D01*
X145120371Y-52293630D01*
X144907243Y-52806900D01*
X144906758Y-53362661D01*
X115876822Y-53362661D01*
X115884019Y-51635472D01*
X190509077Y-51635472D01*
X192024000Y-53150395D01*
X193538923Y-51635472D01*
X193348636Y-51290729D01*
X192467409Y-50939044D01*
X191518677Y-50951359D01*
X190699364Y-51290729D01*
X190509077Y-51635472D01*
X115884019Y-51635472D01*
X115890279Y-50133250D01*
X116395500Y-50133250D01*
X116395500Y-50989810D01*
X116492173Y-51223199D01*
X116670802Y-51401827D01*
X116904191Y-51498500D01*
X117760750Y-51498500D01*
X117919500Y-51339750D01*
X117919500Y-49974500D01*
X118173500Y-49974500D01*
X118173500Y-51339750D01*
X118332250Y-51498500D01*
X119188809Y-51498500D01*
X119422198Y-51401827D01*
X119600827Y-51223199D01*
X119697500Y-50989810D01*
X119697500Y-50133250D01*
X119538750Y-49974500D01*
X118173500Y-49974500D01*
X117919500Y-49974500D01*
X116554250Y-49974500D01*
X116395500Y-50133250D01*
X115890279Y-50133250D01*
X115902053Y-47307500D01*
X116363155Y-47307500D01*
X116488830Y-47939310D01*
X116713466Y-48275501D01*
X116670802Y-48293173D01*
X116492173Y-48471801D01*
X116395500Y-48705190D01*
X116395500Y-49561750D01*
X116554250Y-49720500D01*
X117919500Y-49720500D01*
X117919500Y-49700500D01*
X118173500Y-49700500D01*
X118173500Y-49720500D01*
X119538750Y-49720500D01*
X119697500Y-49561750D01*
X119697500Y-48705190D01*
X119600827Y-48471801D01*
X119422198Y-48293173D01*
X119379534Y-48275501D01*
X119604170Y-47939310D01*
X119627565Y-47821694D01*
X135273766Y-47821694D01*
X135522078Y-48422655D01*
X135981467Y-48882846D01*
X136581993Y-49132206D01*
X137232234Y-49132774D01*
X137833195Y-48884462D01*
X138293386Y-48425073D01*
X138542746Y-47824547D01*
X138542748Y-47821694D01*
X141872686Y-47821694D01*
X142120998Y-48422655D01*
X142580387Y-48882846D01*
X143180913Y-49132206D01*
X143831154Y-49132774D01*
X144406611Y-48895000D01*
X160241655Y-48895000D01*
X160367330Y-49526810D01*
X160725222Y-50062433D01*
X161260845Y-50420325D01*
X161892655Y-50546000D01*
X161957345Y-50546000D01*
X162589155Y-50420325D01*
X163124778Y-50062433D01*
X163264185Y-49853795D01*
X182588716Y-49853795D01*
X182837106Y-50454943D01*
X183296637Y-50915278D01*
X183897352Y-51164716D01*
X184547795Y-51165284D01*
X185148943Y-50916894D01*
X185609278Y-50457363D01*
X185858716Y-49856648D01*
X185859284Y-49206205D01*
X185610894Y-48605057D01*
X185151363Y-48144722D01*
X184550648Y-47895284D01*
X183900205Y-47894716D01*
X183299057Y-48143106D01*
X182838722Y-48602637D01*
X182589284Y-49203352D01*
X182588716Y-49853795D01*
X163264185Y-49853795D01*
X163482670Y-49526810D01*
X163608345Y-48895000D01*
X163482670Y-48263190D01*
X163258034Y-47926999D01*
X163300698Y-47909327D01*
X163479327Y-47730699D01*
X163576000Y-47497310D01*
X163576000Y-47424528D01*
X190509077Y-47424528D01*
X190699364Y-47769271D01*
X191580591Y-48120956D01*
X192529323Y-48108641D01*
X193348636Y-47769271D01*
X193538923Y-47424528D01*
X192024000Y-45909605D01*
X190509077Y-47424528D01*
X163576000Y-47424528D01*
X163576000Y-46640750D01*
X163417250Y-46482000D01*
X162052000Y-46482000D01*
X162052000Y-46502000D01*
X161798000Y-46502000D01*
X161798000Y-46482000D01*
X160432750Y-46482000D01*
X160274000Y-46640750D01*
X160274000Y-47497310D01*
X160370673Y-47730699D01*
X160549302Y-47909327D01*
X160591966Y-47926999D01*
X160367330Y-48263190D01*
X160241655Y-48895000D01*
X144406611Y-48895000D01*
X144432115Y-48884462D01*
X144892306Y-48425073D01*
X145141666Y-47824547D01*
X145142234Y-47174306D01*
X144893922Y-46573345D01*
X144434533Y-46113154D01*
X143834007Y-45863794D01*
X143183766Y-45863226D01*
X142582805Y-46111538D01*
X142122614Y-46570927D01*
X141873254Y-47171453D01*
X141872686Y-47821694D01*
X138542748Y-47821694D01*
X138543314Y-47174306D01*
X138295002Y-46573345D01*
X137835613Y-46113154D01*
X137235087Y-45863794D01*
X136584846Y-45863226D01*
X135983885Y-46111538D01*
X135523694Y-46570927D01*
X135274334Y-47171453D01*
X135273766Y-47821694D01*
X119627565Y-47821694D01*
X119729845Y-47307500D01*
X119604170Y-46675690D01*
X119246278Y-46140067D01*
X118710655Y-45782175D01*
X118512005Y-45742661D01*
X144906758Y-45742661D01*
X145118990Y-46256303D01*
X145511630Y-46649629D01*
X146024900Y-46862757D01*
X146580661Y-46863242D01*
X147094303Y-46651010D01*
X147487629Y-46258370D01*
X147700757Y-45745100D01*
X147700759Y-45742661D01*
X155066758Y-45742661D01*
X155278990Y-46256303D01*
X155671630Y-46649629D01*
X156184900Y-46862757D01*
X156740661Y-46863242D01*
X157254303Y-46651010D01*
X157647629Y-46258370D01*
X157733949Y-46050488D01*
X157818990Y-46256303D01*
X158211630Y-46649629D01*
X158724900Y-46862757D01*
X159280661Y-46863242D01*
X159794303Y-46651010D01*
X160187629Y-46258370D01*
X160274000Y-46050365D01*
X160274000Y-46069250D01*
X160432750Y-46228000D01*
X161798000Y-46228000D01*
X161798000Y-44862750D01*
X162052000Y-44862750D01*
X162052000Y-46228000D01*
X163417250Y-46228000D01*
X163576000Y-46069250D01*
X163576000Y-45286591D01*
X189633044Y-45286591D01*
X189645359Y-46235323D01*
X189984729Y-47054636D01*
X190329472Y-47244923D01*
X191844395Y-45730000D01*
X190329472Y-44215077D01*
X189984729Y-44405364D01*
X189633044Y-45286591D01*
X163576000Y-45286591D01*
X163576000Y-45212690D01*
X163479327Y-44979301D01*
X163300698Y-44800673D01*
X163067309Y-44704000D01*
X162210750Y-44704000D01*
X162052000Y-44862750D01*
X161798000Y-44862750D01*
X161639250Y-44704000D01*
X160782691Y-44704000D01*
X160549302Y-44800673D01*
X160370673Y-44979301D01*
X160342530Y-45047244D01*
X160189010Y-44675697D01*
X159796370Y-44282371D01*
X159283100Y-44069243D01*
X158727339Y-44068758D01*
X158213697Y-44280990D01*
X157820371Y-44673630D01*
X157734051Y-44881512D01*
X157649010Y-44675697D01*
X157256370Y-44282371D01*
X156743100Y-44069243D01*
X156187339Y-44068758D01*
X155673697Y-44280990D01*
X155280371Y-44673630D01*
X155067243Y-45186900D01*
X155066758Y-45742661D01*
X147700759Y-45742661D01*
X147701242Y-45189339D01*
X147489010Y-44675697D01*
X147096370Y-44282371D01*
X146583100Y-44069243D01*
X146027339Y-44068758D01*
X145513697Y-44280990D01*
X145120371Y-44673630D01*
X144907243Y-45186900D01*
X144906758Y-45742661D01*
X118512005Y-45742661D01*
X118078845Y-45656500D01*
X118014155Y-45656500D01*
X117382345Y-45782175D01*
X116846722Y-46140067D01*
X116488830Y-46675690D01*
X116363155Y-47307500D01*
X115902053Y-47307500D01*
X115915686Y-44035472D01*
X190509077Y-44035472D01*
X192024000Y-45550395D01*
X193538923Y-44035472D01*
X193348636Y-43690729D01*
X192467409Y-43339044D01*
X191518677Y-43351359D01*
X190699364Y-43690729D01*
X190509077Y-44035472D01*
X115915686Y-44035472D01*
X115922029Y-42513250D01*
X134810500Y-42513250D01*
X134810500Y-43369809D01*
X134907173Y-43603198D01*
X135085801Y-43781827D01*
X135319190Y-43878500D01*
X136175750Y-43878500D01*
X136334500Y-43719750D01*
X136334500Y-42354500D01*
X134969250Y-42354500D01*
X134810500Y-42513250D01*
X115922029Y-42513250D01*
X115927979Y-41085191D01*
X134810500Y-41085191D01*
X134810500Y-41941750D01*
X134969250Y-42100500D01*
X136334500Y-42100500D01*
X136334500Y-40735250D01*
X136588500Y-40735250D01*
X136588500Y-42100500D01*
X136608500Y-42100500D01*
X136608500Y-42354500D01*
X136588500Y-42354500D01*
X136588500Y-43719750D01*
X136747250Y-43878500D01*
X137603810Y-43878500D01*
X137837199Y-43781827D01*
X138015827Y-43603198D01*
X138033499Y-43560534D01*
X138369690Y-43785170D01*
X139001500Y-43910845D01*
X139633310Y-43785170D01*
X140168933Y-43427278D01*
X140526825Y-42891655D01*
X140652500Y-42259845D01*
X140652500Y-42195155D01*
X140526825Y-41563345D01*
X140168933Y-41027722D01*
X139633310Y-40669830D01*
X139001500Y-40544155D01*
X138369690Y-40669830D01*
X138033499Y-40894466D01*
X138015827Y-40851802D01*
X137837199Y-40673173D01*
X137603810Y-40576500D01*
X136747250Y-40576500D01*
X136588500Y-40735250D01*
X136334500Y-40735250D01*
X136175750Y-40576500D01*
X135319190Y-40576500D01*
X135085801Y-40673173D01*
X134907173Y-40851802D01*
X134810500Y-41085191D01*
X115927979Y-41085191D01*
X115950472Y-35687000D01*
X194315000Y-35687000D01*
X194315000Y-45013093D01*
X194315000Y-45013093D01*
G37*
X194315000Y-45013093D02*
X194063271Y-44405364D01*
X193718528Y-44215077D01*
X192203605Y-45730000D01*
X193718528Y-47244923D01*
X194063271Y-47054636D01*
X194315000Y-46423872D01*
X194315000Y-52613093D01*
X194063271Y-52005364D01*
X193718528Y-51815077D01*
X192203605Y-53330000D01*
X193718528Y-54844923D01*
X194063271Y-54654636D01*
X194315000Y-54023872D01*
X194315000Y-133985000D01*
X115824000Y-133985000D01*
X115824000Y-132039784D01*
X124777313Y-132039784D01*
X124941311Y-132436689D01*
X125244714Y-132740622D01*
X125641332Y-132905313D01*
X126070784Y-132905687D01*
X126467689Y-132741689D01*
X126771622Y-132438286D01*
X126936313Y-132041668D01*
X126936687Y-131612216D01*
X126876959Y-131467661D01*
X138747258Y-131467661D01*
X138959490Y-131981303D01*
X139352130Y-132374629D01*
X139865400Y-132587757D01*
X140421161Y-132588242D01*
X140934803Y-132376010D01*
X141328129Y-131983370D01*
X141414449Y-131775488D01*
X141499490Y-131981303D01*
X141892130Y-132374629D01*
X142405400Y-132587757D01*
X142961161Y-132588242D01*
X143474803Y-132376010D01*
X143868129Y-131983370D01*
X144081257Y-131470100D01*
X144081259Y-131467661D01*
X151447258Y-131467661D01*
X151659490Y-131981303D01*
X152052130Y-132374629D01*
X152565400Y-132587757D01*
X153121161Y-132588242D01*
X153634803Y-132376010D01*
X154028129Y-131983370D01*
X154241257Y-131470100D01*
X154241480Y-131213661D01*
X170751258Y-131213661D01*
X170963490Y-131727303D01*
X171356130Y-132120629D01*
X171869400Y-132333757D01*
X172425161Y-132334242D01*
X172938803Y-132122010D01*
X173332129Y-131729370D01*
X173545257Y-131216100D01*
X173545259Y-131213661D01*
X180911258Y-131213661D01*
X181123490Y-131727303D01*
X181516130Y-132120629D01*
X182029400Y-132333757D01*
X182585161Y-132334242D01*
X183098803Y-132122010D01*
X183303957Y-131917213D01*
X184047892Y-131917213D01*
X184117357Y-132159397D01*
X184640802Y-132346144D01*
X185195868Y-132318362D01*
X185579643Y-132159397D01*
X185649108Y-131917213D01*
X184848500Y-131116605D01*
X184047892Y-131917213D01*
X183303957Y-131917213D01*
X183492129Y-131729370D01*
X183571895Y-131537273D01*
X183626103Y-131668143D01*
X183868287Y-131737608D01*
X184668895Y-130937000D01*
X185028105Y-130937000D01*
X185828713Y-131737608D01*
X186070897Y-131668143D01*
X186257644Y-131144698D01*
X186229862Y-130589632D01*
X186070897Y-130205857D01*
X185828713Y-130136392D01*
X185028105Y-130937000D01*
X184668895Y-130937000D01*
X183868287Y-130136392D01*
X183626103Y-130205857D01*
X183575991Y-130346318D01*
X183493510Y-130146697D01*
X183303932Y-129956787D01*
X184047892Y-129956787D01*
X184848500Y-130757395D01*
X185649108Y-129956787D01*
X185579643Y-129714603D01*
X185056198Y-129527856D01*
X184501132Y-129555638D01*
X184117357Y-129714603D01*
X184047892Y-129956787D01*
X183303932Y-129956787D01*
X183100870Y-129753371D01*
X182587600Y-129540243D01*
X182031839Y-129539758D01*
X181518197Y-129751990D01*
X181124871Y-130144630D01*
X180911743Y-130657900D01*
X180911258Y-131213661D01*
X173545259Y-131213661D01*
X173545742Y-130660339D01*
X173333510Y-130146697D01*
X172940870Y-129753371D01*
X172427600Y-129540243D01*
X171871839Y-129539758D01*
X171358197Y-129751990D01*
X170964871Y-130144630D01*
X170751743Y-130657900D01*
X170751258Y-131213661D01*
X154241480Y-131213661D01*
X154241742Y-130914339D01*
X154029510Y-130400697D01*
X153636870Y-130007371D01*
X153123600Y-129794243D01*
X152567839Y-129793758D01*
X152054197Y-130005990D01*
X151660871Y-130398630D01*
X151447743Y-130911900D01*
X151447258Y-131467661D01*
X144081259Y-131467661D01*
X144081742Y-130914339D01*
X143869510Y-130400697D01*
X143476870Y-130007371D01*
X142963600Y-129794243D01*
X142407839Y-129793758D01*
X141894197Y-130005990D01*
X141500871Y-130398630D01*
X141414551Y-130606512D01*
X141329510Y-130400697D01*
X140936870Y-130007371D01*
X140423600Y-129794243D01*
X139867839Y-129793758D01*
X139354197Y-130005990D01*
X138960871Y-130398630D01*
X138747743Y-130911900D01*
X138747258Y-131467661D01*
X126876959Y-131467661D01*
X126772689Y-131215311D01*
X126469286Y-130911378D01*
X126072668Y-130746687D01*
X125643216Y-130746313D01*
X125246311Y-130910311D01*
X124942378Y-131213714D01*
X124777687Y-131610332D01*
X124777313Y-132039784D01*
X115824000Y-132039784D01*
X115824000Y-130007784D01*
X127317313Y-130007784D01*
X127481311Y-130404689D01*
X127784714Y-130708622D01*
X128181332Y-130873313D01*
X128610784Y-130873687D01*
X129007689Y-130709689D01*
X129311622Y-130406286D01*
X129476313Y-130009668D01*
X129476687Y-129580216D01*
X129312689Y-129183311D01*
X129138507Y-129008825D01*
X129325189Y-128931689D01*
X129629122Y-128628286D01*
X129793813Y-128231668D01*
X129794187Y-127802216D01*
X129630189Y-127405311D01*
X129326786Y-127101378D01*
X128930168Y-126936687D01*
X128500716Y-126936313D01*
X128103811Y-127100311D01*
X127799878Y-127403714D01*
X127635187Y-127800332D01*
X127634813Y-128229784D01*
X127798811Y-128626689D01*
X127972993Y-128801175D01*
X127786311Y-128878311D01*
X127482378Y-129181714D01*
X127317687Y-129578332D01*
X127317313Y-130007784D01*
X115824000Y-130007784D01*
X115824000Y-124587000D01*
X115819551Y-124565026D01*
X117671042Y-124565026D01*
X117843312Y-124980947D01*
X118237510Y-125412821D01*
X118766973Y-125660968D01*
X118999000Y-125540469D01*
X118999000Y-124333000D01*
X117792183Y-124333000D01*
X117671042Y-124565026D01*
X115819551Y-124565026D01*
X115813994Y-124537590D01*
X115785553Y-124495965D01*
X115760500Y-124479844D01*
X115760500Y-122025026D01*
X117671042Y-122025026D01*
X117843312Y-122440947D01*
X118237510Y-122872821D01*
X118372313Y-122936000D01*
X118237510Y-122999179D01*
X117843312Y-123431053D01*
X117671042Y-123846974D01*
X117792183Y-124079000D01*
X118999000Y-124079000D01*
X118999000Y-121793000D01*
X117792183Y-121793000D01*
X117671042Y-122025026D01*
X115760500Y-122025026D01*
X115760500Y-119485026D01*
X117671042Y-119485026D01*
X117843312Y-119900947D01*
X118237510Y-120332821D01*
X118372313Y-120396000D01*
X118237510Y-120459179D01*
X117843312Y-120891053D01*
X117671042Y-121306974D01*
X117792183Y-121539000D01*
X118999000Y-121539000D01*
X118999000Y-119253000D01*
X117792183Y-119253000D01*
X117671042Y-119485026D01*
X115760500Y-119485026D01*
X115760500Y-108966000D01*
X117598041Y-108966000D01*
X117712115Y-109539489D01*
X118036971Y-110025670D01*
X118351752Y-110236000D01*
X118036971Y-110446330D01*
X117712115Y-110932511D01*
X117598041Y-111506000D01*
X117712115Y-112079489D01*
X118036971Y-112565670D01*
X118351752Y-112776000D01*
X118036971Y-112986330D01*
X117712115Y-113472511D01*
X117598041Y-114046000D01*
X117712115Y-114619489D01*
X118036971Y-115105670D01*
X118351752Y-115316000D01*
X118036971Y-115526330D01*
X117712115Y-116012511D01*
X117598041Y-116586000D01*
X117712115Y-117159489D01*
X118036971Y-117645670D01*
X118360228Y-117861664D01*
X118237510Y-117919179D01*
X117843312Y-118351053D01*
X117671042Y-118766974D01*
X117792183Y-118999000D01*
X118999000Y-118999000D01*
X118999000Y-118979000D01*
X119253000Y-118979000D01*
X119253000Y-118999000D01*
X119273000Y-118999000D01*
X119273000Y-119253000D01*
X119253000Y-119253000D01*
X119253000Y-121539000D01*
X119273000Y-121539000D01*
X119273000Y-121793000D01*
X119253000Y-121793000D01*
X119253000Y-124079000D01*
X119273000Y-124079000D01*
X119273000Y-124333000D01*
X119253000Y-124333000D01*
X119253000Y-125540469D01*
X119485027Y-125660968D01*
X120014490Y-125412821D01*
X120184495Y-125226567D01*
X120199238Y-125304917D01*
X120338310Y-125521041D01*
X120550510Y-125666031D01*
X120802400Y-125717040D01*
X122529600Y-125717040D01*
X122764917Y-125672762D01*
X122981041Y-125533690D01*
X123126031Y-125321490D01*
X123177040Y-125069600D01*
X123177040Y-124551213D01*
X139343892Y-124551213D01*
X139413357Y-124793397D01*
X139936802Y-124980144D01*
X140491868Y-124952362D01*
X140875643Y-124793397D01*
X140945108Y-124551213D01*
X140144500Y-123750605D01*
X139343892Y-124551213D01*
X123177040Y-124551213D01*
X123177040Y-123363302D01*
X138735356Y-123363302D01*
X138763138Y-123918368D01*
X138922103Y-124302143D01*
X139164287Y-124371608D01*
X139964895Y-123571000D01*
X140324105Y-123571000D01*
X141124713Y-124371608D01*
X141366897Y-124302143D01*
X141417009Y-124161682D01*
X141499490Y-124361303D01*
X141892130Y-124754629D01*
X142405400Y-124967757D01*
X142961161Y-124968242D01*
X143474803Y-124756010D01*
X143868129Y-124363370D01*
X144081257Y-123850100D01*
X144081259Y-123847661D01*
X151447258Y-123847661D01*
X151659490Y-124361303D01*
X152052130Y-124754629D01*
X152565400Y-124967757D01*
X153121161Y-124968242D01*
X153634803Y-124756010D01*
X154028129Y-124363370D01*
X154241257Y-123850100D01*
X154241480Y-123593661D01*
X170751258Y-123593661D01*
X170963490Y-124107303D01*
X171356130Y-124500629D01*
X171869400Y-124713757D01*
X172425161Y-124714242D01*
X172938803Y-124502010D01*
X173332129Y-124109370D01*
X173545257Y-123596100D01*
X173545259Y-123593661D01*
X180911258Y-123593661D01*
X181123490Y-124107303D01*
X181516130Y-124500629D01*
X182029400Y-124713757D01*
X182585161Y-124714242D01*
X183098803Y-124502010D01*
X183492129Y-124109370D01*
X183578449Y-123901488D01*
X183663490Y-124107303D01*
X184056130Y-124500629D01*
X184569400Y-124713757D01*
X185125161Y-124714242D01*
X185638803Y-124502010D01*
X186032129Y-124109370D01*
X186245257Y-123596100D01*
X186245742Y-123040339D01*
X186033510Y-122526697D01*
X185640870Y-122133371D01*
X185127600Y-121920243D01*
X184571839Y-121919758D01*
X184058197Y-122131990D01*
X183664871Y-122524630D01*
X183578551Y-122732512D01*
X183493510Y-122526697D01*
X183100870Y-122133371D01*
X182587600Y-121920243D01*
X182031839Y-121919758D01*
X181518197Y-122131990D01*
X181124871Y-122524630D01*
X180911743Y-123037900D01*
X180911258Y-123593661D01*
X173545259Y-123593661D01*
X173545742Y-123040339D01*
X173333510Y-122526697D01*
X172940870Y-122133371D01*
X172427600Y-121920243D01*
X171871839Y-121919758D01*
X171358197Y-122131990D01*
X170964871Y-122524630D01*
X170751743Y-123037900D01*
X170751258Y-123593661D01*
X154241480Y-123593661D01*
X154241742Y-123294339D01*
X154029510Y-122780697D01*
X153636870Y-122387371D01*
X153123600Y-122174243D01*
X152567839Y-122173758D01*
X152054197Y-122385990D01*
X151660871Y-122778630D01*
X151447743Y-123291900D01*
X151447258Y-123847661D01*
X144081259Y-123847661D01*
X144081742Y-123294339D01*
X143869510Y-122780697D01*
X143476870Y-122387371D01*
X142963600Y-122174243D01*
X142407839Y-122173758D01*
X141894197Y-122385990D01*
X141500871Y-122778630D01*
X141421105Y-122970727D01*
X141366897Y-122839857D01*
X141124713Y-122770392D01*
X140324105Y-123571000D01*
X139964895Y-123571000D01*
X139164287Y-122770392D01*
X138922103Y-122839857D01*
X138735356Y-123363302D01*
X123177040Y-123363302D01*
X123177040Y-123342400D01*
X123132762Y-123107083D01*
X122993690Y-122890959D01*
X122781490Y-122745969D01*
X122737869Y-122737136D01*
X122755029Y-122725670D01*
X122845155Y-122590787D01*
X139343892Y-122590787D01*
X140144500Y-123391395D01*
X140945108Y-122590787D01*
X140875643Y-122348603D01*
X140352198Y-122161856D01*
X139797132Y-122189638D01*
X139413357Y-122348603D01*
X139343892Y-122590787D01*
X122845155Y-122590787D01*
X123079885Y-122239489D01*
X123193959Y-121666000D01*
X123136317Y-121376213D01*
X139407392Y-121376213D01*
X139476857Y-121618397D01*
X140000302Y-121805144D01*
X140555368Y-121777362D01*
X140939143Y-121618397D01*
X141008608Y-121376213D01*
X140208000Y-120575605D01*
X139407392Y-121376213D01*
X123136317Y-121376213D01*
X123079885Y-121092511D01*
X122755029Y-120606330D01*
X122440248Y-120396000D01*
X122751089Y-120188302D01*
X138798856Y-120188302D01*
X138826638Y-120743368D01*
X138985603Y-121127143D01*
X139227787Y-121196608D01*
X140028395Y-120396000D01*
X140387605Y-120396000D01*
X141188213Y-121196608D01*
X141430397Y-121127143D01*
X141480509Y-120986682D01*
X141562990Y-121186303D01*
X141955630Y-121579629D01*
X142468900Y-121792757D01*
X143024661Y-121793242D01*
X143538303Y-121581010D01*
X143931629Y-121188370D01*
X144144757Y-120675100D01*
X144144759Y-120672661D01*
X151510758Y-120672661D01*
X151722990Y-121186303D01*
X152115630Y-121579629D01*
X152628900Y-121792757D01*
X153184661Y-121793242D01*
X153698303Y-121581010D01*
X154091629Y-121188370D01*
X154286239Y-120719694D01*
X156861226Y-120719694D01*
X157109538Y-121320655D01*
X157568927Y-121780846D01*
X158169453Y-122030206D01*
X158819694Y-122030774D01*
X159420655Y-121782462D01*
X159880846Y-121323073D01*
X160130206Y-120722547D01*
X160130430Y-120465694D01*
X173117226Y-120465694D01*
X173365538Y-121066655D01*
X173824927Y-121526846D01*
X174425453Y-121776206D01*
X175075694Y-121776774D01*
X175676655Y-121528462D01*
X176136846Y-121069073D01*
X176386206Y-120468547D01*
X176386249Y-120418661D01*
X176402758Y-120418661D01*
X176614990Y-120932303D01*
X177007630Y-121325629D01*
X177520900Y-121538757D01*
X178076661Y-121539242D01*
X178590303Y-121327010D01*
X178983629Y-120934370D01*
X179196757Y-120421100D01*
X179196759Y-120418661D01*
X186562758Y-120418661D01*
X186774990Y-120932303D01*
X187167630Y-121325629D01*
X187680900Y-121538757D01*
X188236661Y-121539242D01*
X188750303Y-121327010D01*
X189143629Y-120934370D01*
X189229949Y-120726488D01*
X189314990Y-120932303D01*
X189707630Y-121325629D01*
X190220900Y-121538757D01*
X190776661Y-121539242D01*
X191290303Y-121327010D01*
X191683629Y-120934370D01*
X191896757Y-120421100D01*
X191897242Y-119865339D01*
X191685010Y-119351697D01*
X191292370Y-118958371D01*
X190779100Y-118745243D01*
X190223339Y-118744758D01*
X189709697Y-118956990D01*
X189316371Y-119349630D01*
X189230051Y-119557512D01*
X189145010Y-119351697D01*
X188752370Y-118958371D01*
X188239100Y-118745243D01*
X187683339Y-118744758D01*
X187169697Y-118956990D01*
X186776371Y-119349630D01*
X186563243Y-119862900D01*
X186562758Y-120418661D01*
X179196759Y-120418661D01*
X179197242Y-119865339D01*
X178985010Y-119351697D01*
X178592370Y-118958371D01*
X178079100Y-118745243D01*
X177523339Y-118744758D01*
X177009697Y-118956990D01*
X176616371Y-119349630D01*
X176403243Y-119862900D01*
X176402758Y-120418661D01*
X176386249Y-120418661D01*
X176386774Y-119818306D01*
X176138462Y-119217345D01*
X175679073Y-118757154D01*
X175078547Y-118507794D01*
X174428306Y-118507226D01*
X173827345Y-118755538D01*
X173367154Y-119214927D01*
X173117794Y-119815453D01*
X173117226Y-120465694D01*
X160130430Y-120465694D01*
X160130774Y-120072306D01*
X159882462Y-119471345D01*
X159423073Y-119011154D01*
X158822547Y-118761794D01*
X158172306Y-118761226D01*
X157571345Y-119009538D01*
X157111154Y-119468927D01*
X156861794Y-120069453D01*
X156861226Y-120719694D01*
X154286239Y-120719694D01*
X154304757Y-120675100D01*
X154305242Y-120119339D01*
X154093010Y-119605697D01*
X153700370Y-119212371D01*
X153187100Y-118999243D01*
X152631339Y-118998758D01*
X152117697Y-119210990D01*
X151724371Y-119603630D01*
X151511243Y-120116900D01*
X151510758Y-120672661D01*
X144144759Y-120672661D01*
X144145242Y-120119339D01*
X143933010Y-119605697D01*
X143540370Y-119212371D01*
X143027100Y-118999243D01*
X142471339Y-118998758D01*
X141957697Y-119210990D01*
X141564371Y-119603630D01*
X141484605Y-119795727D01*
X141430397Y-119664857D01*
X141188213Y-119595392D01*
X140387605Y-120396000D01*
X140028395Y-120396000D01*
X139227787Y-119595392D01*
X138985603Y-119664857D01*
X138798856Y-120188302D01*
X122751089Y-120188302D01*
X122755029Y-120185670D01*
X123079885Y-119699489D01*
X123136316Y-119415787D01*
X139407392Y-119415787D01*
X140208000Y-120216395D01*
X141008608Y-119415787D01*
X140939143Y-119173603D01*
X140415698Y-118986856D01*
X139860632Y-119014638D01*
X139476857Y-119173603D01*
X139407392Y-119415787D01*
X123136316Y-119415787D01*
X123193959Y-119126000D01*
X123079885Y-118552511D01*
X122755029Y-118066330D01*
X122544553Y-117925694D01*
X159909226Y-117925694D01*
X160157538Y-118526655D01*
X160616927Y-118986846D01*
X161217453Y-119236206D01*
X161867694Y-119236774D01*
X162468655Y-118988462D01*
X162928846Y-118529073D01*
X163178206Y-117928547D01*
X163178774Y-117278306D01*
X162930462Y-116677345D01*
X162471073Y-116217154D01*
X161870547Y-115967794D01*
X161220306Y-115967226D01*
X160619345Y-116215538D01*
X160159154Y-116674927D01*
X159909794Y-117275453D01*
X159909226Y-117925694D01*
X122544553Y-117925694D01*
X122440248Y-117856000D01*
X122755029Y-117645670D01*
X123079885Y-117159489D01*
X123193959Y-116586000D01*
X123079885Y-116012511D01*
X122755029Y-115526330D01*
X122544553Y-115385694D01*
X167529226Y-115385694D01*
X167777538Y-115986655D01*
X168236927Y-116446846D01*
X168837453Y-116696206D01*
X169487694Y-116696774D01*
X170088655Y-116448462D01*
X170548846Y-115989073D01*
X170798206Y-115388547D01*
X170798774Y-114738306D01*
X170550462Y-114137345D01*
X170091073Y-113677154D01*
X169490547Y-113427794D01*
X168840306Y-113427226D01*
X168239345Y-113675538D01*
X167779154Y-114134927D01*
X167529794Y-114735453D01*
X167529226Y-115385694D01*
X122544553Y-115385694D01*
X122440248Y-115316000D01*
X122755029Y-115105670D01*
X123079885Y-114619489D01*
X123193959Y-114046000D01*
X123079885Y-113472511D01*
X122799350Y-113052661D01*
X138810758Y-113052661D01*
X139022990Y-113566303D01*
X139415630Y-113959629D01*
X139928900Y-114172757D01*
X140484661Y-114173242D01*
X140998303Y-113961010D01*
X141391629Y-113568370D01*
X141477949Y-113360488D01*
X141562990Y-113566303D01*
X141955630Y-113959629D01*
X142468900Y-114172757D01*
X143024661Y-114173242D01*
X143538303Y-113961010D01*
X143931629Y-113568370D01*
X144144757Y-113055100D01*
X144144759Y-113052661D01*
X151510758Y-113052661D01*
X151722990Y-113566303D01*
X152115630Y-113959629D01*
X152628900Y-114172757D01*
X153184661Y-114173242D01*
X153698303Y-113961010D01*
X154091629Y-113568370D01*
X154286239Y-113099694D01*
X154321226Y-113099694D01*
X154569538Y-113700655D01*
X155028927Y-114160846D01*
X155629453Y-114410206D01*
X156279694Y-114410774D01*
X156880655Y-114162462D01*
X157340846Y-113703073D01*
X157590206Y-113102547D01*
X157590430Y-112845694D01*
X170577226Y-112845694D01*
X170825538Y-113446655D01*
X171284927Y-113906846D01*
X171885453Y-114156206D01*
X172535694Y-114156774D01*
X173136655Y-113908462D01*
X173596846Y-113449073D01*
X173846206Y-112848547D01*
X173846249Y-112798661D01*
X176402758Y-112798661D01*
X176614990Y-113312303D01*
X177007630Y-113705629D01*
X177520900Y-113918757D01*
X178076661Y-113919242D01*
X178590303Y-113707010D01*
X178983629Y-113314370D01*
X179196757Y-112801100D01*
X179196759Y-112798661D01*
X186562758Y-112798661D01*
X186774990Y-113312303D01*
X187167630Y-113705629D01*
X187680900Y-113918757D01*
X188236661Y-113919242D01*
X188750303Y-113707010D01*
X188955457Y-113502213D01*
X189699392Y-113502213D01*
X189768857Y-113744397D01*
X190292302Y-113931144D01*
X190847368Y-113903362D01*
X191231143Y-113744397D01*
X191300608Y-113502213D01*
X190500000Y-112701605D01*
X189699392Y-113502213D01*
X188955457Y-113502213D01*
X189143629Y-113314370D01*
X189223395Y-113122273D01*
X189277603Y-113253143D01*
X189519787Y-113322608D01*
X190320395Y-112522000D01*
X190679605Y-112522000D01*
X191480213Y-113322608D01*
X191722397Y-113253143D01*
X191909144Y-112729698D01*
X191881362Y-112174632D01*
X191722397Y-111790857D01*
X191480213Y-111721392D01*
X190679605Y-112522000D01*
X190320395Y-112522000D01*
X189519787Y-111721392D01*
X189277603Y-111790857D01*
X189227491Y-111931318D01*
X189145010Y-111731697D01*
X188955432Y-111541787D01*
X189699392Y-111541787D01*
X190500000Y-112342395D01*
X191300608Y-111541787D01*
X191231143Y-111299603D01*
X190707698Y-111112856D01*
X190152632Y-111140638D01*
X189768857Y-111299603D01*
X189699392Y-111541787D01*
X188955432Y-111541787D01*
X188752370Y-111338371D01*
X188239100Y-111125243D01*
X187683339Y-111124758D01*
X187169697Y-111336990D01*
X186776371Y-111729630D01*
X186563243Y-112242900D01*
X186562758Y-112798661D01*
X179196759Y-112798661D01*
X179197242Y-112245339D01*
X178985010Y-111731697D01*
X178592370Y-111338371D01*
X178079100Y-111125243D01*
X177523339Y-111124758D01*
X177009697Y-111336990D01*
X176616371Y-111729630D01*
X176403243Y-112242900D01*
X176402758Y-112798661D01*
X173846249Y-112798661D01*
X173846774Y-112198306D01*
X173598462Y-111597345D01*
X173139073Y-111137154D01*
X172538547Y-110887794D01*
X171888306Y-110887226D01*
X171287345Y-111135538D01*
X170827154Y-111594927D01*
X170577794Y-112195453D01*
X170577226Y-112845694D01*
X157590430Y-112845694D01*
X157590774Y-112452306D01*
X157342462Y-111851345D01*
X156883073Y-111391154D01*
X156282547Y-111141794D01*
X155632306Y-111141226D01*
X155031345Y-111389538D01*
X154571154Y-111848927D01*
X154321794Y-112449453D01*
X154321226Y-113099694D01*
X154286239Y-113099694D01*
X154304757Y-113055100D01*
X154305242Y-112499339D01*
X154093010Y-111985697D01*
X153700370Y-111592371D01*
X153187100Y-111379243D01*
X152631339Y-111378758D01*
X152117697Y-111590990D01*
X151724371Y-111983630D01*
X151511243Y-112496900D01*
X151510758Y-113052661D01*
X144144759Y-113052661D01*
X144145242Y-112499339D01*
X143933010Y-111985697D01*
X143540370Y-111592371D01*
X143027100Y-111379243D01*
X142471339Y-111378758D01*
X141957697Y-111590990D01*
X141564371Y-111983630D01*
X141478051Y-112191512D01*
X141393010Y-111985697D01*
X141000370Y-111592371D01*
X140487100Y-111379243D01*
X139931339Y-111378758D01*
X139417697Y-111590990D01*
X139024371Y-111983630D01*
X138811243Y-112496900D01*
X138810758Y-113052661D01*
X122799350Y-113052661D01*
X122755029Y-112986330D01*
X122440248Y-112776000D01*
X122755029Y-112565670D01*
X123079885Y-112079489D01*
X123193959Y-111506000D01*
X123079885Y-110932511D01*
X122760297Y-110454213D01*
X139407392Y-110454213D01*
X139476857Y-110696397D01*
X140000302Y-110883144D01*
X140555368Y-110855362D01*
X140939143Y-110696397D01*
X141008608Y-110454213D01*
X140208000Y-109653605D01*
X139407392Y-110454213D01*
X122760297Y-110454213D01*
X122755029Y-110446330D01*
X122440248Y-110236000D01*
X122755029Y-110025670D01*
X123079885Y-109539489D01*
X123134225Y-109266302D01*
X138798856Y-109266302D01*
X138826638Y-109821368D01*
X138985603Y-110205143D01*
X139227787Y-110274608D01*
X140028395Y-109474000D01*
X140387605Y-109474000D01*
X141188213Y-110274608D01*
X141430397Y-110205143D01*
X141480509Y-110064682D01*
X141562990Y-110264303D01*
X141955630Y-110657629D01*
X142468900Y-110870757D01*
X143024661Y-110871242D01*
X143538303Y-110659010D01*
X143931629Y-110266370D01*
X144144757Y-109753100D01*
X144144759Y-109750661D01*
X151510758Y-109750661D01*
X151722990Y-110264303D01*
X152115630Y-110657629D01*
X152628900Y-110870757D01*
X153184661Y-110871242D01*
X153698303Y-110659010D01*
X154091629Y-110266370D01*
X154286239Y-109797694D01*
X156861226Y-109797694D01*
X157109538Y-110398655D01*
X157568927Y-110858846D01*
X158169453Y-111108206D01*
X158819694Y-111108774D01*
X159420655Y-110860462D01*
X159880846Y-110401073D01*
X160130206Y-109800547D01*
X160130208Y-109797694D01*
X173117226Y-109797694D01*
X173365538Y-110398655D01*
X173824927Y-110858846D01*
X174425453Y-111108206D01*
X175075694Y-111108774D01*
X175676655Y-110860462D01*
X176136846Y-110401073D01*
X176386206Y-109800547D01*
X176386249Y-109750661D01*
X176402758Y-109750661D01*
X176614990Y-110264303D01*
X177007630Y-110657629D01*
X177520900Y-110870757D01*
X178076661Y-110871242D01*
X178590303Y-110659010D01*
X178983629Y-110266370D01*
X179196757Y-109753100D01*
X179196759Y-109750661D01*
X186562758Y-109750661D01*
X186774990Y-110264303D01*
X187167630Y-110657629D01*
X187680900Y-110870757D01*
X188236661Y-110871242D01*
X188750303Y-110659010D01*
X189143629Y-110266370D01*
X189229949Y-110058488D01*
X189314990Y-110264303D01*
X189707630Y-110657629D01*
X190220900Y-110870757D01*
X190776661Y-110871242D01*
X191290303Y-110659010D01*
X191683629Y-110266370D01*
X191896757Y-109753100D01*
X191897242Y-109197339D01*
X191685010Y-108683697D01*
X191292370Y-108290371D01*
X190779100Y-108077243D01*
X190223339Y-108076758D01*
X189709697Y-108288990D01*
X189316371Y-108681630D01*
X189230051Y-108889512D01*
X189145010Y-108683697D01*
X188752370Y-108290371D01*
X188239100Y-108077243D01*
X187683339Y-108076758D01*
X187169697Y-108288990D01*
X186776371Y-108681630D01*
X186563243Y-109194900D01*
X186562758Y-109750661D01*
X179196759Y-109750661D01*
X179197242Y-109197339D01*
X178985010Y-108683697D01*
X178592370Y-108290371D01*
X178079100Y-108077243D01*
X177523339Y-108076758D01*
X177009697Y-108288990D01*
X176616371Y-108681630D01*
X176403243Y-109194900D01*
X176402758Y-109750661D01*
X176386249Y-109750661D01*
X176386774Y-109150306D01*
X176138462Y-108549345D01*
X175679073Y-108089154D01*
X175078547Y-107839794D01*
X174428306Y-107839226D01*
X173827345Y-108087538D01*
X173367154Y-108546927D01*
X173117794Y-109147453D01*
X173117226Y-109797694D01*
X160130208Y-109797694D01*
X160130774Y-109150306D01*
X159882462Y-108549345D01*
X159423073Y-108089154D01*
X158822547Y-107839794D01*
X158172306Y-107839226D01*
X157571345Y-108087538D01*
X157111154Y-108546927D01*
X156861794Y-109147453D01*
X156861226Y-109797694D01*
X154286239Y-109797694D01*
X154304757Y-109753100D01*
X154305242Y-109197339D01*
X154093010Y-108683697D01*
X153700370Y-108290371D01*
X153187100Y-108077243D01*
X152631339Y-108076758D01*
X152117697Y-108288990D01*
X151724371Y-108681630D01*
X151511243Y-109194900D01*
X151510758Y-109750661D01*
X144144759Y-109750661D01*
X144145242Y-109197339D01*
X143933010Y-108683697D01*
X143540370Y-108290371D01*
X143027100Y-108077243D01*
X142471339Y-108076758D01*
X141957697Y-108288990D01*
X141564371Y-108681630D01*
X141484605Y-108873727D01*
X141430397Y-108742857D01*
X141188213Y-108673392D01*
X140387605Y-109474000D01*
X140028395Y-109474000D01*
X139227787Y-108673392D01*
X138985603Y-108742857D01*
X138798856Y-109266302D01*
X123134225Y-109266302D01*
X123193959Y-108966000D01*
X123100031Y-108493787D01*
X139407392Y-108493787D01*
X140208000Y-109294395D01*
X141008608Y-108493787D01*
X140939143Y-108251603D01*
X140415698Y-108064856D01*
X139860632Y-108092638D01*
X139476857Y-108251603D01*
X139407392Y-108493787D01*
X123100031Y-108493787D01*
X123079885Y-108392511D01*
X122755029Y-107906330D01*
X122268848Y-107581474D01*
X121695359Y-107467400D01*
X121636641Y-107467400D01*
X121063152Y-107581474D01*
X120576971Y-107906330D01*
X120396000Y-108177172D01*
X120215029Y-107906330D01*
X119728848Y-107581474D01*
X119155359Y-107467400D01*
X119096641Y-107467400D01*
X118523152Y-107581474D01*
X118036971Y-107906330D01*
X117712115Y-108392511D01*
X117598041Y-108966000D01*
X115760500Y-108966000D01*
X115760500Y-107003694D01*
X159909226Y-107003694D01*
X160157538Y-107604655D01*
X160616927Y-108064846D01*
X161217453Y-108314206D01*
X161867694Y-108314774D01*
X162468655Y-108066462D01*
X162928846Y-107607073D01*
X163178206Y-107006547D01*
X163178774Y-106356306D01*
X162930462Y-105755345D01*
X162471073Y-105295154D01*
X161870547Y-105045794D01*
X161220306Y-105045226D01*
X160619345Y-105293538D01*
X160159154Y-105752927D01*
X159909794Y-106353453D01*
X159909226Y-107003694D01*
X115760500Y-107003694D01*
X115760500Y-104463694D01*
X167529226Y-104463694D01*
X167777538Y-105064655D01*
X168236927Y-105524846D01*
X168837453Y-105774206D01*
X169487694Y-105774774D01*
X170088655Y-105526462D01*
X170548846Y-105067073D01*
X170798206Y-104466547D01*
X170798774Y-103816306D01*
X170550462Y-103215345D01*
X170091073Y-102755154D01*
X169490547Y-102505794D01*
X168840306Y-102505226D01*
X168239345Y-102753538D01*
X167779154Y-103212927D01*
X167529794Y-103813453D01*
X167529226Y-104463694D01*
X115760500Y-104463694D01*
X115760500Y-101981000D01*
X116109155Y-101981000D01*
X116234830Y-102612810D01*
X116592722Y-103148433D01*
X117128345Y-103506325D01*
X117760155Y-103632000D01*
X117824845Y-103632000D01*
X118456655Y-103506325D01*
X118992278Y-103148433D01*
X119350170Y-102612810D01*
X119446075Y-102130661D01*
X138810758Y-102130661D01*
X139022990Y-102644303D01*
X139415630Y-103037629D01*
X139928900Y-103250757D01*
X140484661Y-103251242D01*
X140998303Y-103039010D01*
X141391629Y-102646370D01*
X141477949Y-102438488D01*
X141562990Y-102644303D01*
X141955630Y-103037629D01*
X142468900Y-103250757D01*
X143024661Y-103251242D01*
X143538303Y-103039010D01*
X143931629Y-102646370D01*
X144144757Y-102133100D01*
X144144759Y-102130661D01*
X151510758Y-102130661D01*
X151722990Y-102644303D01*
X152115630Y-103037629D01*
X152628900Y-103250757D01*
X153184661Y-103251242D01*
X153698303Y-103039010D01*
X154091629Y-102646370D01*
X154286239Y-102177694D01*
X154321226Y-102177694D01*
X154569538Y-102778655D01*
X155028927Y-103238846D01*
X155629453Y-103488206D01*
X156279694Y-103488774D01*
X156880655Y-103240462D01*
X157340846Y-102781073D01*
X157590206Y-102180547D01*
X157590208Y-102177694D01*
X170577226Y-102177694D01*
X170825538Y-102778655D01*
X171284927Y-103238846D01*
X171885453Y-103488206D01*
X172535694Y-103488774D01*
X173136655Y-103240462D01*
X173596846Y-102781073D01*
X173846206Y-102180547D01*
X173846249Y-102130661D01*
X176402758Y-102130661D01*
X176614990Y-102644303D01*
X177007630Y-103037629D01*
X177520900Y-103250757D01*
X178076661Y-103251242D01*
X178590303Y-103039010D01*
X178983629Y-102646370D01*
X179196757Y-102133100D01*
X179196759Y-102130661D01*
X186562758Y-102130661D01*
X186774990Y-102644303D01*
X187167630Y-103037629D01*
X187680900Y-103250757D01*
X188236661Y-103251242D01*
X188750303Y-103039010D01*
X188955457Y-102834213D01*
X189699392Y-102834213D01*
X189768857Y-103076397D01*
X190292302Y-103263144D01*
X190847368Y-103235362D01*
X191231143Y-103076397D01*
X191300608Y-102834213D01*
X190500000Y-102033605D01*
X189699392Y-102834213D01*
X188955457Y-102834213D01*
X189143629Y-102646370D01*
X189223395Y-102454273D01*
X189277603Y-102585143D01*
X189519787Y-102654608D01*
X190320395Y-101854000D01*
X190679605Y-101854000D01*
X191480213Y-102654608D01*
X191722397Y-102585143D01*
X191909144Y-102061698D01*
X191881362Y-101506632D01*
X191722397Y-101122857D01*
X191480213Y-101053392D01*
X190679605Y-101854000D01*
X190320395Y-101854000D01*
X189519787Y-101053392D01*
X189277603Y-101122857D01*
X189227491Y-101263318D01*
X189145010Y-101063697D01*
X188955432Y-100873787D01*
X189699392Y-100873787D01*
X190500000Y-101674395D01*
X191300608Y-100873787D01*
X191231143Y-100631603D01*
X190707698Y-100444856D01*
X190152632Y-100472638D01*
X189768857Y-100631603D01*
X189699392Y-100873787D01*
X188955432Y-100873787D01*
X188752370Y-100670371D01*
X188239100Y-100457243D01*
X187683339Y-100456758D01*
X187169697Y-100668990D01*
X186776371Y-101061630D01*
X186563243Y-101574900D01*
X186562758Y-102130661D01*
X179196759Y-102130661D01*
X179197242Y-101577339D01*
X178985010Y-101063697D01*
X178592370Y-100670371D01*
X178079100Y-100457243D01*
X177523339Y-100456758D01*
X177009697Y-100668990D01*
X176616371Y-101061630D01*
X176403243Y-101574900D01*
X176402758Y-102130661D01*
X173846249Y-102130661D01*
X173846774Y-101530306D01*
X173598462Y-100929345D01*
X173139073Y-100469154D01*
X172538547Y-100219794D01*
X171888306Y-100219226D01*
X171287345Y-100467538D01*
X170827154Y-100926927D01*
X170577794Y-101527453D01*
X170577226Y-102177694D01*
X157590208Y-102177694D01*
X157590774Y-101530306D01*
X157342462Y-100929345D01*
X156883073Y-100469154D01*
X156282547Y-100219794D01*
X155632306Y-100219226D01*
X155031345Y-100467538D01*
X154571154Y-100926927D01*
X154321794Y-101527453D01*
X154321226Y-102177694D01*
X154286239Y-102177694D01*
X154304757Y-102133100D01*
X154305242Y-101577339D01*
X154093010Y-101063697D01*
X153700370Y-100670371D01*
X153187100Y-100457243D01*
X152631339Y-100456758D01*
X152117697Y-100668990D01*
X151724371Y-101061630D01*
X151511243Y-101574900D01*
X151510758Y-102130661D01*
X144144759Y-102130661D01*
X144145242Y-101577339D01*
X143933010Y-101063697D01*
X143540370Y-100670371D01*
X143027100Y-100457243D01*
X142471339Y-100456758D01*
X141957697Y-100668990D01*
X141564371Y-101061630D01*
X141478051Y-101269512D01*
X141393010Y-101063697D01*
X141000370Y-100670371D01*
X140487100Y-100457243D01*
X139931339Y-100456758D01*
X139417697Y-100668990D01*
X139024371Y-101061630D01*
X138811243Y-101574900D01*
X138810758Y-102130661D01*
X119446075Y-102130661D01*
X119475845Y-101981000D01*
X119350170Y-101349190D01*
X119125534Y-101012999D01*
X119168198Y-100995327D01*
X119346827Y-100816699D01*
X119443500Y-100583310D01*
X119443500Y-99726750D01*
X119284750Y-99568000D01*
X117919500Y-99568000D01*
X117919500Y-99588000D01*
X117665500Y-99588000D01*
X117665500Y-99568000D01*
X116300250Y-99568000D01*
X116141500Y-99726750D01*
X116141500Y-100583310D01*
X116238173Y-100816699D01*
X116416802Y-100995327D01*
X116459466Y-101012999D01*
X116234830Y-101349190D01*
X116109155Y-101981000D01*
X115760500Y-101981000D01*
X115760500Y-99532213D01*
X139407392Y-99532213D01*
X139476857Y-99774397D01*
X140000302Y-99961144D01*
X140555368Y-99933362D01*
X140939143Y-99774397D01*
X141008608Y-99532213D01*
X140208000Y-98731605D01*
X139407392Y-99532213D01*
X115760500Y-99532213D01*
X115760500Y-98298690D01*
X116141500Y-98298690D01*
X116141500Y-99155250D01*
X116300250Y-99314000D01*
X117665500Y-99314000D01*
X117665500Y-97948750D01*
X117919500Y-97948750D01*
X117919500Y-99314000D01*
X119284750Y-99314000D01*
X119443500Y-99155250D01*
X119443500Y-98344302D01*
X138798856Y-98344302D01*
X138826638Y-98899368D01*
X138985603Y-99283143D01*
X139227787Y-99352608D01*
X140028395Y-98552000D01*
X140387605Y-98552000D01*
X141188213Y-99352608D01*
X141430397Y-99283143D01*
X141480509Y-99142682D01*
X141562990Y-99342303D01*
X141955630Y-99735629D01*
X142468900Y-99948757D01*
X143024661Y-99949242D01*
X143538303Y-99737010D01*
X143931629Y-99344370D01*
X144144757Y-98831100D01*
X144144759Y-98828661D01*
X151510758Y-98828661D01*
X151722990Y-99342303D01*
X152115630Y-99735629D01*
X152628900Y-99948757D01*
X153184661Y-99949242D01*
X153698303Y-99737010D01*
X154091629Y-99344370D01*
X154286239Y-98875694D01*
X156861226Y-98875694D01*
X157109538Y-99476655D01*
X157568927Y-99936846D01*
X158169453Y-100186206D01*
X158819694Y-100186774D01*
X159420655Y-99938462D01*
X159880846Y-99479073D01*
X160130206Y-98878547D01*
X160130208Y-98875694D01*
X173117226Y-98875694D01*
X173365538Y-99476655D01*
X173824927Y-99936846D01*
X174425453Y-100186206D01*
X175075694Y-100186774D01*
X175676655Y-99938462D01*
X176136846Y-99479073D01*
X176386206Y-98878547D01*
X176386249Y-98828661D01*
X176402758Y-98828661D01*
X176614990Y-99342303D01*
X177007630Y-99735629D01*
X177520900Y-99948757D01*
X178076661Y-99949242D01*
X178590303Y-99737010D01*
X178983629Y-99344370D01*
X179196757Y-98831100D01*
X179196759Y-98828661D01*
X186562758Y-98828661D01*
X186774990Y-99342303D01*
X187167630Y-99735629D01*
X187680900Y-99948757D01*
X188236661Y-99949242D01*
X188750303Y-99737010D01*
X189143629Y-99344370D01*
X189229949Y-99136488D01*
X189314990Y-99342303D01*
X189707630Y-99735629D01*
X190220900Y-99948757D01*
X190776661Y-99949242D01*
X191290303Y-99737010D01*
X191683629Y-99344370D01*
X191896757Y-98831100D01*
X191897242Y-98275339D01*
X191685010Y-97761697D01*
X191292370Y-97368371D01*
X190779100Y-97155243D01*
X190223339Y-97154758D01*
X189709697Y-97366990D01*
X189316371Y-97759630D01*
X189230051Y-97967512D01*
X189145010Y-97761697D01*
X188752370Y-97368371D01*
X188239100Y-97155243D01*
X187683339Y-97154758D01*
X187169697Y-97366990D01*
X186776371Y-97759630D01*
X186563243Y-98272900D01*
X186562758Y-98828661D01*
X179196759Y-98828661D01*
X179197242Y-98275339D01*
X178985010Y-97761697D01*
X178592370Y-97368371D01*
X178079100Y-97155243D01*
X177523339Y-97154758D01*
X177009697Y-97366990D01*
X176616371Y-97759630D01*
X176403243Y-98272900D01*
X176402758Y-98828661D01*
X176386249Y-98828661D01*
X176386774Y-98228306D01*
X176138462Y-97627345D01*
X175679073Y-97167154D01*
X175078547Y-96917794D01*
X174428306Y-96917226D01*
X173827345Y-97165538D01*
X173367154Y-97624927D01*
X173117794Y-98225453D01*
X173117226Y-98875694D01*
X160130208Y-98875694D01*
X160130774Y-98228306D01*
X159882462Y-97627345D01*
X159423073Y-97167154D01*
X158822547Y-96917794D01*
X158172306Y-96917226D01*
X157571345Y-97165538D01*
X157111154Y-97624927D01*
X156861794Y-98225453D01*
X156861226Y-98875694D01*
X154286239Y-98875694D01*
X154304757Y-98831100D01*
X154305242Y-98275339D01*
X154093010Y-97761697D01*
X153700370Y-97368371D01*
X153187100Y-97155243D01*
X152631339Y-97154758D01*
X152117697Y-97366990D01*
X151724371Y-97759630D01*
X151511243Y-98272900D01*
X151510758Y-98828661D01*
X144144759Y-98828661D01*
X144145242Y-98275339D01*
X143933010Y-97761697D01*
X143540370Y-97368371D01*
X143027100Y-97155243D01*
X142471339Y-97154758D01*
X141957697Y-97366990D01*
X141564371Y-97759630D01*
X141484605Y-97951727D01*
X141430397Y-97820857D01*
X141188213Y-97751392D01*
X140387605Y-98552000D01*
X140028395Y-98552000D01*
X139227787Y-97751392D01*
X138985603Y-97820857D01*
X138798856Y-98344302D01*
X119443500Y-98344302D01*
X119443500Y-98298690D01*
X119346827Y-98065301D01*
X119168198Y-97886673D01*
X118934809Y-97790000D01*
X118078250Y-97790000D01*
X117919500Y-97948750D01*
X117665500Y-97948750D01*
X117506750Y-97790000D01*
X116650191Y-97790000D01*
X116416802Y-97886673D01*
X116238173Y-98065301D01*
X116141500Y-98298690D01*
X115760500Y-98298690D01*
X115760500Y-97571787D01*
X139407392Y-97571787D01*
X140208000Y-98372395D01*
X141008608Y-97571787D01*
X140939143Y-97329603D01*
X140415698Y-97142856D01*
X139860632Y-97170638D01*
X139476857Y-97329603D01*
X139407392Y-97571787D01*
X115760500Y-97571787D01*
X115760500Y-96583500D01*
X115750494Y-96534090D01*
X115723303Y-96493697D01*
X115697219Y-96467613D01*
X115698826Y-96081694D01*
X159909226Y-96081694D01*
X160157538Y-96682655D01*
X160616927Y-97142846D01*
X161217453Y-97392206D01*
X161867694Y-97392774D01*
X162468655Y-97144462D01*
X162928846Y-96685073D01*
X163178206Y-96084547D01*
X163178774Y-95434306D01*
X162930462Y-94833345D01*
X162471073Y-94373154D01*
X161870547Y-94123794D01*
X161220306Y-94123226D01*
X160619345Y-94371538D01*
X160159154Y-94830927D01*
X159909794Y-95431453D01*
X159909226Y-96081694D01*
X115698826Y-96081694D01*
X115709606Y-93494661D01*
X120141758Y-93494661D01*
X120353990Y-94008303D01*
X120746630Y-94401629D01*
X121259900Y-94614757D01*
X121815661Y-94615242D01*
X122329303Y-94403010D01*
X122722629Y-94010370D01*
X122808949Y-93802488D01*
X122893990Y-94008303D01*
X123286630Y-94401629D01*
X123799900Y-94614757D01*
X124355661Y-94615242D01*
X124869303Y-94403010D01*
X125074457Y-94198213D01*
X125818392Y-94198213D01*
X125887857Y-94440397D01*
X126411302Y-94627144D01*
X126966368Y-94599362D01*
X127350143Y-94440397D01*
X127419608Y-94198213D01*
X126619000Y-93397605D01*
X125818392Y-94198213D01*
X125074457Y-94198213D01*
X125262629Y-94010370D01*
X125342395Y-93818273D01*
X125396603Y-93949143D01*
X125638787Y-94018608D01*
X126439395Y-93218000D01*
X126798605Y-93218000D01*
X127599213Y-94018608D01*
X127841397Y-93949143D01*
X127986760Y-93541694D01*
X167529226Y-93541694D01*
X167777538Y-94142655D01*
X168236927Y-94602846D01*
X168837453Y-94852206D01*
X169487694Y-94852774D01*
X170088655Y-94604462D01*
X170548846Y-94145073D01*
X170798206Y-93544547D01*
X170798774Y-92894306D01*
X170550462Y-92293345D01*
X170091073Y-91833154D01*
X169490547Y-91583794D01*
X168840306Y-91583226D01*
X168239345Y-91831538D01*
X167779154Y-92290927D01*
X167529794Y-92891453D01*
X167529226Y-93541694D01*
X127986760Y-93541694D01*
X128028144Y-93425698D01*
X128000362Y-92870632D01*
X127841397Y-92486857D01*
X127599213Y-92417392D01*
X126798605Y-93218000D01*
X126439395Y-93218000D01*
X125638787Y-92417392D01*
X125396603Y-92486857D01*
X125346491Y-92627318D01*
X125264010Y-92427697D01*
X125074432Y-92237787D01*
X125818392Y-92237787D01*
X126619000Y-93038395D01*
X127419608Y-92237787D01*
X127350143Y-91995603D01*
X126826698Y-91808856D01*
X126271632Y-91836638D01*
X125887857Y-91995603D01*
X125818392Y-92237787D01*
X125074432Y-92237787D01*
X124871370Y-92034371D01*
X124358100Y-91821243D01*
X123802339Y-91820758D01*
X123288697Y-92032990D01*
X122895371Y-92425630D01*
X122809051Y-92633512D01*
X122724010Y-92427697D01*
X122331370Y-92034371D01*
X121818100Y-91821243D01*
X121262339Y-91820758D01*
X120748697Y-92032990D01*
X120355371Y-92425630D01*
X120142243Y-92938900D01*
X120141758Y-93494661D01*
X115709606Y-93494661D01*
X115719130Y-91208661D01*
X138810758Y-91208661D01*
X139022990Y-91722303D01*
X139415630Y-92115629D01*
X139928900Y-92328757D01*
X140484661Y-92329242D01*
X140998303Y-92117010D01*
X141391629Y-91724370D01*
X141477949Y-91516488D01*
X141562990Y-91722303D01*
X141955630Y-92115629D01*
X142468900Y-92328757D01*
X143024661Y-92329242D01*
X143538303Y-92117010D01*
X143931629Y-91724370D01*
X144144757Y-91211100D01*
X144144759Y-91208661D01*
X151510758Y-91208661D01*
X151722990Y-91722303D01*
X152115630Y-92115629D01*
X152628900Y-92328757D01*
X153184661Y-92329242D01*
X153698303Y-92117010D01*
X154091629Y-91724370D01*
X154286239Y-91255694D01*
X154321226Y-91255694D01*
X154569538Y-91856655D01*
X155028927Y-92316846D01*
X155629453Y-92566206D01*
X156279694Y-92566774D01*
X156880655Y-92318462D01*
X157340846Y-91859073D01*
X157590206Y-91258547D01*
X157590208Y-91255694D01*
X170577226Y-91255694D01*
X170825538Y-91856655D01*
X171284927Y-92316846D01*
X171885453Y-92566206D01*
X172535694Y-92566774D01*
X173136655Y-92318462D01*
X173596846Y-91859073D01*
X173846206Y-91258547D01*
X173846249Y-91208661D01*
X176402758Y-91208661D01*
X176614990Y-91722303D01*
X177007630Y-92115629D01*
X177520900Y-92328757D01*
X178076661Y-92329242D01*
X178590303Y-92117010D01*
X178983629Y-91724370D01*
X179196757Y-91211100D01*
X179196759Y-91208661D01*
X186562758Y-91208661D01*
X186774990Y-91722303D01*
X187167630Y-92115629D01*
X187680900Y-92328757D01*
X188236661Y-92329242D01*
X188750303Y-92117010D01*
X188955457Y-91912213D01*
X189699392Y-91912213D01*
X189768857Y-92154397D01*
X190292302Y-92341144D01*
X190847368Y-92313362D01*
X191231143Y-92154397D01*
X191300608Y-91912213D01*
X190500000Y-91111605D01*
X189699392Y-91912213D01*
X188955457Y-91912213D01*
X189143629Y-91724370D01*
X189223395Y-91532273D01*
X189277603Y-91663143D01*
X189519787Y-91732608D01*
X190320395Y-90932000D01*
X190679605Y-90932000D01*
X191480213Y-91732608D01*
X191722397Y-91663143D01*
X191909144Y-91139698D01*
X191881362Y-90584632D01*
X191722397Y-90200857D01*
X191480213Y-90131392D01*
X190679605Y-90932000D01*
X190320395Y-90932000D01*
X189519787Y-90131392D01*
X189277603Y-90200857D01*
X189227491Y-90341318D01*
X189145010Y-90141697D01*
X188955432Y-89951787D01*
X189699392Y-89951787D01*
X190500000Y-90752395D01*
X191300608Y-89951787D01*
X191231143Y-89709603D01*
X190707698Y-89522856D01*
X190152632Y-89550638D01*
X189768857Y-89709603D01*
X189699392Y-89951787D01*
X188955432Y-89951787D01*
X188752370Y-89748371D01*
X188239100Y-89535243D01*
X187683339Y-89534758D01*
X187169697Y-89746990D01*
X186776371Y-90139630D01*
X186563243Y-90652900D01*
X186562758Y-91208661D01*
X179196759Y-91208661D01*
X179197242Y-90655339D01*
X178985010Y-90141697D01*
X178592370Y-89748371D01*
X178079100Y-89535243D01*
X177523339Y-89534758D01*
X177009697Y-89746990D01*
X176616371Y-90139630D01*
X176403243Y-90652900D01*
X176402758Y-91208661D01*
X173846249Y-91208661D01*
X173846774Y-90608306D01*
X173598462Y-90007345D01*
X173139073Y-89547154D01*
X172538547Y-89297794D01*
X171888306Y-89297226D01*
X171287345Y-89545538D01*
X170827154Y-90004927D01*
X170577794Y-90605453D01*
X170577226Y-91255694D01*
X157590208Y-91255694D01*
X157590774Y-90608306D01*
X157342462Y-90007345D01*
X156883073Y-89547154D01*
X156282547Y-89297794D01*
X155632306Y-89297226D01*
X155031345Y-89545538D01*
X154571154Y-90004927D01*
X154321794Y-90605453D01*
X154321226Y-91255694D01*
X154286239Y-91255694D01*
X154304757Y-91211100D01*
X154305242Y-90655339D01*
X154093010Y-90141697D01*
X153700370Y-89748371D01*
X153187100Y-89535243D01*
X152631339Y-89534758D01*
X152117697Y-89746990D01*
X151724371Y-90139630D01*
X151511243Y-90652900D01*
X151510758Y-91208661D01*
X144144759Y-91208661D01*
X144145242Y-90655339D01*
X143933010Y-90141697D01*
X143540370Y-89748371D01*
X143027100Y-89535243D01*
X142471339Y-89534758D01*
X141957697Y-89746990D01*
X141564371Y-90139630D01*
X141478051Y-90347512D01*
X141393010Y-90141697D01*
X141000370Y-89748371D01*
X140487100Y-89535243D01*
X139931339Y-89534758D01*
X139417697Y-89746990D01*
X139024371Y-90139630D01*
X138811243Y-90652900D01*
X138810758Y-91208661D01*
X115719130Y-91208661D01*
X115729957Y-88610213D01*
X139407392Y-88610213D01*
X139476857Y-88852397D01*
X140000302Y-89039144D01*
X140555368Y-89011362D01*
X140939143Y-88852397D01*
X141008608Y-88610213D01*
X140208000Y-87809605D01*
X139407392Y-88610213D01*
X115729957Y-88610213D01*
X115745859Y-84793823D01*
X122348630Y-84793823D01*
X122900820Y-86130225D01*
X123922397Y-87153586D01*
X125257834Y-87708108D01*
X126703823Y-87709370D01*
X127398580Y-87422302D01*
X138798856Y-87422302D01*
X138826638Y-87977368D01*
X138985603Y-88361143D01*
X139227787Y-88430608D01*
X140028395Y-87630000D01*
X140387605Y-87630000D01*
X141188213Y-88430608D01*
X141430397Y-88361143D01*
X141480509Y-88220682D01*
X141562990Y-88420303D01*
X141955630Y-88813629D01*
X142468900Y-89026757D01*
X143024661Y-89027242D01*
X143538303Y-88815010D01*
X143931629Y-88422370D01*
X144144757Y-87909100D01*
X144144759Y-87906661D01*
X151510758Y-87906661D01*
X151722990Y-88420303D01*
X152115630Y-88813629D01*
X152628900Y-89026757D01*
X153184661Y-89027242D01*
X153698303Y-88815010D01*
X154091629Y-88422370D01*
X154286239Y-87953694D01*
X156861226Y-87953694D01*
X157109538Y-88554655D01*
X157568927Y-89014846D01*
X158169453Y-89264206D01*
X158819694Y-89264774D01*
X159420655Y-89016462D01*
X159880846Y-88557073D01*
X160130206Y-87956547D01*
X160130208Y-87953694D01*
X173117226Y-87953694D01*
X173365538Y-88554655D01*
X173824927Y-89014846D01*
X174425453Y-89264206D01*
X175075694Y-89264774D01*
X175676655Y-89016462D01*
X176136846Y-88557073D01*
X176386206Y-87956547D01*
X176386249Y-87906661D01*
X176402758Y-87906661D01*
X176614990Y-88420303D01*
X177007630Y-88813629D01*
X177520900Y-89026757D01*
X178076661Y-89027242D01*
X178590303Y-88815010D01*
X178983629Y-88422370D01*
X179196757Y-87909100D01*
X179196759Y-87906661D01*
X186562758Y-87906661D01*
X186774990Y-88420303D01*
X187167630Y-88813629D01*
X187680900Y-89026757D01*
X188236661Y-89027242D01*
X188750303Y-88815010D01*
X189143629Y-88422370D01*
X189229949Y-88214488D01*
X189314990Y-88420303D01*
X189707630Y-88813629D01*
X190220900Y-89026757D01*
X190776661Y-89027242D01*
X191290303Y-88815010D01*
X191683629Y-88422370D01*
X191896757Y-87909100D01*
X191897242Y-87353339D01*
X191685010Y-86839697D01*
X191292370Y-86446371D01*
X190779100Y-86233243D01*
X190223339Y-86232758D01*
X189709697Y-86444990D01*
X189316371Y-86837630D01*
X189230051Y-87045512D01*
X189145010Y-86839697D01*
X188752370Y-86446371D01*
X188239100Y-86233243D01*
X187683339Y-86232758D01*
X187169697Y-86444990D01*
X186776371Y-86837630D01*
X186563243Y-87350900D01*
X186562758Y-87906661D01*
X179196759Y-87906661D01*
X179197242Y-87353339D01*
X178985010Y-86839697D01*
X178592370Y-86446371D01*
X178079100Y-86233243D01*
X177523339Y-86232758D01*
X177009697Y-86444990D01*
X176616371Y-86837630D01*
X176403243Y-87350900D01*
X176402758Y-87906661D01*
X176386249Y-87906661D01*
X176386774Y-87306306D01*
X176138462Y-86705345D01*
X175679073Y-86245154D01*
X175078547Y-85995794D01*
X174428306Y-85995226D01*
X173827345Y-86243538D01*
X173367154Y-86702927D01*
X173117794Y-87303453D01*
X173117226Y-87953694D01*
X160130208Y-87953694D01*
X160130774Y-87306306D01*
X159882462Y-86705345D01*
X159423073Y-86245154D01*
X158822547Y-85995794D01*
X158172306Y-85995226D01*
X157571345Y-86243538D01*
X157111154Y-86702927D01*
X156861794Y-87303453D01*
X156861226Y-87953694D01*
X154286239Y-87953694D01*
X154304757Y-87909100D01*
X154305242Y-87353339D01*
X154093010Y-86839697D01*
X153700370Y-86446371D01*
X153187100Y-86233243D01*
X152631339Y-86232758D01*
X152117697Y-86444990D01*
X151724371Y-86837630D01*
X151511243Y-87350900D01*
X151510758Y-87906661D01*
X144144759Y-87906661D01*
X144145242Y-87353339D01*
X143933010Y-86839697D01*
X143540370Y-86446371D01*
X143027100Y-86233243D01*
X142471339Y-86232758D01*
X141957697Y-86444990D01*
X141564371Y-86837630D01*
X141484605Y-87029727D01*
X141430397Y-86898857D01*
X141188213Y-86829392D01*
X140387605Y-87630000D01*
X140028395Y-87630000D01*
X139227787Y-86829392D01*
X138985603Y-86898857D01*
X138798856Y-87422302D01*
X127398580Y-87422302D01*
X128040225Y-87157180D01*
X128548504Y-86649787D01*
X139407392Y-86649787D01*
X140208000Y-87450395D01*
X141008608Y-86649787D01*
X140939143Y-86407603D01*
X140415698Y-86220856D01*
X139860632Y-86248638D01*
X139476857Y-86407603D01*
X139407392Y-86649787D01*
X128548504Y-86649787D01*
X129063586Y-86135603D01*
X129468818Y-85159694D01*
X159909226Y-85159694D01*
X160157538Y-85760655D01*
X160616927Y-86220846D01*
X161217453Y-86470206D01*
X161867694Y-86470774D01*
X162468655Y-86222462D01*
X162928846Y-85763073D01*
X163178206Y-85162547D01*
X163178774Y-84512306D01*
X162930462Y-83911345D01*
X162471073Y-83451154D01*
X161870547Y-83201794D01*
X161220306Y-83201226D01*
X160619345Y-83449538D01*
X160159154Y-83908927D01*
X159909794Y-84509453D01*
X159909226Y-85159694D01*
X129468818Y-85159694D01*
X129618108Y-84800166D01*
X129619370Y-83354177D01*
X129315888Y-82619694D01*
X167529226Y-82619694D01*
X167777538Y-83220655D01*
X168236927Y-83680846D01*
X168837453Y-83930206D01*
X169487694Y-83930774D01*
X170088655Y-83682462D01*
X170548846Y-83223073D01*
X170798206Y-82622547D01*
X170798774Y-81972306D01*
X170550462Y-81371345D01*
X170091073Y-80911154D01*
X169490547Y-80661794D01*
X168840306Y-80661226D01*
X168239345Y-80909538D01*
X167779154Y-81368927D01*
X167529794Y-81969453D01*
X167529226Y-82619694D01*
X129315888Y-82619694D01*
X129067180Y-82017775D01*
X128045603Y-80994414D01*
X126710166Y-80439892D01*
X125264177Y-80438630D01*
X123927775Y-80990820D01*
X122904414Y-82012397D01*
X122349892Y-83347834D01*
X122348630Y-84793823D01*
X115745859Y-84793823D01*
X115764638Y-80286661D01*
X138810758Y-80286661D01*
X139022990Y-80800303D01*
X139415630Y-81193629D01*
X139928900Y-81406757D01*
X140484661Y-81407242D01*
X140998303Y-81195010D01*
X141391629Y-80802370D01*
X141477949Y-80594488D01*
X141562990Y-80800303D01*
X141955630Y-81193629D01*
X142468900Y-81406757D01*
X143024661Y-81407242D01*
X143538303Y-81195010D01*
X143931629Y-80802370D01*
X144144757Y-80289100D01*
X144144759Y-80286661D01*
X151510758Y-80286661D01*
X151722990Y-80800303D01*
X152115630Y-81193629D01*
X152628900Y-81406757D01*
X153184661Y-81407242D01*
X153698303Y-81195010D01*
X154091629Y-80802370D01*
X154286239Y-80333694D01*
X154321226Y-80333694D01*
X154569538Y-80934655D01*
X155028927Y-81394846D01*
X155629453Y-81644206D01*
X156279694Y-81644774D01*
X156880655Y-81396462D01*
X157340846Y-80937073D01*
X157590206Y-80336547D01*
X157590208Y-80333694D01*
X170577226Y-80333694D01*
X170825538Y-80934655D01*
X171284927Y-81394846D01*
X171885453Y-81644206D01*
X172535694Y-81644774D01*
X173136655Y-81396462D01*
X173596846Y-80937073D01*
X173846206Y-80336547D01*
X173846249Y-80286661D01*
X176402758Y-80286661D01*
X176614990Y-80800303D01*
X177007630Y-81193629D01*
X177520900Y-81406757D01*
X178076661Y-81407242D01*
X178590303Y-81195010D01*
X178983629Y-80802370D01*
X179196757Y-80289100D01*
X179196759Y-80286661D01*
X186562758Y-80286661D01*
X186774990Y-80800303D01*
X187167630Y-81193629D01*
X187680900Y-81406757D01*
X188236661Y-81407242D01*
X188750303Y-81195010D01*
X188955457Y-80990213D01*
X189699392Y-80990213D01*
X189768857Y-81232397D01*
X190292302Y-81419144D01*
X190847368Y-81391362D01*
X191231143Y-81232397D01*
X191300608Y-80990213D01*
X190500000Y-80189605D01*
X189699392Y-80990213D01*
X188955457Y-80990213D01*
X189143629Y-80802370D01*
X189223395Y-80610273D01*
X189277603Y-80741143D01*
X189519787Y-80810608D01*
X190320395Y-80010000D01*
X190679605Y-80010000D01*
X191480213Y-80810608D01*
X191722397Y-80741143D01*
X191909144Y-80217698D01*
X191881362Y-79662632D01*
X191722397Y-79278857D01*
X191480213Y-79209392D01*
X190679605Y-80010000D01*
X190320395Y-80010000D01*
X189519787Y-79209392D01*
X189277603Y-79278857D01*
X189227491Y-79419318D01*
X189145010Y-79219697D01*
X188955432Y-79029787D01*
X189699392Y-79029787D01*
X190500000Y-79830395D01*
X191300608Y-79029787D01*
X191231143Y-78787603D01*
X190707698Y-78600856D01*
X190152632Y-78628638D01*
X189768857Y-78787603D01*
X189699392Y-79029787D01*
X188955432Y-79029787D01*
X188752370Y-78826371D01*
X188239100Y-78613243D01*
X187683339Y-78612758D01*
X187169697Y-78824990D01*
X186776371Y-79217630D01*
X186563243Y-79730900D01*
X186562758Y-80286661D01*
X179196759Y-80286661D01*
X179197242Y-79733339D01*
X178985010Y-79219697D01*
X178592370Y-78826371D01*
X178079100Y-78613243D01*
X177523339Y-78612758D01*
X177009697Y-78824990D01*
X176616371Y-79217630D01*
X176403243Y-79730900D01*
X176402758Y-80286661D01*
X173846249Y-80286661D01*
X173846774Y-79686306D01*
X173598462Y-79085345D01*
X173139073Y-78625154D01*
X172538547Y-78375794D01*
X171888306Y-78375226D01*
X171287345Y-78623538D01*
X170827154Y-79082927D01*
X170577794Y-79683453D01*
X170577226Y-80333694D01*
X157590208Y-80333694D01*
X157590774Y-79686306D01*
X157342462Y-79085345D01*
X156883073Y-78625154D01*
X156282547Y-78375794D01*
X155632306Y-78375226D01*
X155031345Y-78623538D01*
X154571154Y-79082927D01*
X154321794Y-79683453D01*
X154321226Y-80333694D01*
X154286239Y-80333694D01*
X154304757Y-80289100D01*
X154305242Y-79733339D01*
X154093010Y-79219697D01*
X153700370Y-78826371D01*
X153187100Y-78613243D01*
X152631339Y-78612758D01*
X152117697Y-78824990D01*
X151724371Y-79217630D01*
X151511243Y-79730900D01*
X151510758Y-80286661D01*
X144144759Y-80286661D01*
X144145242Y-79733339D01*
X143933010Y-79219697D01*
X143540370Y-78826371D01*
X143027100Y-78613243D01*
X142471339Y-78612758D01*
X141957697Y-78824990D01*
X141564371Y-79217630D01*
X141478051Y-79425512D01*
X141393010Y-79219697D01*
X141000370Y-78826371D01*
X140487100Y-78613243D01*
X139931339Y-78612758D01*
X139417697Y-78824990D01*
X139024371Y-79217630D01*
X138811243Y-79730900D01*
X138810758Y-80286661D01*
X115764638Y-80286661D01*
X115775465Y-77688213D01*
X139407392Y-77688213D01*
X139476857Y-77930397D01*
X140000302Y-78117144D01*
X140555368Y-78089362D01*
X140939143Y-77930397D01*
X141008608Y-77688213D01*
X140208000Y-76887605D01*
X139407392Y-77688213D01*
X115775465Y-77688213D01*
X115780415Y-76500302D01*
X138798856Y-76500302D01*
X138826638Y-77055368D01*
X138985603Y-77439143D01*
X139227787Y-77508608D01*
X140028395Y-76708000D01*
X140387605Y-76708000D01*
X141188213Y-77508608D01*
X141430397Y-77439143D01*
X141480509Y-77298682D01*
X141562990Y-77498303D01*
X141955630Y-77891629D01*
X142468900Y-78104757D01*
X143024661Y-78105242D01*
X143538303Y-77893010D01*
X143931629Y-77500370D01*
X144144757Y-76987100D01*
X144144759Y-76984661D01*
X151510758Y-76984661D01*
X151722990Y-77498303D01*
X152115630Y-77891629D01*
X152628900Y-78104757D01*
X153184661Y-78105242D01*
X153698303Y-77893010D01*
X154091629Y-77500370D01*
X154286239Y-77031694D01*
X156861226Y-77031694D01*
X157109538Y-77632655D01*
X157568927Y-78092846D01*
X158169453Y-78342206D01*
X158819694Y-78342774D01*
X159420655Y-78094462D01*
X159880846Y-77635073D01*
X160130206Y-77034547D01*
X160130208Y-77031694D01*
X173117226Y-77031694D01*
X173365538Y-77632655D01*
X173824927Y-78092846D01*
X174425453Y-78342206D01*
X175075694Y-78342774D01*
X175676655Y-78094462D01*
X176136846Y-77635073D01*
X176386206Y-77034547D01*
X176386249Y-76984661D01*
X176402758Y-76984661D01*
X176614990Y-77498303D01*
X177007630Y-77891629D01*
X177520900Y-78104757D01*
X178076661Y-78105242D01*
X178590303Y-77893010D01*
X178983629Y-77500370D01*
X179196757Y-76987100D01*
X179196759Y-76984661D01*
X186562758Y-76984661D01*
X186774990Y-77498303D01*
X187167630Y-77891629D01*
X187680900Y-78104757D01*
X188236661Y-78105242D01*
X188750303Y-77893010D01*
X189143629Y-77500370D01*
X189229949Y-77292488D01*
X189314990Y-77498303D01*
X189707630Y-77891629D01*
X190220900Y-78104757D01*
X190776661Y-78105242D01*
X191290303Y-77893010D01*
X191683629Y-77500370D01*
X191896757Y-76987100D01*
X191897242Y-76431339D01*
X191685010Y-75917697D01*
X191292370Y-75524371D01*
X190779100Y-75311243D01*
X190223339Y-75310758D01*
X189709697Y-75522990D01*
X189316371Y-75915630D01*
X189230051Y-76123512D01*
X189145010Y-75917697D01*
X188752370Y-75524371D01*
X188239100Y-75311243D01*
X187683339Y-75310758D01*
X187169697Y-75522990D01*
X186776371Y-75915630D01*
X186563243Y-76428900D01*
X186562758Y-76984661D01*
X179196759Y-76984661D01*
X179197242Y-76431339D01*
X178985010Y-75917697D01*
X178592370Y-75524371D01*
X178079100Y-75311243D01*
X177523339Y-75310758D01*
X177009697Y-75522990D01*
X176616371Y-75915630D01*
X176403243Y-76428900D01*
X176402758Y-76984661D01*
X176386249Y-76984661D01*
X176386774Y-76384306D01*
X176138462Y-75783345D01*
X175679073Y-75323154D01*
X175078547Y-75073794D01*
X174428306Y-75073226D01*
X173827345Y-75321538D01*
X173367154Y-75780927D01*
X173117794Y-76381453D01*
X173117226Y-77031694D01*
X160130208Y-77031694D01*
X160130774Y-76384306D01*
X159882462Y-75783345D01*
X159423073Y-75323154D01*
X158822547Y-75073794D01*
X158172306Y-75073226D01*
X157571345Y-75321538D01*
X157111154Y-75780927D01*
X156861794Y-76381453D01*
X156861226Y-77031694D01*
X154286239Y-77031694D01*
X154304757Y-76987100D01*
X154305242Y-76431339D01*
X154093010Y-75917697D01*
X153700370Y-75524371D01*
X153187100Y-75311243D01*
X152631339Y-75310758D01*
X152117697Y-75522990D01*
X151724371Y-75915630D01*
X151511243Y-76428900D01*
X151510758Y-76984661D01*
X144144759Y-76984661D01*
X144145242Y-76431339D01*
X143933010Y-75917697D01*
X143540370Y-75524371D01*
X143027100Y-75311243D01*
X142471339Y-75310758D01*
X141957697Y-75522990D01*
X141564371Y-75915630D01*
X141484605Y-76107727D01*
X141430397Y-75976857D01*
X141188213Y-75907392D01*
X140387605Y-76708000D01*
X140028395Y-76708000D01*
X139227787Y-75907392D01*
X138985603Y-75976857D01*
X138798856Y-76500302D01*
X115780415Y-76500302D01*
X115783633Y-75727787D01*
X139407392Y-75727787D01*
X140208000Y-76528395D01*
X141008608Y-75727787D01*
X140939143Y-75485603D01*
X140415698Y-75298856D01*
X139860632Y-75326638D01*
X139476857Y-75485603D01*
X139407392Y-75727787D01*
X115783633Y-75727787D01*
X115790900Y-73983694D01*
X159909226Y-73983694D01*
X160157538Y-74584655D01*
X160616927Y-75044846D01*
X161217453Y-75294206D01*
X161867694Y-75294774D01*
X162468655Y-75046462D01*
X162928846Y-74587073D01*
X163178206Y-73986547D01*
X163178774Y-73336306D01*
X162930462Y-72735345D01*
X162471073Y-72275154D01*
X161870547Y-72025794D01*
X161220306Y-72025226D01*
X160619345Y-72273538D01*
X160159154Y-72732927D01*
X159909794Y-73333453D01*
X159909226Y-73983694D01*
X115790900Y-73983694D01*
X115801483Y-71443694D01*
X167529226Y-71443694D01*
X167777538Y-72044655D01*
X168236927Y-72504846D01*
X168837453Y-72754206D01*
X169487694Y-72754774D01*
X170088655Y-72506462D01*
X170548846Y-72047073D01*
X170798206Y-71446547D01*
X170798774Y-70796306D01*
X170550462Y-70195345D01*
X170091073Y-69735154D01*
X169490547Y-69485794D01*
X168840306Y-69485226D01*
X168239345Y-69733538D01*
X167779154Y-70192927D01*
X167529794Y-70793453D01*
X167529226Y-71443694D01*
X115801483Y-71443694D01*
X115810147Y-69364661D01*
X138810758Y-69364661D01*
X139022990Y-69878303D01*
X139415630Y-70271629D01*
X139928900Y-70484757D01*
X140484661Y-70485242D01*
X140998303Y-70273010D01*
X141391629Y-69880370D01*
X141477949Y-69672488D01*
X141562990Y-69878303D01*
X141955630Y-70271629D01*
X142468900Y-70484757D01*
X143024661Y-70485242D01*
X143538303Y-70273010D01*
X143931629Y-69880370D01*
X144144757Y-69367100D01*
X144144759Y-69364661D01*
X151510758Y-69364661D01*
X151722990Y-69878303D01*
X152115630Y-70271629D01*
X152628900Y-70484757D01*
X153184661Y-70485242D01*
X153698303Y-70273010D01*
X154091629Y-69880370D01*
X154286239Y-69411694D01*
X154321226Y-69411694D01*
X154569538Y-70012655D01*
X155028927Y-70472846D01*
X155629453Y-70722206D01*
X156279694Y-70722774D01*
X156880655Y-70474462D01*
X157340846Y-70015073D01*
X157590206Y-69414547D01*
X157590208Y-69411694D01*
X170577226Y-69411694D01*
X170825538Y-70012655D01*
X171284927Y-70472846D01*
X171885453Y-70722206D01*
X172535694Y-70722774D01*
X173136655Y-70474462D01*
X173596846Y-70015073D01*
X173846206Y-69414547D01*
X173846249Y-69364661D01*
X176402758Y-69364661D01*
X176614990Y-69878303D01*
X177007630Y-70271629D01*
X177520900Y-70484757D01*
X178076661Y-70485242D01*
X178590303Y-70273010D01*
X178983629Y-69880370D01*
X179196757Y-69367100D01*
X179196759Y-69364661D01*
X186562758Y-69364661D01*
X186774990Y-69878303D01*
X187167630Y-70271629D01*
X187680900Y-70484757D01*
X188236661Y-70485242D01*
X188750303Y-70273010D01*
X188955457Y-70068213D01*
X189699392Y-70068213D01*
X189768857Y-70310397D01*
X190292302Y-70497144D01*
X190847368Y-70469362D01*
X191231143Y-70310397D01*
X191300608Y-70068213D01*
X190500000Y-69267605D01*
X189699392Y-70068213D01*
X188955457Y-70068213D01*
X189143629Y-69880370D01*
X189223395Y-69688273D01*
X189277603Y-69819143D01*
X189519787Y-69888608D01*
X190320395Y-69088000D01*
X190679605Y-69088000D01*
X191480213Y-69888608D01*
X191722397Y-69819143D01*
X191909144Y-69295698D01*
X191881362Y-68740632D01*
X191722397Y-68356857D01*
X191480213Y-68287392D01*
X190679605Y-69088000D01*
X190320395Y-69088000D01*
X189519787Y-68287392D01*
X189277603Y-68356857D01*
X189227491Y-68497318D01*
X189145010Y-68297697D01*
X188955432Y-68107787D01*
X189699392Y-68107787D01*
X190500000Y-68908395D01*
X191300608Y-68107787D01*
X191231143Y-67865603D01*
X190707698Y-67678856D01*
X190152632Y-67706638D01*
X189768857Y-67865603D01*
X189699392Y-68107787D01*
X188955432Y-68107787D01*
X188752370Y-67904371D01*
X188239100Y-67691243D01*
X187683339Y-67690758D01*
X187169697Y-67902990D01*
X186776371Y-68295630D01*
X186563243Y-68808900D01*
X186562758Y-69364661D01*
X179196759Y-69364661D01*
X179197242Y-68811339D01*
X178985010Y-68297697D01*
X178592370Y-67904371D01*
X178079100Y-67691243D01*
X177523339Y-67690758D01*
X177009697Y-67902990D01*
X176616371Y-68295630D01*
X176403243Y-68808900D01*
X176402758Y-69364661D01*
X173846249Y-69364661D01*
X173846774Y-68764306D01*
X173598462Y-68163345D01*
X173139073Y-67703154D01*
X172538547Y-67453794D01*
X171888306Y-67453226D01*
X171287345Y-67701538D01*
X170827154Y-68160927D01*
X170577794Y-68761453D01*
X170577226Y-69411694D01*
X157590208Y-69411694D01*
X157590774Y-68764306D01*
X157342462Y-68163345D01*
X156883073Y-67703154D01*
X156282547Y-67453794D01*
X155632306Y-67453226D01*
X155031345Y-67701538D01*
X154571154Y-68160927D01*
X154321794Y-68761453D01*
X154321226Y-69411694D01*
X154286239Y-69411694D01*
X154304757Y-69367100D01*
X154305242Y-68811339D01*
X154093010Y-68297697D01*
X153700370Y-67904371D01*
X153187100Y-67691243D01*
X152631339Y-67690758D01*
X152117697Y-67902990D01*
X151724371Y-68295630D01*
X151511243Y-68808900D01*
X151510758Y-69364661D01*
X144144759Y-69364661D01*
X144145242Y-68811339D01*
X143933010Y-68297697D01*
X143540370Y-67904371D01*
X143027100Y-67691243D01*
X142471339Y-67690758D01*
X141957697Y-67902990D01*
X141564371Y-68295630D01*
X141478051Y-68503512D01*
X141393010Y-68297697D01*
X141000370Y-67904371D01*
X140487100Y-67691243D01*
X139931339Y-67690758D01*
X139417697Y-67902990D01*
X139024371Y-68295630D01*
X138811243Y-68808900D01*
X138810758Y-69364661D01*
X115810147Y-69364661D01*
X115824117Y-66011967D01*
X121804430Y-66011967D01*
X121804430Y-67084033D01*
X121909900Y-67614268D01*
X122210254Y-68063779D01*
X122659765Y-68364133D01*
X123190000Y-68469603D01*
X123720235Y-68364133D01*
X124169746Y-68063779D01*
X124470100Y-67614268D01*
X124471950Y-67604968D01*
X124498501Y-67694677D01*
X124840056Y-68116658D01*
X125317097Y-68375810D01*
X125388725Y-68389993D01*
X125603000Y-68267339D01*
X125603000Y-66675000D01*
X125583000Y-66675000D01*
X125583000Y-66421000D01*
X125603000Y-66421000D01*
X125603000Y-64828661D01*
X125857000Y-64828661D01*
X125857000Y-66421000D01*
X125877000Y-66421000D01*
X125877000Y-66675000D01*
X125857000Y-66675000D01*
X125857000Y-68267339D01*
X126071275Y-68389993D01*
X126142903Y-68375810D01*
X126619944Y-68116658D01*
X126961499Y-67694677D01*
X126988050Y-67604968D01*
X126989900Y-67614268D01*
X127290254Y-68063779D01*
X127739765Y-68364133D01*
X128270000Y-68469603D01*
X128800235Y-68364133D01*
X129249746Y-68063779D01*
X129550100Y-67614268D01*
X129655570Y-67084033D01*
X129655570Y-66766213D01*
X139407392Y-66766213D01*
X139476857Y-67008397D01*
X140000302Y-67195144D01*
X140555368Y-67167362D01*
X140939143Y-67008397D01*
X141008608Y-66766213D01*
X140208000Y-65965605D01*
X139407392Y-66766213D01*
X129655570Y-66766213D01*
X129655570Y-66011967D01*
X129569309Y-65578302D01*
X138798856Y-65578302D01*
X138826638Y-66133368D01*
X138985603Y-66517143D01*
X139227787Y-66586608D01*
X140028395Y-65786000D01*
X140387605Y-65786000D01*
X141188213Y-66586608D01*
X141430397Y-66517143D01*
X141480509Y-66376682D01*
X141562990Y-66576303D01*
X141955630Y-66969629D01*
X142468900Y-67182757D01*
X143024661Y-67183242D01*
X143538303Y-66971010D01*
X143931629Y-66578370D01*
X144144757Y-66065100D01*
X144144759Y-66062661D01*
X151510758Y-66062661D01*
X151722990Y-66576303D01*
X152115630Y-66969629D01*
X152628900Y-67182757D01*
X153184661Y-67183242D01*
X153698303Y-66971010D01*
X154091629Y-66578370D01*
X154286239Y-66109694D01*
X156861226Y-66109694D01*
X157109538Y-66710655D01*
X157568927Y-67170846D01*
X158169453Y-67420206D01*
X158819694Y-67420774D01*
X159420655Y-67172462D01*
X159880846Y-66713073D01*
X160130206Y-66112547D01*
X160130208Y-66109694D01*
X173117226Y-66109694D01*
X173365538Y-66710655D01*
X173824927Y-67170846D01*
X174425453Y-67420206D01*
X175075694Y-67420774D01*
X175676655Y-67172462D01*
X176136846Y-66713073D01*
X176386206Y-66112547D01*
X176386249Y-66062661D01*
X176402758Y-66062661D01*
X176614990Y-66576303D01*
X177007630Y-66969629D01*
X177520900Y-67182757D01*
X178076661Y-67183242D01*
X178590303Y-66971010D01*
X178983629Y-66578370D01*
X179196757Y-66065100D01*
X179196759Y-66062661D01*
X186562758Y-66062661D01*
X186774990Y-66576303D01*
X187167630Y-66969629D01*
X187680900Y-67182757D01*
X188236661Y-67183242D01*
X188750303Y-66971010D01*
X189143629Y-66578370D01*
X189229949Y-66370488D01*
X189314990Y-66576303D01*
X189707630Y-66969629D01*
X190220900Y-67182757D01*
X190776661Y-67183242D01*
X191290303Y-66971010D01*
X191683629Y-66578370D01*
X191896757Y-66065100D01*
X191897242Y-65509339D01*
X191685010Y-64995697D01*
X191292370Y-64602371D01*
X190779100Y-64389243D01*
X190223339Y-64388758D01*
X189709697Y-64600990D01*
X189316371Y-64993630D01*
X189230051Y-65201512D01*
X189145010Y-64995697D01*
X188752370Y-64602371D01*
X188239100Y-64389243D01*
X187683339Y-64388758D01*
X187169697Y-64600990D01*
X186776371Y-64993630D01*
X186563243Y-65506900D01*
X186562758Y-66062661D01*
X179196759Y-66062661D01*
X179197242Y-65509339D01*
X178985010Y-64995697D01*
X178592370Y-64602371D01*
X178079100Y-64389243D01*
X177523339Y-64388758D01*
X177009697Y-64600990D01*
X176616371Y-64993630D01*
X176403243Y-65506900D01*
X176402758Y-66062661D01*
X176386249Y-66062661D01*
X176386774Y-65462306D01*
X176138462Y-64861345D01*
X175679073Y-64401154D01*
X175078547Y-64151794D01*
X174428306Y-64151226D01*
X173827345Y-64399538D01*
X173367154Y-64858927D01*
X173117794Y-65459453D01*
X173117226Y-66109694D01*
X160130208Y-66109694D01*
X160130774Y-65462306D01*
X159882462Y-64861345D01*
X159423073Y-64401154D01*
X158822547Y-64151794D01*
X158172306Y-64151226D01*
X157571345Y-64399538D01*
X157111154Y-64858927D01*
X156861794Y-65459453D01*
X156861226Y-66109694D01*
X154286239Y-66109694D01*
X154304757Y-66065100D01*
X154305242Y-65509339D01*
X154093010Y-64995697D01*
X153700370Y-64602371D01*
X153187100Y-64389243D01*
X152631339Y-64388758D01*
X152117697Y-64600990D01*
X151724371Y-64993630D01*
X151511243Y-65506900D01*
X151510758Y-66062661D01*
X144144759Y-66062661D01*
X144145242Y-65509339D01*
X143933010Y-64995697D01*
X143540370Y-64602371D01*
X143027100Y-64389243D01*
X142471339Y-64388758D01*
X141957697Y-64600990D01*
X141564371Y-64993630D01*
X141484605Y-65185727D01*
X141430397Y-65054857D01*
X141188213Y-64985392D01*
X140387605Y-65786000D01*
X140028395Y-65786000D01*
X139227787Y-64985392D01*
X138985603Y-65054857D01*
X138798856Y-65578302D01*
X129569309Y-65578302D01*
X129550100Y-65481732D01*
X129249746Y-65032221D01*
X128910864Y-64805787D01*
X139407392Y-64805787D01*
X140208000Y-65606395D01*
X141008608Y-64805787D01*
X140939143Y-64563603D01*
X140415698Y-64376856D01*
X139860632Y-64404638D01*
X139476857Y-64563603D01*
X139407392Y-64805787D01*
X128910864Y-64805787D01*
X128800235Y-64731867D01*
X128270000Y-64626397D01*
X127739765Y-64731867D01*
X127290254Y-65032221D01*
X126989900Y-65481732D01*
X126988050Y-65491032D01*
X126961499Y-65401323D01*
X126619944Y-64979342D01*
X126142903Y-64720190D01*
X126071275Y-64706007D01*
X125857000Y-64828661D01*
X125603000Y-64828661D01*
X125388725Y-64706007D01*
X125317097Y-64720190D01*
X124840056Y-64979342D01*
X124498501Y-65401323D01*
X124471950Y-65491032D01*
X124470100Y-65481732D01*
X124169746Y-65032221D01*
X123720235Y-64731867D01*
X123190000Y-64626397D01*
X122659765Y-64731867D01*
X122210254Y-65032221D01*
X121909900Y-65481732D01*
X121804430Y-66011967D01*
X115824117Y-66011967D01*
X115833234Y-63823694D01*
X159909226Y-63823694D01*
X160157538Y-64424655D01*
X160616927Y-64884846D01*
X161217453Y-65134206D01*
X161867694Y-65134774D01*
X162468655Y-64886462D01*
X162928846Y-64427073D01*
X163178206Y-63826547D01*
X163178774Y-63176306D01*
X162930462Y-62575345D01*
X162471073Y-62115154D01*
X161870547Y-61865794D01*
X161220306Y-61865226D01*
X160619345Y-62113538D01*
X160159154Y-62572927D01*
X159909794Y-63173453D01*
X159909226Y-63823694D01*
X115833234Y-63823694D01*
X115849945Y-59813265D01*
X118078670Y-59813265D01*
X118368078Y-60513686D01*
X118903495Y-61050039D01*
X119603410Y-61340668D01*
X120361265Y-61341330D01*
X121061686Y-61051922D01*
X121598039Y-60516505D01*
X121888668Y-59816590D01*
X121888741Y-59732782D01*
X122485141Y-59732782D01*
X122712808Y-60283780D01*
X123134003Y-60705710D01*
X123684602Y-60934339D01*
X124280782Y-60934859D01*
X124831780Y-60707192D01*
X125253710Y-60285997D01*
X125450005Y-59813265D01*
X126078670Y-59813265D01*
X126368078Y-60513686D01*
X126903495Y-61050039D01*
X127603410Y-61340668D01*
X128361265Y-61341330D01*
X128500754Y-61283694D01*
X167529226Y-61283694D01*
X167777538Y-61884655D01*
X168236927Y-62344846D01*
X168837453Y-62594206D01*
X169487694Y-62594774D01*
X170088655Y-62346462D01*
X170548846Y-61887073D01*
X170798206Y-61286547D01*
X170798774Y-60636306D01*
X170550462Y-60035345D01*
X170091073Y-59575154D01*
X169490547Y-59325794D01*
X168840306Y-59325226D01*
X168239345Y-59573538D01*
X167779154Y-60032927D01*
X167529794Y-60633453D01*
X167529226Y-61283694D01*
X128500754Y-61283694D01*
X129061686Y-61051922D01*
X129598039Y-60516505D01*
X129888668Y-59816590D01*
X129888741Y-59732782D01*
X130485141Y-59732782D01*
X130712808Y-60283780D01*
X131134003Y-60705710D01*
X131684602Y-60934339D01*
X132280782Y-60934859D01*
X132831780Y-60707192D01*
X133253710Y-60285997D01*
X133482339Y-59735398D01*
X133482859Y-59139218D01*
X133255192Y-58588220D01*
X133109887Y-58442661D01*
X138810758Y-58442661D01*
X139022990Y-58956303D01*
X139415630Y-59349629D01*
X139928900Y-59562757D01*
X140484661Y-59563242D01*
X140998303Y-59351010D01*
X141391629Y-58958370D01*
X141477949Y-58750488D01*
X141562990Y-58956303D01*
X141955630Y-59349629D01*
X142468900Y-59562757D01*
X143024661Y-59563242D01*
X143538303Y-59351010D01*
X143931629Y-58958370D01*
X144144757Y-58445100D01*
X144144759Y-58442661D01*
X151510758Y-58442661D01*
X151722990Y-58956303D01*
X152115630Y-59349629D01*
X152628900Y-59562757D01*
X153184661Y-59563242D01*
X153698303Y-59351010D01*
X154091629Y-58958370D01*
X154286239Y-58489694D01*
X154321226Y-58489694D01*
X154569538Y-59090655D01*
X155028927Y-59550846D01*
X155629453Y-59800206D01*
X156279694Y-59800774D01*
X156880655Y-59552462D01*
X157340846Y-59093073D01*
X157590206Y-58492547D01*
X157590208Y-58489694D01*
X170577226Y-58489694D01*
X170825538Y-59090655D01*
X171284927Y-59550846D01*
X171885453Y-59800206D01*
X172535694Y-59800774D01*
X173136655Y-59552462D01*
X173596846Y-59093073D01*
X173846206Y-58492547D01*
X173846249Y-58442661D01*
X176402758Y-58442661D01*
X176614990Y-58956303D01*
X177007630Y-59349629D01*
X177520900Y-59562757D01*
X178076661Y-59563242D01*
X178590303Y-59351010D01*
X178983629Y-58958370D01*
X179196757Y-58445100D01*
X179196759Y-58442661D01*
X186562758Y-58442661D01*
X186774990Y-58956303D01*
X187167630Y-59349629D01*
X187680900Y-59562757D01*
X188236661Y-59563242D01*
X188750303Y-59351010D01*
X188955457Y-59146213D01*
X189699392Y-59146213D01*
X189768857Y-59388397D01*
X190292302Y-59575144D01*
X190847368Y-59547362D01*
X191231143Y-59388397D01*
X191300608Y-59146213D01*
X190500000Y-58345605D01*
X189699392Y-59146213D01*
X188955457Y-59146213D01*
X189143629Y-58958370D01*
X189223395Y-58766273D01*
X189277603Y-58897143D01*
X189519787Y-58966608D01*
X190320395Y-58166000D01*
X190679605Y-58166000D01*
X191480213Y-58966608D01*
X191722397Y-58897143D01*
X191909144Y-58373698D01*
X191881362Y-57818632D01*
X191722397Y-57434857D01*
X191480213Y-57365392D01*
X190679605Y-58166000D01*
X190320395Y-58166000D01*
X189519787Y-57365392D01*
X189277603Y-57434857D01*
X189227491Y-57575318D01*
X189145010Y-57375697D01*
X188955432Y-57185787D01*
X189699392Y-57185787D01*
X190500000Y-57986395D01*
X191300608Y-57185787D01*
X191231143Y-56943603D01*
X190707698Y-56756856D01*
X190152632Y-56784638D01*
X189768857Y-56943603D01*
X189699392Y-57185787D01*
X188955432Y-57185787D01*
X188752370Y-56982371D01*
X188239100Y-56769243D01*
X187683339Y-56768758D01*
X187169697Y-56980990D01*
X186776371Y-57373630D01*
X186563243Y-57886900D01*
X186562758Y-58442661D01*
X179196759Y-58442661D01*
X179197242Y-57889339D01*
X178985010Y-57375697D01*
X178592370Y-56982371D01*
X178079100Y-56769243D01*
X177523339Y-56768758D01*
X177009697Y-56980990D01*
X176616371Y-57373630D01*
X176403243Y-57886900D01*
X176402758Y-58442661D01*
X173846249Y-58442661D01*
X173846774Y-57842306D01*
X173598462Y-57241345D01*
X173139073Y-56781154D01*
X172538547Y-56531794D01*
X171888306Y-56531226D01*
X171287345Y-56779538D01*
X170827154Y-57238927D01*
X170577794Y-57839453D01*
X170577226Y-58489694D01*
X157590208Y-58489694D01*
X157590774Y-57842306D01*
X157342462Y-57241345D01*
X156883073Y-56781154D01*
X156282547Y-56531794D01*
X155632306Y-56531226D01*
X155031345Y-56779538D01*
X154571154Y-57238927D01*
X154321794Y-57839453D01*
X154321226Y-58489694D01*
X154286239Y-58489694D01*
X154304757Y-58445100D01*
X154305242Y-57889339D01*
X154093010Y-57375697D01*
X153700370Y-56982371D01*
X153187100Y-56769243D01*
X152631339Y-56768758D01*
X152117697Y-56980990D01*
X151724371Y-57373630D01*
X151511243Y-57886900D01*
X151510758Y-58442661D01*
X144144759Y-58442661D01*
X144145242Y-57889339D01*
X143933010Y-57375697D01*
X143540370Y-56982371D01*
X143027100Y-56769243D01*
X142471339Y-56768758D01*
X141957697Y-56980990D01*
X141564371Y-57373630D01*
X141478051Y-57581512D01*
X141393010Y-57375697D01*
X141000370Y-56982371D01*
X140487100Y-56769243D01*
X139931339Y-56768758D01*
X139417697Y-56980990D01*
X139024371Y-57373630D01*
X138811243Y-57886900D01*
X138810758Y-58442661D01*
X133109887Y-58442661D01*
X132833997Y-58166290D01*
X132283398Y-57937661D01*
X131687218Y-57937141D01*
X131136220Y-58164808D01*
X130714290Y-58586003D01*
X130485661Y-59136602D01*
X130485141Y-59732782D01*
X129888741Y-59732782D01*
X129889330Y-59058735D01*
X129599922Y-58358314D01*
X129064505Y-57821961D01*
X128364590Y-57531332D01*
X127606735Y-57530670D01*
X126906314Y-57820078D01*
X126369961Y-58355495D01*
X126079332Y-59055410D01*
X126078670Y-59813265D01*
X125450005Y-59813265D01*
X125482339Y-59735398D01*
X125482859Y-59139218D01*
X125255192Y-58588220D01*
X124833997Y-58166290D01*
X124283398Y-57937661D01*
X123687218Y-57937141D01*
X123136220Y-58164808D01*
X122714290Y-58586003D01*
X122485661Y-59136602D01*
X122485141Y-59732782D01*
X121888741Y-59732782D01*
X121889330Y-59058735D01*
X121599922Y-58358314D01*
X121064505Y-57821961D01*
X120364590Y-57531332D01*
X119606735Y-57530670D01*
X118906314Y-57820078D01*
X118369961Y-58355495D01*
X118079332Y-59055410D01*
X118078670Y-59813265D01*
X115849945Y-59813265D01*
X115869897Y-55024528D01*
X190509077Y-55024528D01*
X190699364Y-55369271D01*
X191580591Y-55720956D01*
X192529323Y-55708641D01*
X193348636Y-55369271D01*
X193538923Y-55024528D01*
X192024000Y-53509605D01*
X190509077Y-55024528D01*
X115869897Y-55024528D01*
X115876822Y-53362661D01*
X144906758Y-53362661D01*
X145118990Y-53876303D01*
X145511630Y-54269629D01*
X146024900Y-54482757D01*
X146580661Y-54483242D01*
X147094303Y-54271010D01*
X147487629Y-53878370D01*
X147700757Y-53365100D01*
X147700759Y-53362661D01*
X155066758Y-53362661D01*
X155278990Y-53876303D01*
X155671630Y-54269629D01*
X156184900Y-54482757D01*
X156740661Y-54483242D01*
X157254303Y-54271010D01*
X157647629Y-53878370D01*
X157733949Y-53670488D01*
X157818990Y-53876303D01*
X158211630Y-54269629D01*
X158724900Y-54482757D01*
X159280661Y-54483242D01*
X159794303Y-54271010D01*
X160187629Y-53878370D01*
X160400757Y-53365100D01*
X160401174Y-52886591D01*
X189633044Y-52886591D01*
X189645359Y-53835323D01*
X189984729Y-54654636D01*
X190329472Y-54844923D01*
X191844395Y-53330000D01*
X190329472Y-51815077D01*
X189984729Y-52005364D01*
X189633044Y-52886591D01*
X160401174Y-52886591D01*
X160401242Y-52809339D01*
X160189010Y-52295697D01*
X159796370Y-51902371D01*
X159283100Y-51689243D01*
X158727339Y-51688758D01*
X158213697Y-51900990D01*
X157820371Y-52293630D01*
X157734051Y-52501512D01*
X157649010Y-52295697D01*
X157256370Y-51902371D01*
X156743100Y-51689243D01*
X156187339Y-51688758D01*
X155673697Y-51900990D01*
X155280371Y-52293630D01*
X155067243Y-52806900D01*
X155066758Y-53362661D01*
X147700759Y-53362661D01*
X147701242Y-52809339D01*
X147489010Y-52295697D01*
X147096370Y-51902371D01*
X146583100Y-51689243D01*
X146027339Y-51688758D01*
X145513697Y-51900990D01*
X145120371Y-52293630D01*
X144907243Y-52806900D01*
X144906758Y-53362661D01*
X115876822Y-53362661D01*
X115884019Y-51635472D01*
X190509077Y-51635472D01*
X192024000Y-53150395D01*
X193538923Y-51635472D01*
X193348636Y-51290729D01*
X192467409Y-50939044D01*
X191518677Y-50951359D01*
X190699364Y-51290729D01*
X190509077Y-51635472D01*
X115884019Y-51635472D01*
X115890279Y-50133250D01*
X116395500Y-50133250D01*
X116395500Y-50989810D01*
X116492173Y-51223199D01*
X116670802Y-51401827D01*
X116904191Y-51498500D01*
X117760750Y-51498500D01*
X117919500Y-51339750D01*
X117919500Y-49974500D01*
X118173500Y-49974500D01*
X118173500Y-51339750D01*
X118332250Y-51498500D01*
X119188809Y-51498500D01*
X119422198Y-51401827D01*
X119600827Y-51223199D01*
X119697500Y-50989810D01*
X119697500Y-50133250D01*
X119538750Y-49974500D01*
X118173500Y-49974500D01*
X117919500Y-49974500D01*
X116554250Y-49974500D01*
X116395500Y-50133250D01*
X115890279Y-50133250D01*
X115902053Y-47307500D01*
X116363155Y-47307500D01*
X116488830Y-47939310D01*
X116713466Y-48275501D01*
X116670802Y-48293173D01*
X116492173Y-48471801D01*
X116395500Y-48705190D01*
X116395500Y-49561750D01*
X116554250Y-49720500D01*
X117919500Y-49720500D01*
X117919500Y-49700500D01*
X118173500Y-49700500D01*
X118173500Y-49720500D01*
X119538750Y-49720500D01*
X119697500Y-49561750D01*
X119697500Y-48705190D01*
X119600827Y-48471801D01*
X119422198Y-48293173D01*
X119379534Y-48275501D01*
X119604170Y-47939310D01*
X119627565Y-47821694D01*
X135273766Y-47821694D01*
X135522078Y-48422655D01*
X135981467Y-48882846D01*
X136581993Y-49132206D01*
X137232234Y-49132774D01*
X137833195Y-48884462D01*
X138293386Y-48425073D01*
X138542746Y-47824547D01*
X138542748Y-47821694D01*
X141872686Y-47821694D01*
X142120998Y-48422655D01*
X142580387Y-48882846D01*
X143180913Y-49132206D01*
X143831154Y-49132774D01*
X144406611Y-48895000D01*
X160241655Y-48895000D01*
X160367330Y-49526810D01*
X160725222Y-50062433D01*
X161260845Y-50420325D01*
X161892655Y-50546000D01*
X161957345Y-50546000D01*
X162589155Y-50420325D01*
X163124778Y-50062433D01*
X163264185Y-49853795D01*
X182588716Y-49853795D01*
X182837106Y-50454943D01*
X183296637Y-50915278D01*
X183897352Y-51164716D01*
X184547795Y-51165284D01*
X185148943Y-50916894D01*
X185609278Y-50457363D01*
X185858716Y-49856648D01*
X185859284Y-49206205D01*
X185610894Y-48605057D01*
X185151363Y-48144722D01*
X184550648Y-47895284D01*
X183900205Y-47894716D01*
X183299057Y-48143106D01*
X182838722Y-48602637D01*
X182589284Y-49203352D01*
X182588716Y-49853795D01*
X163264185Y-49853795D01*
X163482670Y-49526810D01*
X163608345Y-48895000D01*
X163482670Y-48263190D01*
X163258034Y-47926999D01*
X163300698Y-47909327D01*
X163479327Y-47730699D01*
X163576000Y-47497310D01*
X163576000Y-47424528D01*
X190509077Y-47424528D01*
X190699364Y-47769271D01*
X191580591Y-48120956D01*
X192529323Y-48108641D01*
X193348636Y-47769271D01*
X193538923Y-47424528D01*
X192024000Y-45909605D01*
X190509077Y-47424528D01*
X163576000Y-47424528D01*
X163576000Y-46640750D01*
X163417250Y-46482000D01*
X162052000Y-46482000D01*
X162052000Y-46502000D01*
X161798000Y-46502000D01*
X161798000Y-46482000D01*
X160432750Y-46482000D01*
X160274000Y-46640750D01*
X160274000Y-47497310D01*
X160370673Y-47730699D01*
X160549302Y-47909327D01*
X160591966Y-47926999D01*
X160367330Y-48263190D01*
X160241655Y-48895000D01*
X144406611Y-48895000D01*
X144432115Y-48884462D01*
X144892306Y-48425073D01*
X145141666Y-47824547D01*
X145142234Y-47174306D01*
X144893922Y-46573345D01*
X144434533Y-46113154D01*
X143834007Y-45863794D01*
X143183766Y-45863226D01*
X142582805Y-46111538D01*
X142122614Y-46570927D01*
X141873254Y-47171453D01*
X141872686Y-47821694D01*
X138542748Y-47821694D01*
X138543314Y-47174306D01*
X138295002Y-46573345D01*
X137835613Y-46113154D01*
X137235087Y-45863794D01*
X136584846Y-45863226D01*
X135983885Y-46111538D01*
X135523694Y-46570927D01*
X135274334Y-47171453D01*
X135273766Y-47821694D01*
X119627565Y-47821694D01*
X119729845Y-47307500D01*
X119604170Y-46675690D01*
X119246278Y-46140067D01*
X118710655Y-45782175D01*
X118512005Y-45742661D01*
X144906758Y-45742661D01*
X145118990Y-46256303D01*
X145511630Y-46649629D01*
X146024900Y-46862757D01*
X146580661Y-46863242D01*
X147094303Y-46651010D01*
X147487629Y-46258370D01*
X147700757Y-45745100D01*
X147700759Y-45742661D01*
X155066758Y-45742661D01*
X155278990Y-46256303D01*
X155671630Y-46649629D01*
X156184900Y-46862757D01*
X156740661Y-46863242D01*
X157254303Y-46651010D01*
X157647629Y-46258370D01*
X157733949Y-46050488D01*
X157818990Y-46256303D01*
X158211630Y-46649629D01*
X158724900Y-46862757D01*
X159280661Y-46863242D01*
X159794303Y-46651010D01*
X160187629Y-46258370D01*
X160274000Y-46050365D01*
X160274000Y-46069250D01*
X160432750Y-46228000D01*
X161798000Y-46228000D01*
X161798000Y-44862750D01*
X162052000Y-44862750D01*
X162052000Y-46228000D01*
X163417250Y-46228000D01*
X163576000Y-46069250D01*
X163576000Y-45286591D01*
X189633044Y-45286591D01*
X189645359Y-46235323D01*
X189984729Y-47054636D01*
X190329472Y-47244923D01*
X191844395Y-45730000D01*
X190329472Y-44215077D01*
X189984729Y-44405364D01*
X189633044Y-45286591D01*
X163576000Y-45286591D01*
X163576000Y-45212690D01*
X163479327Y-44979301D01*
X163300698Y-44800673D01*
X163067309Y-44704000D01*
X162210750Y-44704000D01*
X162052000Y-44862750D01*
X161798000Y-44862750D01*
X161639250Y-44704000D01*
X160782691Y-44704000D01*
X160549302Y-44800673D01*
X160370673Y-44979301D01*
X160342530Y-45047244D01*
X160189010Y-44675697D01*
X159796370Y-44282371D01*
X159283100Y-44069243D01*
X158727339Y-44068758D01*
X158213697Y-44280990D01*
X157820371Y-44673630D01*
X157734051Y-44881512D01*
X157649010Y-44675697D01*
X157256370Y-44282371D01*
X156743100Y-44069243D01*
X156187339Y-44068758D01*
X155673697Y-44280990D01*
X155280371Y-44673630D01*
X155067243Y-45186900D01*
X155066758Y-45742661D01*
X147700759Y-45742661D01*
X147701242Y-45189339D01*
X147489010Y-44675697D01*
X147096370Y-44282371D01*
X146583100Y-44069243D01*
X146027339Y-44068758D01*
X145513697Y-44280990D01*
X145120371Y-44673630D01*
X144907243Y-45186900D01*
X144906758Y-45742661D01*
X118512005Y-45742661D01*
X118078845Y-45656500D01*
X118014155Y-45656500D01*
X117382345Y-45782175D01*
X116846722Y-46140067D01*
X116488830Y-46675690D01*
X116363155Y-47307500D01*
X115902053Y-47307500D01*
X115915686Y-44035472D01*
X190509077Y-44035472D01*
X192024000Y-45550395D01*
X193538923Y-44035472D01*
X193348636Y-43690729D01*
X192467409Y-43339044D01*
X191518677Y-43351359D01*
X190699364Y-43690729D01*
X190509077Y-44035472D01*
X115915686Y-44035472D01*
X115922029Y-42513250D01*
X134810500Y-42513250D01*
X134810500Y-43369809D01*
X134907173Y-43603198D01*
X135085801Y-43781827D01*
X135319190Y-43878500D01*
X136175750Y-43878500D01*
X136334500Y-43719750D01*
X136334500Y-42354500D01*
X134969250Y-42354500D01*
X134810500Y-42513250D01*
X115922029Y-42513250D01*
X115927979Y-41085191D01*
X134810500Y-41085191D01*
X134810500Y-41941750D01*
X134969250Y-42100500D01*
X136334500Y-42100500D01*
X136334500Y-40735250D01*
X136588500Y-40735250D01*
X136588500Y-42100500D01*
X136608500Y-42100500D01*
X136608500Y-42354500D01*
X136588500Y-42354500D01*
X136588500Y-43719750D01*
X136747250Y-43878500D01*
X137603810Y-43878500D01*
X137837199Y-43781827D01*
X138015827Y-43603198D01*
X138033499Y-43560534D01*
X138369690Y-43785170D01*
X139001500Y-43910845D01*
X139633310Y-43785170D01*
X140168933Y-43427278D01*
X140526825Y-42891655D01*
X140652500Y-42259845D01*
X140652500Y-42195155D01*
X140526825Y-41563345D01*
X140168933Y-41027722D01*
X139633310Y-40669830D01*
X139001500Y-40544155D01*
X138369690Y-40669830D01*
X138033499Y-40894466D01*
X138015827Y-40851802D01*
X137837199Y-40673173D01*
X137603810Y-40576500D01*
X136747250Y-40576500D01*
X136588500Y-40735250D01*
X136334500Y-40735250D01*
X136175750Y-40576500D01*
X135319190Y-40576500D01*
X135085801Y-40673173D01*
X134907173Y-40851802D01*
X134810500Y-41085191D01*
X115927979Y-41085191D01*
X115950472Y-35687000D01*
X194315000Y-35687000D01*
X194315000Y-45013093D01*
M02*
