%FSLAX45Y45*%
G04 Gerber Fmt 4.5, Leading zero omitted, Abs format (unit mm)*
G04 Created by KiCad (PCBNEW (2014-10-27 BZR 5228)-product) date 01/09/2015 10:24:30*
%MOMM*%
G01*
G04 APERTURE LIST*
%ADD10C,0.127000*%
%ADD11C,0.100000*%
%ADD12C,0.200000*%
%ADD13C,0.300000*%
G04 APERTURE END LIST*
D10*
D11*
X19500000Y-3500000D02*
X19500000Y-13500000D01*
X19500000Y-13500000D02*
X11500000Y-13500000D01*
X11500000Y-3500000D02*
X19500000Y-3500000D01*
X11500000Y-3500000D02*
X11500000Y-13500000D01*
D12*
X12058650Y-7164450D02*
X12122150Y-7227950D01*
X12122150Y-7164450D02*
X12058650Y-7227950D01*
X12363450Y-5024450D02*
X12426950Y-5087950D01*
X12426950Y-5024450D02*
X12363450Y-5087950D01*
X12719050Y-5024450D02*
X12782550Y-5087950D01*
X12782550Y-5024450D02*
X12719050Y-5087950D01*
X12719050Y-7715250D02*
X12782550Y-7778750D01*
X12782550Y-7715250D02*
X12719050Y-7778750D01*
X13074650Y-5024450D02*
X13138150Y-5087950D01*
X13138150Y-5024450D02*
X13074650Y-5087950D01*
X13354050Y-6191250D02*
X13417550Y-6254750D01*
X13417550Y-6191250D02*
X13354050Y-6254750D01*
X14293850Y-4997450D02*
X14357350Y-5060950D01*
X14357350Y-4997450D02*
X14293850Y-5060950D01*
X14954250Y-5962650D02*
X15017750Y-6026150D01*
X15017750Y-5962650D02*
X14954250Y-6026150D01*
X15868650Y-3651250D02*
X15932150Y-3714750D01*
X15932150Y-3651250D02*
X15868650Y-3714750D01*
X15868650Y-4692650D02*
X15932150Y-4756150D01*
X15932150Y-4692650D02*
X15868650Y-4756150D01*
X16122650Y-5149850D02*
X16186150Y-5213350D01*
X16186150Y-5149850D02*
X16122650Y-5213350D01*
X16351250Y-7943850D02*
X16414750Y-8007350D01*
X16414750Y-7943850D02*
X16351250Y-8007350D01*
X16351250Y-9061450D02*
X16414750Y-9124950D01*
X16414750Y-9061450D02*
X16351250Y-9124950D01*
X16351250Y-11220450D02*
X16414750Y-11283950D01*
X16414750Y-11220450D02*
X16351250Y-11283950D01*
X16376650Y-5784850D02*
X16440150Y-5848350D01*
X16440150Y-5784850D02*
X16376650Y-5848350D01*
X16376650Y-6851650D02*
X16440150Y-6915150D01*
X16440150Y-6851650D02*
X16376650Y-6915150D01*
X16402050Y-10153650D02*
X16465550Y-10217150D01*
X16465550Y-10153650D02*
X16402050Y-10217150D01*
X16656050Y-10941050D02*
X16719550Y-11004550D01*
X16719550Y-10941050D02*
X16656050Y-11004550D01*
X16656050Y-12033250D02*
X16719550Y-12096750D01*
X16719550Y-12033250D02*
X16656050Y-12096750D01*
X16681450Y-7639050D02*
X16744950Y-7702550D01*
X16744950Y-7639050D02*
X16681450Y-7702550D01*
X16681450Y-9823450D02*
X16744950Y-9886950D01*
X16744950Y-9823450D02*
X16681450Y-9886950D01*
X16706850Y-6572250D02*
X16770350Y-6635750D01*
X16770350Y-6572250D02*
X16706850Y-6635750D01*
X16706850Y-8731250D02*
X16770350Y-8794750D01*
X16770350Y-8731250D02*
X16706850Y-8794750D01*
X16935450Y-3702050D02*
X16998950Y-3765550D01*
X16998950Y-3702050D02*
X16935450Y-3765550D01*
X16935450Y-5284850D02*
X16998950Y-5348350D01*
X16998950Y-5284850D02*
X16935450Y-5348350D01*
X17646650Y-5284850D02*
X17710150Y-5348350D01*
X17710150Y-5284850D02*
X17646650Y-5348350D01*
X18307050Y-5276850D02*
X18370550Y-5340350D01*
X18370550Y-5276850D02*
X18307050Y-5340350D01*
X14058900Y-5816600D02*
G75*
G03X14058900Y-5816600I-38100J0D01*
G01*
X14058900Y-6578600D02*
G75*
G03X14058900Y-6578600I-38100J0D01*
G01*
X14058900Y-6908800D02*
G75*
G03X14058900Y-6908800I-38100J0D01*
G01*
X14058900Y-7670800D02*
G75*
G03X14058900Y-7670800I-38100J0D01*
G01*
X14058900Y-8001000D02*
G75*
G03X14058900Y-8001000I-38100J0D01*
G01*
X14058900Y-8763000D02*
G75*
G03X14058900Y-8763000I-38100J0D01*
G01*
X14058900Y-9093200D02*
G75*
G03X14058900Y-9093200I-38100J0D01*
G01*
X14058900Y-9855200D02*
G75*
G03X14058900Y-9855200I-38100J0D01*
G01*
X14058900Y-10185400D02*
G75*
G03X14058900Y-10185400I-38100J0D01*
G01*
X14058900Y-10947400D02*
G75*
G03X14058900Y-10947400I-38100J0D01*
G01*
X14058900Y-11277600D02*
G75*
G03X14058900Y-11277600I-38100J0D01*
G01*
X14058900Y-12039600D02*
G75*
G03X14058900Y-12039600I-38100J0D01*
G01*
X14058900Y-12420600D02*
G75*
G03X14058900Y-12420600I-38100J0D01*
G01*
X14058900Y-13182600D02*
G75*
G03X14058900Y-13182600I-38100J0D01*
G01*
X14312900Y-5816600D02*
G75*
G03X14312900Y-5816600I-38100J0D01*
G01*
X14312900Y-6578600D02*
G75*
G03X14312900Y-6578600I-38100J0D01*
G01*
X14312900Y-6908800D02*
G75*
G03X14312900Y-6908800I-38100J0D01*
G01*
X14312900Y-7670800D02*
G75*
G03X14312900Y-7670800I-38100J0D01*
G01*
X14312900Y-8001000D02*
G75*
G03X14312900Y-8001000I-38100J0D01*
G01*
X14312900Y-8763000D02*
G75*
G03X14312900Y-8763000I-38100J0D01*
G01*
X14312900Y-9093200D02*
G75*
G03X14312900Y-9093200I-38100J0D01*
G01*
X14312900Y-9855200D02*
G75*
G03X14312900Y-9855200I-38100J0D01*
G01*
X14312900Y-10185400D02*
G75*
G03X14312900Y-10185400I-38100J0D01*
G01*
X14312900Y-10947400D02*
G75*
G03X14312900Y-10947400I-38100J0D01*
G01*
X14312900Y-11277600D02*
G75*
G03X14312900Y-11277600I-38100J0D01*
G01*
X14312900Y-12039600D02*
G75*
G03X14312900Y-12039600I-38100J0D01*
G01*
X14312900Y-12420600D02*
G75*
G03X14312900Y-12420600I-38100J0D01*
G01*
X14312900Y-13182600D02*
G75*
G03X14312900Y-13182600I-38100J0D01*
G01*
X14668500Y-4546600D02*
G75*
G03X14668500Y-4546600I-38100J0D01*
G01*
X14668500Y-5308600D02*
G75*
G03X14668500Y-5308600I-38100J0D01*
G01*
X15328900Y-5816600D02*
G75*
G03X15328900Y-5816600I-38100J0D01*
G01*
X15328900Y-6578600D02*
G75*
G03X15328900Y-6578600I-38100J0D01*
G01*
X15328900Y-6908800D02*
G75*
G03X15328900Y-6908800I-38100J0D01*
G01*
X15328900Y-7670800D02*
G75*
G03X15328900Y-7670800I-38100J0D01*
G01*
X15328900Y-8001000D02*
G75*
G03X15328900Y-8001000I-38100J0D01*
G01*
X15328900Y-8763000D02*
G75*
G03X15328900Y-8763000I-38100J0D01*
G01*
X15328900Y-9093200D02*
G75*
G03X15328900Y-9093200I-38100J0D01*
G01*
X15328900Y-9855200D02*
G75*
G03X15328900Y-9855200I-38100J0D01*
G01*
X15328900Y-10185400D02*
G75*
G03X15328900Y-10185400I-38100J0D01*
G01*
X15328900Y-10947400D02*
G75*
G03X15328900Y-10947400I-38100J0D01*
G01*
X15328900Y-11277600D02*
G75*
G03X15328900Y-11277600I-38100J0D01*
G01*
X15328900Y-12039600D02*
G75*
G03X15328900Y-12039600I-38100J0D01*
G01*
X15328900Y-12420600D02*
G75*
G03X15328900Y-12420600I-38100J0D01*
G01*
X15328900Y-13182600D02*
G75*
G03X15328900Y-13182600I-38100J0D01*
G01*
X15684500Y-4546600D02*
G75*
G03X15684500Y-4546600I-38100J0D01*
G01*
X15684500Y-5308600D02*
G75*
G03X15684500Y-5308600I-38100J0D01*
G01*
X15938500Y-4546600D02*
G75*
G03X15938500Y-4546600I-38100J0D01*
G01*
X15938500Y-5308600D02*
G75*
G03X15938500Y-5308600I-38100J0D01*
G01*
X17259300Y-12369800D02*
G75*
G03X17259300Y-12369800I-38100J0D01*
G01*
X17259300Y-13131800D02*
G75*
G03X17259300Y-13131800I-38100J0D01*
G01*
X17818100Y-5816600D02*
G75*
G03X17818100Y-5816600I-38100J0D01*
G01*
X17818100Y-6578600D02*
G75*
G03X17818100Y-6578600I-38100J0D01*
G01*
X17818100Y-6908800D02*
G75*
G03X17818100Y-6908800I-38100J0D01*
G01*
X17818100Y-7670800D02*
G75*
G03X17818100Y-7670800I-38100J0D01*
G01*
X17818100Y-8001000D02*
G75*
G03X17818100Y-8001000I-38100J0D01*
G01*
X17818100Y-8763000D02*
G75*
G03X17818100Y-8763000I-38100J0D01*
G01*
X17818100Y-9093200D02*
G75*
G03X17818100Y-9093200I-38100J0D01*
G01*
X17818100Y-9855200D02*
G75*
G03X17818100Y-9855200I-38100J0D01*
G01*
X17818100Y-10185400D02*
G75*
G03X17818100Y-10185400I-38100J0D01*
G01*
X17818100Y-10947400D02*
G75*
G03X17818100Y-10947400I-38100J0D01*
G01*
X17818100Y-11252200D02*
G75*
G03X17818100Y-11252200I-38100J0D01*
G01*
X17818100Y-12014200D02*
G75*
G03X17818100Y-12014200I-38100J0D01*
G01*
X18275300Y-12369800D02*
G75*
G03X18275300Y-12369800I-38100J0D01*
G01*
X18275300Y-13131800D02*
G75*
G03X18275300Y-13131800I-38100J0D01*
G01*
X18529300Y-12369800D02*
G75*
G03X18529300Y-12369800I-38100J0D01*
G01*
X18529300Y-13131800D02*
G75*
G03X18529300Y-13131800I-38100J0D01*
G01*
X18834100Y-5816600D02*
G75*
G03X18834100Y-5816600I-38100J0D01*
G01*
X18834100Y-6578600D02*
G75*
G03X18834100Y-6578600I-38100J0D01*
G01*
X18834100Y-6908800D02*
G75*
G03X18834100Y-6908800I-38100J0D01*
G01*
X18834100Y-7670800D02*
G75*
G03X18834100Y-7670800I-38100J0D01*
G01*
X18834100Y-8001000D02*
G75*
G03X18834100Y-8001000I-38100J0D01*
G01*
X18834100Y-8763000D02*
G75*
G03X18834100Y-8763000I-38100J0D01*
G01*
X18834100Y-9093200D02*
G75*
G03X18834100Y-9093200I-38100J0D01*
G01*
X18834100Y-9855200D02*
G75*
G03X18834100Y-9855200I-38100J0D01*
G01*
X18834100Y-10185400D02*
G75*
G03X18834100Y-10185400I-38100J0D01*
G01*
X18834100Y-10947400D02*
G75*
G03X18834100Y-10947400I-38100J0D01*
G01*
X18834100Y-11252200D02*
G75*
G03X18834100Y-11252200I-38100J0D01*
G01*
X18834100Y-12014200D02*
G75*
G03X18834100Y-12014200I-38100J0D01*
G01*
X19088100Y-5816600D02*
G75*
G03X19088100Y-5816600I-38100J0D01*
G01*
X19088100Y-6578600D02*
G75*
G03X19088100Y-6578600I-38100J0D01*
G01*
X19088100Y-6908800D02*
G75*
G03X19088100Y-6908800I-38100J0D01*
G01*
X19088100Y-7670800D02*
G75*
G03X19088100Y-7670800I-38100J0D01*
G01*
X19088100Y-8001000D02*
G75*
G03X19088100Y-8001000I-38100J0D01*
G01*
X19088100Y-8763000D02*
G75*
G03X19088100Y-8763000I-38100J0D01*
G01*
X19088100Y-9093200D02*
G75*
G03X19088100Y-9093200I-38100J0D01*
G01*
X19088100Y-9855200D02*
G75*
G03X19088100Y-9855200I-38100J0D01*
G01*
X19088100Y-10185400D02*
G75*
G03X19088100Y-10185400I-38100J0D01*
G01*
X19088100Y-10947400D02*
G75*
G03X19088100Y-10947400I-38100J0D01*
G01*
X19088100Y-11252200D02*
G75*
G03X19088100Y-11252200I-38100J0D01*
G01*
X19088100Y-12014200D02*
G75*
G03X19088100Y-12014200I-38100J0D01*
G01*
X12496800Y-10374630D02*
X12496800Y-10453370D01*
X12457430Y-10414000D02*
X12536170Y-10414000D01*
X12750800Y-10120630D02*
X12750800Y-10199370D01*
X12711430Y-10160000D02*
X12790170Y-10160000D01*
X12750800Y-10628630D02*
X12750800Y-10707370D01*
X12711430Y-10668000D02*
X12790170Y-10668000D01*
X13719142Y-4778088D02*
X13719142Y-4721512D01*
X13662566Y-4721512D01*
X13662566Y-4778088D01*
X13719142Y-4778088D01*
X14379034Y-4778088D02*
X14379034Y-4721512D01*
X14322458Y-4721512D01*
X14322458Y-4778088D01*
X14379034Y-4778088D01*
X11836400Y-8930640D02*
X11877040Y-8890000D01*
X11836400Y-8849360D01*
X11795760Y-8890000D01*
X11836400Y-8930640D01*
X11836400Y-9184640D02*
X11877040Y-9144000D01*
X11836400Y-9103360D01*
X11795760Y-9144000D01*
X11836400Y-9184640D01*
X11836400Y-9438640D02*
X11877040Y-9398000D01*
X11836400Y-9357360D01*
X11795760Y-9398000D01*
X11836400Y-9438640D01*
X18376400Y-4907000D02*
X18468400Y-4999000D01*
X18468400Y-4907000D02*
X18376400Y-4999000D01*
X18468400Y-4953000D02*
G75*
G03X18468400Y-4953000I-46000J0D01*
G01*
X12268962Y-6604762D02*
X12369038Y-6704838D01*
X12369038Y-6604762D02*
X12268962Y-6704838D01*
X12319000Y-6604762D02*
X12319000Y-6704838D01*
X12268962Y-6654800D02*
X12369038Y-6654800D01*
X12522962Y-6604762D02*
X12623038Y-6704838D01*
X12623038Y-6604762D02*
X12522962Y-6704838D01*
X12573000Y-6604762D02*
X12573000Y-6704838D01*
X12522962Y-6654800D02*
X12623038Y-6654800D01*
X12776962Y-6604762D02*
X12877038Y-6704838D01*
X12877038Y-6604762D02*
X12776962Y-6704838D01*
X12827000Y-6604762D02*
X12827000Y-6704838D01*
X12776962Y-6654800D02*
X12877038Y-6654800D01*
X15494762Y-4166362D02*
X15594838Y-4266438D01*
X15594838Y-4166362D02*
X15494762Y-4266438D01*
X15544800Y-4166362D02*
X15544800Y-4266438D01*
X15494762Y-4216400D02*
X15594838Y-4216400D01*
X15545562Y-5766562D02*
X15645638Y-5866638D01*
X15645638Y-5766562D02*
X15545562Y-5866638D01*
X15595600Y-5766562D02*
X15595600Y-5866638D01*
X15545562Y-5816600D02*
X15645638Y-5816600D01*
X15545562Y-6858762D02*
X15645638Y-6958838D01*
X15645638Y-6858762D02*
X15545562Y-6958838D01*
X15595600Y-6858762D02*
X15595600Y-6958838D01*
X15545562Y-6908800D02*
X15645638Y-6908800D01*
X15545562Y-7950962D02*
X15645638Y-8051038D01*
X15645638Y-7950962D02*
X15545562Y-8051038D01*
X15595600Y-7950962D02*
X15595600Y-8051038D01*
X15545562Y-8001000D02*
X15645638Y-8001000D01*
X15545562Y-9043162D02*
X15645638Y-9143238D01*
X15645638Y-9043162D02*
X15545562Y-9143238D01*
X15595600Y-9043162D02*
X15595600Y-9143238D01*
X15545562Y-9093200D02*
X15645638Y-9093200D01*
X15545562Y-10135362D02*
X15645638Y-10235438D01*
X15645638Y-10135362D02*
X15545562Y-10235438D01*
X15595600Y-10135362D02*
X15595600Y-10235438D01*
X15545562Y-10185400D02*
X15645638Y-10185400D01*
X15545562Y-11227562D02*
X15645638Y-11327638D01*
X15645638Y-11227562D02*
X15545562Y-11327638D01*
X15595600Y-11227562D02*
X15595600Y-11327638D01*
X15545562Y-11277600D02*
X15645638Y-11277600D01*
X15799562Y-6528562D02*
X15899638Y-6628638D01*
X15899638Y-6528562D02*
X15799562Y-6628638D01*
X15849600Y-6528562D02*
X15849600Y-6628638D01*
X15799562Y-6578600D02*
X15899638Y-6578600D01*
X15799562Y-7620762D02*
X15899638Y-7720838D01*
X15899638Y-7620762D02*
X15799562Y-7720838D01*
X15849600Y-7620762D02*
X15849600Y-7720838D01*
X15799562Y-7670800D02*
X15899638Y-7670800D01*
X15799562Y-8712962D02*
X15899638Y-8813038D01*
X15899638Y-8712962D02*
X15799562Y-8813038D01*
X15849600Y-8712962D02*
X15849600Y-8813038D01*
X15799562Y-8763000D02*
X15899638Y-8763000D01*
X15799562Y-9805162D02*
X15899638Y-9905238D01*
X15899638Y-9805162D02*
X15799562Y-9905238D01*
X15849600Y-9805162D02*
X15849600Y-9905238D01*
X15799562Y-9855200D02*
X15899638Y-9855200D01*
X15799562Y-10897362D02*
X15899638Y-10997438D01*
X15899638Y-10897362D02*
X15799562Y-10997438D01*
X15849600Y-10897362D02*
X15849600Y-10997438D01*
X15799562Y-10947400D02*
X15899638Y-10947400D01*
X15799562Y-11989562D02*
X15899638Y-12089638D01*
X15899638Y-11989562D02*
X15799562Y-12089638D01*
X15849600Y-11989562D02*
X15849600Y-12089638D01*
X15799562Y-12039600D02*
X15899638Y-12039600D01*
X16104362Y-6299962D02*
X16204438Y-6400038D01*
X16204438Y-6299962D02*
X16104362Y-6400038D01*
X16154400Y-6299962D02*
X16154400Y-6400038D01*
X16104362Y-6350000D02*
X16204438Y-6350000D01*
X16104362Y-7315962D02*
X16204438Y-7416038D01*
X16204438Y-7315962D02*
X16104362Y-7416038D01*
X16154400Y-7315962D02*
X16154400Y-7416038D01*
X16104362Y-7366000D02*
X16204438Y-7366000D01*
X16104362Y-8433562D02*
X16204438Y-8533638D01*
X16204438Y-8433562D02*
X16104362Y-8533638D01*
X16154400Y-8433562D02*
X16154400Y-8533638D01*
X16104362Y-8483600D02*
X16204438Y-8483600D01*
X16104362Y-9525762D02*
X16204438Y-9625838D01*
X16204438Y-9525762D02*
X16104362Y-9625838D01*
X16154400Y-9525762D02*
X16154400Y-9625838D01*
X16104362Y-9575800D02*
X16204438Y-9575800D01*
X16104362Y-10617962D02*
X16204438Y-10718038D01*
X16204438Y-10617962D02*
X16104362Y-10718038D01*
X16154400Y-10617962D02*
X16154400Y-10718038D01*
X16104362Y-10668000D02*
X16204438Y-10668000D01*
X16104362Y-11710162D02*
X16204438Y-11810238D01*
X16204438Y-11710162D02*
X16104362Y-11810238D01*
X16154400Y-11710162D02*
X16154400Y-11810238D01*
X16104362Y-11760200D02*
X16204438Y-11760200D01*
X16256762Y-3912362D02*
X16356838Y-4012438D01*
X16356838Y-3912362D02*
X16256762Y-4012438D01*
X16306800Y-3912362D02*
X16306800Y-4012438D01*
X16256762Y-3962400D02*
X16356838Y-3962400D01*
X16561562Y-3709162D02*
X16661638Y-3809238D01*
X16661638Y-3709162D02*
X16561562Y-3809238D01*
X16611600Y-3709162D02*
X16611600Y-3809238D01*
X16561562Y-3759200D02*
X16661638Y-3759200D01*
X16815562Y-4471162D02*
X16915638Y-4571238D01*
X16915638Y-4471162D02*
X16815562Y-4571238D01*
X16865600Y-4471162D02*
X16865600Y-4571238D01*
X16815562Y-4521200D02*
X16915638Y-4521200D01*
X16866362Y-6045962D02*
X16966438Y-6146038D01*
X16966438Y-6045962D02*
X16866362Y-6146038D01*
X16916400Y-6045962D02*
X16916400Y-6146038D01*
X16866362Y-6096000D02*
X16966438Y-6096000D01*
X16866362Y-7061962D02*
X16966438Y-7162038D01*
X16966438Y-7061962D02*
X16866362Y-7162038D01*
X16916400Y-7061962D02*
X16916400Y-7162038D01*
X16866362Y-7112000D02*
X16966438Y-7112000D01*
X16866362Y-8179562D02*
X16966438Y-8279638D01*
X16966438Y-8179562D02*
X16866362Y-8279638D01*
X16916400Y-8179562D02*
X16916400Y-8279638D01*
X16866362Y-8229600D02*
X16966438Y-8229600D01*
X16866362Y-9271762D02*
X16966438Y-9371838D01*
X16966438Y-9271762D02*
X16866362Y-9371838D01*
X16916400Y-9271762D02*
X16916400Y-9371838D01*
X16866362Y-9321800D02*
X16966438Y-9321800D01*
X16866362Y-10363962D02*
X16966438Y-10464038D01*
X16966438Y-10363962D02*
X16866362Y-10464038D01*
X16916400Y-10363962D02*
X16916400Y-10464038D01*
X16866362Y-10414000D02*
X16966438Y-10414000D01*
X16866362Y-11456162D02*
X16966438Y-11556238D01*
X16966438Y-11456162D02*
X16866362Y-11556238D01*
X16916400Y-11456162D02*
X16916400Y-11556238D01*
X16866362Y-11506200D02*
X16966438Y-11506200D01*
X17120362Y-4166362D02*
X17220438Y-4266438D01*
X17220438Y-4166362D02*
X17120362Y-4266438D01*
X17170400Y-4166362D02*
X17170400Y-4266438D01*
X17120362Y-4216400D02*
X17220438Y-4216400D01*
X17171162Y-5766562D02*
X17271238Y-5866638D01*
X17271238Y-5766562D02*
X17171162Y-5866638D01*
X17221200Y-5766562D02*
X17221200Y-5866638D01*
X17171162Y-5816600D02*
X17271238Y-5816600D01*
X17171162Y-6858762D02*
X17271238Y-6958838D01*
X17271238Y-6858762D02*
X17171162Y-6958838D01*
X17221200Y-6858762D02*
X17221200Y-6958838D01*
X17171162Y-6908800D02*
X17271238Y-6908800D01*
X17171162Y-7950962D02*
X17271238Y-8051038D01*
X17271238Y-7950962D02*
X17171162Y-8051038D01*
X17221200Y-7950962D02*
X17221200Y-8051038D01*
X17171162Y-8001000D02*
X17271238Y-8001000D01*
X17171162Y-9043162D02*
X17271238Y-9143238D01*
X17271238Y-9043162D02*
X17171162Y-9143238D01*
X17221200Y-9043162D02*
X17221200Y-9143238D01*
X17171162Y-9093200D02*
X17271238Y-9093200D01*
X17171162Y-10135362D02*
X17271238Y-10235438D01*
X17271238Y-10135362D02*
X17171162Y-10235438D01*
X17221200Y-10135362D02*
X17221200Y-10235438D01*
X17171162Y-10185400D02*
X17271238Y-10185400D01*
X17171162Y-11202162D02*
X17271238Y-11302238D01*
X17271238Y-11202162D02*
X17171162Y-11302238D01*
X17221200Y-11202162D02*
X17221200Y-11302238D01*
X17171162Y-11252200D02*
X17271238Y-11252200D01*
X17425162Y-6528562D02*
X17525238Y-6628638D01*
X17525238Y-6528562D02*
X17425162Y-6628638D01*
X17475200Y-6528562D02*
X17475200Y-6628638D01*
X17425162Y-6578600D02*
X17525238Y-6578600D01*
X17425162Y-7620762D02*
X17525238Y-7720838D01*
X17525238Y-7620762D02*
X17425162Y-7720838D01*
X17475200Y-7620762D02*
X17475200Y-7720838D01*
X17425162Y-7670800D02*
X17525238Y-7670800D01*
X17425162Y-8712962D02*
X17525238Y-8813038D01*
X17525238Y-8712962D02*
X17425162Y-8813038D01*
X17475200Y-8712962D02*
X17475200Y-8813038D01*
X17425162Y-8763000D02*
X17525238Y-8763000D01*
X17425162Y-9805162D02*
X17525238Y-9905238D01*
X17525238Y-9805162D02*
X17425162Y-9905238D01*
X17475200Y-9805162D02*
X17475200Y-9905238D01*
X17425162Y-9855200D02*
X17525238Y-9855200D01*
X17425162Y-10897362D02*
X17525238Y-10997438D01*
X17525238Y-10897362D02*
X17425162Y-10997438D01*
X17475200Y-10897362D02*
X17475200Y-10997438D01*
X17425162Y-10947400D02*
X17525238Y-10947400D01*
X17425162Y-11964162D02*
X17525238Y-12064238D01*
X17525238Y-11964162D02*
X17425162Y-12064238D01*
X17475200Y-11964162D02*
X17475200Y-12064238D01*
X17425162Y-12014200D02*
X17525238Y-12014200D01*
X17882362Y-3912362D02*
X17982438Y-4012438D01*
X17982438Y-3912362D02*
X17882362Y-4012438D01*
X17932400Y-3912362D02*
X17932400Y-4012438D01*
X17882362Y-3962400D02*
X17982438Y-3962400D01*
X11658600Y-10287000D02*
X11760200Y-10388600D01*
X11760200Y-10287000D02*
X11658600Y-10388600D01*
X11745321Y-10373721D02*
X11745321Y-10301879D01*
X11673479Y-10301879D01*
X11673479Y-10373721D01*
X11745321Y-10373721D01*
X11658600Y-10541000D02*
X11760200Y-10642600D01*
X11760200Y-10541000D02*
X11658600Y-10642600D01*
X11745321Y-10627721D02*
X11745321Y-10555879D01*
X11673479Y-10555879D01*
X11673479Y-10627721D01*
X11745321Y-10627721D01*
X11861800Y-11099800D02*
X11963400Y-11201400D01*
X11963400Y-11099800D02*
X11861800Y-11201400D01*
X11948521Y-11186521D02*
X11948521Y-11114679D01*
X11876679Y-11114679D01*
X11876679Y-11186521D01*
X11948521Y-11186521D01*
X11861800Y-11353800D02*
X11963400Y-11455400D01*
X11963400Y-11353800D02*
X11861800Y-11455400D01*
X11948521Y-11440521D02*
X11948521Y-11368679D01*
X11876679Y-11368679D01*
X11876679Y-11440521D01*
X11948521Y-11440521D01*
X11861800Y-11607800D02*
X11963400Y-11709400D01*
X11963400Y-11607800D02*
X11861800Y-11709400D01*
X11948521Y-11694521D02*
X11948521Y-11622679D01*
X11876679Y-11622679D01*
X11876679Y-11694521D01*
X11948521Y-11694521D01*
X11861800Y-11861800D02*
X11963400Y-11963400D01*
X11963400Y-11861800D02*
X11861800Y-11963400D01*
X11948521Y-11948521D02*
X11948521Y-11876679D01*
X11876679Y-11876679D01*
X11876679Y-11948521D01*
X11948521Y-11948521D01*
X11861800Y-12115800D02*
X11963400Y-12217400D01*
X11963400Y-12115800D02*
X11861800Y-12217400D01*
X11948521Y-12202521D02*
X11948521Y-12130679D01*
X11876679Y-12130679D01*
X11876679Y-12202521D01*
X11948521Y-12202521D01*
X11861800Y-12369800D02*
X11963400Y-12471400D01*
X11963400Y-12369800D02*
X11861800Y-12471400D01*
X11948521Y-12456521D02*
X11948521Y-12384679D01*
X11876679Y-12384679D01*
X11876679Y-12456521D01*
X11948521Y-12456521D01*
X12115800Y-11099800D02*
X12217400Y-11201400D01*
X12217400Y-11099800D02*
X12115800Y-11201400D01*
X12202521Y-11186521D02*
X12202521Y-11114679D01*
X12130679Y-11114679D01*
X12130679Y-11186521D01*
X12202521Y-11186521D01*
X12115800Y-11353800D02*
X12217400Y-11455400D01*
X12217400Y-11353800D02*
X12115800Y-11455400D01*
X12202521Y-11440521D02*
X12202521Y-11368679D01*
X12130679Y-11368679D01*
X12130679Y-11440521D01*
X12202521Y-11440521D01*
X12115800Y-11607800D02*
X12217400Y-11709400D01*
X12217400Y-11607800D02*
X12115800Y-11709400D01*
X12202521Y-11694521D02*
X12202521Y-11622679D01*
X12130679Y-11622679D01*
X12130679Y-11694521D01*
X12202521Y-11694521D01*
X12115800Y-11861800D02*
X12217400Y-11963400D01*
X12217400Y-11861800D02*
X12115800Y-11963400D01*
X12202521Y-11948521D02*
X12202521Y-11876679D01*
X12130679Y-11876679D01*
X12130679Y-11948521D01*
X12202521Y-11948521D01*
X12115800Y-12115800D02*
X12217400Y-12217400D01*
X12217400Y-12115800D02*
X12115800Y-12217400D01*
X12202521Y-12202521D02*
X12202521Y-12130679D01*
X12130679Y-12130679D01*
X12130679Y-12202521D01*
X12202521Y-12202521D01*
X12115800Y-12369800D02*
X12217400Y-12471400D01*
X12217400Y-12369800D02*
X12115800Y-12471400D01*
X12202521Y-12456521D02*
X12202521Y-12384679D01*
X12130679Y-12384679D01*
X12130679Y-12456521D01*
X12202521Y-12456521D01*
X12347600Y-5892800D02*
X12449200Y-5994400D01*
X12449200Y-5892800D02*
X12347600Y-5994400D01*
X12434321Y-5979521D02*
X12434321Y-5907679D01*
X12362479Y-5907679D01*
X12362479Y-5979521D01*
X12434321Y-5979521D01*
X12674600Y-9118600D02*
X12776200Y-9220200D01*
X12776200Y-9118600D02*
X12674600Y-9220200D01*
X12761321Y-9205321D02*
X12761321Y-9133479D01*
X12689479Y-9133479D01*
X12689479Y-9205321D01*
X12761321Y-9205321D01*
X12674600Y-9372600D02*
X12776200Y-9474200D01*
X12776200Y-9372600D02*
X12674600Y-9474200D01*
X12761321Y-9459321D02*
X12761321Y-9387479D01*
X12689479Y-9387479D01*
X12689479Y-9459321D01*
X12761321Y-9459321D01*
X12928600Y-9118600D02*
X13030200Y-9220200D01*
X13030200Y-9118600D02*
X12928600Y-9220200D01*
X13015321Y-9205321D02*
X13015321Y-9133479D01*
X12943479Y-9133479D01*
X12943479Y-9205321D01*
X13015321Y-9205321D01*
X12928600Y-9372600D02*
X13030200Y-9474200D01*
X13030200Y-9372600D02*
X12928600Y-9474200D01*
X13015321Y-9459321D02*
X13015321Y-9387479D01*
X12943479Y-9387479D01*
X12943479Y-9459321D01*
X13015321Y-9459321D01*
X13147600Y-5892800D02*
X13249200Y-5994400D01*
X13249200Y-5892800D02*
X13147600Y-5994400D01*
X13234321Y-5979521D02*
X13234321Y-5907679D01*
X13162479Y-5907679D01*
X13162479Y-5979521D01*
X13234321Y-5979521D01*
X13563600Y-3759200D02*
X13665200Y-3860800D01*
X13665200Y-3759200D02*
X13563600Y-3860800D01*
X13650321Y-3845921D02*
X13650321Y-3774079D01*
X13578479Y-3774079D01*
X13578479Y-3845921D01*
X13650321Y-3845921D01*
X13817600Y-3759200D02*
X13919200Y-3860800D01*
X13919200Y-3759200D02*
X13817600Y-3860800D01*
X13904321Y-3845921D02*
X13904321Y-3774079D01*
X13832479Y-3774079D01*
X13832479Y-3845921D01*
X13904321Y-3845921D01*
X14630400Y-3759200D02*
X14732000Y-3860800D01*
X14732000Y-3759200D02*
X14630400Y-3860800D01*
X14717121Y-3845921D02*
X14717121Y-3774079D01*
X14645279Y-3774079D01*
X14645279Y-3845921D01*
X14717121Y-3845921D01*
X14884400Y-3759200D02*
X14986000Y-3860800D01*
X14986000Y-3759200D02*
X14884400Y-3860800D01*
X14971121Y-3845921D02*
X14971121Y-3774079D01*
X14899279Y-3774079D01*
X14899279Y-3845921D01*
X14971121Y-3845921D01*
X11923400Y-5868600D02*
X12073400Y-6018600D01*
X12073400Y-5868600D02*
X11923400Y-6018600D01*
X11998400Y-6018600D02*
X12073400Y-5943600D01*
X11998400Y-5868600D01*
X11923400Y-5943600D01*
X11998400Y-6018600D01*
X12723400Y-5868600D02*
X12873400Y-6018600D01*
X12873400Y-5868600D02*
X12723400Y-6018600D01*
X12798400Y-6018600D02*
X12873400Y-5943600D01*
X12798400Y-5868600D01*
X12723400Y-5943600D01*
X12798400Y-6018600D01*
X19202400Y-4483000D02*
X19202400Y-4663000D01*
X19112400Y-4573000D02*
X19292400Y-4573000D01*
X19292400Y-4573000D02*
G75*
G03X19292400Y-4573000I-90000J0D01*
G01*
X19202400Y-5243000D02*
X19202400Y-5423000D01*
X19112400Y-5333000D02*
X19292400Y-5333000D01*
X19292400Y-5333000D02*
G75*
G03X19292400Y-5333000I-90000J0D01*
G01*
X12050487Y-4049487D02*
X12050487Y-3773713D01*
X11774713Y-3773713D01*
X11774713Y-4049487D01*
X12050487Y-4049487D01*
X12107600Y-3911600D02*
G75*
G03X12107600Y-3911600I-195000J0D01*
G01*
X12050487Y-13244287D02*
X12050487Y-12968513D01*
X11774713Y-12968513D01*
X11774713Y-13244287D01*
X12050487Y-13244287D01*
X12107600Y-13106400D02*
G75*
G03X12107600Y-13106400I-195000J0D01*
G01*
X19238687Y-4049487D02*
X19238687Y-3773713D01*
X18962913Y-3773713D01*
X18962913Y-4049487D01*
X19238687Y-4049487D01*
X19295800Y-3911600D02*
G75*
G03X19295800Y-3911600I-195000J0D01*
G01*
X19238687Y-13244287D02*
X19238687Y-12968513D01*
X18962913Y-12968513D01*
X18962913Y-13244287D01*
X19238687Y-13244287D01*
X19295800Y-13106400D02*
G75*
G03X19295800Y-13106400I-195000J0D01*
G01*
X12598400Y-8707374D02*
X12898374Y-8407400D01*
X12598400Y-8107426D01*
X12298426Y-8407400D01*
X12598400Y-8707374D01*
X12898374Y-8407400D02*
G75*
G03X12898374Y-8407400I-299974J0D01*
G01*
D13*
X11766428Y-13970714D02*
X11766428Y-13670714D01*
X11837857Y-13670714D01*
X11880714Y-13685000D01*
X11909286Y-13713571D01*
X11923571Y-13742143D01*
X11937857Y-13799286D01*
X11937857Y-13842143D01*
X11923571Y-13899286D01*
X11909286Y-13927857D01*
X11880714Y-13956429D01*
X11837857Y-13970714D01*
X11766428Y-13970714D01*
X12066428Y-13970714D02*
X12066428Y-13770714D01*
X12066428Y-13827857D02*
X12080714Y-13799286D01*
X12095000Y-13785000D01*
X12123571Y-13770714D01*
X12152143Y-13770714D01*
X12252143Y-13970714D02*
X12252143Y-13770714D01*
X12252143Y-13670714D02*
X12237857Y-13685000D01*
X12252143Y-13699286D01*
X12266428Y-13685000D01*
X12252143Y-13670714D01*
X12252143Y-13699286D01*
X12437857Y-13970714D02*
X12409286Y-13956429D01*
X12395000Y-13927857D01*
X12395000Y-13670714D01*
X12595000Y-13970714D02*
X12566428Y-13956429D01*
X12552143Y-13927857D01*
X12552143Y-13670714D01*
X12937857Y-13970714D02*
X12937857Y-13670714D01*
X13037857Y-13885000D01*
X13137857Y-13670714D01*
X13137857Y-13970714D01*
X13409286Y-13970714D02*
X13409286Y-13813571D01*
X13395000Y-13785000D01*
X13366428Y-13770714D01*
X13309286Y-13770714D01*
X13280714Y-13785000D01*
X13409286Y-13956429D02*
X13380714Y-13970714D01*
X13309286Y-13970714D01*
X13280714Y-13956429D01*
X13266428Y-13927857D01*
X13266428Y-13899286D01*
X13280714Y-13870714D01*
X13309286Y-13856429D01*
X13380714Y-13856429D01*
X13409286Y-13842143D01*
X13552143Y-13770714D02*
X13552143Y-14070714D01*
X13552143Y-13785000D02*
X13580714Y-13770714D01*
X13637857Y-13770714D01*
X13666428Y-13785000D01*
X13680714Y-13799286D01*
X13695000Y-13827857D01*
X13695000Y-13913571D01*
X13680714Y-13942143D01*
X13666428Y-13956429D01*
X13637857Y-13970714D01*
X13580714Y-13970714D01*
X13552143Y-13956429D01*
X13823571Y-13942143D02*
X13837857Y-13956429D01*
X13823571Y-13970714D01*
X13809286Y-13956429D01*
X13823571Y-13942143D01*
X13823571Y-13970714D01*
X13823571Y-13785000D02*
X13837857Y-13799286D01*
X13823571Y-13813571D01*
X13809286Y-13799286D01*
X13823571Y-13785000D01*
X13823571Y-13813571D01*
X11431500Y-14433250D02*
X11495000Y-14496750D01*
X11495000Y-14433250D02*
X11431500Y-14496750D01*
X11823571Y-14300714D02*
X11852143Y-14300714D01*
X11880714Y-14315000D01*
X11895000Y-14329286D01*
X11909286Y-14357857D01*
X11923571Y-14415000D01*
X11923571Y-14486429D01*
X11909286Y-14543571D01*
X11895000Y-14572143D01*
X11880714Y-14586429D01*
X11852143Y-14600714D01*
X11823571Y-14600714D01*
X11795000Y-14586429D01*
X11780714Y-14572143D01*
X11766428Y-14543571D01*
X11752143Y-14486429D01*
X11752143Y-14415000D01*
X11766428Y-14357857D01*
X11780714Y-14329286D01*
X11795000Y-14315000D01*
X11823571Y-14300714D01*
X12052143Y-14572143D02*
X12066428Y-14586429D01*
X12052143Y-14600714D01*
X12037857Y-14586429D01*
X12052143Y-14572143D01*
X12052143Y-14600714D01*
X12323571Y-14300714D02*
X12266428Y-14300714D01*
X12237857Y-14315000D01*
X12223571Y-14329286D01*
X12195000Y-14372143D01*
X12180714Y-14429286D01*
X12180714Y-14543571D01*
X12195000Y-14572143D01*
X12209286Y-14586429D01*
X12237857Y-14600714D01*
X12295000Y-14600714D01*
X12323571Y-14586429D01*
X12337857Y-14572143D01*
X12352143Y-14543571D01*
X12352143Y-14472143D01*
X12337857Y-14443571D01*
X12323571Y-14429286D01*
X12295000Y-14415000D01*
X12237857Y-14415000D01*
X12209286Y-14429286D01*
X12195000Y-14443571D01*
X12180714Y-14472143D01*
X12609286Y-14400714D02*
X12609286Y-14600714D01*
X12537857Y-14286429D02*
X12466428Y-14500714D01*
X12652143Y-14500714D01*
X12766428Y-14600714D02*
X12766428Y-14400714D01*
X12766428Y-14429286D02*
X12780714Y-14415000D01*
X12809286Y-14400714D01*
X12852143Y-14400714D01*
X12880714Y-14415000D01*
X12895000Y-14443571D01*
X12895000Y-14600714D01*
X12895000Y-14443571D02*
X12909286Y-14415000D01*
X12937857Y-14400714D01*
X12980714Y-14400714D01*
X13009286Y-14415000D01*
X13023571Y-14443571D01*
X13023571Y-14600714D01*
X13166428Y-14600714D02*
X13166428Y-14400714D01*
X13166428Y-14429286D02*
X13180714Y-14415000D01*
X13209286Y-14400714D01*
X13252143Y-14400714D01*
X13280714Y-14415000D01*
X13295000Y-14443571D01*
X13295000Y-14600714D01*
X13295000Y-14443571D02*
X13309286Y-14415000D01*
X13337857Y-14400714D01*
X13380714Y-14400714D01*
X13409286Y-14415000D01*
X13423571Y-14443571D01*
X13423571Y-14600714D01*
X14009286Y-14286429D02*
X13752143Y-14672143D01*
X14395000Y-14300714D02*
X14423571Y-14300714D01*
X14452143Y-14315000D01*
X14466428Y-14329286D01*
X14480714Y-14357857D01*
X14495000Y-14415000D01*
X14495000Y-14486429D01*
X14480714Y-14543571D01*
X14466428Y-14572143D01*
X14452143Y-14586429D01*
X14423571Y-14600714D01*
X14395000Y-14600714D01*
X14366428Y-14586429D01*
X14352143Y-14572143D01*
X14337857Y-14543571D01*
X14323571Y-14486429D01*
X14323571Y-14415000D01*
X14337857Y-14357857D01*
X14352143Y-14329286D01*
X14366428Y-14315000D01*
X14395000Y-14300714D01*
X14623571Y-14572143D02*
X14637857Y-14586429D01*
X14623571Y-14600714D01*
X14609286Y-14586429D01*
X14623571Y-14572143D01*
X14623571Y-14600714D01*
X14823571Y-14300714D02*
X14852143Y-14300714D01*
X14880714Y-14315000D01*
X14895000Y-14329286D01*
X14909285Y-14357857D01*
X14923571Y-14415000D01*
X14923571Y-14486429D01*
X14909285Y-14543571D01*
X14895000Y-14572143D01*
X14880714Y-14586429D01*
X14852143Y-14600714D01*
X14823571Y-14600714D01*
X14795000Y-14586429D01*
X14780714Y-14572143D01*
X14766428Y-14543571D01*
X14752143Y-14486429D01*
X14752143Y-14415000D01*
X14766428Y-14357857D01*
X14780714Y-14329286D01*
X14795000Y-14315000D01*
X14823571Y-14300714D01*
X15037857Y-14329286D02*
X15052143Y-14315000D01*
X15080714Y-14300714D01*
X15152143Y-14300714D01*
X15180714Y-14315000D01*
X15195000Y-14329286D01*
X15209285Y-14357857D01*
X15209285Y-14386429D01*
X15195000Y-14429286D01*
X15023571Y-14600714D01*
X15209285Y-14600714D01*
X15480714Y-14300714D02*
X15337857Y-14300714D01*
X15323571Y-14443571D01*
X15337857Y-14429286D01*
X15366428Y-14415000D01*
X15437857Y-14415000D01*
X15466428Y-14429286D01*
X15480714Y-14443571D01*
X15495000Y-14472143D01*
X15495000Y-14543571D01*
X15480714Y-14572143D01*
X15466428Y-14586429D01*
X15437857Y-14600714D01*
X15366428Y-14600714D01*
X15337857Y-14586429D01*
X15323571Y-14572143D01*
X15609286Y-14300714D02*
X15609286Y-14357857D01*
X15723571Y-14300714D02*
X15723571Y-14357857D01*
X16166428Y-14715000D02*
X16152143Y-14700714D01*
X16123571Y-14657857D01*
X16109285Y-14629286D01*
X16095000Y-14586429D01*
X16080714Y-14515000D01*
X16080714Y-14457857D01*
X16095000Y-14386429D01*
X16109285Y-14343571D01*
X16123571Y-14315000D01*
X16152143Y-14272143D01*
X16166428Y-14257857D01*
X16266428Y-14329286D02*
X16280714Y-14315000D01*
X16309285Y-14300714D01*
X16380714Y-14300714D01*
X16409285Y-14315000D01*
X16423571Y-14329286D01*
X16437857Y-14357857D01*
X16437857Y-14386429D01*
X16423571Y-14429286D01*
X16252143Y-14600714D01*
X16437857Y-14600714D01*
X16537857Y-14300714D02*
X16737857Y-14300714D01*
X16609285Y-14600714D01*
X17080714Y-14600714D02*
X17080714Y-14300714D01*
X17209286Y-14600714D02*
X17209286Y-14443571D01*
X17195000Y-14415000D01*
X17166428Y-14400714D01*
X17123571Y-14400714D01*
X17095000Y-14415000D01*
X17080714Y-14429286D01*
X17395000Y-14600714D02*
X17366428Y-14586429D01*
X17352143Y-14572143D01*
X17337857Y-14543571D01*
X17337857Y-14457857D01*
X17352143Y-14429286D01*
X17366428Y-14415000D01*
X17395000Y-14400714D01*
X17437857Y-14400714D01*
X17466428Y-14415000D01*
X17480714Y-14429286D01*
X17495000Y-14457857D01*
X17495000Y-14543571D01*
X17480714Y-14572143D01*
X17466428Y-14586429D01*
X17437857Y-14600714D01*
X17395000Y-14600714D01*
X17666428Y-14600714D02*
X17637857Y-14586429D01*
X17623571Y-14557857D01*
X17623571Y-14300714D01*
X17895000Y-14586429D02*
X17866429Y-14600714D01*
X17809286Y-14600714D01*
X17780714Y-14586429D01*
X17766429Y-14557857D01*
X17766429Y-14443571D01*
X17780714Y-14415000D01*
X17809286Y-14400714D01*
X17866429Y-14400714D01*
X17895000Y-14415000D01*
X17909286Y-14443571D01*
X17909286Y-14472143D01*
X17766429Y-14500714D01*
X18023571Y-14586429D02*
X18052143Y-14600714D01*
X18109286Y-14600714D01*
X18137857Y-14586429D01*
X18152143Y-14557857D01*
X18152143Y-14543571D01*
X18137857Y-14515000D01*
X18109286Y-14500714D01*
X18066429Y-14500714D01*
X18037857Y-14486429D01*
X18023571Y-14457857D01*
X18023571Y-14443571D01*
X18037857Y-14415000D01*
X18066429Y-14400714D01*
X18109286Y-14400714D01*
X18137857Y-14415000D01*
X18252143Y-14715000D02*
X18266429Y-14700714D01*
X18295000Y-14657857D01*
X18309286Y-14629286D01*
X18323571Y-14586429D01*
X18337857Y-14515000D01*
X18337857Y-14457857D01*
X18323571Y-14386429D01*
X18309286Y-14343571D01*
X18295000Y-14315000D01*
X18266429Y-14272143D01*
X18252143Y-14257857D01*
X11495000Y-14861000D02*
G75*
G03X11495000Y-14861000I-38100J0D01*
G01*
X11823571Y-14696714D02*
X11852143Y-14696714D01*
X11880714Y-14711000D01*
X11895000Y-14725286D01*
X11909286Y-14753857D01*
X11923571Y-14811000D01*
X11923571Y-14882429D01*
X11909286Y-14939571D01*
X11895000Y-14968143D01*
X11880714Y-14982429D01*
X11852143Y-14996714D01*
X11823571Y-14996714D01*
X11795000Y-14982429D01*
X11780714Y-14968143D01*
X11766428Y-14939571D01*
X11752143Y-14882429D01*
X11752143Y-14811000D01*
X11766428Y-14753857D01*
X11780714Y-14725286D01*
X11795000Y-14711000D01*
X11823571Y-14696714D01*
X12052143Y-14968143D02*
X12066428Y-14982429D01*
X12052143Y-14996714D01*
X12037857Y-14982429D01*
X12052143Y-14968143D01*
X12052143Y-14996714D01*
X12166428Y-14696714D02*
X12366428Y-14696714D01*
X12237857Y-14996714D01*
X12609286Y-14696714D02*
X12552143Y-14696714D01*
X12523571Y-14711000D01*
X12509286Y-14725286D01*
X12480714Y-14768143D01*
X12466428Y-14825286D01*
X12466428Y-14939571D01*
X12480714Y-14968143D01*
X12495000Y-14982429D01*
X12523571Y-14996714D01*
X12580714Y-14996714D01*
X12609286Y-14982429D01*
X12623571Y-14968143D01*
X12637857Y-14939571D01*
X12637857Y-14868143D01*
X12623571Y-14839571D01*
X12609286Y-14825286D01*
X12580714Y-14811000D01*
X12523571Y-14811000D01*
X12495000Y-14825286D01*
X12480714Y-14839571D01*
X12466428Y-14868143D01*
X12766428Y-14996714D02*
X12766428Y-14796714D01*
X12766428Y-14825286D02*
X12780714Y-14811000D01*
X12809286Y-14796714D01*
X12852143Y-14796714D01*
X12880714Y-14811000D01*
X12895000Y-14839571D01*
X12895000Y-14996714D01*
X12895000Y-14839571D02*
X12909286Y-14811000D01*
X12937857Y-14796714D01*
X12980714Y-14796714D01*
X13009286Y-14811000D01*
X13023571Y-14839571D01*
X13023571Y-14996714D01*
X13166428Y-14996714D02*
X13166428Y-14796714D01*
X13166428Y-14825286D02*
X13180714Y-14811000D01*
X13209286Y-14796714D01*
X13252143Y-14796714D01*
X13280714Y-14811000D01*
X13295000Y-14839571D01*
X13295000Y-14996714D01*
X13295000Y-14839571D02*
X13309286Y-14811000D01*
X13337857Y-14796714D01*
X13380714Y-14796714D01*
X13409286Y-14811000D01*
X13423571Y-14839571D01*
X13423571Y-14996714D01*
X14009286Y-14682429D02*
X13752143Y-15068143D01*
X14395000Y-14696714D02*
X14423571Y-14696714D01*
X14452143Y-14711000D01*
X14466428Y-14725286D01*
X14480714Y-14753857D01*
X14495000Y-14811000D01*
X14495000Y-14882429D01*
X14480714Y-14939571D01*
X14466428Y-14968143D01*
X14452143Y-14982429D01*
X14423571Y-14996714D01*
X14395000Y-14996714D01*
X14366428Y-14982429D01*
X14352143Y-14968143D01*
X14337857Y-14939571D01*
X14323571Y-14882429D01*
X14323571Y-14811000D01*
X14337857Y-14753857D01*
X14352143Y-14725286D01*
X14366428Y-14711000D01*
X14395000Y-14696714D01*
X14623571Y-14968143D02*
X14637857Y-14982429D01*
X14623571Y-14996714D01*
X14609286Y-14982429D01*
X14623571Y-14968143D01*
X14623571Y-14996714D01*
X14823571Y-14696714D02*
X14852143Y-14696714D01*
X14880714Y-14711000D01*
X14895000Y-14725286D01*
X14909285Y-14753857D01*
X14923571Y-14811000D01*
X14923571Y-14882429D01*
X14909285Y-14939571D01*
X14895000Y-14968143D01*
X14880714Y-14982429D01*
X14852143Y-14996714D01*
X14823571Y-14996714D01*
X14795000Y-14982429D01*
X14780714Y-14968143D01*
X14766428Y-14939571D01*
X14752143Y-14882429D01*
X14752143Y-14811000D01*
X14766428Y-14753857D01*
X14780714Y-14725286D01*
X14795000Y-14711000D01*
X14823571Y-14696714D01*
X15023571Y-14696714D02*
X15209285Y-14696714D01*
X15109285Y-14811000D01*
X15152143Y-14811000D01*
X15180714Y-14825286D01*
X15195000Y-14839571D01*
X15209285Y-14868143D01*
X15209285Y-14939571D01*
X15195000Y-14968143D01*
X15180714Y-14982429D01*
X15152143Y-14996714D01*
X15066428Y-14996714D01*
X15037857Y-14982429D01*
X15023571Y-14968143D01*
X15395000Y-14696714D02*
X15423571Y-14696714D01*
X15452143Y-14711000D01*
X15466428Y-14725286D01*
X15480714Y-14753857D01*
X15495000Y-14811000D01*
X15495000Y-14882429D01*
X15480714Y-14939571D01*
X15466428Y-14968143D01*
X15452143Y-14982429D01*
X15423571Y-14996714D01*
X15395000Y-14996714D01*
X15366428Y-14982429D01*
X15352143Y-14968143D01*
X15337857Y-14939571D01*
X15323571Y-14882429D01*
X15323571Y-14811000D01*
X15337857Y-14753857D01*
X15352143Y-14725286D01*
X15366428Y-14711000D01*
X15395000Y-14696714D01*
X15609286Y-14696714D02*
X15609286Y-14753857D01*
X15723571Y-14696714D02*
X15723571Y-14753857D01*
X16166428Y-15111000D02*
X16152143Y-15096714D01*
X16123571Y-15053857D01*
X16109285Y-15025286D01*
X16095000Y-14982429D01*
X16080714Y-14911000D01*
X16080714Y-14853857D01*
X16095000Y-14782429D01*
X16109285Y-14739571D01*
X16123571Y-14711000D01*
X16152143Y-14668143D01*
X16166428Y-14653857D01*
X16295000Y-14996714D02*
X16352143Y-14996714D01*
X16380714Y-14982429D01*
X16395000Y-14968143D01*
X16423571Y-14925286D01*
X16437857Y-14868143D01*
X16437857Y-14753857D01*
X16423571Y-14725286D01*
X16409285Y-14711000D01*
X16380714Y-14696714D01*
X16323571Y-14696714D01*
X16295000Y-14711000D01*
X16280714Y-14725286D01*
X16266428Y-14753857D01*
X16266428Y-14825286D01*
X16280714Y-14853857D01*
X16295000Y-14868143D01*
X16323571Y-14882429D01*
X16380714Y-14882429D01*
X16409285Y-14868143D01*
X16423571Y-14853857D01*
X16437857Y-14825286D01*
X16623571Y-14696714D02*
X16652143Y-14696714D01*
X16680714Y-14711000D01*
X16695000Y-14725286D01*
X16709285Y-14753857D01*
X16723571Y-14811000D01*
X16723571Y-14882429D01*
X16709285Y-14939571D01*
X16695000Y-14968143D01*
X16680714Y-14982429D01*
X16652143Y-14996714D01*
X16623571Y-14996714D01*
X16595000Y-14982429D01*
X16580714Y-14968143D01*
X16566428Y-14939571D01*
X16552143Y-14882429D01*
X16552143Y-14811000D01*
X16566428Y-14753857D01*
X16580714Y-14725286D01*
X16595000Y-14711000D01*
X16623571Y-14696714D01*
X17080714Y-14996714D02*
X17080714Y-14696714D01*
X17209286Y-14996714D02*
X17209286Y-14839571D01*
X17195000Y-14811000D01*
X17166428Y-14796714D01*
X17123571Y-14796714D01*
X17095000Y-14811000D01*
X17080714Y-14825286D01*
X17395000Y-14996714D02*
X17366428Y-14982429D01*
X17352143Y-14968143D01*
X17337857Y-14939571D01*
X17337857Y-14853857D01*
X17352143Y-14825286D01*
X17366428Y-14811000D01*
X17395000Y-14796714D01*
X17437857Y-14796714D01*
X17466428Y-14811000D01*
X17480714Y-14825286D01*
X17495000Y-14853857D01*
X17495000Y-14939571D01*
X17480714Y-14968143D01*
X17466428Y-14982429D01*
X17437857Y-14996714D01*
X17395000Y-14996714D01*
X17666428Y-14996714D02*
X17637857Y-14982429D01*
X17623571Y-14953857D01*
X17623571Y-14696714D01*
X17895000Y-14982429D02*
X17866429Y-14996714D01*
X17809286Y-14996714D01*
X17780714Y-14982429D01*
X17766429Y-14953857D01*
X17766429Y-14839571D01*
X17780714Y-14811000D01*
X17809286Y-14796714D01*
X17866429Y-14796714D01*
X17895000Y-14811000D01*
X17909286Y-14839571D01*
X17909286Y-14868143D01*
X17766429Y-14896714D01*
X18023571Y-14982429D02*
X18052143Y-14996714D01*
X18109286Y-14996714D01*
X18137857Y-14982429D01*
X18152143Y-14953857D01*
X18152143Y-14939571D01*
X18137857Y-14911000D01*
X18109286Y-14896714D01*
X18066429Y-14896714D01*
X18037857Y-14882429D01*
X18023571Y-14853857D01*
X18023571Y-14839571D01*
X18037857Y-14811000D01*
X18066429Y-14796714D01*
X18109286Y-14796714D01*
X18137857Y-14811000D01*
X18252143Y-15111000D02*
X18266429Y-15096714D01*
X18295000Y-15053857D01*
X18309286Y-15025286D01*
X18323571Y-14982429D01*
X18337857Y-14911000D01*
X18337857Y-14853857D01*
X18323571Y-14782429D01*
X18309286Y-14739571D01*
X18295000Y-14711000D01*
X18266429Y-14668143D01*
X18252143Y-14653857D01*
X11455630Y-15217630D02*
X11455630Y-15296370D01*
X11416260Y-15257000D02*
X11495000Y-15257000D01*
X11823571Y-15092714D02*
X11852143Y-15092714D01*
X11880714Y-15107000D01*
X11895000Y-15121286D01*
X11909286Y-15149857D01*
X11923571Y-15207000D01*
X11923571Y-15278429D01*
X11909286Y-15335571D01*
X11895000Y-15364143D01*
X11880714Y-15378429D01*
X11852143Y-15392714D01*
X11823571Y-15392714D01*
X11795000Y-15378429D01*
X11780714Y-15364143D01*
X11766428Y-15335571D01*
X11752143Y-15278429D01*
X11752143Y-15207000D01*
X11766428Y-15149857D01*
X11780714Y-15121286D01*
X11795000Y-15107000D01*
X11823571Y-15092714D01*
X12052143Y-15364143D02*
X12066428Y-15378429D01*
X12052143Y-15392714D01*
X12037857Y-15378429D01*
X12052143Y-15364143D01*
X12052143Y-15392714D01*
X12166428Y-15092714D02*
X12366428Y-15092714D01*
X12237857Y-15392714D01*
X12495000Y-15392714D02*
X12552143Y-15392714D01*
X12580714Y-15378429D01*
X12595000Y-15364143D01*
X12623571Y-15321286D01*
X12637857Y-15264143D01*
X12637857Y-15149857D01*
X12623571Y-15121286D01*
X12609286Y-15107000D01*
X12580714Y-15092714D01*
X12523571Y-15092714D01*
X12495000Y-15107000D01*
X12480714Y-15121286D01*
X12466428Y-15149857D01*
X12466428Y-15221286D01*
X12480714Y-15249857D01*
X12495000Y-15264143D01*
X12523571Y-15278429D01*
X12580714Y-15278429D01*
X12609286Y-15264143D01*
X12623571Y-15249857D01*
X12637857Y-15221286D01*
X12766428Y-15392714D02*
X12766428Y-15192714D01*
X12766428Y-15221286D02*
X12780714Y-15207000D01*
X12809286Y-15192714D01*
X12852143Y-15192714D01*
X12880714Y-15207000D01*
X12895000Y-15235571D01*
X12895000Y-15392714D01*
X12895000Y-15235571D02*
X12909286Y-15207000D01*
X12937857Y-15192714D01*
X12980714Y-15192714D01*
X13009286Y-15207000D01*
X13023571Y-15235571D01*
X13023571Y-15392714D01*
X13166428Y-15392714D02*
X13166428Y-15192714D01*
X13166428Y-15221286D02*
X13180714Y-15207000D01*
X13209286Y-15192714D01*
X13252143Y-15192714D01*
X13280714Y-15207000D01*
X13295000Y-15235571D01*
X13295000Y-15392714D01*
X13295000Y-15235571D02*
X13309286Y-15207000D01*
X13337857Y-15192714D01*
X13380714Y-15192714D01*
X13409286Y-15207000D01*
X13423571Y-15235571D01*
X13423571Y-15392714D01*
X14009286Y-15078429D02*
X13752143Y-15464143D01*
X14395000Y-15092714D02*
X14423571Y-15092714D01*
X14452143Y-15107000D01*
X14466428Y-15121286D01*
X14480714Y-15149857D01*
X14495000Y-15207000D01*
X14495000Y-15278429D01*
X14480714Y-15335571D01*
X14466428Y-15364143D01*
X14452143Y-15378429D01*
X14423571Y-15392714D01*
X14395000Y-15392714D01*
X14366428Y-15378429D01*
X14352143Y-15364143D01*
X14337857Y-15335571D01*
X14323571Y-15278429D01*
X14323571Y-15207000D01*
X14337857Y-15149857D01*
X14352143Y-15121286D01*
X14366428Y-15107000D01*
X14395000Y-15092714D01*
X14623571Y-15364143D02*
X14637857Y-15378429D01*
X14623571Y-15392714D01*
X14609286Y-15378429D01*
X14623571Y-15364143D01*
X14623571Y-15392714D01*
X14823571Y-15092714D02*
X14852143Y-15092714D01*
X14880714Y-15107000D01*
X14895000Y-15121286D01*
X14909285Y-15149857D01*
X14923571Y-15207000D01*
X14923571Y-15278429D01*
X14909285Y-15335571D01*
X14895000Y-15364143D01*
X14880714Y-15378429D01*
X14852143Y-15392714D01*
X14823571Y-15392714D01*
X14795000Y-15378429D01*
X14780714Y-15364143D01*
X14766428Y-15335571D01*
X14752143Y-15278429D01*
X14752143Y-15207000D01*
X14766428Y-15149857D01*
X14780714Y-15121286D01*
X14795000Y-15107000D01*
X14823571Y-15092714D01*
X15023571Y-15092714D02*
X15209285Y-15092714D01*
X15109285Y-15207000D01*
X15152143Y-15207000D01*
X15180714Y-15221286D01*
X15195000Y-15235571D01*
X15209285Y-15264143D01*
X15209285Y-15335571D01*
X15195000Y-15364143D01*
X15180714Y-15378429D01*
X15152143Y-15392714D01*
X15066428Y-15392714D01*
X15037857Y-15378429D01*
X15023571Y-15364143D01*
X15495000Y-15392714D02*
X15323571Y-15392714D01*
X15409285Y-15392714D02*
X15409285Y-15092714D01*
X15380714Y-15135571D01*
X15352143Y-15164143D01*
X15323571Y-15178429D01*
X15609286Y-15092714D02*
X15609286Y-15149857D01*
X15723571Y-15092714D02*
X15723571Y-15149857D01*
X16166428Y-15507000D02*
X16152143Y-15492714D01*
X16123571Y-15449857D01*
X16109285Y-15421286D01*
X16095000Y-15378429D01*
X16080714Y-15307000D01*
X16080714Y-15249857D01*
X16095000Y-15178429D01*
X16109285Y-15135571D01*
X16123571Y-15107000D01*
X16152143Y-15064143D01*
X16166428Y-15049857D01*
X16252143Y-15092714D02*
X16437857Y-15092714D01*
X16337857Y-15207000D01*
X16380714Y-15207000D01*
X16409285Y-15221286D01*
X16423571Y-15235571D01*
X16437857Y-15264143D01*
X16437857Y-15335571D01*
X16423571Y-15364143D01*
X16409285Y-15378429D01*
X16380714Y-15392714D01*
X16295000Y-15392714D01*
X16266428Y-15378429D01*
X16252143Y-15364143D01*
X16795000Y-15392714D02*
X16795000Y-15092714D01*
X16923571Y-15392714D02*
X16923571Y-15235571D01*
X16909286Y-15207000D01*
X16880714Y-15192714D01*
X16837857Y-15192714D01*
X16809286Y-15207000D01*
X16795000Y-15221286D01*
X17109286Y-15392714D02*
X17080714Y-15378429D01*
X17066428Y-15364143D01*
X17052143Y-15335571D01*
X17052143Y-15249857D01*
X17066428Y-15221286D01*
X17080714Y-15207000D01*
X17109286Y-15192714D01*
X17152143Y-15192714D01*
X17180714Y-15207000D01*
X17195000Y-15221286D01*
X17209286Y-15249857D01*
X17209286Y-15335571D01*
X17195000Y-15364143D01*
X17180714Y-15378429D01*
X17152143Y-15392714D01*
X17109286Y-15392714D01*
X17380714Y-15392714D02*
X17352143Y-15378429D01*
X17337857Y-15349857D01*
X17337857Y-15092714D01*
X17609286Y-15378429D02*
X17580714Y-15392714D01*
X17523571Y-15392714D01*
X17495000Y-15378429D01*
X17480714Y-15349857D01*
X17480714Y-15235571D01*
X17495000Y-15207000D01*
X17523571Y-15192714D01*
X17580714Y-15192714D01*
X17609286Y-15207000D01*
X17623571Y-15235571D01*
X17623571Y-15264143D01*
X17480714Y-15292714D01*
X17737857Y-15378429D02*
X17766429Y-15392714D01*
X17823571Y-15392714D01*
X17852143Y-15378429D01*
X17866429Y-15349857D01*
X17866429Y-15335571D01*
X17852143Y-15307000D01*
X17823571Y-15292714D01*
X17780714Y-15292714D01*
X17752143Y-15278429D01*
X17737857Y-15249857D01*
X17737857Y-15235571D01*
X17752143Y-15207000D01*
X17780714Y-15192714D01*
X17823571Y-15192714D01*
X17852143Y-15207000D01*
X17966428Y-15507000D02*
X17980714Y-15492714D01*
X18009286Y-15449857D01*
X18023571Y-15421286D01*
X18037857Y-15378429D01*
X18052143Y-15307000D01*
X18052143Y-15249857D01*
X18037857Y-15178429D01*
X18023571Y-15135571D01*
X18009286Y-15107000D01*
X17980714Y-15064143D01*
X17966428Y-15049857D01*
X11483283Y-15681288D02*
X11483283Y-15624712D01*
X11426707Y-15624712D01*
X11426707Y-15681288D01*
X11483283Y-15681288D01*
X11823571Y-15488714D02*
X11852143Y-15488714D01*
X11880714Y-15503000D01*
X11895000Y-15517286D01*
X11909286Y-15545857D01*
X11923571Y-15603000D01*
X11923571Y-15674429D01*
X11909286Y-15731571D01*
X11895000Y-15760143D01*
X11880714Y-15774429D01*
X11852143Y-15788714D01*
X11823571Y-15788714D01*
X11795000Y-15774429D01*
X11780714Y-15760143D01*
X11766428Y-15731571D01*
X11752143Y-15674429D01*
X11752143Y-15603000D01*
X11766428Y-15545857D01*
X11780714Y-15517286D01*
X11795000Y-15503000D01*
X11823571Y-15488714D01*
X12052143Y-15760143D02*
X12066428Y-15774429D01*
X12052143Y-15788714D01*
X12037857Y-15774429D01*
X12052143Y-15760143D01*
X12052143Y-15788714D01*
X12237857Y-15617286D02*
X12209286Y-15603000D01*
X12195000Y-15588714D01*
X12180714Y-15560143D01*
X12180714Y-15545857D01*
X12195000Y-15517286D01*
X12209286Y-15503000D01*
X12237857Y-15488714D01*
X12295000Y-15488714D01*
X12323571Y-15503000D01*
X12337857Y-15517286D01*
X12352143Y-15545857D01*
X12352143Y-15560143D01*
X12337857Y-15588714D01*
X12323571Y-15603000D01*
X12295000Y-15617286D01*
X12237857Y-15617286D01*
X12209286Y-15631571D01*
X12195000Y-15645857D01*
X12180714Y-15674429D01*
X12180714Y-15731571D01*
X12195000Y-15760143D01*
X12209286Y-15774429D01*
X12237857Y-15788714D01*
X12295000Y-15788714D01*
X12323571Y-15774429D01*
X12337857Y-15760143D01*
X12352143Y-15731571D01*
X12352143Y-15674429D01*
X12337857Y-15645857D01*
X12323571Y-15631571D01*
X12295000Y-15617286D01*
X12537857Y-15488714D02*
X12566428Y-15488714D01*
X12595000Y-15503000D01*
X12609286Y-15517286D01*
X12623571Y-15545857D01*
X12637857Y-15603000D01*
X12637857Y-15674429D01*
X12623571Y-15731571D01*
X12609286Y-15760143D01*
X12595000Y-15774429D01*
X12566428Y-15788714D01*
X12537857Y-15788714D01*
X12509286Y-15774429D01*
X12495000Y-15760143D01*
X12480714Y-15731571D01*
X12466428Y-15674429D01*
X12466428Y-15603000D01*
X12480714Y-15545857D01*
X12495000Y-15517286D01*
X12509286Y-15503000D01*
X12537857Y-15488714D01*
X12766428Y-15788714D02*
X12766428Y-15588714D01*
X12766428Y-15617286D02*
X12780714Y-15603000D01*
X12809286Y-15588714D01*
X12852143Y-15588714D01*
X12880714Y-15603000D01*
X12895000Y-15631571D01*
X12895000Y-15788714D01*
X12895000Y-15631571D02*
X12909286Y-15603000D01*
X12937857Y-15588714D01*
X12980714Y-15588714D01*
X13009286Y-15603000D01*
X13023571Y-15631571D01*
X13023571Y-15788714D01*
X13166428Y-15788714D02*
X13166428Y-15588714D01*
X13166428Y-15617286D02*
X13180714Y-15603000D01*
X13209286Y-15588714D01*
X13252143Y-15588714D01*
X13280714Y-15603000D01*
X13295000Y-15631571D01*
X13295000Y-15788714D01*
X13295000Y-15631571D02*
X13309286Y-15603000D01*
X13337857Y-15588714D01*
X13380714Y-15588714D01*
X13409286Y-15603000D01*
X13423571Y-15631571D01*
X13423571Y-15788714D01*
X14009286Y-15474429D02*
X13752143Y-15860143D01*
X14395000Y-15488714D02*
X14423571Y-15488714D01*
X14452143Y-15503000D01*
X14466428Y-15517286D01*
X14480714Y-15545857D01*
X14495000Y-15603000D01*
X14495000Y-15674429D01*
X14480714Y-15731571D01*
X14466428Y-15760143D01*
X14452143Y-15774429D01*
X14423571Y-15788714D01*
X14395000Y-15788714D01*
X14366428Y-15774429D01*
X14352143Y-15760143D01*
X14337857Y-15731571D01*
X14323571Y-15674429D01*
X14323571Y-15603000D01*
X14337857Y-15545857D01*
X14352143Y-15517286D01*
X14366428Y-15503000D01*
X14395000Y-15488714D01*
X14623571Y-15760143D02*
X14637857Y-15774429D01*
X14623571Y-15788714D01*
X14609286Y-15774429D01*
X14623571Y-15760143D01*
X14623571Y-15788714D01*
X14823571Y-15488714D02*
X14852143Y-15488714D01*
X14880714Y-15503000D01*
X14895000Y-15517286D01*
X14909285Y-15545857D01*
X14923571Y-15603000D01*
X14923571Y-15674429D01*
X14909285Y-15731571D01*
X14895000Y-15760143D01*
X14880714Y-15774429D01*
X14852143Y-15788714D01*
X14823571Y-15788714D01*
X14795000Y-15774429D01*
X14780714Y-15760143D01*
X14766428Y-15731571D01*
X14752143Y-15674429D01*
X14752143Y-15603000D01*
X14766428Y-15545857D01*
X14780714Y-15517286D01*
X14795000Y-15503000D01*
X14823571Y-15488714D01*
X15023571Y-15488714D02*
X15209285Y-15488714D01*
X15109285Y-15603000D01*
X15152143Y-15603000D01*
X15180714Y-15617286D01*
X15195000Y-15631571D01*
X15209285Y-15660143D01*
X15209285Y-15731571D01*
X15195000Y-15760143D01*
X15180714Y-15774429D01*
X15152143Y-15788714D01*
X15066428Y-15788714D01*
X15037857Y-15774429D01*
X15023571Y-15760143D01*
X15323571Y-15517286D02*
X15337857Y-15503000D01*
X15366428Y-15488714D01*
X15437857Y-15488714D01*
X15466428Y-15503000D01*
X15480714Y-15517286D01*
X15495000Y-15545857D01*
X15495000Y-15574429D01*
X15480714Y-15617286D01*
X15309285Y-15788714D01*
X15495000Y-15788714D01*
X15609286Y-15488714D02*
X15609286Y-15545857D01*
X15723571Y-15488714D02*
X15723571Y-15545857D01*
X16166428Y-15903000D02*
X16152143Y-15888714D01*
X16123571Y-15845857D01*
X16109285Y-15817286D01*
X16095000Y-15774429D01*
X16080714Y-15703000D01*
X16080714Y-15645857D01*
X16095000Y-15574429D01*
X16109285Y-15531571D01*
X16123571Y-15503000D01*
X16152143Y-15460143D01*
X16166428Y-15445857D01*
X16266428Y-15517286D02*
X16280714Y-15503000D01*
X16309285Y-15488714D01*
X16380714Y-15488714D01*
X16409285Y-15503000D01*
X16423571Y-15517286D01*
X16437857Y-15545857D01*
X16437857Y-15574429D01*
X16423571Y-15617286D01*
X16252143Y-15788714D01*
X16437857Y-15788714D01*
X16795000Y-15788714D02*
X16795000Y-15488714D01*
X16923571Y-15788714D02*
X16923571Y-15631571D01*
X16909286Y-15603000D01*
X16880714Y-15588714D01*
X16837857Y-15588714D01*
X16809286Y-15603000D01*
X16795000Y-15617286D01*
X17109286Y-15788714D02*
X17080714Y-15774429D01*
X17066428Y-15760143D01*
X17052143Y-15731571D01*
X17052143Y-15645857D01*
X17066428Y-15617286D01*
X17080714Y-15603000D01*
X17109286Y-15588714D01*
X17152143Y-15588714D01*
X17180714Y-15603000D01*
X17195000Y-15617286D01*
X17209286Y-15645857D01*
X17209286Y-15731571D01*
X17195000Y-15760143D01*
X17180714Y-15774429D01*
X17152143Y-15788714D01*
X17109286Y-15788714D01*
X17380714Y-15788714D02*
X17352143Y-15774429D01*
X17337857Y-15745857D01*
X17337857Y-15488714D01*
X17609286Y-15774429D02*
X17580714Y-15788714D01*
X17523571Y-15788714D01*
X17495000Y-15774429D01*
X17480714Y-15745857D01*
X17480714Y-15631571D01*
X17495000Y-15603000D01*
X17523571Y-15588714D01*
X17580714Y-15588714D01*
X17609286Y-15603000D01*
X17623571Y-15631571D01*
X17623571Y-15660143D01*
X17480714Y-15688714D01*
X17737857Y-15774429D02*
X17766429Y-15788714D01*
X17823571Y-15788714D01*
X17852143Y-15774429D01*
X17866429Y-15745857D01*
X17866429Y-15731571D01*
X17852143Y-15703000D01*
X17823571Y-15688714D01*
X17780714Y-15688714D01*
X17752143Y-15674429D01*
X17737857Y-15645857D01*
X17737857Y-15631571D01*
X17752143Y-15603000D01*
X17780714Y-15588714D01*
X17823571Y-15588714D01*
X17852143Y-15603000D01*
X17966428Y-15903000D02*
X17980714Y-15888714D01*
X18009286Y-15845857D01*
X18023571Y-15817286D01*
X18037857Y-15774429D01*
X18052143Y-15703000D01*
X18052143Y-15645857D01*
X18037857Y-15574429D01*
X18023571Y-15531571D01*
X18009286Y-15503000D01*
X17980714Y-15460143D01*
X17966428Y-15445857D01*
X11454360Y-16089640D02*
X11495000Y-16049000D01*
X11454360Y-16008360D01*
X11413720Y-16049000D01*
X11454360Y-16089640D01*
X11823571Y-15884714D02*
X11852143Y-15884714D01*
X11880714Y-15899000D01*
X11895000Y-15913286D01*
X11909286Y-15941857D01*
X11923571Y-15999000D01*
X11923571Y-16070429D01*
X11909286Y-16127571D01*
X11895000Y-16156143D01*
X11880714Y-16170429D01*
X11852143Y-16184714D01*
X11823571Y-16184714D01*
X11795000Y-16170429D01*
X11780714Y-16156143D01*
X11766428Y-16127571D01*
X11752143Y-16070429D01*
X11752143Y-15999000D01*
X11766428Y-15941857D01*
X11780714Y-15913286D01*
X11795000Y-15899000D01*
X11823571Y-15884714D01*
X12052143Y-16156143D02*
X12066428Y-16170429D01*
X12052143Y-16184714D01*
X12037857Y-16170429D01*
X12052143Y-16156143D01*
X12052143Y-16184714D01*
X12237857Y-16013286D02*
X12209286Y-15999000D01*
X12195000Y-15984714D01*
X12180714Y-15956143D01*
X12180714Y-15941857D01*
X12195000Y-15913286D01*
X12209286Y-15899000D01*
X12237857Y-15884714D01*
X12295000Y-15884714D01*
X12323571Y-15899000D01*
X12337857Y-15913286D01*
X12352143Y-15941857D01*
X12352143Y-15956143D01*
X12337857Y-15984714D01*
X12323571Y-15999000D01*
X12295000Y-16013286D01*
X12237857Y-16013286D01*
X12209286Y-16027571D01*
X12195000Y-16041857D01*
X12180714Y-16070429D01*
X12180714Y-16127571D01*
X12195000Y-16156143D01*
X12209286Y-16170429D01*
X12237857Y-16184714D01*
X12295000Y-16184714D01*
X12323571Y-16170429D01*
X12337857Y-16156143D01*
X12352143Y-16127571D01*
X12352143Y-16070429D01*
X12337857Y-16041857D01*
X12323571Y-16027571D01*
X12295000Y-16013286D01*
X12637857Y-16184714D02*
X12466428Y-16184714D01*
X12552143Y-16184714D02*
X12552143Y-15884714D01*
X12523571Y-15927571D01*
X12495000Y-15956143D01*
X12466428Y-15970429D01*
X12766428Y-16184714D02*
X12766428Y-15984714D01*
X12766428Y-16013286D02*
X12780714Y-15999000D01*
X12809286Y-15984714D01*
X12852143Y-15984714D01*
X12880714Y-15999000D01*
X12895000Y-16027571D01*
X12895000Y-16184714D01*
X12895000Y-16027571D02*
X12909286Y-15999000D01*
X12937857Y-15984714D01*
X12980714Y-15984714D01*
X13009286Y-15999000D01*
X13023571Y-16027571D01*
X13023571Y-16184714D01*
X13166428Y-16184714D02*
X13166428Y-15984714D01*
X13166428Y-16013286D02*
X13180714Y-15999000D01*
X13209286Y-15984714D01*
X13252143Y-15984714D01*
X13280714Y-15999000D01*
X13295000Y-16027571D01*
X13295000Y-16184714D01*
X13295000Y-16027571D02*
X13309286Y-15999000D01*
X13337857Y-15984714D01*
X13380714Y-15984714D01*
X13409286Y-15999000D01*
X13423571Y-16027571D01*
X13423571Y-16184714D01*
X14009286Y-15870429D02*
X13752143Y-16256143D01*
X14395000Y-15884714D02*
X14423571Y-15884714D01*
X14452143Y-15899000D01*
X14466428Y-15913286D01*
X14480714Y-15941857D01*
X14495000Y-15999000D01*
X14495000Y-16070429D01*
X14480714Y-16127571D01*
X14466428Y-16156143D01*
X14452143Y-16170429D01*
X14423571Y-16184714D01*
X14395000Y-16184714D01*
X14366428Y-16170429D01*
X14352143Y-16156143D01*
X14337857Y-16127571D01*
X14323571Y-16070429D01*
X14323571Y-15999000D01*
X14337857Y-15941857D01*
X14352143Y-15913286D01*
X14366428Y-15899000D01*
X14395000Y-15884714D01*
X14623571Y-16156143D02*
X14637857Y-16170429D01*
X14623571Y-16184714D01*
X14609286Y-16170429D01*
X14623571Y-16156143D01*
X14623571Y-16184714D01*
X14823571Y-15884714D02*
X14852143Y-15884714D01*
X14880714Y-15899000D01*
X14895000Y-15913286D01*
X14909285Y-15941857D01*
X14923571Y-15999000D01*
X14923571Y-16070429D01*
X14909285Y-16127571D01*
X14895000Y-16156143D01*
X14880714Y-16170429D01*
X14852143Y-16184714D01*
X14823571Y-16184714D01*
X14795000Y-16170429D01*
X14780714Y-16156143D01*
X14766428Y-16127571D01*
X14752143Y-16070429D01*
X14752143Y-15999000D01*
X14766428Y-15941857D01*
X14780714Y-15913286D01*
X14795000Y-15899000D01*
X14823571Y-15884714D01*
X15023571Y-15884714D02*
X15209285Y-15884714D01*
X15109285Y-15999000D01*
X15152143Y-15999000D01*
X15180714Y-16013286D01*
X15195000Y-16027571D01*
X15209285Y-16056143D01*
X15209285Y-16127571D01*
X15195000Y-16156143D01*
X15180714Y-16170429D01*
X15152143Y-16184714D01*
X15066428Y-16184714D01*
X15037857Y-16170429D01*
X15023571Y-16156143D01*
X15323571Y-15913286D02*
X15337857Y-15899000D01*
X15366428Y-15884714D01*
X15437857Y-15884714D01*
X15466428Y-15899000D01*
X15480714Y-15913286D01*
X15495000Y-15941857D01*
X15495000Y-15970429D01*
X15480714Y-16013286D01*
X15309285Y-16184714D01*
X15495000Y-16184714D01*
X15609286Y-15884714D02*
X15609286Y-15941857D01*
X15723571Y-15884714D02*
X15723571Y-15941857D01*
X16166428Y-16299000D02*
X16152143Y-16284714D01*
X16123571Y-16241857D01*
X16109285Y-16213286D01*
X16095000Y-16170429D01*
X16080714Y-16099000D01*
X16080714Y-16041857D01*
X16095000Y-15970429D01*
X16109285Y-15927571D01*
X16123571Y-15899000D01*
X16152143Y-15856143D01*
X16166428Y-15841857D01*
X16252143Y-15884714D02*
X16437857Y-15884714D01*
X16337857Y-15999000D01*
X16380714Y-15999000D01*
X16409285Y-16013286D01*
X16423571Y-16027571D01*
X16437857Y-16056143D01*
X16437857Y-16127571D01*
X16423571Y-16156143D01*
X16409285Y-16170429D01*
X16380714Y-16184714D01*
X16295000Y-16184714D01*
X16266428Y-16170429D01*
X16252143Y-16156143D01*
X16795000Y-16184714D02*
X16795000Y-15884714D01*
X16923571Y-16184714D02*
X16923571Y-16027571D01*
X16909286Y-15999000D01*
X16880714Y-15984714D01*
X16837857Y-15984714D01*
X16809286Y-15999000D01*
X16795000Y-16013286D01*
X17109286Y-16184714D02*
X17080714Y-16170429D01*
X17066428Y-16156143D01*
X17052143Y-16127571D01*
X17052143Y-16041857D01*
X17066428Y-16013286D01*
X17080714Y-15999000D01*
X17109286Y-15984714D01*
X17152143Y-15984714D01*
X17180714Y-15999000D01*
X17195000Y-16013286D01*
X17209286Y-16041857D01*
X17209286Y-16127571D01*
X17195000Y-16156143D01*
X17180714Y-16170429D01*
X17152143Y-16184714D01*
X17109286Y-16184714D01*
X17380714Y-16184714D02*
X17352143Y-16170429D01*
X17337857Y-16141857D01*
X17337857Y-15884714D01*
X17609286Y-16170429D02*
X17580714Y-16184714D01*
X17523571Y-16184714D01*
X17495000Y-16170429D01*
X17480714Y-16141857D01*
X17480714Y-16027571D01*
X17495000Y-15999000D01*
X17523571Y-15984714D01*
X17580714Y-15984714D01*
X17609286Y-15999000D01*
X17623571Y-16027571D01*
X17623571Y-16056143D01*
X17480714Y-16084714D01*
X17737857Y-16170429D02*
X17766429Y-16184714D01*
X17823571Y-16184714D01*
X17852143Y-16170429D01*
X17866429Y-16141857D01*
X17866429Y-16127571D01*
X17852143Y-16099000D01*
X17823571Y-16084714D01*
X17780714Y-16084714D01*
X17752143Y-16070429D01*
X17737857Y-16041857D01*
X17737857Y-16027571D01*
X17752143Y-15999000D01*
X17780714Y-15984714D01*
X17823571Y-15984714D01*
X17852143Y-15999000D01*
X17966428Y-16299000D02*
X17980714Y-16284714D01*
X18009286Y-16241857D01*
X18023571Y-16213286D01*
X18037857Y-16170429D01*
X18052143Y-16099000D01*
X18052143Y-16041857D01*
X18037857Y-15970429D01*
X18023571Y-15927571D01*
X18009286Y-15899000D01*
X17980714Y-15856143D01*
X17966428Y-15841857D01*
X11403000Y-16399000D02*
X11495000Y-16491000D01*
X11495000Y-16399000D02*
X11403000Y-16491000D01*
X11495000Y-16445000D02*
G75*
G03X11495000Y-16445000I-46000J0D01*
G01*
X11823571Y-16280714D02*
X11852143Y-16280714D01*
X11880714Y-16295000D01*
X11895000Y-16309286D01*
X11909286Y-16337857D01*
X11923571Y-16395000D01*
X11923571Y-16466429D01*
X11909286Y-16523571D01*
X11895000Y-16552143D01*
X11880714Y-16566429D01*
X11852143Y-16580714D01*
X11823571Y-16580714D01*
X11795000Y-16566429D01*
X11780714Y-16552143D01*
X11766428Y-16523571D01*
X11752143Y-16466429D01*
X11752143Y-16395000D01*
X11766428Y-16337857D01*
X11780714Y-16309286D01*
X11795000Y-16295000D01*
X11823571Y-16280714D01*
X12052143Y-16552143D02*
X12066428Y-16566429D01*
X12052143Y-16580714D01*
X12037857Y-16566429D01*
X12052143Y-16552143D01*
X12052143Y-16580714D01*
X12209286Y-16580714D02*
X12266428Y-16580714D01*
X12295000Y-16566429D01*
X12309286Y-16552143D01*
X12337857Y-16509286D01*
X12352143Y-16452143D01*
X12352143Y-16337857D01*
X12337857Y-16309286D01*
X12323571Y-16295000D01*
X12295000Y-16280714D01*
X12237857Y-16280714D01*
X12209286Y-16295000D01*
X12195000Y-16309286D01*
X12180714Y-16337857D01*
X12180714Y-16409286D01*
X12195000Y-16437857D01*
X12209286Y-16452143D01*
X12237857Y-16466429D01*
X12295000Y-16466429D01*
X12323571Y-16452143D01*
X12337857Y-16437857D01*
X12352143Y-16409286D01*
X12466428Y-16309286D02*
X12480714Y-16295000D01*
X12509286Y-16280714D01*
X12580714Y-16280714D01*
X12609286Y-16295000D01*
X12623571Y-16309286D01*
X12637857Y-16337857D01*
X12637857Y-16366429D01*
X12623571Y-16409286D01*
X12452143Y-16580714D01*
X12637857Y-16580714D01*
X12766428Y-16580714D02*
X12766428Y-16380714D01*
X12766428Y-16409286D02*
X12780714Y-16395000D01*
X12809286Y-16380714D01*
X12852143Y-16380714D01*
X12880714Y-16395000D01*
X12895000Y-16423571D01*
X12895000Y-16580714D01*
X12895000Y-16423571D02*
X12909286Y-16395000D01*
X12937857Y-16380714D01*
X12980714Y-16380714D01*
X13009286Y-16395000D01*
X13023571Y-16423571D01*
X13023571Y-16580714D01*
X13166428Y-16580714D02*
X13166428Y-16380714D01*
X13166428Y-16409286D02*
X13180714Y-16395000D01*
X13209286Y-16380714D01*
X13252143Y-16380714D01*
X13280714Y-16395000D01*
X13295000Y-16423571D01*
X13295000Y-16580714D01*
X13295000Y-16423571D02*
X13309286Y-16395000D01*
X13337857Y-16380714D01*
X13380714Y-16380714D01*
X13409286Y-16395000D01*
X13423571Y-16423571D01*
X13423571Y-16580714D01*
X14009286Y-16266429D02*
X13752143Y-16652143D01*
X14395000Y-16280714D02*
X14423571Y-16280714D01*
X14452143Y-16295000D01*
X14466428Y-16309286D01*
X14480714Y-16337857D01*
X14495000Y-16395000D01*
X14495000Y-16466429D01*
X14480714Y-16523571D01*
X14466428Y-16552143D01*
X14452143Y-16566429D01*
X14423571Y-16580714D01*
X14395000Y-16580714D01*
X14366428Y-16566429D01*
X14352143Y-16552143D01*
X14337857Y-16523571D01*
X14323571Y-16466429D01*
X14323571Y-16395000D01*
X14337857Y-16337857D01*
X14352143Y-16309286D01*
X14366428Y-16295000D01*
X14395000Y-16280714D01*
X14623571Y-16552143D02*
X14637857Y-16566429D01*
X14623571Y-16580714D01*
X14609286Y-16566429D01*
X14623571Y-16552143D01*
X14623571Y-16580714D01*
X14823571Y-16280714D02*
X14852143Y-16280714D01*
X14880714Y-16295000D01*
X14895000Y-16309286D01*
X14909285Y-16337857D01*
X14923571Y-16395000D01*
X14923571Y-16466429D01*
X14909285Y-16523571D01*
X14895000Y-16552143D01*
X14880714Y-16566429D01*
X14852143Y-16580714D01*
X14823571Y-16580714D01*
X14795000Y-16566429D01*
X14780714Y-16552143D01*
X14766428Y-16523571D01*
X14752143Y-16466429D01*
X14752143Y-16395000D01*
X14766428Y-16337857D01*
X14780714Y-16309286D01*
X14795000Y-16295000D01*
X14823571Y-16280714D01*
X15023571Y-16280714D02*
X15209285Y-16280714D01*
X15109285Y-16395000D01*
X15152143Y-16395000D01*
X15180714Y-16409286D01*
X15195000Y-16423571D01*
X15209285Y-16452143D01*
X15209285Y-16523571D01*
X15195000Y-16552143D01*
X15180714Y-16566429D01*
X15152143Y-16580714D01*
X15066428Y-16580714D01*
X15037857Y-16566429D01*
X15023571Y-16552143D01*
X15466428Y-16280714D02*
X15409285Y-16280714D01*
X15380714Y-16295000D01*
X15366428Y-16309286D01*
X15337857Y-16352143D01*
X15323571Y-16409286D01*
X15323571Y-16523571D01*
X15337857Y-16552143D01*
X15352143Y-16566429D01*
X15380714Y-16580714D01*
X15437857Y-16580714D01*
X15466428Y-16566429D01*
X15480714Y-16552143D01*
X15495000Y-16523571D01*
X15495000Y-16452143D01*
X15480714Y-16423571D01*
X15466428Y-16409286D01*
X15437857Y-16395000D01*
X15380714Y-16395000D01*
X15352143Y-16409286D01*
X15337857Y-16423571D01*
X15323571Y-16452143D01*
X15609286Y-16280714D02*
X15609286Y-16337857D01*
X15723571Y-16280714D02*
X15723571Y-16337857D01*
X16166428Y-16695000D02*
X16152143Y-16680714D01*
X16123571Y-16637857D01*
X16109285Y-16609286D01*
X16095000Y-16566429D01*
X16080714Y-16495000D01*
X16080714Y-16437857D01*
X16095000Y-16366429D01*
X16109285Y-16323571D01*
X16123571Y-16295000D01*
X16152143Y-16252143D01*
X16166428Y-16237857D01*
X16437857Y-16580714D02*
X16266428Y-16580714D01*
X16352143Y-16580714D02*
X16352143Y-16280714D01*
X16323571Y-16323571D01*
X16295000Y-16352143D01*
X16266428Y-16366429D01*
X16795000Y-16580714D02*
X16795000Y-16280714D01*
X16923571Y-16580714D02*
X16923571Y-16423571D01*
X16909286Y-16395000D01*
X16880714Y-16380714D01*
X16837857Y-16380714D01*
X16809286Y-16395000D01*
X16795000Y-16409286D01*
X17109286Y-16580714D02*
X17080714Y-16566429D01*
X17066428Y-16552143D01*
X17052143Y-16523571D01*
X17052143Y-16437857D01*
X17066428Y-16409286D01*
X17080714Y-16395000D01*
X17109286Y-16380714D01*
X17152143Y-16380714D01*
X17180714Y-16395000D01*
X17195000Y-16409286D01*
X17209286Y-16437857D01*
X17209286Y-16523571D01*
X17195000Y-16552143D01*
X17180714Y-16566429D01*
X17152143Y-16580714D01*
X17109286Y-16580714D01*
X17380714Y-16580714D02*
X17352143Y-16566429D01*
X17337857Y-16537857D01*
X17337857Y-16280714D01*
X17609286Y-16566429D02*
X17580714Y-16580714D01*
X17523571Y-16580714D01*
X17495000Y-16566429D01*
X17480714Y-16537857D01*
X17480714Y-16423571D01*
X17495000Y-16395000D01*
X17523571Y-16380714D01*
X17580714Y-16380714D01*
X17609286Y-16395000D01*
X17623571Y-16423571D01*
X17623571Y-16452143D01*
X17480714Y-16480714D01*
X17723571Y-16695000D02*
X17737857Y-16680714D01*
X17766429Y-16637857D01*
X17780714Y-16609286D01*
X17795000Y-16566429D01*
X17809286Y-16495000D01*
X17809286Y-16437857D01*
X17795000Y-16366429D01*
X17780714Y-16323571D01*
X17766429Y-16295000D01*
X17737857Y-16252143D01*
X17723571Y-16237857D01*
X11394924Y-16790962D02*
X11495000Y-16891038D01*
X11495000Y-16790962D02*
X11394924Y-16891038D01*
X11444962Y-16790962D02*
X11444962Y-16891038D01*
X11394924Y-16841000D02*
X11495000Y-16841000D01*
X11923571Y-16976714D02*
X11752143Y-16976714D01*
X11837857Y-16976714D02*
X11837857Y-16676714D01*
X11809286Y-16719571D01*
X11780714Y-16748143D01*
X11752143Y-16762429D01*
X12052143Y-16948143D02*
X12066428Y-16962429D01*
X12052143Y-16976714D01*
X12037857Y-16962429D01*
X12052143Y-16948143D01*
X12052143Y-16976714D01*
X12252143Y-16676714D02*
X12280714Y-16676714D01*
X12309286Y-16691000D01*
X12323571Y-16705286D01*
X12337857Y-16733857D01*
X12352143Y-16791000D01*
X12352143Y-16862429D01*
X12337857Y-16919572D01*
X12323571Y-16948143D01*
X12309286Y-16962429D01*
X12280714Y-16976714D01*
X12252143Y-16976714D01*
X12223571Y-16962429D01*
X12209286Y-16948143D01*
X12195000Y-16919572D01*
X12180714Y-16862429D01*
X12180714Y-16791000D01*
X12195000Y-16733857D01*
X12209286Y-16705286D01*
X12223571Y-16691000D01*
X12252143Y-16676714D01*
X12537857Y-16676714D02*
X12566428Y-16676714D01*
X12595000Y-16691000D01*
X12609286Y-16705286D01*
X12623571Y-16733857D01*
X12637857Y-16791000D01*
X12637857Y-16862429D01*
X12623571Y-16919572D01*
X12609286Y-16948143D01*
X12595000Y-16962429D01*
X12566428Y-16976714D01*
X12537857Y-16976714D01*
X12509286Y-16962429D01*
X12495000Y-16948143D01*
X12480714Y-16919572D01*
X12466428Y-16862429D01*
X12466428Y-16791000D01*
X12480714Y-16733857D01*
X12495000Y-16705286D01*
X12509286Y-16691000D01*
X12537857Y-16676714D01*
X12766428Y-16976714D02*
X12766428Y-16776714D01*
X12766428Y-16805286D02*
X12780714Y-16791000D01*
X12809286Y-16776714D01*
X12852143Y-16776714D01*
X12880714Y-16791000D01*
X12895000Y-16819572D01*
X12895000Y-16976714D01*
X12895000Y-16819572D02*
X12909286Y-16791000D01*
X12937857Y-16776714D01*
X12980714Y-16776714D01*
X13009286Y-16791000D01*
X13023571Y-16819572D01*
X13023571Y-16976714D01*
X13166428Y-16976714D02*
X13166428Y-16776714D01*
X13166428Y-16805286D02*
X13180714Y-16791000D01*
X13209286Y-16776714D01*
X13252143Y-16776714D01*
X13280714Y-16791000D01*
X13295000Y-16819572D01*
X13295000Y-16976714D01*
X13295000Y-16819572D02*
X13309286Y-16791000D01*
X13337857Y-16776714D01*
X13380714Y-16776714D01*
X13409286Y-16791000D01*
X13423571Y-16819572D01*
X13423571Y-16976714D01*
X14009286Y-16662429D02*
X13752143Y-17048143D01*
X14395000Y-16676714D02*
X14423571Y-16676714D01*
X14452143Y-16691000D01*
X14466428Y-16705286D01*
X14480714Y-16733857D01*
X14495000Y-16791000D01*
X14495000Y-16862429D01*
X14480714Y-16919572D01*
X14466428Y-16948143D01*
X14452143Y-16962429D01*
X14423571Y-16976714D01*
X14395000Y-16976714D01*
X14366428Y-16962429D01*
X14352143Y-16948143D01*
X14337857Y-16919572D01*
X14323571Y-16862429D01*
X14323571Y-16791000D01*
X14337857Y-16733857D01*
X14352143Y-16705286D01*
X14366428Y-16691000D01*
X14395000Y-16676714D01*
X14623571Y-16948143D02*
X14637857Y-16962429D01*
X14623571Y-16976714D01*
X14609286Y-16962429D01*
X14623571Y-16948143D01*
X14623571Y-16976714D01*
X14823571Y-16676714D02*
X14852143Y-16676714D01*
X14880714Y-16691000D01*
X14895000Y-16705286D01*
X14909285Y-16733857D01*
X14923571Y-16791000D01*
X14923571Y-16862429D01*
X14909285Y-16919572D01*
X14895000Y-16948143D01*
X14880714Y-16962429D01*
X14852143Y-16976714D01*
X14823571Y-16976714D01*
X14795000Y-16962429D01*
X14780714Y-16948143D01*
X14766428Y-16919572D01*
X14752143Y-16862429D01*
X14752143Y-16791000D01*
X14766428Y-16733857D01*
X14780714Y-16705286D01*
X14795000Y-16691000D01*
X14823571Y-16676714D01*
X15023571Y-16676714D02*
X15209285Y-16676714D01*
X15109285Y-16791000D01*
X15152143Y-16791000D01*
X15180714Y-16805286D01*
X15195000Y-16819572D01*
X15209285Y-16848143D01*
X15209285Y-16919572D01*
X15195000Y-16948143D01*
X15180714Y-16962429D01*
X15152143Y-16976714D01*
X15066428Y-16976714D01*
X15037857Y-16962429D01*
X15023571Y-16948143D01*
X15352143Y-16976714D02*
X15409285Y-16976714D01*
X15437857Y-16962429D01*
X15452143Y-16948143D01*
X15480714Y-16905286D01*
X15495000Y-16848143D01*
X15495000Y-16733857D01*
X15480714Y-16705286D01*
X15466428Y-16691000D01*
X15437857Y-16676714D01*
X15380714Y-16676714D01*
X15352143Y-16691000D01*
X15337857Y-16705286D01*
X15323571Y-16733857D01*
X15323571Y-16805286D01*
X15337857Y-16833857D01*
X15352143Y-16848143D01*
X15380714Y-16862429D01*
X15437857Y-16862429D01*
X15466428Y-16848143D01*
X15480714Y-16833857D01*
X15495000Y-16805286D01*
X15609286Y-16676714D02*
X15609286Y-16733857D01*
X15723571Y-16676714D02*
X15723571Y-16733857D01*
X16166428Y-17091000D02*
X16152143Y-17076714D01*
X16123571Y-17033857D01*
X16109285Y-17005286D01*
X16095000Y-16962429D01*
X16080714Y-16891000D01*
X16080714Y-16833857D01*
X16095000Y-16762429D01*
X16109285Y-16719571D01*
X16123571Y-16691000D01*
X16152143Y-16648143D01*
X16166428Y-16633857D01*
X16409285Y-16776714D02*
X16409285Y-16976714D01*
X16337857Y-16662429D02*
X16266428Y-16876714D01*
X16452143Y-16876714D01*
X16709285Y-16676714D02*
X16566428Y-16676714D01*
X16552143Y-16819572D01*
X16566428Y-16805286D01*
X16595000Y-16791000D01*
X16666428Y-16791000D01*
X16695000Y-16805286D01*
X16709285Y-16819572D01*
X16723571Y-16848143D01*
X16723571Y-16919572D01*
X16709285Y-16948143D01*
X16695000Y-16962429D01*
X16666428Y-16976714D01*
X16595000Y-16976714D01*
X16566428Y-16962429D01*
X16552143Y-16948143D01*
X17080714Y-16976714D02*
X17080714Y-16676714D01*
X17209286Y-16976714D02*
X17209286Y-16819572D01*
X17195000Y-16791000D01*
X17166428Y-16776714D01*
X17123571Y-16776714D01*
X17095000Y-16791000D01*
X17080714Y-16805286D01*
X17395000Y-16976714D02*
X17366428Y-16962429D01*
X17352143Y-16948143D01*
X17337857Y-16919572D01*
X17337857Y-16833857D01*
X17352143Y-16805286D01*
X17366428Y-16791000D01*
X17395000Y-16776714D01*
X17437857Y-16776714D01*
X17466428Y-16791000D01*
X17480714Y-16805286D01*
X17495000Y-16833857D01*
X17495000Y-16919572D01*
X17480714Y-16948143D01*
X17466428Y-16962429D01*
X17437857Y-16976714D01*
X17395000Y-16976714D01*
X17666428Y-16976714D02*
X17637857Y-16962429D01*
X17623571Y-16933857D01*
X17623571Y-16676714D01*
X17895000Y-16962429D02*
X17866429Y-16976714D01*
X17809286Y-16976714D01*
X17780714Y-16962429D01*
X17766429Y-16933857D01*
X17766429Y-16819572D01*
X17780714Y-16791000D01*
X17809286Y-16776714D01*
X17866429Y-16776714D01*
X17895000Y-16791000D01*
X17909286Y-16819572D01*
X17909286Y-16848143D01*
X17766429Y-16876714D01*
X18023571Y-16962429D02*
X18052143Y-16976714D01*
X18109286Y-16976714D01*
X18137857Y-16962429D01*
X18152143Y-16933857D01*
X18152143Y-16919572D01*
X18137857Y-16891000D01*
X18109286Y-16876714D01*
X18066429Y-16876714D01*
X18037857Y-16862429D01*
X18023571Y-16833857D01*
X18023571Y-16819572D01*
X18037857Y-16791000D01*
X18066429Y-16776714D01*
X18109286Y-16776714D01*
X18137857Y-16791000D01*
X18252143Y-17091000D02*
X18266429Y-17076714D01*
X18295000Y-17033857D01*
X18309286Y-17005286D01*
X18323571Y-16962429D01*
X18337857Y-16891000D01*
X18337857Y-16833857D01*
X18323571Y-16762429D01*
X18309286Y-16719571D01*
X18295000Y-16691000D01*
X18266429Y-16648143D01*
X18252143Y-16633857D01*
X11393400Y-17186200D02*
X11495000Y-17287800D01*
X11495000Y-17186200D02*
X11393400Y-17287800D01*
X11480121Y-17272922D02*
X11480121Y-17201079D01*
X11408278Y-17201079D01*
X11408278Y-17272922D01*
X11480121Y-17272922D01*
X11923571Y-17372714D02*
X11752143Y-17372714D01*
X11837857Y-17372714D02*
X11837857Y-17072714D01*
X11809286Y-17115572D01*
X11780714Y-17144143D01*
X11752143Y-17158429D01*
X12052143Y-17344143D02*
X12066428Y-17358429D01*
X12052143Y-17372714D01*
X12037857Y-17358429D01*
X12052143Y-17344143D01*
X12052143Y-17372714D01*
X12252143Y-17072714D02*
X12280714Y-17072714D01*
X12309286Y-17087000D01*
X12323571Y-17101286D01*
X12337857Y-17129857D01*
X12352143Y-17187000D01*
X12352143Y-17258429D01*
X12337857Y-17315572D01*
X12323571Y-17344143D01*
X12309286Y-17358429D01*
X12280714Y-17372714D01*
X12252143Y-17372714D01*
X12223571Y-17358429D01*
X12209286Y-17344143D01*
X12195000Y-17315572D01*
X12180714Y-17258429D01*
X12180714Y-17187000D01*
X12195000Y-17129857D01*
X12209286Y-17101286D01*
X12223571Y-17087000D01*
X12252143Y-17072714D01*
X12466428Y-17101286D02*
X12480714Y-17087000D01*
X12509286Y-17072714D01*
X12580714Y-17072714D01*
X12609286Y-17087000D01*
X12623571Y-17101286D01*
X12637857Y-17129857D01*
X12637857Y-17158429D01*
X12623571Y-17201286D01*
X12452143Y-17372714D01*
X12637857Y-17372714D01*
X12766428Y-17372714D02*
X12766428Y-17172714D01*
X12766428Y-17201286D02*
X12780714Y-17187000D01*
X12809286Y-17172714D01*
X12852143Y-17172714D01*
X12880714Y-17187000D01*
X12895000Y-17215572D01*
X12895000Y-17372714D01*
X12895000Y-17215572D02*
X12909286Y-17187000D01*
X12937857Y-17172714D01*
X12980714Y-17172714D01*
X13009286Y-17187000D01*
X13023571Y-17215572D01*
X13023571Y-17372714D01*
X13166428Y-17372714D02*
X13166428Y-17172714D01*
X13166428Y-17201286D02*
X13180714Y-17187000D01*
X13209286Y-17172714D01*
X13252143Y-17172714D01*
X13280714Y-17187000D01*
X13295000Y-17215572D01*
X13295000Y-17372714D01*
X13295000Y-17215572D02*
X13309286Y-17187000D01*
X13337857Y-17172714D01*
X13380714Y-17172714D01*
X13409286Y-17187000D01*
X13423571Y-17215572D01*
X13423571Y-17372714D01*
X14009286Y-17058429D02*
X13752143Y-17444143D01*
X14395000Y-17072714D02*
X14423571Y-17072714D01*
X14452143Y-17087000D01*
X14466428Y-17101286D01*
X14480714Y-17129857D01*
X14495000Y-17187000D01*
X14495000Y-17258429D01*
X14480714Y-17315572D01*
X14466428Y-17344143D01*
X14452143Y-17358429D01*
X14423571Y-17372714D01*
X14395000Y-17372714D01*
X14366428Y-17358429D01*
X14352143Y-17344143D01*
X14337857Y-17315572D01*
X14323571Y-17258429D01*
X14323571Y-17187000D01*
X14337857Y-17129857D01*
X14352143Y-17101286D01*
X14366428Y-17087000D01*
X14395000Y-17072714D01*
X14623571Y-17344143D02*
X14637857Y-17358429D01*
X14623571Y-17372714D01*
X14609286Y-17358429D01*
X14623571Y-17344143D01*
X14623571Y-17372714D01*
X14823571Y-17072714D02*
X14852143Y-17072714D01*
X14880714Y-17087000D01*
X14895000Y-17101286D01*
X14909285Y-17129857D01*
X14923571Y-17187000D01*
X14923571Y-17258429D01*
X14909285Y-17315572D01*
X14895000Y-17344143D01*
X14880714Y-17358429D01*
X14852143Y-17372714D01*
X14823571Y-17372714D01*
X14795000Y-17358429D01*
X14780714Y-17344143D01*
X14766428Y-17315572D01*
X14752143Y-17258429D01*
X14752143Y-17187000D01*
X14766428Y-17129857D01*
X14780714Y-17101286D01*
X14795000Y-17087000D01*
X14823571Y-17072714D01*
X15180714Y-17172714D02*
X15180714Y-17372714D01*
X15109285Y-17058429D02*
X15037857Y-17272714D01*
X15223571Y-17272714D01*
X15395000Y-17072714D02*
X15423571Y-17072714D01*
X15452143Y-17087000D01*
X15466428Y-17101286D01*
X15480714Y-17129857D01*
X15495000Y-17187000D01*
X15495000Y-17258429D01*
X15480714Y-17315572D01*
X15466428Y-17344143D01*
X15452143Y-17358429D01*
X15423571Y-17372714D01*
X15395000Y-17372714D01*
X15366428Y-17358429D01*
X15352143Y-17344143D01*
X15337857Y-17315572D01*
X15323571Y-17258429D01*
X15323571Y-17187000D01*
X15337857Y-17129857D01*
X15352143Y-17101286D01*
X15366428Y-17087000D01*
X15395000Y-17072714D01*
X15609286Y-17072714D02*
X15609286Y-17129857D01*
X15723571Y-17072714D02*
X15723571Y-17129857D01*
X16166428Y-17487000D02*
X16152143Y-17472714D01*
X16123571Y-17429857D01*
X16109285Y-17401286D01*
X16095000Y-17358429D01*
X16080714Y-17287000D01*
X16080714Y-17229857D01*
X16095000Y-17158429D01*
X16109285Y-17115572D01*
X16123571Y-17087000D01*
X16152143Y-17044143D01*
X16166428Y-17029857D01*
X16266428Y-17101286D02*
X16280714Y-17087000D01*
X16309285Y-17072714D01*
X16380714Y-17072714D01*
X16409285Y-17087000D01*
X16423571Y-17101286D01*
X16437857Y-17129857D01*
X16437857Y-17158429D01*
X16423571Y-17201286D01*
X16252143Y-17372714D01*
X16437857Y-17372714D01*
X16695000Y-17172714D02*
X16695000Y-17372714D01*
X16623571Y-17058429D02*
X16552143Y-17272714D01*
X16737857Y-17272714D01*
X17080714Y-17372714D02*
X17080714Y-17072714D01*
X17209286Y-17372714D02*
X17209286Y-17215572D01*
X17195000Y-17187000D01*
X17166428Y-17172714D01*
X17123571Y-17172714D01*
X17095000Y-17187000D01*
X17080714Y-17201286D01*
X17395000Y-17372714D02*
X17366428Y-17358429D01*
X17352143Y-17344143D01*
X17337857Y-17315572D01*
X17337857Y-17229857D01*
X17352143Y-17201286D01*
X17366428Y-17187000D01*
X17395000Y-17172714D01*
X17437857Y-17172714D01*
X17466428Y-17187000D01*
X17480714Y-17201286D01*
X17495000Y-17229857D01*
X17495000Y-17315572D01*
X17480714Y-17344143D01*
X17466428Y-17358429D01*
X17437857Y-17372714D01*
X17395000Y-17372714D01*
X17666428Y-17372714D02*
X17637857Y-17358429D01*
X17623571Y-17329857D01*
X17623571Y-17072714D01*
X17895000Y-17358429D02*
X17866429Y-17372714D01*
X17809286Y-17372714D01*
X17780714Y-17358429D01*
X17766429Y-17329857D01*
X17766429Y-17215572D01*
X17780714Y-17187000D01*
X17809286Y-17172714D01*
X17866429Y-17172714D01*
X17895000Y-17187000D01*
X17909286Y-17215572D01*
X17909286Y-17244143D01*
X17766429Y-17272714D01*
X18023571Y-17358429D02*
X18052143Y-17372714D01*
X18109286Y-17372714D01*
X18137857Y-17358429D01*
X18152143Y-17329857D01*
X18152143Y-17315572D01*
X18137857Y-17287000D01*
X18109286Y-17272714D01*
X18066429Y-17272714D01*
X18037857Y-17258429D01*
X18023571Y-17229857D01*
X18023571Y-17215572D01*
X18037857Y-17187000D01*
X18066429Y-17172714D01*
X18109286Y-17172714D01*
X18137857Y-17187000D01*
X18252143Y-17487000D02*
X18266429Y-17472714D01*
X18295000Y-17429857D01*
X18309286Y-17401286D01*
X18323571Y-17358429D01*
X18337857Y-17287000D01*
X18337857Y-17229857D01*
X18323571Y-17158429D01*
X18309286Y-17115572D01*
X18295000Y-17087000D01*
X18266429Y-17044143D01*
X18252143Y-17029857D01*
X11345000Y-17558000D02*
X11495000Y-17708000D01*
X11495000Y-17558000D02*
X11345000Y-17708000D01*
X11420000Y-17708000D02*
X11495000Y-17633000D01*
X11420000Y-17558000D01*
X11345000Y-17633000D01*
X11420000Y-17708000D01*
X11923571Y-17768714D02*
X11752143Y-17768714D01*
X11837857Y-17768714D02*
X11837857Y-17468714D01*
X11809286Y-17511572D01*
X11780714Y-17540143D01*
X11752143Y-17554429D01*
X12052143Y-17740143D02*
X12066428Y-17754429D01*
X12052143Y-17768714D01*
X12037857Y-17754429D01*
X12052143Y-17740143D01*
X12052143Y-17768714D01*
X12337857Y-17468714D02*
X12195000Y-17468714D01*
X12180714Y-17611572D01*
X12195000Y-17597286D01*
X12223571Y-17583000D01*
X12295000Y-17583000D01*
X12323571Y-17597286D01*
X12337857Y-17611572D01*
X12352143Y-17640143D01*
X12352143Y-17711572D01*
X12337857Y-17740143D01*
X12323571Y-17754429D01*
X12295000Y-17768714D01*
X12223571Y-17768714D01*
X12195000Y-17754429D01*
X12180714Y-17740143D01*
X12537857Y-17468714D02*
X12566428Y-17468714D01*
X12595000Y-17483000D01*
X12609286Y-17497286D01*
X12623571Y-17525857D01*
X12637857Y-17583000D01*
X12637857Y-17654429D01*
X12623571Y-17711572D01*
X12609286Y-17740143D01*
X12595000Y-17754429D01*
X12566428Y-17768714D01*
X12537857Y-17768714D01*
X12509286Y-17754429D01*
X12495000Y-17740143D01*
X12480714Y-17711572D01*
X12466428Y-17654429D01*
X12466428Y-17583000D01*
X12480714Y-17525857D01*
X12495000Y-17497286D01*
X12509286Y-17483000D01*
X12537857Y-17468714D01*
X12766428Y-17768714D02*
X12766428Y-17568714D01*
X12766428Y-17597286D02*
X12780714Y-17583000D01*
X12809286Y-17568714D01*
X12852143Y-17568714D01*
X12880714Y-17583000D01*
X12895000Y-17611572D01*
X12895000Y-17768714D01*
X12895000Y-17611572D02*
X12909286Y-17583000D01*
X12937857Y-17568714D01*
X12980714Y-17568714D01*
X13009286Y-17583000D01*
X13023571Y-17611572D01*
X13023571Y-17768714D01*
X13166428Y-17768714D02*
X13166428Y-17568714D01*
X13166428Y-17597286D02*
X13180714Y-17583000D01*
X13209286Y-17568714D01*
X13252143Y-17568714D01*
X13280714Y-17583000D01*
X13295000Y-17611572D01*
X13295000Y-17768714D01*
X13295000Y-17611572D02*
X13309286Y-17583000D01*
X13337857Y-17568714D01*
X13380714Y-17568714D01*
X13409286Y-17583000D01*
X13423571Y-17611572D01*
X13423571Y-17768714D01*
X14009286Y-17454429D02*
X13752143Y-17840143D01*
X14395000Y-17468714D02*
X14423571Y-17468714D01*
X14452143Y-17483000D01*
X14466428Y-17497286D01*
X14480714Y-17525857D01*
X14495000Y-17583000D01*
X14495000Y-17654429D01*
X14480714Y-17711572D01*
X14466428Y-17740143D01*
X14452143Y-17754429D01*
X14423571Y-17768714D01*
X14395000Y-17768714D01*
X14366428Y-17754429D01*
X14352143Y-17740143D01*
X14337857Y-17711572D01*
X14323571Y-17654429D01*
X14323571Y-17583000D01*
X14337857Y-17525857D01*
X14352143Y-17497286D01*
X14366428Y-17483000D01*
X14395000Y-17468714D01*
X14623571Y-17740143D02*
X14637857Y-17754429D01*
X14623571Y-17768714D01*
X14609286Y-17754429D01*
X14623571Y-17740143D01*
X14623571Y-17768714D01*
X14823571Y-17468714D02*
X14852143Y-17468714D01*
X14880714Y-17483000D01*
X14895000Y-17497286D01*
X14909285Y-17525857D01*
X14923571Y-17583000D01*
X14923571Y-17654429D01*
X14909285Y-17711572D01*
X14895000Y-17740143D01*
X14880714Y-17754429D01*
X14852143Y-17768714D01*
X14823571Y-17768714D01*
X14795000Y-17754429D01*
X14780714Y-17740143D01*
X14766428Y-17711572D01*
X14752143Y-17654429D01*
X14752143Y-17583000D01*
X14766428Y-17525857D01*
X14780714Y-17497286D01*
X14795000Y-17483000D01*
X14823571Y-17468714D01*
X15195000Y-17468714D02*
X15052143Y-17468714D01*
X15037857Y-17611572D01*
X15052143Y-17597286D01*
X15080714Y-17583000D01*
X15152143Y-17583000D01*
X15180714Y-17597286D01*
X15195000Y-17611572D01*
X15209285Y-17640143D01*
X15209285Y-17711572D01*
X15195000Y-17740143D01*
X15180714Y-17754429D01*
X15152143Y-17768714D01*
X15080714Y-17768714D01*
X15052143Y-17754429D01*
X15037857Y-17740143D01*
X15352143Y-17768714D02*
X15409285Y-17768714D01*
X15437857Y-17754429D01*
X15452143Y-17740143D01*
X15480714Y-17697286D01*
X15495000Y-17640143D01*
X15495000Y-17525857D01*
X15480714Y-17497286D01*
X15466428Y-17483000D01*
X15437857Y-17468714D01*
X15380714Y-17468714D01*
X15352143Y-17483000D01*
X15337857Y-17497286D01*
X15323571Y-17525857D01*
X15323571Y-17597286D01*
X15337857Y-17625857D01*
X15352143Y-17640143D01*
X15380714Y-17654429D01*
X15437857Y-17654429D01*
X15466428Y-17640143D01*
X15480714Y-17625857D01*
X15495000Y-17597286D01*
X15609286Y-17468714D02*
X15609286Y-17525857D01*
X15723571Y-17468714D02*
X15723571Y-17525857D01*
X16166428Y-17883000D02*
X16152143Y-17868714D01*
X16123571Y-17825857D01*
X16109285Y-17797286D01*
X16095000Y-17754429D01*
X16080714Y-17683000D01*
X16080714Y-17625857D01*
X16095000Y-17554429D01*
X16109285Y-17511572D01*
X16123571Y-17483000D01*
X16152143Y-17440143D01*
X16166428Y-17425857D01*
X16266428Y-17497286D02*
X16280714Y-17483000D01*
X16309285Y-17468714D01*
X16380714Y-17468714D01*
X16409285Y-17483000D01*
X16423571Y-17497286D01*
X16437857Y-17525857D01*
X16437857Y-17554429D01*
X16423571Y-17597286D01*
X16252143Y-17768714D01*
X16437857Y-17768714D01*
X16795000Y-17768714D02*
X16795000Y-17468714D01*
X16923571Y-17768714D02*
X16923571Y-17611572D01*
X16909286Y-17583000D01*
X16880714Y-17568714D01*
X16837857Y-17568714D01*
X16809286Y-17583000D01*
X16795000Y-17597286D01*
X17109286Y-17768714D02*
X17080714Y-17754429D01*
X17066428Y-17740143D01*
X17052143Y-17711572D01*
X17052143Y-17625857D01*
X17066428Y-17597286D01*
X17080714Y-17583000D01*
X17109286Y-17568714D01*
X17152143Y-17568714D01*
X17180714Y-17583000D01*
X17195000Y-17597286D01*
X17209286Y-17625857D01*
X17209286Y-17711572D01*
X17195000Y-17740143D01*
X17180714Y-17754429D01*
X17152143Y-17768714D01*
X17109286Y-17768714D01*
X17380714Y-17768714D02*
X17352143Y-17754429D01*
X17337857Y-17725857D01*
X17337857Y-17468714D01*
X17609286Y-17754429D02*
X17580714Y-17768714D01*
X17523571Y-17768714D01*
X17495000Y-17754429D01*
X17480714Y-17725857D01*
X17480714Y-17611572D01*
X17495000Y-17583000D01*
X17523571Y-17568714D01*
X17580714Y-17568714D01*
X17609286Y-17583000D01*
X17623571Y-17611572D01*
X17623571Y-17640143D01*
X17480714Y-17668714D01*
X17737857Y-17754429D02*
X17766429Y-17768714D01*
X17823571Y-17768714D01*
X17852143Y-17754429D01*
X17866429Y-17725857D01*
X17866429Y-17711572D01*
X17852143Y-17683000D01*
X17823571Y-17668714D01*
X17780714Y-17668714D01*
X17752143Y-17654429D01*
X17737857Y-17625857D01*
X17737857Y-17611572D01*
X17752143Y-17583000D01*
X17780714Y-17568714D01*
X17823571Y-17568714D01*
X17852143Y-17583000D01*
X17966428Y-17883000D02*
X17980714Y-17868714D01*
X18009286Y-17825857D01*
X18023571Y-17797286D01*
X18037857Y-17754429D01*
X18052143Y-17683000D01*
X18052143Y-17625857D01*
X18037857Y-17554429D01*
X18023571Y-17511572D01*
X18009286Y-17483000D01*
X17980714Y-17440143D01*
X17966428Y-17425857D01*
X11405000Y-17939000D02*
X11405000Y-18119000D01*
X11315000Y-18029000D02*
X11495000Y-18029000D01*
X11495000Y-18029000D02*
G75*
G03X11495000Y-18029000I-90000J0D01*
G01*
X11923571Y-18164714D02*
X11752143Y-18164714D01*
X11837857Y-18164714D02*
X11837857Y-17864714D01*
X11809286Y-17907572D01*
X11780714Y-17936143D01*
X11752143Y-17950429D01*
X12052143Y-18136143D02*
X12066428Y-18150429D01*
X12052143Y-18164714D01*
X12037857Y-18150429D01*
X12052143Y-18136143D01*
X12052143Y-18164714D01*
X12237857Y-17993286D02*
X12209286Y-17979000D01*
X12195000Y-17964714D01*
X12180714Y-17936143D01*
X12180714Y-17921857D01*
X12195000Y-17893286D01*
X12209286Y-17879000D01*
X12237857Y-17864714D01*
X12295000Y-17864714D01*
X12323571Y-17879000D01*
X12337857Y-17893286D01*
X12352143Y-17921857D01*
X12352143Y-17936143D01*
X12337857Y-17964714D01*
X12323571Y-17979000D01*
X12295000Y-17993286D01*
X12237857Y-17993286D01*
X12209286Y-18007572D01*
X12195000Y-18021857D01*
X12180714Y-18050429D01*
X12180714Y-18107572D01*
X12195000Y-18136143D01*
X12209286Y-18150429D01*
X12237857Y-18164714D01*
X12295000Y-18164714D01*
X12323571Y-18150429D01*
X12337857Y-18136143D01*
X12352143Y-18107572D01*
X12352143Y-18050429D01*
X12337857Y-18021857D01*
X12323571Y-18007572D01*
X12295000Y-17993286D01*
X12537857Y-17864714D02*
X12566428Y-17864714D01*
X12595000Y-17879000D01*
X12609286Y-17893286D01*
X12623571Y-17921857D01*
X12637857Y-17979000D01*
X12637857Y-18050429D01*
X12623571Y-18107572D01*
X12609286Y-18136143D01*
X12595000Y-18150429D01*
X12566428Y-18164714D01*
X12537857Y-18164714D01*
X12509286Y-18150429D01*
X12495000Y-18136143D01*
X12480714Y-18107572D01*
X12466428Y-18050429D01*
X12466428Y-17979000D01*
X12480714Y-17921857D01*
X12495000Y-17893286D01*
X12509286Y-17879000D01*
X12537857Y-17864714D01*
X12766428Y-18164714D02*
X12766428Y-17964714D01*
X12766428Y-17993286D02*
X12780714Y-17979000D01*
X12809286Y-17964714D01*
X12852143Y-17964714D01*
X12880714Y-17979000D01*
X12895000Y-18007572D01*
X12895000Y-18164714D01*
X12895000Y-18007572D02*
X12909286Y-17979000D01*
X12937857Y-17964714D01*
X12980714Y-17964714D01*
X13009286Y-17979000D01*
X13023571Y-18007572D01*
X13023571Y-18164714D01*
X13166428Y-18164714D02*
X13166428Y-17964714D01*
X13166428Y-17993286D02*
X13180714Y-17979000D01*
X13209286Y-17964714D01*
X13252143Y-17964714D01*
X13280714Y-17979000D01*
X13295000Y-18007572D01*
X13295000Y-18164714D01*
X13295000Y-18007572D02*
X13309286Y-17979000D01*
X13337857Y-17964714D01*
X13380714Y-17964714D01*
X13409286Y-17979000D01*
X13423571Y-18007572D01*
X13423571Y-18164714D01*
X14009286Y-17850429D02*
X13752143Y-18236143D01*
X14395000Y-17864714D02*
X14423571Y-17864714D01*
X14452143Y-17879000D01*
X14466428Y-17893286D01*
X14480714Y-17921857D01*
X14495000Y-17979000D01*
X14495000Y-18050429D01*
X14480714Y-18107572D01*
X14466428Y-18136143D01*
X14452143Y-18150429D01*
X14423571Y-18164714D01*
X14395000Y-18164714D01*
X14366428Y-18150429D01*
X14352143Y-18136143D01*
X14337857Y-18107572D01*
X14323571Y-18050429D01*
X14323571Y-17979000D01*
X14337857Y-17921857D01*
X14352143Y-17893286D01*
X14366428Y-17879000D01*
X14395000Y-17864714D01*
X14623571Y-18136143D02*
X14637857Y-18150429D01*
X14623571Y-18164714D01*
X14609286Y-18150429D01*
X14623571Y-18136143D01*
X14623571Y-18164714D01*
X14823571Y-17864714D02*
X14852143Y-17864714D01*
X14880714Y-17879000D01*
X14895000Y-17893286D01*
X14909285Y-17921857D01*
X14923571Y-17979000D01*
X14923571Y-18050429D01*
X14909285Y-18107572D01*
X14895000Y-18136143D01*
X14880714Y-18150429D01*
X14852143Y-18164714D01*
X14823571Y-18164714D01*
X14795000Y-18150429D01*
X14780714Y-18136143D01*
X14766428Y-18107572D01*
X14752143Y-18050429D01*
X14752143Y-17979000D01*
X14766428Y-17921857D01*
X14780714Y-17893286D01*
X14795000Y-17879000D01*
X14823571Y-17864714D01*
X15023571Y-17864714D02*
X15223571Y-17864714D01*
X15095000Y-18164714D01*
X15495000Y-18164714D02*
X15323571Y-18164714D01*
X15409285Y-18164714D02*
X15409285Y-17864714D01*
X15380714Y-17907572D01*
X15352143Y-17936143D01*
X15323571Y-17950429D01*
X15609286Y-17864714D02*
X15609286Y-17921857D01*
X15723571Y-17864714D02*
X15723571Y-17921857D01*
X16166428Y-18279000D02*
X16152143Y-18264714D01*
X16123571Y-18221857D01*
X16109285Y-18193286D01*
X16095000Y-18150429D01*
X16080714Y-18079000D01*
X16080714Y-18021857D01*
X16095000Y-17950429D01*
X16109285Y-17907572D01*
X16123571Y-17879000D01*
X16152143Y-17836143D01*
X16166428Y-17821857D01*
X16266428Y-17893286D02*
X16280714Y-17879000D01*
X16309285Y-17864714D01*
X16380714Y-17864714D01*
X16409285Y-17879000D01*
X16423571Y-17893286D01*
X16437857Y-17921857D01*
X16437857Y-17950429D01*
X16423571Y-17993286D01*
X16252143Y-18164714D01*
X16437857Y-18164714D01*
X16795000Y-18164714D02*
X16795000Y-17864714D01*
X16923571Y-18164714D02*
X16923571Y-18007572D01*
X16909286Y-17979000D01*
X16880714Y-17964714D01*
X16837857Y-17964714D01*
X16809286Y-17979000D01*
X16795000Y-17993286D01*
X17109286Y-18164714D02*
X17080714Y-18150429D01*
X17066428Y-18136143D01*
X17052143Y-18107572D01*
X17052143Y-18021857D01*
X17066428Y-17993286D01*
X17080714Y-17979000D01*
X17109286Y-17964714D01*
X17152143Y-17964714D01*
X17180714Y-17979000D01*
X17195000Y-17993286D01*
X17209286Y-18021857D01*
X17209286Y-18107572D01*
X17195000Y-18136143D01*
X17180714Y-18150429D01*
X17152143Y-18164714D01*
X17109286Y-18164714D01*
X17380714Y-18164714D02*
X17352143Y-18150429D01*
X17337857Y-18121857D01*
X17337857Y-17864714D01*
X17609286Y-18150429D02*
X17580714Y-18164714D01*
X17523571Y-18164714D01*
X17495000Y-18150429D01*
X17480714Y-18121857D01*
X17480714Y-18007572D01*
X17495000Y-17979000D01*
X17523571Y-17964714D01*
X17580714Y-17964714D01*
X17609286Y-17979000D01*
X17623571Y-18007572D01*
X17623571Y-18036143D01*
X17480714Y-18064714D01*
X17737857Y-18150429D02*
X17766429Y-18164714D01*
X17823571Y-18164714D01*
X17852143Y-18150429D01*
X17866429Y-18121857D01*
X17866429Y-18107572D01*
X17852143Y-18079000D01*
X17823571Y-18064714D01*
X17780714Y-18064714D01*
X17752143Y-18050429D01*
X17737857Y-18021857D01*
X17737857Y-18007572D01*
X17752143Y-17979000D01*
X17780714Y-17964714D01*
X17823571Y-17964714D01*
X17852143Y-17979000D01*
X17966428Y-18279000D02*
X17980714Y-18264714D01*
X18009286Y-18221857D01*
X18023571Y-18193286D01*
X18037857Y-18150429D01*
X18052143Y-18079000D01*
X18052143Y-18021857D01*
X18037857Y-17950429D01*
X18023571Y-17907572D01*
X18009286Y-17879000D01*
X17980714Y-17836143D01*
X17966428Y-17821857D01*
X11437887Y-18562887D02*
X11437887Y-18287113D01*
X11162113Y-18287113D01*
X11162113Y-18562887D01*
X11437887Y-18562887D01*
X11495000Y-18425000D02*
G75*
G03X11495000Y-18425000I-195000J0D01*
G01*
X11737857Y-18260714D02*
X11923571Y-18260714D01*
X11823571Y-18375000D01*
X11866428Y-18375000D01*
X11895000Y-18389286D01*
X11909286Y-18403572D01*
X11923571Y-18432143D01*
X11923571Y-18503572D01*
X11909286Y-18532143D01*
X11895000Y-18546429D01*
X11866428Y-18560714D01*
X11780714Y-18560714D01*
X11752143Y-18546429D01*
X11737857Y-18532143D01*
X12052143Y-18532143D02*
X12066428Y-18546429D01*
X12052143Y-18560714D01*
X12037857Y-18546429D01*
X12052143Y-18532143D01*
X12052143Y-18560714D01*
X12209286Y-18560714D02*
X12266428Y-18560714D01*
X12295000Y-18546429D01*
X12309286Y-18532143D01*
X12337857Y-18489286D01*
X12352143Y-18432143D01*
X12352143Y-18317857D01*
X12337857Y-18289286D01*
X12323571Y-18275000D01*
X12295000Y-18260714D01*
X12237857Y-18260714D01*
X12209286Y-18275000D01*
X12195000Y-18289286D01*
X12180714Y-18317857D01*
X12180714Y-18389286D01*
X12195000Y-18417857D01*
X12209286Y-18432143D01*
X12237857Y-18446429D01*
X12295000Y-18446429D01*
X12323571Y-18432143D01*
X12337857Y-18417857D01*
X12352143Y-18389286D01*
X12537857Y-18260714D02*
X12566428Y-18260714D01*
X12595000Y-18275000D01*
X12609286Y-18289286D01*
X12623571Y-18317857D01*
X12637857Y-18375000D01*
X12637857Y-18446429D01*
X12623571Y-18503572D01*
X12609286Y-18532143D01*
X12595000Y-18546429D01*
X12566428Y-18560714D01*
X12537857Y-18560714D01*
X12509286Y-18546429D01*
X12495000Y-18532143D01*
X12480714Y-18503572D01*
X12466428Y-18446429D01*
X12466428Y-18375000D01*
X12480714Y-18317857D01*
X12495000Y-18289286D01*
X12509286Y-18275000D01*
X12537857Y-18260714D01*
X12766428Y-18560714D02*
X12766428Y-18360714D01*
X12766428Y-18389286D02*
X12780714Y-18375000D01*
X12809286Y-18360714D01*
X12852143Y-18360714D01*
X12880714Y-18375000D01*
X12895000Y-18403572D01*
X12895000Y-18560714D01*
X12895000Y-18403572D02*
X12909286Y-18375000D01*
X12937857Y-18360714D01*
X12980714Y-18360714D01*
X13009286Y-18375000D01*
X13023571Y-18403572D01*
X13023571Y-18560714D01*
X13166428Y-18560714D02*
X13166428Y-18360714D01*
X13166428Y-18389286D02*
X13180714Y-18375000D01*
X13209286Y-18360714D01*
X13252143Y-18360714D01*
X13280714Y-18375000D01*
X13295000Y-18403572D01*
X13295000Y-18560714D01*
X13295000Y-18403572D02*
X13309286Y-18375000D01*
X13337857Y-18360714D01*
X13380714Y-18360714D01*
X13409286Y-18375000D01*
X13423571Y-18403572D01*
X13423571Y-18560714D01*
X14009286Y-18246429D02*
X13752143Y-18632143D01*
X14395000Y-18260714D02*
X14423571Y-18260714D01*
X14452143Y-18275000D01*
X14466428Y-18289286D01*
X14480714Y-18317857D01*
X14495000Y-18375000D01*
X14495000Y-18446429D01*
X14480714Y-18503572D01*
X14466428Y-18532143D01*
X14452143Y-18546429D01*
X14423571Y-18560714D01*
X14395000Y-18560714D01*
X14366428Y-18546429D01*
X14352143Y-18532143D01*
X14337857Y-18503572D01*
X14323571Y-18446429D01*
X14323571Y-18375000D01*
X14337857Y-18317857D01*
X14352143Y-18289286D01*
X14366428Y-18275000D01*
X14395000Y-18260714D01*
X14623571Y-18532143D02*
X14637857Y-18546429D01*
X14623571Y-18560714D01*
X14609286Y-18546429D01*
X14623571Y-18532143D01*
X14623571Y-18560714D01*
X14923571Y-18560714D02*
X14752143Y-18560714D01*
X14837857Y-18560714D02*
X14837857Y-18260714D01*
X14809285Y-18303572D01*
X14780714Y-18332143D01*
X14752143Y-18346429D01*
X15195000Y-18260714D02*
X15052143Y-18260714D01*
X15037857Y-18403572D01*
X15052143Y-18389286D01*
X15080714Y-18375000D01*
X15152143Y-18375000D01*
X15180714Y-18389286D01*
X15195000Y-18403572D01*
X15209285Y-18432143D01*
X15209285Y-18503572D01*
X15195000Y-18532143D01*
X15180714Y-18546429D01*
X15152143Y-18560714D01*
X15080714Y-18560714D01*
X15052143Y-18546429D01*
X15037857Y-18532143D01*
X15466428Y-18360714D02*
X15466428Y-18560714D01*
X15395000Y-18246429D02*
X15323571Y-18460714D01*
X15509285Y-18460714D01*
X15609286Y-18260714D02*
X15609286Y-18317857D01*
X15723571Y-18260714D02*
X15723571Y-18317857D01*
X16166428Y-18675000D02*
X16152143Y-18660714D01*
X16123571Y-18617857D01*
X16109285Y-18589286D01*
X16095000Y-18546429D01*
X16080714Y-18475000D01*
X16080714Y-18417857D01*
X16095000Y-18346429D01*
X16109285Y-18303572D01*
X16123571Y-18275000D01*
X16152143Y-18232143D01*
X16166428Y-18217857D01*
X16409285Y-18360714D02*
X16409285Y-18560714D01*
X16337857Y-18246429D02*
X16266428Y-18460714D01*
X16452143Y-18460714D01*
X16795000Y-18560714D02*
X16795000Y-18260714D01*
X16923571Y-18560714D02*
X16923571Y-18403572D01*
X16909286Y-18375000D01*
X16880714Y-18360714D01*
X16837857Y-18360714D01*
X16809286Y-18375000D01*
X16795000Y-18389286D01*
X17109286Y-18560714D02*
X17080714Y-18546429D01*
X17066428Y-18532143D01*
X17052143Y-18503572D01*
X17052143Y-18417857D01*
X17066428Y-18389286D01*
X17080714Y-18375000D01*
X17109286Y-18360714D01*
X17152143Y-18360714D01*
X17180714Y-18375000D01*
X17195000Y-18389286D01*
X17209286Y-18417857D01*
X17209286Y-18503572D01*
X17195000Y-18532143D01*
X17180714Y-18546429D01*
X17152143Y-18560714D01*
X17109286Y-18560714D01*
X17380714Y-18560714D02*
X17352143Y-18546429D01*
X17337857Y-18517857D01*
X17337857Y-18260714D01*
X17609286Y-18546429D02*
X17580714Y-18560714D01*
X17523571Y-18560714D01*
X17495000Y-18546429D01*
X17480714Y-18517857D01*
X17480714Y-18403572D01*
X17495000Y-18375000D01*
X17523571Y-18360714D01*
X17580714Y-18360714D01*
X17609286Y-18375000D01*
X17623571Y-18403572D01*
X17623571Y-18432143D01*
X17480714Y-18460714D01*
X17737857Y-18546429D02*
X17766429Y-18560714D01*
X17823571Y-18560714D01*
X17852143Y-18546429D01*
X17866429Y-18517857D01*
X17866429Y-18503572D01*
X17852143Y-18475000D01*
X17823571Y-18460714D01*
X17780714Y-18460714D01*
X17752143Y-18446429D01*
X17737857Y-18417857D01*
X17737857Y-18403572D01*
X17752143Y-18375000D01*
X17780714Y-18360714D01*
X17823571Y-18360714D01*
X17852143Y-18375000D01*
X17966428Y-18675000D02*
X17980714Y-18660714D01*
X18009286Y-18617857D01*
X18023571Y-18589286D01*
X18037857Y-18546429D01*
X18052143Y-18475000D01*
X18052143Y-18417857D01*
X18037857Y-18346429D01*
X18023571Y-18303572D01*
X18009286Y-18275000D01*
X17980714Y-18232143D01*
X17966428Y-18217857D01*
X11195026Y-19244974D02*
X11495000Y-18945000D01*
X11195026Y-18645026D01*
X10895052Y-18945000D01*
X11195026Y-19244974D01*
X11495000Y-18945000D02*
G75*
G03X11495000Y-18945000I-299974J0D01*
G01*
X11895000Y-18780714D02*
X11837857Y-18780714D01*
X11809286Y-18795000D01*
X11795000Y-18809286D01*
X11766428Y-18852143D01*
X11752143Y-18909286D01*
X11752143Y-19023572D01*
X11766428Y-19052143D01*
X11780714Y-19066429D01*
X11809286Y-19080714D01*
X11866428Y-19080714D01*
X11895000Y-19066429D01*
X11909286Y-19052143D01*
X11923571Y-19023572D01*
X11923571Y-18952143D01*
X11909286Y-18923572D01*
X11895000Y-18909286D01*
X11866428Y-18895000D01*
X11809286Y-18895000D01*
X11780714Y-18909286D01*
X11766428Y-18923572D01*
X11752143Y-18952143D01*
X12052143Y-19052143D02*
X12066428Y-19066429D01*
X12052143Y-19080714D01*
X12037857Y-19066429D01*
X12052143Y-19052143D01*
X12052143Y-19080714D01*
X12252143Y-18780714D02*
X12280714Y-18780714D01*
X12309286Y-18795000D01*
X12323571Y-18809286D01*
X12337857Y-18837857D01*
X12352143Y-18895000D01*
X12352143Y-18966429D01*
X12337857Y-19023572D01*
X12323571Y-19052143D01*
X12309286Y-19066429D01*
X12280714Y-19080714D01*
X12252143Y-19080714D01*
X12223571Y-19066429D01*
X12209286Y-19052143D01*
X12195000Y-19023572D01*
X12180714Y-18966429D01*
X12180714Y-18895000D01*
X12195000Y-18837857D01*
X12209286Y-18809286D01*
X12223571Y-18795000D01*
X12252143Y-18780714D01*
X12537857Y-18780714D02*
X12566428Y-18780714D01*
X12595000Y-18795000D01*
X12609286Y-18809286D01*
X12623571Y-18837857D01*
X12637857Y-18895000D01*
X12637857Y-18966429D01*
X12623571Y-19023572D01*
X12609286Y-19052143D01*
X12595000Y-19066429D01*
X12566428Y-19080714D01*
X12537857Y-19080714D01*
X12509286Y-19066429D01*
X12495000Y-19052143D01*
X12480714Y-19023572D01*
X12466428Y-18966429D01*
X12466428Y-18895000D01*
X12480714Y-18837857D01*
X12495000Y-18809286D01*
X12509286Y-18795000D01*
X12537857Y-18780714D01*
X12766428Y-19080714D02*
X12766428Y-18880714D01*
X12766428Y-18909286D02*
X12780714Y-18895000D01*
X12809286Y-18880714D01*
X12852143Y-18880714D01*
X12880714Y-18895000D01*
X12895000Y-18923572D01*
X12895000Y-19080714D01*
X12895000Y-18923572D02*
X12909286Y-18895000D01*
X12937857Y-18880714D01*
X12980714Y-18880714D01*
X13009286Y-18895000D01*
X13023571Y-18923572D01*
X13023571Y-19080714D01*
X13166428Y-19080714D02*
X13166428Y-18880714D01*
X13166428Y-18909286D02*
X13180714Y-18895000D01*
X13209286Y-18880714D01*
X13252143Y-18880714D01*
X13280714Y-18895000D01*
X13295000Y-18923572D01*
X13295000Y-19080714D01*
X13295000Y-18923572D02*
X13309286Y-18895000D01*
X13337857Y-18880714D01*
X13380714Y-18880714D01*
X13409286Y-18895000D01*
X13423571Y-18923572D01*
X13423571Y-19080714D01*
X14009286Y-18766429D02*
X13752143Y-19152143D01*
X14395000Y-18780714D02*
X14423571Y-18780714D01*
X14452143Y-18795000D01*
X14466428Y-18809286D01*
X14480714Y-18837857D01*
X14495000Y-18895000D01*
X14495000Y-18966429D01*
X14480714Y-19023572D01*
X14466428Y-19052143D01*
X14452143Y-19066429D01*
X14423571Y-19080714D01*
X14395000Y-19080714D01*
X14366428Y-19066429D01*
X14352143Y-19052143D01*
X14337857Y-19023572D01*
X14323571Y-18966429D01*
X14323571Y-18895000D01*
X14337857Y-18837857D01*
X14352143Y-18809286D01*
X14366428Y-18795000D01*
X14395000Y-18780714D01*
X14623571Y-19052143D02*
X14637857Y-19066429D01*
X14623571Y-19080714D01*
X14609286Y-19066429D01*
X14623571Y-19052143D01*
X14623571Y-19080714D01*
X14752143Y-18809286D02*
X14766428Y-18795000D01*
X14795000Y-18780714D01*
X14866428Y-18780714D01*
X14895000Y-18795000D01*
X14909285Y-18809286D01*
X14923571Y-18837857D01*
X14923571Y-18866429D01*
X14909285Y-18909286D01*
X14737857Y-19080714D01*
X14923571Y-19080714D01*
X15023571Y-18780714D02*
X15209285Y-18780714D01*
X15109285Y-18895000D01*
X15152143Y-18895000D01*
X15180714Y-18909286D01*
X15195000Y-18923572D01*
X15209285Y-18952143D01*
X15209285Y-19023572D01*
X15195000Y-19052143D01*
X15180714Y-19066429D01*
X15152143Y-19080714D01*
X15066428Y-19080714D01*
X15037857Y-19066429D01*
X15023571Y-19052143D01*
X15466428Y-18780714D02*
X15409285Y-18780714D01*
X15380714Y-18795000D01*
X15366428Y-18809286D01*
X15337857Y-18852143D01*
X15323571Y-18909286D01*
X15323571Y-19023572D01*
X15337857Y-19052143D01*
X15352143Y-19066429D01*
X15380714Y-19080714D01*
X15437857Y-19080714D01*
X15466428Y-19066429D01*
X15480714Y-19052143D01*
X15495000Y-19023572D01*
X15495000Y-18952143D01*
X15480714Y-18923572D01*
X15466428Y-18909286D01*
X15437857Y-18895000D01*
X15380714Y-18895000D01*
X15352143Y-18909286D01*
X15337857Y-18923572D01*
X15323571Y-18952143D01*
X15609286Y-18780714D02*
X15609286Y-18837857D01*
X15723571Y-18780714D02*
X15723571Y-18837857D01*
X16166428Y-19195000D02*
X16152143Y-19180714D01*
X16123571Y-19137857D01*
X16109285Y-19109286D01*
X16095000Y-19066429D01*
X16080714Y-18995000D01*
X16080714Y-18937857D01*
X16095000Y-18866429D01*
X16109285Y-18823572D01*
X16123571Y-18795000D01*
X16152143Y-18752143D01*
X16166428Y-18737857D01*
X16437857Y-19080714D02*
X16266428Y-19080714D01*
X16352143Y-19080714D02*
X16352143Y-18780714D01*
X16323571Y-18823572D01*
X16295000Y-18852143D01*
X16266428Y-18866429D01*
X16795000Y-19080714D02*
X16795000Y-18780714D01*
X16923571Y-19080714D02*
X16923571Y-18923572D01*
X16909286Y-18895000D01*
X16880714Y-18880714D01*
X16837857Y-18880714D01*
X16809286Y-18895000D01*
X16795000Y-18909286D01*
X17109286Y-19080714D02*
X17080714Y-19066429D01*
X17066428Y-19052143D01*
X17052143Y-19023572D01*
X17052143Y-18937857D01*
X17066428Y-18909286D01*
X17080714Y-18895000D01*
X17109286Y-18880714D01*
X17152143Y-18880714D01*
X17180714Y-18895000D01*
X17195000Y-18909286D01*
X17209286Y-18937857D01*
X17209286Y-19023572D01*
X17195000Y-19052143D01*
X17180714Y-19066429D01*
X17152143Y-19080714D01*
X17109286Y-19080714D01*
X17380714Y-19080714D02*
X17352143Y-19066429D01*
X17337857Y-19037857D01*
X17337857Y-18780714D01*
X17609286Y-19066429D02*
X17580714Y-19080714D01*
X17523571Y-19080714D01*
X17495000Y-19066429D01*
X17480714Y-19037857D01*
X17480714Y-18923572D01*
X17495000Y-18895000D01*
X17523571Y-18880714D01*
X17580714Y-18880714D01*
X17609286Y-18895000D01*
X17623571Y-18923572D01*
X17623571Y-18952143D01*
X17480714Y-18980714D01*
X17723571Y-19195000D02*
X17737857Y-19180714D01*
X17766429Y-19137857D01*
X17780714Y-19109286D01*
X17795000Y-19066429D01*
X17809286Y-18995000D01*
X17809286Y-18937857D01*
X17795000Y-18866429D01*
X17780714Y-18823572D01*
X17766429Y-18795000D01*
X17737857Y-18752143D01*
X17723571Y-18737857D01*
M02*
