%FSLAX45Y45*%
G04 Gerber Fmt 4.5, Leading zero omitted, Abs format (unit mm)*
G04 Created by KiCad (PCBNEW 4.0.1-stable) date 03/05/2016 06:21:59*
%MOMM*%
G01*
G04 APERTURE LIST*
%ADD10C,0.127000*%
%ADD11C,0.100000*%
%ADD12C,0.200000*%
%ADD13C,0.300000*%
G04 APERTURE END LIST*
D10*
D11*
X19500000Y-3500000D02*
X19500000Y-13500000D01*
X19500000Y-13500000D02*
X11500000Y-13500000D01*
X11500000Y-3500000D02*
X19500000Y-3500000D01*
X11500000Y-3500000D02*
X11500000Y-13500000D01*
D12*
X12363450Y-5024450D02*
X12426950Y-5087950D01*
X12426950Y-5024450D02*
X12363450Y-5087950D01*
X12553950Y-13150850D02*
X12617450Y-13214350D01*
X12617450Y-13150850D02*
X12553950Y-13214350D01*
X12719050Y-5024450D02*
X12782550Y-5087950D01*
X12782550Y-5024450D02*
X12719050Y-5087950D01*
X12719050Y-7715250D02*
X12782550Y-7778750D01*
X12782550Y-7715250D02*
X12719050Y-7778750D01*
X12807950Y-12947650D02*
X12871450Y-13011150D01*
X12871450Y-12947650D02*
X12807950Y-13011150D01*
X12839700Y-12769850D02*
X12903200Y-12833350D01*
X12903200Y-12769850D02*
X12839700Y-12833350D01*
X13074650Y-5024450D02*
X13138150Y-5087950D01*
X13138150Y-5024450D02*
X13074650Y-5087950D01*
X13354050Y-6191250D02*
X13417550Y-6254750D01*
X13417550Y-6191250D02*
X13354050Y-6254750D01*
X13462000Y-13220700D02*
X13525500Y-13284200D01*
X13525500Y-13220700D02*
X13462000Y-13284200D01*
X14293850Y-4997450D02*
X14357350Y-5060950D01*
X14357350Y-4997450D02*
X14293850Y-5060950D01*
X14954250Y-5962650D02*
X15017750Y-6026150D01*
X15017750Y-5962650D02*
X14954250Y-6026150D01*
X15544800Y-13119100D02*
X15608300Y-13182600D01*
X15608300Y-13119100D02*
X15544800Y-13182600D01*
X15868650Y-4692650D02*
X15932150Y-4756150D01*
X15932150Y-4692650D02*
X15868650Y-4756150D01*
X16160750Y-9061450D02*
X16224250Y-9124950D01*
X16224250Y-9061450D02*
X16160750Y-9124950D01*
X16179800Y-11233150D02*
X16243300Y-11296650D01*
X16243300Y-11233150D02*
X16179800Y-11296650D01*
X16186150Y-7943850D02*
X16249650Y-8007350D01*
X16249650Y-7943850D02*
X16186150Y-8007350D01*
X16186150Y-12306300D02*
X16249650Y-12369800D01*
X16249650Y-12306300D02*
X16186150Y-12369800D01*
X16192500Y-6851650D02*
X16256000Y-6915150D01*
X16256000Y-6851650D02*
X16192500Y-6915150D01*
X16192500Y-10153650D02*
X16256000Y-10217150D01*
X16256000Y-10153650D02*
X16192500Y-10217150D01*
X16198850Y-5784850D02*
X16262350Y-5848350D01*
X16262350Y-5784850D02*
X16198850Y-5848350D01*
X16421100Y-10934700D02*
X16484600Y-10998200D01*
X16484600Y-10934700D02*
X16421100Y-10998200D01*
X16427450Y-9817100D02*
X16490950Y-9880600D01*
X16490950Y-9817100D02*
X16427450Y-9880600D01*
X16427450Y-12026900D02*
X16490950Y-12090400D01*
X16490950Y-12026900D02*
X16427450Y-12090400D01*
X16440150Y-7645400D02*
X16503650Y-7708900D01*
X16503650Y-7645400D02*
X16440150Y-7708900D01*
X16440150Y-8731250D02*
X16503650Y-8794750D01*
X16503650Y-8731250D02*
X16440150Y-8794750D01*
X16446500Y-6572250D02*
X16510000Y-6635750D01*
X16510000Y-6572250D02*
X16446500Y-6635750D01*
X16535400Y-5784850D02*
X16598900Y-5848350D01*
X16598900Y-5784850D02*
X16535400Y-5848350D01*
X16541750Y-7918450D02*
X16605250Y-7981950D01*
X16605250Y-7918450D02*
X16541750Y-7981950D01*
X16548100Y-9010650D02*
X16611600Y-9074150D01*
X16611600Y-9010650D02*
X16548100Y-9074150D01*
X16554450Y-13169900D02*
X16617950Y-13233400D01*
X16617950Y-13169900D02*
X16554450Y-13233400D01*
X16560800Y-10096500D02*
X16624300Y-10160000D01*
X16624300Y-10096500D02*
X16560800Y-10160000D01*
X16560800Y-11207750D02*
X16624300Y-11271250D01*
X16624300Y-11207750D02*
X16560800Y-11271250D01*
X16567150Y-6832600D02*
X16630650Y-6896100D01*
X16630650Y-6832600D02*
X16567150Y-6896100D01*
X16814800Y-7613650D02*
X16878300Y-7677150D01*
X16878300Y-7613650D02*
X16814800Y-7677150D01*
X16814800Y-10922000D02*
X16878300Y-10985500D01*
X16878300Y-10922000D02*
X16814800Y-10985500D01*
X16821150Y-6546850D02*
X16884650Y-6610350D01*
X16884650Y-6546850D02*
X16821150Y-6610350D01*
X16821150Y-8705850D02*
X16884650Y-8769350D01*
X16884650Y-8705850D02*
X16821150Y-8769350D01*
X16827500Y-9829800D02*
X16891000Y-9893300D01*
X16891000Y-9829800D02*
X16827500Y-9893300D01*
X16827500Y-11982450D02*
X16891000Y-12045950D01*
X16891000Y-11982450D02*
X16827500Y-12045950D01*
X16865600Y-12179300D02*
X16929100Y-12242800D01*
X16929100Y-12179300D02*
X16865600Y-12242800D01*
X16967200Y-5283200D02*
X17030700Y-5346700D01*
X17030700Y-5283200D02*
X16967200Y-5346700D01*
X17646650Y-5284850D02*
X17710150Y-5348350D01*
X17710150Y-5284850D02*
X17646650Y-5348350D01*
X14052550Y-12357100D02*
G75*
G03X14052550Y-12357100I-38100J0D01*
G01*
X14052550Y-13119100D02*
G75*
G03X14052550Y-13119100I-38100J0D01*
G01*
X14058900Y-5816600D02*
G75*
G03X14058900Y-5816600I-38100J0D01*
G01*
X14058900Y-6578600D02*
G75*
G03X14058900Y-6578600I-38100J0D01*
G01*
X14058900Y-6908800D02*
G75*
G03X14058900Y-6908800I-38100J0D01*
G01*
X14058900Y-7670800D02*
G75*
G03X14058900Y-7670800I-38100J0D01*
G01*
X14058900Y-8001000D02*
G75*
G03X14058900Y-8001000I-38100J0D01*
G01*
X14058900Y-8763000D02*
G75*
G03X14058900Y-8763000I-38100J0D01*
G01*
X14058900Y-9093200D02*
G75*
G03X14058900Y-9093200I-38100J0D01*
G01*
X14058900Y-9855200D02*
G75*
G03X14058900Y-9855200I-38100J0D01*
G01*
X14058900Y-10185400D02*
G75*
G03X14058900Y-10185400I-38100J0D01*
G01*
X14058900Y-10947400D02*
G75*
G03X14058900Y-10947400I-38100J0D01*
G01*
X14058900Y-11277600D02*
G75*
G03X14058900Y-11277600I-38100J0D01*
G01*
X14058900Y-12039600D02*
G75*
G03X14058900Y-12039600I-38100J0D01*
G01*
X14306550Y-12357100D02*
G75*
G03X14306550Y-12357100I-38100J0D01*
G01*
X14306550Y-13119100D02*
G75*
G03X14306550Y-13119100I-38100J0D01*
G01*
X14312900Y-5816600D02*
G75*
G03X14312900Y-5816600I-38100J0D01*
G01*
X14312900Y-6578600D02*
G75*
G03X14312900Y-6578600I-38100J0D01*
G01*
X14312900Y-6908800D02*
G75*
G03X14312900Y-6908800I-38100J0D01*
G01*
X14312900Y-7670800D02*
G75*
G03X14312900Y-7670800I-38100J0D01*
G01*
X14312900Y-8001000D02*
G75*
G03X14312900Y-8001000I-38100J0D01*
G01*
X14312900Y-8763000D02*
G75*
G03X14312900Y-8763000I-38100J0D01*
G01*
X14312900Y-9093200D02*
G75*
G03X14312900Y-9093200I-38100J0D01*
G01*
X14312900Y-9855200D02*
G75*
G03X14312900Y-9855200I-38100J0D01*
G01*
X14312900Y-10185400D02*
G75*
G03X14312900Y-10185400I-38100J0D01*
G01*
X14312900Y-10947400D02*
G75*
G03X14312900Y-10947400I-38100J0D01*
G01*
X14312900Y-11277600D02*
G75*
G03X14312900Y-11277600I-38100J0D01*
G01*
X14312900Y-12039600D02*
G75*
G03X14312900Y-12039600I-38100J0D01*
G01*
X14668500Y-4546600D02*
G75*
G03X14668500Y-4546600I-38100J0D01*
G01*
X14668500Y-5308600D02*
G75*
G03X14668500Y-5308600I-38100J0D01*
G01*
X15322550Y-12357100D02*
G75*
G03X15322550Y-12357100I-38100J0D01*
G01*
X15322550Y-13119100D02*
G75*
G03X15322550Y-13119100I-38100J0D01*
G01*
X15328900Y-5816600D02*
G75*
G03X15328900Y-5816600I-38100J0D01*
G01*
X15328900Y-6578600D02*
G75*
G03X15328900Y-6578600I-38100J0D01*
G01*
X15328900Y-6908800D02*
G75*
G03X15328900Y-6908800I-38100J0D01*
G01*
X15328900Y-7670800D02*
G75*
G03X15328900Y-7670800I-38100J0D01*
G01*
X15328900Y-8001000D02*
G75*
G03X15328900Y-8001000I-38100J0D01*
G01*
X15328900Y-8763000D02*
G75*
G03X15328900Y-8763000I-38100J0D01*
G01*
X15328900Y-9093200D02*
G75*
G03X15328900Y-9093200I-38100J0D01*
G01*
X15328900Y-9855200D02*
G75*
G03X15328900Y-9855200I-38100J0D01*
G01*
X15328900Y-10185400D02*
G75*
G03X15328900Y-10185400I-38100J0D01*
G01*
X15328900Y-10947400D02*
G75*
G03X15328900Y-10947400I-38100J0D01*
G01*
X15328900Y-11277600D02*
G75*
G03X15328900Y-11277600I-38100J0D01*
G01*
X15328900Y-12039600D02*
G75*
G03X15328900Y-12039600I-38100J0D01*
G01*
X15684500Y-4546600D02*
G75*
G03X15684500Y-4546600I-38100J0D01*
G01*
X15684500Y-5308600D02*
G75*
G03X15684500Y-5308600I-38100J0D01*
G01*
X15938500Y-4546600D02*
G75*
G03X15938500Y-4546600I-38100J0D01*
G01*
X15938500Y-5308600D02*
G75*
G03X15938500Y-5308600I-38100J0D01*
G01*
X17252950Y-12331700D02*
G75*
G03X17252950Y-12331700I-38100J0D01*
G01*
X17252950Y-13093700D02*
G75*
G03X17252950Y-13093700I-38100J0D01*
G01*
X17818100Y-5816600D02*
G75*
G03X17818100Y-5816600I-38100J0D01*
G01*
X17818100Y-6578600D02*
G75*
G03X17818100Y-6578600I-38100J0D01*
G01*
X17818100Y-6908800D02*
G75*
G03X17818100Y-6908800I-38100J0D01*
G01*
X17818100Y-7670800D02*
G75*
G03X17818100Y-7670800I-38100J0D01*
G01*
X17818100Y-8001000D02*
G75*
G03X17818100Y-8001000I-38100J0D01*
G01*
X17818100Y-8763000D02*
G75*
G03X17818100Y-8763000I-38100J0D01*
G01*
X17818100Y-9093200D02*
G75*
G03X17818100Y-9093200I-38100J0D01*
G01*
X17818100Y-9855200D02*
G75*
G03X17818100Y-9855200I-38100J0D01*
G01*
X17818100Y-10185400D02*
G75*
G03X17818100Y-10185400I-38100J0D01*
G01*
X17818100Y-10947400D02*
G75*
G03X17818100Y-10947400I-38100J0D01*
G01*
X17818100Y-11252200D02*
G75*
G03X17818100Y-11252200I-38100J0D01*
G01*
X17818100Y-12014200D02*
G75*
G03X17818100Y-12014200I-38100J0D01*
G01*
X18268950Y-12331700D02*
G75*
G03X18268950Y-12331700I-38100J0D01*
G01*
X18268950Y-13093700D02*
G75*
G03X18268950Y-13093700I-38100J0D01*
G01*
X18522950Y-12331700D02*
G75*
G03X18522950Y-12331700I-38100J0D01*
G01*
X18522950Y-13093700D02*
G75*
G03X18522950Y-13093700I-38100J0D01*
G01*
X18834100Y-5816600D02*
G75*
G03X18834100Y-5816600I-38100J0D01*
G01*
X18834100Y-6578600D02*
G75*
G03X18834100Y-6578600I-38100J0D01*
G01*
X18834100Y-6908800D02*
G75*
G03X18834100Y-6908800I-38100J0D01*
G01*
X18834100Y-7670800D02*
G75*
G03X18834100Y-7670800I-38100J0D01*
G01*
X18834100Y-8001000D02*
G75*
G03X18834100Y-8001000I-38100J0D01*
G01*
X18834100Y-8763000D02*
G75*
G03X18834100Y-8763000I-38100J0D01*
G01*
X18834100Y-9093200D02*
G75*
G03X18834100Y-9093200I-38100J0D01*
G01*
X18834100Y-9855200D02*
G75*
G03X18834100Y-9855200I-38100J0D01*
G01*
X18834100Y-10185400D02*
G75*
G03X18834100Y-10185400I-38100J0D01*
G01*
X18834100Y-10947400D02*
G75*
G03X18834100Y-10947400I-38100J0D01*
G01*
X18834100Y-11252200D02*
G75*
G03X18834100Y-11252200I-38100J0D01*
G01*
X18834100Y-12014200D02*
G75*
G03X18834100Y-12014200I-38100J0D01*
G01*
X19088100Y-5816600D02*
G75*
G03X19088100Y-5816600I-38100J0D01*
G01*
X19088100Y-6578600D02*
G75*
G03X19088100Y-6578600I-38100J0D01*
G01*
X19088100Y-6908800D02*
G75*
G03X19088100Y-6908800I-38100J0D01*
G01*
X19088100Y-7670800D02*
G75*
G03X19088100Y-7670800I-38100J0D01*
G01*
X19088100Y-8001000D02*
G75*
G03X19088100Y-8001000I-38100J0D01*
G01*
X19088100Y-8763000D02*
G75*
G03X19088100Y-8763000I-38100J0D01*
G01*
X19088100Y-9093200D02*
G75*
G03X19088100Y-9093200I-38100J0D01*
G01*
X19088100Y-9855200D02*
G75*
G03X19088100Y-9855200I-38100J0D01*
G01*
X19088100Y-10185400D02*
G75*
G03X19088100Y-10185400I-38100J0D01*
G01*
X19088100Y-10947400D02*
G75*
G03X19088100Y-10947400I-38100J0D01*
G01*
X19088100Y-11252200D02*
G75*
G03X19088100Y-11252200I-38100J0D01*
G01*
X19088100Y-12014200D02*
G75*
G03X19088100Y-12014200I-38100J0D01*
G01*
X13690854Y-4709795D02*
X13690854Y-4789805D01*
X13650849Y-4749800D02*
X13730859Y-4749800D01*
X14350746Y-4709795D02*
X14350746Y-4789805D01*
X14310741Y-4749800D02*
X14390751Y-4749800D01*
X12182637Y-9350537D02*
X12182637Y-9293063D01*
X12125163Y-9293063D01*
X12125163Y-9350537D01*
X12182637Y-9350537D01*
X12436637Y-9350537D02*
X12436637Y-9293063D01*
X12379163Y-9293063D01*
X12379163Y-9350537D01*
X12436637Y-9350537D01*
X12690637Y-9350537D02*
X12690637Y-9293063D01*
X12633163Y-9293063D01*
X12633163Y-9350537D01*
X12690637Y-9350537D01*
X18422400Y-4999000D02*
X18468400Y-4953000D01*
X18422400Y-4907000D01*
X18376400Y-4953000D01*
X18422400Y-4999000D01*
X12268962Y-6604762D02*
X12369038Y-6704838D01*
X12369038Y-6604762D02*
X12268962Y-6704838D01*
X12369038Y-6654800D02*
G75*
G03X12369038Y-6654800I-50038J0D01*
G01*
X12522962Y-6604762D02*
X12623038Y-6704838D01*
X12623038Y-6604762D02*
X12522962Y-6704838D01*
X12623038Y-6654800D02*
G75*
G03X12623038Y-6654800I-50038J0D01*
G01*
X12776962Y-6604762D02*
X12877038Y-6704838D01*
X12877038Y-6604762D02*
X12776962Y-6704838D01*
X12877038Y-6654800D02*
G75*
G03X12877038Y-6654800I-50038J0D01*
G01*
X15545562Y-5766562D02*
X15645638Y-5866638D01*
X15645638Y-5766562D02*
X15545562Y-5866638D01*
X15645638Y-5816600D02*
G75*
G03X15645638Y-5816600I-50038J0D01*
G01*
X15545562Y-6858762D02*
X15645638Y-6958838D01*
X15645638Y-6858762D02*
X15545562Y-6958838D01*
X15645638Y-6908800D02*
G75*
G03X15645638Y-6908800I-50038J0D01*
G01*
X15545562Y-7950962D02*
X15645638Y-8051038D01*
X15645638Y-7950962D02*
X15545562Y-8051038D01*
X15645638Y-8001000D02*
G75*
G03X15645638Y-8001000I-50038J0D01*
G01*
X15545562Y-9043162D02*
X15645638Y-9143238D01*
X15645638Y-9043162D02*
X15545562Y-9143238D01*
X15645638Y-9093200D02*
G75*
G03X15645638Y-9093200I-50038J0D01*
G01*
X15545562Y-10135362D02*
X15645638Y-10235438D01*
X15645638Y-10135362D02*
X15545562Y-10235438D01*
X15645638Y-10185400D02*
G75*
G03X15645638Y-10185400I-50038J0D01*
G01*
X15545562Y-11227562D02*
X15645638Y-11327638D01*
X15645638Y-11227562D02*
X15545562Y-11327638D01*
X15645638Y-11277600D02*
G75*
G03X15645638Y-11277600I-50038J0D01*
G01*
X15799562Y-6528562D02*
X15899638Y-6628638D01*
X15899638Y-6528562D02*
X15799562Y-6628638D01*
X15899638Y-6578600D02*
G75*
G03X15899638Y-6578600I-50038J0D01*
G01*
X15799562Y-7620762D02*
X15899638Y-7720838D01*
X15899638Y-7620762D02*
X15799562Y-7720838D01*
X15899638Y-7670800D02*
G75*
G03X15899638Y-7670800I-50038J0D01*
G01*
X15799562Y-8712962D02*
X15899638Y-8813038D01*
X15899638Y-8712962D02*
X15799562Y-8813038D01*
X15899638Y-8763000D02*
G75*
G03X15899638Y-8763000I-50038J0D01*
G01*
X15799562Y-9805162D02*
X15899638Y-9905238D01*
X15899638Y-9805162D02*
X15799562Y-9905238D01*
X15899638Y-9855200D02*
G75*
G03X15899638Y-9855200I-50038J0D01*
G01*
X15799562Y-10897362D02*
X15899638Y-10997438D01*
X15899638Y-10897362D02*
X15799562Y-10997438D01*
X15899638Y-10947400D02*
G75*
G03X15899638Y-10947400I-50038J0D01*
G01*
X15799562Y-11989562D02*
X15899638Y-12089638D01*
X15899638Y-11989562D02*
X15799562Y-12089638D01*
X15899638Y-12039600D02*
G75*
G03X15899638Y-12039600I-50038J0D01*
G01*
X16104362Y-6299962D02*
X16204438Y-6400038D01*
X16204438Y-6299962D02*
X16104362Y-6400038D01*
X16204438Y-6350000D02*
G75*
G03X16204438Y-6350000I-50038J0D01*
G01*
X16104362Y-7315962D02*
X16204438Y-7416038D01*
X16204438Y-7315962D02*
X16104362Y-7416038D01*
X16204438Y-7366000D02*
G75*
G03X16204438Y-7366000I-50038J0D01*
G01*
X16104362Y-8433562D02*
X16204438Y-8533638D01*
X16204438Y-8433562D02*
X16104362Y-8533638D01*
X16204438Y-8483600D02*
G75*
G03X16204438Y-8483600I-50038J0D01*
G01*
X16104362Y-9525762D02*
X16204438Y-9625838D01*
X16204438Y-9525762D02*
X16104362Y-9625838D01*
X16204438Y-9575800D02*
G75*
G03X16204438Y-9575800I-50038J0D01*
G01*
X16104362Y-10617962D02*
X16204438Y-10718038D01*
X16204438Y-10617962D02*
X16104362Y-10718038D01*
X16204438Y-10668000D02*
G75*
G03X16204438Y-10668000I-50038J0D01*
G01*
X16104362Y-11710162D02*
X16204438Y-11810238D01*
X16204438Y-11710162D02*
X16104362Y-11810238D01*
X16204438Y-11760200D02*
G75*
G03X16204438Y-11760200I-50038J0D01*
G01*
X16866362Y-6045962D02*
X16966438Y-6146038D01*
X16966438Y-6045962D02*
X16866362Y-6146038D01*
X16966438Y-6096000D02*
G75*
G03X16966438Y-6096000I-50038J0D01*
G01*
X16866362Y-7061962D02*
X16966438Y-7162038D01*
X16966438Y-7061962D02*
X16866362Y-7162038D01*
X16966438Y-7112000D02*
G75*
G03X16966438Y-7112000I-50038J0D01*
G01*
X16866362Y-8179562D02*
X16966438Y-8279638D01*
X16966438Y-8179562D02*
X16866362Y-8279638D01*
X16966438Y-8229600D02*
G75*
G03X16966438Y-8229600I-50038J0D01*
G01*
X16866362Y-9271762D02*
X16966438Y-9371838D01*
X16966438Y-9271762D02*
X16866362Y-9371838D01*
X16966438Y-9321800D02*
G75*
G03X16966438Y-9321800I-50038J0D01*
G01*
X16866362Y-10363962D02*
X16966438Y-10464038D01*
X16966438Y-10363962D02*
X16866362Y-10464038D01*
X16966438Y-10414000D02*
G75*
G03X16966438Y-10414000I-50038J0D01*
G01*
X16866362Y-11456162D02*
X16966438Y-11556238D01*
X16966438Y-11456162D02*
X16866362Y-11556238D01*
X16966438Y-11506200D02*
G75*
G03X16966438Y-11506200I-50038J0D01*
G01*
X17171162Y-5766562D02*
X17271238Y-5866638D01*
X17271238Y-5766562D02*
X17171162Y-5866638D01*
X17271238Y-5816600D02*
G75*
G03X17271238Y-5816600I-50038J0D01*
G01*
X17171162Y-6858762D02*
X17271238Y-6958838D01*
X17271238Y-6858762D02*
X17171162Y-6958838D01*
X17271238Y-6908800D02*
G75*
G03X17271238Y-6908800I-50038J0D01*
G01*
X17171162Y-7950962D02*
X17271238Y-8051038D01*
X17271238Y-7950962D02*
X17171162Y-8051038D01*
X17271238Y-8001000D02*
G75*
G03X17271238Y-8001000I-50038J0D01*
G01*
X17171162Y-9043162D02*
X17271238Y-9143238D01*
X17271238Y-9043162D02*
X17171162Y-9143238D01*
X17271238Y-9093200D02*
G75*
G03X17271238Y-9093200I-50038J0D01*
G01*
X17171162Y-10135362D02*
X17271238Y-10235438D01*
X17271238Y-10135362D02*
X17171162Y-10235438D01*
X17271238Y-10185400D02*
G75*
G03X17271238Y-10185400I-50038J0D01*
G01*
X17171162Y-11202162D02*
X17271238Y-11302238D01*
X17271238Y-11202162D02*
X17171162Y-11302238D01*
X17271238Y-11252200D02*
G75*
G03X17271238Y-11252200I-50038J0D01*
G01*
X17425162Y-6528562D02*
X17525238Y-6628638D01*
X17525238Y-6528562D02*
X17425162Y-6628638D01*
X17525238Y-6578600D02*
G75*
G03X17525238Y-6578600I-50038J0D01*
G01*
X17425162Y-7620762D02*
X17525238Y-7720838D01*
X17525238Y-7620762D02*
X17425162Y-7720838D01*
X17525238Y-7670800D02*
G75*
G03X17525238Y-7670800I-50038J0D01*
G01*
X17425162Y-8712962D02*
X17525238Y-8813038D01*
X17525238Y-8712962D02*
X17425162Y-8813038D01*
X17525238Y-8763000D02*
G75*
G03X17525238Y-8763000I-50038J0D01*
G01*
X17425162Y-9805162D02*
X17525238Y-9905238D01*
X17525238Y-9805162D02*
X17425162Y-9905238D01*
X17525238Y-9855200D02*
G75*
G03X17525238Y-9855200I-50038J0D01*
G01*
X17425162Y-10897362D02*
X17525238Y-10997438D01*
X17525238Y-10897362D02*
X17425162Y-10997438D01*
X17525238Y-10947400D02*
G75*
G03X17525238Y-10947400I-50038J0D01*
G01*
X17425162Y-11964162D02*
X17525238Y-12064238D01*
X17525238Y-11964162D02*
X17425162Y-12064238D01*
X17525238Y-12014200D02*
G75*
G03X17525238Y-12014200I-50038J0D01*
G01*
X11728450Y-9893300D02*
X11830050Y-9994900D01*
X11830050Y-9893300D02*
X11728450Y-9994900D01*
X11779250Y-9893300D02*
X11779250Y-9994900D01*
X11728450Y-9944100D02*
X11830050Y-9944100D01*
X11728450Y-10147300D02*
X11830050Y-10248900D01*
X11830050Y-10147300D02*
X11728450Y-10248900D01*
X11779250Y-10147300D02*
X11779250Y-10248900D01*
X11728450Y-10198100D02*
X11830050Y-10198100D01*
X11753850Y-4679950D02*
X11855450Y-4781550D01*
X11855450Y-4679950D02*
X11753850Y-4781550D01*
X11804650Y-4679950D02*
X11804650Y-4781550D01*
X11753850Y-4730750D02*
X11855450Y-4730750D01*
X11753850Y-4933950D02*
X11855450Y-5035550D01*
X11855450Y-4933950D02*
X11753850Y-5035550D01*
X11804650Y-4933950D02*
X11804650Y-5035550D01*
X11753850Y-4984750D02*
X11855450Y-4984750D01*
X11861800Y-10845800D02*
X11963400Y-10947400D01*
X11963400Y-10845800D02*
X11861800Y-10947400D01*
X11912600Y-10845800D02*
X11912600Y-10947400D01*
X11861800Y-10896600D02*
X11963400Y-10896600D01*
X11861800Y-11099800D02*
X11963400Y-11201400D01*
X11963400Y-11099800D02*
X11861800Y-11201400D01*
X11912600Y-11099800D02*
X11912600Y-11201400D01*
X11861800Y-11150600D02*
X11963400Y-11150600D01*
X11861800Y-11353800D02*
X11963400Y-11455400D01*
X11963400Y-11353800D02*
X11861800Y-11455400D01*
X11912600Y-11353800D02*
X11912600Y-11455400D01*
X11861800Y-11404600D02*
X11963400Y-11404600D01*
X11861800Y-11607800D02*
X11963400Y-11709400D01*
X11963400Y-11607800D02*
X11861800Y-11709400D01*
X11912600Y-11607800D02*
X11912600Y-11709400D01*
X11861800Y-11658600D02*
X11963400Y-11658600D01*
X11861800Y-11861800D02*
X11963400Y-11963400D01*
X11963400Y-11861800D02*
X11861800Y-11963400D01*
X11912600Y-11861800D02*
X11912600Y-11963400D01*
X11861800Y-11912600D02*
X11963400Y-11912600D01*
X11861800Y-12115800D02*
X11963400Y-12217400D01*
X11963400Y-12115800D02*
X11861800Y-12217400D01*
X11912600Y-12115800D02*
X11912600Y-12217400D01*
X11861800Y-12166600D02*
X11963400Y-12166600D01*
X11861800Y-12369800D02*
X11963400Y-12471400D01*
X11963400Y-12369800D02*
X11861800Y-12471400D01*
X11912600Y-12369800D02*
X11912600Y-12471400D01*
X11861800Y-12420600D02*
X11963400Y-12420600D01*
X12115800Y-10845800D02*
X12217400Y-10947400D01*
X12217400Y-10845800D02*
X12115800Y-10947400D01*
X12166600Y-10845800D02*
X12166600Y-10947400D01*
X12115800Y-10896600D02*
X12217400Y-10896600D01*
X12115800Y-11099800D02*
X12217400Y-11201400D01*
X12217400Y-11099800D02*
X12115800Y-11201400D01*
X12166600Y-11099800D02*
X12166600Y-11201400D01*
X12115800Y-11150600D02*
X12217400Y-11150600D01*
X12115800Y-11353800D02*
X12217400Y-11455400D01*
X12217400Y-11353800D02*
X12115800Y-11455400D01*
X12166600Y-11353800D02*
X12166600Y-11455400D01*
X12115800Y-11404600D02*
X12217400Y-11404600D01*
X12115800Y-11607800D02*
X12217400Y-11709400D01*
X12217400Y-11607800D02*
X12115800Y-11709400D01*
X12166600Y-11607800D02*
X12166600Y-11709400D01*
X12115800Y-11658600D02*
X12217400Y-11658600D01*
X12115800Y-11861800D02*
X12217400Y-11963400D01*
X12217400Y-11861800D02*
X12115800Y-11963400D01*
X12166600Y-11861800D02*
X12166600Y-11963400D01*
X12115800Y-11912600D02*
X12217400Y-11912600D01*
X12115800Y-12115800D02*
X12217400Y-12217400D01*
X12217400Y-12115800D02*
X12115800Y-12217400D01*
X12166600Y-12115800D02*
X12166600Y-12217400D01*
X12115800Y-12166600D02*
X12217400Y-12166600D01*
X12115800Y-12369800D02*
X12217400Y-12471400D01*
X12217400Y-12369800D02*
X12115800Y-12471400D01*
X12166600Y-12369800D02*
X12166600Y-12471400D01*
X12115800Y-12420600D02*
X12217400Y-12420600D01*
X12347600Y-5892800D02*
X12449200Y-5994400D01*
X12449200Y-5892800D02*
X12347600Y-5994400D01*
X12398400Y-5892800D02*
X12398400Y-5994400D01*
X12347600Y-5943600D02*
X12449200Y-5943600D01*
X13147600Y-5892800D02*
X13249200Y-5994400D01*
X13249200Y-5892800D02*
X13147600Y-5994400D01*
X13198400Y-5892800D02*
X13198400Y-5994400D01*
X13147600Y-5943600D02*
X13249200Y-5943600D01*
X13595350Y-4171950D02*
X13696950Y-4273550D01*
X13696950Y-4171950D02*
X13595350Y-4273550D01*
X13646150Y-4171950D02*
X13646150Y-4273550D01*
X13595350Y-4222750D02*
X13696950Y-4222750D01*
X13849350Y-4171950D02*
X13950950Y-4273550D01*
X13950950Y-4171950D02*
X13849350Y-4273550D01*
X13900150Y-4171950D02*
X13900150Y-4273550D01*
X13849350Y-4222750D02*
X13950950Y-4222750D01*
X16141700Y-4584700D02*
X16243300Y-4686300D01*
X16243300Y-4584700D02*
X16141700Y-4686300D01*
X16192500Y-4584700D02*
X16192500Y-4686300D01*
X16141700Y-4635500D02*
X16243300Y-4635500D01*
X16141700Y-4838700D02*
X16243300Y-4940300D01*
X16243300Y-4838700D02*
X16141700Y-4940300D01*
X16192500Y-4838700D02*
X16192500Y-4940300D01*
X16141700Y-4889500D02*
X16243300Y-4889500D01*
X11923400Y-5868600D02*
X12073400Y-6018600D01*
X12073400Y-5868600D02*
X11923400Y-6018600D01*
X12051433Y-5996633D02*
X12051433Y-5890566D01*
X11945366Y-5890566D01*
X11945366Y-5996633D01*
X12051433Y-5996633D01*
X12723400Y-5868600D02*
X12873400Y-6018600D01*
X12873400Y-5868600D02*
X12723400Y-6018600D01*
X12851433Y-5996633D02*
X12851433Y-5890566D01*
X12745366Y-5890566D01*
X12745366Y-5996633D01*
X12851433Y-5996633D01*
X19112400Y-4483000D02*
X19292400Y-4663000D01*
X19292400Y-4483000D02*
X19112400Y-4663000D01*
X19202400Y-4663000D02*
X19292400Y-4573000D01*
X19202400Y-4483000D01*
X19112400Y-4573000D01*
X19202400Y-4663000D01*
X19112400Y-5243000D02*
X19292400Y-5423000D01*
X19292400Y-5243000D02*
X19112400Y-5423000D01*
X19202400Y-5423000D02*
X19292400Y-5333000D01*
X19202400Y-5243000D01*
X19112400Y-5333000D01*
X19202400Y-5423000D01*
X11912600Y-3716600D02*
X11912600Y-4106600D01*
X11717600Y-3911600D02*
X12107600Y-3911600D01*
X12107600Y-3911600D02*
G75*
G03X12107600Y-3911600I-195000J0D01*
G01*
X11912600Y-12911400D02*
X11912600Y-13301400D01*
X11717600Y-13106400D02*
X12107600Y-13106400D01*
X12107600Y-13106400D02*
G75*
G03X12107600Y-13106400I-195000J0D01*
G01*
X19100800Y-3716600D02*
X19100800Y-4106600D01*
X18905800Y-3911600D02*
X19295800Y-3911600D01*
X19295800Y-3911600D02*
G75*
G03X19295800Y-3911600I-195000J0D01*
G01*
X19100800Y-12911400D02*
X19100800Y-13301400D01*
X18905800Y-13106400D02*
X19295800Y-13106400D01*
X19295800Y-13106400D02*
G75*
G03X19295800Y-13106400I-195000J0D01*
G01*
X12810516Y-8619516D02*
X12810516Y-8195284D01*
X12386284Y-8195284D01*
X12386284Y-8619516D01*
X12810516Y-8619516D01*
X12898374Y-8407400D02*
G75*
G03X12898374Y-8407400I-299974J0D01*
G01*
D13*
X11766428Y-13970714D02*
X11766428Y-13670714D01*
X11837857Y-13670714D01*
X11880714Y-13685000D01*
X11909286Y-13713571D01*
X11923571Y-13742143D01*
X11937857Y-13799286D01*
X11937857Y-13842143D01*
X11923571Y-13899286D01*
X11909286Y-13927857D01*
X11880714Y-13956429D01*
X11837857Y-13970714D01*
X11766428Y-13970714D01*
X12066428Y-13970714D02*
X12066428Y-13770714D01*
X12066428Y-13827857D02*
X12080714Y-13799286D01*
X12095000Y-13785000D01*
X12123571Y-13770714D01*
X12152143Y-13770714D01*
X12252143Y-13970714D02*
X12252143Y-13770714D01*
X12252143Y-13670714D02*
X12237857Y-13685000D01*
X12252143Y-13699286D01*
X12266428Y-13685000D01*
X12252143Y-13670714D01*
X12252143Y-13699286D01*
X12437857Y-13970714D02*
X12409286Y-13956429D01*
X12395000Y-13927857D01*
X12395000Y-13670714D01*
X12595000Y-13970714D02*
X12566428Y-13956429D01*
X12552143Y-13927857D01*
X12552143Y-13670714D01*
X12937857Y-13970714D02*
X12937857Y-13670714D01*
X13037857Y-13885000D01*
X13137857Y-13670714D01*
X13137857Y-13970714D01*
X13409286Y-13970714D02*
X13409286Y-13813571D01*
X13395000Y-13785000D01*
X13366428Y-13770714D01*
X13309286Y-13770714D01*
X13280714Y-13785000D01*
X13409286Y-13956429D02*
X13380714Y-13970714D01*
X13309286Y-13970714D01*
X13280714Y-13956429D01*
X13266428Y-13927857D01*
X13266428Y-13899286D01*
X13280714Y-13870714D01*
X13309286Y-13856429D01*
X13380714Y-13856429D01*
X13409286Y-13842143D01*
X13552143Y-13770714D02*
X13552143Y-14070714D01*
X13552143Y-13785000D02*
X13580714Y-13770714D01*
X13637857Y-13770714D01*
X13666428Y-13785000D01*
X13680714Y-13799286D01*
X13695000Y-13827857D01*
X13695000Y-13913571D01*
X13680714Y-13942143D01*
X13666428Y-13956429D01*
X13637857Y-13970714D01*
X13580714Y-13970714D01*
X13552143Y-13956429D01*
X13823571Y-13942143D02*
X13837857Y-13956429D01*
X13823571Y-13970714D01*
X13809286Y-13956429D01*
X13823571Y-13942143D01*
X13823571Y-13970714D01*
X13823571Y-13785000D02*
X13837857Y-13799286D01*
X13823571Y-13813571D01*
X13809286Y-13799286D01*
X13823571Y-13785000D01*
X13823571Y-13813571D01*
X11431500Y-14433250D02*
X11495000Y-14496750D01*
X11495000Y-14433250D02*
X11431500Y-14496750D01*
X11823571Y-14300714D02*
X11852143Y-14300714D01*
X11880714Y-14315000D01*
X11895000Y-14329286D01*
X11909286Y-14357857D01*
X11923571Y-14415000D01*
X11923571Y-14486429D01*
X11909286Y-14543571D01*
X11895000Y-14572143D01*
X11880714Y-14586429D01*
X11852143Y-14600714D01*
X11823571Y-14600714D01*
X11795000Y-14586429D01*
X11780714Y-14572143D01*
X11766428Y-14543571D01*
X11752143Y-14486429D01*
X11752143Y-14415000D01*
X11766428Y-14357857D01*
X11780714Y-14329286D01*
X11795000Y-14315000D01*
X11823571Y-14300714D01*
X12052143Y-14572143D02*
X12066428Y-14586429D01*
X12052143Y-14600714D01*
X12037857Y-14586429D01*
X12052143Y-14572143D01*
X12052143Y-14600714D01*
X12323571Y-14300714D02*
X12266428Y-14300714D01*
X12237857Y-14315000D01*
X12223571Y-14329286D01*
X12195000Y-14372143D01*
X12180714Y-14429286D01*
X12180714Y-14543571D01*
X12195000Y-14572143D01*
X12209286Y-14586429D01*
X12237857Y-14600714D01*
X12295000Y-14600714D01*
X12323571Y-14586429D01*
X12337857Y-14572143D01*
X12352143Y-14543571D01*
X12352143Y-14472143D01*
X12337857Y-14443571D01*
X12323571Y-14429286D01*
X12295000Y-14415000D01*
X12237857Y-14415000D01*
X12209286Y-14429286D01*
X12195000Y-14443571D01*
X12180714Y-14472143D01*
X12609286Y-14400714D02*
X12609286Y-14600714D01*
X12537857Y-14286429D02*
X12466428Y-14500714D01*
X12652143Y-14500714D01*
X12766428Y-14600714D02*
X12766428Y-14400714D01*
X12766428Y-14429286D02*
X12780714Y-14415000D01*
X12809286Y-14400714D01*
X12852143Y-14400714D01*
X12880714Y-14415000D01*
X12895000Y-14443571D01*
X12895000Y-14600714D01*
X12895000Y-14443571D02*
X12909286Y-14415000D01*
X12937857Y-14400714D01*
X12980714Y-14400714D01*
X13009286Y-14415000D01*
X13023571Y-14443571D01*
X13023571Y-14600714D01*
X13166428Y-14600714D02*
X13166428Y-14400714D01*
X13166428Y-14429286D02*
X13180714Y-14415000D01*
X13209286Y-14400714D01*
X13252143Y-14400714D01*
X13280714Y-14415000D01*
X13295000Y-14443571D01*
X13295000Y-14600714D01*
X13295000Y-14443571D02*
X13309286Y-14415000D01*
X13337857Y-14400714D01*
X13380714Y-14400714D01*
X13409286Y-14415000D01*
X13423571Y-14443571D01*
X13423571Y-14600714D01*
X14009286Y-14286429D02*
X13752143Y-14672143D01*
X14395000Y-14300714D02*
X14423571Y-14300714D01*
X14452143Y-14315000D01*
X14466428Y-14329286D01*
X14480714Y-14357857D01*
X14495000Y-14415000D01*
X14495000Y-14486429D01*
X14480714Y-14543571D01*
X14466428Y-14572143D01*
X14452143Y-14586429D01*
X14423571Y-14600714D01*
X14395000Y-14600714D01*
X14366428Y-14586429D01*
X14352143Y-14572143D01*
X14337857Y-14543571D01*
X14323571Y-14486429D01*
X14323571Y-14415000D01*
X14337857Y-14357857D01*
X14352143Y-14329286D01*
X14366428Y-14315000D01*
X14395000Y-14300714D01*
X14623571Y-14572143D02*
X14637857Y-14586429D01*
X14623571Y-14600714D01*
X14609286Y-14586429D01*
X14623571Y-14572143D01*
X14623571Y-14600714D01*
X14823571Y-14300714D02*
X14852143Y-14300714D01*
X14880714Y-14315000D01*
X14895000Y-14329286D01*
X14909285Y-14357857D01*
X14923571Y-14415000D01*
X14923571Y-14486429D01*
X14909285Y-14543571D01*
X14895000Y-14572143D01*
X14880714Y-14586429D01*
X14852143Y-14600714D01*
X14823571Y-14600714D01*
X14795000Y-14586429D01*
X14780714Y-14572143D01*
X14766428Y-14543571D01*
X14752143Y-14486429D01*
X14752143Y-14415000D01*
X14766428Y-14357857D01*
X14780714Y-14329286D01*
X14795000Y-14315000D01*
X14823571Y-14300714D01*
X15037857Y-14329286D02*
X15052143Y-14315000D01*
X15080714Y-14300714D01*
X15152143Y-14300714D01*
X15180714Y-14315000D01*
X15195000Y-14329286D01*
X15209285Y-14357857D01*
X15209285Y-14386429D01*
X15195000Y-14429286D01*
X15023571Y-14600714D01*
X15209285Y-14600714D01*
X15480714Y-14300714D02*
X15337857Y-14300714D01*
X15323571Y-14443571D01*
X15337857Y-14429286D01*
X15366428Y-14415000D01*
X15437857Y-14415000D01*
X15466428Y-14429286D01*
X15480714Y-14443571D01*
X15495000Y-14472143D01*
X15495000Y-14543571D01*
X15480714Y-14572143D01*
X15466428Y-14586429D01*
X15437857Y-14600714D01*
X15366428Y-14600714D01*
X15337857Y-14586429D01*
X15323571Y-14572143D01*
X15609286Y-14300714D02*
X15609286Y-14357857D01*
X15723571Y-14300714D02*
X15723571Y-14357857D01*
X16166428Y-14715000D02*
X16152143Y-14700714D01*
X16123571Y-14657857D01*
X16109285Y-14629286D01*
X16095000Y-14586429D01*
X16080714Y-14515000D01*
X16080714Y-14457857D01*
X16095000Y-14386429D01*
X16109285Y-14343571D01*
X16123571Y-14315000D01*
X16152143Y-14272143D01*
X16166428Y-14257857D01*
X16409285Y-14400714D02*
X16409285Y-14600714D01*
X16337857Y-14286429D02*
X16266428Y-14500714D01*
X16452143Y-14500714D01*
X16552143Y-14329286D02*
X16566428Y-14315000D01*
X16595000Y-14300714D01*
X16666428Y-14300714D01*
X16695000Y-14315000D01*
X16709285Y-14329286D01*
X16723571Y-14357857D01*
X16723571Y-14386429D01*
X16709285Y-14429286D01*
X16537857Y-14600714D01*
X16723571Y-14600714D01*
X17080714Y-14600714D02*
X17080714Y-14300714D01*
X17209286Y-14600714D02*
X17209286Y-14443571D01*
X17195000Y-14415000D01*
X17166428Y-14400714D01*
X17123571Y-14400714D01*
X17095000Y-14415000D01*
X17080714Y-14429286D01*
X17395000Y-14600714D02*
X17366428Y-14586429D01*
X17352143Y-14572143D01*
X17337857Y-14543571D01*
X17337857Y-14457857D01*
X17352143Y-14429286D01*
X17366428Y-14415000D01*
X17395000Y-14400714D01*
X17437857Y-14400714D01*
X17466428Y-14415000D01*
X17480714Y-14429286D01*
X17495000Y-14457857D01*
X17495000Y-14543571D01*
X17480714Y-14572143D01*
X17466428Y-14586429D01*
X17437857Y-14600714D01*
X17395000Y-14600714D01*
X17666428Y-14600714D02*
X17637857Y-14586429D01*
X17623571Y-14557857D01*
X17623571Y-14300714D01*
X17895000Y-14586429D02*
X17866429Y-14600714D01*
X17809286Y-14600714D01*
X17780714Y-14586429D01*
X17766429Y-14557857D01*
X17766429Y-14443571D01*
X17780714Y-14415000D01*
X17809286Y-14400714D01*
X17866429Y-14400714D01*
X17895000Y-14415000D01*
X17909286Y-14443571D01*
X17909286Y-14472143D01*
X17766429Y-14500714D01*
X18023571Y-14586429D02*
X18052143Y-14600714D01*
X18109286Y-14600714D01*
X18137857Y-14586429D01*
X18152143Y-14557857D01*
X18152143Y-14543571D01*
X18137857Y-14515000D01*
X18109286Y-14500714D01*
X18066429Y-14500714D01*
X18037857Y-14486429D01*
X18023571Y-14457857D01*
X18023571Y-14443571D01*
X18037857Y-14415000D01*
X18066429Y-14400714D01*
X18109286Y-14400714D01*
X18137857Y-14415000D01*
X18252143Y-14715000D02*
X18266429Y-14700714D01*
X18295000Y-14657857D01*
X18309286Y-14629286D01*
X18323571Y-14586429D01*
X18337857Y-14515000D01*
X18337857Y-14457857D01*
X18323571Y-14386429D01*
X18309286Y-14343571D01*
X18295000Y-14315000D01*
X18266429Y-14272143D01*
X18252143Y-14257857D01*
X11495000Y-14861000D02*
G75*
G03X11495000Y-14861000I-38100J0D01*
G01*
X11823571Y-14696714D02*
X11852143Y-14696714D01*
X11880714Y-14711000D01*
X11895000Y-14725286D01*
X11909286Y-14753857D01*
X11923571Y-14811000D01*
X11923571Y-14882429D01*
X11909286Y-14939571D01*
X11895000Y-14968143D01*
X11880714Y-14982429D01*
X11852143Y-14996714D01*
X11823571Y-14996714D01*
X11795000Y-14982429D01*
X11780714Y-14968143D01*
X11766428Y-14939571D01*
X11752143Y-14882429D01*
X11752143Y-14811000D01*
X11766428Y-14753857D01*
X11780714Y-14725286D01*
X11795000Y-14711000D01*
X11823571Y-14696714D01*
X12052143Y-14968143D02*
X12066428Y-14982429D01*
X12052143Y-14996714D01*
X12037857Y-14982429D01*
X12052143Y-14968143D01*
X12052143Y-14996714D01*
X12166428Y-14696714D02*
X12366428Y-14696714D01*
X12237857Y-14996714D01*
X12609286Y-14696714D02*
X12552143Y-14696714D01*
X12523571Y-14711000D01*
X12509286Y-14725286D01*
X12480714Y-14768143D01*
X12466428Y-14825286D01*
X12466428Y-14939571D01*
X12480714Y-14968143D01*
X12495000Y-14982429D01*
X12523571Y-14996714D01*
X12580714Y-14996714D01*
X12609286Y-14982429D01*
X12623571Y-14968143D01*
X12637857Y-14939571D01*
X12637857Y-14868143D01*
X12623571Y-14839571D01*
X12609286Y-14825286D01*
X12580714Y-14811000D01*
X12523571Y-14811000D01*
X12495000Y-14825286D01*
X12480714Y-14839571D01*
X12466428Y-14868143D01*
X12766428Y-14996714D02*
X12766428Y-14796714D01*
X12766428Y-14825286D02*
X12780714Y-14811000D01*
X12809286Y-14796714D01*
X12852143Y-14796714D01*
X12880714Y-14811000D01*
X12895000Y-14839571D01*
X12895000Y-14996714D01*
X12895000Y-14839571D02*
X12909286Y-14811000D01*
X12937857Y-14796714D01*
X12980714Y-14796714D01*
X13009286Y-14811000D01*
X13023571Y-14839571D01*
X13023571Y-14996714D01*
X13166428Y-14996714D02*
X13166428Y-14796714D01*
X13166428Y-14825286D02*
X13180714Y-14811000D01*
X13209286Y-14796714D01*
X13252143Y-14796714D01*
X13280714Y-14811000D01*
X13295000Y-14839571D01*
X13295000Y-14996714D01*
X13295000Y-14839571D02*
X13309286Y-14811000D01*
X13337857Y-14796714D01*
X13380714Y-14796714D01*
X13409286Y-14811000D01*
X13423571Y-14839571D01*
X13423571Y-14996714D01*
X14009286Y-14682429D02*
X13752143Y-15068143D01*
X14395000Y-14696714D02*
X14423571Y-14696714D01*
X14452143Y-14711000D01*
X14466428Y-14725286D01*
X14480714Y-14753857D01*
X14495000Y-14811000D01*
X14495000Y-14882429D01*
X14480714Y-14939571D01*
X14466428Y-14968143D01*
X14452143Y-14982429D01*
X14423571Y-14996714D01*
X14395000Y-14996714D01*
X14366428Y-14982429D01*
X14352143Y-14968143D01*
X14337857Y-14939571D01*
X14323571Y-14882429D01*
X14323571Y-14811000D01*
X14337857Y-14753857D01*
X14352143Y-14725286D01*
X14366428Y-14711000D01*
X14395000Y-14696714D01*
X14623571Y-14968143D02*
X14637857Y-14982429D01*
X14623571Y-14996714D01*
X14609286Y-14982429D01*
X14623571Y-14968143D01*
X14623571Y-14996714D01*
X14823571Y-14696714D02*
X14852143Y-14696714D01*
X14880714Y-14711000D01*
X14895000Y-14725286D01*
X14909285Y-14753857D01*
X14923571Y-14811000D01*
X14923571Y-14882429D01*
X14909285Y-14939571D01*
X14895000Y-14968143D01*
X14880714Y-14982429D01*
X14852143Y-14996714D01*
X14823571Y-14996714D01*
X14795000Y-14982429D01*
X14780714Y-14968143D01*
X14766428Y-14939571D01*
X14752143Y-14882429D01*
X14752143Y-14811000D01*
X14766428Y-14753857D01*
X14780714Y-14725286D01*
X14795000Y-14711000D01*
X14823571Y-14696714D01*
X15023571Y-14696714D02*
X15209285Y-14696714D01*
X15109285Y-14811000D01*
X15152143Y-14811000D01*
X15180714Y-14825286D01*
X15195000Y-14839571D01*
X15209285Y-14868143D01*
X15209285Y-14939571D01*
X15195000Y-14968143D01*
X15180714Y-14982429D01*
X15152143Y-14996714D01*
X15066428Y-14996714D01*
X15037857Y-14982429D01*
X15023571Y-14968143D01*
X15395000Y-14696714D02*
X15423571Y-14696714D01*
X15452143Y-14711000D01*
X15466428Y-14725286D01*
X15480714Y-14753857D01*
X15495000Y-14811000D01*
X15495000Y-14882429D01*
X15480714Y-14939571D01*
X15466428Y-14968143D01*
X15452143Y-14982429D01*
X15423571Y-14996714D01*
X15395000Y-14996714D01*
X15366428Y-14982429D01*
X15352143Y-14968143D01*
X15337857Y-14939571D01*
X15323571Y-14882429D01*
X15323571Y-14811000D01*
X15337857Y-14753857D01*
X15352143Y-14725286D01*
X15366428Y-14711000D01*
X15395000Y-14696714D01*
X15609286Y-14696714D02*
X15609286Y-14753857D01*
X15723571Y-14696714D02*
X15723571Y-14753857D01*
X16166428Y-15111000D02*
X16152143Y-15096714D01*
X16123571Y-15053857D01*
X16109285Y-15025286D01*
X16095000Y-14982429D01*
X16080714Y-14911000D01*
X16080714Y-14853857D01*
X16095000Y-14782429D01*
X16109285Y-14739571D01*
X16123571Y-14711000D01*
X16152143Y-14668143D01*
X16166428Y-14653857D01*
X16295000Y-14996714D02*
X16352143Y-14996714D01*
X16380714Y-14982429D01*
X16395000Y-14968143D01*
X16423571Y-14925286D01*
X16437857Y-14868143D01*
X16437857Y-14753857D01*
X16423571Y-14725286D01*
X16409285Y-14711000D01*
X16380714Y-14696714D01*
X16323571Y-14696714D01*
X16295000Y-14711000D01*
X16280714Y-14725286D01*
X16266428Y-14753857D01*
X16266428Y-14825286D01*
X16280714Y-14853857D01*
X16295000Y-14868143D01*
X16323571Y-14882429D01*
X16380714Y-14882429D01*
X16409285Y-14868143D01*
X16423571Y-14853857D01*
X16437857Y-14825286D01*
X16623571Y-14696714D02*
X16652143Y-14696714D01*
X16680714Y-14711000D01*
X16695000Y-14725286D01*
X16709285Y-14753857D01*
X16723571Y-14811000D01*
X16723571Y-14882429D01*
X16709285Y-14939571D01*
X16695000Y-14968143D01*
X16680714Y-14982429D01*
X16652143Y-14996714D01*
X16623571Y-14996714D01*
X16595000Y-14982429D01*
X16580714Y-14968143D01*
X16566428Y-14939571D01*
X16552143Y-14882429D01*
X16552143Y-14811000D01*
X16566428Y-14753857D01*
X16580714Y-14725286D01*
X16595000Y-14711000D01*
X16623571Y-14696714D01*
X17080714Y-14996714D02*
X17080714Y-14696714D01*
X17209286Y-14996714D02*
X17209286Y-14839571D01*
X17195000Y-14811000D01*
X17166428Y-14796714D01*
X17123571Y-14796714D01*
X17095000Y-14811000D01*
X17080714Y-14825286D01*
X17395000Y-14996714D02*
X17366428Y-14982429D01*
X17352143Y-14968143D01*
X17337857Y-14939571D01*
X17337857Y-14853857D01*
X17352143Y-14825286D01*
X17366428Y-14811000D01*
X17395000Y-14796714D01*
X17437857Y-14796714D01*
X17466428Y-14811000D01*
X17480714Y-14825286D01*
X17495000Y-14853857D01*
X17495000Y-14939571D01*
X17480714Y-14968143D01*
X17466428Y-14982429D01*
X17437857Y-14996714D01*
X17395000Y-14996714D01*
X17666428Y-14996714D02*
X17637857Y-14982429D01*
X17623571Y-14953857D01*
X17623571Y-14696714D01*
X17895000Y-14982429D02*
X17866429Y-14996714D01*
X17809286Y-14996714D01*
X17780714Y-14982429D01*
X17766429Y-14953857D01*
X17766429Y-14839571D01*
X17780714Y-14811000D01*
X17809286Y-14796714D01*
X17866429Y-14796714D01*
X17895000Y-14811000D01*
X17909286Y-14839571D01*
X17909286Y-14868143D01*
X17766429Y-14896714D01*
X18023571Y-14982429D02*
X18052143Y-14996714D01*
X18109286Y-14996714D01*
X18137857Y-14982429D01*
X18152143Y-14953857D01*
X18152143Y-14939571D01*
X18137857Y-14911000D01*
X18109286Y-14896714D01*
X18066429Y-14896714D01*
X18037857Y-14882429D01*
X18023571Y-14853857D01*
X18023571Y-14839571D01*
X18037857Y-14811000D01*
X18066429Y-14796714D01*
X18109286Y-14796714D01*
X18137857Y-14811000D01*
X18252143Y-15111000D02*
X18266429Y-15096714D01*
X18295000Y-15053857D01*
X18309286Y-15025286D01*
X18323571Y-14982429D01*
X18337857Y-14911000D01*
X18337857Y-14853857D01*
X18323571Y-14782429D01*
X18309286Y-14739571D01*
X18295000Y-14711000D01*
X18266429Y-14668143D01*
X18252143Y-14653857D01*
X11454995Y-15216995D02*
X11454995Y-15297005D01*
X11414990Y-15257000D02*
X11495000Y-15257000D01*
X11823571Y-15092714D02*
X11852143Y-15092714D01*
X11880714Y-15107000D01*
X11895000Y-15121286D01*
X11909286Y-15149857D01*
X11923571Y-15207000D01*
X11923571Y-15278429D01*
X11909286Y-15335571D01*
X11895000Y-15364143D01*
X11880714Y-15378429D01*
X11852143Y-15392714D01*
X11823571Y-15392714D01*
X11795000Y-15378429D01*
X11780714Y-15364143D01*
X11766428Y-15335571D01*
X11752143Y-15278429D01*
X11752143Y-15207000D01*
X11766428Y-15149857D01*
X11780714Y-15121286D01*
X11795000Y-15107000D01*
X11823571Y-15092714D01*
X12052143Y-15364143D02*
X12066428Y-15378429D01*
X12052143Y-15392714D01*
X12037857Y-15378429D01*
X12052143Y-15364143D01*
X12052143Y-15392714D01*
X12237857Y-15221286D02*
X12209286Y-15207000D01*
X12195000Y-15192714D01*
X12180714Y-15164143D01*
X12180714Y-15149857D01*
X12195000Y-15121286D01*
X12209286Y-15107000D01*
X12237857Y-15092714D01*
X12295000Y-15092714D01*
X12323571Y-15107000D01*
X12337857Y-15121286D01*
X12352143Y-15149857D01*
X12352143Y-15164143D01*
X12337857Y-15192714D01*
X12323571Y-15207000D01*
X12295000Y-15221286D01*
X12237857Y-15221286D01*
X12209286Y-15235571D01*
X12195000Y-15249857D01*
X12180714Y-15278429D01*
X12180714Y-15335571D01*
X12195000Y-15364143D01*
X12209286Y-15378429D01*
X12237857Y-15392714D01*
X12295000Y-15392714D01*
X12323571Y-15378429D01*
X12337857Y-15364143D01*
X12352143Y-15335571D01*
X12352143Y-15278429D01*
X12337857Y-15249857D01*
X12323571Y-15235571D01*
X12295000Y-15221286D01*
X12537857Y-15092714D02*
X12566428Y-15092714D01*
X12595000Y-15107000D01*
X12609286Y-15121286D01*
X12623571Y-15149857D01*
X12637857Y-15207000D01*
X12637857Y-15278429D01*
X12623571Y-15335571D01*
X12609286Y-15364143D01*
X12595000Y-15378429D01*
X12566428Y-15392714D01*
X12537857Y-15392714D01*
X12509286Y-15378429D01*
X12495000Y-15364143D01*
X12480714Y-15335571D01*
X12466428Y-15278429D01*
X12466428Y-15207000D01*
X12480714Y-15149857D01*
X12495000Y-15121286D01*
X12509286Y-15107000D01*
X12537857Y-15092714D01*
X12766428Y-15392714D02*
X12766428Y-15192714D01*
X12766428Y-15221286D02*
X12780714Y-15207000D01*
X12809286Y-15192714D01*
X12852143Y-15192714D01*
X12880714Y-15207000D01*
X12895000Y-15235571D01*
X12895000Y-15392714D01*
X12895000Y-15235571D02*
X12909286Y-15207000D01*
X12937857Y-15192714D01*
X12980714Y-15192714D01*
X13009286Y-15207000D01*
X13023571Y-15235571D01*
X13023571Y-15392714D01*
X13166428Y-15392714D02*
X13166428Y-15192714D01*
X13166428Y-15221286D02*
X13180714Y-15207000D01*
X13209286Y-15192714D01*
X13252143Y-15192714D01*
X13280714Y-15207000D01*
X13295000Y-15235571D01*
X13295000Y-15392714D01*
X13295000Y-15235571D02*
X13309286Y-15207000D01*
X13337857Y-15192714D01*
X13380714Y-15192714D01*
X13409286Y-15207000D01*
X13423571Y-15235571D01*
X13423571Y-15392714D01*
X14009286Y-15078429D02*
X13752143Y-15464143D01*
X14395000Y-15092714D02*
X14423571Y-15092714D01*
X14452143Y-15107000D01*
X14466428Y-15121286D01*
X14480714Y-15149857D01*
X14495000Y-15207000D01*
X14495000Y-15278429D01*
X14480714Y-15335571D01*
X14466428Y-15364143D01*
X14452143Y-15378429D01*
X14423571Y-15392714D01*
X14395000Y-15392714D01*
X14366428Y-15378429D01*
X14352143Y-15364143D01*
X14337857Y-15335571D01*
X14323571Y-15278429D01*
X14323571Y-15207000D01*
X14337857Y-15149857D01*
X14352143Y-15121286D01*
X14366428Y-15107000D01*
X14395000Y-15092714D01*
X14623571Y-15364143D02*
X14637857Y-15378429D01*
X14623571Y-15392714D01*
X14609286Y-15378429D01*
X14623571Y-15364143D01*
X14623571Y-15392714D01*
X14823571Y-15092714D02*
X14852143Y-15092714D01*
X14880714Y-15107000D01*
X14895000Y-15121286D01*
X14909285Y-15149857D01*
X14923571Y-15207000D01*
X14923571Y-15278429D01*
X14909285Y-15335571D01*
X14895000Y-15364143D01*
X14880714Y-15378429D01*
X14852143Y-15392714D01*
X14823571Y-15392714D01*
X14795000Y-15378429D01*
X14780714Y-15364143D01*
X14766428Y-15335571D01*
X14752143Y-15278429D01*
X14752143Y-15207000D01*
X14766428Y-15149857D01*
X14780714Y-15121286D01*
X14795000Y-15107000D01*
X14823571Y-15092714D01*
X15023571Y-15092714D02*
X15209285Y-15092714D01*
X15109285Y-15207000D01*
X15152143Y-15207000D01*
X15180714Y-15221286D01*
X15195000Y-15235571D01*
X15209285Y-15264143D01*
X15209285Y-15335571D01*
X15195000Y-15364143D01*
X15180714Y-15378429D01*
X15152143Y-15392714D01*
X15066428Y-15392714D01*
X15037857Y-15378429D01*
X15023571Y-15364143D01*
X15323571Y-15121286D02*
X15337857Y-15107000D01*
X15366428Y-15092714D01*
X15437857Y-15092714D01*
X15466428Y-15107000D01*
X15480714Y-15121286D01*
X15495000Y-15149857D01*
X15495000Y-15178429D01*
X15480714Y-15221286D01*
X15309285Y-15392714D01*
X15495000Y-15392714D01*
X15609286Y-15092714D02*
X15609286Y-15149857D01*
X15723571Y-15092714D02*
X15723571Y-15149857D01*
X16166428Y-15507000D02*
X16152143Y-15492714D01*
X16123571Y-15449857D01*
X16109285Y-15421286D01*
X16095000Y-15378429D01*
X16080714Y-15307000D01*
X16080714Y-15249857D01*
X16095000Y-15178429D01*
X16109285Y-15135571D01*
X16123571Y-15107000D01*
X16152143Y-15064143D01*
X16166428Y-15049857D01*
X16266428Y-15121286D02*
X16280714Y-15107000D01*
X16309285Y-15092714D01*
X16380714Y-15092714D01*
X16409285Y-15107000D01*
X16423571Y-15121286D01*
X16437857Y-15149857D01*
X16437857Y-15178429D01*
X16423571Y-15221286D01*
X16252143Y-15392714D01*
X16437857Y-15392714D01*
X16795000Y-15392714D02*
X16795000Y-15092714D01*
X16923571Y-15392714D02*
X16923571Y-15235571D01*
X16909286Y-15207000D01*
X16880714Y-15192714D01*
X16837857Y-15192714D01*
X16809286Y-15207000D01*
X16795000Y-15221286D01*
X17109286Y-15392714D02*
X17080714Y-15378429D01*
X17066428Y-15364143D01*
X17052143Y-15335571D01*
X17052143Y-15249857D01*
X17066428Y-15221286D01*
X17080714Y-15207000D01*
X17109286Y-15192714D01*
X17152143Y-15192714D01*
X17180714Y-15207000D01*
X17195000Y-15221286D01*
X17209286Y-15249857D01*
X17209286Y-15335571D01*
X17195000Y-15364143D01*
X17180714Y-15378429D01*
X17152143Y-15392714D01*
X17109286Y-15392714D01*
X17380714Y-15392714D02*
X17352143Y-15378429D01*
X17337857Y-15349857D01*
X17337857Y-15092714D01*
X17609286Y-15378429D02*
X17580714Y-15392714D01*
X17523571Y-15392714D01*
X17495000Y-15378429D01*
X17480714Y-15349857D01*
X17480714Y-15235571D01*
X17495000Y-15207000D01*
X17523571Y-15192714D01*
X17580714Y-15192714D01*
X17609286Y-15207000D01*
X17623571Y-15235571D01*
X17623571Y-15264143D01*
X17480714Y-15292714D01*
X17737857Y-15378429D02*
X17766429Y-15392714D01*
X17823571Y-15392714D01*
X17852143Y-15378429D01*
X17866429Y-15349857D01*
X17866429Y-15335571D01*
X17852143Y-15307000D01*
X17823571Y-15292714D01*
X17780714Y-15292714D01*
X17752143Y-15278429D01*
X17737857Y-15249857D01*
X17737857Y-15235571D01*
X17752143Y-15207000D01*
X17780714Y-15192714D01*
X17823571Y-15192714D01*
X17852143Y-15207000D01*
X17966428Y-15507000D02*
X17980714Y-15492714D01*
X18009286Y-15449857D01*
X18023571Y-15421286D01*
X18037857Y-15378429D01*
X18052143Y-15307000D01*
X18052143Y-15249857D01*
X18037857Y-15178429D01*
X18023571Y-15135571D01*
X18009286Y-15107000D01*
X17980714Y-15064143D01*
X17966428Y-15049857D01*
X11483097Y-15681737D02*
X11483097Y-15624263D01*
X11425623Y-15624263D01*
X11425623Y-15681737D01*
X11483097Y-15681737D01*
X11823571Y-15488714D02*
X11852143Y-15488714D01*
X11880714Y-15503000D01*
X11895000Y-15517286D01*
X11909286Y-15545857D01*
X11923571Y-15603000D01*
X11923571Y-15674429D01*
X11909286Y-15731571D01*
X11895000Y-15760143D01*
X11880714Y-15774429D01*
X11852143Y-15788714D01*
X11823571Y-15788714D01*
X11795000Y-15774429D01*
X11780714Y-15760143D01*
X11766428Y-15731571D01*
X11752143Y-15674429D01*
X11752143Y-15603000D01*
X11766428Y-15545857D01*
X11780714Y-15517286D01*
X11795000Y-15503000D01*
X11823571Y-15488714D01*
X12052143Y-15760143D02*
X12066428Y-15774429D01*
X12052143Y-15788714D01*
X12037857Y-15774429D01*
X12052143Y-15760143D01*
X12052143Y-15788714D01*
X12237857Y-15617286D02*
X12209286Y-15603000D01*
X12195000Y-15588714D01*
X12180714Y-15560143D01*
X12180714Y-15545857D01*
X12195000Y-15517286D01*
X12209286Y-15503000D01*
X12237857Y-15488714D01*
X12295000Y-15488714D01*
X12323571Y-15503000D01*
X12337857Y-15517286D01*
X12352143Y-15545857D01*
X12352143Y-15560143D01*
X12337857Y-15588714D01*
X12323571Y-15603000D01*
X12295000Y-15617286D01*
X12237857Y-15617286D01*
X12209286Y-15631571D01*
X12195000Y-15645857D01*
X12180714Y-15674429D01*
X12180714Y-15731571D01*
X12195000Y-15760143D01*
X12209286Y-15774429D01*
X12237857Y-15788714D01*
X12295000Y-15788714D01*
X12323571Y-15774429D01*
X12337857Y-15760143D01*
X12352143Y-15731571D01*
X12352143Y-15674429D01*
X12337857Y-15645857D01*
X12323571Y-15631571D01*
X12295000Y-15617286D01*
X12637857Y-15788714D02*
X12466428Y-15788714D01*
X12552143Y-15788714D02*
X12552143Y-15488714D01*
X12523571Y-15531571D01*
X12495000Y-15560143D01*
X12466428Y-15574429D01*
X12766428Y-15788714D02*
X12766428Y-15588714D01*
X12766428Y-15617286D02*
X12780714Y-15603000D01*
X12809286Y-15588714D01*
X12852143Y-15588714D01*
X12880714Y-15603000D01*
X12895000Y-15631571D01*
X12895000Y-15788714D01*
X12895000Y-15631571D02*
X12909286Y-15603000D01*
X12937857Y-15588714D01*
X12980714Y-15588714D01*
X13009286Y-15603000D01*
X13023571Y-15631571D01*
X13023571Y-15788714D01*
X13166428Y-15788714D02*
X13166428Y-15588714D01*
X13166428Y-15617286D02*
X13180714Y-15603000D01*
X13209286Y-15588714D01*
X13252143Y-15588714D01*
X13280714Y-15603000D01*
X13295000Y-15631571D01*
X13295000Y-15788714D01*
X13295000Y-15631571D02*
X13309286Y-15603000D01*
X13337857Y-15588714D01*
X13380714Y-15588714D01*
X13409286Y-15603000D01*
X13423571Y-15631571D01*
X13423571Y-15788714D01*
X14009286Y-15474429D02*
X13752143Y-15860143D01*
X14395000Y-15488714D02*
X14423571Y-15488714D01*
X14452143Y-15503000D01*
X14466428Y-15517286D01*
X14480714Y-15545857D01*
X14495000Y-15603000D01*
X14495000Y-15674429D01*
X14480714Y-15731571D01*
X14466428Y-15760143D01*
X14452143Y-15774429D01*
X14423571Y-15788714D01*
X14395000Y-15788714D01*
X14366428Y-15774429D01*
X14352143Y-15760143D01*
X14337857Y-15731571D01*
X14323571Y-15674429D01*
X14323571Y-15603000D01*
X14337857Y-15545857D01*
X14352143Y-15517286D01*
X14366428Y-15503000D01*
X14395000Y-15488714D01*
X14623571Y-15760143D02*
X14637857Y-15774429D01*
X14623571Y-15788714D01*
X14609286Y-15774429D01*
X14623571Y-15760143D01*
X14623571Y-15788714D01*
X14823571Y-15488714D02*
X14852143Y-15488714D01*
X14880714Y-15503000D01*
X14895000Y-15517286D01*
X14909285Y-15545857D01*
X14923571Y-15603000D01*
X14923571Y-15674429D01*
X14909285Y-15731571D01*
X14895000Y-15760143D01*
X14880714Y-15774429D01*
X14852143Y-15788714D01*
X14823571Y-15788714D01*
X14795000Y-15774429D01*
X14780714Y-15760143D01*
X14766428Y-15731571D01*
X14752143Y-15674429D01*
X14752143Y-15603000D01*
X14766428Y-15545857D01*
X14780714Y-15517286D01*
X14795000Y-15503000D01*
X14823571Y-15488714D01*
X15023571Y-15488714D02*
X15209285Y-15488714D01*
X15109285Y-15603000D01*
X15152143Y-15603000D01*
X15180714Y-15617286D01*
X15195000Y-15631571D01*
X15209285Y-15660143D01*
X15209285Y-15731571D01*
X15195000Y-15760143D01*
X15180714Y-15774429D01*
X15152143Y-15788714D01*
X15066428Y-15788714D01*
X15037857Y-15774429D01*
X15023571Y-15760143D01*
X15323571Y-15517286D02*
X15337857Y-15503000D01*
X15366428Y-15488714D01*
X15437857Y-15488714D01*
X15466428Y-15503000D01*
X15480714Y-15517286D01*
X15495000Y-15545857D01*
X15495000Y-15574429D01*
X15480714Y-15617286D01*
X15309285Y-15788714D01*
X15495000Y-15788714D01*
X15609286Y-15488714D02*
X15609286Y-15545857D01*
X15723571Y-15488714D02*
X15723571Y-15545857D01*
X16166428Y-15903000D02*
X16152143Y-15888714D01*
X16123571Y-15845857D01*
X16109285Y-15817286D01*
X16095000Y-15774429D01*
X16080714Y-15703000D01*
X16080714Y-15645857D01*
X16095000Y-15574429D01*
X16109285Y-15531571D01*
X16123571Y-15503000D01*
X16152143Y-15460143D01*
X16166428Y-15445857D01*
X16252143Y-15488714D02*
X16437857Y-15488714D01*
X16337857Y-15603000D01*
X16380714Y-15603000D01*
X16409285Y-15617286D01*
X16423571Y-15631571D01*
X16437857Y-15660143D01*
X16437857Y-15731571D01*
X16423571Y-15760143D01*
X16409285Y-15774429D01*
X16380714Y-15788714D01*
X16295000Y-15788714D01*
X16266428Y-15774429D01*
X16252143Y-15760143D01*
X16795000Y-15788714D02*
X16795000Y-15488714D01*
X16923571Y-15788714D02*
X16923571Y-15631571D01*
X16909286Y-15603000D01*
X16880714Y-15588714D01*
X16837857Y-15588714D01*
X16809286Y-15603000D01*
X16795000Y-15617286D01*
X17109286Y-15788714D02*
X17080714Y-15774429D01*
X17066428Y-15760143D01*
X17052143Y-15731571D01*
X17052143Y-15645857D01*
X17066428Y-15617286D01*
X17080714Y-15603000D01*
X17109286Y-15588714D01*
X17152143Y-15588714D01*
X17180714Y-15603000D01*
X17195000Y-15617286D01*
X17209286Y-15645857D01*
X17209286Y-15731571D01*
X17195000Y-15760143D01*
X17180714Y-15774429D01*
X17152143Y-15788714D01*
X17109286Y-15788714D01*
X17380714Y-15788714D02*
X17352143Y-15774429D01*
X17337857Y-15745857D01*
X17337857Y-15488714D01*
X17609286Y-15774429D02*
X17580714Y-15788714D01*
X17523571Y-15788714D01*
X17495000Y-15774429D01*
X17480714Y-15745857D01*
X17480714Y-15631571D01*
X17495000Y-15603000D01*
X17523571Y-15588714D01*
X17580714Y-15588714D01*
X17609286Y-15603000D01*
X17623571Y-15631571D01*
X17623571Y-15660143D01*
X17480714Y-15688714D01*
X17737857Y-15774429D02*
X17766429Y-15788714D01*
X17823571Y-15788714D01*
X17852143Y-15774429D01*
X17866429Y-15745857D01*
X17866429Y-15731571D01*
X17852143Y-15703000D01*
X17823571Y-15688714D01*
X17780714Y-15688714D01*
X17752143Y-15674429D01*
X17737857Y-15645857D01*
X17737857Y-15631571D01*
X17752143Y-15603000D01*
X17780714Y-15588714D01*
X17823571Y-15588714D01*
X17852143Y-15603000D01*
X17966428Y-15903000D02*
X17980714Y-15888714D01*
X18009286Y-15845857D01*
X18023571Y-15817286D01*
X18037857Y-15774429D01*
X18052143Y-15703000D01*
X18052143Y-15645857D01*
X18037857Y-15574429D01*
X18023571Y-15531571D01*
X18009286Y-15503000D01*
X17980714Y-15460143D01*
X17966428Y-15445857D01*
X11449000Y-16095000D02*
X11495000Y-16049000D01*
X11449000Y-16003000D01*
X11403000Y-16049000D01*
X11449000Y-16095000D01*
X11823571Y-15884714D02*
X11852143Y-15884714D01*
X11880714Y-15899000D01*
X11895000Y-15913286D01*
X11909286Y-15941857D01*
X11923571Y-15999000D01*
X11923571Y-16070429D01*
X11909286Y-16127571D01*
X11895000Y-16156143D01*
X11880714Y-16170429D01*
X11852143Y-16184714D01*
X11823571Y-16184714D01*
X11795000Y-16170429D01*
X11780714Y-16156143D01*
X11766428Y-16127571D01*
X11752143Y-16070429D01*
X11752143Y-15999000D01*
X11766428Y-15941857D01*
X11780714Y-15913286D01*
X11795000Y-15899000D01*
X11823571Y-15884714D01*
X12052143Y-16156143D02*
X12066428Y-16170429D01*
X12052143Y-16184714D01*
X12037857Y-16170429D01*
X12052143Y-16156143D01*
X12052143Y-16184714D01*
X12209286Y-16184714D02*
X12266428Y-16184714D01*
X12295000Y-16170429D01*
X12309286Y-16156143D01*
X12337857Y-16113286D01*
X12352143Y-16056143D01*
X12352143Y-15941857D01*
X12337857Y-15913286D01*
X12323571Y-15899000D01*
X12295000Y-15884714D01*
X12237857Y-15884714D01*
X12209286Y-15899000D01*
X12195000Y-15913286D01*
X12180714Y-15941857D01*
X12180714Y-16013286D01*
X12195000Y-16041857D01*
X12209286Y-16056143D01*
X12237857Y-16070429D01*
X12295000Y-16070429D01*
X12323571Y-16056143D01*
X12337857Y-16041857D01*
X12352143Y-16013286D01*
X12466428Y-15913286D02*
X12480714Y-15899000D01*
X12509286Y-15884714D01*
X12580714Y-15884714D01*
X12609286Y-15899000D01*
X12623571Y-15913286D01*
X12637857Y-15941857D01*
X12637857Y-15970429D01*
X12623571Y-16013286D01*
X12452143Y-16184714D01*
X12637857Y-16184714D01*
X12766428Y-16184714D02*
X12766428Y-15984714D01*
X12766428Y-16013286D02*
X12780714Y-15999000D01*
X12809286Y-15984714D01*
X12852143Y-15984714D01*
X12880714Y-15999000D01*
X12895000Y-16027571D01*
X12895000Y-16184714D01*
X12895000Y-16027571D02*
X12909286Y-15999000D01*
X12937857Y-15984714D01*
X12980714Y-15984714D01*
X13009286Y-15999000D01*
X13023571Y-16027571D01*
X13023571Y-16184714D01*
X13166428Y-16184714D02*
X13166428Y-15984714D01*
X13166428Y-16013286D02*
X13180714Y-15999000D01*
X13209286Y-15984714D01*
X13252143Y-15984714D01*
X13280714Y-15999000D01*
X13295000Y-16027571D01*
X13295000Y-16184714D01*
X13295000Y-16027571D02*
X13309286Y-15999000D01*
X13337857Y-15984714D01*
X13380714Y-15984714D01*
X13409286Y-15999000D01*
X13423571Y-16027571D01*
X13423571Y-16184714D01*
X14009286Y-15870429D02*
X13752143Y-16256143D01*
X14395000Y-15884714D02*
X14423571Y-15884714D01*
X14452143Y-15899000D01*
X14466428Y-15913286D01*
X14480714Y-15941857D01*
X14495000Y-15999000D01*
X14495000Y-16070429D01*
X14480714Y-16127571D01*
X14466428Y-16156143D01*
X14452143Y-16170429D01*
X14423571Y-16184714D01*
X14395000Y-16184714D01*
X14366428Y-16170429D01*
X14352143Y-16156143D01*
X14337857Y-16127571D01*
X14323571Y-16070429D01*
X14323571Y-15999000D01*
X14337857Y-15941857D01*
X14352143Y-15913286D01*
X14366428Y-15899000D01*
X14395000Y-15884714D01*
X14623571Y-16156143D02*
X14637857Y-16170429D01*
X14623571Y-16184714D01*
X14609286Y-16170429D01*
X14623571Y-16156143D01*
X14623571Y-16184714D01*
X14823571Y-15884714D02*
X14852143Y-15884714D01*
X14880714Y-15899000D01*
X14895000Y-15913286D01*
X14909285Y-15941857D01*
X14923571Y-15999000D01*
X14923571Y-16070429D01*
X14909285Y-16127571D01*
X14895000Y-16156143D01*
X14880714Y-16170429D01*
X14852143Y-16184714D01*
X14823571Y-16184714D01*
X14795000Y-16170429D01*
X14780714Y-16156143D01*
X14766428Y-16127571D01*
X14752143Y-16070429D01*
X14752143Y-15999000D01*
X14766428Y-15941857D01*
X14780714Y-15913286D01*
X14795000Y-15899000D01*
X14823571Y-15884714D01*
X15023571Y-15884714D02*
X15209285Y-15884714D01*
X15109285Y-15999000D01*
X15152143Y-15999000D01*
X15180714Y-16013286D01*
X15195000Y-16027571D01*
X15209285Y-16056143D01*
X15209285Y-16127571D01*
X15195000Y-16156143D01*
X15180714Y-16170429D01*
X15152143Y-16184714D01*
X15066428Y-16184714D01*
X15037857Y-16170429D01*
X15023571Y-16156143D01*
X15466428Y-15884714D02*
X15409285Y-15884714D01*
X15380714Y-15899000D01*
X15366428Y-15913286D01*
X15337857Y-15956143D01*
X15323571Y-16013286D01*
X15323571Y-16127571D01*
X15337857Y-16156143D01*
X15352143Y-16170429D01*
X15380714Y-16184714D01*
X15437857Y-16184714D01*
X15466428Y-16170429D01*
X15480714Y-16156143D01*
X15495000Y-16127571D01*
X15495000Y-16056143D01*
X15480714Y-16027571D01*
X15466428Y-16013286D01*
X15437857Y-15999000D01*
X15380714Y-15999000D01*
X15352143Y-16013286D01*
X15337857Y-16027571D01*
X15323571Y-16056143D01*
X15609286Y-15884714D02*
X15609286Y-15941857D01*
X15723571Y-15884714D02*
X15723571Y-15941857D01*
X16166428Y-16299000D02*
X16152143Y-16284714D01*
X16123571Y-16241857D01*
X16109285Y-16213286D01*
X16095000Y-16170429D01*
X16080714Y-16099000D01*
X16080714Y-16041857D01*
X16095000Y-15970429D01*
X16109285Y-15927571D01*
X16123571Y-15899000D01*
X16152143Y-15856143D01*
X16166428Y-15841857D01*
X16437857Y-16184714D02*
X16266428Y-16184714D01*
X16352143Y-16184714D02*
X16352143Y-15884714D01*
X16323571Y-15927571D01*
X16295000Y-15956143D01*
X16266428Y-15970429D01*
X16795000Y-16184714D02*
X16795000Y-15884714D01*
X16923571Y-16184714D02*
X16923571Y-16027571D01*
X16909286Y-15999000D01*
X16880714Y-15984714D01*
X16837857Y-15984714D01*
X16809286Y-15999000D01*
X16795000Y-16013286D01*
X17109286Y-16184714D02*
X17080714Y-16170429D01*
X17066428Y-16156143D01*
X17052143Y-16127571D01*
X17052143Y-16041857D01*
X17066428Y-16013286D01*
X17080714Y-15999000D01*
X17109286Y-15984714D01*
X17152143Y-15984714D01*
X17180714Y-15999000D01*
X17195000Y-16013286D01*
X17209286Y-16041857D01*
X17209286Y-16127571D01*
X17195000Y-16156143D01*
X17180714Y-16170429D01*
X17152143Y-16184714D01*
X17109286Y-16184714D01*
X17380714Y-16184714D02*
X17352143Y-16170429D01*
X17337857Y-16141857D01*
X17337857Y-15884714D01*
X17609286Y-16170429D02*
X17580714Y-16184714D01*
X17523571Y-16184714D01*
X17495000Y-16170429D01*
X17480714Y-16141857D01*
X17480714Y-16027571D01*
X17495000Y-15999000D01*
X17523571Y-15984714D01*
X17580714Y-15984714D01*
X17609286Y-15999000D01*
X17623571Y-16027571D01*
X17623571Y-16056143D01*
X17480714Y-16084714D01*
X17723571Y-16299000D02*
X17737857Y-16284714D01*
X17766429Y-16241857D01*
X17780714Y-16213286D01*
X17795000Y-16170429D01*
X17809286Y-16099000D01*
X17809286Y-16041857D01*
X17795000Y-15970429D01*
X17780714Y-15927571D01*
X17766429Y-15899000D01*
X17737857Y-15856143D01*
X17723571Y-15841857D01*
X11394924Y-16394962D02*
X11495000Y-16495038D01*
X11495000Y-16394962D02*
X11394924Y-16495038D01*
X11495000Y-16445000D02*
G75*
G03X11495000Y-16445000I-50038J0D01*
G01*
X11923571Y-16580714D02*
X11752143Y-16580714D01*
X11837857Y-16580714D02*
X11837857Y-16280714D01*
X11809286Y-16323571D01*
X11780714Y-16352143D01*
X11752143Y-16366429D01*
X12052143Y-16552143D02*
X12066428Y-16566429D01*
X12052143Y-16580714D01*
X12037857Y-16566429D01*
X12052143Y-16552143D01*
X12052143Y-16580714D01*
X12252143Y-16280714D02*
X12280714Y-16280714D01*
X12309286Y-16295000D01*
X12323571Y-16309286D01*
X12337857Y-16337857D01*
X12352143Y-16395000D01*
X12352143Y-16466429D01*
X12337857Y-16523571D01*
X12323571Y-16552143D01*
X12309286Y-16566429D01*
X12280714Y-16580714D01*
X12252143Y-16580714D01*
X12223571Y-16566429D01*
X12209286Y-16552143D01*
X12195000Y-16523571D01*
X12180714Y-16466429D01*
X12180714Y-16395000D01*
X12195000Y-16337857D01*
X12209286Y-16309286D01*
X12223571Y-16295000D01*
X12252143Y-16280714D01*
X12537857Y-16280714D02*
X12566428Y-16280714D01*
X12595000Y-16295000D01*
X12609286Y-16309286D01*
X12623571Y-16337857D01*
X12637857Y-16395000D01*
X12637857Y-16466429D01*
X12623571Y-16523571D01*
X12609286Y-16552143D01*
X12595000Y-16566429D01*
X12566428Y-16580714D01*
X12537857Y-16580714D01*
X12509286Y-16566429D01*
X12495000Y-16552143D01*
X12480714Y-16523571D01*
X12466428Y-16466429D01*
X12466428Y-16395000D01*
X12480714Y-16337857D01*
X12495000Y-16309286D01*
X12509286Y-16295000D01*
X12537857Y-16280714D01*
X12766428Y-16580714D02*
X12766428Y-16380714D01*
X12766428Y-16409286D02*
X12780714Y-16395000D01*
X12809286Y-16380714D01*
X12852143Y-16380714D01*
X12880714Y-16395000D01*
X12895000Y-16423571D01*
X12895000Y-16580714D01*
X12895000Y-16423571D02*
X12909286Y-16395000D01*
X12937857Y-16380714D01*
X12980714Y-16380714D01*
X13009286Y-16395000D01*
X13023571Y-16423571D01*
X13023571Y-16580714D01*
X13166428Y-16580714D02*
X13166428Y-16380714D01*
X13166428Y-16409286D02*
X13180714Y-16395000D01*
X13209286Y-16380714D01*
X13252143Y-16380714D01*
X13280714Y-16395000D01*
X13295000Y-16423571D01*
X13295000Y-16580714D01*
X13295000Y-16423571D02*
X13309286Y-16395000D01*
X13337857Y-16380714D01*
X13380714Y-16380714D01*
X13409286Y-16395000D01*
X13423571Y-16423571D01*
X13423571Y-16580714D01*
X14009286Y-16266429D02*
X13752143Y-16652143D01*
X14395000Y-16280714D02*
X14423571Y-16280714D01*
X14452143Y-16295000D01*
X14466428Y-16309286D01*
X14480714Y-16337857D01*
X14495000Y-16395000D01*
X14495000Y-16466429D01*
X14480714Y-16523571D01*
X14466428Y-16552143D01*
X14452143Y-16566429D01*
X14423571Y-16580714D01*
X14395000Y-16580714D01*
X14366428Y-16566429D01*
X14352143Y-16552143D01*
X14337857Y-16523571D01*
X14323571Y-16466429D01*
X14323571Y-16395000D01*
X14337857Y-16337857D01*
X14352143Y-16309286D01*
X14366428Y-16295000D01*
X14395000Y-16280714D01*
X14623571Y-16552143D02*
X14637857Y-16566429D01*
X14623571Y-16580714D01*
X14609286Y-16566429D01*
X14623571Y-16552143D01*
X14623571Y-16580714D01*
X14823571Y-16280714D02*
X14852143Y-16280714D01*
X14880714Y-16295000D01*
X14895000Y-16309286D01*
X14909285Y-16337857D01*
X14923571Y-16395000D01*
X14923571Y-16466429D01*
X14909285Y-16523571D01*
X14895000Y-16552143D01*
X14880714Y-16566429D01*
X14852143Y-16580714D01*
X14823571Y-16580714D01*
X14795000Y-16566429D01*
X14780714Y-16552143D01*
X14766428Y-16523571D01*
X14752143Y-16466429D01*
X14752143Y-16395000D01*
X14766428Y-16337857D01*
X14780714Y-16309286D01*
X14795000Y-16295000D01*
X14823571Y-16280714D01*
X15023571Y-16280714D02*
X15209285Y-16280714D01*
X15109285Y-16395000D01*
X15152143Y-16395000D01*
X15180714Y-16409286D01*
X15195000Y-16423571D01*
X15209285Y-16452143D01*
X15209285Y-16523571D01*
X15195000Y-16552143D01*
X15180714Y-16566429D01*
X15152143Y-16580714D01*
X15066428Y-16580714D01*
X15037857Y-16566429D01*
X15023571Y-16552143D01*
X15352143Y-16580714D02*
X15409285Y-16580714D01*
X15437857Y-16566429D01*
X15452143Y-16552143D01*
X15480714Y-16509286D01*
X15495000Y-16452143D01*
X15495000Y-16337857D01*
X15480714Y-16309286D01*
X15466428Y-16295000D01*
X15437857Y-16280714D01*
X15380714Y-16280714D01*
X15352143Y-16295000D01*
X15337857Y-16309286D01*
X15323571Y-16337857D01*
X15323571Y-16409286D01*
X15337857Y-16437857D01*
X15352143Y-16452143D01*
X15380714Y-16466429D01*
X15437857Y-16466429D01*
X15466428Y-16452143D01*
X15480714Y-16437857D01*
X15495000Y-16409286D01*
X15609286Y-16280714D02*
X15609286Y-16337857D01*
X15723571Y-16280714D02*
X15723571Y-16337857D01*
X16166428Y-16695000D02*
X16152143Y-16680714D01*
X16123571Y-16637857D01*
X16109285Y-16609286D01*
X16095000Y-16566429D01*
X16080714Y-16495000D01*
X16080714Y-16437857D01*
X16095000Y-16366429D01*
X16109285Y-16323571D01*
X16123571Y-16295000D01*
X16152143Y-16252143D01*
X16166428Y-16237857D01*
X16252143Y-16280714D02*
X16437857Y-16280714D01*
X16337857Y-16395000D01*
X16380714Y-16395000D01*
X16409285Y-16409286D01*
X16423571Y-16423571D01*
X16437857Y-16452143D01*
X16437857Y-16523571D01*
X16423571Y-16552143D01*
X16409285Y-16566429D01*
X16380714Y-16580714D01*
X16295000Y-16580714D01*
X16266428Y-16566429D01*
X16252143Y-16552143D01*
X16580714Y-16580714D02*
X16637857Y-16580714D01*
X16666428Y-16566429D01*
X16680714Y-16552143D01*
X16709285Y-16509286D01*
X16723571Y-16452143D01*
X16723571Y-16337857D01*
X16709285Y-16309286D01*
X16695000Y-16295000D01*
X16666428Y-16280714D01*
X16609285Y-16280714D01*
X16580714Y-16295000D01*
X16566428Y-16309286D01*
X16552143Y-16337857D01*
X16552143Y-16409286D01*
X16566428Y-16437857D01*
X16580714Y-16452143D01*
X16609285Y-16466429D01*
X16666428Y-16466429D01*
X16695000Y-16452143D01*
X16709285Y-16437857D01*
X16723571Y-16409286D01*
X17080714Y-16580714D02*
X17080714Y-16280714D01*
X17209286Y-16580714D02*
X17209286Y-16423571D01*
X17195000Y-16395000D01*
X17166428Y-16380714D01*
X17123571Y-16380714D01*
X17095000Y-16395000D01*
X17080714Y-16409286D01*
X17395000Y-16580714D02*
X17366428Y-16566429D01*
X17352143Y-16552143D01*
X17337857Y-16523571D01*
X17337857Y-16437857D01*
X17352143Y-16409286D01*
X17366428Y-16395000D01*
X17395000Y-16380714D01*
X17437857Y-16380714D01*
X17466428Y-16395000D01*
X17480714Y-16409286D01*
X17495000Y-16437857D01*
X17495000Y-16523571D01*
X17480714Y-16552143D01*
X17466428Y-16566429D01*
X17437857Y-16580714D01*
X17395000Y-16580714D01*
X17666428Y-16580714D02*
X17637857Y-16566429D01*
X17623571Y-16537857D01*
X17623571Y-16280714D01*
X17895000Y-16566429D02*
X17866429Y-16580714D01*
X17809286Y-16580714D01*
X17780714Y-16566429D01*
X17766429Y-16537857D01*
X17766429Y-16423571D01*
X17780714Y-16395000D01*
X17809286Y-16380714D01*
X17866429Y-16380714D01*
X17895000Y-16395000D01*
X17909286Y-16423571D01*
X17909286Y-16452143D01*
X17766429Y-16480714D01*
X18023571Y-16566429D02*
X18052143Y-16580714D01*
X18109286Y-16580714D01*
X18137857Y-16566429D01*
X18152143Y-16537857D01*
X18152143Y-16523571D01*
X18137857Y-16495000D01*
X18109286Y-16480714D01*
X18066429Y-16480714D01*
X18037857Y-16466429D01*
X18023571Y-16437857D01*
X18023571Y-16423571D01*
X18037857Y-16395000D01*
X18066429Y-16380714D01*
X18109286Y-16380714D01*
X18137857Y-16395000D01*
X18252143Y-16695000D02*
X18266429Y-16680714D01*
X18295000Y-16637857D01*
X18309286Y-16609286D01*
X18323571Y-16566429D01*
X18337857Y-16495000D01*
X18337857Y-16437857D01*
X18323571Y-16366429D01*
X18309286Y-16323571D01*
X18295000Y-16295000D01*
X18266429Y-16252143D01*
X18252143Y-16237857D01*
X11393400Y-16790200D02*
X11495000Y-16891800D01*
X11495000Y-16790200D02*
X11393400Y-16891800D01*
X11444200Y-16790200D02*
X11444200Y-16891800D01*
X11393400Y-16841000D02*
X11495000Y-16841000D01*
X11923571Y-16976714D02*
X11752143Y-16976714D01*
X11837857Y-16976714D02*
X11837857Y-16676714D01*
X11809286Y-16719571D01*
X11780714Y-16748143D01*
X11752143Y-16762429D01*
X12052143Y-16948143D02*
X12066428Y-16962429D01*
X12052143Y-16976714D01*
X12037857Y-16962429D01*
X12052143Y-16948143D01*
X12052143Y-16976714D01*
X12252143Y-16676714D02*
X12280714Y-16676714D01*
X12309286Y-16691000D01*
X12323571Y-16705286D01*
X12337857Y-16733857D01*
X12352143Y-16791000D01*
X12352143Y-16862429D01*
X12337857Y-16919572D01*
X12323571Y-16948143D01*
X12309286Y-16962429D01*
X12280714Y-16976714D01*
X12252143Y-16976714D01*
X12223571Y-16962429D01*
X12209286Y-16948143D01*
X12195000Y-16919572D01*
X12180714Y-16862429D01*
X12180714Y-16791000D01*
X12195000Y-16733857D01*
X12209286Y-16705286D01*
X12223571Y-16691000D01*
X12252143Y-16676714D01*
X12466428Y-16705286D02*
X12480714Y-16691000D01*
X12509286Y-16676714D01*
X12580714Y-16676714D01*
X12609286Y-16691000D01*
X12623571Y-16705286D01*
X12637857Y-16733857D01*
X12637857Y-16762429D01*
X12623571Y-16805286D01*
X12452143Y-16976714D01*
X12637857Y-16976714D01*
X12766428Y-16976714D02*
X12766428Y-16776714D01*
X12766428Y-16805286D02*
X12780714Y-16791000D01*
X12809286Y-16776714D01*
X12852143Y-16776714D01*
X12880714Y-16791000D01*
X12895000Y-16819572D01*
X12895000Y-16976714D01*
X12895000Y-16819572D02*
X12909286Y-16791000D01*
X12937857Y-16776714D01*
X12980714Y-16776714D01*
X13009286Y-16791000D01*
X13023571Y-16819572D01*
X13023571Y-16976714D01*
X13166428Y-16976714D02*
X13166428Y-16776714D01*
X13166428Y-16805286D02*
X13180714Y-16791000D01*
X13209286Y-16776714D01*
X13252143Y-16776714D01*
X13280714Y-16791000D01*
X13295000Y-16819572D01*
X13295000Y-16976714D01*
X13295000Y-16819572D02*
X13309286Y-16791000D01*
X13337857Y-16776714D01*
X13380714Y-16776714D01*
X13409286Y-16791000D01*
X13423571Y-16819572D01*
X13423571Y-16976714D01*
X14009286Y-16662429D02*
X13752143Y-17048143D01*
X14395000Y-16676714D02*
X14423571Y-16676714D01*
X14452143Y-16691000D01*
X14466428Y-16705286D01*
X14480714Y-16733857D01*
X14495000Y-16791000D01*
X14495000Y-16862429D01*
X14480714Y-16919572D01*
X14466428Y-16948143D01*
X14452143Y-16962429D01*
X14423571Y-16976714D01*
X14395000Y-16976714D01*
X14366428Y-16962429D01*
X14352143Y-16948143D01*
X14337857Y-16919572D01*
X14323571Y-16862429D01*
X14323571Y-16791000D01*
X14337857Y-16733857D01*
X14352143Y-16705286D01*
X14366428Y-16691000D01*
X14395000Y-16676714D01*
X14623571Y-16948143D02*
X14637857Y-16962429D01*
X14623571Y-16976714D01*
X14609286Y-16962429D01*
X14623571Y-16948143D01*
X14623571Y-16976714D01*
X14823571Y-16676714D02*
X14852143Y-16676714D01*
X14880714Y-16691000D01*
X14895000Y-16705286D01*
X14909285Y-16733857D01*
X14923571Y-16791000D01*
X14923571Y-16862429D01*
X14909285Y-16919572D01*
X14895000Y-16948143D01*
X14880714Y-16962429D01*
X14852143Y-16976714D01*
X14823571Y-16976714D01*
X14795000Y-16962429D01*
X14780714Y-16948143D01*
X14766428Y-16919572D01*
X14752143Y-16862429D01*
X14752143Y-16791000D01*
X14766428Y-16733857D01*
X14780714Y-16705286D01*
X14795000Y-16691000D01*
X14823571Y-16676714D01*
X15180714Y-16776714D02*
X15180714Y-16976714D01*
X15109285Y-16662429D02*
X15037857Y-16876714D01*
X15223571Y-16876714D01*
X15395000Y-16676714D02*
X15423571Y-16676714D01*
X15452143Y-16691000D01*
X15466428Y-16705286D01*
X15480714Y-16733857D01*
X15495000Y-16791000D01*
X15495000Y-16862429D01*
X15480714Y-16919572D01*
X15466428Y-16948143D01*
X15452143Y-16962429D01*
X15423571Y-16976714D01*
X15395000Y-16976714D01*
X15366428Y-16962429D01*
X15352143Y-16948143D01*
X15337857Y-16919572D01*
X15323571Y-16862429D01*
X15323571Y-16791000D01*
X15337857Y-16733857D01*
X15352143Y-16705286D01*
X15366428Y-16691000D01*
X15395000Y-16676714D01*
X15609286Y-16676714D02*
X15609286Y-16733857D01*
X15723571Y-16676714D02*
X15723571Y-16733857D01*
X16166428Y-17091000D02*
X16152143Y-17076714D01*
X16123571Y-17033857D01*
X16109285Y-17005286D01*
X16095000Y-16962429D01*
X16080714Y-16891000D01*
X16080714Y-16833857D01*
X16095000Y-16762429D01*
X16109285Y-16719571D01*
X16123571Y-16691000D01*
X16152143Y-16648143D01*
X16166428Y-16633857D01*
X16266428Y-16705286D02*
X16280714Y-16691000D01*
X16309285Y-16676714D01*
X16380714Y-16676714D01*
X16409285Y-16691000D01*
X16423571Y-16705286D01*
X16437857Y-16733857D01*
X16437857Y-16762429D01*
X16423571Y-16805286D01*
X16252143Y-16976714D01*
X16437857Y-16976714D01*
X16695000Y-16776714D02*
X16695000Y-16976714D01*
X16623571Y-16662429D02*
X16552143Y-16876714D01*
X16737857Y-16876714D01*
X17080714Y-16976714D02*
X17080714Y-16676714D01*
X17209286Y-16976714D02*
X17209286Y-16819572D01*
X17195000Y-16791000D01*
X17166428Y-16776714D01*
X17123571Y-16776714D01*
X17095000Y-16791000D01*
X17080714Y-16805286D01*
X17395000Y-16976714D02*
X17366428Y-16962429D01*
X17352143Y-16948143D01*
X17337857Y-16919572D01*
X17337857Y-16833857D01*
X17352143Y-16805286D01*
X17366428Y-16791000D01*
X17395000Y-16776714D01*
X17437857Y-16776714D01*
X17466428Y-16791000D01*
X17480714Y-16805286D01*
X17495000Y-16833857D01*
X17495000Y-16919572D01*
X17480714Y-16948143D01*
X17466428Y-16962429D01*
X17437857Y-16976714D01*
X17395000Y-16976714D01*
X17666428Y-16976714D02*
X17637857Y-16962429D01*
X17623571Y-16933857D01*
X17623571Y-16676714D01*
X17895000Y-16962429D02*
X17866429Y-16976714D01*
X17809286Y-16976714D01*
X17780714Y-16962429D01*
X17766429Y-16933857D01*
X17766429Y-16819572D01*
X17780714Y-16791000D01*
X17809286Y-16776714D01*
X17866429Y-16776714D01*
X17895000Y-16791000D01*
X17909286Y-16819572D01*
X17909286Y-16848143D01*
X17766429Y-16876714D01*
X18023571Y-16962429D02*
X18052143Y-16976714D01*
X18109286Y-16976714D01*
X18137857Y-16962429D01*
X18152143Y-16933857D01*
X18152143Y-16919572D01*
X18137857Y-16891000D01*
X18109286Y-16876714D01*
X18066429Y-16876714D01*
X18037857Y-16862429D01*
X18023571Y-16833857D01*
X18023571Y-16819572D01*
X18037857Y-16791000D01*
X18066429Y-16776714D01*
X18109286Y-16776714D01*
X18137857Y-16791000D01*
X18252143Y-17091000D02*
X18266429Y-17076714D01*
X18295000Y-17033857D01*
X18309286Y-17005286D01*
X18323571Y-16962429D01*
X18337857Y-16891000D01*
X18337857Y-16833857D01*
X18323571Y-16762429D01*
X18309286Y-16719571D01*
X18295000Y-16691000D01*
X18266429Y-16648143D01*
X18252143Y-16633857D01*
X11345000Y-17162000D02*
X11495000Y-17312000D01*
X11495000Y-17162000D02*
X11345000Y-17312000D01*
X11473033Y-17290034D02*
X11473033Y-17183967D01*
X11366966Y-17183967D01*
X11366966Y-17290034D01*
X11473033Y-17290034D01*
X11923571Y-17372714D02*
X11752143Y-17372714D01*
X11837857Y-17372714D02*
X11837857Y-17072714D01*
X11809286Y-17115572D01*
X11780714Y-17144143D01*
X11752143Y-17158429D01*
X12052143Y-17344143D02*
X12066428Y-17358429D01*
X12052143Y-17372714D01*
X12037857Y-17358429D01*
X12052143Y-17344143D01*
X12052143Y-17372714D01*
X12337857Y-17072714D02*
X12195000Y-17072714D01*
X12180714Y-17215572D01*
X12195000Y-17201286D01*
X12223571Y-17187000D01*
X12295000Y-17187000D01*
X12323571Y-17201286D01*
X12337857Y-17215572D01*
X12352143Y-17244143D01*
X12352143Y-17315572D01*
X12337857Y-17344143D01*
X12323571Y-17358429D01*
X12295000Y-17372714D01*
X12223571Y-17372714D01*
X12195000Y-17358429D01*
X12180714Y-17344143D01*
X12537857Y-17072714D02*
X12566428Y-17072714D01*
X12595000Y-17087000D01*
X12609286Y-17101286D01*
X12623571Y-17129857D01*
X12637857Y-17187000D01*
X12637857Y-17258429D01*
X12623571Y-17315572D01*
X12609286Y-17344143D01*
X12595000Y-17358429D01*
X12566428Y-17372714D01*
X12537857Y-17372714D01*
X12509286Y-17358429D01*
X12495000Y-17344143D01*
X12480714Y-17315572D01*
X12466428Y-17258429D01*
X12466428Y-17187000D01*
X12480714Y-17129857D01*
X12495000Y-17101286D01*
X12509286Y-17087000D01*
X12537857Y-17072714D01*
X12766428Y-17372714D02*
X12766428Y-17172714D01*
X12766428Y-17201286D02*
X12780714Y-17187000D01*
X12809286Y-17172714D01*
X12852143Y-17172714D01*
X12880714Y-17187000D01*
X12895000Y-17215572D01*
X12895000Y-17372714D01*
X12895000Y-17215572D02*
X12909286Y-17187000D01*
X12937857Y-17172714D01*
X12980714Y-17172714D01*
X13009286Y-17187000D01*
X13023571Y-17215572D01*
X13023571Y-17372714D01*
X13166428Y-17372714D02*
X13166428Y-17172714D01*
X13166428Y-17201286D02*
X13180714Y-17187000D01*
X13209286Y-17172714D01*
X13252143Y-17172714D01*
X13280714Y-17187000D01*
X13295000Y-17215572D01*
X13295000Y-17372714D01*
X13295000Y-17215572D02*
X13309286Y-17187000D01*
X13337857Y-17172714D01*
X13380714Y-17172714D01*
X13409286Y-17187000D01*
X13423571Y-17215572D01*
X13423571Y-17372714D01*
X14009286Y-17058429D02*
X13752143Y-17444143D01*
X14395000Y-17072714D02*
X14423571Y-17072714D01*
X14452143Y-17087000D01*
X14466428Y-17101286D01*
X14480714Y-17129857D01*
X14495000Y-17187000D01*
X14495000Y-17258429D01*
X14480714Y-17315572D01*
X14466428Y-17344143D01*
X14452143Y-17358429D01*
X14423571Y-17372714D01*
X14395000Y-17372714D01*
X14366428Y-17358429D01*
X14352143Y-17344143D01*
X14337857Y-17315572D01*
X14323571Y-17258429D01*
X14323571Y-17187000D01*
X14337857Y-17129857D01*
X14352143Y-17101286D01*
X14366428Y-17087000D01*
X14395000Y-17072714D01*
X14623571Y-17344143D02*
X14637857Y-17358429D01*
X14623571Y-17372714D01*
X14609286Y-17358429D01*
X14623571Y-17344143D01*
X14623571Y-17372714D01*
X14823571Y-17072714D02*
X14852143Y-17072714D01*
X14880714Y-17087000D01*
X14895000Y-17101286D01*
X14909285Y-17129857D01*
X14923571Y-17187000D01*
X14923571Y-17258429D01*
X14909285Y-17315572D01*
X14895000Y-17344143D01*
X14880714Y-17358429D01*
X14852143Y-17372714D01*
X14823571Y-17372714D01*
X14795000Y-17358429D01*
X14780714Y-17344143D01*
X14766428Y-17315572D01*
X14752143Y-17258429D01*
X14752143Y-17187000D01*
X14766428Y-17129857D01*
X14780714Y-17101286D01*
X14795000Y-17087000D01*
X14823571Y-17072714D01*
X15195000Y-17072714D02*
X15052143Y-17072714D01*
X15037857Y-17215572D01*
X15052143Y-17201286D01*
X15080714Y-17187000D01*
X15152143Y-17187000D01*
X15180714Y-17201286D01*
X15195000Y-17215572D01*
X15209285Y-17244143D01*
X15209285Y-17315572D01*
X15195000Y-17344143D01*
X15180714Y-17358429D01*
X15152143Y-17372714D01*
X15080714Y-17372714D01*
X15052143Y-17358429D01*
X15037857Y-17344143D01*
X15352143Y-17372714D02*
X15409285Y-17372714D01*
X15437857Y-17358429D01*
X15452143Y-17344143D01*
X15480714Y-17301286D01*
X15495000Y-17244143D01*
X15495000Y-17129857D01*
X15480714Y-17101286D01*
X15466428Y-17087000D01*
X15437857Y-17072714D01*
X15380714Y-17072714D01*
X15352143Y-17087000D01*
X15337857Y-17101286D01*
X15323571Y-17129857D01*
X15323571Y-17201286D01*
X15337857Y-17229857D01*
X15352143Y-17244143D01*
X15380714Y-17258429D01*
X15437857Y-17258429D01*
X15466428Y-17244143D01*
X15480714Y-17229857D01*
X15495000Y-17201286D01*
X15609286Y-17072714D02*
X15609286Y-17129857D01*
X15723571Y-17072714D02*
X15723571Y-17129857D01*
X16166428Y-17487000D02*
X16152143Y-17472714D01*
X16123571Y-17429857D01*
X16109285Y-17401286D01*
X16095000Y-17358429D01*
X16080714Y-17287000D01*
X16080714Y-17229857D01*
X16095000Y-17158429D01*
X16109285Y-17115572D01*
X16123571Y-17087000D01*
X16152143Y-17044143D01*
X16166428Y-17029857D01*
X16266428Y-17101286D02*
X16280714Y-17087000D01*
X16309285Y-17072714D01*
X16380714Y-17072714D01*
X16409285Y-17087000D01*
X16423571Y-17101286D01*
X16437857Y-17129857D01*
X16437857Y-17158429D01*
X16423571Y-17201286D01*
X16252143Y-17372714D01*
X16437857Y-17372714D01*
X16795000Y-17372714D02*
X16795000Y-17072714D01*
X16923571Y-17372714D02*
X16923571Y-17215572D01*
X16909286Y-17187000D01*
X16880714Y-17172714D01*
X16837857Y-17172714D01*
X16809286Y-17187000D01*
X16795000Y-17201286D01*
X17109286Y-17372714D02*
X17080714Y-17358429D01*
X17066428Y-17344143D01*
X17052143Y-17315572D01*
X17052143Y-17229857D01*
X17066428Y-17201286D01*
X17080714Y-17187000D01*
X17109286Y-17172714D01*
X17152143Y-17172714D01*
X17180714Y-17187000D01*
X17195000Y-17201286D01*
X17209286Y-17229857D01*
X17209286Y-17315572D01*
X17195000Y-17344143D01*
X17180714Y-17358429D01*
X17152143Y-17372714D01*
X17109286Y-17372714D01*
X17380714Y-17372714D02*
X17352143Y-17358429D01*
X17337857Y-17329857D01*
X17337857Y-17072714D01*
X17609286Y-17358429D02*
X17580714Y-17372714D01*
X17523571Y-17372714D01*
X17495000Y-17358429D01*
X17480714Y-17329857D01*
X17480714Y-17215572D01*
X17495000Y-17187000D01*
X17523571Y-17172714D01*
X17580714Y-17172714D01*
X17609286Y-17187000D01*
X17623571Y-17215572D01*
X17623571Y-17244143D01*
X17480714Y-17272714D01*
X17737857Y-17358429D02*
X17766429Y-17372714D01*
X17823571Y-17372714D01*
X17852143Y-17358429D01*
X17866429Y-17329857D01*
X17866429Y-17315572D01*
X17852143Y-17287000D01*
X17823571Y-17272714D01*
X17780714Y-17272714D01*
X17752143Y-17258429D01*
X17737857Y-17229857D01*
X17737857Y-17215572D01*
X17752143Y-17187000D01*
X17780714Y-17172714D01*
X17823571Y-17172714D01*
X17852143Y-17187000D01*
X17966428Y-17487000D02*
X17980714Y-17472714D01*
X18009286Y-17429857D01*
X18023571Y-17401286D01*
X18037857Y-17358429D01*
X18052143Y-17287000D01*
X18052143Y-17229857D01*
X18037857Y-17158429D01*
X18023571Y-17115572D01*
X18009286Y-17087000D01*
X17980714Y-17044143D01*
X17966428Y-17029857D01*
X11315000Y-17543000D02*
X11495000Y-17723000D01*
X11495000Y-17543000D02*
X11315000Y-17723000D01*
X11405000Y-17723000D02*
X11495000Y-17633000D01*
X11405000Y-17543000D01*
X11315000Y-17633000D01*
X11405000Y-17723000D01*
X11923571Y-17768714D02*
X11752143Y-17768714D01*
X11837857Y-17768714D02*
X11837857Y-17468714D01*
X11809286Y-17511572D01*
X11780714Y-17540143D01*
X11752143Y-17554429D01*
X12052143Y-17740143D02*
X12066428Y-17754429D01*
X12052143Y-17768714D01*
X12037857Y-17754429D01*
X12052143Y-17740143D01*
X12052143Y-17768714D01*
X12237857Y-17597286D02*
X12209286Y-17583000D01*
X12195000Y-17568714D01*
X12180714Y-17540143D01*
X12180714Y-17525857D01*
X12195000Y-17497286D01*
X12209286Y-17483000D01*
X12237857Y-17468714D01*
X12295000Y-17468714D01*
X12323571Y-17483000D01*
X12337857Y-17497286D01*
X12352143Y-17525857D01*
X12352143Y-17540143D01*
X12337857Y-17568714D01*
X12323571Y-17583000D01*
X12295000Y-17597286D01*
X12237857Y-17597286D01*
X12209286Y-17611572D01*
X12195000Y-17625857D01*
X12180714Y-17654429D01*
X12180714Y-17711572D01*
X12195000Y-17740143D01*
X12209286Y-17754429D01*
X12237857Y-17768714D01*
X12295000Y-17768714D01*
X12323571Y-17754429D01*
X12337857Y-17740143D01*
X12352143Y-17711572D01*
X12352143Y-17654429D01*
X12337857Y-17625857D01*
X12323571Y-17611572D01*
X12295000Y-17597286D01*
X12537857Y-17468714D02*
X12566428Y-17468714D01*
X12595000Y-17483000D01*
X12609286Y-17497286D01*
X12623571Y-17525857D01*
X12637857Y-17583000D01*
X12637857Y-17654429D01*
X12623571Y-17711572D01*
X12609286Y-17740143D01*
X12595000Y-17754429D01*
X12566428Y-17768714D01*
X12537857Y-17768714D01*
X12509286Y-17754429D01*
X12495000Y-17740143D01*
X12480714Y-17711572D01*
X12466428Y-17654429D01*
X12466428Y-17583000D01*
X12480714Y-17525857D01*
X12495000Y-17497286D01*
X12509286Y-17483000D01*
X12537857Y-17468714D01*
X12766428Y-17768714D02*
X12766428Y-17568714D01*
X12766428Y-17597286D02*
X12780714Y-17583000D01*
X12809286Y-17568714D01*
X12852143Y-17568714D01*
X12880714Y-17583000D01*
X12895000Y-17611572D01*
X12895000Y-17768714D01*
X12895000Y-17611572D02*
X12909286Y-17583000D01*
X12937857Y-17568714D01*
X12980714Y-17568714D01*
X13009286Y-17583000D01*
X13023571Y-17611572D01*
X13023571Y-17768714D01*
X13166428Y-17768714D02*
X13166428Y-17568714D01*
X13166428Y-17597286D02*
X13180714Y-17583000D01*
X13209286Y-17568714D01*
X13252143Y-17568714D01*
X13280714Y-17583000D01*
X13295000Y-17611572D01*
X13295000Y-17768714D01*
X13295000Y-17611572D02*
X13309286Y-17583000D01*
X13337857Y-17568714D01*
X13380714Y-17568714D01*
X13409286Y-17583000D01*
X13423571Y-17611572D01*
X13423571Y-17768714D01*
X14009286Y-17454429D02*
X13752143Y-17840143D01*
X14395000Y-17468714D02*
X14423571Y-17468714D01*
X14452143Y-17483000D01*
X14466428Y-17497286D01*
X14480714Y-17525857D01*
X14495000Y-17583000D01*
X14495000Y-17654429D01*
X14480714Y-17711572D01*
X14466428Y-17740143D01*
X14452143Y-17754429D01*
X14423571Y-17768714D01*
X14395000Y-17768714D01*
X14366428Y-17754429D01*
X14352143Y-17740143D01*
X14337857Y-17711572D01*
X14323571Y-17654429D01*
X14323571Y-17583000D01*
X14337857Y-17525857D01*
X14352143Y-17497286D01*
X14366428Y-17483000D01*
X14395000Y-17468714D01*
X14623571Y-17740143D02*
X14637857Y-17754429D01*
X14623571Y-17768714D01*
X14609286Y-17754429D01*
X14623571Y-17740143D01*
X14623571Y-17768714D01*
X14823571Y-17468714D02*
X14852143Y-17468714D01*
X14880714Y-17483000D01*
X14895000Y-17497286D01*
X14909285Y-17525857D01*
X14923571Y-17583000D01*
X14923571Y-17654429D01*
X14909285Y-17711572D01*
X14895000Y-17740143D01*
X14880714Y-17754429D01*
X14852143Y-17768714D01*
X14823571Y-17768714D01*
X14795000Y-17754429D01*
X14780714Y-17740143D01*
X14766428Y-17711572D01*
X14752143Y-17654429D01*
X14752143Y-17583000D01*
X14766428Y-17525857D01*
X14780714Y-17497286D01*
X14795000Y-17483000D01*
X14823571Y-17468714D01*
X15023571Y-17468714D02*
X15223571Y-17468714D01*
X15095000Y-17768714D01*
X15495000Y-17768714D02*
X15323571Y-17768714D01*
X15409285Y-17768714D02*
X15409285Y-17468714D01*
X15380714Y-17511572D01*
X15352143Y-17540143D01*
X15323571Y-17554429D01*
X15609286Y-17468714D02*
X15609286Y-17525857D01*
X15723571Y-17468714D02*
X15723571Y-17525857D01*
X16166428Y-17883000D02*
X16152143Y-17868714D01*
X16123571Y-17825857D01*
X16109285Y-17797286D01*
X16095000Y-17754429D01*
X16080714Y-17683000D01*
X16080714Y-17625857D01*
X16095000Y-17554429D01*
X16109285Y-17511572D01*
X16123571Y-17483000D01*
X16152143Y-17440143D01*
X16166428Y-17425857D01*
X16266428Y-17497286D02*
X16280714Y-17483000D01*
X16309285Y-17468714D01*
X16380714Y-17468714D01*
X16409285Y-17483000D01*
X16423571Y-17497286D01*
X16437857Y-17525857D01*
X16437857Y-17554429D01*
X16423571Y-17597286D01*
X16252143Y-17768714D01*
X16437857Y-17768714D01*
X16795000Y-17768714D02*
X16795000Y-17468714D01*
X16923571Y-17768714D02*
X16923571Y-17611572D01*
X16909286Y-17583000D01*
X16880714Y-17568714D01*
X16837857Y-17568714D01*
X16809286Y-17583000D01*
X16795000Y-17597286D01*
X17109286Y-17768714D02*
X17080714Y-17754429D01*
X17066428Y-17740143D01*
X17052143Y-17711572D01*
X17052143Y-17625857D01*
X17066428Y-17597286D01*
X17080714Y-17583000D01*
X17109286Y-17568714D01*
X17152143Y-17568714D01*
X17180714Y-17583000D01*
X17195000Y-17597286D01*
X17209286Y-17625857D01*
X17209286Y-17711572D01*
X17195000Y-17740143D01*
X17180714Y-17754429D01*
X17152143Y-17768714D01*
X17109286Y-17768714D01*
X17380714Y-17768714D02*
X17352143Y-17754429D01*
X17337857Y-17725857D01*
X17337857Y-17468714D01*
X17609286Y-17754429D02*
X17580714Y-17768714D01*
X17523571Y-17768714D01*
X17495000Y-17754429D01*
X17480714Y-17725857D01*
X17480714Y-17611572D01*
X17495000Y-17583000D01*
X17523571Y-17568714D01*
X17580714Y-17568714D01*
X17609286Y-17583000D01*
X17623571Y-17611572D01*
X17623571Y-17640143D01*
X17480714Y-17668714D01*
X17737857Y-17754429D02*
X17766429Y-17768714D01*
X17823571Y-17768714D01*
X17852143Y-17754429D01*
X17866429Y-17725857D01*
X17866429Y-17711572D01*
X17852143Y-17683000D01*
X17823571Y-17668714D01*
X17780714Y-17668714D01*
X17752143Y-17654429D01*
X17737857Y-17625857D01*
X17737857Y-17611572D01*
X17752143Y-17583000D01*
X17780714Y-17568714D01*
X17823571Y-17568714D01*
X17852143Y-17583000D01*
X17966428Y-17883000D02*
X17980714Y-17868714D01*
X18009286Y-17825857D01*
X18023571Y-17797286D01*
X18037857Y-17754429D01*
X18052143Y-17683000D01*
X18052143Y-17625857D01*
X18037857Y-17554429D01*
X18023571Y-17511572D01*
X18009286Y-17483000D01*
X17980714Y-17440143D01*
X17966428Y-17425857D01*
X11300000Y-17834000D02*
X11300000Y-18224000D01*
X11105000Y-18029000D02*
X11495000Y-18029000D01*
X11495000Y-18029000D02*
G75*
G03X11495000Y-18029000I-195000J0D01*
G01*
X11737857Y-17864714D02*
X11923571Y-17864714D01*
X11823571Y-17979000D01*
X11866428Y-17979000D01*
X11895000Y-17993286D01*
X11909286Y-18007572D01*
X11923571Y-18036143D01*
X11923571Y-18107572D01*
X11909286Y-18136143D01*
X11895000Y-18150429D01*
X11866428Y-18164714D01*
X11780714Y-18164714D01*
X11752143Y-18150429D01*
X11737857Y-18136143D01*
X12052143Y-18136143D02*
X12066428Y-18150429D01*
X12052143Y-18164714D01*
X12037857Y-18150429D01*
X12052143Y-18136143D01*
X12052143Y-18164714D01*
X12209286Y-18164714D02*
X12266428Y-18164714D01*
X12295000Y-18150429D01*
X12309286Y-18136143D01*
X12337857Y-18093286D01*
X12352143Y-18036143D01*
X12352143Y-17921857D01*
X12337857Y-17893286D01*
X12323571Y-17879000D01*
X12295000Y-17864714D01*
X12237857Y-17864714D01*
X12209286Y-17879000D01*
X12195000Y-17893286D01*
X12180714Y-17921857D01*
X12180714Y-17993286D01*
X12195000Y-18021857D01*
X12209286Y-18036143D01*
X12237857Y-18050429D01*
X12295000Y-18050429D01*
X12323571Y-18036143D01*
X12337857Y-18021857D01*
X12352143Y-17993286D01*
X12537857Y-17864714D02*
X12566428Y-17864714D01*
X12595000Y-17879000D01*
X12609286Y-17893286D01*
X12623571Y-17921857D01*
X12637857Y-17979000D01*
X12637857Y-18050429D01*
X12623571Y-18107572D01*
X12609286Y-18136143D01*
X12595000Y-18150429D01*
X12566428Y-18164714D01*
X12537857Y-18164714D01*
X12509286Y-18150429D01*
X12495000Y-18136143D01*
X12480714Y-18107572D01*
X12466428Y-18050429D01*
X12466428Y-17979000D01*
X12480714Y-17921857D01*
X12495000Y-17893286D01*
X12509286Y-17879000D01*
X12537857Y-17864714D01*
X12766428Y-18164714D02*
X12766428Y-17964714D01*
X12766428Y-17993286D02*
X12780714Y-17979000D01*
X12809286Y-17964714D01*
X12852143Y-17964714D01*
X12880714Y-17979000D01*
X12895000Y-18007572D01*
X12895000Y-18164714D01*
X12895000Y-18007572D02*
X12909286Y-17979000D01*
X12937857Y-17964714D01*
X12980714Y-17964714D01*
X13009286Y-17979000D01*
X13023571Y-18007572D01*
X13023571Y-18164714D01*
X13166428Y-18164714D02*
X13166428Y-17964714D01*
X13166428Y-17993286D02*
X13180714Y-17979000D01*
X13209286Y-17964714D01*
X13252143Y-17964714D01*
X13280714Y-17979000D01*
X13295000Y-18007572D01*
X13295000Y-18164714D01*
X13295000Y-18007572D02*
X13309286Y-17979000D01*
X13337857Y-17964714D01*
X13380714Y-17964714D01*
X13409286Y-17979000D01*
X13423571Y-18007572D01*
X13423571Y-18164714D01*
X14009286Y-17850429D02*
X13752143Y-18236143D01*
X14395000Y-17864714D02*
X14423571Y-17864714D01*
X14452143Y-17879000D01*
X14466428Y-17893286D01*
X14480714Y-17921857D01*
X14495000Y-17979000D01*
X14495000Y-18050429D01*
X14480714Y-18107572D01*
X14466428Y-18136143D01*
X14452143Y-18150429D01*
X14423571Y-18164714D01*
X14395000Y-18164714D01*
X14366428Y-18150429D01*
X14352143Y-18136143D01*
X14337857Y-18107572D01*
X14323571Y-18050429D01*
X14323571Y-17979000D01*
X14337857Y-17921857D01*
X14352143Y-17893286D01*
X14366428Y-17879000D01*
X14395000Y-17864714D01*
X14623571Y-18136143D02*
X14637857Y-18150429D01*
X14623571Y-18164714D01*
X14609286Y-18150429D01*
X14623571Y-18136143D01*
X14623571Y-18164714D01*
X14923571Y-18164714D02*
X14752143Y-18164714D01*
X14837857Y-18164714D02*
X14837857Y-17864714D01*
X14809285Y-17907572D01*
X14780714Y-17936143D01*
X14752143Y-17950429D01*
X15195000Y-17864714D02*
X15052143Y-17864714D01*
X15037857Y-18007572D01*
X15052143Y-17993286D01*
X15080714Y-17979000D01*
X15152143Y-17979000D01*
X15180714Y-17993286D01*
X15195000Y-18007572D01*
X15209285Y-18036143D01*
X15209285Y-18107572D01*
X15195000Y-18136143D01*
X15180714Y-18150429D01*
X15152143Y-18164714D01*
X15080714Y-18164714D01*
X15052143Y-18150429D01*
X15037857Y-18136143D01*
X15466428Y-17964714D02*
X15466428Y-18164714D01*
X15395000Y-17850429D02*
X15323571Y-18064714D01*
X15509285Y-18064714D01*
X15609286Y-17864714D02*
X15609286Y-17921857D01*
X15723571Y-17864714D02*
X15723571Y-17921857D01*
X16166428Y-18279000D02*
X16152143Y-18264714D01*
X16123571Y-18221857D01*
X16109285Y-18193286D01*
X16095000Y-18150429D01*
X16080714Y-18079000D01*
X16080714Y-18021857D01*
X16095000Y-17950429D01*
X16109285Y-17907572D01*
X16123571Y-17879000D01*
X16152143Y-17836143D01*
X16166428Y-17821857D01*
X16409285Y-17964714D02*
X16409285Y-18164714D01*
X16337857Y-17850429D02*
X16266428Y-18064714D01*
X16452143Y-18064714D01*
X16795000Y-18164714D02*
X16795000Y-17864714D01*
X16923571Y-18164714D02*
X16923571Y-18007572D01*
X16909286Y-17979000D01*
X16880714Y-17964714D01*
X16837857Y-17964714D01*
X16809286Y-17979000D01*
X16795000Y-17993286D01*
X17109286Y-18164714D02*
X17080714Y-18150429D01*
X17066428Y-18136143D01*
X17052143Y-18107572D01*
X17052143Y-18021857D01*
X17066428Y-17993286D01*
X17080714Y-17979000D01*
X17109286Y-17964714D01*
X17152143Y-17964714D01*
X17180714Y-17979000D01*
X17195000Y-17993286D01*
X17209286Y-18021857D01*
X17209286Y-18107572D01*
X17195000Y-18136143D01*
X17180714Y-18150429D01*
X17152143Y-18164714D01*
X17109286Y-18164714D01*
X17380714Y-18164714D02*
X17352143Y-18150429D01*
X17337857Y-18121857D01*
X17337857Y-17864714D01*
X17609286Y-18150429D02*
X17580714Y-18164714D01*
X17523571Y-18164714D01*
X17495000Y-18150429D01*
X17480714Y-18121857D01*
X17480714Y-18007572D01*
X17495000Y-17979000D01*
X17523571Y-17964714D01*
X17580714Y-17964714D01*
X17609286Y-17979000D01*
X17623571Y-18007572D01*
X17623571Y-18036143D01*
X17480714Y-18064714D01*
X17737857Y-18150429D02*
X17766429Y-18164714D01*
X17823571Y-18164714D01*
X17852143Y-18150429D01*
X17866429Y-18121857D01*
X17866429Y-18107572D01*
X17852143Y-18079000D01*
X17823571Y-18064714D01*
X17780714Y-18064714D01*
X17752143Y-18050429D01*
X17737857Y-18021857D01*
X17737857Y-18007572D01*
X17752143Y-17979000D01*
X17780714Y-17964714D01*
X17823571Y-17964714D01*
X17852143Y-17979000D01*
X17966428Y-18279000D02*
X17980714Y-18264714D01*
X18009286Y-18221857D01*
X18023571Y-18193286D01*
X18037857Y-18150429D01*
X18052143Y-18079000D01*
X18052143Y-18021857D01*
X18037857Y-17950429D01*
X18023571Y-17907572D01*
X18009286Y-17879000D01*
X17980714Y-17836143D01*
X17966428Y-17821857D01*
X11407142Y-18761116D02*
X11407142Y-18336884D01*
X10982910Y-18336884D01*
X10982910Y-18761116D01*
X11407142Y-18761116D01*
X11495000Y-18549000D02*
G75*
G03X11495000Y-18549000I-299974J0D01*
G01*
X11895000Y-18384714D02*
X11837857Y-18384714D01*
X11809286Y-18399000D01*
X11795000Y-18413286D01*
X11766428Y-18456143D01*
X11752143Y-18513286D01*
X11752143Y-18627572D01*
X11766428Y-18656143D01*
X11780714Y-18670429D01*
X11809286Y-18684714D01*
X11866428Y-18684714D01*
X11895000Y-18670429D01*
X11909286Y-18656143D01*
X11923571Y-18627572D01*
X11923571Y-18556143D01*
X11909286Y-18527572D01*
X11895000Y-18513286D01*
X11866428Y-18499000D01*
X11809286Y-18499000D01*
X11780714Y-18513286D01*
X11766428Y-18527572D01*
X11752143Y-18556143D01*
X12052143Y-18656143D02*
X12066428Y-18670429D01*
X12052143Y-18684714D01*
X12037857Y-18670429D01*
X12052143Y-18656143D01*
X12052143Y-18684714D01*
X12252143Y-18384714D02*
X12280714Y-18384714D01*
X12309286Y-18399000D01*
X12323571Y-18413286D01*
X12337857Y-18441857D01*
X12352143Y-18499000D01*
X12352143Y-18570429D01*
X12337857Y-18627572D01*
X12323571Y-18656143D01*
X12309286Y-18670429D01*
X12280714Y-18684714D01*
X12252143Y-18684714D01*
X12223571Y-18670429D01*
X12209286Y-18656143D01*
X12195000Y-18627572D01*
X12180714Y-18570429D01*
X12180714Y-18499000D01*
X12195000Y-18441857D01*
X12209286Y-18413286D01*
X12223571Y-18399000D01*
X12252143Y-18384714D01*
X12537857Y-18384714D02*
X12566428Y-18384714D01*
X12595000Y-18399000D01*
X12609286Y-18413286D01*
X12623571Y-18441857D01*
X12637857Y-18499000D01*
X12637857Y-18570429D01*
X12623571Y-18627572D01*
X12609286Y-18656143D01*
X12595000Y-18670429D01*
X12566428Y-18684714D01*
X12537857Y-18684714D01*
X12509286Y-18670429D01*
X12495000Y-18656143D01*
X12480714Y-18627572D01*
X12466428Y-18570429D01*
X12466428Y-18499000D01*
X12480714Y-18441857D01*
X12495000Y-18413286D01*
X12509286Y-18399000D01*
X12537857Y-18384714D01*
X12766428Y-18684714D02*
X12766428Y-18484714D01*
X12766428Y-18513286D02*
X12780714Y-18499000D01*
X12809286Y-18484714D01*
X12852143Y-18484714D01*
X12880714Y-18499000D01*
X12895000Y-18527572D01*
X12895000Y-18684714D01*
X12895000Y-18527572D02*
X12909286Y-18499000D01*
X12937857Y-18484714D01*
X12980714Y-18484714D01*
X13009286Y-18499000D01*
X13023571Y-18527572D01*
X13023571Y-18684714D01*
X13166428Y-18684714D02*
X13166428Y-18484714D01*
X13166428Y-18513286D02*
X13180714Y-18499000D01*
X13209286Y-18484714D01*
X13252143Y-18484714D01*
X13280714Y-18499000D01*
X13295000Y-18527572D01*
X13295000Y-18684714D01*
X13295000Y-18527572D02*
X13309286Y-18499000D01*
X13337857Y-18484714D01*
X13380714Y-18484714D01*
X13409286Y-18499000D01*
X13423571Y-18527572D01*
X13423571Y-18684714D01*
X14009286Y-18370429D02*
X13752143Y-18756143D01*
X14395000Y-18384714D02*
X14423571Y-18384714D01*
X14452143Y-18399000D01*
X14466428Y-18413286D01*
X14480714Y-18441857D01*
X14495000Y-18499000D01*
X14495000Y-18570429D01*
X14480714Y-18627572D01*
X14466428Y-18656143D01*
X14452143Y-18670429D01*
X14423571Y-18684714D01*
X14395000Y-18684714D01*
X14366428Y-18670429D01*
X14352143Y-18656143D01*
X14337857Y-18627572D01*
X14323571Y-18570429D01*
X14323571Y-18499000D01*
X14337857Y-18441857D01*
X14352143Y-18413286D01*
X14366428Y-18399000D01*
X14395000Y-18384714D01*
X14623571Y-18656143D02*
X14637857Y-18670429D01*
X14623571Y-18684714D01*
X14609286Y-18670429D01*
X14623571Y-18656143D01*
X14623571Y-18684714D01*
X14752143Y-18413286D02*
X14766428Y-18399000D01*
X14795000Y-18384714D01*
X14866428Y-18384714D01*
X14895000Y-18399000D01*
X14909285Y-18413286D01*
X14923571Y-18441857D01*
X14923571Y-18470429D01*
X14909285Y-18513286D01*
X14737857Y-18684714D01*
X14923571Y-18684714D01*
X15023571Y-18384714D02*
X15209285Y-18384714D01*
X15109285Y-18499000D01*
X15152143Y-18499000D01*
X15180714Y-18513286D01*
X15195000Y-18527572D01*
X15209285Y-18556143D01*
X15209285Y-18627572D01*
X15195000Y-18656143D01*
X15180714Y-18670429D01*
X15152143Y-18684714D01*
X15066428Y-18684714D01*
X15037857Y-18670429D01*
X15023571Y-18656143D01*
X15466428Y-18384714D02*
X15409285Y-18384714D01*
X15380714Y-18399000D01*
X15366428Y-18413286D01*
X15337857Y-18456143D01*
X15323571Y-18513286D01*
X15323571Y-18627572D01*
X15337857Y-18656143D01*
X15352143Y-18670429D01*
X15380714Y-18684714D01*
X15437857Y-18684714D01*
X15466428Y-18670429D01*
X15480714Y-18656143D01*
X15495000Y-18627572D01*
X15495000Y-18556143D01*
X15480714Y-18527572D01*
X15466428Y-18513286D01*
X15437857Y-18499000D01*
X15380714Y-18499000D01*
X15352143Y-18513286D01*
X15337857Y-18527572D01*
X15323571Y-18556143D01*
X15609286Y-18384714D02*
X15609286Y-18441857D01*
X15723571Y-18384714D02*
X15723571Y-18441857D01*
X16166428Y-18799000D02*
X16152143Y-18784714D01*
X16123571Y-18741857D01*
X16109285Y-18713286D01*
X16095000Y-18670429D01*
X16080714Y-18599000D01*
X16080714Y-18541857D01*
X16095000Y-18470429D01*
X16109285Y-18427572D01*
X16123571Y-18399000D01*
X16152143Y-18356143D01*
X16166428Y-18341857D01*
X16437857Y-18684714D02*
X16266428Y-18684714D01*
X16352143Y-18684714D02*
X16352143Y-18384714D01*
X16323571Y-18427572D01*
X16295000Y-18456143D01*
X16266428Y-18470429D01*
X16795000Y-18684714D02*
X16795000Y-18384714D01*
X16923571Y-18684714D02*
X16923571Y-18527572D01*
X16909286Y-18499000D01*
X16880714Y-18484714D01*
X16837857Y-18484714D01*
X16809286Y-18499000D01*
X16795000Y-18513286D01*
X17109286Y-18684714D02*
X17080714Y-18670429D01*
X17066428Y-18656143D01*
X17052143Y-18627572D01*
X17052143Y-18541857D01*
X17066428Y-18513286D01*
X17080714Y-18499000D01*
X17109286Y-18484714D01*
X17152143Y-18484714D01*
X17180714Y-18499000D01*
X17195000Y-18513286D01*
X17209286Y-18541857D01*
X17209286Y-18627572D01*
X17195000Y-18656143D01*
X17180714Y-18670429D01*
X17152143Y-18684714D01*
X17109286Y-18684714D01*
X17380714Y-18684714D02*
X17352143Y-18670429D01*
X17337857Y-18641857D01*
X17337857Y-18384714D01*
X17609286Y-18670429D02*
X17580714Y-18684714D01*
X17523571Y-18684714D01*
X17495000Y-18670429D01*
X17480714Y-18641857D01*
X17480714Y-18527572D01*
X17495000Y-18499000D01*
X17523571Y-18484714D01*
X17580714Y-18484714D01*
X17609286Y-18499000D01*
X17623571Y-18527572D01*
X17623571Y-18556143D01*
X17480714Y-18584714D01*
X17723571Y-18799000D02*
X17737857Y-18784714D01*
X17766429Y-18741857D01*
X17780714Y-18713286D01*
X17795000Y-18670429D01*
X17809286Y-18599000D01*
X17809286Y-18541857D01*
X17795000Y-18470429D01*
X17780714Y-18427572D01*
X17766429Y-18399000D01*
X17737857Y-18356143D01*
X17723571Y-18341857D01*
M02*
