G04 #@! TF.FileFunction,Soldermask,Top*
%FSLAX46Y46*%
G04 Gerber Fmt 4.6, Leading zero omitted, Abs format (unit mm)*
G04 Created by KiCad (PCBNEW 4.0.1-stable) date 02/05/2016 08:37:44*
%MOMM*%
G01*
G04 APERTURE LIST*
%ADD10C,0.100000*%
%ADD11R,1.000000X1.250000*%
%ADD12R,1.250000X1.000000*%
%ADD13C,3.500000*%
%ADD14C,2.000000*%
%ADD15C,1.524000*%
%ADD16C,6.350000*%
%ADD17R,2.032000X2.032000*%
%ADD18O,2.032000X2.032000*%
%ADD19R,1.500000X1.300000*%
%ADD20C,2.540000*%
%ADD21C,1.727200*%
%ADD22C,1.998980*%
%ADD23R,0.600000X1.550000*%
%ADD24R,1.727200X1.727200*%
%ADD25O,1.727200X1.727200*%
%ADD26O,1.501140X2.499360*%
%ADD27R,1.300000X1.500000*%
%ADD28C,0.889000*%
G04 APERTURE END LIST*
D10*
D11*
X158575500Y-123507500D03*
X160575500Y-123507500D03*
D12*
X156019500Y-129016000D03*
X156019500Y-127016000D03*
D11*
X164004500Y-130619500D03*
X162004500Y-130619500D03*
X166957500Y-123698000D03*
X168957500Y-123698000D03*
X123460000Y-130048000D03*
X125460000Y-130048000D03*
X125714000Y-74930000D03*
X123714000Y-74930000D03*
X158766000Y-58166000D03*
X160766000Y-58166000D03*
D13*
X192024000Y-53330000D03*
X192024000Y-45730000D03*
D14*
X184224000Y-49530000D03*
D15*
X122301000Y-93599000D03*
X124841000Y-93599000D03*
X119761000Y-93599000D03*
D11*
X158766000Y-112522000D03*
X160766000Y-112522000D03*
X161020000Y-71120000D03*
X159020000Y-71120000D03*
X160766000Y-82296000D03*
X158766000Y-82296000D03*
X160512000Y-93218000D03*
X158512000Y-93218000D03*
X160766000Y-104140000D03*
X158766000Y-104140000D03*
D16*
X191008000Y-39116000D03*
X119126000Y-39116000D03*
X191008000Y-131064000D03*
X119126000Y-131064000D03*
D17*
X117792500Y-99441000D03*
D18*
X117792500Y-101981000D03*
D11*
X158766000Y-79756000D03*
X160766000Y-79756000D03*
X158512000Y-90932000D03*
X160512000Y-90932000D03*
X158766000Y-101854000D03*
X160766000Y-101854000D03*
X161020000Y-60706000D03*
X159020000Y-60706000D03*
X160766000Y-114808000D03*
X158766000Y-114808000D03*
X161306000Y-66040000D03*
X163306000Y-66040000D03*
X159242000Y-131572000D03*
X157242000Y-131572000D03*
X158766000Y-68834000D03*
X160766000Y-68834000D03*
X161242500Y-76771500D03*
X163242500Y-76771500D03*
X161306000Y-87630000D03*
X163306000Y-87630000D03*
X161242500Y-98488500D03*
X163242500Y-98488500D03*
X161179000Y-109664500D03*
X163179000Y-109664500D03*
X161179000Y-120523000D03*
X163179000Y-120523000D03*
X166227000Y-61976000D03*
X164227000Y-61976000D03*
X166100000Y-72136000D03*
X164100000Y-72136000D03*
X166354000Y-83312000D03*
X164354000Y-83312000D03*
X166354000Y-94234000D03*
X164354000Y-94234000D03*
X166354000Y-105156000D03*
X164354000Y-105156000D03*
X166354000Y-116332000D03*
X164354000Y-116332000D03*
X169148000Y-58166000D03*
X167148000Y-58166000D03*
X169402000Y-68580000D03*
X167402000Y-68580000D03*
X169148000Y-79502000D03*
X167148000Y-79502000D03*
X169148000Y-90424000D03*
X167148000Y-90424000D03*
X169402000Y-101346000D03*
X167402000Y-101346000D03*
X169148000Y-112268000D03*
X167148000Y-112268000D03*
X173212000Y-62992000D03*
X171212000Y-62992000D03*
X173466000Y-73660000D03*
X171466000Y-73660000D03*
X173466000Y-84582000D03*
X171466000Y-84582000D03*
X173466000Y-95504000D03*
X171466000Y-95504000D03*
X173466000Y-106426000D03*
X171466000Y-106426000D03*
X173466000Y-116840000D03*
X171466000Y-116840000D03*
X171942000Y-65786000D03*
X169942000Y-65786000D03*
X171942000Y-76454000D03*
X169942000Y-76454000D03*
X171942000Y-87376000D03*
X169942000Y-87376000D03*
X171942000Y-98552000D03*
X169942000Y-98552000D03*
X171942000Y-109474000D03*
X169942000Y-109474000D03*
X171942000Y-120142000D03*
X169942000Y-120142000D03*
D15*
X159004000Y-45466000D03*
X156464000Y-45466000D03*
X146304000Y-45466000D03*
X146304000Y-53086000D03*
X159004000Y-53086000D03*
X156464000Y-53086000D03*
X140208000Y-65786000D03*
X142748000Y-65786000D03*
X152908000Y-65786000D03*
X152908000Y-58166000D03*
X140208000Y-58166000D03*
X142748000Y-58166000D03*
X140208000Y-76708000D03*
X142748000Y-76708000D03*
X152908000Y-76708000D03*
X152908000Y-69088000D03*
X140208000Y-69088000D03*
X142748000Y-69088000D03*
X140208000Y-87630000D03*
X142748000Y-87630000D03*
X152908000Y-87630000D03*
X152908000Y-80010000D03*
X140208000Y-80010000D03*
X142748000Y-80010000D03*
X140208000Y-98552000D03*
X142748000Y-98552000D03*
X152908000Y-98552000D03*
X152908000Y-90932000D03*
X140208000Y-90932000D03*
X142748000Y-90932000D03*
X140208000Y-109474000D03*
X142748000Y-109474000D03*
X152908000Y-109474000D03*
X152908000Y-101854000D03*
X140208000Y-101854000D03*
X142748000Y-101854000D03*
X140208000Y-120396000D03*
X142748000Y-120396000D03*
X152908000Y-120396000D03*
X152908000Y-112776000D03*
X140208000Y-112776000D03*
X142748000Y-112776000D03*
X140144500Y-131191000D03*
X142684500Y-131191000D03*
X152844500Y-131191000D03*
X152844500Y-123571000D03*
X140144500Y-123571000D03*
X142684500Y-123571000D03*
X190500000Y-58166000D03*
X187960000Y-58166000D03*
X177800000Y-58166000D03*
X177800000Y-65786000D03*
X190500000Y-65786000D03*
X187960000Y-65786000D03*
X190500000Y-69088000D03*
X187960000Y-69088000D03*
X177800000Y-69088000D03*
X177800000Y-76708000D03*
X190500000Y-76708000D03*
X187960000Y-76708000D03*
X190500000Y-80010000D03*
X187960000Y-80010000D03*
X177800000Y-80010000D03*
X177800000Y-87630000D03*
X190500000Y-87630000D03*
X187960000Y-87630000D03*
X190500000Y-90932000D03*
X187960000Y-90932000D03*
X177800000Y-90932000D03*
X177800000Y-98552000D03*
X190500000Y-98552000D03*
X187960000Y-98552000D03*
X190500000Y-101854000D03*
X187960000Y-101854000D03*
X177800000Y-101854000D03*
X177800000Y-109474000D03*
X190500000Y-109474000D03*
X187960000Y-109474000D03*
X190500000Y-112522000D03*
X187960000Y-112522000D03*
X177800000Y-112522000D03*
X177800000Y-120142000D03*
X190500000Y-120142000D03*
X187960000Y-120142000D03*
D17*
X118046500Y-49847500D03*
D18*
X118046500Y-47307500D03*
D17*
X136461500Y-42227500D03*
D18*
X139001500Y-42227500D03*
D19*
X123364000Y-70866000D03*
X126064000Y-70866000D03*
D20*
X119984000Y-59436000D03*
D21*
X123984000Y-59436000D03*
D20*
X127984000Y-59436000D03*
D21*
X131984000Y-59436000D03*
D22*
X155956000Y-58166000D03*
X158496000Y-65786000D03*
X155956000Y-69088000D03*
X158496000Y-76708000D03*
X155956000Y-80010000D03*
X158496000Y-87630000D03*
X155956000Y-90932000D03*
X158496000Y-98552000D03*
X155956000Y-101854000D03*
X158496000Y-109474000D03*
X155956000Y-112776000D03*
X158496000Y-120396000D03*
X161544000Y-63500000D03*
X169164000Y-60960000D03*
X161544000Y-73660000D03*
X169164000Y-71120000D03*
X161544000Y-84836000D03*
X169164000Y-82296000D03*
X161544000Y-95758000D03*
X169164000Y-93218000D03*
X161544000Y-106680000D03*
X169164000Y-104140000D03*
X161544000Y-117602000D03*
X169164000Y-115062000D03*
X172212000Y-58166000D03*
X174752000Y-65786000D03*
X172212000Y-69088000D03*
X174752000Y-76708000D03*
X172212000Y-80010000D03*
X174752000Y-87630000D03*
X172212000Y-90932000D03*
X174752000Y-98552000D03*
X172212000Y-101854000D03*
X174752000Y-109474000D03*
X172212000Y-112522000D03*
X174752000Y-120142000D03*
D12*
X169418000Y-128571500D03*
X169418000Y-126571500D03*
D11*
X169338500Y-131699000D03*
X167338500Y-131699000D03*
D22*
X143507460Y-47498000D03*
X136908540Y-47498000D03*
D19*
X132096500Y-122999500D03*
X129396500Y-122999500D03*
D11*
X122952000Y-126492000D03*
X124952000Y-126492000D03*
D15*
X184848500Y-123317000D03*
X182308500Y-123317000D03*
X172148500Y-123317000D03*
X172148500Y-130937000D03*
X184848500Y-130937000D03*
X182308500Y-130937000D03*
D23*
X127381000Y-131732000D03*
X128651000Y-131732000D03*
X129921000Y-131732000D03*
X131191000Y-131732000D03*
X131191000Y-126332000D03*
X129921000Y-126332000D03*
X128651000Y-126332000D03*
X127381000Y-126332000D03*
D17*
X161925000Y-46355000D03*
D18*
X161925000Y-48895000D03*
D24*
X121666000Y-124206000D03*
D25*
X119126000Y-124206000D03*
X121666000Y-121666000D03*
X119126000Y-121666000D03*
X121666000Y-119126000D03*
X119126000Y-119126000D03*
X121666000Y-116586000D03*
X119126000Y-116586000D03*
X121666000Y-114046000D03*
X119126000Y-114046000D03*
X121666000Y-111506000D03*
X119126000Y-111506000D03*
X121666000Y-108966000D03*
X119126000Y-108966000D03*
D26*
X125730000Y-66548000D03*
X128270000Y-66548000D03*
X123190000Y-66548000D03*
D27*
X158559500Y-126539000D03*
X158559500Y-129239000D03*
D19*
X161591000Y-127825500D03*
X164291000Y-127825500D03*
D27*
X166941500Y-126475500D03*
X166941500Y-129175500D03*
D28*
X168973500Y-122110500D03*
X162179000Y-123380500D03*
X165862000Y-132016500D03*
X155765500Y-131508500D03*
X165925500Y-112395000D03*
X162115500Y-112649000D03*
X168592500Y-120142000D03*
X164592000Y-120586500D03*
X168465500Y-109537500D03*
X164528500Y-109664500D03*
X165925500Y-101282500D03*
X162242500Y-101854000D03*
X168592500Y-98615500D03*
X164592000Y-98488500D03*
X165798500Y-90424000D03*
X161925000Y-90932000D03*
X168529000Y-87376000D03*
X164719000Y-87630000D03*
X165735000Y-79502000D03*
X162179000Y-79756000D03*
X168465500Y-76454000D03*
X164719000Y-76771500D03*
X165989000Y-68643500D03*
X162242500Y-68834000D03*
X164782500Y-66040000D03*
X168529000Y-65786000D03*
X165671500Y-58166000D03*
X162306000Y-58166000D03*
X169989500Y-53149500D03*
X134937500Y-132524500D03*
X159004000Y-47244000D03*
X127508000Y-77470000D03*
X133858000Y-62230000D03*
X131064000Y-50562000D03*
X127508000Y-50562000D03*
X123952000Y-50562000D03*
X143256000Y-50292000D03*
X176784000Y-53166000D03*
X149860000Y-59944000D03*
X125857000Y-131826000D03*
X128397000Y-129794000D03*
X120904000Y-71962000D03*
X128714500Y-128016000D03*
M02*
