%FSLAX46Y46*%
G04 Gerber Fmt 4.6, Leading zero omitted, Abs format (unit mm)*
G04 Created by KiCad (PCBNEW (2014-10-27 BZR 5228)-product) date 05/09/2015 08:34:33*
%MOMM*%
G01*
G04 APERTURE LIST*
%ADD10C,0.100000*%
%ADD11C,3.500000*%
%ADD12C,2.000000*%
%ADD13C,1.524000*%
%ADD14C,6.350000*%
%ADD15R,2.032000X2.032000*%
%ADD16O,2.032000X2.032000*%
%ADD17O,1.501140X2.499360*%
%ADD18C,2.540000*%
%ADD19C,1.727200*%
%ADD20C,1.998980*%
%ADD21R,1.727200X1.727200*%
%ADD22O,1.727200X1.727200*%
%ADD23R,1.800000X1.800000*%
%ADD24C,1.800000*%
%ADD25C,0.889000*%
%ADD26C,0.910000*%
%ADD27C,1.270000*%
%ADD28C,0.381000*%
%ADD29C,0.254000*%
G04 APERTURE END LIST*
D10*
D11*
X192024000Y-53330000D03*
X192024000Y-45730000D03*
D12*
X184224000Y-49530000D03*
D13*
X118364000Y-91440000D03*
X118364000Y-93980000D03*
X118364000Y-88900000D03*
D14*
X191008000Y-39116000D03*
X119126000Y-39116000D03*
X191008000Y-131064000D03*
X119126000Y-131064000D03*
D15*
X117856000Y-103505000D03*
D16*
X117856000Y-106045000D03*
D13*
X159004000Y-45466000D03*
X156464000Y-45466000D03*
X146304000Y-45466000D03*
X146304000Y-53086000D03*
X159004000Y-53086000D03*
X156464000Y-53086000D03*
X140208000Y-65786000D03*
X142748000Y-65786000D03*
X152908000Y-65786000D03*
X152908000Y-58166000D03*
X140208000Y-58166000D03*
X142748000Y-58166000D03*
X140208000Y-76708000D03*
X142748000Y-76708000D03*
X152908000Y-76708000D03*
X152908000Y-69088000D03*
X140208000Y-69088000D03*
X142748000Y-69088000D03*
X140208000Y-87630000D03*
X142748000Y-87630000D03*
X152908000Y-87630000D03*
X152908000Y-80010000D03*
X140208000Y-80010000D03*
X142748000Y-80010000D03*
X140208000Y-98552000D03*
X142748000Y-98552000D03*
X152908000Y-98552000D03*
X152908000Y-90932000D03*
X140208000Y-90932000D03*
X142748000Y-90932000D03*
X140208000Y-109474000D03*
X142748000Y-109474000D03*
X152908000Y-109474000D03*
X152908000Y-101854000D03*
X140208000Y-101854000D03*
X142748000Y-101854000D03*
X140208000Y-120396000D03*
X142748000Y-120396000D03*
X152908000Y-120396000D03*
X152908000Y-112776000D03*
X140208000Y-112776000D03*
X142748000Y-112776000D03*
X140208000Y-131826000D03*
X142748000Y-131826000D03*
X152908000Y-131826000D03*
X152908000Y-124206000D03*
X140208000Y-124206000D03*
X142748000Y-124206000D03*
X190500000Y-58166000D03*
X187960000Y-58166000D03*
X177800000Y-58166000D03*
X177800000Y-65786000D03*
X190500000Y-65786000D03*
X187960000Y-65786000D03*
X190500000Y-69088000D03*
X187960000Y-69088000D03*
X177800000Y-69088000D03*
X177800000Y-76708000D03*
X190500000Y-76708000D03*
X187960000Y-76708000D03*
X190500000Y-80010000D03*
X187960000Y-80010000D03*
X177800000Y-80010000D03*
X177800000Y-87630000D03*
X190500000Y-87630000D03*
X187960000Y-87630000D03*
X190500000Y-90932000D03*
X187960000Y-90932000D03*
X177800000Y-90932000D03*
X177800000Y-98552000D03*
X190500000Y-98552000D03*
X187960000Y-98552000D03*
X190500000Y-101854000D03*
X187960000Y-101854000D03*
X177800000Y-101854000D03*
X177800000Y-109474000D03*
X190500000Y-109474000D03*
X187960000Y-109474000D03*
X190500000Y-112522000D03*
X187960000Y-112522000D03*
X177800000Y-112522000D03*
X177800000Y-120142000D03*
X190500000Y-120142000D03*
X187960000Y-120142000D03*
D15*
X146812000Y-38100000D03*
D16*
X149352000Y-38100000D03*
D15*
X136144000Y-38100000D03*
D16*
X138684000Y-38100000D03*
D17*
X125730000Y-66548000D03*
X128270000Y-66548000D03*
X123190000Y-66548000D03*
D18*
X119984000Y-59436000D03*
D19*
X123984000Y-59436000D03*
D18*
X127984000Y-59436000D03*
D19*
X131984000Y-59436000D03*
D20*
X179324000Y-39624000D03*
X171704000Y-42164000D03*
X168656000Y-45212000D03*
X166116000Y-37592000D03*
X155956000Y-58166000D03*
X158496000Y-65786000D03*
X155956000Y-69088000D03*
X158496000Y-76708000D03*
X155956000Y-80010000D03*
X158496000Y-87630000D03*
X155956000Y-90932000D03*
X158496000Y-98552000D03*
X155956000Y-101854000D03*
X158496000Y-109474000D03*
X155956000Y-112776000D03*
X158496000Y-120396000D03*
X161544000Y-63500000D03*
X169164000Y-60960000D03*
X161544000Y-73660000D03*
X169164000Y-71120000D03*
X161544000Y-84836000D03*
X169164000Y-82296000D03*
X161544000Y-95758000D03*
X169164000Y-93218000D03*
X161544000Y-106680000D03*
X169164000Y-104140000D03*
X161544000Y-117602000D03*
X169164000Y-115062000D03*
X172212000Y-58166000D03*
X174752000Y-65786000D03*
X172212000Y-69088000D03*
X174752000Y-76708000D03*
X172212000Y-80010000D03*
X174752000Y-87630000D03*
X172212000Y-90932000D03*
X174752000Y-98552000D03*
X172212000Y-101854000D03*
X174752000Y-109474000D03*
X172212000Y-112522000D03*
X174752000Y-120142000D03*
X143507460Y-47498000D03*
X136908540Y-47498000D03*
X163068000Y-39624000D03*
X155448000Y-42164000D03*
D13*
X184912000Y-123698000D03*
X182372000Y-123698000D03*
X172212000Y-123698000D03*
X172212000Y-131318000D03*
X184912000Y-131318000D03*
X182372000Y-131318000D03*
D21*
X121666000Y-124206000D03*
D22*
X119126000Y-124206000D03*
X121666000Y-121666000D03*
X119126000Y-121666000D03*
X121666000Y-119126000D03*
X119126000Y-119126000D03*
X121666000Y-116586000D03*
X119126000Y-116586000D03*
X121666000Y-114046000D03*
X119126000Y-114046000D03*
X121666000Y-111506000D03*
X119126000Y-111506000D03*
D23*
X126365000Y-91440000D03*
D24*
X128865000Y-91440000D03*
X126365000Y-94440000D03*
X131365000Y-91440000D03*
X131365000Y-94440000D03*
X128865000Y-94440000D03*
D25*
X149860000Y-59944000D03*
X161544000Y-51816000D03*
X176784000Y-53166000D03*
X169672000Y-53166000D03*
X159004000Y-47244000D03*
X183388000Y-53086000D03*
X159004000Y-36830000D03*
X143256000Y-50292000D03*
X166878000Y-120650000D03*
X163830000Y-112522000D03*
X166878000Y-109728000D03*
X164338000Y-101854000D03*
X167132000Y-98552000D03*
X163830000Y-90932000D03*
X167386000Y-87630000D03*
X164084000Y-68834000D03*
X163830000Y-79756000D03*
X167132000Y-76708000D03*
X167386000Y-66040000D03*
X164084000Y-58166000D03*
X123952000Y-50562000D03*
X127508000Y-50562000D03*
X131064000Y-50562000D03*
X169672000Y-37338000D03*
X133858000Y-62230000D03*
X127508000Y-77470000D03*
X117729000Y-108966000D03*
X120904000Y-71962000D03*
X125222000Y-101346000D03*
X127508000Y-101346000D03*
X129794000Y-101219000D03*
D26*
X142748000Y-124206000D02*
X140589000Y-126365000D01*
X116586000Y-116586000D02*
X119126000Y-114046000D01*
X116586000Y-125095000D02*
X116586000Y-116586000D01*
X117856000Y-126365000D02*
X116586000Y-125095000D01*
X140589000Y-126365000D02*
X117856000Y-126365000D01*
D27*
X142748000Y-58166000D02*
X143002000Y-58166000D01*
X143002000Y-58166000D02*
X145288000Y-55880000D01*
X147828000Y-55880000D02*
X149860000Y-53848000D01*
X145288000Y-55880000D02*
X147828000Y-55880000D01*
X142748000Y-124206000D02*
X145796000Y-121158000D01*
X145796000Y-121158000D02*
X145796000Y-112776000D01*
X182372000Y-123698000D02*
X180340000Y-125730000D01*
X145288000Y-126746000D02*
X142748000Y-124206000D01*
X179324000Y-126746000D02*
X145288000Y-126746000D01*
X180340000Y-125730000D02*
X179324000Y-126746000D01*
X182372000Y-123698000D02*
X182372000Y-121920000D01*
X182372000Y-121920000D02*
X184150000Y-120142000D01*
X145796000Y-106680000D02*
X145796000Y-112776000D01*
X145796000Y-104902000D02*
X145796000Y-106680000D01*
X145796000Y-101854000D02*
X145796000Y-104902000D01*
X145796000Y-90932000D02*
X145796000Y-101854000D01*
X145796000Y-80010000D02*
X145796000Y-90932000D01*
X145796000Y-68834000D02*
X145796000Y-80010000D01*
X145796000Y-61468000D02*
X145796000Y-68834000D01*
X144272000Y-59944000D02*
X145796000Y-61468000D01*
X142748000Y-58420000D02*
X144272000Y-59944000D01*
X142748000Y-58166000D02*
X142748000Y-58420000D01*
X142748000Y-112776000D02*
X145796000Y-112776000D01*
X145542000Y-101854000D02*
X145796000Y-101854000D01*
X145796000Y-101854000D02*
X145542000Y-101854000D01*
X142748000Y-101854000D02*
X145796000Y-101854000D01*
X145542000Y-90932000D02*
X145796000Y-90932000D01*
X145796000Y-90932000D02*
X145542000Y-90932000D01*
X142748000Y-90932000D02*
X145796000Y-90932000D01*
X145542000Y-80010000D02*
X145796000Y-80010000D01*
X145796000Y-80010000D02*
X145542000Y-80010000D01*
X142748000Y-80010000D02*
X145796000Y-80010000D01*
X145796000Y-69088000D02*
X145542000Y-68834000D01*
X145542000Y-68834000D02*
X145796000Y-68834000D01*
X142748000Y-69088000D02*
X145796000Y-69088000D01*
X184150000Y-76708000D02*
X184150000Y-69596000D01*
X184150000Y-87376000D02*
X184150000Y-76708000D01*
X184150000Y-98298000D02*
X184150000Y-87376000D01*
X184150000Y-109474000D02*
X184150000Y-98298000D01*
X184150000Y-120142000D02*
X184150000Y-109474000D01*
X184150000Y-69596000D02*
X187960000Y-65786000D01*
X184658000Y-120142000D02*
X184150000Y-120142000D01*
X184150000Y-120142000D02*
X184658000Y-120142000D01*
X187960000Y-120142000D02*
X184150000Y-120142000D01*
X184658000Y-109474000D02*
X184150000Y-109474000D01*
X184150000Y-109474000D02*
X184658000Y-109474000D01*
X187960000Y-109474000D02*
X184150000Y-109474000D01*
X184150000Y-98552000D02*
X184404000Y-98298000D01*
X184404000Y-98298000D02*
X184150000Y-98298000D01*
X187960000Y-98552000D02*
X184150000Y-98552000D01*
X184150000Y-87630000D02*
X184404000Y-87376000D01*
X184404000Y-87376000D02*
X184658000Y-87376000D01*
X184658000Y-87376000D02*
X184150000Y-87376000D01*
X187960000Y-87630000D02*
X184150000Y-87630000D01*
X187960000Y-76708000D02*
X184150000Y-76708000D01*
X143507460Y-43431460D02*
X143507460Y-47498000D01*
X138684000Y-38608000D02*
X143507460Y-43431460D01*
X138684000Y-38100000D02*
X138684000Y-38608000D01*
X149733000Y-53721000D02*
X149860000Y-53848000D01*
X143510000Y-47498000D02*
X149733000Y-53721000D01*
X143507460Y-47498000D02*
X143510000Y-47498000D01*
X155829000Y-53721000D02*
X156464000Y-53086000D01*
X149733000Y-53721000D02*
X155829000Y-53721000D01*
D28*
X142748000Y-80010000D02*
X142494000Y-80010000D01*
X142748000Y-90932000D02*
X142748000Y-90678000D01*
D29*
X128865000Y-91099000D02*
X128865000Y-91440000D01*
D28*
X130683000Y-89281000D02*
X128865000Y-91099000D01*
X141097000Y-89281000D02*
X130683000Y-89281000D01*
X142748000Y-90932000D02*
X141097000Y-89281000D01*
M02*
