G04 #@! TF.FileFunction,Copper,L1,Top,Signal*
%FSLAX46Y46*%
G04 Gerber Fmt 4.6, Leading zero omitted, Abs format (unit mm)*
G04 Created by KiCad (PCBNEW 4.0.1-stable) date 02/05/2016 08:37:44*
%MOMM*%
G01*
G04 APERTURE LIST*
%ADD10C,0.100000*%
%ADD11R,1.000000X1.250000*%
%ADD12R,1.250000X1.000000*%
%ADD13C,3.500000*%
%ADD14C,2.000000*%
%ADD15C,1.524000*%
%ADD16C,6.350000*%
%ADD17R,2.032000X2.032000*%
%ADD18O,2.032000X2.032000*%
%ADD19R,1.500000X1.300000*%
%ADD20C,2.540000*%
%ADD21C,1.727200*%
%ADD22C,1.998980*%
%ADD23R,0.600000X1.550000*%
%ADD24R,1.727200X1.727200*%
%ADD25O,1.727200X1.727200*%
%ADD26O,1.501140X2.499360*%
%ADD27R,1.300000X1.500000*%
%ADD28C,0.889000*%
%ADD29C,0.254000*%
%ADD30C,0.370000*%
%ADD31C,0.381000*%
%ADD32C,1.270000*%
%ADD33C,0.780000*%
%ADD34C,0.508000*%
%ADD35C,0.910000*%
G04 APERTURE END LIST*
D10*
D11*
X158575500Y-123507500D03*
X160575500Y-123507500D03*
D12*
X156019500Y-129016000D03*
X156019500Y-127016000D03*
D11*
X164004500Y-130619500D03*
X162004500Y-130619500D03*
X166957500Y-123698000D03*
X168957500Y-123698000D03*
X123460000Y-130048000D03*
X125460000Y-130048000D03*
X125714000Y-74930000D03*
X123714000Y-74930000D03*
X158766000Y-58166000D03*
X160766000Y-58166000D03*
D13*
X192024000Y-53330000D03*
X192024000Y-45730000D03*
D14*
X184224000Y-49530000D03*
D15*
X122301000Y-93599000D03*
X124841000Y-93599000D03*
X119761000Y-93599000D03*
D11*
X158766000Y-112522000D03*
X160766000Y-112522000D03*
X161020000Y-71120000D03*
X159020000Y-71120000D03*
X160766000Y-82296000D03*
X158766000Y-82296000D03*
X160512000Y-93218000D03*
X158512000Y-93218000D03*
X160766000Y-104140000D03*
X158766000Y-104140000D03*
D16*
X191008000Y-39116000D03*
X119126000Y-39116000D03*
X191008000Y-131064000D03*
X119126000Y-131064000D03*
D17*
X117792500Y-99441000D03*
D18*
X117792500Y-101981000D03*
D11*
X158766000Y-79756000D03*
X160766000Y-79756000D03*
X158512000Y-90932000D03*
X160512000Y-90932000D03*
X158766000Y-101854000D03*
X160766000Y-101854000D03*
X161020000Y-60706000D03*
X159020000Y-60706000D03*
X160766000Y-114808000D03*
X158766000Y-114808000D03*
X161306000Y-66040000D03*
X163306000Y-66040000D03*
X159242000Y-131572000D03*
X157242000Y-131572000D03*
X158766000Y-68834000D03*
X160766000Y-68834000D03*
X161242500Y-76771500D03*
X163242500Y-76771500D03*
X161306000Y-87630000D03*
X163306000Y-87630000D03*
X161242500Y-98488500D03*
X163242500Y-98488500D03*
X161179000Y-109664500D03*
X163179000Y-109664500D03*
X161179000Y-120523000D03*
X163179000Y-120523000D03*
X166227000Y-61976000D03*
X164227000Y-61976000D03*
X166100000Y-72136000D03*
X164100000Y-72136000D03*
X166354000Y-83312000D03*
X164354000Y-83312000D03*
X166354000Y-94234000D03*
X164354000Y-94234000D03*
X166354000Y-105156000D03*
X164354000Y-105156000D03*
X166354000Y-116332000D03*
X164354000Y-116332000D03*
X169148000Y-58166000D03*
X167148000Y-58166000D03*
X169402000Y-68580000D03*
X167402000Y-68580000D03*
X169148000Y-79502000D03*
X167148000Y-79502000D03*
X169148000Y-90424000D03*
X167148000Y-90424000D03*
X169402000Y-101346000D03*
X167402000Y-101346000D03*
X169148000Y-112268000D03*
X167148000Y-112268000D03*
X173212000Y-62992000D03*
X171212000Y-62992000D03*
X173466000Y-73660000D03*
X171466000Y-73660000D03*
X173466000Y-84582000D03*
X171466000Y-84582000D03*
X173466000Y-95504000D03*
X171466000Y-95504000D03*
X173466000Y-106426000D03*
X171466000Y-106426000D03*
X173466000Y-116840000D03*
X171466000Y-116840000D03*
X171942000Y-65786000D03*
X169942000Y-65786000D03*
X171942000Y-76454000D03*
X169942000Y-76454000D03*
X171942000Y-87376000D03*
X169942000Y-87376000D03*
X171942000Y-98552000D03*
X169942000Y-98552000D03*
X171942000Y-109474000D03*
X169942000Y-109474000D03*
X171942000Y-120142000D03*
X169942000Y-120142000D03*
D15*
X159004000Y-45466000D03*
X156464000Y-45466000D03*
X146304000Y-45466000D03*
X146304000Y-53086000D03*
X159004000Y-53086000D03*
X156464000Y-53086000D03*
X140208000Y-65786000D03*
X142748000Y-65786000D03*
X152908000Y-65786000D03*
X152908000Y-58166000D03*
X140208000Y-58166000D03*
X142748000Y-58166000D03*
X140208000Y-76708000D03*
X142748000Y-76708000D03*
X152908000Y-76708000D03*
X152908000Y-69088000D03*
X140208000Y-69088000D03*
X142748000Y-69088000D03*
X140208000Y-87630000D03*
X142748000Y-87630000D03*
X152908000Y-87630000D03*
X152908000Y-80010000D03*
X140208000Y-80010000D03*
X142748000Y-80010000D03*
X140208000Y-98552000D03*
X142748000Y-98552000D03*
X152908000Y-98552000D03*
X152908000Y-90932000D03*
X140208000Y-90932000D03*
X142748000Y-90932000D03*
X140208000Y-109474000D03*
X142748000Y-109474000D03*
X152908000Y-109474000D03*
X152908000Y-101854000D03*
X140208000Y-101854000D03*
X142748000Y-101854000D03*
X140208000Y-120396000D03*
X142748000Y-120396000D03*
X152908000Y-120396000D03*
X152908000Y-112776000D03*
X140208000Y-112776000D03*
X142748000Y-112776000D03*
X140144500Y-131191000D03*
X142684500Y-131191000D03*
X152844500Y-131191000D03*
X152844500Y-123571000D03*
X140144500Y-123571000D03*
X142684500Y-123571000D03*
X190500000Y-58166000D03*
X187960000Y-58166000D03*
X177800000Y-58166000D03*
X177800000Y-65786000D03*
X190500000Y-65786000D03*
X187960000Y-65786000D03*
X190500000Y-69088000D03*
X187960000Y-69088000D03*
X177800000Y-69088000D03*
X177800000Y-76708000D03*
X190500000Y-76708000D03*
X187960000Y-76708000D03*
X190500000Y-80010000D03*
X187960000Y-80010000D03*
X177800000Y-80010000D03*
X177800000Y-87630000D03*
X190500000Y-87630000D03*
X187960000Y-87630000D03*
X190500000Y-90932000D03*
X187960000Y-90932000D03*
X177800000Y-90932000D03*
X177800000Y-98552000D03*
X190500000Y-98552000D03*
X187960000Y-98552000D03*
X190500000Y-101854000D03*
X187960000Y-101854000D03*
X177800000Y-101854000D03*
X177800000Y-109474000D03*
X190500000Y-109474000D03*
X187960000Y-109474000D03*
X190500000Y-112522000D03*
X187960000Y-112522000D03*
X177800000Y-112522000D03*
X177800000Y-120142000D03*
X190500000Y-120142000D03*
X187960000Y-120142000D03*
D17*
X118046500Y-49847500D03*
D18*
X118046500Y-47307500D03*
D17*
X136461500Y-42227500D03*
D18*
X139001500Y-42227500D03*
D19*
X123364000Y-70866000D03*
X126064000Y-70866000D03*
D20*
X119984000Y-59436000D03*
D21*
X123984000Y-59436000D03*
D20*
X127984000Y-59436000D03*
D21*
X131984000Y-59436000D03*
D22*
X155956000Y-58166000D03*
X158496000Y-65786000D03*
X155956000Y-69088000D03*
X158496000Y-76708000D03*
X155956000Y-80010000D03*
X158496000Y-87630000D03*
X155956000Y-90932000D03*
X158496000Y-98552000D03*
X155956000Y-101854000D03*
X158496000Y-109474000D03*
X155956000Y-112776000D03*
X158496000Y-120396000D03*
X161544000Y-63500000D03*
X169164000Y-60960000D03*
X161544000Y-73660000D03*
X169164000Y-71120000D03*
X161544000Y-84836000D03*
X169164000Y-82296000D03*
X161544000Y-95758000D03*
X169164000Y-93218000D03*
X161544000Y-106680000D03*
X169164000Y-104140000D03*
X161544000Y-117602000D03*
X169164000Y-115062000D03*
X172212000Y-58166000D03*
X174752000Y-65786000D03*
X172212000Y-69088000D03*
X174752000Y-76708000D03*
X172212000Y-80010000D03*
X174752000Y-87630000D03*
X172212000Y-90932000D03*
X174752000Y-98552000D03*
X172212000Y-101854000D03*
X174752000Y-109474000D03*
X172212000Y-112522000D03*
X174752000Y-120142000D03*
D12*
X169418000Y-128571500D03*
X169418000Y-126571500D03*
D11*
X169338500Y-131699000D03*
X167338500Y-131699000D03*
D22*
X143507460Y-47498000D03*
X136908540Y-47498000D03*
D19*
X132096500Y-122999500D03*
X129396500Y-122999500D03*
D11*
X122952000Y-126492000D03*
X124952000Y-126492000D03*
D15*
X184848500Y-123317000D03*
X182308500Y-123317000D03*
X172148500Y-123317000D03*
X172148500Y-130937000D03*
X184848500Y-130937000D03*
X182308500Y-130937000D03*
D23*
X127381000Y-131732000D03*
X128651000Y-131732000D03*
X129921000Y-131732000D03*
X131191000Y-131732000D03*
X131191000Y-126332000D03*
X129921000Y-126332000D03*
X128651000Y-126332000D03*
X127381000Y-126332000D03*
D17*
X161925000Y-46355000D03*
D18*
X161925000Y-48895000D03*
D24*
X121666000Y-124206000D03*
D25*
X119126000Y-124206000D03*
X121666000Y-121666000D03*
X119126000Y-121666000D03*
X121666000Y-119126000D03*
X119126000Y-119126000D03*
X121666000Y-116586000D03*
X119126000Y-116586000D03*
X121666000Y-114046000D03*
X119126000Y-114046000D03*
X121666000Y-111506000D03*
X119126000Y-111506000D03*
X121666000Y-108966000D03*
X119126000Y-108966000D03*
D26*
X125730000Y-66548000D03*
X128270000Y-66548000D03*
X123190000Y-66548000D03*
D27*
X158559500Y-126539000D03*
X158559500Y-129239000D03*
D19*
X161591000Y-127825500D03*
X164291000Y-127825500D03*
D27*
X166941500Y-126475500D03*
X166941500Y-129175500D03*
D28*
X168973500Y-122110500D03*
X162179000Y-123380500D03*
X165862000Y-132016500D03*
X155765500Y-131508500D03*
X165925500Y-112395000D03*
X162115500Y-112649000D03*
X168592500Y-120142000D03*
X164592000Y-120586500D03*
X168465500Y-109537500D03*
X164528500Y-109664500D03*
X165925500Y-101282500D03*
X162242500Y-101854000D03*
X168592500Y-98615500D03*
X164592000Y-98488500D03*
X165798500Y-90424000D03*
X161925000Y-90932000D03*
X168529000Y-87376000D03*
X164719000Y-87630000D03*
X165735000Y-79502000D03*
X162179000Y-79756000D03*
X168465500Y-76454000D03*
X164719000Y-76771500D03*
X165989000Y-68643500D03*
X162242500Y-68834000D03*
X164782500Y-66040000D03*
X168529000Y-65786000D03*
X165671500Y-58166000D03*
X162306000Y-58166000D03*
X169989500Y-53149500D03*
X134937500Y-132524500D03*
X159004000Y-47244000D03*
X127508000Y-77470000D03*
X133858000Y-62230000D03*
X131064000Y-50562000D03*
X127508000Y-50562000D03*
X123952000Y-50562000D03*
X143256000Y-50292000D03*
X176784000Y-53166000D03*
X149860000Y-59944000D03*
X125857000Y-131826000D03*
X128397000Y-129794000D03*
X120904000Y-71962000D03*
X128714500Y-128016000D03*
D29*
X133397000Y-86948000D02*
X133604000Y-86948000D01*
D30*
X168957500Y-123698000D02*
X168957500Y-122126500D01*
X168957500Y-122126500D02*
X168973500Y-122110500D01*
X160575500Y-123507500D02*
X162052000Y-123507500D01*
X162052000Y-123507500D02*
X162179000Y-123380500D01*
X167338500Y-131699000D02*
X166179500Y-131699000D01*
X166179500Y-131699000D02*
X165862000Y-132016500D01*
X157242000Y-131572000D02*
X155829000Y-131572000D01*
X155829000Y-131572000D02*
X155765500Y-131508500D01*
X167148000Y-112268000D02*
X166052500Y-112268000D01*
X166052500Y-112268000D02*
X165925500Y-112395000D01*
X160766000Y-112522000D02*
X161988500Y-112522000D01*
X161988500Y-112522000D02*
X162115500Y-112649000D01*
X169942000Y-120142000D02*
X168592500Y-120142000D01*
X163179000Y-120523000D02*
X164528500Y-120523000D01*
X164528500Y-120523000D02*
X164592000Y-120586500D01*
X169942000Y-109474000D02*
X168529000Y-109474000D01*
X168529000Y-109474000D02*
X168465500Y-109537500D01*
X163179000Y-109664500D02*
X164528500Y-109664500D01*
X167402000Y-101346000D02*
X165989000Y-101346000D01*
X165989000Y-101346000D02*
X165925500Y-101282500D01*
X160766000Y-101854000D02*
X162242500Y-101854000D01*
X169942000Y-98552000D02*
X168656000Y-98552000D01*
X168656000Y-98552000D02*
X168592500Y-98615500D01*
X163242500Y-98488500D02*
X164592000Y-98488500D01*
X167148000Y-90424000D02*
X165798500Y-90424000D01*
X160512000Y-90932000D02*
X161925000Y-90932000D01*
X169942000Y-87376000D02*
X168529000Y-87376000D01*
X163306000Y-87630000D02*
X164719000Y-87630000D01*
X167148000Y-79502000D02*
X165735000Y-79502000D01*
X160766000Y-79756000D02*
X162179000Y-79756000D01*
X169942000Y-76454000D02*
X168465500Y-76454000D01*
X163242500Y-76771500D02*
X164719000Y-76771500D01*
X167402000Y-68580000D02*
X166052500Y-68580000D01*
X166052500Y-68580000D02*
X165989000Y-68643500D01*
X160766000Y-68834000D02*
X162242500Y-68834000D01*
X163306000Y-66040000D02*
X164782500Y-66040000D01*
X169942000Y-65786000D02*
X168529000Y-65786000D01*
X167148000Y-58166000D02*
X165671500Y-58166000D01*
X160766000Y-58166000D02*
X162306000Y-58166000D01*
D29*
X123460000Y-130048000D02*
X123190000Y-130048000D01*
D31*
X123190000Y-130048000D02*
X122174000Y-131064000D01*
D29*
X122174000Y-131064000D02*
X119126000Y-131064000D01*
X119126000Y-131064000D02*
X122174000Y-131064000D01*
D31*
X122174000Y-131064000D02*
X124968000Y-133858000D01*
X131191000Y-132715000D02*
X131191000Y-131732000D01*
X130048000Y-133858000D02*
X131191000Y-132715000D01*
X124968000Y-133858000D02*
X130048000Y-133858000D01*
X119126000Y-124206000D02*
X119126000Y-125222000D01*
X119126000Y-125222000D02*
X120396000Y-126492000D01*
X120396000Y-126492000D02*
X122952000Y-126492000D01*
D32*
X190754000Y-38862000D02*
X191008000Y-39116000D01*
D33*
X131064000Y-50562000D02*
X131064000Y-50546000D01*
X127508000Y-50562000D02*
X127508000Y-50546000D01*
X123952000Y-50562000D02*
X123952000Y-50546000D01*
X176784000Y-53166000D02*
X176784000Y-53086000D01*
D30*
X162004500Y-130619500D02*
X162004500Y-128239000D01*
X162004500Y-128239000D02*
X161591000Y-127825500D01*
X158559500Y-129239000D02*
X160177500Y-129239000D01*
X160177500Y-129239000D02*
X161591000Y-127825500D01*
X159242000Y-131572000D02*
X159242000Y-129921500D01*
X159242000Y-129921500D02*
X158559500Y-129239000D01*
X156019500Y-129016000D02*
X158336500Y-129016000D01*
X158336500Y-129016000D02*
X158559500Y-129239000D01*
X115824000Y-96075500D02*
X115824000Y-95631000D01*
X117856000Y-93599000D02*
X119761000Y-93599000D01*
X115824000Y-95631000D02*
X117856000Y-93599000D01*
D29*
X127381000Y-131732000D02*
X125951000Y-131732000D01*
X125951000Y-131732000D02*
X125857000Y-131826000D01*
D31*
X120523000Y-127508000D02*
X120269000Y-127508000D01*
X116586000Y-108585000D02*
X115824000Y-107823000D01*
X115824000Y-107759500D02*
X115824000Y-107378500D01*
X115824000Y-107823000D02*
X115824000Y-107759500D01*
X116586000Y-108966000D02*
X116586000Y-108585000D01*
X120269000Y-127508000D02*
X116586000Y-123825000D01*
X116586000Y-123825000D02*
X116586000Y-123571000D01*
X116586000Y-109601000D02*
X116586000Y-108966000D01*
X116586000Y-109601000D02*
X116586000Y-123571000D01*
X120523000Y-127508000D02*
X121539000Y-127508000D01*
X121539000Y-127508000D02*
X122682000Y-128651000D01*
X122682000Y-128651000D02*
X124063000Y-128651000D01*
X125460000Y-130048000D02*
X124063000Y-128651000D01*
X115824000Y-107378500D02*
X115824000Y-105791000D01*
X115824000Y-105791000D02*
X115824000Y-98425000D01*
X115824000Y-96075500D02*
X115824000Y-98425000D01*
D29*
X125460000Y-130048000D02*
X125697000Y-130048000D01*
D31*
X125697000Y-130048000D02*
X127381000Y-131732000D01*
D34*
X125714000Y-74930000D02*
X125714000Y-71216000D01*
X125714000Y-71216000D02*
X126064000Y-70866000D01*
D30*
X158496000Y-87630000D02*
X161306000Y-87630000D01*
X160782000Y-84074000D02*
X161544000Y-84836000D01*
X160766000Y-82296000D02*
X160766000Y-84058000D01*
X160766000Y-84058000D02*
X160782000Y-84074000D01*
X158750000Y-87630000D02*
X161544000Y-84836000D01*
X164100000Y-83566000D02*
X164354000Y-83312000D01*
X162814000Y-83566000D02*
X164100000Y-83566000D01*
X161544000Y-84836000D02*
X162814000Y-83566000D01*
X166941500Y-126475500D02*
X166941500Y-123714000D01*
X166941500Y-123714000D02*
X166957500Y-123698000D01*
X169418000Y-126571500D02*
X167037500Y-126571500D01*
X167037500Y-126571500D02*
X166941500Y-126475500D01*
X164291000Y-127825500D02*
X165591500Y-127825500D01*
X165591500Y-127825500D02*
X166941500Y-126475500D01*
X164004500Y-130619500D02*
X164004500Y-128112000D01*
X164004500Y-128112000D02*
X164291000Y-127825500D01*
X132096500Y-122999500D02*
X135890000Y-122999500D01*
X135763000Y-122936000D02*
X135890000Y-122936000D01*
X135826500Y-122936000D02*
X135763000Y-122936000D01*
X135890000Y-122999500D02*
X135826500Y-122936000D01*
D31*
X129921000Y-131732000D02*
X129921000Y-130429000D01*
X130556000Y-129794000D02*
X132842000Y-127508000D01*
X129921000Y-130429000D02*
X130556000Y-129794000D01*
X156464000Y-45466000D02*
X156210000Y-45466000D01*
X135890000Y-124460000D02*
X132842000Y-127508000D01*
X138684000Y-55372000D02*
X146304000Y-55372000D01*
X135890000Y-58166000D02*
X138684000Y-55372000D01*
X146304000Y-55372000D02*
X156210000Y-45466000D01*
X135890000Y-88392000D02*
X135890000Y-115062000D01*
X135890000Y-58166000D02*
X135890000Y-84074000D01*
X135890000Y-84074000D02*
X135890000Y-88392000D01*
X135890000Y-115062000D02*
X135890000Y-122936000D01*
X135890000Y-122936000D02*
X135890000Y-124460000D01*
X133604000Y-84248000D02*
X135890000Y-84248000D01*
D29*
X128397000Y-129794000D02*
X130556000Y-129794000D01*
D30*
X161179000Y-120523000D02*
X158623000Y-120523000D01*
X158623000Y-120523000D02*
X158496000Y-120396000D01*
X158750000Y-120396000D02*
X161544000Y-117602000D01*
X160766000Y-116824000D02*
X161544000Y-117602000D01*
X160766000Y-114808000D02*
X160766000Y-116824000D01*
X162814000Y-116332000D02*
X161544000Y-117602000D01*
X164354000Y-116332000D02*
X162814000Y-116332000D01*
X152908000Y-80010000D02*
X155956000Y-80010000D01*
D32*
X156210000Y-79756000D02*
X155956000Y-80010000D01*
D30*
X158766000Y-79756000D02*
X156210000Y-79756000D01*
X158242000Y-82296000D02*
X155956000Y-80010000D01*
X158766000Y-82296000D02*
X158242000Y-82296000D01*
X152908000Y-90932000D02*
X155956000Y-90932000D01*
X155956000Y-90932000D02*
X158512000Y-90932000D01*
X156226000Y-90932000D02*
X158512000Y-93218000D01*
D32*
X155956000Y-90932000D02*
X156226000Y-90932000D01*
D30*
X152908000Y-101854000D02*
X155956000Y-101854000D01*
X158766000Y-101854000D02*
X155956000Y-101854000D01*
X158242000Y-104140000D02*
X155956000Y-101854000D01*
X158766000Y-104140000D02*
X158242000Y-104140000D01*
X161020000Y-62611000D02*
X161020000Y-62976000D01*
X161020000Y-62976000D02*
X161544000Y-63500000D01*
X161306000Y-66040000D02*
X158750000Y-66040000D01*
X161020000Y-60706000D02*
X161020000Y-62611000D01*
X159258000Y-65786000D02*
X161544000Y-63500000D01*
X162941000Y-61976000D02*
X164227000Y-61976000D01*
X161544000Y-63373000D02*
X162941000Y-61976000D01*
D32*
X184388000Y-49366000D02*
X184224000Y-49530000D01*
D34*
X123714000Y-74930000D02*
X123714000Y-74772000D01*
X123714000Y-74772000D02*
X120904000Y-71962000D01*
D31*
X128270000Y-64516000D02*
X127762000Y-64008000D01*
X127762000Y-64008000D02*
X117094000Y-64008000D01*
X117094000Y-64008000D02*
X116078000Y-65024000D01*
X116078000Y-65024000D02*
X116078000Y-76708000D01*
X128270000Y-66548000D02*
X128270000Y-64516000D01*
X119126000Y-76708000D02*
X119126000Y-72390000D01*
X119126000Y-78994000D02*
X119126000Y-76708000D01*
X116078000Y-76708000D02*
X116078000Y-79248000D01*
X119634000Y-71882000D02*
X120824000Y-71882000D01*
X120824000Y-71882000D02*
X120904000Y-71962000D01*
X119126000Y-72390000D02*
X119634000Y-71882000D01*
X119126000Y-81534000D02*
X119126000Y-78994000D01*
X116078000Y-79248000D02*
X116078000Y-81534000D01*
X116586000Y-82042000D02*
X118618000Y-82042000D01*
X118618000Y-82042000D02*
X119126000Y-81534000D01*
X116078000Y-81534000D02*
X116586000Y-82042000D01*
D30*
X159020000Y-60706000D02*
X158496000Y-60706000D01*
X158496000Y-60706000D02*
X155956000Y-58166000D01*
X158766000Y-58166000D02*
X155956000Y-58166000D01*
X152908000Y-58166000D02*
X155956000Y-58166000D01*
X152908000Y-69088000D02*
X155956000Y-69088000D01*
D32*
X156210000Y-68834000D02*
X155956000Y-69088000D01*
D30*
X158766000Y-68834000D02*
X156210000Y-68834000D01*
X157988000Y-71120000D02*
X155956000Y-69088000D01*
X159020000Y-71120000D02*
X157988000Y-71120000D01*
X152908000Y-112776000D02*
X155956000Y-112776000D01*
X155956000Y-112776000D02*
X158512000Y-112776000D01*
X157988000Y-114808000D02*
X155956000Y-112776000D01*
X158766000Y-114808000D02*
X157988000Y-114808000D01*
X161242500Y-76771500D02*
X158559500Y-76771500D01*
X158559500Y-76771500D02*
X158496000Y-76708000D01*
X158496000Y-76708000D02*
X161544000Y-73660000D01*
X163068000Y-72136000D02*
X161544000Y-73660000D01*
X164100000Y-72136000D02*
X163068000Y-72136000D01*
X161020000Y-73136000D02*
X161544000Y-73660000D01*
X161020000Y-71120000D02*
X161020000Y-73136000D01*
X158496000Y-98552000D02*
X161179000Y-98552000D01*
X161179000Y-98552000D02*
X161242500Y-98488500D01*
X158750000Y-98552000D02*
X161544000Y-95758000D01*
X160512000Y-94726000D02*
X161544000Y-95758000D01*
X160512000Y-93218000D02*
X160512000Y-94726000D01*
X163322000Y-94234000D02*
X164354000Y-94234000D01*
X161798000Y-95758000D02*
X163322000Y-94234000D01*
D32*
X161544000Y-95758000D02*
X161798000Y-95758000D01*
D30*
X158496000Y-109474000D02*
X160988500Y-109474000D01*
X160988500Y-109474000D02*
X161179000Y-109664500D01*
X158750000Y-109474000D02*
X161544000Y-106680000D01*
X160766000Y-105902000D02*
X161544000Y-106680000D01*
X160766000Y-104140000D02*
X160766000Y-105902000D01*
X162814000Y-105410000D02*
X164100000Y-105410000D01*
X161544000Y-106680000D02*
X162814000Y-105410000D01*
D35*
X171212000Y-62992000D02*
X171196000Y-62992000D01*
D30*
X171196000Y-62992000D02*
X169164000Y-60960000D01*
X169148000Y-58166000D02*
X172212000Y-58166000D01*
X169418000Y-60960000D02*
X172212000Y-58166000D01*
D35*
X169164000Y-60960000D02*
X169418000Y-60960000D01*
D30*
X168148000Y-61976000D02*
X169164000Y-60960000D01*
X166227000Y-61976000D02*
X168148000Y-61976000D01*
X170561000Y-70739000D02*
X172212000Y-69088000D01*
X170180000Y-71120000D02*
X170561000Y-70739000D01*
X169164000Y-71120000D02*
X170180000Y-71120000D01*
X169402000Y-68580000D02*
X171704000Y-68580000D01*
D32*
X172482000Y-69358000D02*
X172212000Y-69088000D01*
D30*
X171466000Y-72406000D02*
X170180000Y-71120000D01*
X171466000Y-73660000D02*
X171466000Y-72406000D01*
X168148000Y-72136000D02*
X169164000Y-71120000D01*
X166100000Y-72136000D02*
X168148000Y-72136000D01*
X169926000Y-82296000D02*
X172212000Y-80010000D01*
X168148000Y-83312000D02*
X169164000Y-82296000D01*
X166354000Y-83312000D02*
X168148000Y-83312000D01*
X169148000Y-79502000D02*
X171704000Y-79502000D01*
X169180000Y-82296000D02*
X171466000Y-84582000D01*
D32*
X169164000Y-82296000D02*
X169180000Y-82296000D01*
D30*
X169926000Y-93218000D02*
X172212000Y-90932000D01*
X167640000Y-94234000D02*
X168656000Y-93218000D01*
X166354000Y-94234000D02*
X167640000Y-94234000D01*
X169148000Y-90424000D02*
X171704000Y-90424000D01*
X171450000Y-95504000D02*
X169164000Y-93218000D01*
X169926000Y-104140000D02*
X172212000Y-101854000D01*
X167640000Y-105156000D02*
X168656000Y-104140000D01*
X166354000Y-105156000D02*
X167640000Y-105156000D01*
X171450000Y-106426000D02*
X169164000Y-104140000D01*
D33*
X171704000Y-101346000D02*
X172212000Y-101854000D01*
D30*
X169402000Y-101346000D02*
X171704000Y-101346000D01*
X169672000Y-115062000D02*
X172212000Y-112522000D01*
X167894000Y-116332000D02*
X169164000Y-115062000D01*
X166354000Y-116332000D02*
X167894000Y-116332000D01*
D32*
X171958000Y-112268000D02*
X172212000Y-112522000D01*
D30*
X169148000Y-112268000D02*
X171958000Y-112268000D01*
X170942000Y-116840000D02*
X169164000Y-115062000D01*
X171466000Y-116840000D02*
X170942000Y-116840000D01*
X173212000Y-62992000D02*
X173212000Y-64246000D01*
X173212000Y-64246000D02*
X174752000Y-65786000D01*
X171942000Y-65786000D02*
X174752000Y-65786000D01*
X174752000Y-65786000D02*
X177800000Y-65786000D01*
X174752000Y-76708000D02*
X177800000Y-76708000D01*
D32*
X174498000Y-76454000D02*
X174752000Y-76708000D01*
D30*
X171942000Y-76454000D02*
X174498000Y-76454000D01*
D32*
X174482000Y-76438000D02*
X174752000Y-76708000D01*
D30*
X173466000Y-75422000D02*
X174752000Y-76708000D01*
X173466000Y-73660000D02*
X173466000Y-75422000D01*
X174752000Y-87630000D02*
X177800000Y-87630000D01*
X173466000Y-86344000D02*
X174752000Y-87630000D01*
X173466000Y-84582000D02*
X173466000Y-86344000D01*
D32*
X174498000Y-87376000D02*
X174752000Y-87630000D01*
D30*
X171942000Y-87376000D02*
X174498000Y-87376000D01*
X174752000Y-98552000D02*
X177800000Y-98552000D01*
X173466000Y-97266000D02*
X174752000Y-98552000D01*
X173466000Y-95504000D02*
X173466000Y-97266000D01*
X171942000Y-98552000D02*
X174752000Y-98552000D01*
X174752000Y-109474000D02*
X177800000Y-109474000D01*
X173466000Y-108188000D02*
X174752000Y-109474000D01*
X173466000Y-106426000D02*
X173466000Y-108188000D01*
X171942000Y-109474000D02*
X174752000Y-109474000D01*
X174752000Y-120142000D02*
X177800000Y-120142000D01*
X173466000Y-118856000D02*
X174752000Y-120142000D01*
X173466000Y-116840000D02*
X173466000Y-118856000D01*
X171942000Y-120142000D02*
X174752000Y-120142000D01*
X118046500Y-47307500D02*
X119316500Y-47307500D01*
X119316500Y-47307500D02*
X121856500Y-44767500D01*
X121856500Y-44767500D02*
X143256000Y-44767500D01*
X143256000Y-44767500D02*
X144716500Y-43307000D01*
X144716500Y-43307000D02*
X156845000Y-43307000D01*
X156845000Y-43307000D02*
X159004000Y-45466000D01*
D34*
X123364000Y-70866000D02*
X123364000Y-66722000D01*
X123364000Y-66722000D02*
X123190000Y-66548000D01*
D30*
X169418000Y-128571500D02*
X169783000Y-128571500D01*
X169783000Y-128571500D02*
X172148500Y-130937000D01*
X169338500Y-131699000D02*
X169338500Y-128651000D01*
X169338500Y-128651000D02*
X169418000Y-128571500D01*
X169418000Y-128571500D02*
X167545500Y-128571500D01*
X167545500Y-128571500D02*
X166941500Y-129175500D01*
X191262000Y-109474000D02*
X193294000Y-111506000D01*
X193294000Y-117348000D02*
X190500000Y-120142000D01*
X193294000Y-111506000D02*
X193294000Y-117348000D01*
D35*
X190500000Y-109474000D02*
X191262000Y-109474000D01*
D30*
X190754000Y-109474000D02*
X193294000Y-106934000D01*
X193294000Y-106934000D02*
X193294000Y-101346000D01*
X193294000Y-101346000D02*
X190500000Y-98552000D01*
D35*
X190500000Y-109474000D02*
X190754000Y-109474000D01*
D30*
X191008000Y-98552000D02*
X193294000Y-96266000D01*
X193294000Y-96266000D02*
X193294000Y-90424000D01*
X193294000Y-90424000D02*
X190500000Y-87630000D01*
D35*
X190500000Y-98552000D02*
X191008000Y-98552000D01*
D30*
X190754000Y-87630000D02*
X193294000Y-85090000D01*
X193294000Y-79502000D02*
X190500000Y-76708000D01*
X193294000Y-85090000D02*
X193294000Y-79502000D01*
D35*
X190500000Y-87630000D02*
X190754000Y-87630000D01*
X191008000Y-65786000D02*
X190500000Y-65786000D01*
D30*
X193294000Y-68072000D02*
X193294000Y-73914000D01*
X193294000Y-73914000D02*
X190500000Y-76708000D01*
X191008000Y-65786000D02*
X193294000Y-68072000D01*
X161036000Y-55118000D02*
X159004000Y-53086000D01*
X161798000Y-55118000D02*
X161036000Y-55118000D01*
X188722000Y-61468000D02*
X184404000Y-61468000D01*
X184404000Y-61468000D02*
X178054000Y-55118000D01*
X190500000Y-65786000D02*
X190500000Y-63246000D01*
X161798000Y-55118000D02*
X178054000Y-55118000D01*
X190500000Y-63246000D02*
X188722000Y-61468000D01*
X189230000Y-123698000D02*
X184912000Y-123698000D01*
X190500000Y-122428000D02*
X189230000Y-123698000D01*
X190500000Y-120142000D02*
X190500000Y-122428000D01*
X140144500Y-131191000D02*
X138557000Y-131191000D01*
X137160000Y-115316000D02*
X137160000Y-124714000D01*
X137160000Y-115316000D02*
X139700000Y-112776000D01*
X137160000Y-129794000D02*
X137160000Y-124714000D01*
X138303000Y-130937000D02*
X137160000Y-129794000D01*
X138557000Y-131191000D02*
X138303000Y-130937000D01*
X137668000Y-66548000D02*
X140208000Y-69088000D01*
X140208000Y-58166000D02*
X140208000Y-60960000D01*
X140208000Y-60960000D02*
X137668000Y-63500000D01*
X137668000Y-63500000D02*
X137668000Y-66548000D01*
X140208000Y-69850000D02*
X137414000Y-72644000D01*
X137414000Y-72644000D02*
X137414000Y-77216000D01*
X137414000Y-77216000D02*
X140208000Y-80010000D01*
X140208000Y-69088000D02*
X140208000Y-69850000D01*
X139700000Y-80010000D02*
X137160000Y-82550000D01*
X137160000Y-82550000D02*
X137160000Y-87884000D01*
X137160000Y-87884000D02*
X140208000Y-90932000D01*
X140208000Y-80010000D02*
X139700000Y-80010000D01*
X139954000Y-90932000D02*
X137414000Y-93472000D01*
X137414000Y-93472000D02*
X137414000Y-99060000D01*
X137414000Y-99060000D02*
X140208000Y-101854000D01*
D35*
X140208000Y-90932000D02*
X139954000Y-90932000D01*
D30*
X139954000Y-101854000D02*
X137160000Y-104648000D01*
X137160000Y-104648000D02*
X137160000Y-109728000D01*
X137160000Y-109728000D02*
X140208000Y-112776000D01*
D35*
X140208000Y-101854000D02*
X139954000Y-101854000D01*
X140208000Y-112776000D02*
X139700000Y-112776000D01*
D30*
X125603000Y-123063000D02*
X129333000Y-123063000D01*
X129333000Y-123063000D02*
X129396500Y-122999500D01*
D31*
X124952000Y-126492000D02*
X127221000Y-126492000D01*
D29*
X127221000Y-126492000D02*
X127381000Y-126332000D01*
X119126000Y-114046000D02*
X118618000Y-114046000D01*
X118618000Y-114046000D02*
X117348000Y-115316000D01*
X117856000Y-120396000D02*
X122936000Y-120396000D01*
X117348000Y-119888000D02*
X117856000Y-120396000D01*
X117348000Y-115316000D02*
X117348000Y-119888000D01*
X126492000Y-123952000D02*
X127381000Y-124841000D01*
X127381000Y-124841000D02*
X127254000Y-124714000D01*
X122936000Y-120396000D02*
X125603000Y-123063000D01*
X125603000Y-123063000D02*
X126492000Y-123952000D01*
X127381000Y-124841000D02*
X127381000Y-126332000D01*
X128651000Y-126332000D02*
X128651000Y-127952500D01*
X128651000Y-127952500D02*
X128714500Y-128016000D01*
D30*
X156019500Y-127016000D02*
X158082500Y-127016000D01*
X158082500Y-127016000D02*
X158559500Y-126539000D01*
X158559500Y-126539000D02*
X158559500Y-123523500D01*
X158559500Y-123523500D02*
X158575500Y-123507500D01*
X152844500Y-123571000D02*
X155591500Y-123571000D01*
X155591500Y-123571000D02*
X158559500Y-126539000D01*
M02*
