%FSLAX46Y46*%
G04 Gerber Fmt 4.6, Leading zero omitted, Abs format (unit mm)*
G04 Created by KiCad (PCBNEW (2014-10-27 BZR 5228)-product) date 06/09/2015 15:27:04*
%MOMM*%
G01*
G04 APERTURE LIST*
%ADD10C,0.100000*%
%ADD11R,1.000000X1.250000*%
%ADD12R,1.250000X1.000000*%
%ADD13C,3.500000*%
%ADD14C,2.000000*%
%ADD15C,1.524000*%
%ADD16R,1.300000X1.500000*%
%ADD17R,1.500000X1.300000*%
%ADD18C,6.350000*%
%ADD19R,2.032000X2.032000*%
%ADD20O,2.032000X2.032000*%
%ADD21O,1.501140X2.499360*%
%ADD22C,2.540000*%
%ADD23C,1.727200*%
%ADD24R,4.000500X2.700020*%
%ADD25R,3.500120X1.800860*%
%ADD26C,1.998980*%
%ADD27R,1.727200X1.727200*%
%ADD28O,1.727200X1.727200*%
%ADD29R,1.800000X1.800000*%
%ADD30C,1.800000*%
%ADD31R,1.727200X2.032000*%
%ADD32O,1.727200X2.032000*%
%ADD33C,0.889000*%
G04 APERTURE END LIST*
D10*
D11*
X128540000Y-71882000D03*
X130540000Y-71882000D03*
X125714000Y-77470000D03*
X123714000Y-77470000D03*
X152416000Y-45974000D03*
X154416000Y-45974000D03*
X134636000Y-59436000D03*
X136636000Y-59436000D03*
D12*
X125730000Y-50562000D03*
X125730000Y-52562000D03*
X132842000Y-50562000D03*
X132842000Y-52562000D03*
X122174000Y-50562000D03*
X122174000Y-52562000D03*
D13*
X192024000Y-53330000D03*
X192024000Y-45730000D03*
D14*
X184224000Y-49530000D03*
D15*
X118364000Y-91440000D03*
X118364000Y-93980000D03*
X118364000Y-88900000D03*
D16*
X178562000Y-53166000D03*
X178562000Y-50466000D03*
X175006000Y-53166000D03*
X175006000Y-50466000D03*
D17*
X171878000Y-48006000D03*
X174578000Y-48006000D03*
D16*
X171704000Y-53166000D03*
X171704000Y-50466000D03*
X135382000Y-62150000D03*
X135382000Y-64850000D03*
D17*
X132508000Y-67310000D03*
X135208000Y-67310000D03*
D16*
X132334000Y-62150000D03*
X132334000Y-64850000D03*
X181229000Y-45419000D03*
X181229000Y-42719000D03*
X181610000Y-53166000D03*
X181610000Y-50466000D03*
D17*
X177974000Y-48006000D03*
X180674000Y-48006000D03*
D18*
X191008000Y-39116000D03*
X119126000Y-39116000D03*
X191008000Y-131064000D03*
X119126000Y-131064000D03*
D19*
X117856000Y-103505000D03*
D20*
X117856000Y-106045000D03*
D17*
X123364000Y-71882000D03*
X126064000Y-71882000D03*
D16*
X120904000Y-74850000D03*
X120904000Y-77550000D03*
D12*
X129286000Y-50562000D03*
X129286000Y-52562000D03*
D15*
X159004000Y-45466000D03*
X156464000Y-45466000D03*
X146304000Y-45466000D03*
X146304000Y-53086000D03*
X159004000Y-53086000D03*
X156464000Y-53086000D03*
X140208000Y-65786000D03*
X142748000Y-65786000D03*
X152908000Y-65786000D03*
X152908000Y-58166000D03*
X140208000Y-58166000D03*
X142748000Y-58166000D03*
X140208000Y-76708000D03*
X142748000Y-76708000D03*
X152908000Y-76708000D03*
X152908000Y-69088000D03*
X140208000Y-69088000D03*
X142748000Y-69088000D03*
X140208000Y-87630000D03*
X142748000Y-87630000D03*
X152908000Y-87630000D03*
X152908000Y-80010000D03*
X140208000Y-80010000D03*
X142748000Y-80010000D03*
X140208000Y-98552000D03*
X142748000Y-98552000D03*
X152908000Y-98552000D03*
X152908000Y-90932000D03*
X140208000Y-90932000D03*
X142748000Y-90932000D03*
X140208000Y-109474000D03*
X142748000Y-109474000D03*
X152908000Y-109474000D03*
X152908000Y-101854000D03*
X140208000Y-101854000D03*
X142748000Y-101854000D03*
X140208000Y-120396000D03*
X142748000Y-120396000D03*
X152908000Y-120396000D03*
X152908000Y-112776000D03*
X140208000Y-112776000D03*
X142748000Y-112776000D03*
X140208000Y-131826000D03*
X142748000Y-131826000D03*
X152908000Y-131826000D03*
X152908000Y-124206000D03*
X140208000Y-124206000D03*
X142748000Y-124206000D03*
X190500000Y-58166000D03*
X187960000Y-58166000D03*
X177800000Y-58166000D03*
X177800000Y-65786000D03*
X190500000Y-65786000D03*
X187960000Y-65786000D03*
X190500000Y-69088000D03*
X187960000Y-69088000D03*
X177800000Y-69088000D03*
X177800000Y-76708000D03*
X190500000Y-76708000D03*
X187960000Y-76708000D03*
X190500000Y-80010000D03*
X187960000Y-80010000D03*
X177800000Y-80010000D03*
X177800000Y-87630000D03*
X190500000Y-87630000D03*
X187960000Y-87630000D03*
X190500000Y-90932000D03*
X187960000Y-90932000D03*
X177800000Y-90932000D03*
X177800000Y-98552000D03*
X190500000Y-98552000D03*
X187960000Y-98552000D03*
X190500000Y-101854000D03*
X187960000Y-101854000D03*
X177800000Y-101854000D03*
X177800000Y-109474000D03*
X190500000Y-109474000D03*
X187960000Y-109474000D03*
X190500000Y-112522000D03*
X187960000Y-112522000D03*
X177800000Y-112522000D03*
X177800000Y-120142000D03*
X190500000Y-120142000D03*
X187960000Y-120142000D03*
D19*
X146812000Y-38100000D03*
D20*
X149352000Y-38100000D03*
D19*
X136144000Y-38100000D03*
D20*
X138684000Y-38100000D03*
D21*
X125730000Y-66548000D03*
X128270000Y-66548000D03*
X123190000Y-66548000D03*
D22*
X119984000Y-59436000D03*
D23*
X123984000Y-59436000D03*
D22*
X127984000Y-59436000D03*
D23*
X131984000Y-59436000D03*
D24*
X157050740Y-49276000D03*
X149273260Y-49276000D03*
D25*
X143207740Y-52578000D03*
X137208260Y-52578000D03*
D11*
X147304000Y-58166000D03*
X145304000Y-58166000D03*
D26*
X179324000Y-39624000D03*
X171704000Y-42164000D03*
X168656000Y-45212000D03*
X166116000Y-37592000D03*
X155956000Y-58166000D03*
X158496000Y-65786000D03*
X155956000Y-69088000D03*
X158496000Y-76708000D03*
X155956000Y-80010000D03*
X158496000Y-87630000D03*
X155956000Y-90932000D03*
X158496000Y-98552000D03*
X155956000Y-101854000D03*
X158496000Y-109474000D03*
X155956000Y-112776000D03*
X158496000Y-120396000D03*
X161544000Y-63500000D03*
X169164000Y-60960000D03*
X161544000Y-73660000D03*
X169164000Y-71120000D03*
X161544000Y-84836000D03*
X169164000Y-82296000D03*
X161544000Y-95758000D03*
X169164000Y-93218000D03*
X161544000Y-106680000D03*
X169164000Y-104140000D03*
X161544000Y-117602000D03*
X169164000Y-115062000D03*
X172212000Y-58166000D03*
X174752000Y-65786000D03*
X172212000Y-69088000D03*
X174752000Y-76708000D03*
X172212000Y-80010000D03*
X174752000Y-87630000D03*
X172212000Y-90932000D03*
X174752000Y-98552000D03*
X172212000Y-101854000D03*
X174752000Y-109474000D03*
X172212000Y-112522000D03*
X174752000Y-120142000D03*
X143507460Y-47498000D03*
X136908540Y-47498000D03*
X163068000Y-39624000D03*
X155448000Y-42164000D03*
D12*
X190754000Y-62976000D03*
X190754000Y-60976000D03*
X190500000Y-117332000D03*
X190500000Y-115332000D03*
X140208000Y-115586000D03*
X140208000Y-117586000D03*
X140208000Y-82820000D03*
X140208000Y-84820000D03*
X190754000Y-84566000D03*
X190754000Y-82566000D03*
X187198000Y-62976000D03*
X187198000Y-60976000D03*
D11*
X189976000Y-71882000D03*
X187976000Y-71882000D03*
D12*
X187198000Y-84566000D03*
X187198000Y-82566000D03*
D11*
X190230000Y-93726000D03*
X188230000Y-93726000D03*
X190230000Y-104648000D03*
X188230000Y-104648000D03*
D12*
X186944000Y-117332000D03*
X186944000Y-115332000D03*
D11*
X140478000Y-63246000D03*
X142478000Y-63246000D03*
X140478000Y-73914000D03*
X142478000Y-73914000D03*
D12*
X143764000Y-82820000D03*
X143764000Y-84820000D03*
D11*
X140478000Y-95758000D03*
X142478000Y-95758000D03*
X140478000Y-106680000D03*
X142478000Y-106680000D03*
D12*
X143764000Y-115586000D03*
X143764000Y-117586000D03*
X141986000Y-126762000D03*
X141986000Y-128762000D03*
D16*
X167894000Y-53166000D03*
X167894000Y-50466000D03*
D17*
X164766000Y-48006000D03*
X167466000Y-48006000D03*
D16*
X164592000Y-53166000D03*
X164592000Y-50466000D03*
D17*
X162480000Y-45212000D03*
X165180000Y-45212000D03*
D11*
X184642000Y-128524000D03*
X182642000Y-128524000D03*
D15*
X184912000Y-123698000D03*
X182372000Y-123698000D03*
X172212000Y-123698000D03*
X172212000Y-131318000D03*
X184912000Y-131318000D03*
X182372000Y-131318000D03*
D12*
X121920000Y-99425000D03*
X121920000Y-97425000D03*
X133350000Y-72120000D03*
X133350000Y-70120000D03*
D11*
X120920000Y-93726000D03*
X122920000Y-93726000D03*
D17*
X124921000Y-107188000D03*
X122221000Y-107188000D03*
D16*
X119126000Y-97456000D03*
X119126000Y-100156000D03*
D17*
X125523000Y-98044000D03*
X128223000Y-98044000D03*
D27*
X121666000Y-124206000D03*
D28*
X119126000Y-124206000D03*
X121666000Y-121666000D03*
X119126000Y-121666000D03*
X121666000Y-119126000D03*
X119126000Y-119126000D03*
X121666000Y-116586000D03*
X119126000Y-116586000D03*
X121666000Y-114046000D03*
X119126000Y-114046000D03*
X121666000Y-111506000D03*
X119126000Y-111506000D03*
D29*
X126365000Y-91440000D03*
D30*
X128865000Y-91440000D03*
X126365000Y-94440000D03*
X131365000Y-91440000D03*
X131365000Y-94440000D03*
X128865000Y-94440000D03*
D17*
X128317000Y-107188000D03*
X131017000Y-107188000D03*
D12*
X184023000Y-52467000D03*
X184023000Y-54467000D03*
X162179000Y-48022000D03*
X162179000Y-50022000D03*
D31*
X173101000Y-44831000D03*
D32*
X175641000Y-44831000D03*
X178181000Y-44831000D03*
D33*
X149860000Y-59944000D03*
X176784000Y-53166000D03*
X169672000Y-53166000D03*
X159004000Y-47244000D03*
X159004000Y-36830000D03*
X143256000Y-50292000D03*
X166878000Y-120650000D03*
X163830000Y-112522000D03*
X166878000Y-109728000D03*
X164338000Y-101854000D03*
X167132000Y-98552000D03*
X163830000Y-90932000D03*
X167386000Y-87630000D03*
X164084000Y-68834000D03*
X163830000Y-79756000D03*
X167132000Y-76708000D03*
X167386000Y-66040000D03*
X164084000Y-58166000D03*
X123952000Y-50562000D03*
X127508000Y-50562000D03*
X131064000Y-50562000D03*
X169672000Y-37338000D03*
X133858000Y-62230000D03*
X127508000Y-77470000D03*
X161544000Y-51816000D03*
X181991000Y-54864000D03*
X117729000Y-108966000D03*
X120904000Y-71962000D03*
X125222000Y-101346000D03*
X127508000Y-101346000D03*
X129794000Y-101219000D03*
M02*
