G04 #@! TF.FileFunction,Legend,Bot*
%FSLAX46Y46*%
G04 Gerber Fmt 4.6, Leading zero omitted, Abs format (unit mm)*
G04 Created by KiCad (PCBNEW 4.0.1-stable) date 30/05/2016 07:23:45*
%MOMM*%
G01*
G04 APERTURE LIST*
%ADD10C,0.100000*%
%ADD11C,0.200000*%
%ADD12C,0.150000*%
G04 APERTURE END LIST*
D10*
D11*
X130572143Y-118387857D02*
X131772143Y-118387857D01*
X131200714Y-118387857D02*
X131200714Y-117702142D01*
X130572143Y-117702142D02*
X131772143Y-117702142D01*
X130629286Y-116673571D02*
X130572143Y-116787857D01*
X130572143Y-117016428D01*
X130629286Y-117130714D01*
X130743571Y-117187857D01*
X131200714Y-117187857D01*
X131315000Y-117130714D01*
X131372143Y-117016428D01*
X131372143Y-116787857D01*
X131315000Y-116673571D01*
X131200714Y-116616428D01*
X131086429Y-116616428D01*
X130972143Y-117187857D01*
X130572143Y-116102143D02*
X131372143Y-116102143D01*
X131143571Y-116102143D02*
X131257857Y-116045000D01*
X131315000Y-115987857D01*
X131372143Y-115873571D01*
X131372143Y-115759286D01*
X130572143Y-115359286D02*
X131372143Y-115359286D01*
X131257857Y-115359286D02*
X131315000Y-115302143D01*
X131372143Y-115187857D01*
X131372143Y-115016429D01*
X131315000Y-114902143D01*
X131200714Y-114845000D01*
X130572143Y-114845000D01*
X131200714Y-114845000D02*
X131315000Y-114787857D01*
X131372143Y-114673571D01*
X131372143Y-114502143D01*
X131315000Y-114387857D01*
X131200714Y-114330714D01*
X130572143Y-114330714D01*
X130629286Y-113302143D02*
X130572143Y-113416429D01*
X130572143Y-113645000D01*
X130629286Y-113759286D01*
X130743571Y-113816429D01*
X131200714Y-113816429D01*
X131315000Y-113759286D01*
X131372143Y-113645000D01*
X131372143Y-113416429D01*
X131315000Y-113302143D01*
X131200714Y-113245000D01*
X131086429Y-113245000D01*
X130972143Y-113816429D01*
X130629286Y-112787858D02*
X130572143Y-112673572D01*
X130572143Y-112445000D01*
X130629286Y-112330715D01*
X130743571Y-112273572D01*
X130800714Y-112273572D01*
X130915000Y-112330715D01*
X130972143Y-112445000D01*
X130972143Y-112616429D01*
X131029286Y-112730715D01*
X131143571Y-112787858D01*
X131200714Y-112787858D01*
X131315000Y-112730715D01*
X131372143Y-112616429D01*
X131372143Y-112445000D01*
X131315000Y-112330715D01*
X130572143Y-110273571D02*
X130572143Y-110845000D01*
X131772143Y-110845000D01*
X130572143Y-109873571D02*
X131372143Y-109873571D01*
X131772143Y-109873571D02*
X131715000Y-109930714D01*
X131657857Y-109873571D01*
X131715000Y-109816428D01*
X131772143Y-109873571D01*
X131657857Y-109873571D01*
X131372143Y-109473570D02*
X131372143Y-109016427D01*
X131772143Y-109302142D02*
X130743571Y-109302142D01*
X130629286Y-109244999D01*
X130572143Y-109130713D01*
X130572143Y-109016427D01*
X130629286Y-108159285D02*
X130572143Y-108273571D01*
X130572143Y-108502142D01*
X130629286Y-108616428D01*
X130743571Y-108673571D01*
X131200714Y-108673571D01*
X131315000Y-108616428D01*
X131372143Y-108502142D01*
X131372143Y-108273571D01*
X131315000Y-108159285D01*
X131200714Y-108102142D01*
X131086429Y-108102142D01*
X130972143Y-108673571D01*
X130572143Y-106673571D02*
X131772143Y-106673571D01*
X131772143Y-106216428D01*
X131715000Y-106102142D01*
X131657857Y-106044999D01*
X131543571Y-105987856D01*
X131372143Y-105987856D01*
X131257857Y-106044999D01*
X131200714Y-106102142D01*
X131143571Y-106216428D01*
X131143571Y-106673571D01*
X130572143Y-105473571D02*
X131372143Y-105473571D01*
X131143571Y-105473571D02*
X131257857Y-105416428D01*
X131315000Y-105359285D01*
X131372143Y-105244999D01*
X131372143Y-105130714D01*
X130629286Y-104273571D02*
X130572143Y-104387857D01*
X130572143Y-104616428D01*
X130629286Y-104730714D01*
X130743571Y-104787857D01*
X131200714Y-104787857D01*
X131315000Y-104730714D01*
X131372143Y-104616428D01*
X131372143Y-104387857D01*
X131315000Y-104273571D01*
X131200714Y-104216428D01*
X131086429Y-104216428D01*
X130972143Y-104787857D01*
X131029286Y-103702143D02*
X131029286Y-102787857D01*
X131772143Y-102387857D02*
X130572143Y-101987857D01*
X131772143Y-101587857D01*
X131657857Y-101245001D02*
X131715000Y-101187858D01*
X131772143Y-101073572D01*
X131772143Y-100787858D01*
X131715000Y-100673572D01*
X131657857Y-100616429D01*
X131543571Y-100559286D01*
X131429286Y-100559286D01*
X131257857Y-100616429D01*
X130572143Y-101302143D01*
X130572143Y-100559286D01*
X130572143Y-99130715D02*
X131772143Y-99130715D01*
X131772143Y-98673572D01*
X131715000Y-98559286D01*
X131657857Y-98502143D01*
X131543571Y-98445000D01*
X131372143Y-98445000D01*
X131257857Y-98502143D01*
X131200714Y-98559286D01*
X131143571Y-98673572D01*
X131143571Y-99130715D01*
X130915000Y-97987858D02*
X130915000Y-97416429D01*
X130572143Y-98102143D02*
X131772143Y-97702143D01*
X130572143Y-97302143D01*
X130572143Y-95359286D02*
X130572143Y-96045001D01*
X130572143Y-95702143D02*
X131772143Y-95702143D01*
X131600714Y-95816429D01*
X131486429Y-95930715D01*
X131429286Y-96045001D01*
X130686429Y-94845001D02*
X130629286Y-94787858D01*
X130572143Y-94845001D01*
X130629286Y-94902144D01*
X130686429Y-94845001D01*
X130572143Y-94845001D01*
X130572143Y-93645000D02*
X130572143Y-94330715D01*
X130572143Y-93987857D02*
X131772143Y-93987857D01*
X131600714Y-94102143D01*
X131486429Y-94216429D01*
X131429286Y-94330715D01*
X129606429Y-111987857D02*
X129663571Y-112102143D01*
X129663571Y-112330714D01*
X129606429Y-112445000D01*
X129492143Y-112559286D01*
X129377857Y-112616429D01*
X129149286Y-112616429D01*
X129035000Y-112559286D01*
X128920714Y-112445000D01*
X128863571Y-112330714D01*
X128863571Y-112102143D01*
X128920714Y-111987857D01*
X130063571Y-112216429D02*
X130006429Y-112502143D01*
X129835000Y-112787857D01*
X129549286Y-112959286D01*
X129263571Y-113016429D01*
X128977857Y-112959286D01*
X128692143Y-112787857D01*
X128520714Y-112502143D01*
X128463571Y-112216429D01*
X128520714Y-111930714D01*
X128692143Y-111645000D01*
X128977857Y-111473571D01*
X129263571Y-111416429D01*
X129549286Y-111473571D01*
X129835000Y-111645000D01*
X130006429Y-111930714D01*
X130063571Y-112216429D01*
X129777857Y-110045000D02*
X129835000Y-109987857D01*
X129892143Y-109873571D01*
X129892143Y-109587857D01*
X129835000Y-109473571D01*
X129777857Y-109416428D01*
X129663571Y-109359285D01*
X129549286Y-109359285D01*
X129377857Y-109416428D01*
X128692143Y-110102142D01*
X128692143Y-109359285D01*
X129892143Y-108616428D02*
X129892143Y-108502143D01*
X129835000Y-108387857D01*
X129777857Y-108330714D01*
X129663571Y-108273571D01*
X129435000Y-108216428D01*
X129149286Y-108216428D01*
X128920714Y-108273571D01*
X128806429Y-108330714D01*
X128749286Y-108387857D01*
X128692143Y-108502143D01*
X128692143Y-108616428D01*
X128749286Y-108730714D01*
X128806429Y-108787857D01*
X128920714Y-108845000D01*
X129149286Y-108902143D01*
X129435000Y-108902143D01*
X129663571Y-108845000D01*
X129777857Y-108787857D01*
X129835000Y-108730714D01*
X129892143Y-108616428D01*
X128692143Y-107073571D02*
X128692143Y-107759286D01*
X128692143Y-107416428D02*
X129892143Y-107416428D01*
X129720714Y-107530714D01*
X129606429Y-107645000D01*
X129549286Y-107759286D01*
X129892143Y-106045000D02*
X129892143Y-106273571D01*
X129835000Y-106387857D01*
X129777857Y-106445000D01*
X129606429Y-106559286D01*
X129377857Y-106616429D01*
X128920714Y-106616429D01*
X128806429Y-106559286D01*
X128749286Y-106502143D01*
X128692143Y-106387857D01*
X128692143Y-106159286D01*
X128749286Y-106045000D01*
X128806429Y-105987857D01*
X128920714Y-105930714D01*
X129206429Y-105930714D01*
X129320714Y-105987857D01*
X129377857Y-106045000D01*
X129435000Y-106159286D01*
X129435000Y-106387857D01*
X129377857Y-106502143D01*
X129320714Y-106559286D01*
X129206429Y-106616429D01*
X129892143Y-104616428D02*
X128692143Y-104330714D01*
X129549286Y-104102143D01*
X128692143Y-103873571D01*
X129892143Y-103587857D01*
X128692143Y-103073571D02*
X128692143Y-102844999D01*
X128749286Y-102730714D01*
X128806429Y-102673571D01*
X128977857Y-102559285D01*
X129206429Y-102502142D01*
X129663571Y-102502142D01*
X129777857Y-102559285D01*
X129835000Y-102616428D01*
X129892143Y-102730714D01*
X129892143Y-102959285D01*
X129835000Y-103073571D01*
X129777857Y-103130714D01*
X129663571Y-103187857D01*
X129377857Y-103187857D01*
X129263571Y-103130714D01*
X129206429Y-103073571D01*
X129149286Y-102959285D01*
X129149286Y-102730714D01*
X129206429Y-102616428D01*
X129263571Y-102559285D01*
X129377857Y-102502142D01*
X129892143Y-101645000D02*
X129035000Y-101645000D01*
X128863571Y-101702142D01*
X128749286Y-101816428D01*
X128692143Y-101987857D01*
X128692143Y-102102142D01*
X128749286Y-101130714D02*
X128692143Y-100959285D01*
X128692143Y-100673571D01*
X128749286Y-100559285D01*
X128806429Y-100502142D01*
X128920714Y-100444999D01*
X129035000Y-100444999D01*
X129149286Y-100502142D01*
X129206429Y-100559285D01*
X129263571Y-100673571D01*
X129320714Y-100902142D01*
X129377857Y-101016428D01*
X129435000Y-101073571D01*
X129549286Y-101130714D01*
X129663571Y-101130714D01*
X129777857Y-101073571D01*
X129835000Y-101016428D01*
X129892143Y-100902142D01*
X129892143Y-100616428D01*
X129835000Y-100444999D01*
X129892143Y-100044999D02*
X128692143Y-99759285D01*
X129549286Y-99530714D01*
X128692143Y-99302142D01*
X129892143Y-99016428D01*
D12*
X149200500Y-126230000D02*
X149200500Y-125230000D01*
X150900500Y-125230000D02*
X150900500Y-126230000D01*
X162140000Y-126055500D02*
X162140000Y-127055500D01*
X160440000Y-127055500D02*
X160440000Y-126055500D01*
X165171500Y-129769500D02*
X166171500Y-129769500D01*
X166171500Y-131469500D02*
X165171500Y-131469500D01*
X172521500Y-129120000D02*
X171521500Y-129120000D01*
X171521500Y-127420000D02*
X172521500Y-127420000D01*
X153916000Y-46824000D02*
X152916000Y-46824000D01*
X152916000Y-45124000D02*
X153916000Y-45124000D01*
X136136000Y-60286000D02*
X135136000Y-60286000D01*
X135136000Y-58586000D02*
X136136000Y-58586000D01*
X124880000Y-52062000D02*
X124880000Y-51062000D01*
X126580000Y-51062000D02*
X126580000Y-52062000D01*
X131992000Y-52062000D02*
X131992000Y-51062000D01*
X133692000Y-51062000D02*
X133692000Y-52062000D01*
X121324000Y-52062000D02*
X121324000Y-51062000D01*
X123024000Y-51062000D02*
X123024000Y-52062000D01*
X160266000Y-59016000D02*
X159266000Y-59016000D01*
X159266000Y-57316000D02*
X160266000Y-57316000D01*
X160266000Y-113372000D02*
X159266000Y-113372000D01*
X159266000Y-111672000D02*
X160266000Y-111672000D01*
X158012500Y-72398000D02*
X158012500Y-73398000D01*
X156312500Y-73398000D02*
X156312500Y-72398000D01*
X158012500Y-83510500D02*
X158012500Y-84510500D01*
X156312500Y-84510500D02*
X156312500Y-83510500D01*
X174131000Y-51216000D02*
X174131000Y-52416000D01*
X175881000Y-52416000D02*
X175881000Y-51216000D01*
X174590000Y-47004000D02*
X173390000Y-47004000D01*
X173390000Y-48754000D02*
X174590000Y-48754000D01*
X170829000Y-51216000D02*
X170829000Y-52416000D01*
X172579000Y-52416000D02*
X172579000Y-51216000D01*
X136257000Y-64100000D02*
X136257000Y-62900000D01*
X134507000Y-62900000D02*
X134507000Y-64100000D01*
X134458000Y-66435000D02*
X133258000Y-66435000D01*
X133258000Y-68185000D02*
X134458000Y-68185000D01*
X133209000Y-64100000D02*
X133209000Y-62900000D01*
X131459000Y-62900000D02*
X131459000Y-64100000D01*
X158457000Y-94305500D02*
X158457000Y-95305500D01*
X156757000Y-95305500D02*
X156757000Y-94305500D01*
X158076000Y-105227500D02*
X158076000Y-106227500D01*
X156376000Y-106227500D02*
X156376000Y-105227500D01*
X176120500Y-44817000D02*
X177320500Y-44817000D01*
X177320500Y-43067000D02*
X176120500Y-43067000D01*
X177560000Y-51343000D02*
X177560000Y-52543000D01*
X179310000Y-52543000D02*
X179310000Y-51343000D01*
X179924000Y-47004000D02*
X178724000Y-47004000D01*
X178724000Y-48754000D02*
X179924000Y-48754000D01*
X181364000Y-38964500D02*
X182364000Y-38964500D01*
X182364000Y-40664500D02*
X181364000Y-40664500D01*
X128436000Y-52062000D02*
X128436000Y-51062000D01*
X130136000Y-51062000D02*
X130136000Y-52062000D01*
X160266000Y-80606000D02*
X159266000Y-80606000D01*
X159266000Y-78906000D02*
X160266000Y-78906000D01*
X160012000Y-91782000D02*
X159012000Y-91782000D01*
X159012000Y-90082000D02*
X160012000Y-90082000D01*
X160266000Y-102704000D02*
X159266000Y-102704000D01*
X159266000Y-101004000D02*
X160266000Y-101004000D01*
X158139500Y-61730000D02*
X158139500Y-62730000D01*
X156439500Y-62730000D02*
X156439500Y-61730000D01*
X158139500Y-115959000D02*
X158139500Y-116959000D01*
X156439500Y-116959000D02*
X156439500Y-115959000D01*
X162806000Y-66890000D02*
X161806000Y-66890000D01*
X161806000Y-65190000D02*
X162806000Y-65190000D01*
X153567500Y-127198500D02*
X153567500Y-128198500D01*
X151867500Y-128198500D02*
X151867500Y-127198500D01*
X160266000Y-69684000D02*
X159266000Y-69684000D01*
X159266000Y-67984000D02*
X160266000Y-67984000D01*
X162742500Y-77621500D02*
X161742500Y-77621500D01*
X161742500Y-75921500D02*
X162742500Y-75921500D01*
X162806000Y-88480000D02*
X161806000Y-88480000D01*
X161806000Y-86780000D02*
X162806000Y-86780000D01*
X162742500Y-99338500D02*
X161742500Y-99338500D01*
X161742500Y-97638500D02*
X162742500Y-97638500D01*
X162933000Y-110070000D02*
X161933000Y-110070000D01*
X161933000Y-108370000D02*
X162933000Y-108370000D01*
X162742500Y-120992000D02*
X161742500Y-120992000D01*
X161742500Y-119292000D02*
X162742500Y-119292000D01*
X164727000Y-61126000D02*
X165727000Y-61126000D01*
X165727000Y-62826000D02*
X164727000Y-62826000D01*
X164600000Y-71286000D02*
X165600000Y-71286000D01*
X165600000Y-72986000D02*
X164600000Y-72986000D01*
X164854000Y-82462000D02*
X165854000Y-82462000D01*
X165854000Y-84162000D02*
X164854000Y-84162000D01*
X164854000Y-93384000D02*
X165854000Y-93384000D01*
X165854000Y-95084000D02*
X164854000Y-95084000D01*
X164854000Y-104306000D02*
X165854000Y-104306000D01*
X165854000Y-106006000D02*
X164854000Y-106006000D01*
X164854000Y-115482000D02*
X165854000Y-115482000D01*
X165854000Y-117182000D02*
X164854000Y-117182000D01*
X167648000Y-57316000D02*
X168648000Y-57316000D01*
X168648000Y-59016000D02*
X167648000Y-59016000D01*
X167838500Y-67920500D02*
X168838500Y-67920500D01*
X168838500Y-69620500D02*
X167838500Y-69620500D01*
X167648000Y-78652000D02*
X168648000Y-78652000D01*
X168648000Y-80352000D02*
X167648000Y-80352000D01*
X167584500Y-89891500D02*
X168584500Y-89891500D01*
X168584500Y-91591500D02*
X167584500Y-91591500D01*
X167902000Y-100496000D02*
X168902000Y-100496000D01*
X168902000Y-102196000D02*
X167902000Y-102196000D01*
X167648000Y-111418000D02*
X168648000Y-111418000D01*
X168648000Y-113118000D02*
X167648000Y-113118000D01*
X174141500Y-61539500D02*
X174141500Y-62539500D01*
X172441500Y-62539500D02*
X172441500Y-61539500D01*
X174141500Y-72271000D02*
X174141500Y-73271000D01*
X172441500Y-73271000D02*
X172441500Y-72271000D01*
X174205000Y-83256500D02*
X174205000Y-84256500D01*
X172505000Y-84256500D02*
X172505000Y-83256500D01*
X174205000Y-94115000D02*
X174205000Y-95115000D01*
X172505000Y-95115000D02*
X172505000Y-94115000D01*
X174268500Y-105100500D02*
X174268500Y-106100500D01*
X172568500Y-106100500D02*
X172568500Y-105100500D01*
X174332000Y-115832000D02*
X174332000Y-116832000D01*
X172632000Y-116832000D02*
X172632000Y-115832000D01*
X170442000Y-64936000D02*
X171442000Y-64936000D01*
X171442000Y-66636000D02*
X170442000Y-66636000D01*
X170442000Y-75604000D02*
X171442000Y-75604000D01*
X171442000Y-77304000D02*
X170442000Y-77304000D01*
X170442000Y-86526000D02*
X171442000Y-86526000D01*
X171442000Y-88226000D02*
X170442000Y-88226000D01*
X170442000Y-97702000D02*
X171442000Y-97702000D01*
X171442000Y-99402000D02*
X170442000Y-99402000D01*
X170442000Y-108624000D02*
X171442000Y-108624000D01*
X171442000Y-110324000D02*
X170442000Y-110324000D01*
X170442000Y-119292000D02*
X171442000Y-119292000D01*
X171442000Y-120992000D02*
X170442000Y-120992000D01*
X146758660Y-51475640D02*
X146758660Y-47076360D01*
X148661120Y-47076360D02*
X157662880Y-47076360D01*
X157662880Y-51475640D02*
X148661120Y-51475640D01*
X146304000Y-52478940D02*
X146304000Y-51379120D01*
X145704560Y-51978560D02*
X146903440Y-51978560D01*
X134957820Y-54277260D02*
X134957820Y-50878740D01*
X143207740Y-50878740D02*
X137208260Y-50878740D01*
X143207740Y-54277260D02*
X137208260Y-54277260D01*
X134454900Y-55280560D02*
X134454900Y-54180740D01*
X133855460Y-54780180D02*
X135054340Y-54780180D01*
X145804000Y-57316000D02*
X146804000Y-57316000D01*
X146804000Y-59016000D02*
X145804000Y-59016000D01*
X191604000Y-61476000D02*
X191604000Y-62476000D01*
X189904000Y-62476000D02*
X189904000Y-61476000D01*
X191350000Y-115832000D02*
X191350000Y-116832000D01*
X189650000Y-116832000D02*
X189650000Y-115832000D01*
X139358000Y-117086000D02*
X139358000Y-116086000D01*
X141058000Y-116086000D02*
X141058000Y-117086000D01*
X139358000Y-84320000D02*
X139358000Y-83320000D01*
X141058000Y-83320000D02*
X141058000Y-84320000D01*
X191604000Y-83066000D02*
X191604000Y-84066000D01*
X189904000Y-84066000D02*
X189904000Y-83066000D01*
X188048000Y-61476000D02*
X188048000Y-62476000D01*
X186348000Y-62476000D02*
X186348000Y-61476000D01*
X188476000Y-71032000D02*
X189476000Y-71032000D01*
X189476000Y-72732000D02*
X188476000Y-72732000D01*
X188048000Y-83066000D02*
X188048000Y-84066000D01*
X186348000Y-84066000D02*
X186348000Y-83066000D01*
X188730000Y-92876000D02*
X189730000Y-92876000D01*
X189730000Y-94576000D02*
X188730000Y-94576000D01*
X188730000Y-103798000D02*
X189730000Y-103798000D01*
X189730000Y-105498000D02*
X188730000Y-105498000D01*
X187794000Y-115832000D02*
X187794000Y-116832000D01*
X186094000Y-116832000D02*
X186094000Y-115832000D01*
X141978000Y-64096000D02*
X140978000Y-64096000D01*
X140978000Y-62396000D02*
X141978000Y-62396000D01*
X141978000Y-74764000D02*
X140978000Y-74764000D01*
X140978000Y-73064000D02*
X141978000Y-73064000D01*
X142914000Y-84320000D02*
X142914000Y-83320000D01*
X144614000Y-83320000D02*
X144614000Y-84320000D01*
X141978000Y-96608000D02*
X140978000Y-96608000D01*
X140978000Y-94908000D02*
X141978000Y-94908000D01*
X141978000Y-107530000D02*
X140978000Y-107530000D01*
X140978000Y-105830000D02*
X141978000Y-105830000D01*
X142914000Y-117086000D02*
X142914000Y-116086000D01*
X144614000Y-116086000D02*
X144614000Y-117086000D01*
X141136000Y-128262000D02*
X141136000Y-127262000D01*
X142836000Y-127262000D02*
X142836000Y-128262000D01*
X167336500Y-51216000D02*
X167336500Y-52416000D01*
X169086500Y-52416000D02*
X169086500Y-51216000D01*
X164288500Y-51978000D02*
X164288500Y-53178000D01*
X166038500Y-53178000D02*
X166038500Y-51978000D01*
X163971000Y-46644000D02*
X163971000Y-47844000D01*
X165721000Y-47844000D02*
X165721000Y-46644000D01*
X183142000Y-127674000D02*
X184142000Y-127674000D01*
X184142000Y-129374000D02*
X183142000Y-129374000D01*
X134200000Y-70620000D02*
X134200000Y-71620000D01*
X132500000Y-71620000D02*
X132500000Y-70620000D01*
X180760000Y-52570000D02*
X180760000Y-51570000D01*
X182460000Y-51570000D02*
X182460000Y-52570000D01*
X161265500Y-53332000D02*
X161265500Y-52332000D01*
X162965500Y-52332000D02*
X162965500Y-53332000D01*
X131621500Y-130013000D02*
X131621500Y-128813000D01*
X129871500Y-128813000D02*
X129871500Y-130013000D01*
X134062500Y-128686000D02*
X134062500Y-129886000D01*
X135812500Y-129886000D02*
X135812500Y-128686000D01*
X123980500Y-62117000D02*
X122780500Y-62117000D01*
X122780500Y-63867000D02*
X123980500Y-63867000D01*
X164663500Y-123483000D02*
X165663500Y-123483000D01*
X165663500Y-125183000D02*
X164663500Y-125183000D01*
X173410500Y-126516500D02*
X172410500Y-126516500D01*
X172410500Y-124816500D02*
X173410500Y-124816500D01*
X148693143Y-125563334D02*
X148740762Y-125515715D01*
X148788381Y-125372858D01*
X148788381Y-125277620D01*
X148740762Y-125134762D01*
X148645524Y-125039524D01*
X148550286Y-124991905D01*
X148359810Y-124944286D01*
X148216952Y-124944286D01*
X148026476Y-124991905D01*
X147931238Y-125039524D01*
X147836000Y-125134762D01*
X147788381Y-125277620D01*
X147788381Y-125372858D01*
X147836000Y-125515715D01*
X147883619Y-125563334D01*
X147883619Y-125944286D02*
X147836000Y-125991905D01*
X147788381Y-126087143D01*
X147788381Y-126325239D01*
X147836000Y-126420477D01*
X147883619Y-126468096D01*
X147978857Y-126515715D01*
X148074095Y-126515715D01*
X148216952Y-126468096D01*
X148788381Y-125896667D01*
X148788381Y-126515715D01*
X159932643Y-126515834D02*
X159980262Y-126468215D01*
X160027881Y-126325358D01*
X160027881Y-126230120D01*
X159980262Y-126087262D01*
X159885024Y-125992024D01*
X159789786Y-125944405D01*
X159599310Y-125896786D01*
X159456452Y-125896786D01*
X159265976Y-125944405D01*
X159170738Y-125992024D01*
X159075500Y-126087262D01*
X159027881Y-126230120D01*
X159027881Y-126325358D01*
X159075500Y-126468215D01*
X159123119Y-126515834D01*
X159027881Y-126849167D02*
X159027881Y-127468215D01*
X159408833Y-127134881D01*
X159408833Y-127277739D01*
X159456452Y-127372977D01*
X159504071Y-127420596D01*
X159599310Y-127468215D01*
X159837405Y-127468215D01*
X159932643Y-127420596D01*
X159980262Y-127372977D01*
X160027881Y-127277739D01*
X160027881Y-126992024D01*
X159980262Y-126896786D01*
X159932643Y-126849167D01*
X165965166Y-132754643D02*
X166012785Y-132802262D01*
X166155642Y-132849881D01*
X166250880Y-132849881D01*
X166393738Y-132802262D01*
X166488976Y-132707024D01*
X166536595Y-132611786D01*
X166584214Y-132421310D01*
X166584214Y-132278452D01*
X166536595Y-132087976D01*
X166488976Y-131992738D01*
X166393738Y-131897500D01*
X166250880Y-131849881D01*
X166155642Y-131849881D01*
X166012785Y-131897500D01*
X165965166Y-131945119D01*
X165060404Y-131849881D02*
X165536595Y-131849881D01*
X165584214Y-132326071D01*
X165536595Y-132278452D01*
X165441357Y-132230833D01*
X165203261Y-132230833D01*
X165108023Y-132278452D01*
X165060404Y-132326071D01*
X165012785Y-132421310D01*
X165012785Y-132659405D01*
X165060404Y-132754643D01*
X165108023Y-132802262D01*
X165203261Y-132849881D01*
X165441357Y-132849881D01*
X165536595Y-132802262D01*
X165584214Y-132754643D01*
X174093166Y-130214643D02*
X174140785Y-130262262D01*
X174283642Y-130309881D01*
X174378880Y-130309881D01*
X174521738Y-130262262D01*
X174616976Y-130167024D01*
X174664595Y-130071786D01*
X174712214Y-129881310D01*
X174712214Y-129738452D01*
X174664595Y-129547976D01*
X174616976Y-129452738D01*
X174521738Y-129357500D01*
X174378880Y-129309881D01*
X174283642Y-129309881D01*
X174140785Y-129357500D01*
X174093166Y-129405119D01*
X173236023Y-129309881D02*
X173426500Y-129309881D01*
X173521738Y-129357500D01*
X173569357Y-129405119D01*
X173664595Y-129547976D01*
X173712214Y-129738452D01*
X173712214Y-130119405D01*
X173664595Y-130214643D01*
X173616976Y-130262262D01*
X173521738Y-130309881D01*
X173331261Y-130309881D01*
X173236023Y-130262262D01*
X173188404Y-130214643D01*
X173140785Y-130119405D01*
X173140785Y-129881310D01*
X173188404Y-129786071D01*
X173236023Y-129738452D01*
X173331261Y-129690833D01*
X173521738Y-129690833D01*
X173616976Y-129738452D01*
X173664595Y-129786071D01*
X173712214Y-129881310D01*
X154058857Y-44553143D02*
X154106476Y-44600762D01*
X154249333Y-44648381D01*
X154344571Y-44648381D01*
X154487429Y-44600762D01*
X154582667Y-44505524D01*
X154630286Y-44410286D01*
X154677905Y-44219810D01*
X154677905Y-44076952D01*
X154630286Y-43886476D01*
X154582667Y-43791238D01*
X154487429Y-43696000D01*
X154344571Y-43648381D01*
X154249333Y-43648381D01*
X154106476Y-43696000D01*
X154058857Y-43743619D01*
X153106476Y-44648381D02*
X153677905Y-44648381D01*
X153392191Y-44648381D02*
X153392191Y-43648381D01*
X153487429Y-43791238D01*
X153582667Y-43886476D01*
X153677905Y-43934095D01*
X152773143Y-43648381D02*
X152154095Y-43648381D01*
X152487429Y-44029333D01*
X152344571Y-44029333D01*
X152249333Y-44076952D01*
X152201714Y-44124571D01*
X152154095Y-44219810D01*
X152154095Y-44457905D01*
X152201714Y-44553143D01*
X152249333Y-44600762D01*
X152344571Y-44648381D01*
X152630286Y-44648381D01*
X152725524Y-44600762D01*
X152773143Y-44553143D01*
X136078857Y-61393143D02*
X136126476Y-61440762D01*
X136269333Y-61488381D01*
X136364571Y-61488381D01*
X136507429Y-61440762D01*
X136602667Y-61345524D01*
X136650286Y-61250286D01*
X136697905Y-61059810D01*
X136697905Y-60916952D01*
X136650286Y-60726476D01*
X136602667Y-60631238D01*
X136507429Y-60536000D01*
X136364571Y-60488381D01*
X136269333Y-60488381D01*
X136126476Y-60536000D01*
X136078857Y-60583619D01*
X135126476Y-61488381D02*
X135697905Y-61488381D01*
X135412191Y-61488381D02*
X135412191Y-60488381D01*
X135507429Y-60631238D01*
X135602667Y-60726476D01*
X135697905Y-60774095D01*
X134221714Y-60488381D02*
X134697905Y-60488381D01*
X134745524Y-60964571D01*
X134697905Y-60916952D01*
X134602667Y-60869333D01*
X134364571Y-60869333D01*
X134269333Y-60916952D01*
X134221714Y-60964571D01*
X134174095Y-61059810D01*
X134174095Y-61297905D01*
X134221714Y-61393143D01*
X134269333Y-61440762D01*
X134364571Y-61488381D01*
X134602667Y-61488381D01*
X134697905Y-61440762D01*
X134745524Y-61393143D01*
X126087143Y-47363143D02*
X126134762Y-47315524D01*
X126182381Y-47172667D01*
X126182381Y-47077429D01*
X126134762Y-46934571D01*
X126039524Y-46839333D01*
X125944286Y-46791714D01*
X125753810Y-46744095D01*
X125610952Y-46744095D01*
X125420476Y-46791714D01*
X125325238Y-46839333D01*
X125230000Y-46934571D01*
X125182381Y-47077429D01*
X125182381Y-47172667D01*
X125230000Y-47315524D01*
X125277619Y-47363143D01*
X126182381Y-48315524D02*
X126182381Y-47744095D01*
X126182381Y-48029809D02*
X125182381Y-48029809D01*
X125325238Y-47934571D01*
X125420476Y-47839333D01*
X125468095Y-47744095D01*
X125182381Y-49172667D02*
X125182381Y-48982190D01*
X125230000Y-48886952D01*
X125277619Y-48839333D01*
X125420476Y-48744095D01*
X125610952Y-48696476D01*
X125991905Y-48696476D01*
X126087143Y-48744095D01*
X126134762Y-48791714D01*
X126182381Y-48886952D01*
X126182381Y-49077429D01*
X126134762Y-49172667D01*
X126087143Y-49220286D01*
X125991905Y-49267905D01*
X125753810Y-49267905D01*
X125658571Y-49220286D01*
X125610952Y-49172667D01*
X125563333Y-49077429D01*
X125563333Y-48886952D01*
X125610952Y-48791714D01*
X125658571Y-48744095D01*
X125753810Y-48696476D01*
X133199143Y-47617143D02*
X133246762Y-47569524D01*
X133294381Y-47426667D01*
X133294381Y-47331429D01*
X133246762Y-47188571D01*
X133151524Y-47093333D01*
X133056286Y-47045714D01*
X132865810Y-46998095D01*
X132722952Y-46998095D01*
X132532476Y-47045714D01*
X132437238Y-47093333D01*
X132342000Y-47188571D01*
X132294381Y-47331429D01*
X132294381Y-47426667D01*
X132342000Y-47569524D01*
X132389619Y-47617143D01*
X133294381Y-48569524D02*
X133294381Y-47998095D01*
X133294381Y-48283809D02*
X132294381Y-48283809D01*
X132437238Y-48188571D01*
X132532476Y-48093333D01*
X132580095Y-47998095D01*
X132294381Y-48902857D02*
X132294381Y-49569524D01*
X133294381Y-49140952D01*
X122531143Y-47319143D02*
X122578762Y-47271524D01*
X122626381Y-47128667D01*
X122626381Y-47033429D01*
X122578762Y-46890571D01*
X122483524Y-46795333D01*
X122388286Y-46747714D01*
X122197810Y-46700095D01*
X122054952Y-46700095D01*
X121864476Y-46747714D01*
X121769238Y-46795333D01*
X121674000Y-46890571D01*
X121626381Y-47033429D01*
X121626381Y-47128667D01*
X121674000Y-47271524D01*
X121721619Y-47319143D01*
X122626381Y-48271524D02*
X122626381Y-47700095D01*
X122626381Y-47985809D02*
X121626381Y-47985809D01*
X121769238Y-47890571D01*
X121864476Y-47795333D01*
X121912095Y-47700095D01*
X122626381Y-48747714D02*
X122626381Y-48938190D01*
X122578762Y-49033429D01*
X122531143Y-49081048D01*
X122388286Y-49176286D01*
X122197810Y-49223905D01*
X121816857Y-49223905D01*
X121721619Y-49176286D01*
X121674000Y-49128667D01*
X121626381Y-49033429D01*
X121626381Y-48842952D01*
X121674000Y-48747714D01*
X121721619Y-48700095D01*
X121816857Y-48652476D01*
X122054952Y-48652476D01*
X122150190Y-48700095D01*
X122197810Y-48747714D01*
X122245429Y-48842952D01*
X122245429Y-49033429D01*
X122197810Y-49128667D01*
X122150190Y-49176286D01*
X122054952Y-49223905D01*
X160218357Y-56935643D02*
X160265976Y-56983262D01*
X160408833Y-57030881D01*
X160504071Y-57030881D01*
X160646929Y-56983262D01*
X160742167Y-56888024D01*
X160789786Y-56792786D01*
X160837405Y-56602310D01*
X160837405Y-56459452D01*
X160789786Y-56268976D01*
X160742167Y-56173738D01*
X160646929Y-56078500D01*
X160504071Y-56030881D01*
X160408833Y-56030881D01*
X160265976Y-56078500D01*
X160218357Y-56126119D01*
X159837405Y-56126119D02*
X159789786Y-56078500D01*
X159694548Y-56030881D01*
X159456452Y-56030881D01*
X159361214Y-56078500D01*
X159313595Y-56126119D01*
X159265976Y-56221357D01*
X159265976Y-56316595D01*
X159313595Y-56459452D01*
X159885024Y-57030881D01*
X159265976Y-57030881D01*
X158313595Y-57030881D02*
X158885024Y-57030881D01*
X158599310Y-57030881D02*
X158599310Y-56030881D01*
X158694548Y-56173738D01*
X158789786Y-56268976D01*
X158885024Y-56316595D01*
X161297857Y-114657143D02*
X161345476Y-114704762D01*
X161488333Y-114752381D01*
X161583571Y-114752381D01*
X161726429Y-114704762D01*
X161821667Y-114609524D01*
X161869286Y-114514286D01*
X161916905Y-114323810D01*
X161916905Y-114180952D01*
X161869286Y-113990476D01*
X161821667Y-113895238D01*
X161726429Y-113800000D01*
X161583571Y-113752381D01*
X161488333Y-113752381D01*
X161345476Y-113800000D01*
X161297857Y-113847619D01*
X160916905Y-113847619D02*
X160869286Y-113800000D01*
X160774048Y-113752381D01*
X160535952Y-113752381D01*
X160440714Y-113800000D01*
X160393095Y-113847619D01*
X160345476Y-113942857D01*
X160345476Y-114038095D01*
X160393095Y-114180952D01*
X160964524Y-114752381D01*
X160345476Y-114752381D01*
X159488333Y-113752381D02*
X159678810Y-113752381D01*
X159774048Y-113800000D01*
X159821667Y-113847619D01*
X159916905Y-113990476D01*
X159964524Y-114180952D01*
X159964524Y-114561905D01*
X159916905Y-114657143D01*
X159869286Y-114704762D01*
X159774048Y-114752381D01*
X159583571Y-114752381D01*
X159488333Y-114704762D01*
X159440714Y-114657143D01*
X159393095Y-114561905D01*
X159393095Y-114323810D01*
X159440714Y-114228571D01*
X159488333Y-114180952D01*
X159583571Y-114133333D01*
X159774048Y-114133333D01*
X159869286Y-114180952D01*
X159916905Y-114228571D01*
X159964524Y-114323810D01*
X159170643Y-72382143D02*
X159218262Y-72334524D01*
X159265881Y-72191667D01*
X159265881Y-72096429D01*
X159218262Y-71953571D01*
X159123024Y-71858333D01*
X159027786Y-71810714D01*
X158837310Y-71763095D01*
X158694452Y-71763095D01*
X158503976Y-71810714D01*
X158408738Y-71858333D01*
X158313500Y-71953571D01*
X158265881Y-72096429D01*
X158265881Y-72191667D01*
X158313500Y-72334524D01*
X158361119Y-72382143D01*
X158361119Y-72763095D02*
X158313500Y-72810714D01*
X158265881Y-72905952D01*
X158265881Y-73144048D01*
X158313500Y-73239286D01*
X158361119Y-73286905D01*
X158456357Y-73334524D01*
X158551595Y-73334524D01*
X158694452Y-73286905D01*
X159265881Y-72715476D01*
X159265881Y-73334524D01*
X158694452Y-73905952D02*
X158646833Y-73810714D01*
X158599214Y-73763095D01*
X158503976Y-73715476D01*
X158456357Y-73715476D01*
X158361119Y-73763095D01*
X158313500Y-73810714D01*
X158265881Y-73905952D01*
X158265881Y-74096429D01*
X158313500Y-74191667D01*
X158361119Y-74239286D01*
X158456357Y-74286905D01*
X158503976Y-74286905D01*
X158599214Y-74239286D01*
X158646833Y-74191667D01*
X158694452Y-74096429D01*
X158694452Y-73905952D01*
X158742071Y-73810714D01*
X158789690Y-73763095D01*
X158884929Y-73715476D01*
X159075405Y-73715476D01*
X159170643Y-73763095D01*
X159218262Y-73810714D01*
X159265881Y-73905952D01*
X159265881Y-74096429D01*
X159218262Y-74191667D01*
X159170643Y-74239286D01*
X159075405Y-74286905D01*
X158884929Y-74286905D01*
X158789690Y-74239286D01*
X158742071Y-74191667D01*
X158694452Y-74096429D01*
X159107143Y-83431143D02*
X159154762Y-83383524D01*
X159202381Y-83240667D01*
X159202381Y-83145429D01*
X159154762Y-83002571D01*
X159059524Y-82907333D01*
X158964286Y-82859714D01*
X158773810Y-82812095D01*
X158630952Y-82812095D01*
X158440476Y-82859714D01*
X158345238Y-82907333D01*
X158250000Y-83002571D01*
X158202381Y-83145429D01*
X158202381Y-83240667D01*
X158250000Y-83383524D01*
X158297619Y-83431143D01*
X158297619Y-83812095D02*
X158250000Y-83859714D01*
X158202381Y-83954952D01*
X158202381Y-84193048D01*
X158250000Y-84288286D01*
X158297619Y-84335905D01*
X158392857Y-84383524D01*
X158488095Y-84383524D01*
X158630952Y-84335905D01*
X159202381Y-83764476D01*
X159202381Y-84383524D01*
X159202381Y-84859714D02*
X159202381Y-85050190D01*
X159154762Y-85145429D01*
X159107143Y-85193048D01*
X158964286Y-85288286D01*
X158773810Y-85335905D01*
X158392857Y-85335905D01*
X158297619Y-85288286D01*
X158250000Y-85240667D01*
X158202381Y-85145429D01*
X158202381Y-84954952D01*
X158250000Y-84859714D01*
X158297619Y-84812095D01*
X158392857Y-84764476D01*
X158630952Y-84764476D01*
X158726190Y-84812095D01*
X158773810Y-84859714D01*
X158821429Y-84954952D01*
X158821429Y-85145429D01*
X158773810Y-85240667D01*
X158726190Y-85288286D01*
X158630952Y-85335905D01*
D10*
X176869286Y-51691000D02*
X176512143Y-51441000D01*
X176869286Y-51262428D02*
X176119286Y-51262428D01*
X176119286Y-51548143D01*
X176155000Y-51619571D01*
X176190714Y-51655286D01*
X176262143Y-51691000D01*
X176369286Y-51691000D01*
X176440714Y-51655286D01*
X176476429Y-51619571D01*
X176512143Y-51548143D01*
X176512143Y-51262428D01*
X176119286Y-52369571D02*
X176119286Y-52012428D01*
X176476429Y-51976714D01*
X176440714Y-52012428D01*
X176405000Y-52083857D01*
X176405000Y-52262428D01*
X176440714Y-52333857D01*
X176476429Y-52369571D01*
X176547857Y-52405286D01*
X176726429Y-52405286D01*
X176797857Y-52369571D01*
X176833571Y-52333857D01*
X176869286Y-52262428D01*
X176869286Y-52083857D01*
X176833571Y-52012428D01*
X176797857Y-51976714D01*
D12*
X174156666Y-46807381D02*
X174490000Y-46331190D01*
X174728095Y-46807381D02*
X174728095Y-45807381D01*
X174347142Y-45807381D01*
X174251904Y-45855000D01*
X174204285Y-45902619D01*
X174156666Y-45997857D01*
X174156666Y-46140714D01*
X174204285Y-46235952D01*
X174251904Y-46283571D01*
X174347142Y-46331190D01*
X174728095Y-46331190D01*
X173299523Y-45807381D02*
X173490000Y-45807381D01*
X173585238Y-45855000D01*
X173632857Y-45902619D01*
X173728095Y-46045476D01*
X173775714Y-46235952D01*
X173775714Y-46616905D01*
X173728095Y-46712143D01*
X173680476Y-46759762D01*
X173585238Y-46807381D01*
X173394761Y-46807381D01*
X173299523Y-46759762D01*
X173251904Y-46712143D01*
X173204285Y-46616905D01*
X173204285Y-46378810D01*
X173251904Y-46283571D01*
X173299523Y-46235952D01*
X173394761Y-46188333D01*
X173585238Y-46188333D01*
X173680476Y-46235952D01*
X173728095Y-46283571D01*
X173775714Y-46378810D01*
D10*
X173567286Y-51691000D02*
X173210143Y-51441000D01*
X173567286Y-51262428D02*
X172817286Y-51262428D01*
X172817286Y-51548143D01*
X172853000Y-51619571D01*
X172888714Y-51655286D01*
X172960143Y-51691000D01*
X173067286Y-51691000D01*
X173138714Y-51655286D01*
X173174429Y-51619571D01*
X173210143Y-51548143D01*
X173210143Y-51262428D01*
X172817286Y-51941000D02*
X172817286Y-52441000D01*
X173567286Y-52119571D01*
D12*
X137612381Y-63333334D02*
X137136190Y-63000000D01*
X137612381Y-62761905D02*
X136612381Y-62761905D01*
X136612381Y-63142858D01*
X136660000Y-63238096D01*
X136707619Y-63285715D01*
X136802857Y-63333334D01*
X136945714Y-63333334D01*
X137040952Y-63285715D01*
X137088571Y-63238096D01*
X137136190Y-63142858D01*
X137136190Y-62761905D01*
X137040952Y-63904762D02*
X136993333Y-63809524D01*
X136945714Y-63761905D01*
X136850476Y-63714286D01*
X136802857Y-63714286D01*
X136707619Y-63761905D01*
X136660000Y-63809524D01*
X136612381Y-63904762D01*
X136612381Y-64095239D01*
X136660000Y-64190477D01*
X136707619Y-64238096D01*
X136802857Y-64285715D01*
X136850476Y-64285715D01*
X136945714Y-64238096D01*
X136993333Y-64190477D01*
X137040952Y-64095239D01*
X137040952Y-63904762D01*
X137088571Y-63809524D01*
X137136190Y-63761905D01*
X137231429Y-63714286D01*
X137421905Y-63714286D01*
X137517143Y-63761905D01*
X137564762Y-63809524D01*
X137612381Y-63904762D01*
X137612381Y-64095239D01*
X137564762Y-64190477D01*
X137517143Y-64238096D01*
X137421905Y-64285715D01*
X137231429Y-64285715D01*
X137136190Y-64238096D01*
X137088571Y-64190477D01*
X137040952Y-64095239D01*
X134450857Y-69262381D02*
X134784191Y-68786190D01*
X135022286Y-69262381D02*
X135022286Y-68262381D01*
X134641333Y-68262381D01*
X134546095Y-68310000D01*
X134498476Y-68357619D01*
X134450857Y-68452857D01*
X134450857Y-68595714D01*
X134498476Y-68690952D01*
X134546095Y-68738571D01*
X134641333Y-68786190D01*
X135022286Y-68786190D01*
X133498476Y-69262381D02*
X134069905Y-69262381D01*
X133784191Y-69262381D02*
X133784191Y-68262381D01*
X133879429Y-68405238D01*
X133974667Y-68500476D01*
X134069905Y-68548095D01*
X132879429Y-68262381D02*
X132784190Y-68262381D01*
X132688952Y-68310000D01*
X132641333Y-68357619D01*
X132593714Y-68452857D01*
X132546095Y-68643333D01*
X132546095Y-68881429D01*
X132593714Y-69071905D01*
X132641333Y-69167143D01*
X132688952Y-69214762D01*
X132784190Y-69262381D01*
X132879429Y-69262381D01*
X132974667Y-69214762D01*
X133022286Y-69167143D01*
X133069905Y-69071905D01*
X133117524Y-68881429D01*
X133117524Y-68643333D01*
X133069905Y-68452857D01*
X133022286Y-68357619D01*
X132974667Y-68310000D01*
X132879429Y-68262381D01*
X131008381Y-62857143D02*
X130532190Y-62523809D01*
X131008381Y-62285714D02*
X130008381Y-62285714D01*
X130008381Y-62666667D01*
X130056000Y-62761905D01*
X130103619Y-62809524D01*
X130198857Y-62857143D01*
X130341714Y-62857143D01*
X130436952Y-62809524D01*
X130484571Y-62761905D01*
X130532190Y-62666667D01*
X130532190Y-62285714D01*
X131008381Y-63809524D02*
X131008381Y-63238095D01*
X131008381Y-63523809D02*
X130008381Y-63523809D01*
X130151238Y-63428571D01*
X130246476Y-63333333D01*
X130294095Y-63238095D01*
X130103619Y-64190476D02*
X130056000Y-64238095D01*
X130008381Y-64333333D01*
X130008381Y-64571429D01*
X130056000Y-64666667D01*
X130103619Y-64714286D01*
X130198857Y-64761905D01*
X130294095Y-64761905D01*
X130436952Y-64714286D01*
X131008381Y-64142857D01*
X131008381Y-64761905D01*
X159678643Y-94162643D02*
X159726262Y-94115024D01*
X159773881Y-93972167D01*
X159773881Y-93876929D01*
X159726262Y-93734071D01*
X159631024Y-93638833D01*
X159535786Y-93591214D01*
X159345310Y-93543595D01*
X159202452Y-93543595D01*
X159011976Y-93591214D01*
X158916738Y-93638833D01*
X158821500Y-93734071D01*
X158773881Y-93876929D01*
X158773881Y-93972167D01*
X158821500Y-94115024D01*
X158869119Y-94162643D01*
X158773881Y-94495976D02*
X158773881Y-95115024D01*
X159154833Y-94781690D01*
X159154833Y-94924548D01*
X159202452Y-95019786D01*
X159250071Y-95067405D01*
X159345310Y-95115024D01*
X159583405Y-95115024D01*
X159678643Y-95067405D01*
X159726262Y-95019786D01*
X159773881Y-94924548D01*
X159773881Y-94638833D01*
X159726262Y-94543595D01*
X159678643Y-94495976D01*
X158773881Y-95734071D02*
X158773881Y-95829310D01*
X158821500Y-95924548D01*
X158869119Y-95972167D01*
X158964357Y-96019786D01*
X159154833Y-96067405D01*
X159392929Y-96067405D01*
X159583405Y-96019786D01*
X159678643Y-95972167D01*
X159726262Y-95924548D01*
X159773881Y-95829310D01*
X159773881Y-95734071D01*
X159726262Y-95638833D01*
X159678643Y-95591214D01*
X159583405Y-95543595D01*
X159392929Y-95495976D01*
X159154833Y-95495976D01*
X158964357Y-95543595D01*
X158869119Y-95591214D01*
X158821500Y-95638833D01*
X158773881Y-95734071D01*
X159361143Y-105275143D02*
X159408762Y-105227524D01*
X159456381Y-105084667D01*
X159456381Y-104989429D01*
X159408762Y-104846571D01*
X159313524Y-104751333D01*
X159218286Y-104703714D01*
X159027810Y-104656095D01*
X158884952Y-104656095D01*
X158694476Y-104703714D01*
X158599238Y-104751333D01*
X158504000Y-104846571D01*
X158456381Y-104989429D01*
X158456381Y-105084667D01*
X158504000Y-105227524D01*
X158551619Y-105275143D01*
X158456381Y-105608476D02*
X158456381Y-106227524D01*
X158837333Y-105894190D01*
X158837333Y-106037048D01*
X158884952Y-106132286D01*
X158932571Y-106179905D01*
X159027810Y-106227524D01*
X159265905Y-106227524D01*
X159361143Y-106179905D01*
X159408762Y-106132286D01*
X159456381Y-106037048D01*
X159456381Y-105751333D01*
X159408762Y-105656095D01*
X159361143Y-105608476D01*
X159456381Y-107179905D02*
X159456381Y-106608476D01*
X159456381Y-106894190D02*
X158456381Y-106894190D01*
X158599238Y-106798952D01*
X158694476Y-106703714D01*
X158742095Y-106608476D01*
X176887166Y-42616381D02*
X177220500Y-42140190D01*
X177458595Y-42616381D02*
X177458595Y-41616381D01*
X177077642Y-41616381D01*
X176982404Y-41664000D01*
X176934785Y-41711619D01*
X176887166Y-41806857D01*
X176887166Y-41949714D01*
X176934785Y-42044952D01*
X176982404Y-42092571D01*
X177077642Y-42140190D01*
X177458595Y-42140190D01*
X175934785Y-42616381D02*
X176506214Y-42616381D01*
X176220500Y-42616381D02*
X176220500Y-41616381D01*
X176315738Y-41759238D01*
X176410976Y-41854476D01*
X176506214Y-41902095D01*
D10*
X180298286Y-51818000D02*
X179941143Y-51568000D01*
X180298286Y-51389428D02*
X179548286Y-51389428D01*
X179548286Y-51675143D01*
X179584000Y-51746571D01*
X179619714Y-51782286D01*
X179691143Y-51818000D01*
X179798286Y-51818000D01*
X179869714Y-51782286D01*
X179905429Y-51746571D01*
X179941143Y-51675143D01*
X179941143Y-51389428D01*
X179619714Y-52103714D02*
X179584000Y-52139428D01*
X179548286Y-52210857D01*
X179548286Y-52389428D01*
X179584000Y-52460857D01*
X179619714Y-52496571D01*
X179691143Y-52532286D01*
X179762571Y-52532286D01*
X179869714Y-52496571D01*
X180298286Y-52068000D01*
X180298286Y-52532286D01*
D12*
X179490666Y-46553381D02*
X179824000Y-46077190D01*
X180062095Y-46553381D02*
X180062095Y-45553381D01*
X179681142Y-45553381D01*
X179585904Y-45601000D01*
X179538285Y-45648619D01*
X179490666Y-45743857D01*
X179490666Y-45886714D01*
X179538285Y-45981952D01*
X179585904Y-46029571D01*
X179681142Y-46077190D01*
X180062095Y-46077190D01*
X179157333Y-45553381D02*
X178538285Y-45553381D01*
X178871619Y-45934333D01*
X178728761Y-45934333D01*
X178633523Y-45981952D01*
X178585904Y-46029571D01*
X178538285Y-46124810D01*
X178538285Y-46362905D01*
X178585904Y-46458143D01*
X178633523Y-46505762D01*
X178728761Y-46553381D01*
X179014476Y-46553381D01*
X179109714Y-46505762D01*
X179157333Y-46458143D01*
X184824666Y-40171643D02*
X184872285Y-40219262D01*
X185015142Y-40266881D01*
X185110380Y-40266881D01*
X185253238Y-40219262D01*
X185348476Y-40124024D01*
X185396095Y-40028786D01*
X185443714Y-39838310D01*
X185443714Y-39695452D01*
X185396095Y-39504976D01*
X185348476Y-39409738D01*
X185253238Y-39314500D01*
X185110380Y-39266881D01*
X185015142Y-39266881D01*
X184872285Y-39314500D01*
X184824666Y-39362119D01*
X183872285Y-40266881D02*
X184443714Y-40266881D01*
X184158000Y-40266881D02*
X184158000Y-39266881D01*
X184253238Y-39409738D01*
X184348476Y-39504976D01*
X184443714Y-39552595D01*
X129643143Y-47617143D02*
X129690762Y-47569524D01*
X129738381Y-47426667D01*
X129738381Y-47331429D01*
X129690762Y-47188571D01*
X129595524Y-47093333D01*
X129500286Y-47045714D01*
X129309810Y-46998095D01*
X129166952Y-46998095D01*
X128976476Y-47045714D01*
X128881238Y-47093333D01*
X128786000Y-47188571D01*
X128738381Y-47331429D01*
X128738381Y-47426667D01*
X128786000Y-47569524D01*
X128833619Y-47617143D01*
X129738381Y-48569524D02*
X129738381Y-47998095D01*
X129738381Y-48283809D02*
X128738381Y-48283809D01*
X128881238Y-48188571D01*
X128976476Y-48093333D01*
X129024095Y-47998095D01*
X129166952Y-49140952D02*
X129119333Y-49045714D01*
X129071714Y-48998095D01*
X128976476Y-48950476D01*
X128928857Y-48950476D01*
X128833619Y-48998095D01*
X128786000Y-49045714D01*
X128738381Y-49140952D01*
X128738381Y-49331429D01*
X128786000Y-49426667D01*
X128833619Y-49474286D01*
X128928857Y-49521905D01*
X128976476Y-49521905D01*
X129071714Y-49474286D01*
X129119333Y-49426667D01*
X129166952Y-49331429D01*
X129166952Y-49140952D01*
X129214571Y-49045714D01*
X129262190Y-48998095D01*
X129357429Y-48950476D01*
X129547905Y-48950476D01*
X129643143Y-48998095D01*
X129690762Y-49045714D01*
X129738381Y-49140952D01*
X129738381Y-49331429D01*
X129690762Y-49426667D01*
X129643143Y-49474286D01*
X129547905Y-49521905D01*
X129357429Y-49521905D01*
X129262190Y-49474286D01*
X129214571Y-49426667D01*
X129166952Y-49331429D01*
X160535857Y-81891143D02*
X160583476Y-81938762D01*
X160726333Y-81986381D01*
X160821571Y-81986381D01*
X160964429Y-81938762D01*
X161059667Y-81843524D01*
X161107286Y-81748286D01*
X161154905Y-81557810D01*
X161154905Y-81414952D01*
X161107286Y-81224476D01*
X161059667Y-81129238D01*
X160964429Y-81034000D01*
X160821571Y-80986381D01*
X160726333Y-80986381D01*
X160583476Y-81034000D01*
X160535857Y-81081619D01*
X160154905Y-81081619D02*
X160107286Y-81034000D01*
X160012048Y-80986381D01*
X159773952Y-80986381D01*
X159678714Y-81034000D01*
X159631095Y-81081619D01*
X159583476Y-81176857D01*
X159583476Y-81272095D01*
X159631095Y-81414952D01*
X160202524Y-81986381D01*
X159583476Y-81986381D01*
X159250143Y-80986381D02*
X158631095Y-80986381D01*
X158964429Y-81367333D01*
X158821571Y-81367333D01*
X158726333Y-81414952D01*
X158678714Y-81462571D01*
X158631095Y-81557810D01*
X158631095Y-81795905D01*
X158678714Y-81891143D01*
X158726333Y-81938762D01*
X158821571Y-81986381D01*
X159107286Y-81986381D01*
X159202524Y-81938762D01*
X159250143Y-81891143D01*
X161170857Y-93003643D02*
X161218476Y-93051262D01*
X161361333Y-93098881D01*
X161456571Y-93098881D01*
X161599429Y-93051262D01*
X161694667Y-92956024D01*
X161742286Y-92860786D01*
X161789905Y-92670310D01*
X161789905Y-92527452D01*
X161742286Y-92336976D01*
X161694667Y-92241738D01*
X161599429Y-92146500D01*
X161456571Y-92098881D01*
X161361333Y-92098881D01*
X161218476Y-92146500D01*
X161170857Y-92194119D01*
X160789905Y-92194119D02*
X160742286Y-92146500D01*
X160647048Y-92098881D01*
X160408952Y-92098881D01*
X160313714Y-92146500D01*
X160266095Y-92194119D01*
X160218476Y-92289357D01*
X160218476Y-92384595D01*
X160266095Y-92527452D01*
X160837524Y-93098881D01*
X160218476Y-93098881D01*
X159361333Y-92432214D02*
X159361333Y-93098881D01*
X159599429Y-92051262D02*
X159837524Y-92765548D01*
X159218476Y-92765548D01*
X160599357Y-103862143D02*
X160646976Y-103909762D01*
X160789833Y-103957381D01*
X160885071Y-103957381D01*
X161027929Y-103909762D01*
X161123167Y-103814524D01*
X161170786Y-103719286D01*
X161218405Y-103528810D01*
X161218405Y-103385952D01*
X161170786Y-103195476D01*
X161123167Y-103100238D01*
X161027929Y-103005000D01*
X160885071Y-102957381D01*
X160789833Y-102957381D01*
X160646976Y-103005000D01*
X160599357Y-103052619D01*
X160218405Y-103052619D02*
X160170786Y-103005000D01*
X160075548Y-102957381D01*
X159837452Y-102957381D01*
X159742214Y-103005000D01*
X159694595Y-103052619D01*
X159646976Y-103147857D01*
X159646976Y-103243095D01*
X159694595Y-103385952D01*
X160266024Y-103957381D01*
X159646976Y-103957381D01*
X158742214Y-102957381D02*
X159218405Y-102957381D01*
X159266024Y-103433571D01*
X159218405Y-103385952D01*
X159123167Y-103338333D01*
X158885071Y-103338333D01*
X158789833Y-103385952D01*
X158742214Y-103433571D01*
X158694595Y-103528810D01*
X158694595Y-103766905D01*
X158742214Y-103862143D01*
X158789833Y-103909762D01*
X158885071Y-103957381D01*
X159123167Y-103957381D01*
X159218405Y-103909762D01*
X159266024Y-103862143D01*
X159297643Y-61523643D02*
X159345262Y-61476024D01*
X159392881Y-61333167D01*
X159392881Y-61237929D01*
X159345262Y-61095071D01*
X159250024Y-60999833D01*
X159154786Y-60952214D01*
X158964310Y-60904595D01*
X158821452Y-60904595D01*
X158630976Y-60952214D01*
X158535738Y-60999833D01*
X158440500Y-61095071D01*
X158392881Y-61237929D01*
X158392881Y-61333167D01*
X158440500Y-61476024D01*
X158488119Y-61523643D01*
X158488119Y-61904595D02*
X158440500Y-61952214D01*
X158392881Y-62047452D01*
X158392881Y-62285548D01*
X158440500Y-62380786D01*
X158488119Y-62428405D01*
X158583357Y-62476024D01*
X158678595Y-62476024D01*
X158821452Y-62428405D01*
X159392881Y-61856976D01*
X159392881Y-62476024D01*
X158392881Y-62809357D02*
X158392881Y-63476024D01*
X159392881Y-63047452D01*
X159361143Y-115816143D02*
X159408762Y-115768524D01*
X159456381Y-115625667D01*
X159456381Y-115530429D01*
X159408762Y-115387571D01*
X159313524Y-115292333D01*
X159218286Y-115244714D01*
X159027810Y-115197095D01*
X158884952Y-115197095D01*
X158694476Y-115244714D01*
X158599238Y-115292333D01*
X158504000Y-115387571D01*
X158456381Y-115530429D01*
X158456381Y-115625667D01*
X158504000Y-115768524D01*
X158551619Y-115816143D01*
X158456381Y-116149476D02*
X158456381Y-116768524D01*
X158837333Y-116435190D01*
X158837333Y-116578048D01*
X158884952Y-116673286D01*
X158932571Y-116720905D01*
X159027810Y-116768524D01*
X159265905Y-116768524D01*
X159361143Y-116720905D01*
X159408762Y-116673286D01*
X159456381Y-116578048D01*
X159456381Y-116292333D01*
X159408762Y-116197095D01*
X159361143Y-116149476D01*
X158551619Y-117149476D02*
X158504000Y-117197095D01*
X158456381Y-117292333D01*
X158456381Y-117530429D01*
X158504000Y-117625667D01*
X158551619Y-117673286D01*
X158646857Y-117720905D01*
X158742095Y-117720905D01*
X158884952Y-117673286D01*
X159456381Y-117101857D01*
X159456381Y-117720905D01*
X163774357Y-68111643D02*
X163821976Y-68159262D01*
X163964833Y-68206881D01*
X164060071Y-68206881D01*
X164202929Y-68159262D01*
X164298167Y-68064024D01*
X164345786Y-67968786D01*
X164393405Y-67778310D01*
X164393405Y-67635452D01*
X164345786Y-67444976D01*
X164298167Y-67349738D01*
X164202929Y-67254500D01*
X164060071Y-67206881D01*
X163964833Y-67206881D01*
X163821976Y-67254500D01*
X163774357Y-67302119D01*
X163441024Y-67206881D02*
X162821976Y-67206881D01*
X163155310Y-67587833D01*
X163012452Y-67587833D01*
X162917214Y-67635452D01*
X162869595Y-67683071D01*
X162821976Y-67778310D01*
X162821976Y-68016405D01*
X162869595Y-68111643D01*
X162917214Y-68159262D01*
X163012452Y-68206881D01*
X163298167Y-68206881D01*
X163393405Y-68159262D01*
X163441024Y-68111643D01*
X162488643Y-67206881D02*
X161869595Y-67206881D01*
X162202929Y-67587833D01*
X162060071Y-67587833D01*
X161964833Y-67635452D01*
X161917214Y-67683071D01*
X161869595Y-67778310D01*
X161869595Y-68016405D01*
X161917214Y-68111643D01*
X161964833Y-68159262D01*
X162060071Y-68206881D01*
X162345786Y-68206881D01*
X162441024Y-68159262D01*
X162488643Y-68111643D01*
X151614143Y-129309834D02*
X151661762Y-129262215D01*
X151709381Y-129119358D01*
X151709381Y-129024120D01*
X151661762Y-128881262D01*
X151566524Y-128786024D01*
X151471286Y-128738405D01*
X151280810Y-128690786D01*
X151137952Y-128690786D01*
X150947476Y-128738405D01*
X150852238Y-128786024D01*
X150757000Y-128881262D01*
X150709381Y-129024120D01*
X150709381Y-129119358D01*
X150757000Y-129262215D01*
X150804619Y-129309834D01*
X151042714Y-130166977D02*
X151709381Y-130166977D01*
X150661762Y-129928881D02*
X151376048Y-129690786D01*
X151376048Y-130309834D01*
X161297857Y-70842143D02*
X161345476Y-70889762D01*
X161488333Y-70937381D01*
X161583571Y-70937381D01*
X161726429Y-70889762D01*
X161821667Y-70794524D01*
X161869286Y-70699286D01*
X161916905Y-70508810D01*
X161916905Y-70365952D01*
X161869286Y-70175476D01*
X161821667Y-70080238D01*
X161726429Y-69985000D01*
X161583571Y-69937381D01*
X161488333Y-69937381D01*
X161345476Y-69985000D01*
X161297857Y-70032619D01*
X160916905Y-70032619D02*
X160869286Y-69985000D01*
X160774048Y-69937381D01*
X160535952Y-69937381D01*
X160440714Y-69985000D01*
X160393095Y-70032619D01*
X160345476Y-70127857D01*
X160345476Y-70223095D01*
X160393095Y-70365952D01*
X160964524Y-70937381D01*
X160345476Y-70937381D01*
X159964524Y-70032619D02*
X159916905Y-69985000D01*
X159821667Y-69937381D01*
X159583571Y-69937381D01*
X159488333Y-69985000D01*
X159440714Y-70032619D01*
X159393095Y-70127857D01*
X159393095Y-70223095D01*
X159440714Y-70365952D01*
X160012143Y-70937381D01*
X159393095Y-70937381D01*
X163520357Y-78779643D02*
X163567976Y-78827262D01*
X163710833Y-78874881D01*
X163806071Y-78874881D01*
X163948929Y-78827262D01*
X164044167Y-78732024D01*
X164091786Y-78636786D01*
X164139405Y-78446310D01*
X164139405Y-78303452D01*
X164091786Y-78112976D01*
X164044167Y-78017738D01*
X163948929Y-77922500D01*
X163806071Y-77874881D01*
X163710833Y-77874881D01*
X163567976Y-77922500D01*
X163520357Y-77970119D01*
X163187024Y-77874881D02*
X162567976Y-77874881D01*
X162901310Y-78255833D01*
X162758452Y-78255833D01*
X162663214Y-78303452D01*
X162615595Y-78351071D01*
X162567976Y-78446310D01*
X162567976Y-78684405D01*
X162615595Y-78779643D01*
X162663214Y-78827262D01*
X162758452Y-78874881D01*
X163044167Y-78874881D01*
X163139405Y-78827262D01*
X163187024Y-78779643D01*
X161710833Y-78208214D02*
X161710833Y-78874881D01*
X161948929Y-77827262D02*
X162187024Y-78541548D01*
X161567976Y-78541548D01*
X163266357Y-89574643D02*
X163313976Y-89622262D01*
X163456833Y-89669881D01*
X163552071Y-89669881D01*
X163694929Y-89622262D01*
X163790167Y-89527024D01*
X163837786Y-89431786D01*
X163885405Y-89241310D01*
X163885405Y-89098452D01*
X163837786Y-88907976D01*
X163790167Y-88812738D01*
X163694929Y-88717500D01*
X163552071Y-88669881D01*
X163456833Y-88669881D01*
X163313976Y-88717500D01*
X163266357Y-88765119D01*
X162933024Y-88669881D02*
X162313976Y-88669881D01*
X162647310Y-89050833D01*
X162504452Y-89050833D01*
X162409214Y-89098452D01*
X162361595Y-89146071D01*
X162313976Y-89241310D01*
X162313976Y-89479405D01*
X162361595Y-89574643D01*
X162409214Y-89622262D01*
X162504452Y-89669881D01*
X162790167Y-89669881D01*
X162885405Y-89622262D01*
X162933024Y-89574643D01*
X161409214Y-88669881D02*
X161885405Y-88669881D01*
X161933024Y-89146071D01*
X161885405Y-89098452D01*
X161790167Y-89050833D01*
X161552071Y-89050833D01*
X161456833Y-89098452D01*
X161409214Y-89146071D01*
X161361595Y-89241310D01*
X161361595Y-89479405D01*
X161409214Y-89574643D01*
X161456833Y-89622262D01*
X161552071Y-89669881D01*
X161790167Y-89669881D01*
X161885405Y-89622262D01*
X161933024Y-89574643D01*
X163266357Y-100560143D02*
X163313976Y-100607762D01*
X163456833Y-100655381D01*
X163552071Y-100655381D01*
X163694929Y-100607762D01*
X163790167Y-100512524D01*
X163837786Y-100417286D01*
X163885405Y-100226810D01*
X163885405Y-100083952D01*
X163837786Y-99893476D01*
X163790167Y-99798238D01*
X163694929Y-99703000D01*
X163552071Y-99655381D01*
X163456833Y-99655381D01*
X163313976Y-99703000D01*
X163266357Y-99750619D01*
X162933024Y-99655381D02*
X162313976Y-99655381D01*
X162647310Y-100036333D01*
X162504452Y-100036333D01*
X162409214Y-100083952D01*
X162361595Y-100131571D01*
X162313976Y-100226810D01*
X162313976Y-100464905D01*
X162361595Y-100560143D01*
X162409214Y-100607762D01*
X162504452Y-100655381D01*
X162790167Y-100655381D01*
X162885405Y-100607762D01*
X162933024Y-100560143D01*
X161456833Y-99655381D02*
X161647310Y-99655381D01*
X161742548Y-99703000D01*
X161790167Y-99750619D01*
X161885405Y-99893476D01*
X161933024Y-100083952D01*
X161933024Y-100464905D01*
X161885405Y-100560143D01*
X161837786Y-100607762D01*
X161742548Y-100655381D01*
X161552071Y-100655381D01*
X161456833Y-100607762D01*
X161409214Y-100560143D01*
X161361595Y-100464905D01*
X161361595Y-100226810D01*
X161409214Y-100131571D01*
X161456833Y-100083952D01*
X161552071Y-100036333D01*
X161742548Y-100036333D01*
X161837786Y-100083952D01*
X161885405Y-100131571D01*
X161933024Y-100226810D01*
X163456857Y-111291643D02*
X163504476Y-111339262D01*
X163647333Y-111386881D01*
X163742571Y-111386881D01*
X163885429Y-111339262D01*
X163980667Y-111244024D01*
X164028286Y-111148786D01*
X164075905Y-110958310D01*
X164075905Y-110815452D01*
X164028286Y-110624976D01*
X163980667Y-110529738D01*
X163885429Y-110434500D01*
X163742571Y-110386881D01*
X163647333Y-110386881D01*
X163504476Y-110434500D01*
X163456857Y-110482119D01*
X163123524Y-110386881D02*
X162504476Y-110386881D01*
X162837810Y-110767833D01*
X162694952Y-110767833D01*
X162599714Y-110815452D01*
X162552095Y-110863071D01*
X162504476Y-110958310D01*
X162504476Y-111196405D01*
X162552095Y-111291643D01*
X162599714Y-111339262D01*
X162694952Y-111386881D01*
X162980667Y-111386881D01*
X163075905Y-111339262D01*
X163123524Y-111291643D01*
X162171143Y-110386881D02*
X161504476Y-110386881D01*
X161933048Y-111386881D01*
X164790357Y-122023143D02*
X164837976Y-122070762D01*
X164980833Y-122118381D01*
X165076071Y-122118381D01*
X165218929Y-122070762D01*
X165314167Y-121975524D01*
X165361786Y-121880286D01*
X165409405Y-121689810D01*
X165409405Y-121546952D01*
X165361786Y-121356476D01*
X165314167Y-121261238D01*
X165218929Y-121166000D01*
X165076071Y-121118381D01*
X164980833Y-121118381D01*
X164837976Y-121166000D01*
X164790357Y-121213619D01*
X164457024Y-121118381D02*
X163837976Y-121118381D01*
X164171310Y-121499333D01*
X164028452Y-121499333D01*
X163933214Y-121546952D01*
X163885595Y-121594571D01*
X163837976Y-121689810D01*
X163837976Y-121927905D01*
X163885595Y-122023143D01*
X163933214Y-122070762D01*
X164028452Y-122118381D01*
X164314167Y-122118381D01*
X164409405Y-122070762D01*
X164457024Y-122023143D01*
X163266548Y-121546952D02*
X163361786Y-121499333D01*
X163409405Y-121451714D01*
X163457024Y-121356476D01*
X163457024Y-121308857D01*
X163409405Y-121213619D01*
X163361786Y-121166000D01*
X163266548Y-121118381D01*
X163076071Y-121118381D01*
X162980833Y-121166000D01*
X162933214Y-121213619D01*
X162885595Y-121308857D01*
X162885595Y-121356476D01*
X162933214Y-121451714D01*
X162980833Y-121499333D01*
X163076071Y-121546952D01*
X163266548Y-121546952D01*
X163361786Y-121594571D01*
X163409405Y-121642190D01*
X163457024Y-121737429D01*
X163457024Y-121927905D01*
X163409405Y-122023143D01*
X163361786Y-122070762D01*
X163266548Y-122118381D01*
X163076071Y-122118381D01*
X162980833Y-122070762D01*
X162933214Y-122023143D01*
X162885595Y-121927905D01*
X162885595Y-121737429D01*
X162933214Y-121642190D01*
X162980833Y-121594571D01*
X163076071Y-121546952D01*
X165869857Y-63984143D02*
X165917476Y-64031762D01*
X166060333Y-64079381D01*
X166155571Y-64079381D01*
X166298429Y-64031762D01*
X166393667Y-63936524D01*
X166441286Y-63841286D01*
X166488905Y-63650810D01*
X166488905Y-63507952D01*
X166441286Y-63317476D01*
X166393667Y-63222238D01*
X166298429Y-63127000D01*
X166155571Y-63079381D01*
X166060333Y-63079381D01*
X165917476Y-63127000D01*
X165869857Y-63174619D01*
X165536524Y-63079381D02*
X164917476Y-63079381D01*
X165250810Y-63460333D01*
X165107952Y-63460333D01*
X165012714Y-63507952D01*
X164965095Y-63555571D01*
X164917476Y-63650810D01*
X164917476Y-63888905D01*
X164965095Y-63984143D01*
X165012714Y-64031762D01*
X165107952Y-64079381D01*
X165393667Y-64079381D01*
X165488905Y-64031762D01*
X165536524Y-63984143D01*
X164441286Y-64079381D02*
X164250810Y-64079381D01*
X164155571Y-64031762D01*
X164107952Y-63984143D01*
X164012714Y-63841286D01*
X163965095Y-63650810D01*
X163965095Y-63269857D01*
X164012714Y-63174619D01*
X164060333Y-63127000D01*
X164155571Y-63079381D01*
X164346048Y-63079381D01*
X164441286Y-63127000D01*
X164488905Y-63174619D01*
X164536524Y-63269857D01*
X164536524Y-63507952D01*
X164488905Y-63603190D01*
X164441286Y-63650810D01*
X164346048Y-63698429D01*
X164155571Y-63698429D01*
X164060333Y-63650810D01*
X164012714Y-63603190D01*
X163965095Y-63507952D01*
X165933357Y-74207643D02*
X165980976Y-74255262D01*
X166123833Y-74302881D01*
X166219071Y-74302881D01*
X166361929Y-74255262D01*
X166457167Y-74160024D01*
X166504786Y-74064786D01*
X166552405Y-73874310D01*
X166552405Y-73731452D01*
X166504786Y-73540976D01*
X166457167Y-73445738D01*
X166361929Y-73350500D01*
X166219071Y-73302881D01*
X166123833Y-73302881D01*
X165980976Y-73350500D01*
X165933357Y-73398119D01*
X165076214Y-73636214D02*
X165076214Y-74302881D01*
X165314310Y-73255262D02*
X165552405Y-73969548D01*
X164933357Y-73969548D01*
X164361929Y-73302881D02*
X164266690Y-73302881D01*
X164171452Y-73350500D01*
X164123833Y-73398119D01*
X164076214Y-73493357D01*
X164028595Y-73683833D01*
X164028595Y-73921929D01*
X164076214Y-74112405D01*
X164123833Y-74207643D01*
X164171452Y-74255262D01*
X164266690Y-74302881D01*
X164361929Y-74302881D01*
X164457167Y-74255262D01*
X164504786Y-74207643D01*
X164552405Y-74112405D01*
X164600024Y-73921929D01*
X164600024Y-73683833D01*
X164552405Y-73493357D01*
X164504786Y-73398119D01*
X164457167Y-73350500D01*
X164361929Y-73302881D01*
X165869857Y-85256643D02*
X165917476Y-85304262D01*
X166060333Y-85351881D01*
X166155571Y-85351881D01*
X166298429Y-85304262D01*
X166393667Y-85209024D01*
X166441286Y-85113786D01*
X166488905Y-84923310D01*
X166488905Y-84780452D01*
X166441286Y-84589976D01*
X166393667Y-84494738D01*
X166298429Y-84399500D01*
X166155571Y-84351881D01*
X166060333Y-84351881D01*
X165917476Y-84399500D01*
X165869857Y-84447119D01*
X165012714Y-84685214D02*
X165012714Y-85351881D01*
X165250810Y-84304262D02*
X165488905Y-85018548D01*
X164869857Y-85018548D01*
X163965095Y-85351881D02*
X164536524Y-85351881D01*
X164250810Y-85351881D02*
X164250810Y-84351881D01*
X164346048Y-84494738D01*
X164441286Y-84589976D01*
X164536524Y-84637595D01*
X165996857Y-96305643D02*
X166044476Y-96353262D01*
X166187333Y-96400881D01*
X166282571Y-96400881D01*
X166425429Y-96353262D01*
X166520667Y-96258024D01*
X166568286Y-96162786D01*
X166615905Y-95972310D01*
X166615905Y-95829452D01*
X166568286Y-95638976D01*
X166520667Y-95543738D01*
X166425429Y-95448500D01*
X166282571Y-95400881D01*
X166187333Y-95400881D01*
X166044476Y-95448500D01*
X165996857Y-95496119D01*
X165139714Y-95734214D02*
X165139714Y-96400881D01*
X165377810Y-95353262D02*
X165615905Y-96067548D01*
X164996857Y-96067548D01*
X164663524Y-95496119D02*
X164615905Y-95448500D01*
X164520667Y-95400881D01*
X164282571Y-95400881D01*
X164187333Y-95448500D01*
X164139714Y-95496119D01*
X164092095Y-95591357D01*
X164092095Y-95686595D01*
X164139714Y-95829452D01*
X164711143Y-96400881D01*
X164092095Y-96400881D01*
X166060357Y-107291143D02*
X166107976Y-107338762D01*
X166250833Y-107386381D01*
X166346071Y-107386381D01*
X166488929Y-107338762D01*
X166584167Y-107243524D01*
X166631786Y-107148286D01*
X166679405Y-106957810D01*
X166679405Y-106814952D01*
X166631786Y-106624476D01*
X166584167Y-106529238D01*
X166488929Y-106434000D01*
X166346071Y-106386381D01*
X166250833Y-106386381D01*
X166107976Y-106434000D01*
X166060357Y-106481619D01*
X165203214Y-106719714D02*
X165203214Y-107386381D01*
X165441310Y-106338762D02*
X165679405Y-107053048D01*
X165060357Y-107053048D01*
X164774643Y-106386381D02*
X164155595Y-106386381D01*
X164488929Y-106767333D01*
X164346071Y-106767333D01*
X164250833Y-106814952D01*
X164203214Y-106862571D01*
X164155595Y-106957810D01*
X164155595Y-107195905D01*
X164203214Y-107291143D01*
X164250833Y-107338762D01*
X164346071Y-107386381D01*
X164631786Y-107386381D01*
X164727024Y-107338762D01*
X164774643Y-107291143D01*
X166187357Y-118213143D02*
X166234976Y-118260762D01*
X166377833Y-118308381D01*
X166473071Y-118308381D01*
X166615929Y-118260762D01*
X166711167Y-118165524D01*
X166758786Y-118070286D01*
X166806405Y-117879810D01*
X166806405Y-117736952D01*
X166758786Y-117546476D01*
X166711167Y-117451238D01*
X166615929Y-117356000D01*
X166473071Y-117308381D01*
X166377833Y-117308381D01*
X166234976Y-117356000D01*
X166187357Y-117403619D01*
X165330214Y-117641714D02*
X165330214Y-118308381D01*
X165568310Y-117260762D02*
X165806405Y-117975048D01*
X165187357Y-117975048D01*
X164377833Y-117641714D02*
X164377833Y-118308381D01*
X164615929Y-117260762D02*
X164854024Y-117975048D01*
X164234976Y-117975048D01*
X168790857Y-56935643D02*
X168838476Y-56983262D01*
X168981333Y-57030881D01*
X169076571Y-57030881D01*
X169219429Y-56983262D01*
X169314667Y-56888024D01*
X169362286Y-56792786D01*
X169409905Y-56602310D01*
X169409905Y-56459452D01*
X169362286Y-56268976D01*
X169314667Y-56173738D01*
X169219429Y-56078500D01*
X169076571Y-56030881D01*
X168981333Y-56030881D01*
X168838476Y-56078500D01*
X168790857Y-56126119D01*
X167933714Y-56364214D02*
X167933714Y-57030881D01*
X168171810Y-55983262D02*
X168409905Y-56697548D01*
X167790857Y-56697548D01*
X166933714Y-56030881D02*
X167409905Y-56030881D01*
X167457524Y-56507071D01*
X167409905Y-56459452D01*
X167314667Y-56411833D01*
X167076571Y-56411833D01*
X166981333Y-56459452D01*
X166933714Y-56507071D01*
X166886095Y-56602310D01*
X166886095Y-56840405D01*
X166933714Y-56935643D01*
X166981333Y-56983262D01*
X167076571Y-57030881D01*
X167314667Y-57030881D01*
X167409905Y-56983262D01*
X167457524Y-56935643D01*
X167266857Y-70842143D02*
X167314476Y-70889762D01*
X167457333Y-70937381D01*
X167552571Y-70937381D01*
X167695429Y-70889762D01*
X167790667Y-70794524D01*
X167838286Y-70699286D01*
X167885905Y-70508810D01*
X167885905Y-70365952D01*
X167838286Y-70175476D01*
X167790667Y-70080238D01*
X167695429Y-69985000D01*
X167552571Y-69937381D01*
X167457333Y-69937381D01*
X167314476Y-69985000D01*
X167266857Y-70032619D01*
X166409714Y-70270714D02*
X166409714Y-70937381D01*
X166647810Y-69889762D02*
X166885905Y-70604048D01*
X166266857Y-70604048D01*
X165457333Y-69937381D02*
X165647810Y-69937381D01*
X165743048Y-69985000D01*
X165790667Y-70032619D01*
X165885905Y-70175476D01*
X165933524Y-70365952D01*
X165933524Y-70746905D01*
X165885905Y-70842143D01*
X165838286Y-70889762D01*
X165743048Y-70937381D01*
X165552571Y-70937381D01*
X165457333Y-70889762D01*
X165409714Y-70842143D01*
X165362095Y-70746905D01*
X165362095Y-70508810D01*
X165409714Y-70413571D01*
X165457333Y-70365952D01*
X165552571Y-70318333D01*
X165743048Y-70318333D01*
X165838286Y-70365952D01*
X165885905Y-70413571D01*
X165933524Y-70508810D01*
X167584357Y-81573643D02*
X167631976Y-81621262D01*
X167774833Y-81668881D01*
X167870071Y-81668881D01*
X168012929Y-81621262D01*
X168108167Y-81526024D01*
X168155786Y-81430786D01*
X168203405Y-81240310D01*
X168203405Y-81097452D01*
X168155786Y-80906976D01*
X168108167Y-80811738D01*
X168012929Y-80716500D01*
X167870071Y-80668881D01*
X167774833Y-80668881D01*
X167631976Y-80716500D01*
X167584357Y-80764119D01*
X166727214Y-81002214D02*
X166727214Y-81668881D01*
X166965310Y-80621262D02*
X167203405Y-81335548D01*
X166584357Y-81335548D01*
X166298643Y-80668881D02*
X165631976Y-80668881D01*
X166060548Y-81668881D01*
X167457357Y-92876643D02*
X167504976Y-92924262D01*
X167647833Y-92971881D01*
X167743071Y-92971881D01*
X167885929Y-92924262D01*
X167981167Y-92829024D01*
X168028786Y-92733786D01*
X168076405Y-92543310D01*
X168076405Y-92400452D01*
X168028786Y-92209976D01*
X167981167Y-92114738D01*
X167885929Y-92019500D01*
X167743071Y-91971881D01*
X167647833Y-91971881D01*
X167504976Y-92019500D01*
X167457357Y-92067119D01*
X166600214Y-92305214D02*
X166600214Y-92971881D01*
X166838310Y-91924262D02*
X167076405Y-92638548D01*
X166457357Y-92638548D01*
X165933548Y-92400452D02*
X166028786Y-92352833D01*
X166076405Y-92305214D01*
X166124024Y-92209976D01*
X166124024Y-92162357D01*
X166076405Y-92067119D01*
X166028786Y-92019500D01*
X165933548Y-91971881D01*
X165743071Y-91971881D01*
X165647833Y-92019500D01*
X165600214Y-92067119D01*
X165552595Y-92162357D01*
X165552595Y-92209976D01*
X165600214Y-92305214D01*
X165647833Y-92352833D01*
X165743071Y-92400452D01*
X165933548Y-92400452D01*
X166028786Y-92448071D01*
X166076405Y-92495690D01*
X166124024Y-92590929D01*
X166124024Y-92781405D01*
X166076405Y-92876643D01*
X166028786Y-92924262D01*
X165933548Y-92971881D01*
X165743071Y-92971881D01*
X165647833Y-92924262D01*
X165600214Y-92876643D01*
X165552595Y-92781405D01*
X165552595Y-92590929D01*
X165600214Y-92495690D01*
X165647833Y-92448071D01*
X165743071Y-92400452D01*
X167711357Y-103417643D02*
X167758976Y-103465262D01*
X167901833Y-103512881D01*
X167997071Y-103512881D01*
X168139929Y-103465262D01*
X168235167Y-103370024D01*
X168282786Y-103274786D01*
X168330405Y-103084310D01*
X168330405Y-102941452D01*
X168282786Y-102750976D01*
X168235167Y-102655738D01*
X168139929Y-102560500D01*
X167997071Y-102512881D01*
X167901833Y-102512881D01*
X167758976Y-102560500D01*
X167711357Y-102608119D01*
X166854214Y-102846214D02*
X166854214Y-103512881D01*
X167092310Y-102465262D02*
X167330405Y-103179548D01*
X166711357Y-103179548D01*
X166282786Y-103512881D02*
X166092310Y-103512881D01*
X165997071Y-103465262D01*
X165949452Y-103417643D01*
X165854214Y-103274786D01*
X165806595Y-103084310D01*
X165806595Y-102703357D01*
X165854214Y-102608119D01*
X165901833Y-102560500D01*
X165997071Y-102512881D01*
X166187548Y-102512881D01*
X166282786Y-102560500D01*
X166330405Y-102608119D01*
X166378024Y-102703357D01*
X166378024Y-102941452D01*
X166330405Y-103036690D01*
X166282786Y-103084310D01*
X166187548Y-103131929D01*
X165997071Y-103131929D01*
X165901833Y-103084310D01*
X165854214Y-103036690D01*
X165806595Y-102941452D01*
X167774857Y-114212643D02*
X167822476Y-114260262D01*
X167965333Y-114307881D01*
X168060571Y-114307881D01*
X168203429Y-114260262D01*
X168298667Y-114165024D01*
X168346286Y-114069786D01*
X168393905Y-113879310D01*
X168393905Y-113736452D01*
X168346286Y-113545976D01*
X168298667Y-113450738D01*
X168203429Y-113355500D01*
X168060571Y-113307881D01*
X167965333Y-113307881D01*
X167822476Y-113355500D01*
X167774857Y-113403119D01*
X166870095Y-113307881D02*
X167346286Y-113307881D01*
X167393905Y-113784071D01*
X167346286Y-113736452D01*
X167251048Y-113688833D01*
X167012952Y-113688833D01*
X166917714Y-113736452D01*
X166870095Y-113784071D01*
X166822476Y-113879310D01*
X166822476Y-114117405D01*
X166870095Y-114212643D01*
X166917714Y-114260262D01*
X167012952Y-114307881D01*
X167251048Y-114307881D01*
X167346286Y-114260262D01*
X167393905Y-114212643D01*
X166203429Y-113307881D02*
X166108190Y-113307881D01*
X166012952Y-113355500D01*
X165965333Y-113403119D01*
X165917714Y-113498357D01*
X165870095Y-113688833D01*
X165870095Y-113926929D01*
X165917714Y-114117405D01*
X165965333Y-114212643D01*
X166012952Y-114260262D01*
X166108190Y-114307881D01*
X166203429Y-114307881D01*
X166298667Y-114260262D01*
X166346286Y-114212643D01*
X166393905Y-114117405D01*
X166441524Y-113926929D01*
X166441524Y-113688833D01*
X166393905Y-113498357D01*
X166346286Y-113403119D01*
X166298667Y-113355500D01*
X166203429Y-113307881D01*
X175426643Y-61396643D02*
X175474262Y-61349024D01*
X175521881Y-61206167D01*
X175521881Y-61110929D01*
X175474262Y-60968071D01*
X175379024Y-60872833D01*
X175283786Y-60825214D01*
X175093310Y-60777595D01*
X174950452Y-60777595D01*
X174759976Y-60825214D01*
X174664738Y-60872833D01*
X174569500Y-60968071D01*
X174521881Y-61110929D01*
X174521881Y-61206167D01*
X174569500Y-61349024D01*
X174617119Y-61396643D01*
X174521881Y-62301405D02*
X174521881Y-61825214D01*
X174998071Y-61777595D01*
X174950452Y-61825214D01*
X174902833Y-61920452D01*
X174902833Y-62158548D01*
X174950452Y-62253786D01*
X174998071Y-62301405D01*
X175093310Y-62349024D01*
X175331405Y-62349024D01*
X175426643Y-62301405D01*
X175474262Y-62253786D01*
X175521881Y-62158548D01*
X175521881Y-61920452D01*
X175474262Y-61825214D01*
X175426643Y-61777595D01*
X175521881Y-63301405D02*
X175521881Y-62729976D01*
X175521881Y-63015690D02*
X174521881Y-63015690D01*
X174664738Y-62920452D01*
X174759976Y-62825214D01*
X174807595Y-62729976D01*
X175490143Y-72318643D02*
X175537762Y-72271024D01*
X175585381Y-72128167D01*
X175585381Y-72032929D01*
X175537762Y-71890071D01*
X175442524Y-71794833D01*
X175347286Y-71747214D01*
X175156810Y-71699595D01*
X175013952Y-71699595D01*
X174823476Y-71747214D01*
X174728238Y-71794833D01*
X174633000Y-71890071D01*
X174585381Y-72032929D01*
X174585381Y-72128167D01*
X174633000Y-72271024D01*
X174680619Y-72318643D01*
X174585381Y-73223405D02*
X174585381Y-72747214D01*
X175061571Y-72699595D01*
X175013952Y-72747214D01*
X174966333Y-72842452D01*
X174966333Y-73080548D01*
X175013952Y-73175786D01*
X175061571Y-73223405D01*
X175156810Y-73271024D01*
X175394905Y-73271024D01*
X175490143Y-73223405D01*
X175537762Y-73175786D01*
X175585381Y-73080548D01*
X175585381Y-72842452D01*
X175537762Y-72747214D01*
X175490143Y-72699595D01*
X174680619Y-73651976D02*
X174633000Y-73699595D01*
X174585381Y-73794833D01*
X174585381Y-74032929D01*
X174633000Y-74128167D01*
X174680619Y-74175786D01*
X174775857Y-74223405D01*
X174871095Y-74223405D01*
X175013952Y-74175786D01*
X175585381Y-73604357D01*
X175585381Y-74223405D01*
X175363143Y-83304143D02*
X175410762Y-83256524D01*
X175458381Y-83113667D01*
X175458381Y-83018429D01*
X175410762Y-82875571D01*
X175315524Y-82780333D01*
X175220286Y-82732714D01*
X175029810Y-82685095D01*
X174886952Y-82685095D01*
X174696476Y-82732714D01*
X174601238Y-82780333D01*
X174506000Y-82875571D01*
X174458381Y-83018429D01*
X174458381Y-83113667D01*
X174506000Y-83256524D01*
X174553619Y-83304143D01*
X174458381Y-84208905D02*
X174458381Y-83732714D01*
X174934571Y-83685095D01*
X174886952Y-83732714D01*
X174839333Y-83827952D01*
X174839333Y-84066048D01*
X174886952Y-84161286D01*
X174934571Y-84208905D01*
X175029810Y-84256524D01*
X175267905Y-84256524D01*
X175363143Y-84208905D01*
X175410762Y-84161286D01*
X175458381Y-84066048D01*
X175458381Y-83827952D01*
X175410762Y-83732714D01*
X175363143Y-83685095D01*
X174458381Y-84589857D02*
X174458381Y-85208905D01*
X174839333Y-84875571D01*
X174839333Y-85018429D01*
X174886952Y-85113667D01*
X174934571Y-85161286D01*
X175029810Y-85208905D01*
X175267905Y-85208905D01*
X175363143Y-85161286D01*
X175410762Y-85113667D01*
X175458381Y-85018429D01*
X175458381Y-84732714D01*
X175410762Y-84637476D01*
X175363143Y-84589857D01*
X175426643Y-94099143D02*
X175474262Y-94051524D01*
X175521881Y-93908667D01*
X175521881Y-93813429D01*
X175474262Y-93670571D01*
X175379024Y-93575333D01*
X175283786Y-93527714D01*
X175093310Y-93480095D01*
X174950452Y-93480095D01*
X174759976Y-93527714D01*
X174664738Y-93575333D01*
X174569500Y-93670571D01*
X174521881Y-93813429D01*
X174521881Y-93908667D01*
X174569500Y-94051524D01*
X174617119Y-94099143D01*
X174521881Y-95003905D02*
X174521881Y-94527714D01*
X174998071Y-94480095D01*
X174950452Y-94527714D01*
X174902833Y-94622952D01*
X174902833Y-94861048D01*
X174950452Y-94956286D01*
X174998071Y-95003905D01*
X175093310Y-95051524D01*
X175331405Y-95051524D01*
X175426643Y-95003905D01*
X175474262Y-94956286D01*
X175521881Y-94861048D01*
X175521881Y-94622952D01*
X175474262Y-94527714D01*
X175426643Y-94480095D01*
X174855214Y-95908667D02*
X175521881Y-95908667D01*
X174474262Y-95670571D02*
X175188548Y-95432476D01*
X175188548Y-96051524D01*
X175490143Y-105211643D02*
X175537762Y-105164024D01*
X175585381Y-105021167D01*
X175585381Y-104925929D01*
X175537762Y-104783071D01*
X175442524Y-104687833D01*
X175347286Y-104640214D01*
X175156810Y-104592595D01*
X175013952Y-104592595D01*
X174823476Y-104640214D01*
X174728238Y-104687833D01*
X174633000Y-104783071D01*
X174585381Y-104925929D01*
X174585381Y-105021167D01*
X174633000Y-105164024D01*
X174680619Y-105211643D01*
X174585381Y-106116405D02*
X174585381Y-105640214D01*
X175061571Y-105592595D01*
X175013952Y-105640214D01*
X174966333Y-105735452D01*
X174966333Y-105973548D01*
X175013952Y-106068786D01*
X175061571Y-106116405D01*
X175156810Y-106164024D01*
X175394905Y-106164024D01*
X175490143Y-106116405D01*
X175537762Y-106068786D01*
X175585381Y-105973548D01*
X175585381Y-105735452D01*
X175537762Y-105640214D01*
X175490143Y-105592595D01*
X174585381Y-107068786D02*
X174585381Y-106592595D01*
X175061571Y-106544976D01*
X175013952Y-106592595D01*
X174966333Y-106687833D01*
X174966333Y-106925929D01*
X175013952Y-107021167D01*
X175061571Y-107068786D01*
X175156810Y-107116405D01*
X175394905Y-107116405D01*
X175490143Y-107068786D01*
X175537762Y-107021167D01*
X175585381Y-106925929D01*
X175585381Y-106687833D01*
X175537762Y-106592595D01*
X175490143Y-106544976D01*
X172124643Y-115689143D02*
X172172262Y-115641524D01*
X172219881Y-115498667D01*
X172219881Y-115403429D01*
X172172262Y-115260571D01*
X172077024Y-115165333D01*
X171981786Y-115117714D01*
X171791310Y-115070095D01*
X171648452Y-115070095D01*
X171457976Y-115117714D01*
X171362738Y-115165333D01*
X171267500Y-115260571D01*
X171219881Y-115403429D01*
X171219881Y-115498667D01*
X171267500Y-115641524D01*
X171315119Y-115689143D01*
X171219881Y-116593905D02*
X171219881Y-116117714D01*
X171696071Y-116070095D01*
X171648452Y-116117714D01*
X171600833Y-116212952D01*
X171600833Y-116451048D01*
X171648452Y-116546286D01*
X171696071Y-116593905D01*
X171791310Y-116641524D01*
X172029405Y-116641524D01*
X172124643Y-116593905D01*
X172172262Y-116546286D01*
X172219881Y-116451048D01*
X172219881Y-116212952D01*
X172172262Y-116117714D01*
X172124643Y-116070095D01*
X171219881Y-117498667D02*
X171219881Y-117308190D01*
X171267500Y-117212952D01*
X171315119Y-117165333D01*
X171457976Y-117070095D01*
X171648452Y-117022476D01*
X172029405Y-117022476D01*
X172124643Y-117070095D01*
X172172262Y-117117714D01*
X172219881Y-117212952D01*
X172219881Y-117403429D01*
X172172262Y-117498667D01*
X172124643Y-117546286D01*
X172029405Y-117593905D01*
X171791310Y-117593905D01*
X171696071Y-117546286D01*
X171648452Y-117498667D01*
X171600833Y-117403429D01*
X171600833Y-117212952D01*
X171648452Y-117117714D01*
X171696071Y-117070095D01*
X171791310Y-117022476D01*
X171902357Y-67794143D02*
X171949976Y-67841762D01*
X172092833Y-67889381D01*
X172188071Y-67889381D01*
X172330929Y-67841762D01*
X172426167Y-67746524D01*
X172473786Y-67651286D01*
X172521405Y-67460810D01*
X172521405Y-67317952D01*
X172473786Y-67127476D01*
X172426167Y-67032238D01*
X172330929Y-66937000D01*
X172188071Y-66889381D01*
X172092833Y-66889381D01*
X171949976Y-66937000D01*
X171902357Y-66984619D01*
X170997595Y-66889381D02*
X171473786Y-66889381D01*
X171521405Y-67365571D01*
X171473786Y-67317952D01*
X171378548Y-67270333D01*
X171140452Y-67270333D01*
X171045214Y-67317952D01*
X170997595Y-67365571D01*
X170949976Y-67460810D01*
X170949976Y-67698905D01*
X170997595Y-67794143D01*
X171045214Y-67841762D01*
X171140452Y-67889381D01*
X171378548Y-67889381D01*
X171473786Y-67841762D01*
X171521405Y-67794143D01*
X170616643Y-66889381D02*
X169949976Y-66889381D01*
X170378548Y-67889381D01*
X171330857Y-78398643D02*
X171378476Y-78446262D01*
X171521333Y-78493881D01*
X171616571Y-78493881D01*
X171759429Y-78446262D01*
X171854667Y-78351024D01*
X171902286Y-78255786D01*
X171949905Y-78065310D01*
X171949905Y-77922452D01*
X171902286Y-77731976D01*
X171854667Y-77636738D01*
X171759429Y-77541500D01*
X171616571Y-77493881D01*
X171521333Y-77493881D01*
X171378476Y-77541500D01*
X171330857Y-77589119D01*
X170426095Y-77493881D02*
X170902286Y-77493881D01*
X170949905Y-77970071D01*
X170902286Y-77922452D01*
X170807048Y-77874833D01*
X170568952Y-77874833D01*
X170473714Y-77922452D01*
X170426095Y-77970071D01*
X170378476Y-78065310D01*
X170378476Y-78303405D01*
X170426095Y-78398643D01*
X170473714Y-78446262D01*
X170568952Y-78493881D01*
X170807048Y-78493881D01*
X170902286Y-78446262D01*
X170949905Y-78398643D01*
X169807048Y-77922452D02*
X169902286Y-77874833D01*
X169949905Y-77827214D01*
X169997524Y-77731976D01*
X169997524Y-77684357D01*
X169949905Y-77589119D01*
X169902286Y-77541500D01*
X169807048Y-77493881D01*
X169616571Y-77493881D01*
X169521333Y-77541500D01*
X169473714Y-77589119D01*
X169426095Y-77684357D01*
X169426095Y-77731976D01*
X169473714Y-77827214D01*
X169521333Y-77874833D01*
X169616571Y-77922452D01*
X169807048Y-77922452D01*
X169902286Y-77970071D01*
X169949905Y-78017690D01*
X169997524Y-78112929D01*
X169997524Y-78303405D01*
X169949905Y-78398643D01*
X169902286Y-78446262D01*
X169807048Y-78493881D01*
X169616571Y-78493881D01*
X169521333Y-78446262D01*
X169473714Y-78398643D01*
X169426095Y-78303405D01*
X169426095Y-78112929D01*
X169473714Y-78017690D01*
X169521333Y-77970071D01*
X169616571Y-77922452D01*
X171584857Y-89320643D02*
X171632476Y-89368262D01*
X171775333Y-89415881D01*
X171870571Y-89415881D01*
X172013429Y-89368262D01*
X172108667Y-89273024D01*
X172156286Y-89177786D01*
X172203905Y-88987310D01*
X172203905Y-88844452D01*
X172156286Y-88653976D01*
X172108667Y-88558738D01*
X172013429Y-88463500D01*
X171870571Y-88415881D01*
X171775333Y-88415881D01*
X171632476Y-88463500D01*
X171584857Y-88511119D01*
X170680095Y-88415881D02*
X171156286Y-88415881D01*
X171203905Y-88892071D01*
X171156286Y-88844452D01*
X171061048Y-88796833D01*
X170822952Y-88796833D01*
X170727714Y-88844452D01*
X170680095Y-88892071D01*
X170632476Y-88987310D01*
X170632476Y-89225405D01*
X170680095Y-89320643D01*
X170727714Y-89368262D01*
X170822952Y-89415881D01*
X171061048Y-89415881D01*
X171156286Y-89368262D01*
X171203905Y-89320643D01*
X170156286Y-89415881D02*
X169965810Y-89415881D01*
X169870571Y-89368262D01*
X169822952Y-89320643D01*
X169727714Y-89177786D01*
X169680095Y-88987310D01*
X169680095Y-88606357D01*
X169727714Y-88511119D01*
X169775333Y-88463500D01*
X169870571Y-88415881D01*
X170061048Y-88415881D01*
X170156286Y-88463500D01*
X170203905Y-88511119D01*
X170251524Y-88606357D01*
X170251524Y-88844452D01*
X170203905Y-88939690D01*
X170156286Y-88987310D01*
X170061048Y-89034929D01*
X169870571Y-89034929D01*
X169775333Y-88987310D01*
X169727714Y-88939690D01*
X169680095Y-88844452D01*
X171521357Y-97321643D02*
X171568976Y-97369262D01*
X171711833Y-97416881D01*
X171807071Y-97416881D01*
X171949929Y-97369262D01*
X172045167Y-97274024D01*
X172092786Y-97178786D01*
X172140405Y-96988310D01*
X172140405Y-96845452D01*
X172092786Y-96654976D01*
X172045167Y-96559738D01*
X171949929Y-96464500D01*
X171807071Y-96416881D01*
X171711833Y-96416881D01*
X171568976Y-96464500D01*
X171521357Y-96512119D01*
X170664214Y-96416881D02*
X170854691Y-96416881D01*
X170949929Y-96464500D01*
X170997548Y-96512119D01*
X171092786Y-96654976D01*
X171140405Y-96845452D01*
X171140405Y-97226405D01*
X171092786Y-97321643D01*
X171045167Y-97369262D01*
X170949929Y-97416881D01*
X170759452Y-97416881D01*
X170664214Y-97369262D01*
X170616595Y-97321643D01*
X170568976Y-97226405D01*
X170568976Y-96988310D01*
X170616595Y-96893071D01*
X170664214Y-96845452D01*
X170759452Y-96797833D01*
X170949929Y-96797833D01*
X171045167Y-96845452D01*
X171092786Y-96893071D01*
X171140405Y-96988310D01*
X169949929Y-96416881D02*
X169854690Y-96416881D01*
X169759452Y-96464500D01*
X169711833Y-96512119D01*
X169664214Y-96607357D01*
X169616595Y-96797833D01*
X169616595Y-97035929D01*
X169664214Y-97226405D01*
X169711833Y-97321643D01*
X169759452Y-97369262D01*
X169854690Y-97416881D01*
X169949929Y-97416881D01*
X170045167Y-97369262D01*
X170092786Y-97321643D01*
X170140405Y-97226405D01*
X170188024Y-97035929D01*
X170188024Y-96797833D01*
X170140405Y-96607357D01*
X170092786Y-96512119D01*
X170045167Y-96464500D01*
X169949929Y-96416881D01*
X171521357Y-108243643D02*
X171568976Y-108291262D01*
X171711833Y-108338881D01*
X171807071Y-108338881D01*
X171949929Y-108291262D01*
X172045167Y-108196024D01*
X172092786Y-108100786D01*
X172140405Y-107910310D01*
X172140405Y-107767452D01*
X172092786Y-107576976D01*
X172045167Y-107481738D01*
X171949929Y-107386500D01*
X171807071Y-107338881D01*
X171711833Y-107338881D01*
X171568976Y-107386500D01*
X171521357Y-107434119D01*
X170664214Y-107338881D02*
X170854691Y-107338881D01*
X170949929Y-107386500D01*
X170997548Y-107434119D01*
X171092786Y-107576976D01*
X171140405Y-107767452D01*
X171140405Y-108148405D01*
X171092786Y-108243643D01*
X171045167Y-108291262D01*
X170949929Y-108338881D01*
X170759452Y-108338881D01*
X170664214Y-108291262D01*
X170616595Y-108243643D01*
X170568976Y-108148405D01*
X170568976Y-107910310D01*
X170616595Y-107815071D01*
X170664214Y-107767452D01*
X170759452Y-107719833D01*
X170949929Y-107719833D01*
X171045167Y-107767452D01*
X171092786Y-107815071D01*
X171140405Y-107910310D01*
X169616595Y-108338881D02*
X170188024Y-108338881D01*
X169902310Y-108338881D02*
X169902310Y-107338881D01*
X169997548Y-107481738D01*
X170092786Y-107576976D01*
X170188024Y-107624595D01*
X170441857Y-122340643D02*
X170489476Y-122388262D01*
X170632333Y-122435881D01*
X170727571Y-122435881D01*
X170870429Y-122388262D01*
X170965667Y-122293024D01*
X171013286Y-122197786D01*
X171060905Y-122007310D01*
X171060905Y-121864452D01*
X171013286Y-121673976D01*
X170965667Y-121578738D01*
X170870429Y-121483500D01*
X170727571Y-121435881D01*
X170632333Y-121435881D01*
X170489476Y-121483500D01*
X170441857Y-121531119D01*
X169584714Y-121435881D02*
X169775191Y-121435881D01*
X169870429Y-121483500D01*
X169918048Y-121531119D01*
X170013286Y-121673976D01*
X170060905Y-121864452D01*
X170060905Y-122245405D01*
X170013286Y-122340643D01*
X169965667Y-122388262D01*
X169870429Y-122435881D01*
X169679952Y-122435881D01*
X169584714Y-122388262D01*
X169537095Y-122340643D01*
X169489476Y-122245405D01*
X169489476Y-122007310D01*
X169537095Y-121912071D01*
X169584714Y-121864452D01*
X169679952Y-121816833D01*
X169870429Y-121816833D01*
X169965667Y-121864452D01*
X170013286Y-121912071D01*
X170060905Y-122007310D01*
X169108524Y-121531119D02*
X169060905Y-121483500D01*
X168965667Y-121435881D01*
X168727571Y-121435881D01*
X168632333Y-121483500D01*
X168584714Y-121531119D01*
X168537095Y-121626357D01*
X168537095Y-121721595D01*
X168584714Y-121864452D01*
X169156143Y-122435881D01*
X168537095Y-122435881D01*
X153604197Y-52932603D02*
X153651816Y-52980222D01*
X153794673Y-53027841D01*
X153889911Y-53027841D01*
X154032769Y-52980222D01*
X154128007Y-52884984D01*
X154175626Y-52789746D01*
X154223245Y-52599270D01*
X154223245Y-52456412D01*
X154175626Y-52265936D01*
X154128007Y-52170698D01*
X154032769Y-52075460D01*
X153889911Y-52027841D01*
X153794673Y-52027841D01*
X153651816Y-52075460D01*
X153604197Y-52123079D01*
X152651816Y-53027841D02*
X153223245Y-53027841D01*
X152937531Y-53027841D02*
X152937531Y-52027841D01*
X153032769Y-52170698D01*
X153128007Y-52265936D01*
X153223245Y-52313555D01*
X151794673Y-52361174D02*
X151794673Y-53027841D01*
X152032769Y-51980222D02*
X152270864Y-52694508D01*
X151651816Y-52694508D01*
X146687492Y-52047449D02*
X145925587Y-52047449D01*
X146306539Y-52428401D02*
X146306539Y-51666496D01*
X140850857Y-50395143D02*
X140898476Y-50442762D01*
X141041333Y-50490381D01*
X141136571Y-50490381D01*
X141279429Y-50442762D01*
X141374667Y-50347524D01*
X141422286Y-50252286D01*
X141469905Y-50061810D01*
X141469905Y-49918952D01*
X141422286Y-49728476D01*
X141374667Y-49633238D01*
X141279429Y-49538000D01*
X141136571Y-49490381D01*
X141041333Y-49490381D01*
X140898476Y-49538000D01*
X140850857Y-49585619D01*
X140469905Y-49585619D02*
X140422286Y-49538000D01*
X140327048Y-49490381D01*
X140088952Y-49490381D01*
X139993714Y-49538000D01*
X139946095Y-49585619D01*
X139898476Y-49680857D01*
X139898476Y-49776095D01*
X139946095Y-49918952D01*
X140517524Y-50490381D01*
X139898476Y-50490381D01*
X139279429Y-49490381D02*
X139184190Y-49490381D01*
X139088952Y-49538000D01*
X139041333Y-49585619D01*
X138993714Y-49680857D01*
X138946095Y-49871333D01*
X138946095Y-50109429D01*
X138993714Y-50299905D01*
X139041333Y-50395143D01*
X139088952Y-50442762D01*
X139184190Y-50490381D01*
X139279429Y-50490381D01*
X139374667Y-50442762D01*
X139422286Y-50395143D01*
X139469905Y-50299905D01*
X139517524Y-50109429D01*
X139517524Y-49871333D01*
X139469905Y-49680857D01*
X139422286Y-49585619D01*
X139374667Y-49538000D01*
X139279429Y-49490381D01*
X134838392Y-54849069D02*
X134076487Y-54849069D01*
X134457439Y-55230021D02*
X134457439Y-54468116D01*
X146470666Y-56423143D02*
X146518285Y-56470762D01*
X146661142Y-56518381D01*
X146756380Y-56518381D01*
X146899238Y-56470762D01*
X146994476Y-56375524D01*
X147042095Y-56280286D01*
X147089714Y-56089810D01*
X147089714Y-55946952D01*
X147042095Y-55756476D01*
X146994476Y-55661238D01*
X146899238Y-55566000D01*
X146756380Y-55518381D01*
X146661142Y-55518381D01*
X146518285Y-55566000D01*
X146470666Y-55613619D01*
X146137333Y-55518381D02*
X145470666Y-55518381D01*
X145899238Y-56518381D01*
X192889143Y-61333143D02*
X192936762Y-61285524D01*
X192984381Y-61142667D01*
X192984381Y-61047429D01*
X192936762Y-60904571D01*
X192841524Y-60809333D01*
X192746286Y-60761714D01*
X192555810Y-60714095D01*
X192412952Y-60714095D01*
X192222476Y-60761714D01*
X192127238Y-60809333D01*
X192032000Y-60904571D01*
X191984381Y-61047429D01*
X191984381Y-61142667D01*
X192032000Y-61285524D01*
X192079619Y-61333143D01*
X191984381Y-62190286D02*
X191984381Y-61999809D01*
X192032000Y-61904571D01*
X192079619Y-61856952D01*
X192222476Y-61761714D01*
X192412952Y-61714095D01*
X192793905Y-61714095D01*
X192889143Y-61761714D01*
X192936762Y-61809333D01*
X192984381Y-61904571D01*
X192984381Y-62095048D01*
X192936762Y-62190286D01*
X192889143Y-62237905D01*
X192793905Y-62285524D01*
X192555810Y-62285524D01*
X192460571Y-62237905D01*
X192412952Y-62190286D01*
X192365333Y-62095048D01*
X192365333Y-61904571D01*
X192412952Y-61809333D01*
X192460571Y-61761714D01*
X192555810Y-61714095D01*
X191984381Y-63190286D02*
X191984381Y-62714095D01*
X192460571Y-62666476D01*
X192412952Y-62714095D01*
X192365333Y-62809333D01*
X192365333Y-63047429D01*
X192412952Y-63142667D01*
X192460571Y-63190286D01*
X192555810Y-63237905D01*
X192793905Y-63237905D01*
X192889143Y-63190286D01*
X192936762Y-63142667D01*
X192984381Y-63047429D01*
X192984381Y-62809333D01*
X192936762Y-62714095D01*
X192889143Y-62666476D01*
X192635143Y-115689143D02*
X192682762Y-115641524D01*
X192730381Y-115498667D01*
X192730381Y-115403429D01*
X192682762Y-115260571D01*
X192587524Y-115165333D01*
X192492286Y-115117714D01*
X192301810Y-115070095D01*
X192158952Y-115070095D01*
X191968476Y-115117714D01*
X191873238Y-115165333D01*
X191778000Y-115260571D01*
X191730381Y-115403429D01*
X191730381Y-115498667D01*
X191778000Y-115641524D01*
X191825619Y-115689143D01*
X191730381Y-116546286D02*
X191730381Y-116355809D01*
X191778000Y-116260571D01*
X191825619Y-116212952D01*
X191968476Y-116117714D01*
X192158952Y-116070095D01*
X192539905Y-116070095D01*
X192635143Y-116117714D01*
X192682762Y-116165333D01*
X192730381Y-116260571D01*
X192730381Y-116451048D01*
X192682762Y-116546286D01*
X192635143Y-116593905D01*
X192539905Y-116641524D01*
X192301810Y-116641524D01*
X192206571Y-116593905D01*
X192158952Y-116546286D01*
X192111333Y-116451048D01*
X192111333Y-116260571D01*
X192158952Y-116165333D01*
X192206571Y-116117714D01*
X192301810Y-116070095D01*
X191730381Y-117498667D02*
X191730381Y-117308190D01*
X191778000Y-117212952D01*
X191825619Y-117165333D01*
X191968476Y-117070095D01*
X192158952Y-117022476D01*
X192539905Y-117022476D01*
X192635143Y-117070095D01*
X192682762Y-117117714D01*
X192730381Y-117212952D01*
X192730381Y-117403429D01*
X192682762Y-117498667D01*
X192635143Y-117546286D01*
X192539905Y-117593905D01*
X192301810Y-117593905D01*
X192206571Y-117546286D01*
X192158952Y-117498667D01*
X192111333Y-117403429D01*
X192111333Y-117212952D01*
X192158952Y-117117714D01*
X192206571Y-117070095D01*
X192301810Y-117022476D01*
X138465143Y-115943143D02*
X138512762Y-115895524D01*
X138560381Y-115752667D01*
X138560381Y-115657429D01*
X138512762Y-115514571D01*
X138417524Y-115419333D01*
X138322286Y-115371714D01*
X138131810Y-115324095D01*
X137988952Y-115324095D01*
X137798476Y-115371714D01*
X137703238Y-115419333D01*
X137608000Y-115514571D01*
X137560381Y-115657429D01*
X137560381Y-115752667D01*
X137608000Y-115895524D01*
X137655619Y-115943143D01*
X137560381Y-116800286D02*
X137560381Y-116609809D01*
X137608000Y-116514571D01*
X137655619Y-116466952D01*
X137798476Y-116371714D01*
X137988952Y-116324095D01*
X138369905Y-116324095D01*
X138465143Y-116371714D01*
X138512762Y-116419333D01*
X138560381Y-116514571D01*
X138560381Y-116705048D01*
X138512762Y-116800286D01*
X138465143Y-116847905D01*
X138369905Y-116895524D01*
X138131810Y-116895524D01*
X138036571Y-116847905D01*
X137988952Y-116800286D01*
X137941333Y-116705048D01*
X137941333Y-116514571D01*
X137988952Y-116419333D01*
X138036571Y-116371714D01*
X138131810Y-116324095D01*
X137560381Y-117228857D02*
X137560381Y-117895524D01*
X138560381Y-117466952D01*
X138465143Y-83177143D02*
X138512762Y-83129524D01*
X138560381Y-82986667D01*
X138560381Y-82891429D01*
X138512762Y-82748571D01*
X138417524Y-82653333D01*
X138322286Y-82605714D01*
X138131810Y-82558095D01*
X137988952Y-82558095D01*
X137798476Y-82605714D01*
X137703238Y-82653333D01*
X137608000Y-82748571D01*
X137560381Y-82891429D01*
X137560381Y-82986667D01*
X137608000Y-83129524D01*
X137655619Y-83177143D01*
X137560381Y-84034286D02*
X137560381Y-83843809D01*
X137608000Y-83748571D01*
X137655619Y-83700952D01*
X137798476Y-83605714D01*
X137988952Y-83558095D01*
X138369905Y-83558095D01*
X138465143Y-83605714D01*
X138512762Y-83653333D01*
X138560381Y-83748571D01*
X138560381Y-83939048D01*
X138512762Y-84034286D01*
X138465143Y-84081905D01*
X138369905Y-84129524D01*
X138131810Y-84129524D01*
X138036571Y-84081905D01*
X137988952Y-84034286D01*
X137941333Y-83939048D01*
X137941333Y-83748571D01*
X137988952Y-83653333D01*
X138036571Y-83605714D01*
X138131810Y-83558095D01*
X137988952Y-84700952D02*
X137941333Y-84605714D01*
X137893714Y-84558095D01*
X137798476Y-84510476D01*
X137750857Y-84510476D01*
X137655619Y-84558095D01*
X137608000Y-84605714D01*
X137560381Y-84700952D01*
X137560381Y-84891429D01*
X137608000Y-84986667D01*
X137655619Y-85034286D01*
X137750857Y-85081905D01*
X137798476Y-85081905D01*
X137893714Y-85034286D01*
X137941333Y-84986667D01*
X137988952Y-84891429D01*
X137988952Y-84700952D01*
X138036571Y-84605714D01*
X138084190Y-84558095D01*
X138179429Y-84510476D01*
X138369905Y-84510476D01*
X138465143Y-84558095D01*
X138512762Y-84605714D01*
X138560381Y-84700952D01*
X138560381Y-84891429D01*
X138512762Y-84986667D01*
X138465143Y-85034286D01*
X138369905Y-85081905D01*
X138179429Y-85081905D01*
X138084190Y-85034286D01*
X138036571Y-84986667D01*
X137988952Y-84891429D01*
X192889143Y-82923143D02*
X192936762Y-82875524D01*
X192984381Y-82732667D01*
X192984381Y-82637429D01*
X192936762Y-82494571D01*
X192841524Y-82399333D01*
X192746286Y-82351714D01*
X192555810Y-82304095D01*
X192412952Y-82304095D01*
X192222476Y-82351714D01*
X192127238Y-82399333D01*
X192032000Y-82494571D01*
X191984381Y-82637429D01*
X191984381Y-82732667D01*
X192032000Y-82875524D01*
X192079619Y-82923143D01*
X191984381Y-83780286D02*
X191984381Y-83589809D01*
X192032000Y-83494571D01*
X192079619Y-83446952D01*
X192222476Y-83351714D01*
X192412952Y-83304095D01*
X192793905Y-83304095D01*
X192889143Y-83351714D01*
X192936762Y-83399333D01*
X192984381Y-83494571D01*
X192984381Y-83685048D01*
X192936762Y-83780286D01*
X192889143Y-83827905D01*
X192793905Y-83875524D01*
X192555810Y-83875524D01*
X192460571Y-83827905D01*
X192412952Y-83780286D01*
X192365333Y-83685048D01*
X192365333Y-83494571D01*
X192412952Y-83399333D01*
X192460571Y-83351714D01*
X192555810Y-83304095D01*
X192984381Y-84351714D02*
X192984381Y-84542190D01*
X192936762Y-84637429D01*
X192889143Y-84685048D01*
X192746286Y-84780286D01*
X192555810Y-84827905D01*
X192174857Y-84827905D01*
X192079619Y-84780286D01*
X192032000Y-84732667D01*
X191984381Y-84637429D01*
X191984381Y-84446952D01*
X192032000Y-84351714D01*
X192079619Y-84304095D01*
X192174857Y-84256476D01*
X192412952Y-84256476D01*
X192508190Y-84304095D01*
X192555810Y-84351714D01*
X192603429Y-84446952D01*
X192603429Y-84637429D01*
X192555810Y-84732667D01*
X192508190Y-84780286D01*
X192412952Y-84827905D01*
X189333143Y-61333143D02*
X189380762Y-61285524D01*
X189428381Y-61142667D01*
X189428381Y-61047429D01*
X189380762Y-60904571D01*
X189285524Y-60809333D01*
X189190286Y-60761714D01*
X188999810Y-60714095D01*
X188856952Y-60714095D01*
X188666476Y-60761714D01*
X188571238Y-60809333D01*
X188476000Y-60904571D01*
X188428381Y-61047429D01*
X188428381Y-61142667D01*
X188476000Y-61285524D01*
X188523619Y-61333143D01*
X188428381Y-61666476D02*
X188428381Y-62333143D01*
X189428381Y-61904571D01*
X188428381Y-62904571D02*
X188428381Y-62999810D01*
X188476000Y-63095048D01*
X188523619Y-63142667D01*
X188618857Y-63190286D01*
X188809333Y-63237905D01*
X189047429Y-63237905D01*
X189237905Y-63190286D01*
X189333143Y-63142667D01*
X189380762Y-63095048D01*
X189428381Y-62999810D01*
X189428381Y-62904571D01*
X189380762Y-62809333D01*
X189333143Y-62761714D01*
X189237905Y-62714095D01*
X189047429Y-62666476D01*
X188809333Y-62666476D01*
X188618857Y-62714095D01*
X188523619Y-62761714D01*
X188476000Y-62809333D01*
X188428381Y-62904571D01*
X189618857Y-74017143D02*
X189666476Y-74064762D01*
X189809333Y-74112381D01*
X189904571Y-74112381D01*
X190047429Y-74064762D01*
X190142667Y-73969524D01*
X190190286Y-73874286D01*
X190237905Y-73683810D01*
X190237905Y-73540952D01*
X190190286Y-73350476D01*
X190142667Y-73255238D01*
X190047429Y-73160000D01*
X189904571Y-73112381D01*
X189809333Y-73112381D01*
X189666476Y-73160000D01*
X189618857Y-73207619D01*
X189285524Y-73112381D02*
X188618857Y-73112381D01*
X189047429Y-74112381D01*
X187714095Y-74112381D02*
X188285524Y-74112381D01*
X187999810Y-74112381D02*
X187999810Y-73112381D01*
X188095048Y-73255238D01*
X188190286Y-73350476D01*
X188285524Y-73398095D01*
X189333143Y-82923143D02*
X189380762Y-82875524D01*
X189428381Y-82732667D01*
X189428381Y-82637429D01*
X189380762Y-82494571D01*
X189285524Y-82399333D01*
X189190286Y-82351714D01*
X188999810Y-82304095D01*
X188856952Y-82304095D01*
X188666476Y-82351714D01*
X188571238Y-82399333D01*
X188476000Y-82494571D01*
X188428381Y-82637429D01*
X188428381Y-82732667D01*
X188476000Y-82875524D01*
X188523619Y-82923143D01*
X188428381Y-83256476D02*
X188428381Y-83923143D01*
X189428381Y-83494571D01*
X188523619Y-84256476D02*
X188476000Y-84304095D01*
X188428381Y-84399333D01*
X188428381Y-84637429D01*
X188476000Y-84732667D01*
X188523619Y-84780286D01*
X188618857Y-84827905D01*
X188714095Y-84827905D01*
X188856952Y-84780286D01*
X189428381Y-84208857D01*
X189428381Y-84827905D01*
X189872857Y-96115143D02*
X189920476Y-96162762D01*
X190063333Y-96210381D01*
X190158571Y-96210381D01*
X190301429Y-96162762D01*
X190396667Y-96067524D01*
X190444286Y-95972286D01*
X190491905Y-95781810D01*
X190491905Y-95638952D01*
X190444286Y-95448476D01*
X190396667Y-95353238D01*
X190301429Y-95258000D01*
X190158571Y-95210381D01*
X190063333Y-95210381D01*
X189920476Y-95258000D01*
X189872857Y-95305619D01*
X189539524Y-95210381D02*
X188872857Y-95210381D01*
X189301429Y-96210381D01*
X188587143Y-95210381D02*
X187968095Y-95210381D01*
X188301429Y-95591333D01*
X188158571Y-95591333D01*
X188063333Y-95638952D01*
X188015714Y-95686571D01*
X187968095Y-95781810D01*
X187968095Y-96019905D01*
X188015714Y-96115143D01*
X188063333Y-96162762D01*
X188158571Y-96210381D01*
X188444286Y-96210381D01*
X188539524Y-96162762D01*
X188587143Y-96115143D01*
X189872857Y-107037143D02*
X189920476Y-107084762D01*
X190063333Y-107132381D01*
X190158571Y-107132381D01*
X190301429Y-107084762D01*
X190396667Y-106989524D01*
X190444286Y-106894286D01*
X190491905Y-106703810D01*
X190491905Y-106560952D01*
X190444286Y-106370476D01*
X190396667Y-106275238D01*
X190301429Y-106180000D01*
X190158571Y-106132381D01*
X190063333Y-106132381D01*
X189920476Y-106180000D01*
X189872857Y-106227619D01*
X189539524Y-106132381D02*
X188872857Y-106132381D01*
X189301429Y-107132381D01*
X188063333Y-106465714D02*
X188063333Y-107132381D01*
X188301429Y-106084762D02*
X188539524Y-106799048D01*
X187920476Y-106799048D01*
X189079143Y-115689143D02*
X189126762Y-115641524D01*
X189174381Y-115498667D01*
X189174381Y-115403429D01*
X189126762Y-115260571D01*
X189031524Y-115165333D01*
X188936286Y-115117714D01*
X188745810Y-115070095D01*
X188602952Y-115070095D01*
X188412476Y-115117714D01*
X188317238Y-115165333D01*
X188222000Y-115260571D01*
X188174381Y-115403429D01*
X188174381Y-115498667D01*
X188222000Y-115641524D01*
X188269619Y-115689143D01*
X188174381Y-116022476D02*
X188174381Y-116689143D01*
X189174381Y-116260571D01*
X188174381Y-117546286D02*
X188174381Y-117070095D01*
X188650571Y-117022476D01*
X188602952Y-117070095D01*
X188555333Y-117165333D01*
X188555333Y-117403429D01*
X188602952Y-117498667D01*
X188650571Y-117546286D01*
X188745810Y-117593905D01*
X188983905Y-117593905D01*
X189079143Y-117546286D01*
X189126762Y-117498667D01*
X189174381Y-117403429D01*
X189174381Y-117165333D01*
X189126762Y-117070095D01*
X189079143Y-117022476D01*
X142120857Y-61825143D02*
X142168476Y-61872762D01*
X142311333Y-61920381D01*
X142406571Y-61920381D01*
X142549429Y-61872762D01*
X142644667Y-61777524D01*
X142692286Y-61682286D01*
X142739905Y-61491810D01*
X142739905Y-61348952D01*
X142692286Y-61158476D01*
X142644667Y-61063238D01*
X142549429Y-60968000D01*
X142406571Y-60920381D01*
X142311333Y-60920381D01*
X142168476Y-60968000D01*
X142120857Y-61015619D01*
X141787524Y-60920381D02*
X141120857Y-60920381D01*
X141549429Y-61920381D01*
X140311333Y-60920381D02*
X140501810Y-60920381D01*
X140597048Y-60968000D01*
X140644667Y-61015619D01*
X140739905Y-61158476D01*
X140787524Y-61348952D01*
X140787524Y-61729905D01*
X140739905Y-61825143D01*
X140692286Y-61872762D01*
X140597048Y-61920381D01*
X140406571Y-61920381D01*
X140311333Y-61872762D01*
X140263714Y-61825143D01*
X140216095Y-61729905D01*
X140216095Y-61491810D01*
X140263714Y-61396571D01*
X140311333Y-61348952D01*
X140406571Y-61301333D01*
X140597048Y-61301333D01*
X140692286Y-61348952D01*
X140739905Y-61396571D01*
X140787524Y-61491810D01*
X142120857Y-72493143D02*
X142168476Y-72540762D01*
X142311333Y-72588381D01*
X142406571Y-72588381D01*
X142549429Y-72540762D01*
X142644667Y-72445524D01*
X142692286Y-72350286D01*
X142739905Y-72159810D01*
X142739905Y-72016952D01*
X142692286Y-71826476D01*
X142644667Y-71731238D01*
X142549429Y-71636000D01*
X142406571Y-71588381D01*
X142311333Y-71588381D01*
X142168476Y-71636000D01*
X142120857Y-71683619D01*
X141787524Y-71588381D02*
X141120857Y-71588381D01*
X141549429Y-72588381D01*
X140835143Y-71588381D02*
X140168476Y-71588381D01*
X140597048Y-72588381D01*
X142597143Y-83177143D02*
X142644762Y-83129524D01*
X142692381Y-82986667D01*
X142692381Y-82891429D01*
X142644762Y-82748571D01*
X142549524Y-82653333D01*
X142454286Y-82605714D01*
X142263810Y-82558095D01*
X142120952Y-82558095D01*
X141930476Y-82605714D01*
X141835238Y-82653333D01*
X141740000Y-82748571D01*
X141692381Y-82891429D01*
X141692381Y-82986667D01*
X141740000Y-83129524D01*
X141787619Y-83177143D01*
X141692381Y-83510476D02*
X141692381Y-84177143D01*
X142692381Y-83748571D01*
X142120952Y-84700952D02*
X142073333Y-84605714D01*
X142025714Y-84558095D01*
X141930476Y-84510476D01*
X141882857Y-84510476D01*
X141787619Y-84558095D01*
X141740000Y-84605714D01*
X141692381Y-84700952D01*
X141692381Y-84891429D01*
X141740000Y-84986667D01*
X141787619Y-85034286D01*
X141882857Y-85081905D01*
X141930476Y-85081905D01*
X142025714Y-85034286D01*
X142073333Y-84986667D01*
X142120952Y-84891429D01*
X142120952Y-84700952D01*
X142168571Y-84605714D01*
X142216190Y-84558095D01*
X142311429Y-84510476D01*
X142501905Y-84510476D01*
X142597143Y-84558095D01*
X142644762Y-84605714D01*
X142692381Y-84700952D01*
X142692381Y-84891429D01*
X142644762Y-84986667D01*
X142597143Y-85034286D01*
X142501905Y-85081905D01*
X142311429Y-85081905D01*
X142216190Y-85034286D01*
X142168571Y-84986667D01*
X142120952Y-84891429D01*
X142120857Y-94591143D02*
X142168476Y-94638762D01*
X142311333Y-94686381D01*
X142406571Y-94686381D01*
X142549429Y-94638762D01*
X142644667Y-94543524D01*
X142692286Y-94448286D01*
X142739905Y-94257810D01*
X142739905Y-94114952D01*
X142692286Y-93924476D01*
X142644667Y-93829238D01*
X142549429Y-93734000D01*
X142406571Y-93686381D01*
X142311333Y-93686381D01*
X142168476Y-93734000D01*
X142120857Y-93781619D01*
X141787524Y-93686381D02*
X141120857Y-93686381D01*
X141549429Y-94686381D01*
X140692286Y-94686381D02*
X140501810Y-94686381D01*
X140406571Y-94638762D01*
X140358952Y-94591143D01*
X140263714Y-94448286D01*
X140216095Y-94257810D01*
X140216095Y-93876857D01*
X140263714Y-93781619D01*
X140311333Y-93734000D01*
X140406571Y-93686381D01*
X140597048Y-93686381D01*
X140692286Y-93734000D01*
X140739905Y-93781619D01*
X140787524Y-93876857D01*
X140787524Y-94114952D01*
X140739905Y-94210190D01*
X140692286Y-94257810D01*
X140597048Y-94305429D01*
X140406571Y-94305429D01*
X140311333Y-94257810D01*
X140263714Y-94210190D01*
X140216095Y-94114952D01*
X142120857Y-105259143D02*
X142168476Y-105306762D01*
X142311333Y-105354381D01*
X142406571Y-105354381D01*
X142549429Y-105306762D01*
X142644667Y-105211524D01*
X142692286Y-105116286D01*
X142739905Y-104925810D01*
X142739905Y-104782952D01*
X142692286Y-104592476D01*
X142644667Y-104497238D01*
X142549429Y-104402000D01*
X142406571Y-104354381D01*
X142311333Y-104354381D01*
X142168476Y-104402000D01*
X142120857Y-104449619D01*
X141549429Y-104782952D02*
X141644667Y-104735333D01*
X141692286Y-104687714D01*
X141739905Y-104592476D01*
X141739905Y-104544857D01*
X141692286Y-104449619D01*
X141644667Y-104402000D01*
X141549429Y-104354381D01*
X141358952Y-104354381D01*
X141263714Y-104402000D01*
X141216095Y-104449619D01*
X141168476Y-104544857D01*
X141168476Y-104592476D01*
X141216095Y-104687714D01*
X141263714Y-104735333D01*
X141358952Y-104782952D01*
X141549429Y-104782952D01*
X141644667Y-104830571D01*
X141692286Y-104878190D01*
X141739905Y-104973429D01*
X141739905Y-105163905D01*
X141692286Y-105259143D01*
X141644667Y-105306762D01*
X141549429Y-105354381D01*
X141358952Y-105354381D01*
X141263714Y-105306762D01*
X141216095Y-105259143D01*
X141168476Y-105163905D01*
X141168476Y-104973429D01*
X141216095Y-104878190D01*
X141263714Y-104830571D01*
X141358952Y-104782952D01*
X140549429Y-104354381D02*
X140454190Y-104354381D01*
X140358952Y-104402000D01*
X140311333Y-104449619D01*
X140263714Y-104544857D01*
X140216095Y-104735333D01*
X140216095Y-104973429D01*
X140263714Y-105163905D01*
X140311333Y-105259143D01*
X140358952Y-105306762D01*
X140454190Y-105354381D01*
X140549429Y-105354381D01*
X140644667Y-105306762D01*
X140692286Y-105259143D01*
X140739905Y-105163905D01*
X140787524Y-104973429D01*
X140787524Y-104735333D01*
X140739905Y-104544857D01*
X140692286Y-104449619D01*
X140644667Y-104402000D01*
X140549429Y-104354381D01*
X142597143Y-115943143D02*
X142644762Y-115895524D01*
X142692381Y-115752667D01*
X142692381Y-115657429D01*
X142644762Y-115514571D01*
X142549524Y-115419333D01*
X142454286Y-115371714D01*
X142263810Y-115324095D01*
X142120952Y-115324095D01*
X141930476Y-115371714D01*
X141835238Y-115419333D01*
X141740000Y-115514571D01*
X141692381Y-115657429D01*
X141692381Y-115752667D01*
X141740000Y-115895524D01*
X141787619Y-115943143D01*
X142120952Y-116514571D02*
X142073333Y-116419333D01*
X142025714Y-116371714D01*
X141930476Y-116324095D01*
X141882857Y-116324095D01*
X141787619Y-116371714D01*
X141740000Y-116419333D01*
X141692381Y-116514571D01*
X141692381Y-116705048D01*
X141740000Y-116800286D01*
X141787619Y-116847905D01*
X141882857Y-116895524D01*
X141930476Y-116895524D01*
X142025714Y-116847905D01*
X142073333Y-116800286D01*
X142120952Y-116705048D01*
X142120952Y-116514571D01*
X142168571Y-116419333D01*
X142216190Y-116371714D01*
X142311429Y-116324095D01*
X142501905Y-116324095D01*
X142597143Y-116371714D01*
X142644762Y-116419333D01*
X142692381Y-116514571D01*
X142692381Y-116705048D01*
X142644762Y-116800286D01*
X142597143Y-116847905D01*
X142501905Y-116895524D01*
X142311429Y-116895524D01*
X142216190Y-116847905D01*
X142168571Y-116800286D01*
X142120952Y-116705048D01*
X142692381Y-117847905D02*
X142692381Y-117276476D01*
X142692381Y-117562190D02*
X141692381Y-117562190D01*
X141835238Y-117466952D01*
X141930476Y-117371714D01*
X141978095Y-117276476D01*
X140243143Y-127119143D02*
X140290762Y-127071524D01*
X140338381Y-126928667D01*
X140338381Y-126833429D01*
X140290762Y-126690571D01*
X140195524Y-126595333D01*
X140100286Y-126547714D01*
X139909810Y-126500095D01*
X139766952Y-126500095D01*
X139576476Y-126547714D01*
X139481238Y-126595333D01*
X139386000Y-126690571D01*
X139338381Y-126833429D01*
X139338381Y-126928667D01*
X139386000Y-127071524D01*
X139433619Y-127119143D01*
X139766952Y-127690571D02*
X139719333Y-127595333D01*
X139671714Y-127547714D01*
X139576476Y-127500095D01*
X139528857Y-127500095D01*
X139433619Y-127547714D01*
X139386000Y-127595333D01*
X139338381Y-127690571D01*
X139338381Y-127881048D01*
X139386000Y-127976286D01*
X139433619Y-128023905D01*
X139528857Y-128071524D01*
X139576476Y-128071524D01*
X139671714Y-128023905D01*
X139719333Y-127976286D01*
X139766952Y-127881048D01*
X139766952Y-127690571D01*
X139814571Y-127595333D01*
X139862190Y-127547714D01*
X139957429Y-127500095D01*
X140147905Y-127500095D01*
X140243143Y-127547714D01*
X140290762Y-127595333D01*
X140338381Y-127690571D01*
X140338381Y-127881048D01*
X140290762Y-127976286D01*
X140243143Y-128023905D01*
X140147905Y-128071524D01*
X139957429Y-128071524D01*
X139862190Y-128023905D01*
X139814571Y-127976286D01*
X139766952Y-127881048D01*
X139433619Y-128452476D02*
X139386000Y-128500095D01*
X139338381Y-128595333D01*
X139338381Y-128833429D01*
X139386000Y-128928667D01*
X139433619Y-128976286D01*
X139528857Y-129023905D01*
X139624095Y-129023905D01*
X139766952Y-128976286D01*
X140338381Y-128404857D01*
X140338381Y-129023905D01*
X170251381Y-50792143D02*
X169775190Y-50458809D01*
X170251381Y-50220714D02*
X169251381Y-50220714D01*
X169251381Y-50601667D01*
X169299000Y-50696905D01*
X169346619Y-50744524D01*
X169441857Y-50792143D01*
X169584714Y-50792143D01*
X169679952Y-50744524D01*
X169727571Y-50696905D01*
X169775190Y-50601667D01*
X169775190Y-50220714D01*
X169346619Y-51173095D02*
X169299000Y-51220714D01*
X169251381Y-51315952D01*
X169251381Y-51554048D01*
X169299000Y-51649286D01*
X169346619Y-51696905D01*
X169441857Y-51744524D01*
X169537095Y-51744524D01*
X169679952Y-51696905D01*
X170251381Y-51125476D01*
X170251381Y-51744524D01*
X169251381Y-52601667D02*
X169251381Y-52411190D01*
X169299000Y-52315952D01*
X169346619Y-52268333D01*
X169489476Y-52173095D01*
X169679952Y-52125476D01*
X170060905Y-52125476D01*
X170156143Y-52173095D01*
X170203762Y-52220714D01*
X170251381Y-52315952D01*
X170251381Y-52506429D01*
X170203762Y-52601667D01*
X170156143Y-52649286D01*
X170060905Y-52696905D01*
X169822810Y-52696905D01*
X169727571Y-52649286D01*
X169679952Y-52601667D01*
X169632333Y-52506429D01*
X169632333Y-52315952D01*
X169679952Y-52220714D01*
X169727571Y-52173095D01*
X169822810Y-52125476D01*
D10*
X167026786Y-52095857D02*
X166669643Y-51845857D01*
X167026786Y-51667285D02*
X166276786Y-51667285D01*
X166276786Y-51953000D01*
X166312500Y-52024428D01*
X166348214Y-52060143D01*
X166419643Y-52095857D01*
X166526786Y-52095857D01*
X166598214Y-52060143D01*
X166633929Y-52024428D01*
X166669643Y-51953000D01*
X166669643Y-51667285D01*
X166348214Y-52381571D02*
X166312500Y-52417285D01*
X166276786Y-52488714D01*
X166276786Y-52667285D01*
X166312500Y-52738714D01*
X166348214Y-52774428D01*
X166419643Y-52810143D01*
X166491071Y-52810143D01*
X166598214Y-52774428D01*
X167026786Y-52345857D01*
X167026786Y-52810143D01*
X166276786Y-53060143D02*
X166276786Y-53560143D01*
X167026786Y-53238714D01*
D12*
X163774381Y-46601143D02*
X163298190Y-46267809D01*
X163774381Y-46029714D02*
X162774381Y-46029714D01*
X162774381Y-46410667D01*
X162822000Y-46505905D01*
X162869619Y-46553524D01*
X162964857Y-46601143D01*
X163107714Y-46601143D01*
X163202952Y-46553524D01*
X163250571Y-46505905D01*
X163298190Y-46410667D01*
X163298190Y-46029714D01*
X162869619Y-46982095D02*
X162822000Y-47029714D01*
X162774381Y-47124952D01*
X162774381Y-47363048D01*
X162822000Y-47458286D01*
X162869619Y-47505905D01*
X162964857Y-47553524D01*
X163060095Y-47553524D01*
X163202952Y-47505905D01*
X163774381Y-46934476D01*
X163774381Y-47553524D01*
X163202952Y-48124952D02*
X163155333Y-48029714D01*
X163107714Y-47982095D01*
X163012476Y-47934476D01*
X162964857Y-47934476D01*
X162869619Y-47982095D01*
X162822000Y-48029714D01*
X162774381Y-48124952D01*
X162774381Y-48315429D01*
X162822000Y-48410667D01*
X162869619Y-48458286D01*
X162964857Y-48505905D01*
X163012476Y-48505905D01*
X163107714Y-48458286D01*
X163155333Y-48410667D01*
X163202952Y-48315429D01*
X163202952Y-48124952D01*
X163250571Y-48029714D01*
X163298190Y-47982095D01*
X163393429Y-47934476D01*
X163583905Y-47934476D01*
X163679143Y-47982095D01*
X163726762Y-48029714D01*
X163774381Y-48124952D01*
X163774381Y-48315429D01*
X163726762Y-48410667D01*
X163679143Y-48458286D01*
X163583905Y-48505905D01*
X163393429Y-48505905D01*
X163298190Y-48458286D01*
X163250571Y-48410667D01*
X163202952Y-48315429D01*
X184284857Y-126781143D02*
X184332476Y-126828762D01*
X184475333Y-126876381D01*
X184570571Y-126876381D01*
X184713429Y-126828762D01*
X184808667Y-126733524D01*
X184856286Y-126638286D01*
X184903905Y-126447810D01*
X184903905Y-126304952D01*
X184856286Y-126114476D01*
X184808667Y-126019238D01*
X184713429Y-125924000D01*
X184570571Y-125876381D01*
X184475333Y-125876381D01*
X184332476Y-125924000D01*
X184284857Y-125971619D01*
X183713429Y-126304952D02*
X183808667Y-126257333D01*
X183856286Y-126209714D01*
X183903905Y-126114476D01*
X183903905Y-126066857D01*
X183856286Y-125971619D01*
X183808667Y-125924000D01*
X183713429Y-125876381D01*
X183522952Y-125876381D01*
X183427714Y-125924000D01*
X183380095Y-125971619D01*
X183332476Y-126066857D01*
X183332476Y-126114476D01*
X183380095Y-126209714D01*
X183427714Y-126257333D01*
X183522952Y-126304952D01*
X183713429Y-126304952D01*
X183808667Y-126352571D01*
X183856286Y-126400190D01*
X183903905Y-126495429D01*
X183903905Y-126685905D01*
X183856286Y-126781143D01*
X183808667Y-126828762D01*
X183713429Y-126876381D01*
X183522952Y-126876381D01*
X183427714Y-126828762D01*
X183380095Y-126781143D01*
X183332476Y-126685905D01*
X183332476Y-126495429D01*
X183380095Y-126400190D01*
X183427714Y-126352571D01*
X183522952Y-126304952D01*
X182999143Y-125876381D02*
X182380095Y-125876381D01*
X182713429Y-126257333D01*
X182570571Y-126257333D01*
X182475333Y-126304952D01*
X182427714Y-126352571D01*
X182380095Y-126447810D01*
X182380095Y-126685905D01*
X182427714Y-126781143D01*
X182475333Y-126828762D01*
X182570571Y-126876381D01*
X182856286Y-126876381D01*
X182951524Y-126828762D01*
X182999143Y-126781143D01*
X135807143Y-70477143D02*
X135854762Y-70429524D01*
X135902381Y-70286667D01*
X135902381Y-70191429D01*
X135854762Y-70048571D01*
X135759524Y-69953333D01*
X135664286Y-69905714D01*
X135473810Y-69858095D01*
X135330952Y-69858095D01*
X135140476Y-69905714D01*
X135045238Y-69953333D01*
X134950000Y-70048571D01*
X134902381Y-70191429D01*
X134902381Y-70286667D01*
X134950000Y-70429524D01*
X134997619Y-70477143D01*
X135330952Y-71048571D02*
X135283333Y-70953333D01*
X135235714Y-70905714D01*
X135140476Y-70858095D01*
X135092857Y-70858095D01*
X134997619Y-70905714D01*
X134950000Y-70953333D01*
X134902381Y-71048571D01*
X134902381Y-71239048D01*
X134950000Y-71334286D01*
X134997619Y-71381905D01*
X135092857Y-71429524D01*
X135140476Y-71429524D01*
X135235714Y-71381905D01*
X135283333Y-71334286D01*
X135330952Y-71239048D01*
X135330952Y-71048571D01*
X135378571Y-70953333D01*
X135426190Y-70905714D01*
X135521429Y-70858095D01*
X135711905Y-70858095D01*
X135807143Y-70905714D01*
X135854762Y-70953333D01*
X135902381Y-71048571D01*
X135902381Y-71239048D01*
X135854762Y-71334286D01*
X135807143Y-71381905D01*
X135711905Y-71429524D01*
X135521429Y-71429524D01*
X135426190Y-71381905D01*
X135378571Y-71334286D01*
X135330952Y-71239048D01*
X134902381Y-72286667D02*
X134902381Y-72096190D01*
X134950000Y-72000952D01*
X134997619Y-71953333D01*
X135140476Y-71858095D01*
X135330952Y-71810476D01*
X135711905Y-71810476D01*
X135807143Y-71858095D01*
X135854762Y-71905714D01*
X135902381Y-72000952D01*
X135902381Y-72191429D01*
X135854762Y-72286667D01*
X135807143Y-72334286D01*
X135711905Y-72381905D01*
X135473810Y-72381905D01*
X135378571Y-72334286D01*
X135330952Y-72286667D01*
X135283333Y-72191429D01*
X135283333Y-72000952D01*
X135330952Y-71905714D01*
X135378571Y-71858095D01*
X135473810Y-71810476D01*
X183618143Y-51554143D02*
X183665762Y-51506524D01*
X183713381Y-51363667D01*
X183713381Y-51268429D01*
X183665762Y-51125571D01*
X183570524Y-51030333D01*
X183475286Y-50982714D01*
X183284810Y-50935095D01*
X183141952Y-50935095D01*
X182951476Y-50982714D01*
X182856238Y-51030333D01*
X182761000Y-51125571D01*
X182713381Y-51268429D01*
X182713381Y-51363667D01*
X182761000Y-51506524D01*
X182808619Y-51554143D01*
X183141952Y-52125571D02*
X183094333Y-52030333D01*
X183046714Y-51982714D01*
X182951476Y-51935095D01*
X182903857Y-51935095D01*
X182808619Y-51982714D01*
X182761000Y-52030333D01*
X182713381Y-52125571D01*
X182713381Y-52316048D01*
X182761000Y-52411286D01*
X182808619Y-52458905D01*
X182903857Y-52506524D01*
X182951476Y-52506524D01*
X183046714Y-52458905D01*
X183094333Y-52411286D01*
X183141952Y-52316048D01*
X183141952Y-52125571D01*
X183189571Y-52030333D01*
X183237190Y-51982714D01*
X183332429Y-51935095D01*
X183522905Y-51935095D01*
X183618143Y-51982714D01*
X183665762Y-52030333D01*
X183713381Y-52125571D01*
X183713381Y-52316048D01*
X183665762Y-52411286D01*
X183618143Y-52458905D01*
X183522905Y-52506524D01*
X183332429Y-52506524D01*
X183237190Y-52458905D01*
X183189571Y-52411286D01*
X183141952Y-52316048D01*
X183141952Y-53077952D02*
X183094333Y-52982714D01*
X183046714Y-52935095D01*
X182951476Y-52887476D01*
X182903857Y-52887476D01*
X182808619Y-52935095D01*
X182761000Y-52982714D01*
X182713381Y-53077952D01*
X182713381Y-53268429D01*
X182761000Y-53363667D01*
X182808619Y-53411286D01*
X182903857Y-53458905D01*
X182951476Y-53458905D01*
X183046714Y-53411286D01*
X183094333Y-53363667D01*
X183141952Y-53268429D01*
X183141952Y-53077952D01*
X183189571Y-52982714D01*
X183237190Y-52935095D01*
X183332429Y-52887476D01*
X183522905Y-52887476D01*
X183618143Y-52935095D01*
X183665762Y-52982714D01*
X183713381Y-53077952D01*
X183713381Y-53268429D01*
X183665762Y-53363667D01*
X183618143Y-53411286D01*
X183522905Y-53458905D01*
X183332429Y-53458905D01*
X183237190Y-53411286D01*
X183189571Y-53363667D01*
X183141952Y-53268429D01*
X160821643Y-52189143D02*
X160869262Y-52141524D01*
X160916881Y-51998667D01*
X160916881Y-51903429D01*
X160869262Y-51760571D01*
X160774024Y-51665333D01*
X160678786Y-51617714D01*
X160488310Y-51570095D01*
X160345452Y-51570095D01*
X160154976Y-51617714D01*
X160059738Y-51665333D01*
X159964500Y-51760571D01*
X159916881Y-51903429D01*
X159916881Y-51998667D01*
X159964500Y-52141524D01*
X160012119Y-52189143D01*
X160345452Y-52760571D02*
X160297833Y-52665333D01*
X160250214Y-52617714D01*
X160154976Y-52570095D01*
X160107357Y-52570095D01*
X160012119Y-52617714D01*
X159964500Y-52665333D01*
X159916881Y-52760571D01*
X159916881Y-52951048D01*
X159964500Y-53046286D01*
X160012119Y-53093905D01*
X160107357Y-53141524D01*
X160154976Y-53141524D01*
X160250214Y-53093905D01*
X160297833Y-53046286D01*
X160345452Y-52951048D01*
X160345452Y-52760571D01*
X160393071Y-52665333D01*
X160440690Y-52617714D01*
X160535929Y-52570095D01*
X160726405Y-52570095D01*
X160821643Y-52617714D01*
X160869262Y-52665333D01*
X160916881Y-52760571D01*
X160916881Y-52951048D01*
X160869262Y-53046286D01*
X160821643Y-53093905D01*
X160726405Y-53141524D01*
X160535929Y-53141524D01*
X160440690Y-53093905D01*
X160393071Y-53046286D01*
X160345452Y-52951048D01*
X160916881Y-53617714D02*
X160916881Y-53808190D01*
X160869262Y-53903429D01*
X160821643Y-53951048D01*
X160678786Y-54046286D01*
X160488310Y-54093905D01*
X160107357Y-54093905D01*
X160012119Y-54046286D01*
X159964500Y-53998667D01*
X159916881Y-53903429D01*
X159916881Y-53712952D01*
X159964500Y-53617714D01*
X160012119Y-53570095D01*
X160107357Y-53522476D01*
X160345452Y-53522476D01*
X160440690Y-53570095D01*
X160488310Y-53617714D01*
X160535929Y-53712952D01*
X160535929Y-53903429D01*
X160488310Y-53998667D01*
X160440690Y-54046286D01*
X160345452Y-54093905D01*
X133040381Y-129246334D02*
X132564190Y-128913000D01*
X133040381Y-128674905D02*
X132040381Y-128674905D01*
X132040381Y-129055858D01*
X132088000Y-129151096D01*
X132135619Y-129198715D01*
X132230857Y-129246334D01*
X132373714Y-129246334D01*
X132468952Y-129198715D01*
X132516571Y-129151096D01*
X132564190Y-129055858D01*
X132564190Y-128674905D01*
X132373714Y-130103477D02*
X133040381Y-130103477D01*
X131992762Y-129865381D02*
X132707048Y-129627286D01*
X132707048Y-130246334D01*
X137167881Y-128643143D02*
X136691690Y-128309809D01*
X137167881Y-128071714D02*
X136167881Y-128071714D01*
X136167881Y-128452667D01*
X136215500Y-128547905D01*
X136263119Y-128595524D01*
X136358357Y-128643143D01*
X136501214Y-128643143D01*
X136596452Y-128595524D01*
X136644071Y-128547905D01*
X136691690Y-128452667D01*
X136691690Y-128071714D01*
X137167881Y-129595524D02*
X137167881Y-129024095D01*
X137167881Y-129309809D02*
X136167881Y-129309809D01*
X136310738Y-129214571D01*
X136405976Y-129119333D01*
X136453595Y-129024095D01*
X137167881Y-130071714D02*
X137167881Y-130262190D01*
X137120262Y-130357429D01*
X137072643Y-130405048D01*
X136929786Y-130500286D01*
X136739310Y-130547905D01*
X136358357Y-130547905D01*
X136263119Y-130500286D01*
X136215500Y-130452667D01*
X136167881Y-130357429D01*
X136167881Y-130166952D01*
X136215500Y-130071714D01*
X136263119Y-130024095D01*
X136358357Y-129976476D01*
X136596452Y-129976476D01*
X136691690Y-130024095D01*
X136739310Y-130071714D01*
X136786929Y-130166952D01*
X136786929Y-130357429D01*
X136739310Y-130452667D01*
X136691690Y-130500286D01*
X136596452Y-130547905D01*
X123959857Y-61983881D02*
X124436048Y-61983881D01*
X124436048Y-60983881D01*
X123674143Y-61079119D02*
X123626524Y-61031500D01*
X123531286Y-60983881D01*
X123293190Y-60983881D01*
X123197952Y-61031500D01*
X123150333Y-61079119D01*
X123102714Y-61174357D01*
X123102714Y-61269595D01*
X123150333Y-61412452D01*
X123721762Y-61983881D01*
X123102714Y-61983881D01*
X122769381Y-60983881D02*
X122150333Y-60983881D01*
X122483667Y-61364833D01*
X122340809Y-61364833D01*
X122245571Y-61412452D01*
X122197952Y-61460071D01*
X122150333Y-61555310D01*
X122150333Y-61793405D01*
X122197952Y-61888643D01*
X122245571Y-61936262D01*
X122340809Y-61983881D01*
X122626524Y-61983881D01*
X122721762Y-61936262D01*
X122769381Y-61888643D01*
X166441357Y-126341143D02*
X166488976Y-126388762D01*
X166631833Y-126436381D01*
X166727071Y-126436381D01*
X166869929Y-126388762D01*
X166965167Y-126293524D01*
X167012786Y-126198286D01*
X167060405Y-126007810D01*
X167060405Y-125864952D01*
X167012786Y-125674476D01*
X166965167Y-125579238D01*
X166869929Y-125484000D01*
X166727071Y-125436381D01*
X166631833Y-125436381D01*
X166488976Y-125484000D01*
X166441357Y-125531619D01*
X165584214Y-125436381D02*
X165774691Y-125436381D01*
X165869929Y-125484000D01*
X165917548Y-125531619D01*
X166012786Y-125674476D01*
X166060405Y-125864952D01*
X166060405Y-126245905D01*
X166012786Y-126341143D01*
X165965167Y-126388762D01*
X165869929Y-126436381D01*
X165679452Y-126436381D01*
X165584214Y-126388762D01*
X165536595Y-126341143D01*
X165488976Y-126245905D01*
X165488976Y-126007810D01*
X165536595Y-125912571D01*
X165584214Y-125864952D01*
X165679452Y-125817333D01*
X165869929Y-125817333D01*
X165965167Y-125864952D01*
X166012786Y-125912571D01*
X166060405Y-126007810D01*
X165155643Y-125436381D02*
X164536595Y-125436381D01*
X164869929Y-125817333D01*
X164727071Y-125817333D01*
X164631833Y-125864952D01*
X164584214Y-125912571D01*
X164536595Y-126007810D01*
X164536595Y-126245905D01*
X164584214Y-126341143D01*
X164631833Y-126388762D01*
X164727071Y-126436381D01*
X165012786Y-126436381D01*
X165108024Y-126388762D01*
X165155643Y-126341143D01*
X175013857Y-124436143D02*
X175061476Y-124483762D01*
X175204333Y-124531381D01*
X175299571Y-124531381D01*
X175442429Y-124483762D01*
X175537667Y-124388524D01*
X175585286Y-124293286D01*
X175632905Y-124102810D01*
X175632905Y-123959952D01*
X175585286Y-123769476D01*
X175537667Y-123674238D01*
X175442429Y-123579000D01*
X175299571Y-123531381D01*
X175204333Y-123531381D01*
X175061476Y-123579000D01*
X175013857Y-123626619D01*
X174156714Y-123531381D02*
X174347191Y-123531381D01*
X174442429Y-123579000D01*
X174490048Y-123626619D01*
X174585286Y-123769476D01*
X174632905Y-123959952D01*
X174632905Y-124340905D01*
X174585286Y-124436143D01*
X174537667Y-124483762D01*
X174442429Y-124531381D01*
X174251952Y-124531381D01*
X174156714Y-124483762D01*
X174109095Y-124436143D01*
X174061476Y-124340905D01*
X174061476Y-124102810D01*
X174109095Y-124007571D01*
X174156714Y-123959952D01*
X174251952Y-123912333D01*
X174442429Y-123912333D01*
X174537667Y-123959952D01*
X174585286Y-124007571D01*
X174632905Y-124102810D01*
X173204333Y-123864714D02*
X173204333Y-124531381D01*
X173442429Y-123483762D02*
X173680524Y-124198048D01*
X173061476Y-124198048D01*
M02*
