G04 #@! TF.FileFunction,Copper,L3,Inr,Signal*
%FSLAX46Y46*%
G04 Gerber Fmt 4.6, Leading zero omitted, Abs format (unit mm)*
G04 Created by KiCad (PCBNEW 4.0.1-stable) date 30/05/2016 07:23:45*
%MOMM*%
G01*
G04 APERTURE LIST*
%ADD10C,0.100000*%
%ADD11C,1.800000*%
%ADD12C,3.500000*%
%ADD13C,2.000000*%
%ADD14C,1.524000*%
%ADD15C,6.350000*%
%ADD16R,2.032000X2.032000*%
%ADD17O,2.032000X2.032000*%
%ADD18C,2.540000*%
%ADD19C,1.727200*%
%ADD20C,1.998980*%
%ADD21R,1.727200X1.727200*%
%ADD22O,1.727200X1.727200*%
%ADD23O,1.501140X2.499360*%
%ADD24C,0.889000*%
%ADD25C,1.270000*%
%ADD26C,0.780000*%
%ADD27C,0.381000*%
%ADD28C,0.910000*%
G04 APERTURE END LIST*
D10*
D11*
X161060000Y-130278000D03*
X164060000Y-127278000D03*
D12*
X192024000Y-53330000D03*
X192024000Y-45730000D03*
D13*
X184224000Y-49530000D03*
D14*
X124079000Y-93218000D03*
X126619000Y-93218000D03*
X121539000Y-93218000D03*
D15*
X191008000Y-39116000D03*
X119126000Y-39116000D03*
X191008000Y-131064000D03*
X119126000Y-131064000D03*
D16*
X117792500Y-99441000D03*
D17*
X117792500Y-101981000D03*
D14*
X159004000Y-45466000D03*
X156464000Y-45466000D03*
X146304000Y-45466000D03*
X146304000Y-53086000D03*
X159004000Y-53086000D03*
X156464000Y-53086000D03*
X140208000Y-65786000D03*
X142748000Y-65786000D03*
X152908000Y-65786000D03*
X152908000Y-58166000D03*
X140208000Y-58166000D03*
X142748000Y-58166000D03*
X140208000Y-76708000D03*
X142748000Y-76708000D03*
X152908000Y-76708000D03*
X152908000Y-69088000D03*
X140208000Y-69088000D03*
X142748000Y-69088000D03*
X140208000Y-87630000D03*
X142748000Y-87630000D03*
X152908000Y-87630000D03*
X152908000Y-80010000D03*
X140208000Y-80010000D03*
X142748000Y-80010000D03*
X140208000Y-98552000D03*
X142748000Y-98552000D03*
X152908000Y-98552000D03*
X152908000Y-90932000D03*
X140208000Y-90932000D03*
X142748000Y-90932000D03*
X140208000Y-109474000D03*
X142748000Y-109474000D03*
X152908000Y-109474000D03*
X152908000Y-101854000D03*
X140208000Y-101854000D03*
X142748000Y-101854000D03*
X140208000Y-120396000D03*
X142748000Y-120396000D03*
X152908000Y-120396000D03*
X152908000Y-112776000D03*
X140208000Y-112776000D03*
X142748000Y-112776000D03*
X140144500Y-131191000D03*
X142684500Y-131191000D03*
X152844500Y-131191000D03*
X152844500Y-123571000D03*
X140144500Y-123571000D03*
X142684500Y-123571000D03*
X190500000Y-58166000D03*
X187960000Y-58166000D03*
X177800000Y-58166000D03*
X177800000Y-65786000D03*
X190500000Y-65786000D03*
X187960000Y-65786000D03*
X190500000Y-69088000D03*
X187960000Y-69088000D03*
X177800000Y-69088000D03*
X177800000Y-76708000D03*
X190500000Y-76708000D03*
X187960000Y-76708000D03*
X190500000Y-80010000D03*
X187960000Y-80010000D03*
X177800000Y-80010000D03*
X177800000Y-87630000D03*
X190500000Y-87630000D03*
X187960000Y-87630000D03*
X190500000Y-90932000D03*
X187960000Y-90932000D03*
X177800000Y-90932000D03*
X177800000Y-98552000D03*
X190500000Y-98552000D03*
X187960000Y-98552000D03*
X190500000Y-101854000D03*
X187960000Y-101854000D03*
X177800000Y-101854000D03*
X177800000Y-109474000D03*
X190500000Y-109474000D03*
X187960000Y-109474000D03*
X190500000Y-112522000D03*
X187960000Y-112522000D03*
X177800000Y-112522000D03*
X177800000Y-120142000D03*
X190500000Y-120142000D03*
X187960000Y-120142000D03*
D16*
X118046500Y-49847500D03*
D17*
X118046500Y-47307500D03*
D16*
X136461500Y-42227500D03*
D17*
X139001500Y-42227500D03*
D18*
X119984000Y-59436000D03*
D19*
X123984000Y-59436000D03*
D18*
X127984000Y-59436000D03*
D19*
X131984000Y-59436000D03*
D20*
X155956000Y-58166000D03*
X158496000Y-65786000D03*
X155956000Y-69088000D03*
X158496000Y-76708000D03*
X155956000Y-80010000D03*
X158496000Y-87630000D03*
X155956000Y-90932000D03*
X158496000Y-98552000D03*
X155956000Y-101854000D03*
X158496000Y-109474000D03*
X155956000Y-112776000D03*
X158496000Y-120396000D03*
X161544000Y-63500000D03*
X169164000Y-60960000D03*
X161544000Y-73660000D03*
X169164000Y-71120000D03*
X161544000Y-84836000D03*
X169164000Y-82296000D03*
X161544000Y-95758000D03*
X169164000Y-93218000D03*
X161544000Y-106680000D03*
X169164000Y-104140000D03*
X161544000Y-117602000D03*
X169164000Y-115062000D03*
X172212000Y-58166000D03*
X174752000Y-65786000D03*
X172212000Y-69088000D03*
X174752000Y-76708000D03*
X172212000Y-80010000D03*
X174752000Y-87630000D03*
X172212000Y-90932000D03*
X174752000Y-98552000D03*
X172212000Y-101854000D03*
X174752000Y-109474000D03*
X172212000Y-112522000D03*
X174752000Y-120142000D03*
X143507460Y-47498000D03*
X136908540Y-47498000D03*
D14*
X184848500Y-123317000D03*
X182308500Y-123317000D03*
X172148500Y-123317000D03*
X172148500Y-130937000D03*
X184848500Y-130937000D03*
X182308500Y-130937000D03*
D16*
X161925000Y-46355000D03*
D17*
X161925000Y-48895000D03*
D21*
X121666000Y-124206000D03*
D22*
X119126000Y-124206000D03*
X121666000Y-121666000D03*
X119126000Y-121666000D03*
X121666000Y-119126000D03*
X119126000Y-119126000D03*
X121666000Y-116586000D03*
X119126000Y-116586000D03*
X121666000Y-114046000D03*
X119126000Y-114046000D03*
X121666000Y-111506000D03*
X119126000Y-111506000D03*
X121666000Y-108966000D03*
X119126000Y-108966000D03*
D23*
X125730000Y-66548000D03*
X128270000Y-66548000D03*
X123190000Y-66548000D03*
D11*
X158662500Y-124738000D03*
X155662500Y-127738000D03*
X166457500Y-127674500D03*
X169457500Y-124674500D03*
D24*
X127762000Y-77152500D03*
X153416000Y-125285500D03*
X150114000Y-128206500D03*
X175450500Y-125730000D03*
X174752000Y-128270000D03*
X162179000Y-58166000D03*
X165671500Y-58229500D03*
X168465500Y-65849500D03*
X164846000Y-66103500D03*
X162242500Y-68834000D03*
X165925500Y-68580000D03*
X168465500Y-76454000D03*
X164719000Y-76835000D03*
X165608000Y-79565500D03*
X168529000Y-87439500D03*
X164782500Y-87566500D03*
X162306000Y-79819500D03*
X164846000Y-98425000D03*
X168529000Y-98552000D03*
X165671500Y-90741500D03*
X161988500Y-91059000D03*
X162242500Y-101854000D03*
X165925500Y-101346000D03*
X168529000Y-109347000D03*
X164973000Y-109156500D03*
X165544500Y-112268000D03*
X162242500Y-112522000D03*
X168465500Y-120269000D03*
X164846000Y-120142000D03*
X169989500Y-53149500D03*
X134937500Y-132524500D03*
X159004000Y-47244000D03*
X133858000Y-62230000D03*
X131064000Y-50562000D03*
X127508000Y-50562000D03*
X123952000Y-50562000D03*
X143256000Y-50292000D03*
X176784000Y-53166000D03*
X149860000Y-59944000D03*
X125857000Y-131826000D03*
X128397000Y-129794000D03*
X130619500Y-70040500D03*
X120777000Y-69469000D03*
X128714500Y-128016000D03*
D25*
X180117750Y-129063750D02*
X180117750Y-122586750D01*
X180117750Y-122586750D02*
X180022500Y-122682000D01*
X180022500Y-122682000D02*
X180022500Y-122809000D01*
X180022500Y-122809000D02*
X180022500Y-122682000D01*
X145288000Y-126746000D02*
X151574500Y-133032500D01*
X180213000Y-133032500D02*
X182308500Y-130937000D01*
X151574500Y-133032500D02*
X180213000Y-133032500D01*
D26*
X143507460Y-47498000D02*
X143507460Y-46733460D01*
D25*
X143507460Y-46733460D02*
X139001500Y-42227500D01*
X184150000Y-120142000D02*
X182562500Y-120142000D01*
X182562500Y-120142000D02*
X180022500Y-122682000D01*
X180117750Y-129063750D02*
X182372000Y-131318000D01*
X145288000Y-126746000D02*
X142748000Y-124206000D01*
X184150000Y-120142000D02*
X184658000Y-120142000D01*
X184658000Y-120142000D02*
X184150000Y-120142000D01*
X184150000Y-120142000D02*
X184150000Y-109474000D01*
X184150000Y-109474000D02*
X184658000Y-109474000D01*
X184658000Y-109474000D02*
X184150000Y-109474000D01*
X184150000Y-109474000D02*
X184150000Y-98298000D01*
X184404000Y-98298000D02*
X184150000Y-98298000D01*
X184150000Y-98552000D02*
X184404000Y-98298000D01*
X184150000Y-98298000D02*
X184150000Y-87376000D01*
X184658000Y-87376000D02*
X184150000Y-87376000D01*
X184404000Y-87376000D02*
X184658000Y-87376000D01*
X184150000Y-87630000D02*
X184404000Y-87376000D01*
X184150000Y-87376000D02*
X184150000Y-76708000D01*
X184150000Y-76708000D02*
X184150000Y-69596000D01*
D27*
X142748000Y-90932000D02*
X142748000Y-90678000D01*
X142748000Y-80010000D02*
X142494000Y-80010000D01*
D25*
X149733000Y-53721000D02*
X155829000Y-53721000D01*
X155829000Y-53721000D02*
X156464000Y-53086000D01*
X143507460Y-47498000D02*
X143510000Y-47498000D01*
X143510000Y-47498000D02*
X149733000Y-53721000D01*
X149733000Y-53721000D02*
X149860000Y-53848000D01*
X187960000Y-76708000D02*
X184150000Y-76708000D01*
X187960000Y-87630000D02*
X184150000Y-87630000D01*
X187960000Y-98552000D02*
X184150000Y-98552000D01*
X187960000Y-109474000D02*
X184150000Y-109474000D01*
X187960000Y-120142000D02*
X184150000Y-120142000D01*
X184150000Y-69596000D02*
X187960000Y-65786000D01*
X142748000Y-69088000D02*
X145796000Y-69088000D01*
X145542000Y-68834000D02*
X145796000Y-68834000D01*
X145796000Y-69088000D02*
X145542000Y-68834000D01*
X142748000Y-80010000D02*
X145796000Y-80010000D01*
X145796000Y-80010000D02*
X145542000Y-80010000D01*
X145542000Y-80010000D02*
X145796000Y-80010000D01*
X142748000Y-90932000D02*
X145796000Y-90932000D01*
X145796000Y-90932000D02*
X145542000Y-90932000D01*
X145542000Y-90932000D02*
X145796000Y-90932000D01*
X142748000Y-101854000D02*
X145796000Y-101854000D01*
X145796000Y-101854000D02*
X145542000Y-101854000D01*
X145542000Y-101854000D02*
X145796000Y-101854000D01*
X142748000Y-112776000D02*
X145796000Y-112776000D01*
X142748000Y-58166000D02*
X142748000Y-58420000D01*
X142748000Y-58420000D02*
X144272000Y-59944000D01*
X144272000Y-59944000D02*
X145796000Y-61468000D01*
X145796000Y-61468000D02*
X145796000Y-68834000D01*
X145796000Y-68834000D02*
X145796000Y-80010000D01*
X145796000Y-80010000D02*
X145796000Y-90932000D01*
X145796000Y-90932000D02*
X145796000Y-101854000D01*
X145796000Y-101854000D02*
X145796000Y-104902000D01*
X145796000Y-104902000D02*
X145796000Y-106680000D01*
X145796000Y-106680000D02*
X145796000Y-112776000D01*
X145796000Y-121158000D02*
X145796000Y-112776000D01*
X142748000Y-124206000D02*
X145796000Y-121158000D01*
X145288000Y-55880000D02*
X147828000Y-55880000D01*
X147828000Y-55880000D02*
X149860000Y-53848000D01*
X143002000Y-58166000D02*
X145288000Y-55880000D01*
X142748000Y-58166000D02*
X143002000Y-58166000D01*
D28*
X140589000Y-126365000D02*
X117856000Y-126365000D01*
X117856000Y-126365000D02*
X116586000Y-125095000D01*
X116586000Y-125095000D02*
X116586000Y-116586000D01*
X116586000Y-116586000D02*
X119126000Y-114046000D01*
X142748000Y-124206000D02*
X140589000Y-126365000D01*
M02*
