G04 #@! TF.FileFunction,Legend,Bot*
%FSLAX46Y46*%
G04 Gerber Fmt 4.6, Leading zero omitted, Abs format (unit mm)*
G04 Created by KiCad (PCBNEW 4.0.1-stable) date 03/05/2016 06:21:55*
%MOMM*%
G01*
G04 APERTURE LIST*
%ADD10C,0.100000*%
%ADD11C,0.200000*%
%ADD12C,0.150000*%
G04 APERTURE END LIST*
D10*
D11*
X175474357Y-127682357D02*
X175474357Y-126482357D01*
X175474357Y-127053786D02*
X174788642Y-127053786D01*
X174788642Y-127682357D02*
X174788642Y-126482357D01*
X173760071Y-127625214D02*
X173874357Y-127682357D01*
X174102928Y-127682357D01*
X174217214Y-127625214D01*
X174274357Y-127510929D01*
X174274357Y-127053786D01*
X174217214Y-126939500D01*
X174102928Y-126882357D01*
X173874357Y-126882357D01*
X173760071Y-126939500D01*
X173702928Y-127053786D01*
X173702928Y-127168071D01*
X174274357Y-127282357D01*
X173188643Y-127682357D02*
X173188643Y-126882357D01*
X173188643Y-127110929D02*
X173131500Y-126996643D01*
X173074357Y-126939500D01*
X172960071Y-126882357D01*
X172845786Y-126882357D01*
X172445786Y-127682357D02*
X172445786Y-126882357D01*
X172445786Y-126996643D02*
X172388643Y-126939500D01*
X172274357Y-126882357D01*
X172102929Y-126882357D01*
X171988643Y-126939500D01*
X171931500Y-127053786D01*
X171931500Y-127682357D01*
X171931500Y-127053786D02*
X171874357Y-126939500D01*
X171760071Y-126882357D01*
X171588643Y-126882357D01*
X171474357Y-126939500D01*
X171417214Y-127053786D01*
X171417214Y-127682357D01*
X170388643Y-127625214D02*
X170502929Y-127682357D01*
X170731500Y-127682357D01*
X170845786Y-127625214D01*
X170902929Y-127510929D01*
X170902929Y-127053786D01*
X170845786Y-126939500D01*
X170731500Y-126882357D01*
X170502929Y-126882357D01*
X170388643Y-126939500D01*
X170331500Y-127053786D01*
X170331500Y-127168071D01*
X170902929Y-127282357D01*
X169874358Y-127625214D02*
X169760072Y-127682357D01*
X169531500Y-127682357D01*
X169417215Y-127625214D01*
X169360072Y-127510929D01*
X169360072Y-127453786D01*
X169417215Y-127339500D01*
X169531500Y-127282357D01*
X169702929Y-127282357D01*
X169817215Y-127225214D01*
X169874358Y-127110929D01*
X169874358Y-127053786D01*
X169817215Y-126939500D01*
X169702929Y-126882357D01*
X169531500Y-126882357D01*
X169417215Y-126939500D01*
X167360071Y-127682357D02*
X167931500Y-127682357D01*
X167931500Y-126482357D01*
X166960071Y-127682357D02*
X166960071Y-126882357D01*
X166960071Y-126482357D02*
X167017214Y-126539500D01*
X166960071Y-126596643D01*
X166902928Y-126539500D01*
X166960071Y-126482357D01*
X166960071Y-126596643D01*
X166560070Y-126882357D02*
X166102927Y-126882357D01*
X166388642Y-126482357D02*
X166388642Y-127510929D01*
X166331499Y-127625214D01*
X166217213Y-127682357D01*
X166102927Y-127682357D01*
X165245785Y-127625214D02*
X165360071Y-127682357D01*
X165588642Y-127682357D01*
X165702928Y-127625214D01*
X165760071Y-127510929D01*
X165760071Y-127053786D01*
X165702928Y-126939500D01*
X165588642Y-126882357D01*
X165360071Y-126882357D01*
X165245785Y-126939500D01*
X165188642Y-127053786D01*
X165188642Y-127168071D01*
X165760071Y-127282357D01*
X163760071Y-127682357D02*
X163760071Y-126482357D01*
X163302928Y-126482357D01*
X163188642Y-126539500D01*
X163131499Y-126596643D01*
X163074356Y-126710929D01*
X163074356Y-126882357D01*
X163131499Y-126996643D01*
X163188642Y-127053786D01*
X163302928Y-127110929D01*
X163760071Y-127110929D01*
X162560071Y-127682357D02*
X162560071Y-126882357D01*
X162560071Y-127110929D02*
X162502928Y-126996643D01*
X162445785Y-126939500D01*
X162331499Y-126882357D01*
X162217214Y-126882357D01*
X161360071Y-127625214D02*
X161474357Y-127682357D01*
X161702928Y-127682357D01*
X161817214Y-127625214D01*
X161874357Y-127510929D01*
X161874357Y-127053786D01*
X161817214Y-126939500D01*
X161702928Y-126882357D01*
X161474357Y-126882357D01*
X161360071Y-126939500D01*
X161302928Y-127053786D01*
X161302928Y-127168071D01*
X161874357Y-127282357D01*
X160788643Y-127225214D02*
X159874357Y-127225214D01*
X159474357Y-126482357D02*
X159074357Y-127682357D01*
X158674357Y-126482357D01*
X158331501Y-126596643D02*
X158274358Y-126539500D01*
X158160072Y-126482357D01*
X157874358Y-126482357D01*
X157760072Y-126539500D01*
X157702929Y-126596643D01*
X157645786Y-126710929D01*
X157645786Y-126825214D01*
X157702929Y-126996643D01*
X158388643Y-127682357D01*
X157645786Y-127682357D01*
X156217215Y-127682357D02*
X156217215Y-126482357D01*
X155760072Y-126482357D01*
X155645786Y-126539500D01*
X155588643Y-126596643D01*
X155531500Y-126710929D01*
X155531500Y-126882357D01*
X155588643Y-126996643D01*
X155645786Y-127053786D01*
X155760072Y-127110929D01*
X156217215Y-127110929D01*
X155074358Y-127339500D02*
X154502929Y-127339500D01*
X155188643Y-127682357D02*
X154788643Y-126482357D01*
X154388643Y-127682357D01*
X152445786Y-127682357D02*
X153131501Y-127682357D01*
X152788643Y-127682357D02*
X152788643Y-126482357D01*
X152902929Y-126653786D01*
X153017215Y-126768071D01*
X153131501Y-126825214D01*
X151931501Y-127568071D02*
X151874358Y-127625214D01*
X151931501Y-127682357D01*
X151988644Y-127625214D01*
X151931501Y-127568071D01*
X151931501Y-127682357D01*
X151417215Y-126596643D02*
X151360072Y-126539500D01*
X151245786Y-126482357D01*
X150960072Y-126482357D01*
X150845786Y-126539500D01*
X150788643Y-126596643D01*
X150731500Y-126710929D01*
X150731500Y-126825214D01*
X150788643Y-126996643D01*
X151474357Y-127682357D01*
X150731500Y-127682357D01*
X169074357Y-128648071D02*
X169188643Y-128590929D01*
X169417214Y-128590929D01*
X169531500Y-128648071D01*
X169645786Y-128762357D01*
X169702929Y-128876643D01*
X169702929Y-129105214D01*
X169645786Y-129219500D01*
X169531500Y-129333786D01*
X169417214Y-129390929D01*
X169188643Y-129390929D01*
X169074357Y-129333786D01*
X169302929Y-128190929D02*
X169588643Y-128248071D01*
X169874357Y-128419500D01*
X170045786Y-128705214D01*
X170102929Y-128990929D01*
X170045786Y-129276643D01*
X169874357Y-129562357D01*
X169588643Y-129733786D01*
X169302929Y-129790929D01*
X169017214Y-129733786D01*
X168731500Y-129562357D01*
X168560071Y-129276643D01*
X168502929Y-128990929D01*
X168560071Y-128705214D01*
X168731500Y-128419500D01*
X169017214Y-128248071D01*
X169302929Y-128190929D01*
X167131500Y-128476643D02*
X167074357Y-128419500D01*
X166960071Y-128362357D01*
X166674357Y-128362357D01*
X166560071Y-128419500D01*
X166502928Y-128476643D01*
X166445785Y-128590929D01*
X166445785Y-128705214D01*
X166502928Y-128876643D01*
X167188642Y-129562357D01*
X166445785Y-129562357D01*
X165702928Y-128362357D02*
X165588643Y-128362357D01*
X165474357Y-128419500D01*
X165417214Y-128476643D01*
X165360071Y-128590929D01*
X165302928Y-128819500D01*
X165302928Y-129105214D01*
X165360071Y-129333786D01*
X165417214Y-129448071D01*
X165474357Y-129505214D01*
X165588643Y-129562357D01*
X165702928Y-129562357D01*
X165817214Y-129505214D01*
X165874357Y-129448071D01*
X165931500Y-129333786D01*
X165988643Y-129105214D01*
X165988643Y-128819500D01*
X165931500Y-128590929D01*
X165874357Y-128476643D01*
X165817214Y-128419500D01*
X165702928Y-128362357D01*
X164160071Y-129562357D02*
X164845786Y-129562357D01*
X164502928Y-129562357D02*
X164502928Y-128362357D01*
X164617214Y-128533786D01*
X164731500Y-128648071D01*
X164845786Y-128705214D01*
X163131500Y-128362357D02*
X163360071Y-128362357D01*
X163474357Y-128419500D01*
X163531500Y-128476643D01*
X163645786Y-128648071D01*
X163702929Y-128876643D01*
X163702929Y-129333786D01*
X163645786Y-129448071D01*
X163588643Y-129505214D01*
X163474357Y-129562357D01*
X163245786Y-129562357D01*
X163131500Y-129505214D01*
X163074357Y-129448071D01*
X163017214Y-129333786D01*
X163017214Y-129048071D01*
X163074357Y-128933786D01*
X163131500Y-128876643D01*
X163245786Y-128819500D01*
X163474357Y-128819500D01*
X163588643Y-128876643D01*
X163645786Y-128933786D01*
X163702929Y-129048071D01*
X161702928Y-128362357D02*
X161417214Y-129562357D01*
X161188643Y-128705214D01*
X160960071Y-129562357D01*
X160674357Y-128362357D01*
X160160071Y-129562357D02*
X159931499Y-129562357D01*
X159817214Y-129505214D01*
X159760071Y-129448071D01*
X159645785Y-129276643D01*
X159588642Y-129048071D01*
X159588642Y-128590929D01*
X159645785Y-128476643D01*
X159702928Y-128419500D01*
X159817214Y-128362357D01*
X160045785Y-128362357D01*
X160160071Y-128419500D01*
X160217214Y-128476643D01*
X160274357Y-128590929D01*
X160274357Y-128876643D01*
X160217214Y-128990929D01*
X160160071Y-129048071D01*
X160045785Y-129105214D01*
X159817214Y-129105214D01*
X159702928Y-129048071D01*
X159645785Y-128990929D01*
X159588642Y-128876643D01*
X158731500Y-128362357D02*
X158731500Y-129219500D01*
X158788642Y-129390929D01*
X158902928Y-129505214D01*
X159074357Y-129562357D01*
X159188642Y-129562357D01*
X158217214Y-129505214D02*
X158045785Y-129562357D01*
X157760071Y-129562357D01*
X157645785Y-129505214D01*
X157588642Y-129448071D01*
X157531499Y-129333786D01*
X157531499Y-129219500D01*
X157588642Y-129105214D01*
X157645785Y-129048071D01*
X157760071Y-128990929D01*
X157988642Y-128933786D01*
X158102928Y-128876643D01*
X158160071Y-128819500D01*
X158217214Y-128705214D01*
X158217214Y-128590929D01*
X158160071Y-128476643D01*
X158102928Y-128419500D01*
X157988642Y-128362357D01*
X157702928Y-128362357D01*
X157531499Y-128419500D01*
X157131499Y-128362357D02*
X156845785Y-129562357D01*
X156617214Y-128705214D01*
X156388642Y-129562357D01*
X156102928Y-128362357D01*
D12*
X130040000Y-72732000D02*
X129040000Y-72732000D01*
X129040000Y-71032000D02*
X130040000Y-71032000D01*
X124214000Y-76620000D02*
X125214000Y-76620000D01*
X125214000Y-78320000D02*
X124214000Y-78320000D01*
X120117500Y-70032500D02*
X120117500Y-69032500D01*
X121817500Y-69032500D02*
X121817500Y-70032500D01*
X153916000Y-46824000D02*
X152916000Y-46824000D01*
X152916000Y-45124000D02*
X153916000Y-45124000D01*
X136136000Y-60286000D02*
X135136000Y-60286000D01*
X135136000Y-58586000D02*
X136136000Y-58586000D01*
X124880000Y-52062000D02*
X124880000Y-51062000D01*
X126580000Y-51062000D02*
X126580000Y-52062000D01*
X131992000Y-52062000D02*
X131992000Y-51062000D01*
X133692000Y-51062000D02*
X133692000Y-52062000D01*
X121324000Y-52062000D02*
X121324000Y-51062000D01*
X123024000Y-51062000D02*
X123024000Y-52062000D01*
X174131000Y-51216000D02*
X174131000Y-52416000D01*
X175881000Y-52416000D02*
X175881000Y-51216000D01*
X174590000Y-47004000D02*
X173390000Y-47004000D01*
X173390000Y-48754000D02*
X174590000Y-48754000D01*
X170829000Y-51216000D02*
X170829000Y-52416000D01*
X172579000Y-52416000D02*
X172579000Y-51216000D01*
X136257000Y-64100000D02*
X136257000Y-62900000D01*
X134507000Y-62900000D02*
X134507000Y-64100000D01*
X134458000Y-66435000D02*
X133258000Y-66435000D01*
X133258000Y-68185000D02*
X134458000Y-68185000D01*
X133209000Y-64100000D02*
X133209000Y-62900000D01*
X131459000Y-62900000D02*
X131459000Y-64100000D01*
X176120500Y-44817000D02*
X177320500Y-44817000D01*
X177320500Y-43067000D02*
X176120500Y-43067000D01*
X177560000Y-51343000D02*
X177560000Y-52543000D01*
X179310000Y-52543000D02*
X179310000Y-51343000D01*
X179924000Y-47004000D02*
X178724000Y-47004000D01*
X178724000Y-48754000D02*
X179924000Y-48754000D01*
X181364000Y-38964500D02*
X182364000Y-38964500D01*
X182364000Y-40664500D02*
X181364000Y-40664500D01*
X125314000Y-71007000D02*
X124114000Y-71007000D01*
X124114000Y-72757000D02*
X125314000Y-72757000D01*
X121779000Y-76800000D02*
X121779000Y-75600000D01*
X120029000Y-75600000D02*
X120029000Y-76800000D01*
X128436000Y-52062000D02*
X128436000Y-51062000D01*
X130136000Y-51062000D02*
X130136000Y-52062000D01*
X118921500Y-67465500D02*
X118921500Y-66265500D01*
X117171500Y-66265500D02*
X117171500Y-67465500D01*
X146758660Y-51475640D02*
X146758660Y-47076360D01*
X148661120Y-47076360D02*
X157662880Y-47076360D01*
X157662880Y-51475640D02*
X148661120Y-51475640D01*
X146304000Y-52478940D02*
X146304000Y-51379120D01*
X145704560Y-51978560D02*
X146903440Y-51978560D01*
X134957820Y-54277260D02*
X134957820Y-50878740D01*
X143207740Y-50878740D02*
X137208260Y-50878740D01*
X143207740Y-54277260D02*
X137208260Y-54277260D01*
X134454900Y-55280560D02*
X134454900Y-54180740D01*
X133855460Y-54780180D02*
X135054340Y-54780180D01*
X145804000Y-57316000D02*
X146804000Y-57316000D01*
X146804000Y-59016000D02*
X145804000Y-59016000D01*
X191604000Y-61476000D02*
X191604000Y-62476000D01*
X189904000Y-62476000D02*
X189904000Y-61476000D01*
X191350000Y-115832000D02*
X191350000Y-116832000D01*
X189650000Y-116832000D02*
X189650000Y-115832000D01*
X139358000Y-117086000D02*
X139358000Y-116086000D01*
X141058000Y-116086000D02*
X141058000Y-117086000D01*
X139358000Y-84320000D02*
X139358000Y-83320000D01*
X141058000Y-83320000D02*
X141058000Y-84320000D01*
X191604000Y-83066000D02*
X191604000Y-84066000D01*
X189904000Y-84066000D02*
X189904000Y-83066000D01*
X188048000Y-61476000D02*
X188048000Y-62476000D01*
X186348000Y-62476000D02*
X186348000Y-61476000D01*
X188476000Y-71032000D02*
X189476000Y-71032000D01*
X189476000Y-72732000D02*
X188476000Y-72732000D01*
X188048000Y-83066000D02*
X188048000Y-84066000D01*
X186348000Y-84066000D02*
X186348000Y-83066000D01*
X188730000Y-92876000D02*
X189730000Y-92876000D01*
X189730000Y-94576000D02*
X188730000Y-94576000D01*
X188730000Y-103798000D02*
X189730000Y-103798000D01*
X189730000Y-105498000D02*
X188730000Y-105498000D01*
X187794000Y-115832000D02*
X187794000Y-116832000D01*
X186094000Y-116832000D02*
X186094000Y-115832000D01*
X141978000Y-64096000D02*
X140978000Y-64096000D01*
X140978000Y-62396000D02*
X141978000Y-62396000D01*
X141978000Y-74764000D02*
X140978000Y-74764000D01*
X140978000Y-73064000D02*
X141978000Y-73064000D01*
X142914000Y-84320000D02*
X142914000Y-83320000D01*
X144614000Y-83320000D02*
X144614000Y-84320000D01*
X141978000Y-96608000D02*
X140978000Y-96608000D01*
X140978000Y-94908000D02*
X141978000Y-94908000D01*
X141978000Y-107530000D02*
X140978000Y-107530000D01*
X140978000Y-105830000D02*
X141978000Y-105830000D01*
X142914000Y-117086000D02*
X142914000Y-116086000D01*
X144614000Y-116086000D02*
X144614000Y-117086000D01*
X141136000Y-128262000D02*
X141136000Y-127262000D01*
X142836000Y-127262000D02*
X142836000Y-128262000D01*
X167336500Y-51216000D02*
X167336500Y-52416000D01*
X169086500Y-52416000D02*
X169086500Y-51216000D01*
X164288500Y-51978000D02*
X164288500Y-53178000D01*
X166038500Y-53178000D02*
X166038500Y-51978000D01*
X163971000Y-46644000D02*
X163971000Y-47844000D01*
X165721000Y-47844000D02*
X165721000Y-46644000D01*
X183142000Y-127674000D02*
X184142000Y-127674000D01*
X184142000Y-129374000D02*
X183142000Y-129374000D01*
X134200000Y-70620000D02*
X134200000Y-71620000D01*
X132500000Y-71620000D02*
X132500000Y-70620000D01*
X180760000Y-52570000D02*
X180760000Y-51570000D01*
X182460000Y-51570000D02*
X182460000Y-52570000D01*
X161265500Y-53332000D02*
X161265500Y-52332000D01*
X162965500Y-52332000D02*
X162965500Y-53332000D01*
X131621500Y-130013000D02*
X131621500Y-128813000D01*
X129871500Y-128813000D02*
X129871500Y-130013000D01*
X134062500Y-128686000D02*
X134062500Y-129886000D01*
X135812500Y-129886000D02*
X135812500Y-128686000D01*
X123980500Y-62117000D02*
X122780500Y-62117000D01*
X122780500Y-63867000D02*
X123980500Y-63867000D01*
X129960666Y-74017143D02*
X130008285Y-74064762D01*
X130151142Y-74112381D01*
X130246380Y-74112381D01*
X130389238Y-74064762D01*
X130484476Y-73969524D01*
X130532095Y-73874286D01*
X130579714Y-73683810D01*
X130579714Y-73540952D01*
X130532095Y-73350476D01*
X130484476Y-73255238D01*
X130389238Y-73160000D01*
X130246380Y-73112381D01*
X130151142Y-73112381D01*
X130008285Y-73160000D01*
X129960666Y-73207619D01*
X129389238Y-73540952D02*
X129484476Y-73493333D01*
X129532095Y-73445714D01*
X129579714Y-73350476D01*
X129579714Y-73302857D01*
X129532095Y-73207619D01*
X129484476Y-73160000D01*
X129389238Y-73112381D01*
X129198761Y-73112381D01*
X129103523Y-73160000D01*
X129055904Y-73207619D01*
X129008285Y-73302857D01*
X129008285Y-73350476D01*
X129055904Y-73445714D01*
X129103523Y-73493333D01*
X129198761Y-73540952D01*
X129389238Y-73540952D01*
X129484476Y-73588571D01*
X129532095Y-73636190D01*
X129579714Y-73731429D01*
X129579714Y-73921905D01*
X129532095Y-74017143D01*
X129484476Y-74064762D01*
X129389238Y-74112381D01*
X129198761Y-74112381D01*
X129103523Y-74064762D01*
X129055904Y-74017143D01*
X129008285Y-73921905D01*
X129008285Y-73731429D01*
X129055904Y-73636190D01*
X129103523Y-73588571D01*
X129198761Y-73540952D01*
X124730666Y-79477143D02*
X124778285Y-79524762D01*
X124921142Y-79572381D01*
X125016380Y-79572381D01*
X125159238Y-79524762D01*
X125254476Y-79429524D01*
X125302095Y-79334286D01*
X125349714Y-79143810D01*
X125349714Y-79000952D01*
X125302095Y-78810476D01*
X125254476Y-78715238D01*
X125159238Y-78620000D01*
X125016380Y-78572381D01*
X124921142Y-78572381D01*
X124778285Y-78620000D01*
X124730666Y-78667619D01*
X124254476Y-79572381D02*
X124064000Y-79572381D01*
X123968761Y-79524762D01*
X123921142Y-79477143D01*
X123825904Y-79334286D01*
X123778285Y-79143810D01*
X123778285Y-78762857D01*
X123825904Y-78667619D01*
X123873523Y-78620000D01*
X123968761Y-78572381D01*
X124159238Y-78572381D01*
X124254476Y-78620000D01*
X124302095Y-78667619D01*
X124349714Y-78762857D01*
X124349714Y-79000952D01*
X124302095Y-79096190D01*
X124254476Y-79143810D01*
X124159238Y-79191429D01*
X123968761Y-79191429D01*
X123873523Y-79143810D01*
X123825904Y-79096190D01*
X123778285Y-79000952D01*
X123102643Y-68889643D02*
X123150262Y-68842024D01*
X123197881Y-68699167D01*
X123197881Y-68603929D01*
X123150262Y-68461071D01*
X123055024Y-68365833D01*
X122959786Y-68318214D01*
X122769310Y-68270595D01*
X122626452Y-68270595D01*
X122435976Y-68318214D01*
X122340738Y-68365833D01*
X122245500Y-68461071D01*
X122197881Y-68603929D01*
X122197881Y-68699167D01*
X122245500Y-68842024D01*
X122293119Y-68889643D01*
X123197881Y-69842024D02*
X123197881Y-69270595D01*
X123197881Y-69556309D02*
X122197881Y-69556309D01*
X122340738Y-69461071D01*
X122435976Y-69365833D01*
X122483595Y-69270595D01*
X123197881Y-70794405D02*
X123197881Y-70222976D01*
X123197881Y-70508690D02*
X122197881Y-70508690D01*
X122340738Y-70413452D01*
X122435976Y-70318214D01*
X122483595Y-70222976D01*
X154058857Y-44553143D02*
X154106476Y-44600762D01*
X154249333Y-44648381D01*
X154344571Y-44648381D01*
X154487429Y-44600762D01*
X154582667Y-44505524D01*
X154630286Y-44410286D01*
X154677905Y-44219810D01*
X154677905Y-44076952D01*
X154630286Y-43886476D01*
X154582667Y-43791238D01*
X154487429Y-43696000D01*
X154344571Y-43648381D01*
X154249333Y-43648381D01*
X154106476Y-43696000D01*
X154058857Y-43743619D01*
X153106476Y-44648381D02*
X153677905Y-44648381D01*
X153392191Y-44648381D02*
X153392191Y-43648381D01*
X153487429Y-43791238D01*
X153582667Y-43886476D01*
X153677905Y-43934095D01*
X152773143Y-43648381D02*
X152154095Y-43648381D01*
X152487429Y-44029333D01*
X152344571Y-44029333D01*
X152249333Y-44076952D01*
X152201714Y-44124571D01*
X152154095Y-44219810D01*
X152154095Y-44457905D01*
X152201714Y-44553143D01*
X152249333Y-44600762D01*
X152344571Y-44648381D01*
X152630286Y-44648381D01*
X152725524Y-44600762D01*
X152773143Y-44553143D01*
X136078857Y-61393143D02*
X136126476Y-61440762D01*
X136269333Y-61488381D01*
X136364571Y-61488381D01*
X136507429Y-61440762D01*
X136602667Y-61345524D01*
X136650286Y-61250286D01*
X136697905Y-61059810D01*
X136697905Y-60916952D01*
X136650286Y-60726476D01*
X136602667Y-60631238D01*
X136507429Y-60536000D01*
X136364571Y-60488381D01*
X136269333Y-60488381D01*
X136126476Y-60536000D01*
X136078857Y-60583619D01*
X135126476Y-61488381D02*
X135697905Y-61488381D01*
X135412191Y-61488381D02*
X135412191Y-60488381D01*
X135507429Y-60631238D01*
X135602667Y-60726476D01*
X135697905Y-60774095D01*
X134221714Y-60488381D02*
X134697905Y-60488381D01*
X134745524Y-60964571D01*
X134697905Y-60916952D01*
X134602667Y-60869333D01*
X134364571Y-60869333D01*
X134269333Y-60916952D01*
X134221714Y-60964571D01*
X134174095Y-61059810D01*
X134174095Y-61297905D01*
X134221714Y-61393143D01*
X134269333Y-61440762D01*
X134364571Y-61488381D01*
X134602667Y-61488381D01*
X134697905Y-61440762D01*
X134745524Y-61393143D01*
X126087143Y-47363143D02*
X126134762Y-47315524D01*
X126182381Y-47172667D01*
X126182381Y-47077429D01*
X126134762Y-46934571D01*
X126039524Y-46839333D01*
X125944286Y-46791714D01*
X125753810Y-46744095D01*
X125610952Y-46744095D01*
X125420476Y-46791714D01*
X125325238Y-46839333D01*
X125230000Y-46934571D01*
X125182381Y-47077429D01*
X125182381Y-47172667D01*
X125230000Y-47315524D01*
X125277619Y-47363143D01*
X126182381Y-48315524D02*
X126182381Y-47744095D01*
X126182381Y-48029809D02*
X125182381Y-48029809D01*
X125325238Y-47934571D01*
X125420476Y-47839333D01*
X125468095Y-47744095D01*
X125182381Y-49172667D02*
X125182381Y-48982190D01*
X125230000Y-48886952D01*
X125277619Y-48839333D01*
X125420476Y-48744095D01*
X125610952Y-48696476D01*
X125991905Y-48696476D01*
X126087143Y-48744095D01*
X126134762Y-48791714D01*
X126182381Y-48886952D01*
X126182381Y-49077429D01*
X126134762Y-49172667D01*
X126087143Y-49220286D01*
X125991905Y-49267905D01*
X125753810Y-49267905D01*
X125658571Y-49220286D01*
X125610952Y-49172667D01*
X125563333Y-49077429D01*
X125563333Y-48886952D01*
X125610952Y-48791714D01*
X125658571Y-48744095D01*
X125753810Y-48696476D01*
X133199143Y-47617143D02*
X133246762Y-47569524D01*
X133294381Y-47426667D01*
X133294381Y-47331429D01*
X133246762Y-47188571D01*
X133151524Y-47093333D01*
X133056286Y-47045714D01*
X132865810Y-46998095D01*
X132722952Y-46998095D01*
X132532476Y-47045714D01*
X132437238Y-47093333D01*
X132342000Y-47188571D01*
X132294381Y-47331429D01*
X132294381Y-47426667D01*
X132342000Y-47569524D01*
X132389619Y-47617143D01*
X133294381Y-48569524D02*
X133294381Y-47998095D01*
X133294381Y-48283809D02*
X132294381Y-48283809D01*
X132437238Y-48188571D01*
X132532476Y-48093333D01*
X132580095Y-47998095D01*
X132294381Y-48902857D02*
X132294381Y-49569524D01*
X133294381Y-49140952D01*
X122531143Y-47319143D02*
X122578762Y-47271524D01*
X122626381Y-47128667D01*
X122626381Y-47033429D01*
X122578762Y-46890571D01*
X122483524Y-46795333D01*
X122388286Y-46747714D01*
X122197810Y-46700095D01*
X122054952Y-46700095D01*
X121864476Y-46747714D01*
X121769238Y-46795333D01*
X121674000Y-46890571D01*
X121626381Y-47033429D01*
X121626381Y-47128667D01*
X121674000Y-47271524D01*
X121721619Y-47319143D01*
X122626381Y-48271524D02*
X122626381Y-47700095D01*
X122626381Y-47985809D02*
X121626381Y-47985809D01*
X121769238Y-47890571D01*
X121864476Y-47795333D01*
X121912095Y-47700095D01*
X122626381Y-48747714D02*
X122626381Y-48938190D01*
X122578762Y-49033429D01*
X122531143Y-49081048D01*
X122388286Y-49176286D01*
X122197810Y-49223905D01*
X121816857Y-49223905D01*
X121721619Y-49176286D01*
X121674000Y-49128667D01*
X121626381Y-49033429D01*
X121626381Y-48842952D01*
X121674000Y-48747714D01*
X121721619Y-48700095D01*
X121816857Y-48652476D01*
X122054952Y-48652476D01*
X122150190Y-48700095D01*
X122197810Y-48747714D01*
X122245429Y-48842952D01*
X122245429Y-49033429D01*
X122197810Y-49128667D01*
X122150190Y-49176286D01*
X122054952Y-49223905D01*
D10*
X176869286Y-51691000D02*
X176512143Y-51441000D01*
X176869286Y-51262428D02*
X176119286Y-51262428D01*
X176119286Y-51548143D01*
X176155000Y-51619571D01*
X176190714Y-51655286D01*
X176262143Y-51691000D01*
X176369286Y-51691000D01*
X176440714Y-51655286D01*
X176476429Y-51619571D01*
X176512143Y-51548143D01*
X176512143Y-51262428D01*
X176119286Y-52369571D02*
X176119286Y-52012428D01*
X176476429Y-51976714D01*
X176440714Y-52012428D01*
X176405000Y-52083857D01*
X176405000Y-52262428D01*
X176440714Y-52333857D01*
X176476429Y-52369571D01*
X176547857Y-52405286D01*
X176726429Y-52405286D01*
X176797857Y-52369571D01*
X176833571Y-52333857D01*
X176869286Y-52262428D01*
X176869286Y-52083857D01*
X176833571Y-52012428D01*
X176797857Y-51976714D01*
D12*
X174156666Y-46807381D02*
X174490000Y-46331190D01*
X174728095Y-46807381D02*
X174728095Y-45807381D01*
X174347142Y-45807381D01*
X174251904Y-45855000D01*
X174204285Y-45902619D01*
X174156666Y-45997857D01*
X174156666Y-46140714D01*
X174204285Y-46235952D01*
X174251904Y-46283571D01*
X174347142Y-46331190D01*
X174728095Y-46331190D01*
X173299523Y-45807381D02*
X173490000Y-45807381D01*
X173585238Y-45855000D01*
X173632857Y-45902619D01*
X173728095Y-46045476D01*
X173775714Y-46235952D01*
X173775714Y-46616905D01*
X173728095Y-46712143D01*
X173680476Y-46759762D01*
X173585238Y-46807381D01*
X173394761Y-46807381D01*
X173299523Y-46759762D01*
X173251904Y-46712143D01*
X173204285Y-46616905D01*
X173204285Y-46378810D01*
X173251904Y-46283571D01*
X173299523Y-46235952D01*
X173394761Y-46188333D01*
X173585238Y-46188333D01*
X173680476Y-46235952D01*
X173728095Y-46283571D01*
X173775714Y-46378810D01*
D10*
X173567286Y-51691000D02*
X173210143Y-51441000D01*
X173567286Y-51262428D02*
X172817286Y-51262428D01*
X172817286Y-51548143D01*
X172853000Y-51619571D01*
X172888714Y-51655286D01*
X172960143Y-51691000D01*
X173067286Y-51691000D01*
X173138714Y-51655286D01*
X173174429Y-51619571D01*
X173210143Y-51548143D01*
X173210143Y-51262428D01*
X172817286Y-51941000D02*
X172817286Y-52441000D01*
X173567286Y-52119571D01*
D12*
X137612381Y-63333334D02*
X137136190Y-63000000D01*
X137612381Y-62761905D02*
X136612381Y-62761905D01*
X136612381Y-63142858D01*
X136660000Y-63238096D01*
X136707619Y-63285715D01*
X136802857Y-63333334D01*
X136945714Y-63333334D01*
X137040952Y-63285715D01*
X137088571Y-63238096D01*
X137136190Y-63142858D01*
X137136190Y-62761905D01*
X137040952Y-63904762D02*
X136993333Y-63809524D01*
X136945714Y-63761905D01*
X136850476Y-63714286D01*
X136802857Y-63714286D01*
X136707619Y-63761905D01*
X136660000Y-63809524D01*
X136612381Y-63904762D01*
X136612381Y-64095239D01*
X136660000Y-64190477D01*
X136707619Y-64238096D01*
X136802857Y-64285715D01*
X136850476Y-64285715D01*
X136945714Y-64238096D01*
X136993333Y-64190477D01*
X137040952Y-64095239D01*
X137040952Y-63904762D01*
X137088571Y-63809524D01*
X137136190Y-63761905D01*
X137231429Y-63714286D01*
X137421905Y-63714286D01*
X137517143Y-63761905D01*
X137564762Y-63809524D01*
X137612381Y-63904762D01*
X137612381Y-64095239D01*
X137564762Y-64190477D01*
X137517143Y-64238096D01*
X137421905Y-64285715D01*
X137231429Y-64285715D01*
X137136190Y-64238096D01*
X137088571Y-64190477D01*
X137040952Y-64095239D01*
X134450857Y-69262381D02*
X134784191Y-68786190D01*
X135022286Y-69262381D02*
X135022286Y-68262381D01*
X134641333Y-68262381D01*
X134546095Y-68310000D01*
X134498476Y-68357619D01*
X134450857Y-68452857D01*
X134450857Y-68595714D01*
X134498476Y-68690952D01*
X134546095Y-68738571D01*
X134641333Y-68786190D01*
X135022286Y-68786190D01*
X133498476Y-69262381D02*
X134069905Y-69262381D01*
X133784191Y-69262381D02*
X133784191Y-68262381D01*
X133879429Y-68405238D01*
X133974667Y-68500476D01*
X134069905Y-68548095D01*
X132879429Y-68262381D02*
X132784190Y-68262381D01*
X132688952Y-68310000D01*
X132641333Y-68357619D01*
X132593714Y-68452857D01*
X132546095Y-68643333D01*
X132546095Y-68881429D01*
X132593714Y-69071905D01*
X132641333Y-69167143D01*
X132688952Y-69214762D01*
X132784190Y-69262381D01*
X132879429Y-69262381D01*
X132974667Y-69214762D01*
X133022286Y-69167143D01*
X133069905Y-69071905D01*
X133117524Y-68881429D01*
X133117524Y-68643333D01*
X133069905Y-68452857D01*
X133022286Y-68357619D01*
X132974667Y-68310000D01*
X132879429Y-68262381D01*
X131008381Y-62857143D02*
X130532190Y-62523809D01*
X131008381Y-62285714D02*
X130008381Y-62285714D01*
X130008381Y-62666667D01*
X130056000Y-62761905D01*
X130103619Y-62809524D01*
X130198857Y-62857143D01*
X130341714Y-62857143D01*
X130436952Y-62809524D01*
X130484571Y-62761905D01*
X130532190Y-62666667D01*
X130532190Y-62285714D01*
X131008381Y-63809524D02*
X131008381Y-63238095D01*
X131008381Y-63523809D02*
X130008381Y-63523809D01*
X130151238Y-63428571D01*
X130246476Y-63333333D01*
X130294095Y-63238095D01*
X130103619Y-64190476D02*
X130056000Y-64238095D01*
X130008381Y-64333333D01*
X130008381Y-64571429D01*
X130056000Y-64666667D01*
X130103619Y-64714286D01*
X130198857Y-64761905D01*
X130294095Y-64761905D01*
X130436952Y-64714286D01*
X131008381Y-64142857D01*
X131008381Y-64761905D01*
X176887166Y-42616381D02*
X177220500Y-42140190D01*
X177458595Y-42616381D02*
X177458595Y-41616381D01*
X177077642Y-41616381D01*
X176982404Y-41664000D01*
X176934785Y-41711619D01*
X176887166Y-41806857D01*
X176887166Y-41949714D01*
X176934785Y-42044952D01*
X176982404Y-42092571D01*
X177077642Y-42140190D01*
X177458595Y-42140190D01*
X175934785Y-42616381D02*
X176506214Y-42616381D01*
X176220500Y-42616381D02*
X176220500Y-41616381D01*
X176315738Y-41759238D01*
X176410976Y-41854476D01*
X176506214Y-41902095D01*
D10*
X180298286Y-51818000D02*
X179941143Y-51568000D01*
X180298286Y-51389428D02*
X179548286Y-51389428D01*
X179548286Y-51675143D01*
X179584000Y-51746571D01*
X179619714Y-51782286D01*
X179691143Y-51818000D01*
X179798286Y-51818000D01*
X179869714Y-51782286D01*
X179905429Y-51746571D01*
X179941143Y-51675143D01*
X179941143Y-51389428D01*
X179619714Y-52103714D02*
X179584000Y-52139428D01*
X179548286Y-52210857D01*
X179548286Y-52389428D01*
X179584000Y-52460857D01*
X179619714Y-52496571D01*
X179691143Y-52532286D01*
X179762571Y-52532286D01*
X179869714Y-52496571D01*
X180298286Y-52068000D01*
X180298286Y-52532286D01*
D12*
X179490666Y-46553381D02*
X179824000Y-46077190D01*
X180062095Y-46553381D02*
X180062095Y-45553381D01*
X179681142Y-45553381D01*
X179585904Y-45601000D01*
X179538285Y-45648619D01*
X179490666Y-45743857D01*
X179490666Y-45886714D01*
X179538285Y-45981952D01*
X179585904Y-46029571D01*
X179681142Y-46077190D01*
X180062095Y-46077190D01*
X179157333Y-45553381D02*
X178538285Y-45553381D01*
X178871619Y-45934333D01*
X178728761Y-45934333D01*
X178633523Y-45981952D01*
X178585904Y-46029571D01*
X178538285Y-46124810D01*
X178538285Y-46362905D01*
X178585904Y-46458143D01*
X178633523Y-46505762D01*
X178728761Y-46553381D01*
X179014476Y-46553381D01*
X179109714Y-46505762D01*
X179157333Y-46458143D01*
X184824666Y-40171643D02*
X184872285Y-40219262D01*
X185015142Y-40266881D01*
X185110380Y-40266881D01*
X185253238Y-40219262D01*
X185348476Y-40124024D01*
X185396095Y-40028786D01*
X185443714Y-39838310D01*
X185443714Y-39695452D01*
X185396095Y-39504976D01*
X185348476Y-39409738D01*
X185253238Y-39314500D01*
X185110380Y-39266881D01*
X185015142Y-39266881D01*
X184872285Y-39314500D01*
X184824666Y-39362119D01*
X183872285Y-40266881D02*
X184443714Y-40266881D01*
X184158000Y-40266881D02*
X184158000Y-39266881D01*
X184253238Y-39409738D01*
X184348476Y-39504976D01*
X184443714Y-39552595D01*
X124848857Y-74112381D02*
X125182191Y-73636190D01*
X125420286Y-74112381D02*
X125420286Y-73112381D01*
X125039333Y-73112381D01*
X124944095Y-73160000D01*
X124896476Y-73207619D01*
X124848857Y-73302857D01*
X124848857Y-73445714D01*
X124896476Y-73540952D01*
X124944095Y-73588571D01*
X125039333Y-73636190D01*
X125420286Y-73636190D01*
X123896476Y-74112381D02*
X124467905Y-74112381D01*
X124182191Y-74112381D02*
X124182191Y-73112381D01*
X124277429Y-73255238D01*
X124372667Y-73350476D01*
X124467905Y-73398095D01*
X122991714Y-73112381D02*
X123467905Y-73112381D01*
X123515524Y-73588571D01*
X123467905Y-73540952D01*
X123372667Y-73493333D01*
X123134571Y-73493333D01*
X123039333Y-73540952D01*
X122991714Y-73588571D01*
X122944095Y-73683810D01*
X122944095Y-73921905D01*
X122991714Y-74017143D01*
X123039333Y-74064762D01*
X123134571Y-74112381D01*
X123372667Y-74112381D01*
X123467905Y-74064762D01*
X123515524Y-74017143D01*
X123134381Y-75557143D02*
X122658190Y-75223809D01*
X123134381Y-74985714D02*
X122134381Y-74985714D01*
X122134381Y-75366667D01*
X122182000Y-75461905D01*
X122229619Y-75509524D01*
X122324857Y-75557143D01*
X122467714Y-75557143D01*
X122562952Y-75509524D01*
X122610571Y-75461905D01*
X122658190Y-75366667D01*
X122658190Y-74985714D01*
X123134381Y-76509524D02*
X123134381Y-75938095D01*
X123134381Y-76223809D02*
X122134381Y-76223809D01*
X122277238Y-76128571D01*
X122372476Y-76033333D01*
X122420095Y-75938095D01*
X122134381Y-77366667D02*
X122134381Y-77176190D01*
X122182000Y-77080952D01*
X122229619Y-77033333D01*
X122372476Y-76938095D01*
X122562952Y-76890476D01*
X122943905Y-76890476D01*
X123039143Y-76938095D01*
X123086762Y-76985714D01*
X123134381Y-77080952D01*
X123134381Y-77271429D01*
X123086762Y-77366667D01*
X123039143Y-77414286D01*
X122943905Y-77461905D01*
X122705810Y-77461905D01*
X122610571Y-77414286D01*
X122562952Y-77366667D01*
X122515333Y-77271429D01*
X122515333Y-77080952D01*
X122562952Y-76985714D01*
X122610571Y-76938095D01*
X122705810Y-76890476D01*
X129643143Y-47617143D02*
X129690762Y-47569524D01*
X129738381Y-47426667D01*
X129738381Y-47331429D01*
X129690762Y-47188571D01*
X129595524Y-47093333D01*
X129500286Y-47045714D01*
X129309810Y-46998095D01*
X129166952Y-46998095D01*
X128976476Y-47045714D01*
X128881238Y-47093333D01*
X128786000Y-47188571D01*
X128738381Y-47331429D01*
X128738381Y-47426667D01*
X128786000Y-47569524D01*
X128833619Y-47617143D01*
X129738381Y-48569524D02*
X129738381Y-47998095D01*
X129738381Y-48283809D02*
X128738381Y-48283809D01*
X128881238Y-48188571D01*
X128976476Y-48093333D01*
X129024095Y-47998095D01*
X129166952Y-49140952D02*
X129119333Y-49045714D01*
X129071714Y-48998095D01*
X128976476Y-48950476D01*
X128928857Y-48950476D01*
X128833619Y-48998095D01*
X128786000Y-49045714D01*
X128738381Y-49140952D01*
X128738381Y-49331429D01*
X128786000Y-49426667D01*
X128833619Y-49474286D01*
X128928857Y-49521905D01*
X128976476Y-49521905D01*
X129071714Y-49474286D01*
X129119333Y-49426667D01*
X129166952Y-49331429D01*
X129166952Y-49140952D01*
X129214571Y-49045714D01*
X129262190Y-48998095D01*
X129357429Y-48950476D01*
X129547905Y-48950476D01*
X129643143Y-48998095D01*
X129690762Y-49045714D01*
X129738381Y-49140952D01*
X129738381Y-49331429D01*
X129690762Y-49426667D01*
X129643143Y-49474286D01*
X129547905Y-49521905D01*
X129357429Y-49521905D01*
X129262190Y-49474286D01*
X129214571Y-49426667D01*
X129166952Y-49331429D01*
X116720881Y-66476643D02*
X116244690Y-66143309D01*
X116720881Y-65905214D02*
X115720881Y-65905214D01*
X115720881Y-66286167D01*
X115768500Y-66381405D01*
X115816119Y-66429024D01*
X115911357Y-66476643D01*
X116054214Y-66476643D01*
X116149452Y-66429024D01*
X116197071Y-66381405D01*
X116244690Y-66286167D01*
X116244690Y-65905214D01*
X116720881Y-67429024D02*
X116720881Y-66857595D01*
X116720881Y-67143309D02*
X115720881Y-67143309D01*
X115863738Y-67048071D01*
X115958976Y-66952833D01*
X116006595Y-66857595D01*
X115720881Y-67762357D02*
X115720881Y-68429024D01*
X116720881Y-68000452D01*
X153604197Y-52932603D02*
X153651816Y-52980222D01*
X153794673Y-53027841D01*
X153889911Y-53027841D01*
X154032769Y-52980222D01*
X154128007Y-52884984D01*
X154175626Y-52789746D01*
X154223245Y-52599270D01*
X154223245Y-52456412D01*
X154175626Y-52265936D01*
X154128007Y-52170698D01*
X154032769Y-52075460D01*
X153889911Y-52027841D01*
X153794673Y-52027841D01*
X153651816Y-52075460D01*
X153604197Y-52123079D01*
X152651816Y-53027841D02*
X153223245Y-53027841D01*
X152937531Y-53027841D02*
X152937531Y-52027841D01*
X153032769Y-52170698D01*
X153128007Y-52265936D01*
X153223245Y-52313555D01*
X151794673Y-52361174D02*
X151794673Y-53027841D01*
X152032769Y-51980222D02*
X152270864Y-52694508D01*
X151651816Y-52694508D01*
X146687492Y-52047449D02*
X145925587Y-52047449D01*
X146306539Y-52428401D02*
X146306539Y-51666496D01*
X140850857Y-50395143D02*
X140898476Y-50442762D01*
X141041333Y-50490381D01*
X141136571Y-50490381D01*
X141279429Y-50442762D01*
X141374667Y-50347524D01*
X141422286Y-50252286D01*
X141469905Y-50061810D01*
X141469905Y-49918952D01*
X141422286Y-49728476D01*
X141374667Y-49633238D01*
X141279429Y-49538000D01*
X141136571Y-49490381D01*
X141041333Y-49490381D01*
X140898476Y-49538000D01*
X140850857Y-49585619D01*
X140469905Y-49585619D02*
X140422286Y-49538000D01*
X140327048Y-49490381D01*
X140088952Y-49490381D01*
X139993714Y-49538000D01*
X139946095Y-49585619D01*
X139898476Y-49680857D01*
X139898476Y-49776095D01*
X139946095Y-49918952D01*
X140517524Y-50490381D01*
X139898476Y-50490381D01*
X139279429Y-49490381D02*
X139184190Y-49490381D01*
X139088952Y-49538000D01*
X139041333Y-49585619D01*
X138993714Y-49680857D01*
X138946095Y-49871333D01*
X138946095Y-50109429D01*
X138993714Y-50299905D01*
X139041333Y-50395143D01*
X139088952Y-50442762D01*
X139184190Y-50490381D01*
X139279429Y-50490381D01*
X139374667Y-50442762D01*
X139422286Y-50395143D01*
X139469905Y-50299905D01*
X139517524Y-50109429D01*
X139517524Y-49871333D01*
X139469905Y-49680857D01*
X139422286Y-49585619D01*
X139374667Y-49538000D01*
X139279429Y-49490381D01*
X134838392Y-54849069D02*
X134076487Y-54849069D01*
X134457439Y-55230021D02*
X134457439Y-54468116D01*
X146470666Y-56423143D02*
X146518285Y-56470762D01*
X146661142Y-56518381D01*
X146756380Y-56518381D01*
X146899238Y-56470762D01*
X146994476Y-56375524D01*
X147042095Y-56280286D01*
X147089714Y-56089810D01*
X147089714Y-55946952D01*
X147042095Y-55756476D01*
X146994476Y-55661238D01*
X146899238Y-55566000D01*
X146756380Y-55518381D01*
X146661142Y-55518381D01*
X146518285Y-55566000D01*
X146470666Y-55613619D01*
X146137333Y-55518381D02*
X145470666Y-55518381D01*
X145899238Y-56518381D01*
X192889143Y-61333143D02*
X192936762Y-61285524D01*
X192984381Y-61142667D01*
X192984381Y-61047429D01*
X192936762Y-60904571D01*
X192841524Y-60809333D01*
X192746286Y-60761714D01*
X192555810Y-60714095D01*
X192412952Y-60714095D01*
X192222476Y-60761714D01*
X192127238Y-60809333D01*
X192032000Y-60904571D01*
X191984381Y-61047429D01*
X191984381Y-61142667D01*
X192032000Y-61285524D01*
X192079619Y-61333143D01*
X191984381Y-62190286D02*
X191984381Y-61999809D01*
X192032000Y-61904571D01*
X192079619Y-61856952D01*
X192222476Y-61761714D01*
X192412952Y-61714095D01*
X192793905Y-61714095D01*
X192889143Y-61761714D01*
X192936762Y-61809333D01*
X192984381Y-61904571D01*
X192984381Y-62095048D01*
X192936762Y-62190286D01*
X192889143Y-62237905D01*
X192793905Y-62285524D01*
X192555810Y-62285524D01*
X192460571Y-62237905D01*
X192412952Y-62190286D01*
X192365333Y-62095048D01*
X192365333Y-61904571D01*
X192412952Y-61809333D01*
X192460571Y-61761714D01*
X192555810Y-61714095D01*
X191984381Y-63190286D02*
X191984381Y-62714095D01*
X192460571Y-62666476D01*
X192412952Y-62714095D01*
X192365333Y-62809333D01*
X192365333Y-63047429D01*
X192412952Y-63142667D01*
X192460571Y-63190286D01*
X192555810Y-63237905D01*
X192793905Y-63237905D01*
X192889143Y-63190286D01*
X192936762Y-63142667D01*
X192984381Y-63047429D01*
X192984381Y-62809333D01*
X192936762Y-62714095D01*
X192889143Y-62666476D01*
X192635143Y-115689143D02*
X192682762Y-115641524D01*
X192730381Y-115498667D01*
X192730381Y-115403429D01*
X192682762Y-115260571D01*
X192587524Y-115165333D01*
X192492286Y-115117714D01*
X192301810Y-115070095D01*
X192158952Y-115070095D01*
X191968476Y-115117714D01*
X191873238Y-115165333D01*
X191778000Y-115260571D01*
X191730381Y-115403429D01*
X191730381Y-115498667D01*
X191778000Y-115641524D01*
X191825619Y-115689143D01*
X191730381Y-116546286D02*
X191730381Y-116355809D01*
X191778000Y-116260571D01*
X191825619Y-116212952D01*
X191968476Y-116117714D01*
X192158952Y-116070095D01*
X192539905Y-116070095D01*
X192635143Y-116117714D01*
X192682762Y-116165333D01*
X192730381Y-116260571D01*
X192730381Y-116451048D01*
X192682762Y-116546286D01*
X192635143Y-116593905D01*
X192539905Y-116641524D01*
X192301810Y-116641524D01*
X192206571Y-116593905D01*
X192158952Y-116546286D01*
X192111333Y-116451048D01*
X192111333Y-116260571D01*
X192158952Y-116165333D01*
X192206571Y-116117714D01*
X192301810Y-116070095D01*
X191730381Y-117498667D02*
X191730381Y-117308190D01*
X191778000Y-117212952D01*
X191825619Y-117165333D01*
X191968476Y-117070095D01*
X192158952Y-117022476D01*
X192539905Y-117022476D01*
X192635143Y-117070095D01*
X192682762Y-117117714D01*
X192730381Y-117212952D01*
X192730381Y-117403429D01*
X192682762Y-117498667D01*
X192635143Y-117546286D01*
X192539905Y-117593905D01*
X192301810Y-117593905D01*
X192206571Y-117546286D01*
X192158952Y-117498667D01*
X192111333Y-117403429D01*
X192111333Y-117212952D01*
X192158952Y-117117714D01*
X192206571Y-117070095D01*
X192301810Y-117022476D01*
X138465143Y-115943143D02*
X138512762Y-115895524D01*
X138560381Y-115752667D01*
X138560381Y-115657429D01*
X138512762Y-115514571D01*
X138417524Y-115419333D01*
X138322286Y-115371714D01*
X138131810Y-115324095D01*
X137988952Y-115324095D01*
X137798476Y-115371714D01*
X137703238Y-115419333D01*
X137608000Y-115514571D01*
X137560381Y-115657429D01*
X137560381Y-115752667D01*
X137608000Y-115895524D01*
X137655619Y-115943143D01*
X137560381Y-116800286D02*
X137560381Y-116609809D01*
X137608000Y-116514571D01*
X137655619Y-116466952D01*
X137798476Y-116371714D01*
X137988952Y-116324095D01*
X138369905Y-116324095D01*
X138465143Y-116371714D01*
X138512762Y-116419333D01*
X138560381Y-116514571D01*
X138560381Y-116705048D01*
X138512762Y-116800286D01*
X138465143Y-116847905D01*
X138369905Y-116895524D01*
X138131810Y-116895524D01*
X138036571Y-116847905D01*
X137988952Y-116800286D01*
X137941333Y-116705048D01*
X137941333Y-116514571D01*
X137988952Y-116419333D01*
X138036571Y-116371714D01*
X138131810Y-116324095D01*
X137560381Y-117228857D02*
X137560381Y-117895524D01*
X138560381Y-117466952D01*
X138465143Y-83177143D02*
X138512762Y-83129524D01*
X138560381Y-82986667D01*
X138560381Y-82891429D01*
X138512762Y-82748571D01*
X138417524Y-82653333D01*
X138322286Y-82605714D01*
X138131810Y-82558095D01*
X137988952Y-82558095D01*
X137798476Y-82605714D01*
X137703238Y-82653333D01*
X137608000Y-82748571D01*
X137560381Y-82891429D01*
X137560381Y-82986667D01*
X137608000Y-83129524D01*
X137655619Y-83177143D01*
X137560381Y-84034286D02*
X137560381Y-83843809D01*
X137608000Y-83748571D01*
X137655619Y-83700952D01*
X137798476Y-83605714D01*
X137988952Y-83558095D01*
X138369905Y-83558095D01*
X138465143Y-83605714D01*
X138512762Y-83653333D01*
X138560381Y-83748571D01*
X138560381Y-83939048D01*
X138512762Y-84034286D01*
X138465143Y-84081905D01*
X138369905Y-84129524D01*
X138131810Y-84129524D01*
X138036571Y-84081905D01*
X137988952Y-84034286D01*
X137941333Y-83939048D01*
X137941333Y-83748571D01*
X137988952Y-83653333D01*
X138036571Y-83605714D01*
X138131810Y-83558095D01*
X137988952Y-84700952D02*
X137941333Y-84605714D01*
X137893714Y-84558095D01*
X137798476Y-84510476D01*
X137750857Y-84510476D01*
X137655619Y-84558095D01*
X137608000Y-84605714D01*
X137560381Y-84700952D01*
X137560381Y-84891429D01*
X137608000Y-84986667D01*
X137655619Y-85034286D01*
X137750857Y-85081905D01*
X137798476Y-85081905D01*
X137893714Y-85034286D01*
X137941333Y-84986667D01*
X137988952Y-84891429D01*
X137988952Y-84700952D01*
X138036571Y-84605714D01*
X138084190Y-84558095D01*
X138179429Y-84510476D01*
X138369905Y-84510476D01*
X138465143Y-84558095D01*
X138512762Y-84605714D01*
X138560381Y-84700952D01*
X138560381Y-84891429D01*
X138512762Y-84986667D01*
X138465143Y-85034286D01*
X138369905Y-85081905D01*
X138179429Y-85081905D01*
X138084190Y-85034286D01*
X138036571Y-84986667D01*
X137988952Y-84891429D01*
X192889143Y-82923143D02*
X192936762Y-82875524D01*
X192984381Y-82732667D01*
X192984381Y-82637429D01*
X192936762Y-82494571D01*
X192841524Y-82399333D01*
X192746286Y-82351714D01*
X192555810Y-82304095D01*
X192412952Y-82304095D01*
X192222476Y-82351714D01*
X192127238Y-82399333D01*
X192032000Y-82494571D01*
X191984381Y-82637429D01*
X191984381Y-82732667D01*
X192032000Y-82875524D01*
X192079619Y-82923143D01*
X191984381Y-83780286D02*
X191984381Y-83589809D01*
X192032000Y-83494571D01*
X192079619Y-83446952D01*
X192222476Y-83351714D01*
X192412952Y-83304095D01*
X192793905Y-83304095D01*
X192889143Y-83351714D01*
X192936762Y-83399333D01*
X192984381Y-83494571D01*
X192984381Y-83685048D01*
X192936762Y-83780286D01*
X192889143Y-83827905D01*
X192793905Y-83875524D01*
X192555810Y-83875524D01*
X192460571Y-83827905D01*
X192412952Y-83780286D01*
X192365333Y-83685048D01*
X192365333Y-83494571D01*
X192412952Y-83399333D01*
X192460571Y-83351714D01*
X192555810Y-83304095D01*
X192984381Y-84351714D02*
X192984381Y-84542190D01*
X192936762Y-84637429D01*
X192889143Y-84685048D01*
X192746286Y-84780286D01*
X192555810Y-84827905D01*
X192174857Y-84827905D01*
X192079619Y-84780286D01*
X192032000Y-84732667D01*
X191984381Y-84637429D01*
X191984381Y-84446952D01*
X192032000Y-84351714D01*
X192079619Y-84304095D01*
X192174857Y-84256476D01*
X192412952Y-84256476D01*
X192508190Y-84304095D01*
X192555810Y-84351714D01*
X192603429Y-84446952D01*
X192603429Y-84637429D01*
X192555810Y-84732667D01*
X192508190Y-84780286D01*
X192412952Y-84827905D01*
X189333143Y-61333143D02*
X189380762Y-61285524D01*
X189428381Y-61142667D01*
X189428381Y-61047429D01*
X189380762Y-60904571D01*
X189285524Y-60809333D01*
X189190286Y-60761714D01*
X188999810Y-60714095D01*
X188856952Y-60714095D01*
X188666476Y-60761714D01*
X188571238Y-60809333D01*
X188476000Y-60904571D01*
X188428381Y-61047429D01*
X188428381Y-61142667D01*
X188476000Y-61285524D01*
X188523619Y-61333143D01*
X188428381Y-61666476D02*
X188428381Y-62333143D01*
X189428381Y-61904571D01*
X188428381Y-62904571D02*
X188428381Y-62999810D01*
X188476000Y-63095048D01*
X188523619Y-63142667D01*
X188618857Y-63190286D01*
X188809333Y-63237905D01*
X189047429Y-63237905D01*
X189237905Y-63190286D01*
X189333143Y-63142667D01*
X189380762Y-63095048D01*
X189428381Y-62999810D01*
X189428381Y-62904571D01*
X189380762Y-62809333D01*
X189333143Y-62761714D01*
X189237905Y-62714095D01*
X189047429Y-62666476D01*
X188809333Y-62666476D01*
X188618857Y-62714095D01*
X188523619Y-62761714D01*
X188476000Y-62809333D01*
X188428381Y-62904571D01*
X189618857Y-74017143D02*
X189666476Y-74064762D01*
X189809333Y-74112381D01*
X189904571Y-74112381D01*
X190047429Y-74064762D01*
X190142667Y-73969524D01*
X190190286Y-73874286D01*
X190237905Y-73683810D01*
X190237905Y-73540952D01*
X190190286Y-73350476D01*
X190142667Y-73255238D01*
X190047429Y-73160000D01*
X189904571Y-73112381D01*
X189809333Y-73112381D01*
X189666476Y-73160000D01*
X189618857Y-73207619D01*
X189285524Y-73112381D02*
X188618857Y-73112381D01*
X189047429Y-74112381D01*
X187714095Y-74112381D02*
X188285524Y-74112381D01*
X187999810Y-74112381D02*
X187999810Y-73112381D01*
X188095048Y-73255238D01*
X188190286Y-73350476D01*
X188285524Y-73398095D01*
X189333143Y-82923143D02*
X189380762Y-82875524D01*
X189428381Y-82732667D01*
X189428381Y-82637429D01*
X189380762Y-82494571D01*
X189285524Y-82399333D01*
X189190286Y-82351714D01*
X188999810Y-82304095D01*
X188856952Y-82304095D01*
X188666476Y-82351714D01*
X188571238Y-82399333D01*
X188476000Y-82494571D01*
X188428381Y-82637429D01*
X188428381Y-82732667D01*
X188476000Y-82875524D01*
X188523619Y-82923143D01*
X188428381Y-83256476D02*
X188428381Y-83923143D01*
X189428381Y-83494571D01*
X188523619Y-84256476D02*
X188476000Y-84304095D01*
X188428381Y-84399333D01*
X188428381Y-84637429D01*
X188476000Y-84732667D01*
X188523619Y-84780286D01*
X188618857Y-84827905D01*
X188714095Y-84827905D01*
X188856952Y-84780286D01*
X189428381Y-84208857D01*
X189428381Y-84827905D01*
X189872857Y-96115143D02*
X189920476Y-96162762D01*
X190063333Y-96210381D01*
X190158571Y-96210381D01*
X190301429Y-96162762D01*
X190396667Y-96067524D01*
X190444286Y-95972286D01*
X190491905Y-95781810D01*
X190491905Y-95638952D01*
X190444286Y-95448476D01*
X190396667Y-95353238D01*
X190301429Y-95258000D01*
X190158571Y-95210381D01*
X190063333Y-95210381D01*
X189920476Y-95258000D01*
X189872857Y-95305619D01*
X189539524Y-95210381D02*
X188872857Y-95210381D01*
X189301429Y-96210381D01*
X188587143Y-95210381D02*
X187968095Y-95210381D01*
X188301429Y-95591333D01*
X188158571Y-95591333D01*
X188063333Y-95638952D01*
X188015714Y-95686571D01*
X187968095Y-95781810D01*
X187968095Y-96019905D01*
X188015714Y-96115143D01*
X188063333Y-96162762D01*
X188158571Y-96210381D01*
X188444286Y-96210381D01*
X188539524Y-96162762D01*
X188587143Y-96115143D01*
X189872857Y-107037143D02*
X189920476Y-107084762D01*
X190063333Y-107132381D01*
X190158571Y-107132381D01*
X190301429Y-107084762D01*
X190396667Y-106989524D01*
X190444286Y-106894286D01*
X190491905Y-106703810D01*
X190491905Y-106560952D01*
X190444286Y-106370476D01*
X190396667Y-106275238D01*
X190301429Y-106180000D01*
X190158571Y-106132381D01*
X190063333Y-106132381D01*
X189920476Y-106180000D01*
X189872857Y-106227619D01*
X189539524Y-106132381D02*
X188872857Y-106132381D01*
X189301429Y-107132381D01*
X188063333Y-106465714D02*
X188063333Y-107132381D01*
X188301429Y-106084762D02*
X188539524Y-106799048D01*
X187920476Y-106799048D01*
X189079143Y-115689143D02*
X189126762Y-115641524D01*
X189174381Y-115498667D01*
X189174381Y-115403429D01*
X189126762Y-115260571D01*
X189031524Y-115165333D01*
X188936286Y-115117714D01*
X188745810Y-115070095D01*
X188602952Y-115070095D01*
X188412476Y-115117714D01*
X188317238Y-115165333D01*
X188222000Y-115260571D01*
X188174381Y-115403429D01*
X188174381Y-115498667D01*
X188222000Y-115641524D01*
X188269619Y-115689143D01*
X188174381Y-116022476D02*
X188174381Y-116689143D01*
X189174381Y-116260571D01*
X188174381Y-117546286D02*
X188174381Y-117070095D01*
X188650571Y-117022476D01*
X188602952Y-117070095D01*
X188555333Y-117165333D01*
X188555333Y-117403429D01*
X188602952Y-117498667D01*
X188650571Y-117546286D01*
X188745810Y-117593905D01*
X188983905Y-117593905D01*
X189079143Y-117546286D01*
X189126762Y-117498667D01*
X189174381Y-117403429D01*
X189174381Y-117165333D01*
X189126762Y-117070095D01*
X189079143Y-117022476D01*
X142120857Y-61825143D02*
X142168476Y-61872762D01*
X142311333Y-61920381D01*
X142406571Y-61920381D01*
X142549429Y-61872762D01*
X142644667Y-61777524D01*
X142692286Y-61682286D01*
X142739905Y-61491810D01*
X142739905Y-61348952D01*
X142692286Y-61158476D01*
X142644667Y-61063238D01*
X142549429Y-60968000D01*
X142406571Y-60920381D01*
X142311333Y-60920381D01*
X142168476Y-60968000D01*
X142120857Y-61015619D01*
X141787524Y-60920381D02*
X141120857Y-60920381D01*
X141549429Y-61920381D01*
X140311333Y-60920381D02*
X140501810Y-60920381D01*
X140597048Y-60968000D01*
X140644667Y-61015619D01*
X140739905Y-61158476D01*
X140787524Y-61348952D01*
X140787524Y-61729905D01*
X140739905Y-61825143D01*
X140692286Y-61872762D01*
X140597048Y-61920381D01*
X140406571Y-61920381D01*
X140311333Y-61872762D01*
X140263714Y-61825143D01*
X140216095Y-61729905D01*
X140216095Y-61491810D01*
X140263714Y-61396571D01*
X140311333Y-61348952D01*
X140406571Y-61301333D01*
X140597048Y-61301333D01*
X140692286Y-61348952D01*
X140739905Y-61396571D01*
X140787524Y-61491810D01*
X142120857Y-72493143D02*
X142168476Y-72540762D01*
X142311333Y-72588381D01*
X142406571Y-72588381D01*
X142549429Y-72540762D01*
X142644667Y-72445524D01*
X142692286Y-72350286D01*
X142739905Y-72159810D01*
X142739905Y-72016952D01*
X142692286Y-71826476D01*
X142644667Y-71731238D01*
X142549429Y-71636000D01*
X142406571Y-71588381D01*
X142311333Y-71588381D01*
X142168476Y-71636000D01*
X142120857Y-71683619D01*
X141787524Y-71588381D02*
X141120857Y-71588381D01*
X141549429Y-72588381D01*
X140835143Y-71588381D02*
X140168476Y-71588381D01*
X140597048Y-72588381D01*
X142597143Y-83177143D02*
X142644762Y-83129524D01*
X142692381Y-82986667D01*
X142692381Y-82891429D01*
X142644762Y-82748571D01*
X142549524Y-82653333D01*
X142454286Y-82605714D01*
X142263810Y-82558095D01*
X142120952Y-82558095D01*
X141930476Y-82605714D01*
X141835238Y-82653333D01*
X141740000Y-82748571D01*
X141692381Y-82891429D01*
X141692381Y-82986667D01*
X141740000Y-83129524D01*
X141787619Y-83177143D01*
X141692381Y-83510476D02*
X141692381Y-84177143D01*
X142692381Y-83748571D01*
X142120952Y-84700952D02*
X142073333Y-84605714D01*
X142025714Y-84558095D01*
X141930476Y-84510476D01*
X141882857Y-84510476D01*
X141787619Y-84558095D01*
X141740000Y-84605714D01*
X141692381Y-84700952D01*
X141692381Y-84891429D01*
X141740000Y-84986667D01*
X141787619Y-85034286D01*
X141882857Y-85081905D01*
X141930476Y-85081905D01*
X142025714Y-85034286D01*
X142073333Y-84986667D01*
X142120952Y-84891429D01*
X142120952Y-84700952D01*
X142168571Y-84605714D01*
X142216190Y-84558095D01*
X142311429Y-84510476D01*
X142501905Y-84510476D01*
X142597143Y-84558095D01*
X142644762Y-84605714D01*
X142692381Y-84700952D01*
X142692381Y-84891429D01*
X142644762Y-84986667D01*
X142597143Y-85034286D01*
X142501905Y-85081905D01*
X142311429Y-85081905D01*
X142216190Y-85034286D01*
X142168571Y-84986667D01*
X142120952Y-84891429D01*
X142120857Y-94591143D02*
X142168476Y-94638762D01*
X142311333Y-94686381D01*
X142406571Y-94686381D01*
X142549429Y-94638762D01*
X142644667Y-94543524D01*
X142692286Y-94448286D01*
X142739905Y-94257810D01*
X142739905Y-94114952D01*
X142692286Y-93924476D01*
X142644667Y-93829238D01*
X142549429Y-93734000D01*
X142406571Y-93686381D01*
X142311333Y-93686381D01*
X142168476Y-93734000D01*
X142120857Y-93781619D01*
X141787524Y-93686381D02*
X141120857Y-93686381D01*
X141549429Y-94686381D01*
X140692286Y-94686381D02*
X140501810Y-94686381D01*
X140406571Y-94638762D01*
X140358952Y-94591143D01*
X140263714Y-94448286D01*
X140216095Y-94257810D01*
X140216095Y-93876857D01*
X140263714Y-93781619D01*
X140311333Y-93734000D01*
X140406571Y-93686381D01*
X140597048Y-93686381D01*
X140692286Y-93734000D01*
X140739905Y-93781619D01*
X140787524Y-93876857D01*
X140787524Y-94114952D01*
X140739905Y-94210190D01*
X140692286Y-94257810D01*
X140597048Y-94305429D01*
X140406571Y-94305429D01*
X140311333Y-94257810D01*
X140263714Y-94210190D01*
X140216095Y-94114952D01*
X142120857Y-105259143D02*
X142168476Y-105306762D01*
X142311333Y-105354381D01*
X142406571Y-105354381D01*
X142549429Y-105306762D01*
X142644667Y-105211524D01*
X142692286Y-105116286D01*
X142739905Y-104925810D01*
X142739905Y-104782952D01*
X142692286Y-104592476D01*
X142644667Y-104497238D01*
X142549429Y-104402000D01*
X142406571Y-104354381D01*
X142311333Y-104354381D01*
X142168476Y-104402000D01*
X142120857Y-104449619D01*
X141549429Y-104782952D02*
X141644667Y-104735333D01*
X141692286Y-104687714D01*
X141739905Y-104592476D01*
X141739905Y-104544857D01*
X141692286Y-104449619D01*
X141644667Y-104402000D01*
X141549429Y-104354381D01*
X141358952Y-104354381D01*
X141263714Y-104402000D01*
X141216095Y-104449619D01*
X141168476Y-104544857D01*
X141168476Y-104592476D01*
X141216095Y-104687714D01*
X141263714Y-104735333D01*
X141358952Y-104782952D01*
X141549429Y-104782952D01*
X141644667Y-104830571D01*
X141692286Y-104878190D01*
X141739905Y-104973429D01*
X141739905Y-105163905D01*
X141692286Y-105259143D01*
X141644667Y-105306762D01*
X141549429Y-105354381D01*
X141358952Y-105354381D01*
X141263714Y-105306762D01*
X141216095Y-105259143D01*
X141168476Y-105163905D01*
X141168476Y-104973429D01*
X141216095Y-104878190D01*
X141263714Y-104830571D01*
X141358952Y-104782952D01*
X140549429Y-104354381D02*
X140454190Y-104354381D01*
X140358952Y-104402000D01*
X140311333Y-104449619D01*
X140263714Y-104544857D01*
X140216095Y-104735333D01*
X140216095Y-104973429D01*
X140263714Y-105163905D01*
X140311333Y-105259143D01*
X140358952Y-105306762D01*
X140454190Y-105354381D01*
X140549429Y-105354381D01*
X140644667Y-105306762D01*
X140692286Y-105259143D01*
X140739905Y-105163905D01*
X140787524Y-104973429D01*
X140787524Y-104735333D01*
X140739905Y-104544857D01*
X140692286Y-104449619D01*
X140644667Y-104402000D01*
X140549429Y-104354381D01*
X142597143Y-115943143D02*
X142644762Y-115895524D01*
X142692381Y-115752667D01*
X142692381Y-115657429D01*
X142644762Y-115514571D01*
X142549524Y-115419333D01*
X142454286Y-115371714D01*
X142263810Y-115324095D01*
X142120952Y-115324095D01*
X141930476Y-115371714D01*
X141835238Y-115419333D01*
X141740000Y-115514571D01*
X141692381Y-115657429D01*
X141692381Y-115752667D01*
X141740000Y-115895524D01*
X141787619Y-115943143D01*
X142120952Y-116514571D02*
X142073333Y-116419333D01*
X142025714Y-116371714D01*
X141930476Y-116324095D01*
X141882857Y-116324095D01*
X141787619Y-116371714D01*
X141740000Y-116419333D01*
X141692381Y-116514571D01*
X141692381Y-116705048D01*
X141740000Y-116800286D01*
X141787619Y-116847905D01*
X141882857Y-116895524D01*
X141930476Y-116895524D01*
X142025714Y-116847905D01*
X142073333Y-116800286D01*
X142120952Y-116705048D01*
X142120952Y-116514571D01*
X142168571Y-116419333D01*
X142216190Y-116371714D01*
X142311429Y-116324095D01*
X142501905Y-116324095D01*
X142597143Y-116371714D01*
X142644762Y-116419333D01*
X142692381Y-116514571D01*
X142692381Y-116705048D01*
X142644762Y-116800286D01*
X142597143Y-116847905D01*
X142501905Y-116895524D01*
X142311429Y-116895524D01*
X142216190Y-116847905D01*
X142168571Y-116800286D01*
X142120952Y-116705048D01*
X142692381Y-117847905D02*
X142692381Y-117276476D01*
X142692381Y-117562190D02*
X141692381Y-117562190D01*
X141835238Y-117466952D01*
X141930476Y-117371714D01*
X141978095Y-117276476D01*
X140243143Y-127119143D02*
X140290762Y-127071524D01*
X140338381Y-126928667D01*
X140338381Y-126833429D01*
X140290762Y-126690571D01*
X140195524Y-126595333D01*
X140100286Y-126547714D01*
X139909810Y-126500095D01*
X139766952Y-126500095D01*
X139576476Y-126547714D01*
X139481238Y-126595333D01*
X139386000Y-126690571D01*
X139338381Y-126833429D01*
X139338381Y-126928667D01*
X139386000Y-127071524D01*
X139433619Y-127119143D01*
X139766952Y-127690571D02*
X139719333Y-127595333D01*
X139671714Y-127547714D01*
X139576476Y-127500095D01*
X139528857Y-127500095D01*
X139433619Y-127547714D01*
X139386000Y-127595333D01*
X139338381Y-127690571D01*
X139338381Y-127881048D01*
X139386000Y-127976286D01*
X139433619Y-128023905D01*
X139528857Y-128071524D01*
X139576476Y-128071524D01*
X139671714Y-128023905D01*
X139719333Y-127976286D01*
X139766952Y-127881048D01*
X139766952Y-127690571D01*
X139814571Y-127595333D01*
X139862190Y-127547714D01*
X139957429Y-127500095D01*
X140147905Y-127500095D01*
X140243143Y-127547714D01*
X140290762Y-127595333D01*
X140338381Y-127690571D01*
X140338381Y-127881048D01*
X140290762Y-127976286D01*
X140243143Y-128023905D01*
X140147905Y-128071524D01*
X139957429Y-128071524D01*
X139862190Y-128023905D01*
X139814571Y-127976286D01*
X139766952Y-127881048D01*
X139433619Y-128452476D02*
X139386000Y-128500095D01*
X139338381Y-128595333D01*
X139338381Y-128833429D01*
X139386000Y-128928667D01*
X139433619Y-128976286D01*
X139528857Y-129023905D01*
X139624095Y-129023905D01*
X139766952Y-128976286D01*
X140338381Y-128404857D01*
X140338381Y-129023905D01*
X170251381Y-50792143D02*
X169775190Y-50458809D01*
X170251381Y-50220714D02*
X169251381Y-50220714D01*
X169251381Y-50601667D01*
X169299000Y-50696905D01*
X169346619Y-50744524D01*
X169441857Y-50792143D01*
X169584714Y-50792143D01*
X169679952Y-50744524D01*
X169727571Y-50696905D01*
X169775190Y-50601667D01*
X169775190Y-50220714D01*
X169346619Y-51173095D02*
X169299000Y-51220714D01*
X169251381Y-51315952D01*
X169251381Y-51554048D01*
X169299000Y-51649286D01*
X169346619Y-51696905D01*
X169441857Y-51744524D01*
X169537095Y-51744524D01*
X169679952Y-51696905D01*
X170251381Y-51125476D01*
X170251381Y-51744524D01*
X169251381Y-52601667D02*
X169251381Y-52411190D01*
X169299000Y-52315952D01*
X169346619Y-52268333D01*
X169489476Y-52173095D01*
X169679952Y-52125476D01*
X170060905Y-52125476D01*
X170156143Y-52173095D01*
X170203762Y-52220714D01*
X170251381Y-52315952D01*
X170251381Y-52506429D01*
X170203762Y-52601667D01*
X170156143Y-52649286D01*
X170060905Y-52696905D01*
X169822810Y-52696905D01*
X169727571Y-52649286D01*
X169679952Y-52601667D01*
X169632333Y-52506429D01*
X169632333Y-52315952D01*
X169679952Y-52220714D01*
X169727571Y-52173095D01*
X169822810Y-52125476D01*
D10*
X167026786Y-52095857D02*
X166669643Y-51845857D01*
X167026786Y-51667285D02*
X166276786Y-51667285D01*
X166276786Y-51953000D01*
X166312500Y-52024428D01*
X166348214Y-52060143D01*
X166419643Y-52095857D01*
X166526786Y-52095857D01*
X166598214Y-52060143D01*
X166633929Y-52024428D01*
X166669643Y-51953000D01*
X166669643Y-51667285D01*
X166348214Y-52381571D02*
X166312500Y-52417285D01*
X166276786Y-52488714D01*
X166276786Y-52667285D01*
X166312500Y-52738714D01*
X166348214Y-52774428D01*
X166419643Y-52810143D01*
X166491071Y-52810143D01*
X166598214Y-52774428D01*
X167026786Y-52345857D01*
X167026786Y-52810143D01*
X166276786Y-53060143D02*
X166276786Y-53560143D01*
X167026786Y-53238714D01*
D12*
X163774381Y-46601143D02*
X163298190Y-46267809D01*
X163774381Y-46029714D02*
X162774381Y-46029714D01*
X162774381Y-46410667D01*
X162822000Y-46505905D01*
X162869619Y-46553524D01*
X162964857Y-46601143D01*
X163107714Y-46601143D01*
X163202952Y-46553524D01*
X163250571Y-46505905D01*
X163298190Y-46410667D01*
X163298190Y-46029714D01*
X162869619Y-46982095D02*
X162822000Y-47029714D01*
X162774381Y-47124952D01*
X162774381Y-47363048D01*
X162822000Y-47458286D01*
X162869619Y-47505905D01*
X162964857Y-47553524D01*
X163060095Y-47553524D01*
X163202952Y-47505905D01*
X163774381Y-46934476D01*
X163774381Y-47553524D01*
X163202952Y-48124952D02*
X163155333Y-48029714D01*
X163107714Y-47982095D01*
X163012476Y-47934476D01*
X162964857Y-47934476D01*
X162869619Y-47982095D01*
X162822000Y-48029714D01*
X162774381Y-48124952D01*
X162774381Y-48315429D01*
X162822000Y-48410667D01*
X162869619Y-48458286D01*
X162964857Y-48505905D01*
X163012476Y-48505905D01*
X163107714Y-48458286D01*
X163155333Y-48410667D01*
X163202952Y-48315429D01*
X163202952Y-48124952D01*
X163250571Y-48029714D01*
X163298190Y-47982095D01*
X163393429Y-47934476D01*
X163583905Y-47934476D01*
X163679143Y-47982095D01*
X163726762Y-48029714D01*
X163774381Y-48124952D01*
X163774381Y-48315429D01*
X163726762Y-48410667D01*
X163679143Y-48458286D01*
X163583905Y-48505905D01*
X163393429Y-48505905D01*
X163298190Y-48458286D01*
X163250571Y-48410667D01*
X163202952Y-48315429D01*
X184284857Y-126781143D02*
X184332476Y-126828762D01*
X184475333Y-126876381D01*
X184570571Y-126876381D01*
X184713429Y-126828762D01*
X184808667Y-126733524D01*
X184856286Y-126638286D01*
X184903905Y-126447810D01*
X184903905Y-126304952D01*
X184856286Y-126114476D01*
X184808667Y-126019238D01*
X184713429Y-125924000D01*
X184570571Y-125876381D01*
X184475333Y-125876381D01*
X184332476Y-125924000D01*
X184284857Y-125971619D01*
X183713429Y-126304952D02*
X183808667Y-126257333D01*
X183856286Y-126209714D01*
X183903905Y-126114476D01*
X183903905Y-126066857D01*
X183856286Y-125971619D01*
X183808667Y-125924000D01*
X183713429Y-125876381D01*
X183522952Y-125876381D01*
X183427714Y-125924000D01*
X183380095Y-125971619D01*
X183332476Y-126066857D01*
X183332476Y-126114476D01*
X183380095Y-126209714D01*
X183427714Y-126257333D01*
X183522952Y-126304952D01*
X183713429Y-126304952D01*
X183808667Y-126352571D01*
X183856286Y-126400190D01*
X183903905Y-126495429D01*
X183903905Y-126685905D01*
X183856286Y-126781143D01*
X183808667Y-126828762D01*
X183713429Y-126876381D01*
X183522952Y-126876381D01*
X183427714Y-126828762D01*
X183380095Y-126781143D01*
X183332476Y-126685905D01*
X183332476Y-126495429D01*
X183380095Y-126400190D01*
X183427714Y-126352571D01*
X183522952Y-126304952D01*
X182999143Y-125876381D02*
X182380095Y-125876381D01*
X182713429Y-126257333D01*
X182570571Y-126257333D01*
X182475333Y-126304952D01*
X182427714Y-126352571D01*
X182380095Y-126447810D01*
X182380095Y-126685905D01*
X182427714Y-126781143D01*
X182475333Y-126828762D01*
X182570571Y-126876381D01*
X182856286Y-126876381D01*
X182951524Y-126828762D01*
X182999143Y-126781143D01*
X135807143Y-70477143D02*
X135854762Y-70429524D01*
X135902381Y-70286667D01*
X135902381Y-70191429D01*
X135854762Y-70048571D01*
X135759524Y-69953333D01*
X135664286Y-69905714D01*
X135473810Y-69858095D01*
X135330952Y-69858095D01*
X135140476Y-69905714D01*
X135045238Y-69953333D01*
X134950000Y-70048571D01*
X134902381Y-70191429D01*
X134902381Y-70286667D01*
X134950000Y-70429524D01*
X134997619Y-70477143D01*
X135330952Y-71048571D02*
X135283333Y-70953333D01*
X135235714Y-70905714D01*
X135140476Y-70858095D01*
X135092857Y-70858095D01*
X134997619Y-70905714D01*
X134950000Y-70953333D01*
X134902381Y-71048571D01*
X134902381Y-71239048D01*
X134950000Y-71334286D01*
X134997619Y-71381905D01*
X135092857Y-71429524D01*
X135140476Y-71429524D01*
X135235714Y-71381905D01*
X135283333Y-71334286D01*
X135330952Y-71239048D01*
X135330952Y-71048571D01*
X135378571Y-70953333D01*
X135426190Y-70905714D01*
X135521429Y-70858095D01*
X135711905Y-70858095D01*
X135807143Y-70905714D01*
X135854762Y-70953333D01*
X135902381Y-71048571D01*
X135902381Y-71239048D01*
X135854762Y-71334286D01*
X135807143Y-71381905D01*
X135711905Y-71429524D01*
X135521429Y-71429524D01*
X135426190Y-71381905D01*
X135378571Y-71334286D01*
X135330952Y-71239048D01*
X134902381Y-72286667D02*
X134902381Y-72096190D01*
X134950000Y-72000952D01*
X134997619Y-71953333D01*
X135140476Y-71858095D01*
X135330952Y-71810476D01*
X135711905Y-71810476D01*
X135807143Y-71858095D01*
X135854762Y-71905714D01*
X135902381Y-72000952D01*
X135902381Y-72191429D01*
X135854762Y-72286667D01*
X135807143Y-72334286D01*
X135711905Y-72381905D01*
X135473810Y-72381905D01*
X135378571Y-72334286D01*
X135330952Y-72286667D01*
X135283333Y-72191429D01*
X135283333Y-72000952D01*
X135330952Y-71905714D01*
X135378571Y-71858095D01*
X135473810Y-71810476D01*
X183618143Y-51554143D02*
X183665762Y-51506524D01*
X183713381Y-51363667D01*
X183713381Y-51268429D01*
X183665762Y-51125571D01*
X183570524Y-51030333D01*
X183475286Y-50982714D01*
X183284810Y-50935095D01*
X183141952Y-50935095D01*
X182951476Y-50982714D01*
X182856238Y-51030333D01*
X182761000Y-51125571D01*
X182713381Y-51268429D01*
X182713381Y-51363667D01*
X182761000Y-51506524D01*
X182808619Y-51554143D01*
X183141952Y-52125571D02*
X183094333Y-52030333D01*
X183046714Y-51982714D01*
X182951476Y-51935095D01*
X182903857Y-51935095D01*
X182808619Y-51982714D01*
X182761000Y-52030333D01*
X182713381Y-52125571D01*
X182713381Y-52316048D01*
X182761000Y-52411286D01*
X182808619Y-52458905D01*
X182903857Y-52506524D01*
X182951476Y-52506524D01*
X183046714Y-52458905D01*
X183094333Y-52411286D01*
X183141952Y-52316048D01*
X183141952Y-52125571D01*
X183189571Y-52030333D01*
X183237190Y-51982714D01*
X183332429Y-51935095D01*
X183522905Y-51935095D01*
X183618143Y-51982714D01*
X183665762Y-52030333D01*
X183713381Y-52125571D01*
X183713381Y-52316048D01*
X183665762Y-52411286D01*
X183618143Y-52458905D01*
X183522905Y-52506524D01*
X183332429Y-52506524D01*
X183237190Y-52458905D01*
X183189571Y-52411286D01*
X183141952Y-52316048D01*
X183141952Y-53077952D02*
X183094333Y-52982714D01*
X183046714Y-52935095D01*
X182951476Y-52887476D01*
X182903857Y-52887476D01*
X182808619Y-52935095D01*
X182761000Y-52982714D01*
X182713381Y-53077952D01*
X182713381Y-53268429D01*
X182761000Y-53363667D01*
X182808619Y-53411286D01*
X182903857Y-53458905D01*
X182951476Y-53458905D01*
X183046714Y-53411286D01*
X183094333Y-53363667D01*
X183141952Y-53268429D01*
X183141952Y-53077952D01*
X183189571Y-52982714D01*
X183237190Y-52935095D01*
X183332429Y-52887476D01*
X183522905Y-52887476D01*
X183618143Y-52935095D01*
X183665762Y-52982714D01*
X183713381Y-53077952D01*
X183713381Y-53268429D01*
X183665762Y-53363667D01*
X183618143Y-53411286D01*
X183522905Y-53458905D01*
X183332429Y-53458905D01*
X183237190Y-53411286D01*
X183189571Y-53363667D01*
X183141952Y-53268429D01*
X160821643Y-52189143D02*
X160869262Y-52141524D01*
X160916881Y-51998667D01*
X160916881Y-51903429D01*
X160869262Y-51760571D01*
X160774024Y-51665333D01*
X160678786Y-51617714D01*
X160488310Y-51570095D01*
X160345452Y-51570095D01*
X160154976Y-51617714D01*
X160059738Y-51665333D01*
X159964500Y-51760571D01*
X159916881Y-51903429D01*
X159916881Y-51998667D01*
X159964500Y-52141524D01*
X160012119Y-52189143D01*
X160345452Y-52760571D02*
X160297833Y-52665333D01*
X160250214Y-52617714D01*
X160154976Y-52570095D01*
X160107357Y-52570095D01*
X160012119Y-52617714D01*
X159964500Y-52665333D01*
X159916881Y-52760571D01*
X159916881Y-52951048D01*
X159964500Y-53046286D01*
X160012119Y-53093905D01*
X160107357Y-53141524D01*
X160154976Y-53141524D01*
X160250214Y-53093905D01*
X160297833Y-53046286D01*
X160345452Y-52951048D01*
X160345452Y-52760571D01*
X160393071Y-52665333D01*
X160440690Y-52617714D01*
X160535929Y-52570095D01*
X160726405Y-52570095D01*
X160821643Y-52617714D01*
X160869262Y-52665333D01*
X160916881Y-52760571D01*
X160916881Y-52951048D01*
X160869262Y-53046286D01*
X160821643Y-53093905D01*
X160726405Y-53141524D01*
X160535929Y-53141524D01*
X160440690Y-53093905D01*
X160393071Y-53046286D01*
X160345452Y-52951048D01*
X160916881Y-53617714D02*
X160916881Y-53808190D01*
X160869262Y-53903429D01*
X160821643Y-53951048D01*
X160678786Y-54046286D01*
X160488310Y-54093905D01*
X160107357Y-54093905D01*
X160012119Y-54046286D01*
X159964500Y-53998667D01*
X159916881Y-53903429D01*
X159916881Y-53712952D01*
X159964500Y-53617714D01*
X160012119Y-53570095D01*
X160107357Y-53522476D01*
X160345452Y-53522476D01*
X160440690Y-53570095D01*
X160488310Y-53617714D01*
X160535929Y-53712952D01*
X160535929Y-53903429D01*
X160488310Y-53998667D01*
X160440690Y-54046286D01*
X160345452Y-54093905D01*
X133040381Y-129246334D02*
X132564190Y-128913000D01*
X133040381Y-128674905D02*
X132040381Y-128674905D01*
X132040381Y-129055858D01*
X132088000Y-129151096D01*
X132135619Y-129198715D01*
X132230857Y-129246334D01*
X132373714Y-129246334D01*
X132468952Y-129198715D01*
X132516571Y-129151096D01*
X132564190Y-129055858D01*
X132564190Y-128674905D01*
X132373714Y-130103477D02*
X133040381Y-130103477D01*
X131992762Y-129865381D02*
X132707048Y-129627286D01*
X132707048Y-130246334D01*
X137167881Y-128643143D02*
X136691690Y-128309809D01*
X137167881Y-128071714D02*
X136167881Y-128071714D01*
X136167881Y-128452667D01*
X136215500Y-128547905D01*
X136263119Y-128595524D01*
X136358357Y-128643143D01*
X136501214Y-128643143D01*
X136596452Y-128595524D01*
X136644071Y-128547905D01*
X136691690Y-128452667D01*
X136691690Y-128071714D01*
X137167881Y-129595524D02*
X137167881Y-129024095D01*
X137167881Y-129309809D02*
X136167881Y-129309809D01*
X136310738Y-129214571D01*
X136405976Y-129119333D01*
X136453595Y-129024095D01*
X137167881Y-130071714D02*
X137167881Y-130262190D01*
X137120262Y-130357429D01*
X137072643Y-130405048D01*
X136929786Y-130500286D01*
X136739310Y-130547905D01*
X136358357Y-130547905D01*
X136263119Y-130500286D01*
X136215500Y-130452667D01*
X136167881Y-130357429D01*
X136167881Y-130166952D01*
X136215500Y-130071714D01*
X136263119Y-130024095D01*
X136358357Y-129976476D01*
X136596452Y-129976476D01*
X136691690Y-130024095D01*
X136739310Y-130071714D01*
X136786929Y-130166952D01*
X136786929Y-130357429D01*
X136739310Y-130452667D01*
X136691690Y-130500286D01*
X136596452Y-130547905D01*
X123959857Y-61983881D02*
X124436048Y-61983881D01*
X124436048Y-60983881D01*
X123674143Y-61079119D02*
X123626524Y-61031500D01*
X123531286Y-60983881D01*
X123293190Y-60983881D01*
X123197952Y-61031500D01*
X123150333Y-61079119D01*
X123102714Y-61174357D01*
X123102714Y-61269595D01*
X123150333Y-61412452D01*
X123721762Y-61983881D01*
X123102714Y-61983881D01*
X122769381Y-60983881D02*
X122150333Y-60983881D01*
X122483667Y-61364833D01*
X122340809Y-61364833D01*
X122245571Y-61412452D01*
X122197952Y-61460071D01*
X122150333Y-61555310D01*
X122150333Y-61793405D01*
X122197952Y-61888643D01*
X122245571Y-61936262D01*
X122340809Y-61983881D01*
X122626524Y-61983881D01*
X122721762Y-61936262D01*
X122769381Y-61888643D01*
M02*
