%FSLAX46Y46*%
G04 Gerber Fmt 4.6, Leading zero omitted, Abs format (unit mm)*
G04 Created by KiCad (PCBNEW (2014-10-27 BZR 5228)-product) date 06/09/2015 06:20:01*
%MOMM*%
G01*
G04 APERTURE LIST*
%ADD10C,0.100000*%
%ADD11C,0.200000*%
%ADD12C,0.150000*%
G04 APERTURE END LIST*
D10*
D11*
X175664857Y-127872857D02*
X175664857Y-126672857D01*
X175664857Y-127244286D02*
X174979142Y-127244286D01*
X174979142Y-127872857D02*
X174979142Y-126672857D01*
X173950571Y-127815714D02*
X174064857Y-127872857D01*
X174293428Y-127872857D01*
X174407714Y-127815714D01*
X174464857Y-127701429D01*
X174464857Y-127244286D01*
X174407714Y-127130000D01*
X174293428Y-127072857D01*
X174064857Y-127072857D01*
X173950571Y-127130000D01*
X173893428Y-127244286D01*
X173893428Y-127358571D01*
X174464857Y-127472857D01*
X173379143Y-127872857D02*
X173379143Y-127072857D01*
X173379143Y-127301429D02*
X173322000Y-127187143D01*
X173264857Y-127130000D01*
X173150571Y-127072857D01*
X173036286Y-127072857D01*
X172636286Y-127872857D02*
X172636286Y-127072857D01*
X172636286Y-127187143D02*
X172579143Y-127130000D01*
X172464857Y-127072857D01*
X172293429Y-127072857D01*
X172179143Y-127130000D01*
X172122000Y-127244286D01*
X172122000Y-127872857D01*
X172122000Y-127244286D02*
X172064857Y-127130000D01*
X171950571Y-127072857D01*
X171779143Y-127072857D01*
X171664857Y-127130000D01*
X171607714Y-127244286D01*
X171607714Y-127872857D01*
X170579143Y-127815714D02*
X170693429Y-127872857D01*
X170922000Y-127872857D01*
X171036286Y-127815714D01*
X171093429Y-127701429D01*
X171093429Y-127244286D01*
X171036286Y-127130000D01*
X170922000Y-127072857D01*
X170693429Y-127072857D01*
X170579143Y-127130000D01*
X170522000Y-127244286D01*
X170522000Y-127358571D01*
X171093429Y-127472857D01*
X170064858Y-127815714D02*
X169950572Y-127872857D01*
X169722000Y-127872857D01*
X169607715Y-127815714D01*
X169550572Y-127701429D01*
X169550572Y-127644286D01*
X169607715Y-127530000D01*
X169722000Y-127472857D01*
X169893429Y-127472857D01*
X170007715Y-127415714D01*
X170064858Y-127301429D01*
X170064858Y-127244286D01*
X170007715Y-127130000D01*
X169893429Y-127072857D01*
X169722000Y-127072857D01*
X169607715Y-127130000D01*
X167550571Y-127872857D02*
X168122000Y-127872857D01*
X168122000Y-126672857D01*
X167150571Y-127872857D02*
X167150571Y-127072857D01*
X167150571Y-126672857D02*
X167207714Y-126730000D01*
X167150571Y-126787143D01*
X167093428Y-126730000D01*
X167150571Y-126672857D01*
X167150571Y-126787143D01*
X166750570Y-127072857D02*
X166293427Y-127072857D01*
X166579142Y-126672857D02*
X166579142Y-127701429D01*
X166521999Y-127815714D01*
X166407713Y-127872857D01*
X166293427Y-127872857D01*
X165436285Y-127815714D02*
X165550571Y-127872857D01*
X165779142Y-127872857D01*
X165893428Y-127815714D01*
X165950571Y-127701429D01*
X165950571Y-127244286D01*
X165893428Y-127130000D01*
X165779142Y-127072857D01*
X165550571Y-127072857D01*
X165436285Y-127130000D01*
X165379142Y-127244286D01*
X165379142Y-127358571D01*
X165950571Y-127472857D01*
X163950571Y-127872857D02*
X163950571Y-126672857D01*
X163493428Y-126672857D01*
X163379142Y-126730000D01*
X163321999Y-126787143D01*
X163264856Y-126901429D01*
X163264856Y-127072857D01*
X163321999Y-127187143D01*
X163379142Y-127244286D01*
X163493428Y-127301429D01*
X163950571Y-127301429D01*
X162750571Y-127872857D02*
X162750571Y-127072857D01*
X162750571Y-127301429D02*
X162693428Y-127187143D01*
X162636285Y-127130000D01*
X162521999Y-127072857D01*
X162407714Y-127072857D01*
X161550571Y-127815714D02*
X161664857Y-127872857D01*
X161893428Y-127872857D01*
X162007714Y-127815714D01*
X162064857Y-127701429D01*
X162064857Y-127244286D01*
X162007714Y-127130000D01*
X161893428Y-127072857D01*
X161664857Y-127072857D01*
X161550571Y-127130000D01*
X161493428Y-127244286D01*
X161493428Y-127358571D01*
X162064857Y-127472857D01*
X160979143Y-127415714D02*
X160064857Y-127415714D01*
X159664857Y-126672857D02*
X159264857Y-127872857D01*
X158864857Y-126672857D01*
X158522001Y-126787143D02*
X158464858Y-126730000D01*
X158350572Y-126672857D01*
X158064858Y-126672857D01*
X157950572Y-126730000D01*
X157893429Y-126787143D01*
X157836286Y-126901429D01*
X157836286Y-127015714D01*
X157893429Y-127187143D01*
X158579143Y-127872857D01*
X157836286Y-127872857D01*
X156407715Y-127872857D02*
X156407715Y-126672857D01*
X155950572Y-126672857D01*
X155836286Y-126730000D01*
X155779143Y-126787143D01*
X155722000Y-126901429D01*
X155722000Y-127072857D01*
X155779143Y-127187143D01*
X155836286Y-127244286D01*
X155950572Y-127301429D01*
X156407715Y-127301429D01*
X155264858Y-127530000D02*
X154693429Y-127530000D01*
X155379143Y-127872857D02*
X154979143Y-126672857D01*
X154579143Y-127872857D01*
X152636286Y-127872857D02*
X153322001Y-127872857D01*
X152979143Y-127872857D02*
X152979143Y-126672857D01*
X153093429Y-126844286D01*
X153207715Y-126958571D01*
X153322001Y-127015714D01*
X152122001Y-127758571D02*
X152064858Y-127815714D01*
X152122001Y-127872857D01*
X152179144Y-127815714D01*
X152122001Y-127758571D01*
X152122001Y-127872857D01*
X151322000Y-126672857D02*
X151207715Y-126672857D01*
X151093429Y-126730000D01*
X151036286Y-126787143D01*
X150979143Y-126901429D01*
X150922000Y-127130000D01*
X150922000Y-127415714D01*
X150979143Y-127644286D01*
X151036286Y-127758571D01*
X151093429Y-127815714D01*
X151207715Y-127872857D01*
X151322000Y-127872857D01*
X151436286Y-127815714D01*
X151493429Y-127758571D01*
X151550572Y-127644286D01*
X151607715Y-127415714D01*
X151607715Y-127130000D01*
X151550572Y-126901429D01*
X151493429Y-126787143D01*
X151436286Y-126730000D01*
X151322000Y-126672857D01*
X173150571Y-128838571D02*
X173264857Y-128781429D01*
X173493428Y-128781429D01*
X173607714Y-128838571D01*
X173722000Y-128952857D01*
X173779143Y-129067143D01*
X173779143Y-129295714D01*
X173722000Y-129410000D01*
X173607714Y-129524286D01*
X173493428Y-129581429D01*
X173264857Y-129581429D01*
X173150571Y-129524286D01*
X173379143Y-128381429D02*
X173664857Y-128438571D01*
X173950571Y-128610000D01*
X174122000Y-128895714D01*
X174179143Y-129181429D01*
X174122000Y-129467143D01*
X173950571Y-129752857D01*
X173664857Y-129924286D01*
X173379143Y-129981429D01*
X173093428Y-129924286D01*
X172807714Y-129752857D01*
X172636285Y-129467143D01*
X172579143Y-129181429D01*
X172636285Y-128895714D01*
X172807714Y-128610000D01*
X173093428Y-128438571D01*
X173379143Y-128381429D01*
X171207714Y-128667143D02*
X171150571Y-128610000D01*
X171036285Y-128552857D01*
X170750571Y-128552857D01*
X170636285Y-128610000D01*
X170579142Y-128667143D01*
X170521999Y-128781429D01*
X170521999Y-128895714D01*
X170579142Y-129067143D01*
X171264856Y-129752857D01*
X170521999Y-129752857D01*
X169779142Y-128552857D02*
X169664857Y-128552857D01*
X169550571Y-128610000D01*
X169493428Y-128667143D01*
X169436285Y-128781429D01*
X169379142Y-129010000D01*
X169379142Y-129295714D01*
X169436285Y-129524286D01*
X169493428Y-129638571D01*
X169550571Y-129695714D01*
X169664857Y-129752857D01*
X169779142Y-129752857D01*
X169893428Y-129695714D01*
X169950571Y-129638571D01*
X170007714Y-129524286D01*
X170064857Y-129295714D01*
X170064857Y-129010000D01*
X170007714Y-128781429D01*
X169950571Y-128667143D01*
X169893428Y-128610000D01*
X169779142Y-128552857D01*
X168236285Y-129752857D02*
X168922000Y-129752857D01*
X168579142Y-129752857D02*
X168579142Y-128552857D01*
X168693428Y-128724286D01*
X168807714Y-128838571D01*
X168922000Y-128895714D01*
X167150571Y-128552857D02*
X167722000Y-128552857D01*
X167779143Y-129124286D01*
X167722000Y-129067143D01*
X167607714Y-129010000D01*
X167322000Y-129010000D01*
X167207714Y-129067143D01*
X167150571Y-129124286D01*
X167093428Y-129238571D01*
X167093428Y-129524286D01*
X167150571Y-129638571D01*
X167207714Y-129695714D01*
X167322000Y-129752857D01*
X167607714Y-129752857D01*
X167722000Y-129695714D01*
X167779143Y-129638571D01*
X165779142Y-128552857D02*
X165493428Y-129752857D01*
X165264857Y-128895714D01*
X165036285Y-129752857D01*
X164750571Y-128552857D01*
X164236285Y-129752857D02*
X164007713Y-129752857D01*
X163893428Y-129695714D01*
X163836285Y-129638571D01*
X163721999Y-129467143D01*
X163664856Y-129238571D01*
X163664856Y-128781429D01*
X163721999Y-128667143D01*
X163779142Y-128610000D01*
X163893428Y-128552857D01*
X164121999Y-128552857D01*
X164236285Y-128610000D01*
X164293428Y-128667143D01*
X164350571Y-128781429D01*
X164350571Y-129067143D01*
X164293428Y-129181429D01*
X164236285Y-129238571D01*
X164121999Y-129295714D01*
X163893428Y-129295714D01*
X163779142Y-129238571D01*
X163721999Y-129181429D01*
X163664856Y-129067143D01*
X162807714Y-128552857D02*
X162807714Y-129410000D01*
X162864856Y-129581429D01*
X162979142Y-129695714D01*
X163150571Y-129752857D01*
X163264856Y-129752857D01*
X162293428Y-129695714D02*
X162121999Y-129752857D01*
X161836285Y-129752857D01*
X161721999Y-129695714D01*
X161664856Y-129638571D01*
X161607713Y-129524286D01*
X161607713Y-129410000D01*
X161664856Y-129295714D01*
X161721999Y-129238571D01*
X161836285Y-129181429D01*
X162064856Y-129124286D01*
X162179142Y-129067143D01*
X162236285Y-129010000D01*
X162293428Y-128895714D01*
X162293428Y-128781429D01*
X162236285Y-128667143D01*
X162179142Y-128610000D01*
X162064856Y-128552857D01*
X161779142Y-128552857D01*
X161607713Y-128610000D01*
X161207713Y-128552857D02*
X160921999Y-129752857D01*
X160693428Y-128895714D01*
X160464856Y-129752857D01*
X160179142Y-128552857D01*
X158864856Y-128495714D02*
X159893427Y-130038571D01*
X158579141Y-128552857D02*
X157779141Y-128552857D01*
X158579141Y-129752857D01*
X157779141Y-129752857D01*
X156750570Y-129752857D02*
X157321999Y-129752857D01*
X157321999Y-128552857D01*
X156407713Y-128667143D02*
X156350570Y-128610000D01*
X156236284Y-128552857D01*
X155950570Y-128552857D01*
X155836284Y-128610000D01*
X155779141Y-128667143D01*
X155721998Y-128781429D01*
X155721998Y-128895714D01*
X155779141Y-129067143D01*
X156464855Y-129752857D01*
X155721998Y-129752857D01*
X155264856Y-129410000D02*
X154693427Y-129410000D01*
X155379141Y-129752857D02*
X154979141Y-128552857D01*
X154579141Y-129752857D01*
X154179142Y-129752857D02*
X154179142Y-128552857D01*
X153721999Y-128552857D01*
X153607713Y-128610000D01*
X153550570Y-128667143D01*
X153493427Y-128781429D01*
X153493427Y-128952857D01*
X153550570Y-129067143D01*
X153607713Y-129124286D01*
X153721999Y-129181429D01*
X154179142Y-129181429D01*
X153150570Y-128552857D02*
X152750570Y-129752857D01*
X152350570Y-128552857D01*
D12*
X130040000Y-72732000D02*
X129040000Y-72732000D01*
X129040000Y-71032000D02*
X130040000Y-71032000D01*
X124214000Y-76620000D02*
X125214000Y-76620000D01*
X125214000Y-78320000D02*
X124214000Y-78320000D01*
X153916000Y-46824000D02*
X152916000Y-46824000D01*
X152916000Y-45124000D02*
X153916000Y-45124000D01*
X136136000Y-60286000D02*
X135136000Y-60286000D01*
X135136000Y-58586000D02*
X136136000Y-58586000D01*
X124880000Y-52062000D02*
X124880000Y-51062000D01*
X126580000Y-51062000D02*
X126580000Y-52062000D01*
X131992000Y-52062000D02*
X131992000Y-51062000D01*
X133692000Y-51062000D02*
X133692000Y-52062000D01*
X121324000Y-52062000D02*
X121324000Y-51062000D01*
X123024000Y-51062000D02*
X123024000Y-52062000D01*
X177687000Y-51216000D02*
X177687000Y-52416000D01*
X179437000Y-52416000D02*
X179437000Y-51216000D01*
X174131000Y-51216000D02*
X174131000Y-52416000D01*
X175881000Y-52416000D02*
X175881000Y-51216000D01*
X173828000Y-47131000D02*
X172628000Y-47131000D01*
X172628000Y-48881000D02*
X173828000Y-48881000D01*
X170829000Y-51216000D02*
X170829000Y-52416000D01*
X172579000Y-52416000D02*
X172579000Y-51216000D01*
X136257000Y-64100000D02*
X136257000Y-62900000D01*
X134507000Y-62900000D02*
X134507000Y-64100000D01*
X134458000Y-66435000D02*
X133258000Y-66435000D01*
X133258000Y-68185000D02*
X134458000Y-68185000D01*
X133209000Y-64100000D02*
X133209000Y-62900000D01*
X131459000Y-62900000D02*
X131459000Y-64100000D01*
X178724000Y-45071000D02*
X179924000Y-45071000D01*
X179924000Y-43321000D02*
X178724000Y-43321000D01*
X180735000Y-51216000D02*
X180735000Y-52416000D01*
X182485000Y-52416000D02*
X182485000Y-51216000D01*
X179924000Y-47131000D02*
X178724000Y-47131000D01*
X178724000Y-48881000D02*
X179924000Y-48881000D01*
X125314000Y-71007000D02*
X124114000Y-71007000D01*
X124114000Y-72757000D02*
X125314000Y-72757000D01*
X121779000Y-76800000D02*
X121779000Y-75600000D01*
X120029000Y-75600000D02*
X120029000Y-76800000D01*
X128436000Y-52062000D02*
X128436000Y-51062000D01*
X130136000Y-51062000D02*
X130136000Y-52062000D01*
X146758660Y-51475640D02*
X146758660Y-47076360D01*
X148661120Y-47076360D02*
X157662880Y-47076360D01*
X157662880Y-51475640D02*
X148661120Y-51475640D01*
X146304000Y-52478940D02*
X146304000Y-51379120D01*
X145704560Y-51978560D02*
X146903440Y-51978560D01*
X134957820Y-54277260D02*
X134957820Y-50878740D01*
X143207740Y-50878740D02*
X137208260Y-50878740D01*
X143207740Y-54277260D02*
X137208260Y-54277260D01*
X134454900Y-55280560D02*
X134454900Y-54180740D01*
X133855460Y-54780180D02*
X135054340Y-54780180D01*
X145804000Y-57316000D02*
X146804000Y-57316000D01*
X146804000Y-59016000D02*
X145804000Y-59016000D01*
X191604000Y-61476000D02*
X191604000Y-62476000D01*
X189904000Y-62476000D02*
X189904000Y-61476000D01*
X191350000Y-115832000D02*
X191350000Y-116832000D01*
X189650000Y-116832000D02*
X189650000Y-115832000D01*
X139358000Y-117086000D02*
X139358000Y-116086000D01*
X141058000Y-116086000D02*
X141058000Y-117086000D01*
X139358000Y-84320000D02*
X139358000Y-83320000D01*
X141058000Y-83320000D02*
X141058000Y-84320000D01*
X191604000Y-83066000D02*
X191604000Y-84066000D01*
X189904000Y-84066000D02*
X189904000Y-83066000D01*
X188048000Y-61476000D02*
X188048000Y-62476000D01*
X186348000Y-62476000D02*
X186348000Y-61476000D01*
X188476000Y-71032000D02*
X189476000Y-71032000D01*
X189476000Y-72732000D02*
X188476000Y-72732000D01*
X188048000Y-83066000D02*
X188048000Y-84066000D01*
X186348000Y-84066000D02*
X186348000Y-83066000D01*
X188730000Y-92876000D02*
X189730000Y-92876000D01*
X189730000Y-94576000D02*
X188730000Y-94576000D01*
X188730000Y-103798000D02*
X189730000Y-103798000D01*
X189730000Y-105498000D02*
X188730000Y-105498000D01*
X187794000Y-115832000D02*
X187794000Y-116832000D01*
X186094000Y-116832000D02*
X186094000Y-115832000D01*
X141978000Y-64096000D02*
X140978000Y-64096000D01*
X140978000Y-62396000D02*
X141978000Y-62396000D01*
X141978000Y-74764000D02*
X140978000Y-74764000D01*
X140978000Y-73064000D02*
X141978000Y-73064000D01*
X142914000Y-84320000D02*
X142914000Y-83320000D01*
X144614000Y-83320000D02*
X144614000Y-84320000D01*
X141978000Y-96608000D02*
X140978000Y-96608000D01*
X140978000Y-94908000D02*
X141978000Y-94908000D01*
X141978000Y-107530000D02*
X140978000Y-107530000D01*
X140978000Y-105830000D02*
X141978000Y-105830000D01*
X142914000Y-117086000D02*
X142914000Y-116086000D01*
X144614000Y-116086000D02*
X144614000Y-117086000D01*
X141136000Y-128262000D02*
X141136000Y-127262000D01*
X142836000Y-127262000D02*
X142836000Y-128262000D01*
X167019000Y-51216000D02*
X167019000Y-52416000D01*
X168769000Y-52416000D02*
X168769000Y-51216000D01*
X166716000Y-47131000D02*
X165516000Y-47131000D01*
X165516000Y-48881000D02*
X166716000Y-48881000D01*
X163717000Y-51216000D02*
X163717000Y-52416000D01*
X165467000Y-52416000D02*
X165467000Y-51216000D01*
X164430000Y-44337000D02*
X163230000Y-44337000D01*
X163230000Y-46087000D02*
X164430000Y-46087000D01*
X183142000Y-127674000D02*
X184142000Y-127674000D01*
X184142000Y-129374000D02*
X183142000Y-129374000D01*
X122770000Y-97925000D02*
X122770000Y-98925000D01*
X121070000Y-98925000D02*
X121070000Y-97925000D01*
X134200000Y-70620000D02*
X134200000Y-71620000D01*
X132500000Y-71620000D02*
X132500000Y-70620000D01*
X122420000Y-94576000D02*
X121420000Y-94576000D01*
X121420000Y-92876000D02*
X122420000Y-92876000D01*
X122971000Y-108063000D02*
X124171000Y-108063000D01*
X124171000Y-106313000D02*
X122971000Y-106313000D01*
X120001000Y-99406000D02*
X120001000Y-98206000D01*
X118251000Y-98206000D02*
X118251000Y-99406000D01*
X127473000Y-97169000D02*
X126273000Y-97169000D01*
X126273000Y-98919000D02*
X127473000Y-98919000D01*
X130267000Y-106313000D02*
X129067000Y-106313000D01*
X129067000Y-108063000D02*
X130267000Y-108063000D01*
X129960666Y-74017143D02*
X130008285Y-74064762D01*
X130151142Y-74112381D01*
X130246380Y-74112381D01*
X130389238Y-74064762D01*
X130484476Y-73969524D01*
X130532095Y-73874286D01*
X130579714Y-73683810D01*
X130579714Y-73540952D01*
X130532095Y-73350476D01*
X130484476Y-73255238D01*
X130389238Y-73160000D01*
X130246380Y-73112381D01*
X130151142Y-73112381D01*
X130008285Y-73160000D01*
X129960666Y-73207619D01*
X129389238Y-73540952D02*
X129484476Y-73493333D01*
X129532095Y-73445714D01*
X129579714Y-73350476D01*
X129579714Y-73302857D01*
X129532095Y-73207619D01*
X129484476Y-73160000D01*
X129389238Y-73112381D01*
X129198761Y-73112381D01*
X129103523Y-73160000D01*
X129055904Y-73207619D01*
X129008285Y-73302857D01*
X129008285Y-73350476D01*
X129055904Y-73445714D01*
X129103523Y-73493333D01*
X129198761Y-73540952D01*
X129389238Y-73540952D01*
X129484476Y-73588571D01*
X129532095Y-73636190D01*
X129579714Y-73731429D01*
X129579714Y-73921905D01*
X129532095Y-74017143D01*
X129484476Y-74064762D01*
X129389238Y-74112381D01*
X129198761Y-74112381D01*
X129103523Y-74064762D01*
X129055904Y-74017143D01*
X129008285Y-73921905D01*
X129008285Y-73731429D01*
X129055904Y-73636190D01*
X129103523Y-73588571D01*
X129198761Y-73540952D01*
X124730666Y-79477143D02*
X124778285Y-79524762D01*
X124921142Y-79572381D01*
X125016380Y-79572381D01*
X125159238Y-79524762D01*
X125254476Y-79429524D01*
X125302095Y-79334286D01*
X125349714Y-79143810D01*
X125349714Y-79000952D01*
X125302095Y-78810476D01*
X125254476Y-78715238D01*
X125159238Y-78620000D01*
X125016380Y-78572381D01*
X124921142Y-78572381D01*
X124778285Y-78620000D01*
X124730666Y-78667619D01*
X124254476Y-79572381D02*
X124064000Y-79572381D01*
X123968761Y-79524762D01*
X123921142Y-79477143D01*
X123825904Y-79334286D01*
X123778285Y-79143810D01*
X123778285Y-78762857D01*
X123825904Y-78667619D01*
X123873523Y-78620000D01*
X123968761Y-78572381D01*
X124159238Y-78572381D01*
X124254476Y-78620000D01*
X124302095Y-78667619D01*
X124349714Y-78762857D01*
X124349714Y-79000952D01*
X124302095Y-79096190D01*
X124254476Y-79143810D01*
X124159238Y-79191429D01*
X123968761Y-79191429D01*
X123873523Y-79143810D01*
X123825904Y-79096190D01*
X123778285Y-79000952D01*
X154058857Y-44553143D02*
X154106476Y-44600762D01*
X154249333Y-44648381D01*
X154344571Y-44648381D01*
X154487429Y-44600762D01*
X154582667Y-44505524D01*
X154630286Y-44410286D01*
X154677905Y-44219810D01*
X154677905Y-44076952D01*
X154630286Y-43886476D01*
X154582667Y-43791238D01*
X154487429Y-43696000D01*
X154344571Y-43648381D01*
X154249333Y-43648381D01*
X154106476Y-43696000D01*
X154058857Y-43743619D01*
X153106476Y-44648381D02*
X153677905Y-44648381D01*
X153392191Y-44648381D02*
X153392191Y-43648381D01*
X153487429Y-43791238D01*
X153582667Y-43886476D01*
X153677905Y-43934095D01*
X152773143Y-43648381D02*
X152154095Y-43648381D01*
X152487429Y-44029333D01*
X152344571Y-44029333D01*
X152249333Y-44076952D01*
X152201714Y-44124571D01*
X152154095Y-44219810D01*
X152154095Y-44457905D01*
X152201714Y-44553143D01*
X152249333Y-44600762D01*
X152344571Y-44648381D01*
X152630286Y-44648381D01*
X152725524Y-44600762D01*
X152773143Y-44553143D01*
X136078857Y-61393143D02*
X136126476Y-61440762D01*
X136269333Y-61488381D01*
X136364571Y-61488381D01*
X136507429Y-61440762D01*
X136602667Y-61345524D01*
X136650286Y-61250286D01*
X136697905Y-61059810D01*
X136697905Y-60916952D01*
X136650286Y-60726476D01*
X136602667Y-60631238D01*
X136507429Y-60536000D01*
X136364571Y-60488381D01*
X136269333Y-60488381D01*
X136126476Y-60536000D01*
X136078857Y-60583619D01*
X135126476Y-61488381D02*
X135697905Y-61488381D01*
X135412191Y-61488381D02*
X135412191Y-60488381D01*
X135507429Y-60631238D01*
X135602667Y-60726476D01*
X135697905Y-60774095D01*
X134221714Y-60488381D02*
X134697905Y-60488381D01*
X134745524Y-60964571D01*
X134697905Y-60916952D01*
X134602667Y-60869333D01*
X134364571Y-60869333D01*
X134269333Y-60916952D01*
X134221714Y-60964571D01*
X134174095Y-61059810D01*
X134174095Y-61297905D01*
X134221714Y-61393143D01*
X134269333Y-61440762D01*
X134364571Y-61488381D01*
X134602667Y-61488381D01*
X134697905Y-61440762D01*
X134745524Y-61393143D01*
X126087143Y-47363143D02*
X126134762Y-47315524D01*
X126182381Y-47172667D01*
X126182381Y-47077429D01*
X126134762Y-46934571D01*
X126039524Y-46839333D01*
X125944286Y-46791714D01*
X125753810Y-46744095D01*
X125610952Y-46744095D01*
X125420476Y-46791714D01*
X125325238Y-46839333D01*
X125230000Y-46934571D01*
X125182381Y-47077429D01*
X125182381Y-47172667D01*
X125230000Y-47315524D01*
X125277619Y-47363143D01*
X126182381Y-48315524D02*
X126182381Y-47744095D01*
X126182381Y-48029809D02*
X125182381Y-48029809D01*
X125325238Y-47934571D01*
X125420476Y-47839333D01*
X125468095Y-47744095D01*
X125182381Y-49172667D02*
X125182381Y-48982190D01*
X125230000Y-48886952D01*
X125277619Y-48839333D01*
X125420476Y-48744095D01*
X125610952Y-48696476D01*
X125991905Y-48696476D01*
X126087143Y-48744095D01*
X126134762Y-48791714D01*
X126182381Y-48886952D01*
X126182381Y-49077429D01*
X126134762Y-49172667D01*
X126087143Y-49220286D01*
X125991905Y-49267905D01*
X125753810Y-49267905D01*
X125658571Y-49220286D01*
X125610952Y-49172667D01*
X125563333Y-49077429D01*
X125563333Y-48886952D01*
X125610952Y-48791714D01*
X125658571Y-48744095D01*
X125753810Y-48696476D01*
X133199143Y-47617143D02*
X133246762Y-47569524D01*
X133294381Y-47426667D01*
X133294381Y-47331429D01*
X133246762Y-47188571D01*
X133151524Y-47093333D01*
X133056286Y-47045714D01*
X132865810Y-46998095D01*
X132722952Y-46998095D01*
X132532476Y-47045714D01*
X132437238Y-47093333D01*
X132342000Y-47188571D01*
X132294381Y-47331429D01*
X132294381Y-47426667D01*
X132342000Y-47569524D01*
X132389619Y-47617143D01*
X133294381Y-48569524D02*
X133294381Y-47998095D01*
X133294381Y-48283809D02*
X132294381Y-48283809D01*
X132437238Y-48188571D01*
X132532476Y-48093333D01*
X132580095Y-47998095D01*
X132294381Y-48902857D02*
X132294381Y-49569524D01*
X133294381Y-49140952D01*
X122531143Y-47319143D02*
X122578762Y-47271524D01*
X122626381Y-47128667D01*
X122626381Y-47033429D01*
X122578762Y-46890571D01*
X122483524Y-46795333D01*
X122388286Y-46747714D01*
X122197810Y-46700095D01*
X122054952Y-46700095D01*
X121864476Y-46747714D01*
X121769238Y-46795333D01*
X121674000Y-46890571D01*
X121626381Y-47033429D01*
X121626381Y-47128667D01*
X121674000Y-47271524D01*
X121721619Y-47319143D01*
X122626381Y-48271524D02*
X122626381Y-47700095D01*
X122626381Y-47985809D02*
X121626381Y-47985809D01*
X121769238Y-47890571D01*
X121864476Y-47795333D01*
X121912095Y-47700095D01*
X122626381Y-48747714D02*
X122626381Y-48938190D01*
X122578762Y-49033429D01*
X122531143Y-49081048D01*
X122388286Y-49176286D01*
X122197810Y-49223905D01*
X121816857Y-49223905D01*
X121721619Y-49176286D01*
X121674000Y-49128667D01*
X121626381Y-49033429D01*
X121626381Y-48842952D01*
X121674000Y-48747714D01*
X121721619Y-48700095D01*
X121816857Y-48652476D01*
X122054952Y-48652476D01*
X122150190Y-48700095D01*
X122197810Y-48747714D01*
X122245429Y-48842952D01*
X122245429Y-49033429D01*
X122197810Y-49128667D01*
X122150190Y-49176286D01*
X122054952Y-49223905D01*
D10*
X180425286Y-51691000D02*
X180068143Y-51441000D01*
X180425286Y-51262428D02*
X179675286Y-51262428D01*
X179675286Y-51548143D01*
X179711000Y-51619571D01*
X179746714Y-51655286D01*
X179818143Y-51691000D01*
X179925286Y-51691000D01*
X179996714Y-51655286D01*
X180032429Y-51619571D01*
X180068143Y-51548143D01*
X180068143Y-51262428D01*
X179925286Y-52333857D02*
X180425286Y-52333857D01*
X179639571Y-52155286D02*
X180175286Y-51976714D01*
X180175286Y-52441000D01*
X176869286Y-51691000D02*
X176512143Y-51441000D01*
X176869286Y-51262428D02*
X176119286Y-51262428D01*
X176119286Y-51548143D01*
X176155000Y-51619571D01*
X176190714Y-51655286D01*
X176262143Y-51691000D01*
X176369286Y-51691000D01*
X176440714Y-51655286D01*
X176476429Y-51619571D01*
X176512143Y-51548143D01*
X176512143Y-51262428D01*
X176119286Y-52369571D02*
X176119286Y-52012428D01*
X176476429Y-51976714D01*
X176440714Y-52012428D01*
X176405000Y-52083857D01*
X176405000Y-52262428D01*
X176440714Y-52333857D01*
X176476429Y-52369571D01*
X176547857Y-52405286D01*
X176726429Y-52405286D01*
X176797857Y-52369571D01*
X176833571Y-52333857D01*
X176869286Y-52262428D01*
X176869286Y-52083857D01*
X176833571Y-52012428D01*
X176797857Y-51976714D01*
D12*
X173648666Y-46680381D02*
X173982000Y-46204190D01*
X174220095Y-46680381D02*
X174220095Y-45680381D01*
X173839142Y-45680381D01*
X173743904Y-45728000D01*
X173696285Y-45775619D01*
X173648666Y-45870857D01*
X173648666Y-46013714D01*
X173696285Y-46108952D01*
X173743904Y-46156571D01*
X173839142Y-46204190D01*
X174220095Y-46204190D01*
X172791523Y-45680381D02*
X172982000Y-45680381D01*
X173077238Y-45728000D01*
X173124857Y-45775619D01*
X173220095Y-45918476D01*
X173267714Y-46108952D01*
X173267714Y-46489905D01*
X173220095Y-46585143D01*
X173172476Y-46632762D01*
X173077238Y-46680381D01*
X172886761Y-46680381D01*
X172791523Y-46632762D01*
X172743904Y-46585143D01*
X172696285Y-46489905D01*
X172696285Y-46251810D01*
X172743904Y-46156571D01*
X172791523Y-46108952D01*
X172886761Y-46061333D01*
X173077238Y-46061333D01*
X173172476Y-46108952D01*
X173220095Y-46156571D01*
X173267714Y-46251810D01*
D10*
X173567286Y-51691000D02*
X173210143Y-51441000D01*
X173567286Y-51262428D02*
X172817286Y-51262428D01*
X172817286Y-51548143D01*
X172853000Y-51619571D01*
X172888714Y-51655286D01*
X172960143Y-51691000D01*
X173067286Y-51691000D01*
X173138714Y-51655286D01*
X173174429Y-51619571D01*
X173210143Y-51548143D01*
X173210143Y-51262428D01*
X172817286Y-51941000D02*
X172817286Y-52441000D01*
X173567286Y-52119571D01*
D12*
X137612381Y-63333334D02*
X137136190Y-63000000D01*
X137612381Y-62761905D02*
X136612381Y-62761905D01*
X136612381Y-63142858D01*
X136660000Y-63238096D01*
X136707619Y-63285715D01*
X136802857Y-63333334D01*
X136945714Y-63333334D01*
X137040952Y-63285715D01*
X137088571Y-63238096D01*
X137136190Y-63142858D01*
X137136190Y-62761905D01*
X137040952Y-63904762D02*
X136993333Y-63809524D01*
X136945714Y-63761905D01*
X136850476Y-63714286D01*
X136802857Y-63714286D01*
X136707619Y-63761905D01*
X136660000Y-63809524D01*
X136612381Y-63904762D01*
X136612381Y-64095239D01*
X136660000Y-64190477D01*
X136707619Y-64238096D01*
X136802857Y-64285715D01*
X136850476Y-64285715D01*
X136945714Y-64238096D01*
X136993333Y-64190477D01*
X137040952Y-64095239D01*
X137040952Y-63904762D01*
X137088571Y-63809524D01*
X137136190Y-63761905D01*
X137231429Y-63714286D01*
X137421905Y-63714286D01*
X137517143Y-63761905D01*
X137564762Y-63809524D01*
X137612381Y-63904762D01*
X137612381Y-64095239D01*
X137564762Y-64190477D01*
X137517143Y-64238096D01*
X137421905Y-64285715D01*
X137231429Y-64285715D01*
X137136190Y-64238096D01*
X137088571Y-64190477D01*
X137040952Y-64095239D01*
X134450857Y-69262381D02*
X134784191Y-68786190D01*
X135022286Y-69262381D02*
X135022286Y-68262381D01*
X134641333Y-68262381D01*
X134546095Y-68310000D01*
X134498476Y-68357619D01*
X134450857Y-68452857D01*
X134450857Y-68595714D01*
X134498476Y-68690952D01*
X134546095Y-68738571D01*
X134641333Y-68786190D01*
X135022286Y-68786190D01*
X133498476Y-69262381D02*
X134069905Y-69262381D01*
X133784191Y-69262381D02*
X133784191Y-68262381D01*
X133879429Y-68405238D01*
X133974667Y-68500476D01*
X134069905Y-68548095D01*
X132879429Y-68262381D02*
X132784190Y-68262381D01*
X132688952Y-68310000D01*
X132641333Y-68357619D01*
X132593714Y-68452857D01*
X132546095Y-68643333D01*
X132546095Y-68881429D01*
X132593714Y-69071905D01*
X132641333Y-69167143D01*
X132688952Y-69214762D01*
X132784190Y-69262381D01*
X132879429Y-69262381D01*
X132974667Y-69214762D01*
X133022286Y-69167143D01*
X133069905Y-69071905D01*
X133117524Y-68881429D01*
X133117524Y-68643333D01*
X133069905Y-68452857D01*
X133022286Y-68357619D01*
X132974667Y-68310000D01*
X132879429Y-68262381D01*
X131008381Y-62857143D02*
X130532190Y-62523809D01*
X131008381Y-62285714D02*
X130008381Y-62285714D01*
X130008381Y-62666667D01*
X130056000Y-62761905D01*
X130103619Y-62809524D01*
X130198857Y-62857143D01*
X130341714Y-62857143D01*
X130436952Y-62809524D01*
X130484571Y-62761905D01*
X130532190Y-62666667D01*
X130532190Y-62285714D01*
X131008381Y-63809524D02*
X131008381Y-63238095D01*
X131008381Y-63523809D02*
X130008381Y-63523809D01*
X130151238Y-63428571D01*
X130246476Y-63333333D01*
X130294095Y-63238095D01*
X130103619Y-64190476D02*
X130056000Y-64238095D01*
X130008381Y-64333333D01*
X130008381Y-64571429D01*
X130056000Y-64666667D01*
X130103619Y-64714286D01*
X130198857Y-64761905D01*
X130294095Y-64761905D01*
X130436952Y-64714286D01*
X131008381Y-64142857D01*
X131008381Y-64761905D01*
X179490666Y-42870381D02*
X179824000Y-42394190D01*
X180062095Y-42870381D02*
X180062095Y-41870381D01*
X179681142Y-41870381D01*
X179585904Y-41918000D01*
X179538285Y-41965619D01*
X179490666Y-42060857D01*
X179490666Y-42203714D01*
X179538285Y-42298952D01*
X179585904Y-42346571D01*
X179681142Y-42394190D01*
X180062095Y-42394190D01*
X178538285Y-42870381D02*
X179109714Y-42870381D01*
X178824000Y-42870381D02*
X178824000Y-41870381D01*
X178919238Y-42013238D01*
X179014476Y-42108476D01*
X179109714Y-42156095D01*
D10*
X183473286Y-51691000D02*
X183116143Y-51441000D01*
X183473286Y-51262428D02*
X182723286Y-51262428D01*
X182723286Y-51548143D01*
X182759000Y-51619571D01*
X182794714Y-51655286D01*
X182866143Y-51691000D01*
X182973286Y-51691000D01*
X183044714Y-51655286D01*
X183080429Y-51619571D01*
X183116143Y-51548143D01*
X183116143Y-51262428D01*
X182794714Y-51976714D02*
X182759000Y-52012428D01*
X182723286Y-52083857D01*
X182723286Y-52262428D01*
X182759000Y-52333857D01*
X182794714Y-52369571D01*
X182866143Y-52405286D01*
X182937571Y-52405286D01*
X183044714Y-52369571D01*
X183473286Y-51941000D01*
X183473286Y-52405286D01*
D12*
X179490666Y-46680381D02*
X179824000Y-46204190D01*
X180062095Y-46680381D02*
X180062095Y-45680381D01*
X179681142Y-45680381D01*
X179585904Y-45728000D01*
X179538285Y-45775619D01*
X179490666Y-45870857D01*
X179490666Y-46013714D01*
X179538285Y-46108952D01*
X179585904Y-46156571D01*
X179681142Y-46204190D01*
X180062095Y-46204190D01*
X179157333Y-45680381D02*
X178538285Y-45680381D01*
X178871619Y-46061333D01*
X178728761Y-46061333D01*
X178633523Y-46108952D01*
X178585904Y-46156571D01*
X178538285Y-46251810D01*
X178538285Y-46489905D01*
X178585904Y-46585143D01*
X178633523Y-46632762D01*
X178728761Y-46680381D01*
X179014476Y-46680381D01*
X179109714Y-46632762D01*
X179157333Y-46585143D01*
X124848857Y-74112381D02*
X125182191Y-73636190D01*
X125420286Y-74112381D02*
X125420286Y-73112381D01*
X125039333Y-73112381D01*
X124944095Y-73160000D01*
X124896476Y-73207619D01*
X124848857Y-73302857D01*
X124848857Y-73445714D01*
X124896476Y-73540952D01*
X124944095Y-73588571D01*
X125039333Y-73636190D01*
X125420286Y-73636190D01*
X123896476Y-74112381D02*
X124467905Y-74112381D01*
X124182191Y-74112381D02*
X124182191Y-73112381D01*
X124277429Y-73255238D01*
X124372667Y-73350476D01*
X124467905Y-73398095D01*
X122991714Y-73112381D02*
X123467905Y-73112381D01*
X123515524Y-73588571D01*
X123467905Y-73540952D01*
X123372667Y-73493333D01*
X123134571Y-73493333D01*
X123039333Y-73540952D01*
X122991714Y-73588571D01*
X122944095Y-73683810D01*
X122944095Y-73921905D01*
X122991714Y-74017143D01*
X123039333Y-74064762D01*
X123134571Y-74112381D01*
X123372667Y-74112381D01*
X123467905Y-74064762D01*
X123515524Y-74017143D01*
X123134381Y-75557143D02*
X122658190Y-75223809D01*
X123134381Y-74985714D02*
X122134381Y-74985714D01*
X122134381Y-75366667D01*
X122182000Y-75461905D01*
X122229619Y-75509524D01*
X122324857Y-75557143D01*
X122467714Y-75557143D01*
X122562952Y-75509524D01*
X122610571Y-75461905D01*
X122658190Y-75366667D01*
X122658190Y-74985714D01*
X123134381Y-76509524D02*
X123134381Y-75938095D01*
X123134381Y-76223809D02*
X122134381Y-76223809D01*
X122277238Y-76128571D01*
X122372476Y-76033333D01*
X122420095Y-75938095D01*
X122134381Y-77366667D02*
X122134381Y-77176190D01*
X122182000Y-77080952D01*
X122229619Y-77033333D01*
X122372476Y-76938095D01*
X122562952Y-76890476D01*
X122943905Y-76890476D01*
X123039143Y-76938095D01*
X123086762Y-76985714D01*
X123134381Y-77080952D01*
X123134381Y-77271429D01*
X123086762Y-77366667D01*
X123039143Y-77414286D01*
X122943905Y-77461905D01*
X122705810Y-77461905D01*
X122610571Y-77414286D01*
X122562952Y-77366667D01*
X122515333Y-77271429D01*
X122515333Y-77080952D01*
X122562952Y-76985714D01*
X122610571Y-76938095D01*
X122705810Y-76890476D01*
X129643143Y-47617143D02*
X129690762Y-47569524D01*
X129738381Y-47426667D01*
X129738381Y-47331429D01*
X129690762Y-47188571D01*
X129595524Y-47093333D01*
X129500286Y-47045714D01*
X129309810Y-46998095D01*
X129166952Y-46998095D01*
X128976476Y-47045714D01*
X128881238Y-47093333D01*
X128786000Y-47188571D01*
X128738381Y-47331429D01*
X128738381Y-47426667D01*
X128786000Y-47569524D01*
X128833619Y-47617143D01*
X129738381Y-48569524D02*
X129738381Y-47998095D01*
X129738381Y-48283809D02*
X128738381Y-48283809D01*
X128881238Y-48188571D01*
X128976476Y-48093333D01*
X129024095Y-47998095D01*
X129166952Y-49140952D02*
X129119333Y-49045714D01*
X129071714Y-48998095D01*
X128976476Y-48950476D01*
X128928857Y-48950476D01*
X128833619Y-48998095D01*
X128786000Y-49045714D01*
X128738381Y-49140952D01*
X128738381Y-49331429D01*
X128786000Y-49426667D01*
X128833619Y-49474286D01*
X128928857Y-49521905D01*
X128976476Y-49521905D01*
X129071714Y-49474286D01*
X129119333Y-49426667D01*
X129166952Y-49331429D01*
X129166952Y-49140952D01*
X129214571Y-49045714D01*
X129262190Y-48998095D01*
X129357429Y-48950476D01*
X129547905Y-48950476D01*
X129643143Y-48998095D01*
X129690762Y-49045714D01*
X129738381Y-49140952D01*
X129738381Y-49331429D01*
X129690762Y-49426667D01*
X129643143Y-49474286D01*
X129547905Y-49521905D01*
X129357429Y-49521905D01*
X129262190Y-49474286D01*
X129214571Y-49426667D01*
X129166952Y-49331429D01*
X153604197Y-52932603D02*
X153651816Y-52980222D01*
X153794673Y-53027841D01*
X153889911Y-53027841D01*
X154032769Y-52980222D01*
X154128007Y-52884984D01*
X154175626Y-52789746D01*
X154223245Y-52599270D01*
X154223245Y-52456412D01*
X154175626Y-52265936D01*
X154128007Y-52170698D01*
X154032769Y-52075460D01*
X153889911Y-52027841D01*
X153794673Y-52027841D01*
X153651816Y-52075460D01*
X153604197Y-52123079D01*
X152651816Y-53027841D02*
X153223245Y-53027841D01*
X152937531Y-53027841D02*
X152937531Y-52027841D01*
X153032769Y-52170698D01*
X153128007Y-52265936D01*
X153223245Y-52313555D01*
X151794673Y-52361174D02*
X151794673Y-53027841D01*
X152032769Y-51980222D02*
X152270864Y-52694508D01*
X151651816Y-52694508D01*
X146687492Y-52047449D02*
X145925587Y-52047449D01*
X146306539Y-52428401D02*
X146306539Y-51666496D01*
X140850857Y-50395143D02*
X140898476Y-50442762D01*
X141041333Y-50490381D01*
X141136571Y-50490381D01*
X141279429Y-50442762D01*
X141374667Y-50347524D01*
X141422286Y-50252286D01*
X141469905Y-50061810D01*
X141469905Y-49918952D01*
X141422286Y-49728476D01*
X141374667Y-49633238D01*
X141279429Y-49538000D01*
X141136571Y-49490381D01*
X141041333Y-49490381D01*
X140898476Y-49538000D01*
X140850857Y-49585619D01*
X140469905Y-49585619D02*
X140422286Y-49538000D01*
X140327048Y-49490381D01*
X140088952Y-49490381D01*
X139993714Y-49538000D01*
X139946095Y-49585619D01*
X139898476Y-49680857D01*
X139898476Y-49776095D01*
X139946095Y-49918952D01*
X140517524Y-50490381D01*
X139898476Y-50490381D01*
X139279429Y-49490381D02*
X139184190Y-49490381D01*
X139088952Y-49538000D01*
X139041333Y-49585619D01*
X138993714Y-49680857D01*
X138946095Y-49871333D01*
X138946095Y-50109429D01*
X138993714Y-50299905D01*
X139041333Y-50395143D01*
X139088952Y-50442762D01*
X139184190Y-50490381D01*
X139279429Y-50490381D01*
X139374667Y-50442762D01*
X139422286Y-50395143D01*
X139469905Y-50299905D01*
X139517524Y-50109429D01*
X139517524Y-49871333D01*
X139469905Y-49680857D01*
X139422286Y-49585619D01*
X139374667Y-49538000D01*
X139279429Y-49490381D01*
X134838392Y-54849069D02*
X134076487Y-54849069D01*
X134457439Y-55230021D02*
X134457439Y-54468116D01*
X146470666Y-56423143D02*
X146518285Y-56470762D01*
X146661142Y-56518381D01*
X146756380Y-56518381D01*
X146899238Y-56470762D01*
X146994476Y-56375524D01*
X147042095Y-56280286D01*
X147089714Y-56089810D01*
X147089714Y-55946952D01*
X147042095Y-55756476D01*
X146994476Y-55661238D01*
X146899238Y-55566000D01*
X146756380Y-55518381D01*
X146661142Y-55518381D01*
X146518285Y-55566000D01*
X146470666Y-55613619D01*
X146137333Y-55518381D02*
X145470666Y-55518381D01*
X145899238Y-56518381D01*
X192889143Y-61333143D02*
X192936762Y-61285524D01*
X192984381Y-61142667D01*
X192984381Y-61047429D01*
X192936762Y-60904571D01*
X192841524Y-60809333D01*
X192746286Y-60761714D01*
X192555810Y-60714095D01*
X192412952Y-60714095D01*
X192222476Y-60761714D01*
X192127238Y-60809333D01*
X192032000Y-60904571D01*
X191984381Y-61047429D01*
X191984381Y-61142667D01*
X192032000Y-61285524D01*
X192079619Y-61333143D01*
X191984381Y-62190286D02*
X191984381Y-61999809D01*
X192032000Y-61904571D01*
X192079619Y-61856952D01*
X192222476Y-61761714D01*
X192412952Y-61714095D01*
X192793905Y-61714095D01*
X192889143Y-61761714D01*
X192936762Y-61809333D01*
X192984381Y-61904571D01*
X192984381Y-62095048D01*
X192936762Y-62190286D01*
X192889143Y-62237905D01*
X192793905Y-62285524D01*
X192555810Y-62285524D01*
X192460571Y-62237905D01*
X192412952Y-62190286D01*
X192365333Y-62095048D01*
X192365333Y-61904571D01*
X192412952Y-61809333D01*
X192460571Y-61761714D01*
X192555810Y-61714095D01*
X191984381Y-63190286D02*
X191984381Y-62714095D01*
X192460571Y-62666476D01*
X192412952Y-62714095D01*
X192365333Y-62809333D01*
X192365333Y-63047429D01*
X192412952Y-63142667D01*
X192460571Y-63190286D01*
X192555810Y-63237905D01*
X192793905Y-63237905D01*
X192889143Y-63190286D01*
X192936762Y-63142667D01*
X192984381Y-63047429D01*
X192984381Y-62809333D01*
X192936762Y-62714095D01*
X192889143Y-62666476D01*
X192635143Y-115689143D02*
X192682762Y-115641524D01*
X192730381Y-115498667D01*
X192730381Y-115403429D01*
X192682762Y-115260571D01*
X192587524Y-115165333D01*
X192492286Y-115117714D01*
X192301810Y-115070095D01*
X192158952Y-115070095D01*
X191968476Y-115117714D01*
X191873238Y-115165333D01*
X191778000Y-115260571D01*
X191730381Y-115403429D01*
X191730381Y-115498667D01*
X191778000Y-115641524D01*
X191825619Y-115689143D01*
X191730381Y-116546286D02*
X191730381Y-116355809D01*
X191778000Y-116260571D01*
X191825619Y-116212952D01*
X191968476Y-116117714D01*
X192158952Y-116070095D01*
X192539905Y-116070095D01*
X192635143Y-116117714D01*
X192682762Y-116165333D01*
X192730381Y-116260571D01*
X192730381Y-116451048D01*
X192682762Y-116546286D01*
X192635143Y-116593905D01*
X192539905Y-116641524D01*
X192301810Y-116641524D01*
X192206571Y-116593905D01*
X192158952Y-116546286D01*
X192111333Y-116451048D01*
X192111333Y-116260571D01*
X192158952Y-116165333D01*
X192206571Y-116117714D01*
X192301810Y-116070095D01*
X191730381Y-117498667D02*
X191730381Y-117308190D01*
X191778000Y-117212952D01*
X191825619Y-117165333D01*
X191968476Y-117070095D01*
X192158952Y-117022476D01*
X192539905Y-117022476D01*
X192635143Y-117070095D01*
X192682762Y-117117714D01*
X192730381Y-117212952D01*
X192730381Y-117403429D01*
X192682762Y-117498667D01*
X192635143Y-117546286D01*
X192539905Y-117593905D01*
X192301810Y-117593905D01*
X192206571Y-117546286D01*
X192158952Y-117498667D01*
X192111333Y-117403429D01*
X192111333Y-117212952D01*
X192158952Y-117117714D01*
X192206571Y-117070095D01*
X192301810Y-117022476D01*
X138465143Y-115943143D02*
X138512762Y-115895524D01*
X138560381Y-115752667D01*
X138560381Y-115657429D01*
X138512762Y-115514571D01*
X138417524Y-115419333D01*
X138322286Y-115371714D01*
X138131810Y-115324095D01*
X137988952Y-115324095D01*
X137798476Y-115371714D01*
X137703238Y-115419333D01*
X137608000Y-115514571D01*
X137560381Y-115657429D01*
X137560381Y-115752667D01*
X137608000Y-115895524D01*
X137655619Y-115943143D01*
X137560381Y-116800286D02*
X137560381Y-116609809D01*
X137608000Y-116514571D01*
X137655619Y-116466952D01*
X137798476Y-116371714D01*
X137988952Y-116324095D01*
X138369905Y-116324095D01*
X138465143Y-116371714D01*
X138512762Y-116419333D01*
X138560381Y-116514571D01*
X138560381Y-116705048D01*
X138512762Y-116800286D01*
X138465143Y-116847905D01*
X138369905Y-116895524D01*
X138131810Y-116895524D01*
X138036571Y-116847905D01*
X137988952Y-116800286D01*
X137941333Y-116705048D01*
X137941333Y-116514571D01*
X137988952Y-116419333D01*
X138036571Y-116371714D01*
X138131810Y-116324095D01*
X137560381Y-117228857D02*
X137560381Y-117895524D01*
X138560381Y-117466952D01*
X138465143Y-83177143D02*
X138512762Y-83129524D01*
X138560381Y-82986667D01*
X138560381Y-82891429D01*
X138512762Y-82748571D01*
X138417524Y-82653333D01*
X138322286Y-82605714D01*
X138131810Y-82558095D01*
X137988952Y-82558095D01*
X137798476Y-82605714D01*
X137703238Y-82653333D01*
X137608000Y-82748571D01*
X137560381Y-82891429D01*
X137560381Y-82986667D01*
X137608000Y-83129524D01*
X137655619Y-83177143D01*
X137560381Y-84034286D02*
X137560381Y-83843809D01*
X137608000Y-83748571D01*
X137655619Y-83700952D01*
X137798476Y-83605714D01*
X137988952Y-83558095D01*
X138369905Y-83558095D01*
X138465143Y-83605714D01*
X138512762Y-83653333D01*
X138560381Y-83748571D01*
X138560381Y-83939048D01*
X138512762Y-84034286D01*
X138465143Y-84081905D01*
X138369905Y-84129524D01*
X138131810Y-84129524D01*
X138036571Y-84081905D01*
X137988952Y-84034286D01*
X137941333Y-83939048D01*
X137941333Y-83748571D01*
X137988952Y-83653333D01*
X138036571Y-83605714D01*
X138131810Y-83558095D01*
X137988952Y-84700952D02*
X137941333Y-84605714D01*
X137893714Y-84558095D01*
X137798476Y-84510476D01*
X137750857Y-84510476D01*
X137655619Y-84558095D01*
X137608000Y-84605714D01*
X137560381Y-84700952D01*
X137560381Y-84891429D01*
X137608000Y-84986667D01*
X137655619Y-85034286D01*
X137750857Y-85081905D01*
X137798476Y-85081905D01*
X137893714Y-85034286D01*
X137941333Y-84986667D01*
X137988952Y-84891429D01*
X137988952Y-84700952D01*
X138036571Y-84605714D01*
X138084190Y-84558095D01*
X138179429Y-84510476D01*
X138369905Y-84510476D01*
X138465143Y-84558095D01*
X138512762Y-84605714D01*
X138560381Y-84700952D01*
X138560381Y-84891429D01*
X138512762Y-84986667D01*
X138465143Y-85034286D01*
X138369905Y-85081905D01*
X138179429Y-85081905D01*
X138084190Y-85034286D01*
X138036571Y-84986667D01*
X137988952Y-84891429D01*
X192889143Y-82923143D02*
X192936762Y-82875524D01*
X192984381Y-82732667D01*
X192984381Y-82637429D01*
X192936762Y-82494571D01*
X192841524Y-82399333D01*
X192746286Y-82351714D01*
X192555810Y-82304095D01*
X192412952Y-82304095D01*
X192222476Y-82351714D01*
X192127238Y-82399333D01*
X192032000Y-82494571D01*
X191984381Y-82637429D01*
X191984381Y-82732667D01*
X192032000Y-82875524D01*
X192079619Y-82923143D01*
X191984381Y-83780286D02*
X191984381Y-83589809D01*
X192032000Y-83494571D01*
X192079619Y-83446952D01*
X192222476Y-83351714D01*
X192412952Y-83304095D01*
X192793905Y-83304095D01*
X192889143Y-83351714D01*
X192936762Y-83399333D01*
X192984381Y-83494571D01*
X192984381Y-83685048D01*
X192936762Y-83780286D01*
X192889143Y-83827905D01*
X192793905Y-83875524D01*
X192555810Y-83875524D01*
X192460571Y-83827905D01*
X192412952Y-83780286D01*
X192365333Y-83685048D01*
X192365333Y-83494571D01*
X192412952Y-83399333D01*
X192460571Y-83351714D01*
X192555810Y-83304095D01*
X192984381Y-84351714D02*
X192984381Y-84542190D01*
X192936762Y-84637429D01*
X192889143Y-84685048D01*
X192746286Y-84780286D01*
X192555810Y-84827905D01*
X192174857Y-84827905D01*
X192079619Y-84780286D01*
X192032000Y-84732667D01*
X191984381Y-84637429D01*
X191984381Y-84446952D01*
X192032000Y-84351714D01*
X192079619Y-84304095D01*
X192174857Y-84256476D01*
X192412952Y-84256476D01*
X192508190Y-84304095D01*
X192555810Y-84351714D01*
X192603429Y-84446952D01*
X192603429Y-84637429D01*
X192555810Y-84732667D01*
X192508190Y-84780286D01*
X192412952Y-84827905D01*
X189333143Y-61333143D02*
X189380762Y-61285524D01*
X189428381Y-61142667D01*
X189428381Y-61047429D01*
X189380762Y-60904571D01*
X189285524Y-60809333D01*
X189190286Y-60761714D01*
X188999810Y-60714095D01*
X188856952Y-60714095D01*
X188666476Y-60761714D01*
X188571238Y-60809333D01*
X188476000Y-60904571D01*
X188428381Y-61047429D01*
X188428381Y-61142667D01*
X188476000Y-61285524D01*
X188523619Y-61333143D01*
X188428381Y-61666476D02*
X188428381Y-62333143D01*
X189428381Y-61904571D01*
X188428381Y-62904571D02*
X188428381Y-62999810D01*
X188476000Y-63095048D01*
X188523619Y-63142667D01*
X188618857Y-63190286D01*
X188809333Y-63237905D01*
X189047429Y-63237905D01*
X189237905Y-63190286D01*
X189333143Y-63142667D01*
X189380762Y-63095048D01*
X189428381Y-62999810D01*
X189428381Y-62904571D01*
X189380762Y-62809333D01*
X189333143Y-62761714D01*
X189237905Y-62714095D01*
X189047429Y-62666476D01*
X188809333Y-62666476D01*
X188618857Y-62714095D01*
X188523619Y-62761714D01*
X188476000Y-62809333D01*
X188428381Y-62904571D01*
X189618857Y-74017143D02*
X189666476Y-74064762D01*
X189809333Y-74112381D01*
X189904571Y-74112381D01*
X190047429Y-74064762D01*
X190142667Y-73969524D01*
X190190286Y-73874286D01*
X190237905Y-73683810D01*
X190237905Y-73540952D01*
X190190286Y-73350476D01*
X190142667Y-73255238D01*
X190047429Y-73160000D01*
X189904571Y-73112381D01*
X189809333Y-73112381D01*
X189666476Y-73160000D01*
X189618857Y-73207619D01*
X189285524Y-73112381D02*
X188618857Y-73112381D01*
X189047429Y-74112381D01*
X187714095Y-74112381D02*
X188285524Y-74112381D01*
X187999810Y-74112381D02*
X187999810Y-73112381D01*
X188095048Y-73255238D01*
X188190286Y-73350476D01*
X188285524Y-73398095D01*
X189333143Y-82923143D02*
X189380762Y-82875524D01*
X189428381Y-82732667D01*
X189428381Y-82637429D01*
X189380762Y-82494571D01*
X189285524Y-82399333D01*
X189190286Y-82351714D01*
X188999810Y-82304095D01*
X188856952Y-82304095D01*
X188666476Y-82351714D01*
X188571238Y-82399333D01*
X188476000Y-82494571D01*
X188428381Y-82637429D01*
X188428381Y-82732667D01*
X188476000Y-82875524D01*
X188523619Y-82923143D01*
X188428381Y-83256476D02*
X188428381Y-83923143D01*
X189428381Y-83494571D01*
X188523619Y-84256476D02*
X188476000Y-84304095D01*
X188428381Y-84399333D01*
X188428381Y-84637429D01*
X188476000Y-84732667D01*
X188523619Y-84780286D01*
X188618857Y-84827905D01*
X188714095Y-84827905D01*
X188856952Y-84780286D01*
X189428381Y-84208857D01*
X189428381Y-84827905D01*
X189872857Y-96115143D02*
X189920476Y-96162762D01*
X190063333Y-96210381D01*
X190158571Y-96210381D01*
X190301429Y-96162762D01*
X190396667Y-96067524D01*
X190444286Y-95972286D01*
X190491905Y-95781810D01*
X190491905Y-95638952D01*
X190444286Y-95448476D01*
X190396667Y-95353238D01*
X190301429Y-95258000D01*
X190158571Y-95210381D01*
X190063333Y-95210381D01*
X189920476Y-95258000D01*
X189872857Y-95305619D01*
X189539524Y-95210381D02*
X188872857Y-95210381D01*
X189301429Y-96210381D01*
X188587143Y-95210381D02*
X187968095Y-95210381D01*
X188301429Y-95591333D01*
X188158571Y-95591333D01*
X188063333Y-95638952D01*
X188015714Y-95686571D01*
X187968095Y-95781810D01*
X187968095Y-96019905D01*
X188015714Y-96115143D01*
X188063333Y-96162762D01*
X188158571Y-96210381D01*
X188444286Y-96210381D01*
X188539524Y-96162762D01*
X188587143Y-96115143D01*
X189872857Y-107037143D02*
X189920476Y-107084762D01*
X190063333Y-107132381D01*
X190158571Y-107132381D01*
X190301429Y-107084762D01*
X190396667Y-106989524D01*
X190444286Y-106894286D01*
X190491905Y-106703810D01*
X190491905Y-106560952D01*
X190444286Y-106370476D01*
X190396667Y-106275238D01*
X190301429Y-106180000D01*
X190158571Y-106132381D01*
X190063333Y-106132381D01*
X189920476Y-106180000D01*
X189872857Y-106227619D01*
X189539524Y-106132381D02*
X188872857Y-106132381D01*
X189301429Y-107132381D01*
X188063333Y-106465714D02*
X188063333Y-107132381D01*
X188301429Y-106084762D02*
X188539524Y-106799048D01*
X187920476Y-106799048D01*
X189079143Y-115689143D02*
X189126762Y-115641524D01*
X189174381Y-115498667D01*
X189174381Y-115403429D01*
X189126762Y-115260571D01*
X189031524Y-115165333D01*
X188936286Y-115117714D01*
X188745810Y-115070095D01*
X188602952Y-115070095D01*
X188412476Y-115117714D01*
X188317238Y-115165333D01*
X188222000Y-115260571D01*
X188174381Y-115403429D01*
X188174381Y-115498667D01*
X188222000Y-115641524D01*
X188269619Y-115689143D01*
X188174381Y-116022476D02*
X188174381Y-116689143D01*
X189174381Y-116260571D01*
X188174381Y-117546286D02*
X188174381Y-117070095D01*
X188650571Y-117022476D01*
X188602952Y-117070095D01*
X188555333Y-117165333D01*
X188555333Y-117403429D01*
X188602952Y-117498667D01*
X188650571Y-117546286D01*
X188745810Y-117593905D01*
X188983905Y-117593905D01*
X189079143Y-117546286D01*
X189126762Y-117498667D01*
X189174381Y-117403429D01*
X189174381Y-117165333D01*
X189126762Y-117070095D01*
X189079143Y-117022476D01*
X142120857Y-61825143D02*
X142168476Y-61872762D01*
X142311333Y-61920381D01*
X142406571Y-61920381D01*
X142549429Y-61872762D01*
X142644667Y-61777524D01*
X142692286Y-61682286D01*
X142739905Y-61491810D01*
X142739905Y-61348952D01*
X142692286Y-61158476D01*
X142644667Y-61063238D01*
X142549429Y-60968000D01*
X142406571Y-60920381D01*
X142311333Y-60920381D01*
X142168476Y-60968000D01*
X142120857Y-61015619D01*
X141787524Y-60920381D02*
X141120857Y-60920381D01*
X141549429Y-61920381D01*
X140311333Y-60920381D02*
X140501810Y-60920381D01*
X140597048Y-60968000D01*
X140644667Y-61015619D01*
X140739905Y-61158476D01*
X140787524Y-61348952D01*
X140787524Y-61729905D01*
X140739905Y-61825143D01*
X140692286Y-61872762D01*
X140597048Y-61920381D01*
X140406571Y-61920381D01*
X140311333Y-61872762D01*
X140263714Y-61825143D01*
X140216095Y-61729905D01*
X140216095Y-61491810D01*
X140263714Y-61396571D01*
X140311333Y-61348952D01*
X140406571Y-61301333D01*
X140597048Y-61301333D01*
X140692286Y-61348952D01*
X140739905Y-61396571D01*
X140787524Y-61491810D01*
X142120857Y-72493143D02*
X142168476Y-72540762D01*
X142311333Y-72588381D01*
X142406571Y-72588381D01*
X142549429Y-72540762D01*
X142644667Y-72445524D01*
X142692286Y-72350286D01*
X142739905Y-72159810D01*
X142739905Y-72016952D01*
X142692286Y-71826476D01*
X142644667Y-71731238D01*
X142549429Y-71636000D01*
X142406571Y-71588381D01*
X142311333Y-71588381D01*
X142168476Y-71636000D01*
X142120857Y-71683619D01*
X141787524Y-71588381D02*
X141120857Y-71588381D01*
X141549429Y-72588381D01*
X140835143Y-71588381D02*
X140168476Y-71588381D01*
X140597048Y-72588381D01*
X142597143Y-83177143D02*
X142644762Y-83129524D01*
X142692381Y-82986667D01*
X142692381Y-82891429D01*
X142644762Y-82748571D01*
X142549524Y-82653333D01*
X142454286Y-82605714D01*
X142263810Y-82558095D01*
X142120952Y-82558095D01*
X141930476Y-82605714D01*
X141835238Y-82653333D01*
X141740000Y-82748571D01*
X141692381Y-82891429D01*
X141692381Y-82986667D01*
X141740000Y-83129524D01*
X141787619Y-83177143D01*
X141692381Y-83510476D02*
X141692381Y-84177143D01*
X142692381Y-83748571D01*
X142120952Y-84700952D02*
X142073333Y-84605714D01*
X142025714Y-84558095D01*
X141930476Y-84510476D01*
X141882857Y-84510476D01*
X141787619Y-84558095D01*
X141740000Y-84605714D01*
X141692381Y-84700952D01*
X141692381Y-84891429D01*
X141740000Y-84986667D01*
X141787619Y-85034286D01*
X141882857Y-85081905D01*
X141930476Y-85081905D01*
X142025714Y-85034286D01*
X142073333Y-84986667D01*
X142120952Y-84891429D01*
X142120952Y-84700952D01*
X142168571Y-84605714D01*
X142216190Y-84558095D01*
X142311429Y-84510476D01*
X142501905Y-84510476D01*
X142597143Y-84558095D01*
X142644762Y-84605714D01*
X142692381Y-84700952D01*
X142692381Y-84891429D01*
X142644762Y-84986667D01*
X142597143Y-85034286D01*
X142501905Y-85081905D01*
X142311429Y-85081905D01*
X142216190Y-85034286D01*
X142168571Y-84986667D01*
X142120952Y-84891429D01*
X142120857Y-94591143D02*
X142168476Y-94638762D01*
X142311333Y-94686381D01*
X142406571Y-94686381D01*
X142549429Y-94638762D01*
X142644667Y-94543524D01*
X142692286Y-94448286D01*
X142739905Y-94257810D01*
X142739905Y-94114952D01*
X142692286Y-93924476D01*
X142644667Y-93829238D01*
X142549429Y-93734000D01*
X142406571Y-93686381D01*
X142311333Y-93686381D01*
X142168476Y-93734000D01*
X142120857Y-93781619D01*
X141787524Y-93686381D02*
X141120857Y-93686381D01*
X141549429Y-94686381D01*
X140692286Y-94686381D02*
X140501810Y-94686381D01*
X140406571Y-94638762D01*
X140358952Y-94591143D01*
X140263714Y-94448286D01*
X140216095Y-94257810D01*
X140216095Y-93876857D01*
X140263714Y-93781619D01*
X140311333Y-93734000D01*
X140406571Y-93686381D01*
X140597048Y-93686381D01*
X140692286Y-93734000D01*
X140739905Y-93781619D01*
X140787524Y-93876857D01*
X140787524Y-94114952D01*
X140739905Y-94210190D01*
X140692286Y-94257810D01*
X140597048Y-94305429D01*
X140406571Y-94305429D01*
X140311333Y-94257810D01*
X140263714Y-94210190D01*
X140216095Y-94114952D01*
X142120857Y-105259143D02*
X142168476Y-105306762D01*
X142311333Y-105354381D01*
X142406571Y-105354381D01*
X142549429Y-105306762D01*
X142644667Y-105211524D01*
X142692286Y-105116286D01*
X142739905Y-104925810D01*
X142739905Y-104782952D01*
X142692286Y-104592476D01*
X142644667Y-104497238D01*
X142549429Y-104402000D01*
X142406571Y-104354381D01*
X142311333Y-104354381D01*
X142168476Y-104402000D01*
X142120857Y-104449619D01*
X141549429Y-104782952D02*
X141644667Y-104735333D01*
X141692286Y-104687714D01*
X141739905Y-104592476D01*
X141739905Y-104544857D01*
X141692286Y-104449619D01*
X141644667Y-104402000D01*
X141549429Y-104354381D01*
X141358952Y-104354381D01*
X141263714Y-104402000D01*
X141216095Y-104449619D01*
X141168476Y-104544857D01*
X141168476Y-104592476D01*
X141216095Y-104687714D01*
X141263714Y-104735333D01*
X141358952Y-104782952D01*
X141549429Y-104782952D01*
X141644667Y-104830571D01*
X141692286Y-104878190D01*
X141739905Y-104973429D01*
X141739905Y-105163905D01*
X141692286Y-105259143D01*
X141644667Y-105306762D01*
X141549429Y-105354381D01*
X141358952Y-105354381D01*
X141263714Y-105306762D01*
X141216095Y-105259143D01*
X141168476Y-105163905D01*
X141168476Y-104973429D01*
X141216095Y-104878190D01*
X141263714Y-104830571D01*
X141358952Y-104782952D01*
X140549429Y-104354381D02*
X140454190Y-104354381D01*
X140358952Y-104402000D01*
X140311333Y-104449619D01*
X140263714Y-104544857D01*
X140216095Y-104735333D01*
X140216095Y-104973429D01*
X140263714Y-105163905D01*
X140311333Y-105259143D01*
X140358952Y-105306762D01*
X140454190Y-105354381D01*
X140549429Y-105354381D01*
X140644667Y-105306762D01*
X140692286Y-105259143D01*
X140739905Y-105163905D01*
X140787524Y-104973429D01*
X140787524Y-104735333D01*
X140739905Y-104544857D01*
X140692286Y-104449619D01*
X140644667Y-104402000D01*
X140549429Y-104354381D01*
X142597143Y-115943143D02*
X142644762Y-115895524D01*
X142692381Y-115752667D01*
X142692381Y-115657429D01*
X142644762Y-115514571D01*
X142549524Y-115419333D01*
X142454286Y-115371714D01*
X142263810Y-115324095D01*
X142120952Y-115324095D01*
X141930476Y-115371714D01*
X141835238Y-115419333D01*
X141740000Y-115514571D01*
X141692381Y-115657429D01*
X141692381Y-115752667D01*
X141740000Y-115895524D01*
X141787619Y-115943143D01*
X142120952Y-116514571D02*
X142073333Y-116419333D01*
X142025714Y-116371714D01*
X141930476Y-116324095D01*
X141882857Y-116324095D01*
X141787619Y-116371714D01*
X141740000Y-116419333D01*
X141692381Y-116514571D01*
X141692381Y-116705048D01*
X141740000Y-116800286D01*
X141787619Y-116847905D01*
X141882857Y-116895524D01*
X141930476Y-116895524D01*
X142025714Y-116847905D01*
X142073333Y-116800286D01*
X142120952Y-116705048D01*
X142120952Y-116514571D01*
X142168571Y-116419333D01*
X142216190Y-116371714D01*
X142311429Y-116324095D01*
X142501905Y-116324095D01*
X142597143Y-116371714D01*
X142644762Y-116419333D01*
X142692381Y-116514571D01*
X142692381Y-116705048D01*
X142644762Y-116800286D01*
X142597143Y-116847905D01*
X142501905Y-116895524D01*
X142311429Y-116895524D01*
X142216190Y-116847905D01*
X142168571Y-116800286D01*
X142120952Y-116705048D01*
X142692381Y-117847905D02*
X142692381Y-117276476D01*
X142692381Y-117562190D02*
X141692381Y-117562190D01*
X141835238Y-117466952D01*
X141930476Y-117371714D01*
X141978095Y-117276476D01*
X140243143Y-127119143D02*
X140290762Y-127071524D01*
X140338381Y-126928667D01*
X140338381Y-126833429D01*
X140290762Y-126690571D01*
X140195524Y-126595333D01*
X140100286Y-126547714D01*
X139909810Y-126500095D01*
X139766952Y-126500095D01*
X139576476Y-126547714D01*
X139481238Y-126595333D01*
X139386000Y-126690571D01*
X139338381Y-126833429D01*
X139338381Y-126928667D01*
X139386000Y-127071524D01*
X139433619Y-127119143D01*
X139766952Y-127690571D02*
X139719333Y-127595333D01*
X139671714Y-127547714D01*
X139576476Y-127500095D01*
X139528857Y-127500095D01*
X139433619Y-127547714D01*
X139386000Y-127595333D01*
X139338381Y-127690571D01*
X139338381Y-127881048D01*
X139386000Y-127976286D01*
X139433619Y-128023905D01*
X139528857Y-128071524D01*
X139576476Y-128071524D01*
X139671714Y-128023905D01*
X139719333Y-127976286D01*
X139766952Y-127881048D01*
X139766952Y-127690571D01*
X139814571Y-127595333D01*
X139862190Y-127547714D01*
X139957429Y-127500095D01*
X140147905Y-127500095D01*
X140243143Y-127547714D01*
X140290762Y-127595333D01*
X140338381Y-127690571D01*
X140338381Y-127881048D01*
X140290762Y-127976286D01*
X140243143Y-128023905D01*
X140147905Y-128071524D01*
X139957429Y-128071524D01*
X139862190Y-128023905D01*
X139814571Y-127976286D01*
X139766952Y-127881048D01*
X139433619Y-128452476D02*
X139386000Y-128500095D01*
X139338381Y-128595333D01*
X139338381Y-128833429D01*
X139386000Y-128928667D01*
X139433619Y-128976286D01*
X139528857Y-129023905D01*
X139624095Y-129023905D01*
X139766952Y-128976286D01*
X140338381Y-128404857D01*
X140338381Y-129023905D01*
D10*
X169757286Y-51333857D02*
X169400143Y-51083857D01*
X169757286Y-50905285D02*
X169007286Y-50905285D01*
X169007286Y-51191000D01*
X169043000Y-51262428D01*
X169078714Y-51298143D01*
X169150143Y-51333857D01*
X169257286Y-51333857D01*
X169328714Y-51298143D01*
X169364429Y-51262428D01*
X169400143Y-51191000D01*
X169400143Y-50905285D01*
X169078714Y-51619571D02*
X169043000Y-51655285D01*
X169007286Y-51726714D01*
X169007286Y-51905285D01*
X169043000Y-51976714D01*
X169078714Y-52012428D01*
X169150143Y-52048143D01*
X169221571Y-52048143D01*
X169328714Y-52012428D01*
X169757286Y-51583857D01*
X169757286Y-52048143D01*
X169007286Y-52726714D02*
X169007286Y-52369571D01*
X169364429Y-52333857D01*
X169328714Y-52369571D01*
X169293000Y-52441000D01*
X169293000Y-52619571D01*
X169328714Y-52691000D01*
X169364429Y-52726714D01*
X169435857Y-52762429D01*
X169614429Y-52762429D01*
X169685857Y-52726714D01*
X169721571Y-52691000D01*
X169757286Y-52619571D01*
X169757286Y-52441000D01*
X169721571Y-52369571D01*
X169685857Y-52333857D01*
D12*
X167012857Y-47188381D02*
X167346191Y-46712190D01*
X167584286Y-47188381D02*
X167584286Y-46188381D01*
X167203333Y-46188381D01*
X167108095Y-46236000D01*
X167060476Y-46283619D01*
X167012857Y-46378857D01*
X167012857Y-46521714D01*
X167060476Y-46616952D01*
X167108095Y-46664571D01*
X167203333Y-46712190D01*
X167584286Y-46712190D01*
X166631905Y-46283619D02*
X166584286Y-46236000D01*
X166489048Y-46188381D01*
X166250952Y-46188381D01*
X166155714Y-46236000D01*
X166108095Y-46283619D01*
X166060476Y-46378857D01*
X166060476Y-46474095D01*
X166108095Y-46616952D01*
X166679524Y-47188381D01*
X166060476Y-47188381D01*
X165203333Y-46188381D02*
X165393810Y-46188381D01*
X165489048Y-46236000D01*
X165536667Y-46283619D01*
X165631905Y-46426476D01*
X165679524Y-46616952D01*
X165679524Y-46997905D01*
X165631905Y-47093143D01*
X165584286Y-47140762D01*
X165489048Y-47188381D01*
X165298571Y-47188381D01*
X165203333Y-47140762D01*
X165155714Y-47093143D01*
X165108095Y-46997905D01*
X165108095Y-46759810D01*
X165155714Y-46664571D01*
X165203333Y-46616952D01*
X165298571Y-46569333D01*
X165489048Y-46569333D01*
X165584286Y-46616952D01*
X165631905Y-46664571D01*
X165679524Y-46759810D01*
D10*
X166455286Y-51333857D02*
X166098143Y-51083857D01*
X166455286Y-50905285D02*
X165705286Y-50905285D01*
X165705286Y-51191000D01*
X165741000Y-51262428D01*
X165776714Y-51298143D01*
X165848143Y-51333857D01*
X165955286Y-51333857D01*
X166026714Y-51298143D01*
X166062429Y-51262428D01*
X166098143Y-51191000D01*
X166098143Y-50905285D01*
X165776714Y-51619571D02*
X165741000Y-51655285D01*
X165705286Y-51726714D01*
X165705286Y-51905285D01*
X165741000Y-51976714D01*
X165776714Y-52012428D01*
X165848143Y-52048143D01*
X165919571Y-52048143D01*
X166026714Y-52012428D01*
X166455286Y-51583857D01*
X166455286Y-52048143D01*
X165705286Y-52298143D02*
X165705286Y-52798143D01*
X166455286Y-52476714D01*
D12*
X164472857Y-44140381D02*
X164806191Y-43664190D01*
X165044286Y-44140381D02*
X165044286Y-43140381D01*
X164663333Y-43140381D01*
X164568095Y-43188000D01*
X164520476Y-43235619D01*
X164472857Y-43330857D01*
X164472857Y-43473714D01*
X164520476Y-43568952D01*
X164568095Y-43616571D01*
X164663333Y-43664190D01*
X165044286Y-43664190D01*
X164091905Y-43235619D02*
X164044286Y-43188000D01*
X163949048Y-43140381D01*
X163710952Y-43140381D01*
X163615714Y-43188000D01*
X163568095Y-43235619D01*
X163520476Y-43330857D01*
X163520476Y-43426095D01*
X163568095Y-43568952D01*
X164139524Y-44140381D01*
X163520476Y-44140381D01*
X162949048Y-43568952D02*
X163044286Y-43521333D01*
X163091905Y-43473714D01*
X163139524Y-43378476D01*
X163139524Y-43330857D01*
X163091905Y-43235619D01*
X163044286Y-43188000D01*
X162949048Y-43140381D01*
X162758571Y-43140381D01*
X162663333Y-43188000D01*
X162615714Y-43235619D01*
X162568095Y-43330857D01*
X162568095Y-43378476D01*
X162615714Y-43473714D01*
X162663333Y-43521333D01*
X162758571Y-43568952D01*
X162949048Y-43568952D01*
X163044286Y-43616571D01*
X163091905Y-43664190D01*
X163139524Y-43759429D01*
X163139524Y-43949905D01*
X163091905Y-44045143D01*
X163044286Y-44092762D01*
X162949048Y-44140381D01*
X162758571Y-44140381D01*
X162663333Y-44092762D01*
X162615714Y-44045143D01*
X162568095Y-43949905D01*
X162568095Y-43759429D01*
X162615714Y-43664190D01*
X162663333Y-43616571D01*
X162758571Y-43568952D01*
X184284857Y-126781143D02*
X184332476Y-126828762D01*
X184475333Y-126876381D01*
X184570571Y-126876381D01*
X184713429Y-126828762D01*
X184808667Y-126733524D01*
X184856286Y-126638286D01*
X184903905Y-126447810D01*
X184903905Y-126304952D01*
X184856286Y-126114476D01*
X184808667Y-126019238D01*
X184713429Y-125924000D01*
X184570571Y-125876381D01*
X184475333Y-125876381D01*
X184332476Y-125924000D01*
X184284857Y-125971619D01*
X183713429Y-126304952D02*
X183808667Y-126257333D01*
X183856286Y-126209714D01*
X183903905Y-126114476D01*
X183903905Y-126066857D01*
X183856286Y-125971619D01*
X183808667Y-125924000D01*
X183713429Y-125876381D01*
X183522952Y-125876381D01*
X183427714Y-125924000D01*
X183380095Y-125971619D01*
X183332476Y-126066857D01*
X183332476Y-126114476D01*
X183380095Y-126209714D01*
X183427714Y-126257333D01*
X183522952Y-126304952D01*
X183713429Y-126304952D01*
X183808667Y-126352571D01*
X183856286Y-126400190D01*
X183903905Y-126495429D01*
X183903905Y-126685905D01*
X183856286Y-126781143D01*
X183808667Y-126828762D01*
X183713429Y-126876381D01*
X183522952Y-126876381D01*
X183427714Y-126828762D01*
X183380095Y-126781143D01*
X183332476Y-126685905D01*
X183332476Y-126495429D01*
X183380095Y-126400190D01*
X183427714Y-126352571D01*
X183522952Y-126304952D01*
X182999143Y-125876381D02*
X182380095Y-125876381D01*
X182713429Y-126257333D01*
X182570571Y-126257333D01*
X182475333Y-126304952D01*
X182427714Y-126352571D01*
X182380095Y-126447810D01*
X182380095Y-126685905D01*
X182427714Y-126781143D01*
X182475333Y-126828762D01*
X182570571Y-126876381D01*
X182856286Y-126876381D01*
X182951524Y-126828762D01*
X182999143Y-126781143D01*
X123928143Y-97782143D02*
X123975762Y-97734524D01*
X124023381Y-97591667D01*
X124023381Y-97496429D01*
X123975762Y-97353571D01*
X123880524Y-97258333D01*
X123785286Y-97210714D01*
X123594810Y-97163095D01*
X123451952Y-97163095D01*
X123261476Y-97210714D01*
X123166238Y-97258333D01*
X123071000Y-97353571D01*
X123023381Y-97496429D01*
X123023381Y-97591667D01*
X123071000Y-97734524D01*
X123118619Y-97782143D01*
X123451952Y-98353571D02*
X123404333Y-98258333D01*
X123356714Y-98210714D01*
X123261476Y-98163095D01*
X123213857Y-98163095D01*
X123118619Y-98210714D01*
X123071000Y-98258333D01*
X123023381Y-98353571D01*
X123023381Y-98544048D01*
X123071000Y-98639286D01*
X123118619Y-98686905D01*
X123213857Y-98734524D01*
X123261476Y-98734524D01*
X123356714Y-98686905D01*
X123404333Y-98639286D01*
X123451952Y-98544048D01*
X123451952Y-98353571D01*
X123499571Y-98258333D01*
X123547190Y-98210714D01*
X123642429Y-98163095D01*
X123832905Y-98163095D01*
X123928143Y-98210714D01*
X123975762Y-98258333D01*
X124023381Y-98353571D01*
X124023381Y-98544048D01*
X123975762Y-98639286D01*
X123928143Y-98686905D01*
X123832905Y-98734524D01*
X123642429Y-98734524D01*
X123547190Y-98686905D01*
X123499571Y-98639286D01*
X123451952Y-98544048D01*
X123023381Y-99639286D02*
X123023381Y-99163095D01*
X123499571Y-99115476D01*
X123451952Y-99163095D01*
X123404333Y-99258333D01*
X123404333Y-99496429D01*
X123451952Y-99591667D01*
X123499571Y-99639286D01*
X123594810Y-99686905D01*
X123832905Y-99686905D01*
X123928143Y-99639286D01*
X123975762Y-99591667D01*
X124023381Y-99496429D01*
X124023381Y-99258333D01*
X123975762Y-99163095D01*
X123928143Y-99115476D01*
X135807143Y-70477143D02*
X135854762Y-70429524D01*
X135902381Y-70286667D01*
X135902381Y-70191429D01*
X135854762Y-70048571D01*
X135759524Y-69953333D01*
X135664286Y-69905714D01*
X135473810Y-69858095D01*
X135330952Y-69858095D01*
X135140476Y-69905714D01*
X135045238Y-69953333D01*
X134950000Y-70048571D01*
X134902381Y-70191429D01*
X134902381Y-70286667D01*
X134950000Y-70429524D01*
X134997619Y-70477143D01*
X135330952Y-71048571D02*
X135283333Y-70953333D01*
X135235714Y-70905714D01*
X135140476Y-70858095D01*
X135092857Y-70858095D01*
X134997619Y-70905714D01*
X134950000Y-70953333D01*
X134902381Y-71048571D01*
X134902381Y-71239048D01*
X134950000Y-71334286D01*
X134997619Y-71381905D01*
X135092857Y-71429524D01*
X135140476Y-71429524D01*
X135235714Y-71381905D01*
X135283333Y-71334286D01*
X135330952Y-71239048D01*
X135330952Y-71048571D01*
X135378571Y-70953333D01*
X135426190Y-70905714D01*
X135521429Y-70858095D01*
X135711905Y-70858095D01*
X135807143Y-70905714D01*
X135854762Y-70953333D01*
X135902381Y-71048571D01*
X135902381Y-71239048D01*
X135854762Y-71334286D01*
X135807143Y-71381905D01*
X135711905Y-71429524D01*
X135521429Y-71429524D01*
X135426190Y-71381905D01*
X135378571Y-71334286D01*
X135330952Y-71239048D01*
X134902381Y-72286667D02*
X134902381Y-72096190D01*
X134950000Y-72000952D01*
X134997619Y-71953333D01*
X135140476Y-71858095D01*
X135330952Y-71810476D01*
X135711905Y-71810476D01*
X135807143Y-71858095D01*
X135854762Y-71905714D01*
X135902381Y-72000952D01*
X135902381Y-72191429D01*
X135854762Y-72286667D01*
X135807143Y-72334286D01*
X135711905Y-72381905D01*
X135473810Y-72381905D01*
X135378571Y-72334286D01*
X135330952Y-72286667D01*
X135283333Y-72191429D01*
X135283333Y-72000952D01*
X135330952Y-71905714D01*
X135378571Y-71858095D01*
X135473810Y-71810476D01*
X122562857Y-92305143D02*
X122610476Y-92352762D01*
X122753333Y-92400381D01*
X122848571Y-92400381D01*
X122991429Y-92352762D01*
X123086667Y-92257524D01*
X123134286Y-92162286D01*
X123181905Y-91971810D01*
X123181905Y-91828952D01*
X123134286Y-91638476D01*
X123086667Y-91543238D01*
X122991429Y-91448000D01*
X122848571Y-91400381D01*
X122753333Y-91400381D01*
X122610476Y-91448000D01*
X122562857Y-91495619D01*
X121991429Y-91828952D02*
X122086667Y-91781333D01*
X122134286Y-91733714D01*
X122181905Y-91638476D01*
X122181905Y-91590857D01*
X122134286Y-91495619D01*
X122086667Y-91448000D01*
X121991429Y-91400381D01*
X121800952Y-91400381D01*
X121705714Y-91448000D01*
X121658095Y-91495619D01*
X121610476Y-91590857D01*
X121610476Y-91638476D01*
X121658095Y-91733714D01*
X121705714Y-91781333D01*
X121800952Y-91828952D01*
X121991429Y-91828952D01*
X122086667Y-91876571D01*
X122134286Y-91924190D01*
X122181905Y-92019429D01*
X122181905Y-92209905D01*
X122134286Y-92305143D01*
X122086667Y-92352762D01*
X121991429Y-92400381D01*
X121800952Y-92400381D01*
X121705714Y-92352762D01*
X121658095Y-92305143D01*
X121610476Y-92209905D01*
X121610476Y-92019429D01*
X121658095Y-91924190D01*
X121705714Y-91876571D01*
X121800952Y-91828952D01*
X121277143Y-91400381D02*
X120610476Y-91400381D01*
X121039048Y-92400381D01*
X123737666Y-105862381D02*
X124071000Y-105386190D01*
X124309095Y-105862381D02*
X124309095Y-104862381D01*
X123928142Y-104862381D01*
X123832904Y-104910000D01*
X123785285Y-104957619D01*
X123737666Y-105052857D01*
X123737666Y-105195714D01*
X123785285Y-105290952D01*
X123832904Y-105338571D01*
X123928142Y-105386190D01*
X124309095Y-105386190D01*
X123261476Y-105862381D02*
X123071000Y-105862381D01*
X122975761Y-105814762D01*
X122928142Y-105767143D01*
X122832904Y-105624286D01*
X122785285Y-105433810D01*
X122785285Y-105052857D01*
X122832904Y-104957619D01*
X122880523Y-104910000D01*
X122975761Y-104862381D01*
X123166238Y-104862381D01*
X123261476Y-104910000D01*
X123309095Y-104957619D01*
X123356714Y-105052857D01*
X123356714Y-105290952D01*
X123309095Y-105386190D01*
X123261476Y-105433810D01*
X123166238Y-105481429D01*
X122975761Y-105481429D01*
X122880523Y-105433810D01*
X122832904Y-105386190D01*
X122785285Y-105290952D01*
X118054381Y-98163143D02*
X117578190Y-97829809D01*
X118054381Y-97591714D02*
X117054381Y-97591714D01*
X117054381Y-97972667D01*
X117102000Y-98067905D01*
X117149619Y-98115524D01*
X117244857Y-98163143D01*
X117387714Y-98163143D01*
X117482952Y-98115524D01*
X117530571Y-98067905D01*
X117578190Y-97972667D01*
X117578190Y-97591714D01*
X118054381Y-99115524D02*
X118054381Y-98544095D01*
X118054381Y-98829809D02*
X117054381Y-98829809D01*
X117197238Y-98734571D01*
X117292476Y-98639333D01*
X117340095Y-98544095D01*
X118054381Y-100067905D02*
X118054381Y-99496476D01*
X118054381Y-99782190D02*
X117054381Y-99782190D01*
X117197238Y-99686952D01*
X117292476Y-99591714D01*
X117340095Y-99496476D01*
X127515857Y-96718381D02*
X127849191Y-96242190D01*
X128087286Y-96718381D02*
X128087286Y-95718381D01*
X127706333Y-95718381D01*
X127611095Y-95766000D01*
X127563476Y-95813619D01*
X127515857Y-95908857D01*
X127515857Y-96051714D01*
X127563476Y-96146952D01*
X127611095Y-96194571D01*
X127706333Y-96242190D01*
X128087286Y-96242190D01*
X126563476Y-96718381D02*
X127134905Y-96718381D01*
X126849191Y-96718381D02*
X126849191Y-95718381D01*
X126944429Y-95861238D01*
X127039667Y-95956476D01*
X127134905Y-96004095D01*
X125992048Y-96146952D02*
X126087286Y-96099333D01*
X126134905Y-96051714D01*
X126182524Y-95956476D01*
X126182524Y-95908857D01*
X126134905Y-95813619D01*
X126087286Y-95766000D01*
X125992048Y-95718381D01*
X125801571Y-95718381D01*
X125706333Y-95766000D01*
X125658714Y-95813619D01*
X125611095Y-95908857D01*
X125611095Y-95956476D01*
X125658714Y-96051714D01*
X125706333Y-96099333D01*
X125801571Y-96146952D01*
X125992048Y-96146952D01*
X126087286Y-96194571D01*
X126134905Y-96242190D01*
X126182524Y-96337429D01*
X126182524Y-96527905D01*
X126134905Y-96623143D01*
X126087286Y-96670762D01*
X125992048Y-96718381D01*
X125801571Y-96718381D01*
X125706333Y-96670762D01*
X125658714Y-96623143D01*
X125611095Y-96527905D01*
X125611095Y-96337429D01*
X125658714Y-96242190D01*
X125706333Y-96194571D01*
X125801571Y-96146952D01*
X130182857Y-105989381D02*
X130516191Y-105513190D01*
X130754286Y-105989381D02*
X130754286Y-104989381D01*
X130373333Y-104989381D01*
X130278095Y-105037000D01*
X130230476Y-105084619D01*
X130182857Y-105179857D01*
X130182857Y-105322714D01*
X130230476Y-105417952D01*
X130278095Y-105465571D01*
X130373333Y-105513190D01*
X130754286Y-105513190D01*
X129230476Y-105989381D02*
X129801905Y-105989381D01*
X129516191Y-105989381D02*
X129516191Y-104989381D01*
X129611429Y-105132238D01*
X129706667Y-105227476D01*
X129801905Y-105275095D01*
X128897143Y-104989381D02*
X128278095Y-104989381D01*
X128611429Y-105370333D01*
X128468571Y-105370333D01*
X128373333Y-105417952D01*
X128325714Y-105465571D01*
X128278095Y-105560810D01*
X128278095Y-105798905D01*
X128325714Y-105894143D01*
X128373333Y-105941762D01*
X128468571Y-105989381D01*
X128754286Y-105989381D01*
X128849524Y-105941762D01*
X128897143Y-105894143D01*
M02*
