G04 #@! TF.FileFunction,Copper,L4,Bot,Signal*
%FSLAX46Y46*%
G04 Gerber Fmt 4.6, Leading zero omitted, Abs format (unit mm)*
G04 Created by KiCad (PCBNEW 4.0.1-stable) date 30/05/2016 07:23:45*
%MOMM*%
G01*
G04 APERTURE LIST*
%ADD10C,0.100000*%
%ADD11C,1.800000*%
%ADD12R,1.250000X1.000000*%
%ADD13R,1.000000X1.250000*%
%ADD14C,3.500000*%
%ADD15C,2.000000*%
%ADD16C,1.524000*%
%ADD17R,1.300000X1.500000*%
%ADD18R,1.500000X1.300000*%
%ADD19C,6.350000*%
%ADD20R,2.032000X2.032000*%
%ADD21O,2.032000X2.032000*%
%ADD22C,2.540000*%
%ADD23C,1.727200*%
%ADD24R,4.000500X2.700020*%
%ADD25R,3.500120X1.800860*%
%ADD26C,1.998980*%
%ADD27R,1.727200X1.727200*%
%ADD28O,1.727200X1.727200*%
%ADD29O,1.501140X2.499360*%
%ADD30C,0.889000*%
%ADD31C,0.370000*%
%ADD32C,0.780000*%
%ADD33C,0.254000*%
%ADD34C,0.381000*%
%ADD35C,0.910000*%
%ADD36C,0.508000*%
%ADD37C,1.270000*%
%ADD38C,0.310000*%
%ADD39C,1.850000*%
G04 APERTURE END LIST*
D10*
D11*
X161060000Y-130278000D03*
X164060000Y-127278000D03*
D12*
X150050500Y-124730000D03*
X150050500Y-126730000D03*
X161290000Y-127555500D03*
X161290000Y-125555500D03*
D13*
X166671500Y-130619500D03*
X164671500Y-130619500D03*
X171021500Y-128270000D03*
X173021500Y-128270000D03*
X152416000Y-45974000D03*
X154416000Y-45974000D03*
X134636000Y-59436000D03*
X136636000Y-59436000D03*
D12*
X125730000Y-50562000D03*
X125730000Y-52562000D03*
X132842000Y-50562000D03*
X132842000Y-52562000D03*
X122174000Y-50562000D03*
X122174000Y-52562000D03*
D13*
X158766000Y-58166000D03*
X160766000Y-58166000D03*
D14*
X192024000Y-53330000D03*
X192024000Y-45730000D03*
D15*
X184224000Y-49530000D03*
D16*
X124079000Y-93218000D03*
X126619000Y-93218000D03*
X121539000Y-93218000D03*
D13*
X158766000Y-112522000D03*
X160766000Y-112522000D03*
D12*
X157162500Y-73898000D03*
X157162500Y-71898000D03*
X157162500Y-85010500D03*
X157162500Y-83010500D03*
D17*
X175006000Y-53166000D03*
X175006000Y-50466000D03*
D18*
X172640000Y-47879000D03*
X175340000Y-47879000D03*
D17*
X171704000Y-53166000D03*
X171704000Y-50466000D03*
X135382000Y-62150000D03*
X135382000Y-64850000D03*
D18*
X132508000Y-67310000D03*
X135208000Y-67310000D03*
D17*
X132334000Y-62150000D03*
X132334000Y-64850000D03*
D12*
X157607000Y-95805500D03*
X157607000Y-93805500D03*
X157226000Y-106727500D03*
X157226000Y-104727500D03*
D18*
X178070500Y-43942000D03*
X175370500Y-43942000D03*
D17*
X178435000Y-53293000D03*
X178435000Y-50593000D03*
D18*
X177974000Y-47879000D03*
X180674000Y-47879000D03*
D19*
X191008000Y-39116000D03*
X119126000Y-39116000D03*
X191008000Y-131064000D03*
X119126000Y-131064000D03*
D13*
X182864000Y-39814500D03*
X180864000Y-39814500D03*
D20*
X117792500Y-99441000D03*
D21*
X117792500Y-101981000D03*
D12*
X129286000Y-50562000D03*
X129286000Y-52562000D03*
D13*
X158766000Y-79756000D03*
X160766000Y-79756000D03*
X158512000Y-90932000D03*
X160512000Y-90932000D03*
X158766000Y-101854000D03*
X160766000Y-101854000D03*
D12*
X157289500Y-63230000D03*
X157289500Y-61230000D03*
X157289500Y-117459000D03*
X157289500Y-115459000D03*
D13*
X161306000Y-66040000D03*
X163306000Y-66040000D03*
D12*
X152717500Y-128698500D03*
X152717500Y-126698500D03*
D13*
X158766000Y-68834000D03*
X160766000Y-68834000D03*
X161242500Y-76771500D03*
X163242500Y-76771500D03*
X161306000Y-87630000D03*
X163306000Y-87630000D03*
X161242500Y-98488500D03*
X163242500Y-98488500D03*
X161433000Y-109220000D03*
X163433000Y-109220000D03*
X161242500Y-120142000D03*
X163242500Y-120142000D03*
X166227000Y-61976000D03*
X164227000Y-61976000D03*
X166100000Y-72136000D03*
X164100000Y-72136000D03*
X166354000Y-83312000D03*
X164354000Y-83312000D03*
X166354000Y-94234000D03*
X164354000Y-94234000D03*
X166354000Y-105156000D03*
X164354000Y-105156000D03*
X166354000Y-116332000D03*
X164354000Y-116332000D03*
X169148000Y-58166000D03*
X167148000Y-58166000D03*
X169338500Y-68770500D03*
X167338500Y-68770500D03*
X169148000Y-79502000D03*
X167148000Y-79502000D03*
X169084500Y-90741500D03*
X167084500Y-90741500D03*
X169402000Y-101346000D03*
X167402000Y-101346000D03*
X169148000Y-112268000D03*
X167148000Y-112268000D03*
D12*
X173291500Y-63039500D03*
X173291500Y-61039500D03*
X173291500Y-73771000D03*
X173291500Y-71771000D03*
X173355000Y-84756500D03*
X173355000Y-82756500D03*
X173355000Y-95615000D03*
X173355000Y-93615000D03*
X173418500Y-106600500D03*
X173418500Y-104600500D03*
X173482000Y-117332000D03*
X173482000Y-115332000D03*
D13*
X171942000Y-65786000D03*
X169942000Y-65786000D03*
X171942000Y-76454000D03*
X169942000Y-76454000D03*
X171942000Y-87376000D03*
X169942000Y-87376000D03*
X171942000Y-98552000D03*
X169942000Y-98552000D03*
X171942000Y-109474000D03*
X169942000Y-109474000D03*
X171942000Y-120142000D03*
X169942000Y-120142000D03*
D16*
X159004000Y-45466000D03*
X156464000Y-45466000D03*
X146304000Y-45466000D03*
X146304000Y-53086000D03*
X159004000Y-53086000D03*
X156464000Y-53086000D03*
X140208000Y-65786000D03*
X142748000Y-65786000D03*
X152908000Y-65786000D03*
X152908000Y-58166000D03*
X140208000Y-58166000D03*
X142748000Y-58166000D03*
X140208000Y-76708000D03*
X142748000Y-76708000D03*
X152908000Y-76708000D03*
X152908000Y-69088000D03*
X140208000Y-69088000D03*
X142748000Y-69088000D03*
X140208000Y-87630000D03*
X142748000Y-87630000D03*
X152908000Y-87630000D03*
X152908000Y-80010000D03*
X140208000Y-80010000D03*
X142748000Y-80010000D03*
X140208000Y-98552000D03*
X142748000Y-98552000D03*
X152908000Y-98552000D03*
X152908000Y-90932000D03*
X140208000Y-90932000D03*
X142748000Y-90932000D03*
X140208000Y-109474000D03*
X142748000Y-109474000D03*
X152908000Y-109474000D03*
X152908000Y-101854000D03*
X140208000Y-101854000D03*
X142748000Y-101854000D03*
X140208000Y-120396000D03*
X142748000Y-120396000D03*
X152908000Y-120396000D03*
X152908000Y-112776000D03*
X140208000Y-112776000D03*
X142748000Y-112776000D03*
X140144500Y-131191000D03*
X142684500Y-131191000D03*
X152844500Y-131191000D03*
X152844500Y-123571000D03*
X140144500Y-123571000D03*
X142684500Y-123571000D03*
X190500000Y-58166000D03*
X187960000Y-58166000D03*
X177800000Y-58166000D03*
X177800000Y-65786000D03*
X190500000Y-65786000D03*
X187960000Y-65786000D03*
X190500000Y-69088000D03*
X187960000Y-69088000D03*
X177800000Y-69088000D03*
X177800000Y-76708000D03*
X190500000Y-76708000D03*
X187960000Y-76708000D03*
X190500000Y-80010000D03*
X187960000Y-80010000D03*
X177800000Y-80010000D03*
X177800000Y-87630000D03*
X190500000Y-87630000D03*
X187960000Y-87630000D03*
X190500000Y-90932000D03*
X187960000Y-90932000D03*
X177800000Y-90932000D03*
X177800000Y-98552000D03*
X190500000Y-98552000D03*
X187960000Y-98552000D03*
X190500000Y-101854000D03*
X187960000Y-101854000D03*
X177800000Y-101854000D03*
X177800000Y-109474000D03*
X190500000Y-109474000D03*
X187960000Y-109474000D03*
X190500000Y-112522000D03*
X187960000Y-112522000D03*
X177800000Y-112522000D03*
X177800000Y-120142000D03*
X190500000Y-120142000D03*
X187960000Y-120142000D03*
D20*
X118046500Y-49847500D03*
D21*
X118046500Y-47307500D03*
D20*
X136461500Y-42227500D03*
D21*
X139001500Y-42227500D03*
D22*
X119984000Y-59436000D03*
D23*
X123984000Y-59436000D03*
D22*
X127984000Y-59436000D03*
D23*
X131984000Y-59436000D03*
D24*
X157050740Y-49276000D03*
X149273260Y-49276000D03*
D25*
X143207740Y-52578000D03*
X137208260Y-52578000D03*
D13*
X147304000Y-58166000D03*
X145304000Y-58166000D03*
D26*
X155956000Y-58166000D03*
X158496000Y-65786000D03*
X155956000Y-69088000D03*
X158496000Y-76708000D03*
X155956000Y-80010000D03*
X158496000Y-87630000D03*
X155956000Y-90932000D03*
X158496000Y-98552000D03*
X155956000Y-101854000D03*
X158496000Y-109474000D03*
X155956000Y-112776000D03*
X158496000Y-120396000D03*
X161544000Y-63500000D03*
X169164000Y-60960000D03*
X161544000Y-73660000D03*
X169164000Y-71120000D03*
X161544000Y-84836000D03*
X169164000Y-82296000D03*
X161544000Y-95758000D03*
X169164000Y-93218000D03*
X161544000Y-106680000D03*
X169164000Y-104140000D03*
X161544000Y-117602000D03*
X169164000Y-115062000D03*
X172212000Y-58166000D03*
X174752000Y-65786000D03*
X172212000Y-69088000D03*
X174752000Y-76708000D03*
X172212000Y-80010000D03*
X174752000Y-87630000D03*
X172212000Y-90932000D03*
X174752000Y-98552000D03*
X172212000Y-101854000D03*
X174752000Y-109474000D03*
X172212000Y-112522000D03*
X174752000Y-120142000D03*
X143507460Y-47498000D03*
X136908540Y-47498000D03*
D12*
X190754000Y-62976000D03*
X190754000Y-60976000D03*
X190500000Y-117332000D03*
X190500000Y-115332000D03*
X140208000Y-115586000D03*
X140208000Y-117586000D03*
X140208000Y-82820000D03*
X140208000Y-84820000D03*
X190754000Y-84566000D03*
X190754000Y-82566000D03*
X187198000Y-62976000D03*
X187198000Y-60976000D03*
D13*
X189976000Y-71882000D03*
X187976000Y-71882000D03*
D12*
X187198000Y-84566000D03*
X187198000Y-82566000D03*
D13*
X190230000Y-93726000D03*
X188230000Y-93726000D03*
X190230000Y-104648000D03*
X188230000Y-104648000D03*
D12*
X186944000Y-117332000D03*
X186944000Y-115332000D03*
D13*
X140478000Y-63246000D03*
X142478000Y-63246000D03*
X140478000Y-73914000D03*
X142478000Y-73914000D03*
D12*
X143764000Y-82820000D03*
X143764000Y-84820000D03*
D13*
X140478000Y-95758000D03*
X142478000Y-95758000D03*
X140478000Y-106680000D03*
X142478000Y-106680000D03*
D12*
X143764000Y-115586000D03*
X143764000Y-117586000D03*
X141986000Y-126762000D03*
X141986000Y-128762000D03*
D17*
X168211500Y-53166000D03*
X168211500Y-50466000D03*
X165163500Y-53928000D03*
X165163500Y-51228000D03*
X164846000Y-48594000D03*
X164846000Y-45894000D03*
D13*
X184642000Y-128524000D03*
X182642000Y-128524000D03*
D16*
X184848500Y-123317000D03*
X182308500Y-123317000D03*
X172148500Y-123317000D03*
X172148500Y-130937000D03*
X184848500Y-130937000D03*
X182308500Y-130937000D03*
D12*
X133350000Y-72120000D03*
X133350000Y-70120000D03*
X181610000Y-51070000D03*
X181610000Y-53070000D03*
X162115500Y-51832000D03*
X162115500Y-53832000D03*
D20*
X161925000Y-46355000D03*
D21*
X161925000Y-48895000D03*
D17*
X130746500Y-128063000D03*
X130746500Y-130763000D03*
X134937500Y-130636000D03*
X134937500Y-127936000D03*
D27*
X121666000Y-124206000D03*
D28*
X119126000Y-124206000D03*
X121666000Y-121666000D03*
X119126000Y-121666000D03*
X121666000Y-119126000D03*
X119126000Y-119126000D03*
X121666000Y-116586000D03*
X119126000Y-116586000D03*
X121666000Y-114046000D03*
X119126000Y-114046000D03*
X121666000Y-111506000D03*
X119126000Y-111506000D03*
X121666000Y-108966000D03*
X119126000Y-108966000D03*
D29*
X125730000Y-66548000D03*
X128270000Y-66548000D03*
X123190000Y-66548000D03*
D18*
X122030500Y-62992000D03*
X124730500Y-62992000D03*
D11*
X158662500Y-124738000D03*
X155662500Y-127738000D03*
D13*
X166163500Y-124333000D03*
X164163500Y-124333000D03*
X171910500Y-125666500D03*
X173910500Y-125666500D03*
D11*
X166457500Y-127674500D03*
X169457500Y-124674500D03*
D30*
X127762000Y-77152500D03*
X153416000Y-125285500D03*
X150114000Y-128206500D03*
X175450500Y-125730000D03*
X174752000Y-128270000D03*
X162179000Y-58166000D03*
X165671500Y-58229500D03*
X168465500Y-65849500D03*
X164846000Y-66103500D03*
X162242500Y-68834000D03*
X165925500Y-68580000D03*
X168465500Y-76454000D03*
X164719000Y-76835000D03*
X165608000Y-79565500D03*
X168529000Y-87439500D03*
X164782500Y-87566500D03*
X162306000Y-79819500D03*
X164846000Y-98425000D03*
X168529000Y-98552000D03*
X165671500Y-90741500D03*
X161988500Y-91059000D03*
X162242500Y-101854000D03*
X165925500Y-101346000D03*
X168529000Y-109347000D03*
X164973000Y-109156500D03*
X165544500Y-112268000D03*
X162242500Y-112522000D03*
X168465500Y-120269000D03*
X164846000Y-120142000D03*
X169989500Y-53149500D03*
X134937500Y-132524500D03*
X159004000Y-47244000D03*
X133858000Y-62230000D03*
X131064000Y-50562000D03*
X127508000Y-50562000D03*
X123952000Y-50562000D03*
X143256000Y-50292000D03*
X176784000Y-53166000D03*
X149860000Y-59944000D03*
X125857000Y-131826000D03*
X128397000Y-129794000D03*
X130619500Y-70040500D03*
X120777000Y-69469000D03*
X128714500Y-128016000D03*
D31*
X152717500Y-126698500D02*
X152717500Y-125984000D01*
X152717500Y-125984000D02*
X153416000Y-125285500D01*
X150050500Y-126730000D02*
X150050500Y-128143000D01*
X150050500Y-128143000D02*
X150114000Y-128206500D01*
X173910500Y-125666500D02*
X175387000Y-125666500D01*
X175387000Y-125666500D02*
X175450500Y-125730000D01*
X173021500Y-128270000D02*
X174752000Y-128270000D01*
X160766000Y-58166000D02*
X162179000Y-58166000D01*
X167148000Y-58166000D02*
X165735000Y-58166000D01*
X165735000Y-58166000D02*
X165671500Y-58229500D01*
X169942000Y-65786000D02*
X168529000Y-65786000D01*
X168529000Y-65786000D02*
X168465500Y-65849500D01*
X163306000Y-66040000D02*
X164782500Y-66040000D01*
X164782500Y-66040000D02*
X164846000Y-66103500D01*
X160766000Y-68834000D02*
X162242500Y-68834000D01*
X167402000Y-68580000D02*
X165925500Y-68580000D01*
X169942000Y-76454000D02*
X168465500Y-76454000D01*
X163242500Y-76771500D02*
X164655500Y-76771500D01*
X164655500Y-76771500D02*
X164719000Y-76835000D01*
X167148000Y-79502000D02*
X165671500Y-79502000D01*
X165671500Y-79502000D02*
X165608000Y-79565500D01*
X169942000Y-87376000D02*
X168592500Y-87376000D01*
X168592500Y-87376000D02*
X168529000Y-87439500D01*
X163306000Y-87630000D02*
X164719000Y-87630000D01*
X164719000Y-87630000D02*
X164782500Y-87566500D01*
X160766000Y-79756000D02*
X162242500Y-79756000D01*
X162242500Y-79756000D02*
X162306000Y-79819500D01*
X163242500Y-98488500D02*
X164782500Y-98488500D01*
X164782500Y-98488500D02*
X164846000Y-98425000D01*
X169942000Y-98552000D02*
X168529000Y-98552000D01*
X167084500Y-90741500D02*
X165671500Y-90741500D01*
X160512000Y-90932000D02*
X161861500Y-90932000D01*
X161861500Y-90932000D02*
X161988500Y-91059000D01*
X160766000Y-101854000D02*
X162242500Y-101854000D01*
X167402000Y-101346000D02*
X165925500Y-101346000D01*
X169942000Y-109474000D02*
X168656000Y-109474000D01*
X168656000Y-109474000D02*
X168529000Y-109347000D01*
X163433000Y-109220000D02*
X164909500Y-109220000D01*
X164909500Y-109220000D02*
X164973000Y-109156500D01*
X167148000Y-112268000D02*
X165544500Y-112268000D01*
X160766000Y-112522000D02*
X162242500Y-112522000D01*
X169942000Y-120142000D02*
X168592500Y-120142000D01*
X168592500Y-120142000D02*
X168465500Y-120269000D01*
X163242500Y-120142000D02*
X164846000Y-120142000D01*
D32*
X162115500Y-53832000D02*
X161655000Y-53832000D01*
X161655000Y-53832000D02*
X160528000Y-52705000D01*
X160528000Y-51244500D02*
X158559500Y-49276000D01*
X160528000Y-52705000D02*
X160528000Y-51244500D01*
X158559500Y-49276000D02*
X157050740Y-49276000D01*
X162115500Y-53832000D02*
X165067500Y-53832000D01*
X165067500Y-53832000D02*
X165163500Y-53928000D01*
D31*
X171704000Y-53166000D02*
X170006000Y-53166000D01*
X170006000Y-53166000D02*
X169989500Y-53149500D01*
D33*
X134937500Y-130636000D02*
X134937500Y-132524500D01*
D32*
X159004000Y-47244000D02*
X160147000Y-47244000D01*
D34*
X157050740Y-49197260D02*
X159004000Y-47244000D01*
D32*
X160147000Y-47244000D02*
X161036000Y-46355000D01*
X161036000Y-46355000D02*
X161925000Y-46355000D01*
D31*
X178435000Y-53293000D02*
X181387000Y-53293000D01*
D35*
X181387000Y-53293000D02*
X181610000Y-53070000D01*
D34*
X135302000Y-62230000D02*
X133858000Y-62230000D01*
X133778000Y-62150000D02*
X133858000Y-62230000D01*
X133778000Y-62150000D02*
X132334000Y-62150000D01*
X135302000Y-62230000D02*
X135382000Y-62150000D01*
D36*
X140208000Y-65786000D02*
X140208000Y-63516000D01*
X140208000Y-63516000D02*
X140478000Y-63246000D01*
X140478000Y-63246000D02*
X140478000Y-63484000D01*
X140208000Y-63516000D02*
X140478000Y-63246000D01*
X140208000Y-84820000D02*
X140986000Y-84820000D01*
X142986000Y-82820000D02*
X143764000Y-82820000D01*
X140986000Y-84820000D02*
X142986000Y-82820000D01*
X140208000Y-84820000D02*
X140208000Y-87630000D01*
X140478000Y-95758000D02*
X140478000Y-98282000D01*
X140478000Y-98282000D02*
X140208000Y-98552000D01*
X140478000Y-73914000D02*
X140478000Y-76438000D01*
X140478000Y-76438000D02*
X140208000Y-76708000D01*
X140208000Y-109474000D02*
X140208000Y-106950000D01*
X140208000Y-106950000D02*
X140478000Y-106680000D01*
X140208000Y-117586000D02*
X141764000Y-117586000D01*
X141764000Y-117586000D02*
X143764000Y-115586000D01*
X140208000Y-117586000D02*
X140208000Y-120396000D01*
X190230000Y-93726000D02*
X190230000Y-91202000D01*
X190230000Y-91202000D02*
X190500000Y-90932000D01*
X190500000Y-115332000D02*
X190500000Y-112522000D01*
X186944000Y-117332000D02*
X188500000Y-117332000D01*
X188500000Y-117332000D02*
X190500000Y-115332000D01*
X190230000Y-104648000D02*
X190230000Y-102124000D01*
X190230000Y-102124000D02*
X190500000Y-101854000D01*
X189976000Y-71882000D02*
X189976000Y-69612000D01*
X189976000Y-69612000D02*
X190500000Y-69088000D01*
X190754000Y-60976000D02*
X189198000Y-60976000D01*
X189198000Y-60976000D02*
X187198000Y-62976000D01*
X190754000Y-60976000D02*
X190754000Y-58420000D01*
X190754000Y-58420000D02*
X190500000Y-58166000D01*
X187198000Y-84566000D02*
X188754000Y-84566000D01*
X188754000Y-84566000D02*
X190754000Y-82566000D01*
X190754000Y-82566000D02*
X190754000Y-80264000D01*
X190754000Y-80264000D02*
X190500000Y-80010000D01*
D32*
X129286000Y-50562000D02*
X131064000Y-50562000D01*
X131064000Y-50562000D02*
X132842000Y-50562000D01*
X125730000Y-50562000D02*
X127508000Y-50562000D01*
X127508000Y-50562000D02*
X129286000Y-50562000D01*
X122174000Y-50562000D02*
X123952000Y-50562000D01*
X123952000Y-50562000D02*
X125730000Y-50562000D01*
D37*
X143207740Y-50340260D02*
X143256000Y-50292000D01*
X143207740Y-52578000D02*
X143207740Y-50340260D01*
D31*
X176784000Y-53166000D02*
X178054000Y-53166000D01*
X175514000Y-53166000D02*
X176784000Y-53166000D01*
X173990000Y-53166000D02*
X175514000Y-53166000D01*
X172466000Y-53166000D02*
X173990000Y-53166000D01*
D34*
X157480000Y-49276000D02*
X157050740Y-49276000D01*
X157050740Y-49276000D02*
X157050740Y-49197260D01*
D32*
X154416000Y-46641260D02*
X157050740Y-49276000D01*
X154416000Y-45974000D02*
X154416000Y-46641260D01*
D34*
X184642000Y-131048000D02*
X184912000Y-131318000D01*
X184642000Y-128524000D02*
X184642000Y-131048000D01*
X141986000Y-125984000D02*
X140208000Y-124206000D01*
X141986000Y-126762000D02*
X141986000Y-125984000D01*
D36*
X148082000Y-58166000D02*
X149860000Y-59944000D01*
X147304000Y-58166000D02*
X148082000Y-58166000D01*
D35*
X161925000Y-46355000D02*
X161925000Y-45974000D01*
D31*
X152717500Y-128698500D02*
X154702000Y-128698500D01*
X154702000Y-128698500D02*
X155662500Y-127738000D01*
X164671500Y-130619500D02*
X161401500Y-130619500D01*
X161401500Y-130619500D02*
X161060000Y-130278000D01*
X161060000Y-130278000D02*
X161060000Y-127785500D01*
X161060000Y-127785500D02*
X161290000Y-127555500D01*
D33*
X126920000Y-130763000D02*
X130746500Y-130763000D01*
X125857000Y-131826000D02*
X126920000Y-130763000D01*
D32*
X131984000Y-59436000D02*
X134636000Y-59436000D01*
D37*
X122174000Y-52562000D02*
X122174000Y-55372000D01*
X122174000Y-55372000D02*
X121412000Y-55372000D01*
X125730000Y-52562000D02*
X125730000Y-55372000D01*
X125730000Y-55372000D02*
X125730000Y-55118000D01*
X125730000Y-55118000D02*
X125730000Y-55372000D01*
X129286000Y-52562000D02*
X129286000Y-55372000D01*
X129286000Y-55372000D02*
X129286000Y-54864000D01*
X129286000Y-54864000D02*
X129286000Y-55372000D01*
X132842000Y-52562000D02*
X132842000Y-55372000D01*
X132842000Y-55372000D02*
X132842000Y-54864000D01*
X132842000Y-54864000D02*
X132842000Y-55372000D01*
X119984000Y-59436000D02*
X119984000Y-56800000D01*
X121412000Y-55372000D02*
X125730000Y-55372000D01*
X125730000Y-55372000D02*
X129286000Y-55372000D01*
X129286000Y-55372000D02*
X132842000Y-55372000D01*
X119984000Y-56800000D02*
X121412000Y-55372000D01*
X134414260Y-55372000D02*
X134874000Y-54912260D01*
X134874000Y-54912260D02*
X137208260Y-52578000D01*
X132842000Y-55372000D02*
X134414260Y-55372000D01*
X137208260Y-47797720D02*
X136908540Y-47498000D01*
X137208260Y-52578000D02*
X137208260Y-47797720D01*
D31*
X161544000Y-84836000D02*
X162830000Y-84836000D01*
X162830000Y-84836000D02*
X164354000Y-83312000D01*
X158496000Y-87630000D02*
X161306000Y-87630000D01*
X157162500Y-85010500D02*
X157162500Y-86296500D01*
X157162500Y-86296500D02*
X158496000Y-87630000D01*
X166457500Y-127674500D02*
X170426000Y-127674500D01*
X170426000Y-127674500D02*
X171021500Y-128270000D01*
X166457500Y-127674500D02*
X166457500Y-130405500D01*
X166457500Y-130405500D02*
X166671500Y-130619500D01*
X164163500Y-124333000D02*
X164163500Y-127174500D01*
X164163500Y-127174500D02*
X164060000Y-127278000D01*
D33*
X125349000Y-126746000D02*
X128397000Y-129794000D01*
X119253000Y-126746000D02*
X125349000Y-126746000D01*
X117348000Y-124841000D02*
X119253000Y-126746000D01*
X117348000Y-117856000D02*
X117348000Y-124841000D01*
X118618000Y-116586000D02*
X117348000Y-117856000D01*
X119126000Y-116586000D02*
X118618000Y-116586000D01*
D31*
X175370500Y-43942000D02*
X175370500Y-39814500D01*
X175370500Y-39814500D02*
X175260000Y-39925000D01*
X175260000Y-39925000D02*
X175260000Y-39941500D01*
X175260000Y-39941500D02*
X175260000Y-39814500D01*
D38*
X146304000Y-45466000D02*
X146304000Y-45085000D01*
D31*
X146304000Y-45085000D02*
X151574500Y-39814500D01*
X151574500Y-39814500D02*
X175260000Y-39814500D01*
X175260000Y-39814500D02*
X180864000Y-39814500D01*
X157289500Y-117459000D02*
X157289500Y-119189500D01*
X157289500Y-119189500D02*
X158496000Y-120396000D01*
X161544000Y-117602000D02*
X163084000Y-117602000D01*
X163084000Y-117602000D02*
X164354000Y-116332000D01*
X158496000Y-120396000D02*
X160988500Y-120396000D01*
X160988500Y-120396000D02*
X161242500Y-120142000D01*
X155956000Y-80010000D02*
X155956000Y-81804000D01*
X155956000Y-81804000D02*
X157162500Y-83010500D01*
X155956000Y-80010000D02*
X158512000Y-80010000D01*
X158512000Y-80010000D02*
X158766000Y-79756000D01*
X155956000Y-90932000D02*
X158512000Y-90932000D01*
X157607000Y-93805500D02*
X157607000Y-92583000D01*
X157607000Y-92583000D02*
X155956000Y-90932000D01*
X157226000Y-104727500D02*
X157226000Y-103124000D01*
X157226000Y-103124000D02*
X155956000Y-101854000D01*
X155956000Y-101854000D02*
X158766000Y-101854000D01*
X161544000Y-63500000D02*
X162703000Y-63500000D01*
X162703000Y-63500000D02*
X164227000Y-61976000D01*
X157289500Y-63230000D02*
X157289500Y-64579500D01*
X157289500Y-64579500D02*
X158496000Y-65786000D01*
X158496000Y-65786000D02*
X161052000Y-65786000D01*
X161052000Y-65786000D02*
X161306000Y-66040000D01*
X182864000Y-39814500D02*
X182864000Y-43291000D01*
X182864000Y-43291000D02*
X184224000Y-44651000D01*
X184224000Y-44651000D02*
X184224000Y-49530000D01*
X132508000Y-67310000D02*
X132508000Y-68152000D01*
X132508000Y-68152000D02*
X130619500Y-70040500D01*
D34*
X132334000Y-64850000D02*
X132334000Y-67136000D01*
X132334000Y-67136000D02*
X132508000Y-67310000D01*
X124079000Y-93218000D02*
X124079000Y-92837000D01*
D31*
X122030500Y-62992000D02*
X121793000Y-62992000D01*
X121793000Y-62992000D02*
X120777000Y-64008000D01*
X120777000Y-64008000D02*
X120777000Y-69469000D01*
X155956000Y-58166000D02*
X155956000Y-59896500D01*
X155956000Y-59896500D02*
X157289500Y-61230000D01*
X155956000Y-58166000D02*
X158766000Y-58166000D01*
X155956000Y-69088000D02*
X155956000Y-70691500D01*
X155956000Y-70691500D02*
X157162500Y-71898000D01*
X155956000Y-69088000D02*
X158512000Y-69088000D01*
X158512000Y-69088000D02*
X158766000Y-68834000D01*
X155956000Y-112776000D02*
X155956000Y-114125500D01*
X155956000Y-114125500D02*
X157289500Y-115459000D01*
X155956000Y-112776000D02*
X158512000Y-112776000D01*
X158512000Y-112776000D02*
X158766000Y-112522000D01*
X161544000Y-73660000D02*
X162576000Y-73660000D01*
X162576000Y-73660000D02*
X164100000Y-72136000D01*
X158496000Y-76708000D02*
X161179000Y-76708000D01*
X161179000Y-76708000D02*
X161242500Y-76771500D01*
X157162500Y-73898000D02*
X157162500Y-75374500D01*
X157162500Y-75374500D02*
X158496000Y-76708000D01*
X161544000Y-95758000D02*
X162830000Y-95758000D01*
X162830000Y-95758000D02*
X164354000Y-94234000D01*
X158496000Y-98552000D02*
X161179000Y-98552000D01*
X161179000Y-98552000D02*
X161242500Y-98488500D01*
X157607000Y-95805500D02*
X157607000Y-97663000D01*
X157607000Y-97663000D02*
X158496000Y-98552000D01*
X161433000Y-109220000D02*
X158750000Y-109220000D01*
X158750000Y-109220000D02*
X158496000Y-109474000D01*
X161544000Y-106680000D02*
X162830000Y-106680000D01*
X162830000Y-106680000D02*
X164354000Y-105156000D01*
X157226000Y-106727500D02*
X157226000Y-108204000D01*
X157226000Y-108204000D02*
X158496000Y-109474000D01*
X173291500Y-61039500D02*
X173291500Y-59245500D01*
X173291500Y-59245500D02*
X172212000Y-58166000D01*
X169148000Y-58166000D02*
X172212000Y-58166000D01*
X166227000Y-61976000D02*
X168148000Y-61976000D01*
X168148000Y-61976000D02*
X169164000Y-60960000D01*
X172212000Y-69088000D02*
X172212000Y-70691500D01*
X172212000Y-70691500D02*
X173291500Y-71771000D01*
X169402000Y-68580000D02*
X171704000Y-68580000D01*
X171704000Y-68580000D02*
X172212000Y-69088000D01*
X166100000Y-72136000D02*
X168148000Y-72136000D01*
X168148000Y-72136000D02*
X169164000Y-71120000D01*
X166354000Y-83312000D02*
X168148000Y-83312000D01*
X168148000Y-83312000D02*
X169164000Y-82296000D01*
X169148000Y-79502000D02*
X171704000Y-79502000D01*
X171704000Y-79502000D02*
X172212000Y-80010000D01*
X172212000Y-80010000D02*
X172212000Y-81613500D01*
X172212000Y-81613500D02*
X173355000Y-82756500D01*
X173355000Y-93615000D02*
X173355000Y-92075000D01*
X173355000Y-92075000D02*
X172212000Y-90932000D01*
X169084500Y-90741500D02*
X172021500Y-90741500D01*
X172021500Y-90741500D02*
X172212000Y-90932000D01*
X166354000Y-94234000D02*
X168148000Y-94234000D01*
X168148000Y-94234000D02*
X169164000Y-93218000D01*
X166354000Y-105156000D02*
X168148000Y-105156000D01*
X168148000Y-105156000D02*
X169164000Y-104140000D01*
X169402000Y-101346000D02*
X171704000Y-101346000D01*
X171704000Y-101346000D02*
X172212000Y-101854000D01*
X172212000Y-101854000D02*
X172212000Y-103394000D01*
X172212000Y-103394000D02*
X173418500Y-104600500D01*
X169164000Y-115062000D02*
X169164000Y-112284000D01*
X169164000Y-112284000D02*
X169148000Y-112268000D01*
X172212000Y-112522000D02*
X172212000Y-114062000D01*
X172212000Y-114062000D02*
X173482000Y-115332000D01*
X166354000Y-116332000D02*
X167894000Y-116332000D01*
X167894000Y-116332000D02*
X169164000Y-115062000D01*
X171942000Y-65786000D02*
X174752000Y-65786000D01*
X173291500Y-63039500D02*
X173291500Y-64325500D01*
X173291500Y-64325500D02*
X174752000Y-65786000D01*
X171942000Y-76454000D02*
X174498000Y-76454000D01*
X174498000Y-76454000D02*
X174752000Y-76708000D01*
X173291500Y-73771000D02*
X173291500Y-75247500D01*
X173291500Y-75247500D02*
X174752000Y-76708000D01*
X173355000Y-84756500D02*
X173355000Y-86233000D01*
X173355000Y-86233000D02*
X174752000Y-87630000D01*
X171942000Y-87376000D02*
X174498000Y-87376000D01*
X174498000Y-87376000D02*
X174752000Y-87630000D01*
X171942000Y-98552000D02*
X174752000Y-98552000D01*
X173355000Y-95615000D02*
X173355000Y-97155000D01*
X173355000Y-97155000D02*
X174752000Y-98552000D01*
X173418500Y-106600500D02*
X173418500Y-108140500D01*
X173418500Y-108140500D02*
X174752000Y-109474000D01*
X171942000Y-109474000D02*
X174752000Y-109474000D01*
X171942000Y-120142000D02*
X174752000Y-120142000D01*
X173482000Y-117332000D02*
X173482000Y-118872000D01*
X173482000Y-118872000D02*
X174752000Y-120142000D01*
D33*
X170878500Y-67437000D02*
X151511000Y-67437000D01*
X178752500Y-67310000D02*
X178625500Y-67437000D01*
X178625500Y-67437000D02*
X170878500Y-67437000D01*
X182562500Y-63500000D02*
X178752500Y-67310000D01*
X151511000Y-67437000D02*
X149860000Y-65786000D01*
X119126000Y-111506000D02*
X118872000Y-111506000D01*
X118872000Y-111506000D02*
X117538500Y-110172500D01*
X117538500Y-110172500D02*
X117538500Y-107886500D01*
X117538500Y-107886500D02*
X118491000Y-106934000D01*
X118491000Y-106934000D02*
X124396500Y-106934000D01*
X124396500Y-106934000D02*
X127190500Y-109728000D01*
X127190500Y-109728000D02*
X132334000Y-109728000D01*
X137160000Y-83820000D02*
X137160000Y-74930000D01*
X133096000Y-87884000D02*
X137160000Y-83820000D01*
X133096000Y-107188000D02*
X133096000Y-87884000D01*
X133096000Y-107188000D02*
X133096000Y-108966000D01*
X132842000Y-109220000D02*
X133096000Y-108966000D01*
X132334000Y-109728000D02*
X132842000Y-109220000D01*
X137160000Y-74930000D02*
X137160000Y-67310000D01*
X142478000Y-63246000D02*
X142478000Y-65516000D01*
X142478000Y-65516000D02*
X142748000Y-65786000D01*
X187198000Y-60976000D02*
X187198000Y-58928000D01*
X187198000Y-58928000D02*
X187960000Y-58166000D01*
X182562500Y-63500000D02*
X182626000Y-63500000D01*
X182626000Y-63500000D02*
X187960000Y-58166000D01*
X142748000Y-65786000D02*
X149860000Y-65786000D01*
X141478000Y-67310000D02*
X137160000Y-67310000D01*
X142748000Y-66040000D02*
X141478000Y-67310000D01*
X142748000Y-65786000D02*
X142748000Y-66040000D01*
X137160000Y-74930000D02*
X137160000Y-74676000D01*
X183134000Y-73914000D02*
X183134000Y-73977500D01*
X149669500Y-78295500D02*
X148082000Y-76708000D01*
X178816000Y-78295500D02*
X149669500Y-78295500D01*
X183134000Y-73977500D02*
X178816000Y-78295500D01*
X121666000Y-111506000D02*
X133350000Y-111506000D01*
X142478000Y-73914000D02*
X142478000Y-76438000D01*
X142478000Y-76438000D02*
X142748000Y-76708000D01*
X137922000Y-75438000D02*
X137922000Y-73914000D01*
X141208000Y-72644000D02*
X142478000Y-73914000D01*
X139192000Y-72644000D02*
X141208000Y-72644000D01*
X137922000Y-73914000D02*
X139192000Y-72644000D01*
X187976000Y-71882000D02*
X187976000Y-69104000D01*
X187976000Y-69104000D02*
X187960000Y-69088000D01*
X137922000Y-84328000D02*
X137922000Y-75438000D01*
X137922000Y-75438000D02*
X137922000Y-75184000D01*
X183134000Y-73914000D02*
X187960000Y-69088000D01*
X142748000Y-76708000D02*
X148082000Y-76708000D01*
X134112000Y-109220000D02*
X134112000Y-88138000D01*
X134112000Y-88138000D02*
X137922000Y-84328000D01*
X134112000Y-110744000D02*
X134112000Y-109220000D01*
X133350000Y-111506000D02*
X134112000Y-110744000D01*
X182626000Y-85344000D02*
X182372000Y-85344000D01*
X150749000Y-89281000D02*
X149098000Y-87630000D01*
X178435000Y-89281000D02*
X150749000Y-89281000D01*
X182372000Y-85344000D02*
X178435000Y-89281000D01*
X121666000Y-114046000D02*
X133858000Y-114046000D01*
X142748000Y-87630000D02*
X142748000Y-85836000D01*
X142748000Y-85836000D02*
X143764000Y-84820000D01*
X187198000Y-82566000D02*
X187198000Y-80772000D01*
X187198000Y-80772000D02*
X187960000Y-80010000D01*
X182626000Y-85344000D02*
X187960000Y-80010000D01*
X142748000Y-87630000D02*
X149098000Y-87630000D01*
D34*
X143256000Y-87122000D02*
X142748000Y-87630000D01*
D33*
X141224000Y-89154000D02*
X142748000Y-87630000D01*
X133858000Y-114046000D02*
X134874000Y-113030000D01*
X134874000Y-112268000D02*
X134874000Y-91694000D01*
X134874000Y-91440000D02*
X137160000Y-89154000D01*
X137160000Y-89154000D02*
X141224000Y-89154000D01*
X134874000Y-91694000D02*
X134874000Y-91440000D01*
X134874000Y-112268000D02*
X134874000Y-113030000D01*
X182626000Y-96266000D02*
X178689000Y-100203000D01*
X149987000Y-100203000D02*
X148336000Y-98552000D01*
X159639000Y-100203000D02*
X149987000Y-100203000D01*
X159893000Y-99949000D02*
X159639000Y-100203000D01*
X170624500Y-99949000D02*
X159893000Y-99949000D01*
X170878500Y-100203000D02*
X170624500Y-99949000D01*
X173482000Y-100203000D02*
X170878500Y-100203000D01*
X173799500Y-100520500D02*
X173482000Y-100203000D01*
X175260000Y-100520500D02*
X173799500Y-100520500D01*
X175577500Y-100203000D02*
X175260000Y-100520500D01*
X178689000Y-100203000D02*
X175577500Y-100203000D01*
X121666000Y-116586000D02*
X134620000Y-116586000D01*
X134620000Y-116586000D02*
X135382000Y-115824000D01*
X135382000Y-115824000D02*
X135636000Y-115570000D01*
X135509000Y-115697000D02*
X135636000Y-115570000D01*
X135382000Y-115824000D02*
X135509000Y-115697000D01*
X135890000Y-115316000D02*
X135509000Y-115697000D01*
X135890000Y-98552000D02*
X135890000Y-97282000D01*
X135890000Y-114808000D02*
X135890000Y-98552000D01*
X135890000Y-115316000D02*
X135890000Y-114808000D01*
X142478000Y-95758000D02*
X142478000Y-98282000D01*
X142478000Y-98282000D02*
X142748000Y-98552000D01*
X188230000Y-93726000D02*
X188230000Y-91202000D01*
X188230000Y-91202000D02*
X187960000Y-90932000D01*
X182626000Y-96266000D02*
X187960000Y-90932000D01*
X142748000Y-98552000D02*
X148336000Y-98552000D01*
X142478000Y-95758000D02*
X141208000Y-94488000D01*
X138684000Y-94488000D02*
X141208000Y-94488000D01*
X135890000Y-97282000D02*
X138684000Y-94488000D01*
X164465000Y-110934500D02*
X159575500Y-110934500D01*
X182816500Y-106934000D02*
X178752500Y-110998000D01*
X178752500Y-110998000D02*
X175768000Y-110998000D01*
X175768000Y-110998000D02*
X175514000Y-111252000D01*
X175514000Y-111252000D02*
X173672500Y-111252000D01*
X173672500Y-111252000D02*
X173355000Y-110934500D01*
X173355000Y-110934500D02*
X164465000Y-110934500D01*
X182880000Y-106934000D02*
X182816500Y-106934000D01*
X150939500Y-111061500D02*
X149352000Y-109474000D01*
X159448500Y-111061500D02*
X150939500Y-111061500D01*
X159575500Y-110934500D02*
X159448500Y-111061500D01*
X121666000Y-119126000D02*
X136144000Y-119126000D01*
X142478000Y-106680000D02*
X142478000Y-109204000D01*
X142478000Y-109204000D02*
X142748000Y-109474000D01*
X188230000Y-104648000D02*
X188230000Y-102124000D01*
X188230000Y-102124000D02*
X187960000Y-101854000D01*
X182880000Y-106934000D02*
X187960000Y-101854000D01*
X142748000Y-109474000D02*
X149352000Y-109474000D01*
X136906000Y-106680000D02*
X138430000Y-105156000D01*
X138430000Y-105156000D02*
X140954000Y-105156000D01*
X140954000Y-105156000D02*
X142478000Y-106680000D01*
X136906000Y-115316000D02*
X136906000Y-108712000D01*
X136906000Y-108712000D02*
X136906000Y-106680000D01*
X136906000Y-115316000D02*
X136906000Y-118364000D01*
X136144000Y-119126000D02*
X136906000Y-118364000D01*
X148844000Y-120396000D02*
X148971000Y-120396000D01*
X178689000Y-121793000D02*
X182880000Y-117602000D01*
X171005500Y-121793000D02*
X178689000Y-121793000D01*
X170751500Y-122047000D02*
X171005500Y-121793000D01*
X150622000Y-122047000D02*
X170751500Y-122047000D01*
X148971000Y-120396000D02*
X150622000Y-122047000D01*
X137731500Y-121983500D02*
X141668500Y-121983500D01*
X121666000Y-121666000D02*
X137414000Y-121666000D01*
X137668000Y-121920000D02*
X137731500Y-121983500D01*
X141668500Y-121983500D02*
X142748000Y-120904000D01*
X137414000Y-121666000D02*
X137668000Y-121920000D01*
X142748000Y-120396000D02*
X142748000Y-118602000D01*
X142748000Y-118602000D02*
X143764000Y-117586000D01*
D36*
X143764000Y-117586000D02*
X143780000Y-117602000D01*
D33*
X186944000Y-113538000D02*
X183134000Y-117348000D01*
X183134000Y-117348000D02*
X182880000Y-117602000D01*
X186944000Y-115332000D02*
X186944000Y-113538000D01*
X186944000Y-113538000D02*
X187960000Y-112522000D01*
X142748000Y-120396000D02*
X148844000Y-120396000D01*
X142748000Y-120904000D02*
X142748000Y-120396000D01*
X155257500Y-132715000D02*
X173291500Y-132715000D01*
X176466500Y-129540000D02*
X182308500Y-123698000D01*
X176466500Y-129540000D02*
X173609000Y-132397500D01*
X173291500Y-132715000D02*
X173609000Y-132397500D01*
X142684500Y-131191000D02*
X142811500Y-131191000D01*
X142811500Y-131191000D02*
X144335500Y-132715000D01*
X144335500Y-132715000D02*
X155257500Y-132715000D01*
X155257500Y-132715000D02*
X155321000Y-132715000D01*
X182642000Y-128524000D02*
X182642000Y-126571500D01*
X182372000Y-126301500D02*
X182372000Y-123698000D01*
X182642000Y-126571500D02*
X182372000Y-126301500D01*
X182372000Y-123698000D02*
X182308500Y-123698000D01*
X121666000Y-124206000D02*
X135128000Y-124206000D01*
X135382000Y-124460000D02*
X141478000Y-130556000D01*
X135128000Y-124206000D02*
X135382000Y-124460000D01*
X142748000Y-131826000D02*
X142748000Y-131572000D01*
X141986000Y-131064000D02*
X142748000Y-131826000D01*
X141986000Y-128762000D02*
X141986000Y-131064000D01*
X141478000Y-130556000D02*
X141224000Y-130302000D01*
X142748000Y-131826000D02*
X141478000Y-130556000D01*
D39*
X123984000Y-59436000D02*
X127984000Y-59436000D01*
D31*
X175006000Y-50466000D02*
X175006000Y-48213000D01*
D35*
X175006000Y-48213000D02*
X175340000Y-47879000D01*
D31*
X175340000Y-47879000D02*
X177974000Y-47879000D01*
D32*
X136636000Y-59436000D02*
X138938000Y-59436000D01*
X138938000Y-59436000D02*
X140208000Y-58166000D01*
D36*
X190754000Y-62992000D02*
X187960000Y-65786000D01*
D37*
X144526000Y-47498000D02*
X143507460Y-47498000D01*
X144526000Y-47498000D02*
X146304000Y-49276000D01*
X149273260Y-49276000D02*
X146304000Y-49276000D01*
X151130000Y-45974000D02*
X149273260Y-47830740D01*
X149273260Y-47830740D02*
X149273260Y-49276000D01*
X152416000Y-45974000D02*
X151130000Y-45974000D01*
D36*
X140208000Y-82820000D02*
X140208000Y-82550000D01*
X140208000Y-82550000D02*
X142748000Y-80010000D01*
X140208000Y-115586000D02*
X140208000Y-115316000D01*
X140208000Y-115316000D02*
X142748000Y-112776000D01*
X190500000Y-117332000D02*
X190500000Y-117602000D01*
X190500000Y-117602000D02*
X187960000Y-120142000D01*
X190754000Y-62976000D02*
X190754000Y-62992000D01*
X190754000Y-84566000D02*
X190754000Y-84836000D01*
X190754000Y-84836000D02*
X187960000Y-87630000D01*
X142478000Y-113046000D02*
X142748000Y-112776000D01*
X145304000Y-58166000D02*
X142748000Y-58166000D01*
D34*
X128896750Y-93908250D02*
X128896750Y-93924750D01*
X128896750Y-93924750D02*
X120840500Y-101981000D01*
X120840500Y-101981000D02*
X117792500Y-101981000D01*
X131365000Y-91440000D02*
X131365000Y-87075000D01*
X131445000Y-87122000D02*
X131445000Y-86995000D01*
X131412000Y-87122000D02*
X131445000Y-87122000D01*
X131365000Y-87075000D02*
X131412000Y-87122000D01*
X128865000Y-93940000D02*
X128896750Y-93908250D01*
X128896750Y-93908250D02*
X131365000Y-91440000D01*
X133604000Y-75946000D02*
X133604000Y-84836000D01*
X133604000Y-84836000D02*
X131445000Y-86995000D01*
X133604000Y-72374000D02*
X133604000Y-75946000D01*
X133604000Y-72374000D02*
X133350000Y-72120000D01*
X135208000Y-67310000D02*
X135208000Y-68262000D01*
X135208000Y-68262000D02*
X133350000Y-70120000D01*
X135382000Y-64850000D02*
X135382000Y-67136000D01*
X135382000Y-67136000D02*
X135208000Y-67310000D01*
D38*
X178070500Y-43942000D02*
X178752500Y-43942000D01*
X178752500Y-43942000D02*
X180674000Y-45863500D01*
X180674000Y-45863500D02*
X180674000Y-47879000D01*
D31*
X180213000Y-50593000D02*
X180213000Y-48340000D01*
X180213000Y-48340000D02*
X180674000Y-47879000D01*
X178435000Y-50593000D02*
X180213000Y-50593000D01*
X180213000Y-50593000D02*
X181133000Y-50593000D01*
X181133000Y-50593000D02*
X181610000Y-51070000D01*
D32*
X164846000Y-45894000D02*
X165210500Y-45894000D01*
X165210500Y-45894000D02*
X166433500Y-47117000D01*
X166433500Y-47117000D02*
X166433500Y-49958000D01*
X166433500Y-49958000D02*
X165163500Y-51228000D01*
X165163500Y-51228000D02*
X166273500Y-51228000D01*
X166273500Y-51228000D02*
X168211500Y-53166000D01*
X162115500Y-51832000D02*
X164559500Y-51832000D01*
X164559500Y-51832000D02*
X165163500Y-51228000D01*
D35*
X164846000Y-48594000D02*
X162226000Y-48594000D01*
X162226000Y-48594000D02*
X161925000Y-48895000D01*
D31*
X168211500Y-50466000D02*
X171704000Y-50466000D01*
X171577000Y-47879000D02*
X171577000Y-50339000D01*
X171577000Y-47879000D02*
X172640000Y-47879000D01*
D35*
X171577000Y-50339000D02*
X171704000Y-50466000D01*
D36*
X171878000Y-50292000D02*
X171704000Y-50466000D01*
D35*
X171878000Y-50292000D02*
X171704000Y-50466000D01*
D32*
X171878000Y-50292000D02*
X171704000Y-50466000D01*
D33*
X130746500Y-128063000D02*
X134810500Y-128063000D01*
X134810500Y-128063000D02*
X134937500Y-127936000D01*
X128761500Y-128063000D02*
X130746500Y-128063000D01*
X128714500Y-128016000D02*
X128761500Y-128063000D01*
D31*
X150050500Y-124730000D02*
X151685500Y-124730000D01*
X151685500Y-124730000D02*
X152844500Y-123571000D01*
X161290000Y-125555500D02*
X159480000Y-125555500D01*
X159480000Y-125555500D02*
X158662500Y-124738000D01*
X128270000Y-66548000D02*
X128270000Y-63881000D01*
X127381000Y-62992000D02*
X124730500Y-62992000D01*
X128270000Y-63881000D02*
X127381000Y-62992000D01*
X169457500Y-124674500D02*
X170918500Y-124674500D01*
X170918500Y-124674500D02*
X171910500Y-125666500D01*
X166163500Y-124333000D02*
X169116000Y-124333000D01*
X169116000Y-124333000D02*
X169457500Y-124674500D01*
M02*
