M48
;DRILL file {KiCad 4.0.1-stable} date 03/05/2016 06:21:59
;FORMAT={3:3/ absolute / metric / keep zeros}
FMAT,2
METRIC,TZ
T1C0.635
T2C0.762
T3C0.800
T4C0.813
T5C0.920
T6C1.001
T7C1.016
T8C1.500
T9C1.800
T10C3.900
T11C5.999
%
G90
G05
M71
T1
X123952Y-050562
X125857Y-131826
X127508Y-050562
X127508Y-077470
X128397Y-129794
X128715Y-128016
X131064Y-050562
X133858Y-062230
X134938Y-132525
X143256Y-050292
X149860Y-059944
X155766Y-131509
X159004Y-047244
X161925Y-090932
X162116Y-112649
X162179Y-079756
X162179Y-123381
X162243Y-068834
X162243Y-101854
X162306Y-058166
X164529Y-109665
X164592Y-098489
X164592Y-120587
X164719Y-076772
X164719Y-087630
X164783Y-066040
X165671Y-058166
X165735Y-079502
X165799Y-090424
X165862Y-132017
X165926Y-101283
X165926Y-112395
X165989Y-068644
X168466Y-076454
X168466Y-109538
X168529Y-065786
X168529Y-087376
X168593Y-098616
X168593Y-120142
X168974Y-122110
X169990Y-053150
X176784Y-053166
T2
X140145Y-123571
X140145Y-131191
X140208Y-058166
X140208Y-065786
X140208Y-069088
X140208Y-076708
X140208Y-080010
X140208Y-087630
X140208Y-090932
X140208Y-098552
X140208Y-101854
X140208Y-109474
X140208Y-112776
X140208Y-120396
X142684Y-123571
X142684Y-131191
X142748Y-058166
X142748Y-065786
X142748Y-069088
X142748Y-076708
X142748Y-080010
X142748Y-087630
X142748Y-090932
X142748Y-098552
X142748Y-101854
X142748Y-109474
X142748Y-112776
X142748Y-120396
X146304Y-045466
X146304Y-053086
X152844Y-123571
X152844Y-131191
X152908Y-058166
X152908Y-065786
X152908Y-069088
X152908Y-076708
X152908Y-080010
X152908Y-087630
X152908Y-090932
X152908Y-098552
X152908Y-101854
X152908Y-109474
X152908Y-112776
X152908Y-120396
X156464Y-045466
X156464Y-053086
X159004Y-045466
X159004Y-053086
X172149Y-123317
X172149Y-130937
X177800Y-058166
X177800Y-065786
X177800Y-069088
X177800Y-076708
X177800Y-080010
X177800Y-087630
X177800Y-090932
X177800Y-098552
X177800Y-101854
X177800Y-109474
X177800Y-112522
X177800Y-120142
X182309Y-123317
X182309Y-130937
X184849Y-123317
X184849Y-130937
X187960Y-058166
X187960Y-065786
X187960Y-069088
X187960Y-076708
X187960Y-080010
X187960Y-087630
X187960Y-090932
X187960Y-098552
X187960Y-101854
X187960Y-109474
X187960Y-112522
X187960Y-120142
X190500Y-058166
X190500Y-065786
X190500Y-069088
X190500Y-076708
X190500Y-080010
X190500Y-087630
X190500Y-090932
X190500Y-098552
X190500Y-101854
X190500Y-109474
X190500Y-112522
X190500Y-120142
T3
X136909Y-047498
X143507Y-047498
T4
X121539Y-093218
X124079Y-093218
X126619Y-093218
T5
X184224Y-049530
T6
X123190Y-066548
X125730Y-066548
X128270Y-066548
X155956Y-058166
X155956Y-069088
X155956Y-080010
X155956Y-090932
X155956Y-101854
X155956Y-112776
X158496Y-065786
X158496Y-076708
X158496Y-087630
X158496Y-098552
X158496Y-109474
X158496Y-120396
X161544Y-063500
X161544Y-073660
X161544Y-084836
X161544Y-095758
X161544Y-106680
X161544Y-117602
X169164Y-060960
X169164Y-071120
X169164Y-082296
X169164Y-093218
X169164Y-104140
X169164Y-115062
X172212Y-058166
X172212Y-069088
X172212Y-080010
X172212Y-090932
X172212Y-101854
X172212Y-112522
X174752Y-065786
X174752Y-076708
X174752Y-087630
X174752Y-098552
X174752Y-109474
X174752Y-120142
T7
X117793Y-099441
X117793Y-101981
X118047Y-047308
X118047Y-049848
X119126Y-108966
X119126Y-111506
X119126Y-114046
X119126Y-116586
X119126Y-119126
X119126Y-121666
X119126Y-124206
X121666Y-108966
X121666Y-111506
X121666Y-114046
X121666Y-116586
X121666Y-119126
X121666Y-121666
X121666Y-124206
X123984Y-059436
X131984Y-059436
X136462Y-042228
X139001Y-042228
X161925Y-046355
X161925Y-048895
T8
X119984Y-059436
X127984Y-059436
T9
X192024Y-045730
X192024Y-053330
T10
X119126Y-039116
X119126Y-131064
X191008Y-039116
X191008Y-131064
T11
X125984Y-084074
T0
M30
