M48
;DRILL file {kicad (2014-10-27 BZR 5228)-product} date 05/09/2015 11:13:06
;FORMAT={3:3/ absolute / metric / keep zeros}
FMAT,2
METRIC,TZ
T1C0.635
T2C0.762
T3C0.800
T4C0.813
T5C0.900
T6C0.920
T7C1.001
T8C1.016
T9C1.500
T10C1.800
T11C3.900
T12C5.999
%
G90
G05
M71
T1
X117729Y-108966
X120904Y-071962
X123952Y-050562
X125222Y-101346
X127508Y-050562
X127508Y-077470
X127508Y-101346
X129794Y-101219
X131064Y-050562
X133858Y-062230
X143256Y-050292
X149860Y-059944
X159004Y-036830
X159004Y-047244
X161544Y-051816
X163830Y-079756
X163830Y-090932
X163830Y-112522
X164084Y-058166
X164084Y-068834
X164338Y-101854
X166878Y-109728
X166878Y-120650
X167132Y-076708
X167132Y-098552
X167386Y-066040
X167386Y-087630
X169672Y-037338
X169672Y-053166
X176784Y-053166
X183388Y-053086
T2
X140208Y-058166
X140208Y-065786
X140208Y-069088
X140208Y-076708
X140208Y-080010
X140208Y-087630
X140208Y-090932
X140208Y-098552
X140208Y-101854
X140208Y-109474
X140208Y-112776
X140208Y-120396
X140208Y-124206
X140208Y-131826
X142748Y-058166
X142748Y-065786
X142748Y-069088
X142748Y-076708
X142748Y-080010
X142748Y-087630
X142748Y-090932
X142748Y-098552
X142748Y-101854
X142748Y-109474
X142748Y-112776
X142748Y-120396
X142748Y-124206
X142748Y-131826
X146304Y-045466
X146304Y-053086
X152908Y-058166
X152908Y-065786
X152908Y-069088
X152908Y-076708
X152908Y-080010
X152908Y-087630
X152908Y-090932
X152908Y-098552
X152908Y-101854
X152908Y-109474
X152908Y-112776
X152908Y-120396
X152908Y-124206
X152908Y-131826
X156464Y-045466
X156464Y-053086
X159004Y-045466
X159004Y-053086
X172212Y-123698
X172212Y-131318
X177800Y-058166
X177800Y-065786
X177800Y-069088
X177800Y-076708
X177800Y-080010
X177800Y-087630
X177800Y-090932
X177800Y-098552
X177800Y-101854
X177800Y-109474
X177800Y-112522
X177800Y-120142
X182372Y-123698
X182372Y-131318
X184912Y-123698
X184912Y-131318
X187960Y-058166
X187960Y-065786
X187960Y-069088
X187960Y-076708
X187960Y-080010
X187960Y-087630
X187960Y-090932
X187960Y-098552
X187960Y-101854
X187960Y-109474
X187960Y-112522
X187960Y-120142
X190500Y-058166
X190500Y-065786
X190500Y-069088
X190500Y-076708
X190500Y-080010
X190500Y-087630
X190500Y-090932
X190500Y-098552
X190500Y-101854
X190500Y-109474
X190500Y-112522
X190500Y-120142
T3
X136909Y-047498
X143507Y-047498
T4
X118364Y-088900
X118364Y-091440
X118364Y-093980
T5
X126365Y-091440
X126365Y-094440
X128865Y-091440
X128865Y-094440
X131365Y-091440
X131365Y-094440
T6
X184224Y-049530
T7
X123190Y-066548
X125730Y-066548
X128270Y-066548
X155448Y-042164
X155956Y-058166
X155956Y-069088
X155956Y-080010
X155956Y-090932
X155956Y-101854
X155956Y-112776
X158496Y-065786
X158496Y-076708
X158496Y-087630
X158496Y-098552
X158496Y-109474
X158496Y-120396
X161544Y-063500
X161544Y-073660
X161544Y-084836
X161544Y-095758
X161544Y-106680
X161544Y-117602
X163068Y-039624
X166116Y-037592
X168656Y-045212
X169164Y-060960
X169164Y-071120
X169164Y-082296
X169164Y-093218
X169164Y-104140
X169164Y-115062
X171704Y-042164
X172212Y-058166
X172212Y-069088
X172212Y-080010
X172212Y-090932
X172212Y-101854
X172212Y-112522
X174752Y-065786
X174752Y-076708
X174752Y-087630
X174752Y-098552
X174752Y-109474
X174752Y-120142
X179324Y-039624
T8
X117856Y-103505
X117856Y-106045
X119126Y-111506
X119126Y-114046
X119126Y-116586
X119126Y-119126
X119126Y-121666
X119126Y-124206
X121666Y-111506
X121666Y-114046
X121666Y-116586
X121666Y-119126
X121666Y-121666
X121666Y-124206
X123984Y-059436
X131984Y-059436
X136144Y-038100
X138684Y-038100
X146812Y-038100
X149352Y-038100
T9
X119984Y-059436
X127984Y-059436
T10
X192024Y-045730
X192024Y-053330
T11
X119126Y-039116
X119126Y-131064
X191008Y-039116
X191008Y-131064
T12
X125984Y-084074
T0
M30
