%FSLAX45Y45*%
G04 Gerber Fmt 4.5, Leading zero omitted, Abs format (unit mm)*
G04 Created by KiCad (PCBNEW (2014-10-27 BZR 5228)-product) date 23/02/2015 12:19:12*
%MOMM*%
G01*
G04 APERTURE LIST*
%ADD10C,0.127000*%
%ADD11C,0.100000*%
%ADD12C,0.200000*%
%ADD13C,0.300000*%
G04 APERTURE END LIST*
D10*
D11*
X20000000Y-5000000D02*
X10000000Y-5000000D01*
X20000000Y-15000000D02*
X20000000Y-5000000D01*
X10000000Y-15000000D02*
X20000000Y-15000000D01*
X10000000Y-5000000D02*
X10000000Y-15000000D01*
D12*
X10218250Y-12258250D02*
X10281750Y-12321750D01*
X10281750Y-12258250D02*
X10218250Y-12321750D01*
X10248250Y-9858250D02*
X10311750Y-9921750D01*
X10311750Y-9858250D02*
X10248250Y-9921750D01*
X11008250Y-13018250D02*
X11071750Y-13081750D01*
X11071750Y-13018250D02*
X11008250Y-13081750D01*
X11443970Y-7904480D02*
X11507470Y-7967980D01*
X11507470Y-7904480D02*
X11443970Y-7967980D01*
X11448250Y-13018250D02*
X11511750Y-13081750D01*
X11511750Y-13018250D02*
X11448250Y-13081750D01*
X11468250Y-5118250D02*
X11531750Y-5181750D01*
X11531750Y-5118250D02*
X11468250Y-5181750D01*
X11468250Y-14818250D02*
X11531750Y-14881750D01*
X11531750Y-14818250D02*
X11468250Y-14881750D01*
X11588250Y-11018250D02*
X11651750Y-11081750D01*
X11651750Y-11018250D02*
X11588250Y-11081750D01*
X11688250Y-7238250D02*
X11751750Y-7301750D01*
X11751750Y-7238250D02*
X11688250Y-7301750D01*
X11698250Y-9638250D02*
X11761750Y-9701750D01*
X11761750Y-9638250D02*
X11698250Y-9701750D01*
X11798250Y-12758250D02*
X11861750Y-12821750D01*
X11861750Y-12758250D02*
X11798250Y-12821750D01*
X11968250Y-5118250D02*
X12031750Y-5181750D01*
X12031750Y-5118250D02*
X11968250Y-5181750D01*
X11968250Y-14818250D02*
X12031750Y-14881750D01*
X12031750Y-14818250D02*
X11968250Y-14881750D01*
X11978250Y-7158250D02*
X12041750Y-7221750D01*
X12041750Y-7158250D02*
X11978250Y-7221750D01*
X12208250Y-10468250D02*
X12271750Y-10531750D01*
X12271750Y-10468250D02*
X12208250Y-10531750D01*
X12218250Y-9628250D02*
X12281750Y-9691750D01*
X12281750Y-9628250D02*
X12218250Y-9691750D01*
X12268250Y-13368250D02*
X12331750Y-13431750D01*
X12331750Y-13368250D02*
X12268250Y-13431750D01*
X12288250Y-13528250D02*
X12351750Y-13591750D01*
X12351750Y-13528250D02*
X12288250Y-13591750D01*
X12298250Y-8478250D02*
X12361750Y-8541750D01*
X12361750Y-8478250D02*
X12298250Y-8541750D01*
X12308250Y-12198250D02*
X12371750Y-12261750D01*
X12371750Y-12198250D02*
X12308250Y-12261750D01*
X12318250Y-11048250D02*
X12381750Y-11111750D01*
X12381750Y-11048250D02*
X12318250Y-11111750D01*
X12318250Y-12398250D02*
X12381750Y-12461750D01*
X12381750Y-12398250D02*
X12318250Y-12461750D01*
X12328250Y-14208250D02*
X12391750Y-14271750D01*
X12391750Y-14208250D02*
X12328250Y-14271750D01*
X12328250Y-14428250D02*
X12391750Y-14491750D01*
X12391750Y-14428250D02*
X12328250Y-14491750D01*
X12348250Y-10178250D02*
X12411750Y-10241750D01*
X12411750Y-10178250D02*
X12348250Y-10241750D01*
X12358250Y-11308250D02*
X12421750Y-11371750D01*
X12421750Y-11308250D02*
X12358250Y-11371750D01*
X12418250Y-13358250D02*
X12481750Y-13421750D01*
X12481750Y-13358250D02*
X12418250Y-13421750D01*
X12468250Y-5118250D02*
X12531750Y-5181750D01*
X12531750Y-5118250D02*
X12468250Y-5181750D01*
X12468250Y-14818250D02*
X12531750Y-14881750D01*
X12531750Y-14818250D02*
X12468250Y-14881750D01*
X12508250Y-10048250D02*
X12571750Y-10111750D01*
X12571750Y-10048250D02*
X12508250Y-10111750D01*
X12528250Y-13598250D02*
X12591750Y-13661750D01*
X12591750Y-13598250D02*
X12528250Y-13661750D01*
X12548250Y-12348250D02*
X12611750Y-12411750D01*
X12611750Y-12348250D02*
X12548250Y-12411750D01*
X12558250Y-11378250D02*
X12621750Y-11441750D01*
X12621750Y-11378250D02*
X12558250Y-11441750D01*
X12598250Y-14008250D02*
X12661750Y-14071750D01*
X12661750Y-14008250D02*
X12598250Y-14071750D01*
X12598250Y-14308250D02*
X12661750Y-14371750D01*
X12661750Y-14308250D02*
X12598250Y-14371750D01*
X12898250Y-13578250D02*
X12961750Y-13641750D01*
X12961750Y-13578250D02*
X12898250Y-13641750D01*
X12908250Y-13198250D02*
X12971750Y-13261750D01*
X12971750Y-13198250D02*
X12908250Y-13261750D01*
X12918250Y-13448250D02*
X12981750Y-13511750D01*
X12981750Y-13448250D02*
X12918250Y-13511750D01*
X12938250Y-11358250D02*
X13001750Y-11421750D01*
X13001750Y-11358250D02*
X12938250Y-11421750D01*
X12968250Y-5118250D02*
X13031750Y-5181750D01*
X13031750Y-5118250D02*
X12968250Y-5181750D01*
X12968250Y-8958250D02*
X13031750Y-9021750D01*
X13031750Y-8958250D02*
X12968250Y-9021750D01*
X12968250Y-12478250D02*
X13031750Y-12541750D01*
X13031750Y-12478250D02*
X12968250Y-12541750D01*
X12968250Y-14818250D02*
X13031750Y-14881750D01*
X13031750Y-14818250D02*
X12968250Y-14881750D01*
X13038250Y-10478250D02*
X13101750Y-10541750D01*
X13101750Y-10478250D02*
X13038250Y-10541750D01*
X13128250Y-10998250D02*
X13191750Y-11061750D01*
X13191750Y-10998250D02*
X13128250Y-11061750D01*
X13128250Y-11328250D02*
X13191750Y-11391750D01*
X13191750Y-11328250D02*
X13128250Y-11391750D01*
X13178250Y-9628250D02*
X13241750Y-9691750D01*
X13241750Y-9628250D02*
X13178250Y-9691750D01*
X13178250Y-12388250D02*
X13241750Y-12451750D01*
X13241750Y-12388250D02*
X13178250Y-12451750D01*
X13188250Y-12178250D02*
X13251750Y-12241750D01*
X13251750Y-12178250D02*
X13188250Y-12241750D01*
X13248250Y-10478250D02*
X13311750Y-10541750D01*
X13311750Y-10478250D02*
X13248250Y-10541750D01*
X13268250Y-13728250D02*
X13331750Y-13791750D01*
X13331750Y-13728250D02*
X13268250Y-13791750D01*
X13418250Y-9578250D02*
X13481750Y-9641750D01*
X13481750Y-9578250D02*
X13418250Y-9641750D01*
X13468250Y-5118250D02*
X13531750Y-5181750D01*
X13531750Y-5118250D02*
X13468250Y-5181750D01*
X13468250Y-14818250D02*
X13531750Y-14881750D01*
X13531750Y-14818250D02*
X13468250Y-14881750D01*
X13638250Y-10638250D02*
X13701750Y-10701750D01*
X13701750Y-10638250D02*
X13638250Y-10701750D01*
X13638250Y-12708250D02*
X13701750Y-12771750D01*
X13701750Y-12708250D02*
X13638250Y-12771750D01*
X13738250Y-9248250D02*
X13801750Y-9311750D01*
X13801750Y-9248250D02*
X13738250Y-9311750D01*
X13748250Y-13738250D02*
X13811750Y-13801750D01*
X13811750Y-13738250D02*
X13748250Y-13801750D01*
X13768250Y-13158250D02*
X13831750Y-13221750D01*
X13831750Y-13158250D02*
X13768250Y-13221750D01*
X13858250Y-8818250D02*
X13921750Y-8881750D01*
X13921750Y-8818250D02*
X13858250Y-8881750D01*
X13898250Y-9568250D02*
X13961750Y-9631750D01*
X13961750Y-9568250D02*
X13898250Y-9631750D01*
X13968250Y-14818250D02*
X14031750Y-14881750D01*
X14031750Y-14818250D02*
X13968250Y-14881750D01*
X13998250Y-11758250D02*
X14061750Y-11821750D01*
X14061750Y-11758250D02*
X13998250Y-11821750D01*
X14158250Y-9068250D02*
X14221750Y-9131750D01*
X14221750Y-9068250D02*
X14158250Y-9131750D01*
X14358250Y-10458250D02*
X14421750Y-10521750D01*
X14421750Y-10458250D02*
X14358250Y-10521750D01*
X14428250Y-14098250D02*
X14491750Y-14161750D01*
X14491750Y-14098250D02*
X14428250Y-14161750D01*
X14468250Y-14818250D02*
X14531750Y-14881750D01*
X14531750Y-14818250D02*
X14468250Y-14881750D01*
X14708250Y-6738250D02*
X14771750Y-6801750D01*
X14771750Y-6738250D02*
X14708250Y-6801750D01*
X14708250Y-14388250D02*
X14771750Y-14451750D01*
X14771750Y-14388250D02*
X14708250Y-14451750D01*
X14848250Y-9778250D02*
X14911750Y-9841750D01*
X14911750Y-9778250D02*
X14848250Y-9841750D01*
X14908250Y-12138250D02*
X14971750Y-12201750D01*
X14971750Y-12138250D02*
X14908250Y-12201750D01*
X14923250Y-7773250D02*
X14986750Y-7836750D01*
X14986750Y-7773250D02*
X14923250Y-7836750D01*
X14968250Y-13678250D02*
X15031750Y-13741750D01*
X15031750Y-13678250D02*
X14968250Y-13741750D01*
X14968250Y-14818250D02*
X15031750Y-14881750D01*
X15031750Y-14818250D02*
X14968250Y-14881750D01*
X15018250Y-8038250D02*
X15081750Y-8101750D01*
X15081750Y-8038250D02*
X15018250Y-8101750D01*
X15028250Y-8468250D02*
X15091750Y-8531750D01*
X15091750Y-8468250D02*
X15028250Y-8531750D01*
X15048250Y-10118250D02*
X15111750Y-10181750D01*
X15111750Y-10118250D02*
X15048250Y-10181750D01*
X15088250Y-13298250D02*
X15151750Y-13361750D01*
X15151750Y-13298250D02*
X15088250Y-13361750D01*
X15138250Y-12458250D02*
X15201750Y-12521750D01*
X15201750Y-12458250D02*
X15138250Y-12521750D01*
X15218250Y-10528250D02*
X15281750Y-10591750D01*
X15281750Y-10528250D02*
X15218250Y-10591750D01*
X15278250Y-11978250D02*
X15341750Y-12041750D01*
X15341750Y-11978250D02*
X15278250Y-12041750D01*
X15328250Y-11788250D02*
X15391750Y-11851750D01*
X15391750Y-11788250D02*
X15328250Y-11851750D01*
X15358250Y-13178250D02*
X15421750Y-13241750D01*
X15421750Y-13178250D02*
X15358250Y-13241750D01*
X15398250Y-13578250D02*
X15461750Y-13641750D01*
X15461750Y-13578250D02*
X15398250Y-13641750D01*
X15468250Y-14818250D02*
X15531750Y-14881750D01*
X15531750Y-14818250D02*
X15468250Y-14881750D01*
X15488250Y-11838250D02*
X15551750Y-11901750D01*
X15551750Y-11838250D02*
X15488250Y-11901750D01*
X15518250Y-10638250D02*
X15581750Y-10701750D01*
X15581750Y-10638250D02*
X15518250Y-10701750D01*
X15648250Y-9608250D02*
X15711750Y-9671750D01*
X15711750Y-9608250D02*
X15648250Y-9671750D01*
X15718250Y-12398250D02*
X15781750Y-12461750D01*
X15781750Y-12398250D02*
X15718250Y-12461750D01*
X15728250Y-10488250D02*
X15791750Y-10551750D01*
X15791750Y-10488250D02*
X15728250Y-10551750D01*
X15728250Y-11058250D02*
X15791750Y-11121750D01*
X15791750Y-11058250D02*
X15728250Y-11121750D01*
X15738250Y-9878250D02*
X15801750Y-9941750D01*
X15801750Y-9878250D02*
X15738250Y-9941750D01*
X15748250Y-10348250D02*
X15811750Y-10411750D01*
X15811750Y-10348250D02*
X15748250Y-10411750D01*
X15788250Y-12918250D02*
X15851750Y-12981750D01*
X15851750Y-12918250D02*
X15788250Y-12981750D01*
X15798250Y-12158250D02*
X15861750Y-12221750D01*
X15861750Y-12158250D02*
X15798250Y-12221750D01*
X15808250Y-12308250D02*
X15871750Y-12371750D01*
X15871750Y-12308250D02*
X15808250Y-12371750D01*
X15968250Y-5118250D02*
X16031750Y-5181750D01*
X16031750Y-5118250D02*
X15968250Y-5181750D01*
X15968250Y-14818250D02*
X16031750Y-14881750D01*
X16031750Y-14818250D02*
X15968250Y-14881750D01*
X16018250Y-12158250D02*
X16081750Y-12221750D01*
X16081750Y-12158250D02*
X16018250Y-12221750D01*
X16068250Y-10668250D02*
X16131750Y-10731750D01*
X16131750Y-10668250D02*
X16068250Y-10731750D01*
X16068250Y-13628250D02*
X16131750Y-13691750D01*
X16131750Y-13628250D02*
X16068250Y-13691750D01*
X16148250Y-8068250D02*
X16211750Y-8131750D01*
X16211750Y-8068250D02*
X16148250Y-8131750D01*
X16168250Y-9448250D02*
X16231750Y-9511750D01*
X16231750Y-9448250D02*
X16168250Y-9511750D01*
X16258250Y-12928250D02*
X16321750Y-12991750D01*
X16321750Y-12928250D02*
X16258250Y-12991750D01*
X16278250Y-6048250D02*
X16341750Y-6111750D01*
X16341750Y-6048250D02*
X16278250Y-6111750D01*
X16278250Y-13178250D02*
X16341750Y-13241750D01*
X16341750Y-13178250D02*
X16278250Y-13241750D01*
X16288250Y-8128250D02*
X16351750Y-8191750D01*
X16351750Y-8128250D02*
X16288250Y-8191750D01*
X16348250Y-11428250D02*
X16411750Y-11491750D01*
X16411750Y-11428250D02*
X16348250Y-11491750D01*
X16388250Y-11308250D02*
X16451750Y-11371750D01*
X16451750Y-11308250D02*
X16388250Y-11371750D01*
X16468250Y-5118250D02*
X16531750Y-5181750D01*
X16531750Y-5118250D02*
X16468250Y-5181750D01*
X16468250Y-14818250D02*
X16531750Y-14881750D01*
X16531750Y-14818250D02*
X16468250Y-14881750D01*
X16538250Y-10538250D02*
X16601750Y-10601750D01*
X16601750Y-10538250D02*
X16538250Y-10601750D01*
X16568250Y-8708250D02*
X16631750Y-8771750D01*
X16631750Y-8708250D02*
X16568250Y-8771750D01*
X16618250Y-11538250D02*
X16681750Y-11601750D01*
X16681750Y-11538250D02*
X16618250Y-11601750D01*
X16828250Y-7188250D02*
X16891750Y-7251750D01*
X16891750Y-7188250D02*
X16828250Y-7251750D01*
X16878250Y-13638250D02*
X16941750Y-13701750D01*
X16941750Y-13638250D02*
X16878250Y-13701750D01*
X16968250Y-5118250D02*
X17031750Y-5181750D01*
X17031750Y-5118250D02*
X16968250Y-5181750D01*
X16968250Y-14818250D02*
X17031750Y-14881750D01*
X17031750Y-14818250D02*
X16968250Y-14881750D01*
X17468250Y-5118250D02*
X17531750Y-5181750D01*
X17531750Y-5118250D02*
X17468250Y-5181750D01*
X17468250Y-14818250D02*
X17531750Y-14881750D01*
X17531750Y-14818250D02*
X17468250Y-14881750D01*
X17808250Y-8858250D02*
X17871750Y-8921750D01*
X17871750Y-8858250D02*
X17808250Y-8921750D01*
X17818250Y-8528250D02*
X17881750Y-8591750D01*
X17881750Y-8528250D02*
X17818250Y-8591750D01*
X17968250Y-5118250D02*
X18031750Y-5181750D01*
X18031750Y-5118250D02*
X17968250Y-5181750D01*
X17968250Y-14818250D02*
X18031750Y-14881750D01*
X18031750Y-14818250D02*
X17968250Y-14881750D01*
X17978250Y-13428250D02*
X18041750Y-13491750D01*
X18041750Y-13428250D02*
X17978250Y-13491750D01*
X18168250Y-11788250D02*
X18231750Y-11851750D01*
X18231750Y-11788250D02*
X18168250Y-11851750D01*
X18268250Y-13158250D02*
X18331750Y-13221750D01*
X18331750Y-13158250D02*
X18268250Y-13221750D01*
X18468250Y-5128250D02*
X18531750Y-5191750D01*
X18531750Y-5128250D02*
X18468250Y-5191750D01*
X18468250Y-14818250D02*
X18531750Y-14881750D01*
X18531750Y-14818250D02*
X18468250Y-14881750D01*
X11757660Y-6212840D02*
G75*
G03X11757660Y-6212840I-40640J0D01*
G01*
X11757660Y-6466840D02*
G75*
G03X11757660Y-6466840I-40640J0D01*
G01*
X11757660Y-6720840D02*
G75*
G03X11757660Y-6720840I-40640J0D01*
G01*
X15300960Y-8220710D02*
G75*
G03X15300960Y-8220710I-40640J0D01*
G01*
X15300960Y-8474710D02*
G75*
G03X15300960Y-8474710I-40640J0D01*
G01*
X15300960Y-8728710D02*
G75*
G03X15300960Y-8728710I-40640J0D01*
G01*
X15300960Y-8982710D02*
G75*
G03X15300960Y-8982710I-40640J0D01*
G01*
X15300960Y-9236710D02*
G75*
G03X15300960Y-9236710I-40640J0D01*
G01*
X16062960Y-8220710D02*
G75*
G03X16062960Y-8220710I-40640J0D01*
G01*
X16062960Y-8474710D02*
G75*
G03X16062960Y-8474710I-40640J0D01*
G01*
X16062960Y-8728710D02*
G75*
G03X16062960Y-8728710I-40640J0D01*
G01*
X16062960Y-8982710D02*
G75*
G03X16062960Y-8982710I-40640J0D01*
G01*
X16062960Y-9236710D02*
G75*
G03X16062960Y-9236710I-40640J0D01*
G01*
X16899640Y-5952000D02*
G75*
G03X16899640Y-5952000I-40640J0D01*
G01*
X16899640Y-6206000D02*
G75*
G03X16899640Y-6206000I-40640J0D01*
G01*
X16899640Y-6460000D02*
G75*
G03X16899640Y-6460000I-40640J0D01*
G01*
X16899640Y-6714000D02*
G75*
G03X16899640Y-6714000I-40640J0D01*
G01*
X16899640Y-6968000D02*
G75*
G03X16899640Y-6968000I-40640J0D01*
G01*
X16899640Y-7492000D02*
G75*
G03X16899640Y-7492000I-40640J0D01*
G01*
X16899640Y-7746000D02*
G75*
G03X16899640Y-7746000I-40640J0D01*
G01*
X16899640Y-8000000D02*
G75*
G03X16899640Y-8000000I-40640J0D01*
G01*
X16899640Y-8254000D02*
G75*
G03X16899640Y-8254000I-40640J0D01*
G01*
X16899640Y-8508000D02*
G75*
G03X16899640Y-8508000I-40640J0D01*
G01*
X16909640Y-9132000D02*
G75*
G03X16909640Y-9132000I-40640J0D01*
G01*
X16909640Y-9386000D02*
G75*
G03X16909640Y-9386000I-40640J0D01*
G01*
X16909640Y-9640000D02*
G75*
G03X16909640Y-9640000I-40640J0D01*
G01*
X16909640Y-9894000D02*
G75*
G03X16909640Y-9894000I-40640J0D01*
G01*
X16909640Y-10148000D02*
G75*
G03X16909640Y-10148000I-40640J0D01*
G01*
X16919640Y-10792000D02*
G75*
G03X16919640Y-10792000I-40640J0D01*
G01*
X16919640Y-11046000D02*
G75*
G03X16919640Y-11046000I-40640J0D01*
G01*
X16919640Y-11300000D02*
G75*
G03X16919640Y-11300000I-40640J0D01*
G01*
X16919640Y-11554000D02*
G75*
G03X16919640Y-11554000I-40640J0D01*
G01*
X16919640Y-11808000D02*
G75*
G03X16919640Y-11808000I-40640J0D01*
G01*
X16919640Y-12342000D02*
G75*
G03X16919640Y-12342000I-40640J0D01*
G01*
X16919640Y-12596000D02*
G75*
G03X16919640Y-12596000I-40640J0D01*
G01*
X16919640Y-12850000D02*
G75*
G03X16919640Y-12850000I-40640J0D01*
G01*
X16919640Y-13104000D02*
G75*
G03X16919640Y-13104000I-40640J0D01*
G01*
X16919640Y-13358000D02*
G75*
G03X16919640Y-13358000I-40640J0D01*
G01*
X17661640Y-5952000D02*
G75*
G03X17661640Y-5952000I-40640J0D01*
G01*
X17661640Y-6206000D02*
G75*
G03X17661640Y-6206000I-40640J0D01*
G01*
X17661640Y-6460000D02*
G75*
G03X17661640Y-6460000I-40640J0D01*
G01*
X17661640Y-6714000D02*
G75*
G03X17661640Y-6714000I-40640J0D01*
G01*
X17661640Y-6968000D02*
G75*
G03X17661640Y-6968000I-40640J0D01*
G01*
X17661640Y-7492000D02*
G75*
G03X17661640Y-7492000I-40640J0D01*
G01*
X17661640Y-7746000D02*
G75*
G03X17661640Y-7746000I-40640J0D01*
G01*
X17661640Y-8000000D02*
G75*
G03X17661640Y-8000000I-40640J0D01*
G01*
X17661640Y-8254000D02*
G75*
G03X17661640Y-8254000I-40640J0D01*
G01*
X17661640Y-8508000D02*
G75*
G03X17661640Y-8508000I-40640J0D01*
G01*
X17671640Y-9132000D02*
G75*
G03X17671640Y-9132000I-40640J0D01*
G01*
X17671640Y-9386000D02*
G75*
G03X17671640Y-9386000I-40640J0D01*
G01*
X17671640Y-9640000D02*
G75*
G03X17671640Y-9640000I-40640J0D01*
G01*
X17671640Y-9894000D02*
G75*
G03X17671640Y-9894000I-40640J0D01*
G01*
X17671640Y-10148000D02*
G75*
G03X17671640Y-10148000I-40640J0D01*
G01*
X17681640Y-10792000D02*
G75*
G03X17681640Y-10792000I-40640J0D01*
G01*
X17681640Y-11046000D02*
G75*
G03X17681640Y-11046000I-40640J0D01*
G01*
X17681640Y-11300000D02*
G75*
G03X17681640Y-11300000I-40640J0D01*
G01*
X17681640Y-11554000D02*
G75*
G03X17681640Y-11554000I-40640J0D01*
G01*
X17681640Y-11808000D02*
G75*
G03X17681640Y-11808000I-40640J0D01*
G01*
X17681640Y-12342000D02*
G75*
G03X17681640Y-12342000I-40640J0D01*
G01*
X17681640Y-12596000D02*
G75*
G03X17681640Y-12596000I-40640J0D01*
G01*
X17681640Y-12850000D02*
G75*
G03X17681640Y-12850000I-40640J0D01*
G01*
X17681640Y-13104000D02*
G75*
G03X17681640Y-13104000I-40640J0D01*
G01*
X17681640Y-13358000D02*
G75*
G03X17681640Y-13358000I-40640J0D01*
G01*
X17802640Y-13729000D02*
G75*
G03X17802640Y-13729000I-40640J0D01*
G01*
X17802640Y-14491000D02*
G75*
G03X17802640Y-14491000I-40640J0D01*
G01*
X18056640Y-13729000D02*
G75*
G03X18056640Y-13729000I-40640J0D01*
G01*
X18056640Y-14491000D02*
G75*
G03X18056640Y-14491000I-40640J0D01*
G01*
X18310640Y-13729000D02*
G75*
G03X18310640Y-13729000I-40640J0D01*
G01*
X18310640Y-14491000D02*
G75*
G03X18310640Y-14491000I-40640J0D01*
G01*
X18564640Y-13729000D02*
G75*
G03X18564640Y-13729000I-40640J0D01*
G01*
X18564640Y-14491000D02*
G75*
G03X18564640Y-14491000I-40640J0D01*
G01*
X18818640Y-13729000D02*
G75*
G03X18818640Y-13729000I-40640J0D01*
G01*
X18818640Y-14491000D02*
G75*
G03X18818640Y-14491000I-40640J0D01*
G01*
X14860000Y-13935000D02*
X14860000Y-14025000D01*
X14815000Y-13980000D02*
X14905000Y-13980000D01*
X14860000Y-14189000D02*
X14860000Y-14279000D01*
X14815000Y-14234000D02*
X14905000Y-14234000D01*
X15114000Y-13935000D02*
X15114000Y-14025000D01*
X15069000Y-13980000D02*
X15159000Y-13980000D01*
X15114000Y-14189000D02*
X15114000Y-14279000D01*
X15069000Y-14234000D02*
X15159000Y-14234000D01*
X15368000Y-13935000D02*
X15368000Y-14025000D01*
X15323000Y-13980000D02*
X15413000Y-13980000D01*
X15368000Y-14189000D02*
X15368000Y-14279000D01*
X15323000Y-14234000D02*
X15413000Y-14234000D01*
X15622000Y-13935000D02*
X15622000Y-14025000D01*
X15577000Y-13980000D02*
X15667000Y-13980000D01*
X15622000Y-14189000D02*
X15622000Y-14279000D01*
X15577000Y-14234000D02*
X15667000Y-14234000D01*
X15876000Y-13935000D02*
X15876000Y-14025000D01*
X15831000Y-13980000D02*
X15921000Y-13980000D01*
X15876000Y-14189000D02*
X15876000Y-14279000D01*
X15831000Y-14234000D02*
X15921000Y-14234000D01*
X16130000Y-13935000D02*
X16130000Y-14025000D01*
X16085000Y-13980000D02*
X16175000Y-13980000D01*
X16130000Y-14189000D02*
X16130000Y-14279000D01*
X16085000Y-14234000D02*
X16175000Y-14234000D01*
X11085383Y-9925447D02*
X11085383Y-9854682D01*
X11014618Y-9854682D01*
X11014618Y-9925447D01*
X11085383Y-9925447D01*
X11085383Y-10425573D02*
X11085383Y-10354808D01*
X11014618Y-10354808D01*
X11014618Y-10425573D01*
X11085383Y-10425573D01*
X12801382Y-5625382D02*
X12801382Y-5554618D01*
X12730617Y-5554618D01*
X12730617Y-5625382D01*
X12801382Y-5625382D01*
X13055382Y-5625382D02*
X13055382Y-5554618D01*
X12984617Y-5554618D01*
X12984617Y-5625382D01*
X13055382Y-5625382D01*
X13309382Y-5625382D02*
X13309382Y-5554618D01*
X13238617Y-5554618D01*
X13238617Y-5625382D01*
X13309382Y-5625382D01*
X14274622Y-7199452D02*
X14274622Y-7128687D01*
X14203857Y-7128687D01*
X14203857Y-7199452D01*
X14274622Y-7199452D01*
X14274622Y-7758252D02*
X14274622Y-7687487D01*
X14203857Y-7687487D01*
X14203857Y-7758252D01*
X14274622Y-7758252D01*
X14325382Y-9775193D02*
X14325382Y-9704428D01*
X14254617Y-9704428D01*
X14254617Y-9775193D01*
X14325382Y-9775193D01*
X14325382Y-10275319D02*
X14325382Y-10204554D01*
X14254617Y-10204554D01*
X14254617Y-10275319D01*
X14325382Y-10275319D01*
X15655112Y-7205802D02*
X15655112Y-7135037D01*
X15584347Y-7135037D01*
X15584347Y-7205802D01*
X15655112Y-7205802D01*
X15655112Y-7764602D02*
X15655112Y-7693837D01*
X15584347Y-7693837D01*
X15584347Y-7764602D01*
X15655112Y-7764602D01*
X16072942Y-5511369D02*
X16072942Y-5440604D01*
X16002177Y-5440604D01*
X16002177Y-5511369D01*
X16072942Y-5511369D01*
X16072942Y-6527368D02*
X16072942Y-6456603D01*
X16002177Y-6456603D01*
X16002177Y-6527368D01*
X16072942Y-6527368D01*
X18045783Y-9714983D02*
X18045783Y-9644218D01*
X17975018Y-9644218D01*
X17975018Y-9714983D01*
X18045783Y-9714983D01*
X18055783Y-11314982D02*
X18055783Y-11244217D01*
X17985018Y-11244217D01*
X17985018Y-11314982D01*
X18055783Y-11314982D01*
X18065783Y-6474982D02*
X18065783Y-6404217D01*
X17995018Y-6404217D01*
X17995018Y-6474982D01*
X18065783Y-6474982D01*
X18065783Y-7974982D02*
X18065783Y-7904217D01*
X17995018Y-7904217D01*
X17995018Y-7974982D01*
X18065783Y-7974982D01*
X18166183Y-12815782D02*
X18166183Y-12745017D01*
X18095418Y-12745017D01*
X18095418Y-12815782D01*
X18166183Y-12815782D01*
X18604583Y-9714983D02*
X18604583Y-9644218D01*
X18533818Y-9644218D01*
X18533818Y-9714983D01*
X18604583Y-9714983D01*
X18614583Y-11314982D02*
X18614583Y-11244217D01*
X18543818Y-11244217D01*
X18543818Y-11314982D01*
X18614583Y-11314982D01*
X18624583Y-6474982D02*
X18624583Y-6404217D01*
X18553818Y-6404217D01*
X18553818Y-6474982D01*
X18624583Y-6474982D01*
X18624583Y-7974982D02*
X18624583Y-7904217D01*
X18553818Y-7904217D01*
X18553818Y-7974982D01*
X18624583Y-7974982D01*
X18724983Y-12815782D02*
X18724983Y-12745017D01*
X18654218Y-12745017D01*
X18654218Y-12815782D01*
X18724983Y-12815782D01*
X19065783Y-9734983D02*
X19065783Y-9664218D01*
X18995018Y-9664218D01*
X18995018Y-9734983D01*
X19065783Y-9734983D01*
X19075783Y-11324982D02*
X19075783Y-11254217D01*
X19005018Y-11254217D01*
X19005018Y-11324982D01*
X19075783Y-11324982D01*
X19085783Y-6474982D02*
X19085783Y-6404217D01*
X19015018Y-6404217D01*
X19015018Y-6474982D01*
X19085783Y-6474982D01*
X19085783Y-12824982D02*
X19085783Y-12754217D01*
X19015018Y-12754217D01*
X19015018Y-12824982D01*
X19085783Y-12824982D01*
X19105783Y-7974982D02*
X19105783Y-7904217D01*
X19035018Y-7904217D01*
X19035018Y-7974982D01*
X19105783Y-7974982D01*
X19624583Y-9734983D02*
X19624583Y-9664218D01*
X19553818Y-9664218D01*
X19553818Y-9734983D01*
X19624583Y-9734983D01*
X19634583Y-11324982D02*
X19634583Y-11254217D01*
X19563818Y-11254217D01*
X19563818Y-11324982D01*
X19634583Y-11324982D01*
X19644583Y-6474982D02*
X19644583Y-6404217D01*
X19573818Y-6404217D01*
X19573818Y-6474982D01*
X19644583Y-6474982D01*
X19644583Y-12824982D02*
X19644583Y-12754217D01*
X19573818Y-12754217D01*
X19573818Y-12824982D01*
X19644583Y-12824982D01*
X19664583Y-7974982D02*
X19664583Y-7904217D01*
X19593818Y-7904217D01*
X19593818Y-7974982D01*
X19664583Y-7974982D01*
X10473000Y-8320800D02*
X10523800Y-8270000D01*
X10473000Y-8219200D01*
X10422200Y-8270000D01*
X10473000Y-8320800D01*
X10493000Y-6290800D02*
X10543800Y-6240000D01*
X10493000Y-6189200D01*
X10442200Y-6240000D01*
X10493000Y-6290800D01*
X10727000Y-8320800D02*
X10777800Y-8270000D01*
X10727000Y-8219200D01*
X10676200Y-8270000D01*
X10727000Y-8320800D01*
X10747000Y-6290800D02*
X10797800Y-6240000D01*
X10747000Y-6189200D01*
X10696200Y-6240000D01*
X10747000Y-6290800D01*
X12363000Y-7940800D02*
X12413800Y-7890000D01*
X12363000Y-7839200D01*
X12312200Y-7890000D01*
X12363000Y-7940800D01*
X12617000Y-7940800D02*
X12667800Y-7890000D01*
X12617000Y-7839200D01*
X12566200Y-7890000D01*
X12617000Y-7940800D01*
X13064490Y-7975600D02*
X13115290Y-7924800D01*
X13064490Y-7874000D01*
X13013690Y-7924800D01*
X13064490Y-7975600D01*
X13064490Y-8229600D02*
X13115290Y-8178800D01*
X13064490Y-8128000D01*
X13013690Y-8178800D01*
X13064490Y-8229600D01*
X13590270Y-8164830D02*
X13641070Y-8114030D01*
X13590270Y-8063230D01*
X13539470Y-8114030D01*
X13590270Y-8164830D01*
X13590270Y-8418830D02*
X13641070Y-8368030D01*
X13590270Y-8317230D01*
X13539470Y-8368030D01*
X13590270Y-8418830D01*
X13844270Y-8164830D02*
X13895070Y-8114030D01*
X13844270Y-8063230D01*
X13793470Y-8114030D01*
X13844270Y-8164830D01*
X13844270Y-8418830D02*
X13895070Y-8368030D01*
X13844270Y-8317230D01*
X13793470Y-8368030D01*
X13844270Y-8418830D01*
X13858240Y-6048400D02*
X13909040Y-5997600D01*
X13858240Y-5946800D01*
X13807440Y-5997600D01*
X13858240Y-6048400D01*
X13858240Y-6848400D02*
X13909040Y-6797600D01*
X13858240Y-6746800D01*
X13807440Y-6797600D01*
X13858240Y-6848400D01*
X16983000Y-14620800D02*
X17033800Y-14570000D01*
X16983000Y-14519200D01*
X16932200Y-14570000D01*
X16983000Y-14620800D01*
X17237000Y-14620800D02*
X17287800Y-14570000D01*
X17237000Y-14519200D01*
X17186200Y-14570000D01*
X17237000Y-14620800D01*
X10563960Y-7023960D02*
X10696040Y-7156040D01*
X10696040Y-7023960D02*
X10563960Y-7156040D01*
X10696040Y-7090000D02*
G75*
G03X10696040Y-7090000I-66040J0D01*
G01*
X10563960Y-7523960D02*
X10696040Y-7656040D01*
X10696040Y-7523960D02*
X10563960Y-7656040D01*
X10696040Y-7590000D02*
G75*
G03X10696040Y-7590000I-66040J0D01*
G01*
X13783240Y-5522600D02*
X13933240Y-5672600D01*
X13933240Y-5522600D02*
X13783240Y-5672600D01*
X13858240Y-5522600D02*
X13858240Y-5672600D01*
X13783240Y-5597600D02*
X13933240Y-5597600D01*
X13783240Y-6322600D02*
X13933240Y-6472600D01*
X13933240Y-6322600D02*
X13783240Y-6472600D01*
X13858240Y-6322600D02*
X13858240Y-6472600D01*
X13783240Y-6397600D02*
X13933240Y-6397600D01*
X10219975Y-14379975D02*
X10620025Y-14780025D01*
X10620025Y-14379975D02*
X10219975Y-14780025D01*
X10561440Y-14721440D02*
X10561440Y-14438560D01*
X10278560Y-14438560D01*
X10278560Y-14721440D01*
X10561440Y-14721440D01*
X10229975Y-5229975D02*
X10630025Y-5630025D01*
X10630025Y-5229975D02*
X10229975Y-5630025D01*
X10571440Y-5571440D02*
X10571440Y-5288560D01*
X10288560Y-5288560D01*
X10288560Y-5571440D01*
X10571440Y-5571440D01*
X10239975Y-9039975D02*
X10640025Y-9440025D01*
X10640025Y-9039975D02*
X10239975Y-9440025D01*
X10581440Y-9381440D02*
X10581440Y-9098560D01*
X10298560Y-9098560D01*
X10298560Y-9381440D01*
X10581440Y-9381440D01*
X14439975Y-8209975D02*
X14840025Y-8610025D01*
X14840025Y-8209975D02*
X14439975Y-8610025D01*
X14781440Y-8551440D02*
X14781440Y-8268560D01*
X14498560Y-8268560D01*
X14498560Y-8551440D01*
X14781440Y-8551440D01*
X14459975Y-5179975D02*
X14860025Y-5580025D01*
X14860025Y-5179975D02*
X14459975Y-5580025D01*
X14801440Y-5521440D02*
X14801440Y-5238560D01*
X14518560Y-5238560D01*
X14518560Y-5521440D01*
X14801440Y-5521440D01*
X19359975Y-5229975D02*
X19760025Y-5630025D01*
X19760025Y-5229975D02*
X19359975Y-5630025D01*
X19701440Y-5571440D02*
X19701440Y-5288560D01*
X19418560Y-5288560D01*
X19418560Y-5571440D01*
X19701440Y-5571440D01*
X19359975Y-14369975D02*
X19760025Y-14770025D01*
X19760025Y-14369975D02*
X19359975Y-14770025D01*
X19701440Y-14711440D02*
X19701440Y-14428560D01*
X19418560Y-14428560D01*
X19418560Y-14711440D01*
X19701440Y-14711440D01*
X12720026Y-6820026D02*
X13319974Y-7419974D01*
X13319974Y-6820026D02*
X12720026Y-7419974D01*
X13020000Y-7419974D02*
X13319974Y-7120000D01*
X13020000Y-6820026D01*
X12720026Y-7120000D01*
X13020000Y-7419974D01*
D13*
X10266429Y-15470714D02*
X10266429Y-15170714D01*
X10337857Y-15170714D01*
X10380714Y-15185000D01*
X10409286Y-15213571D01*
X10423571Y-15242143D01*
X10437857Y-15299286D01*
X10437857Y-15342143D01*
X10423571Y-15399286D01*
X10409286Y-15427857D01*
X10380714Y-15456429D01*
X10337857Y-15470714D01*
X10266429Y-15470714D01*
X10566429Y-15470714D02*
X10566429Y-15270714D01*
X10566429Y-15327857D02*
X10580714Y-15299286D01*
X10595000Y-15285000D01*
X10623571Y-15270714D01*
X10652143Y-15270714D01*
X10752143Y-15470714D02*
X10752143Y-15270714D01*
X10752143Y-15170714D02*
X10737857Y-15185000D01*
X10752143Y-15199286D01*
X10766429Y-15185000D01*
X10752143Y-15170714D01*
X10752143Y-15199286D01*
X10937857Y-15470714D02*
X10909286Y-15456429D01*
X10895000Y-15427857D01*
X10895000Y-15170714D01*
X11095000Y-15470714D02*
X11066429Y-15456429D01*
X11052143Y-15427857D01*
X11052143Y-15170714D01*
X11437857Y-15470714D02*
X11437857Y-15170714D01*
X11537857Y-15385000D01*
X11637857Y-15170714D01*
X11637857Y-15470714D01*
X11909286Y-15470714D02*
X11909286Y-15313571D01*
X11895000Y-15285000D01*
X11866428Y-15270714D01*
X11809286Y-15270714D01*
X11780714Y-15285000D01*
X11909286Y-15456429D02*
X11880714Y-15470714D01*
X11809286Y-15470714D01*
X11780714Y-15456429D01*
X11766428Y-15427857D01*
X11766428Y-15399286D01*
X11780714Y-15370714D01*
X11809286Y-15356429D01*
X11880714Y-15356429D01*
X11909286Y-15342143D01*
X12052143Y-15270714D02*
X12052143Y-15570714D01*
X12052143Y-15285000D02*
X12080714Y-15270714D01*
X12137857Y-15270714D01*
X12166428Y-15285000D01*
X12180714Y-15299286D01*
X12195000Y-15327857D01*
X12195000Y-15413571D01*
X12180714Y-15442143D01*
X12166428Y-15456429D01*
X12137857Y-15470714D01*
X12080714Y-15470714D01*
X12052143Y-15456429D01*
X12323571Y-15442143D02*
X12337857Y-15456429D01*
X12323571Y-15470714D01*
X12309286Y-15456429D01*
X12323571Y-15442143D01*
X12323571Y-15470714D01*
X12323571Y-15285000D02*
X12337857Y-15299286D01*
X12323571Y-15313571D01*
X12309286Y-15299286D01*
X12323571Y-15285000D01*
X12323571Y-15313571D01*
X9931500Y-15933250D02*
X9995000Y-15996750D01*
X9995000Y-15933250D02*
X9931500Y-15996750D01*
X10323571Y-15800714D02*
X10352143Y-15800714D01*
X10380714Y-15815000D01*
X10395000Y-15829286D01*
X10409286Y-15857857D01*
X10423571Y-15915000D01*
X10423571Y-15986429D01*
X10409286Y-16043571D01*
X10395000Y-16072143D01*
X10380714Y-16086429D01*
X10352143Y-16100714D01*
X10323571Y-16100714D01*
X10295000Y-16086429D01*
X10280714Y-16072143D01*
X10266429Y-16043571D01*
X10252143Y-15986429D01*
X10252143Y-15915000D01*
X10266429Y-15857857D01*
X10280714Y-15829286D01*
X10295000Y-15815000D01*
X10323571Y-15800714D01*
X10552143Y-16072143D02*
X10566429Y-16086429D01*
X10552143Y-16100714D01*
X10537857Y-16086429D01*
X10552143Y-16072143D01*
X10552143Y-16100714D01*
X10823571Y-15800714D02*
X10766428Y-15800714D01*
X10737857Y-15815000D01*
X10723571Y-15829286D01*
X10695000Y-15872143D01*
X10680714Y-15929286D01*
X10680714Y-16043571D01*
X10695000Y-16072143D01*
X10709286Y-16086429D01*
X10737857Y-16100714D01*
X10795000Y-16100714D01*
X10823571Y-16086429D01*
X10837857Y-16072143D01*
X10852143Y-16043571D01*
X10852143Y-15972143D01*
X10837857Y-15943571D01*
X10823571Y-15929286D01*
X10795000Y-15915000D01*
X10737857Y-15915000D01*
X10709286Y-15929286D01*
X10695000Y-15943571D01*
X10680714Y-15972143D01*
X11109286Y-15900714D02*
X11109286Y-16100714D01*
X11037857Y-15786429D02*
X10966429Y-16000714D01*
X11152143Y-16000714D01*
X11266428Y-16100714D02*
X11266428Y-15900714D01*
X11266428Y-15929286D02*
X11280714Y-15915000D01*
X11309286Y-15900714D01*
X11352143Y-15900714D01*
X11380714Y-15915000D01*
X11395000Y-15943571D01*
X11395000Y-16100714D01*
X11395000Y-15943571D02*
X11409286Y-15915000D01*
X11437857Y-15900714D01*
X11480714Y-15900714D01*
X11509286Y-15915000D01*
X11523571Y-15943571D01*
X11523571Y-16100714D01*
X11666428Y-16100714D02*
X11666428Y-15900714D01*
X11666428Y-15929286D02*
X11680714Y-15915000D01*
X11709286Y-15900714D01*
X11752143Y-15900714D01*
X11780714Y-15915000D01*
X11795000Y-15943571D01*
X11795000Y-16100714D01*
X11795000Y-15943571D02*
X11809286Y-15915000D01*
X11837857Y-15900714D01*
X11880714Y-15900714D01*
X11909286Y-15915000D01*
X11923571Y-15943571D01*
X11923571Y-16100714D01*
X12509286Y-15786429D02*
X12252143Y-16172143D01*
X12895000Y-15800714D02*
X12923571Y-15800714D01*
X12952143Y-15815000D01*
X12966428Y-15829286D01*
X12980714Y-15857857D01*
X12995000Y-15915000D01*
X12995000Y-15986429D01*
X12980714Y-16043571D01*
X12966428Y-16072143D01*
X12952143Y-16086429D01*
X12923571Y-16100714D01*
X12895000Y-16100714D01*
X12866428Y-16086429D01*
X12852143Y-16072143D01*
X12837857Y-16043571D01*
X12823571Y-15986429D01*
X12823571Y-15915000D01*
X12837857Y-15857857D01*
X12852143Y-15829286D01*
X12866428Y-15815000D01*
X12895000Y-15800714D01*
X13123571Y-16072143D02*
X13137857Y-16086429D01*
X13123571Y-16100714D01*
X13109286Y-16086429D01*
X13123571Y-16072143D01*
X13123571Y-16100714D01*
X13323571Y-15800714D02*
X13352143Y-15800714D01*
X13380714Y-15815000D01*
X13395000Y-15829286D01*
X13409285Y-15857857D01*
X13423571Y-15915000D01*
X13423571Y-15986429D01*
X13409285Y-16043571D01*
X13395000Y-16072143D01*
X13380714Y-16086429D01*
X13352143Y-16100714D01*
X13323571Y-16100714D01*
X13295000Y-16086429D01*
X13280714Y-16072143D01*
X13266428Y-16043571D01*
X13252143Y-15986429D01*
X13252143Y-15915000D01*
X13266428Y-15857857D01*
X13280714Y-15829286D01*
X13295000Y-15815000D01*
X13323571Y-15800714D01*
X13537857Y-15829286D02*
X13552143Y-15815000D01*
X13580714Y-15800714D01*
X13652143Y-15800714D01*
X13680714Y-15815000D01*
X13695000Y-15829286D01*
X13709285Y-15857857D01*
X13709285Y-15886429D01*
X13695000Y-15929286D01*
X13523571Y-16100714D01*
X13709285Y-16100714D01*
X13980714Y-15800714D02*
X13837857Y-15800714D01*
X13823571Y-15943571D01*
X13837857Y-15929286D01*
X13866428Y-15915000D01*
X13937857Y-15915000D01*
X13966428Y-15929286D01*
X13980714Y-15943571D01*
X13995000Y-15972143D01*
X13995000Y-16043571D01*
X13980714Y-16072143D01*
X13966428Y-16086429D01*
X13937857Y-16100714D01*
X13866428Y-16100714D01*
X13837857Y-16086429D01*
X13823571Y-16072143D01*
X14109286Y-15800714D02*
X14109286Y-15857857D01*
X14223571Y-15800714D02*
X14223571Y-15857857D01*
X14666428Y-16215000D02*
X14652143Y-16200714D01*
X14623571Y-16157857D01*
X14609285Y-16129286D01*
X14595000Y-16086429D01*
X14580714Y-16015000D01*
X14580714Y-15957857D01*
X14595000Y-15886429D01*
X14609285Y-15843571D01*
X14623571Y-15815000D01*
X14652143Y-15772143D01*
X14666428Y-15757857D01*
X14937857Y-16100714D02*
X14766428Y-16100714D01*
X14852143Y-16100714D02*
X14852143Y-15800714D01*
X14823571Y-15843571D01*
X14795000Y-15872143D01*
X14766428Y-15886429D01*
X15052143Y-15829286D02*
X15066428Y-15815000D01*
X15095000Y-15800714D01*
X15166428Y-15800714D01*
X15195000Y-15815000D01*
X15209285Y-15829286D01*
X15223571Y-15857857D01*
X15223571Y-15886429D01*
X15209285Y-15929286D01*
X15037857Y-16100714D01*
X15223571Y-16100714D01*
X15366428Y-16100714D02*
X15423571Y-16100714D01*
X15452143Y-16086429D01*
X15466428Y-16072143D01*
X15495000Y-16029286D01*
X15509285Y-15972143D01*
X15509285Y-15857857D01*
X15495000Y-15829286D01*
X15480714Y-15815000D01*
X15452143Y-15800714D01*
X15395000Y-15800714D01*
X15366428Y-15815000D01*
X15352143Y-15829286D01*
X15337857Y-15857857D01*
X15337857Y-15929286D01*
X15352143Y-15957857D01*
X15366428Y-15972143D01*
X15395000Y-15986429D01*
X15452143Y-15986429D01*
X15480714Y-15972143D01*
X15495000Y-15957857D01*
X15509285Y-15929286D01*
X15866428Y-16100714D02*
X15866428Y-15800714D01*
X15995000Y-16100714D02*
X15995000Y-15943571D01*
X15980714Y-15915000D01*
X15952143Y-15900714D01*
X15909285Y-15900714D01*
X15880714Y-15915000D01*
X15866428Y-15929286D01*
X16180714Y-16100714D02*
X16152143Y-16086429D01*
X16137857Y-16072143D01*
X16123571Y-16043571D01*
X16123571Y-15957857D01*
X16137857Y-15929286D01*
X16152143Y-15915000D01*
X16180714Y-15900714D01*
X16223571Y-15900714D01*
X16252143Y-15915000D01*
X16266428Y-15929286D01*
X16280714Y-15957857D01*
X16280714Y-16043571D01*
X16266428Y-16072143D01*
X16252143Y-16086429D01*
X16223571Y-16100714D01*
X16180714Y-16100714D01*
X16452143Y-16100714D02*
X16423571Y-16086429D01*
X16409286Y-16057857D01*
X16409286Y-15800714D01*
X16680714Y-16086429D02*
X16652143Y-16100714D01*
X16595000Y-16100714D01*
X16566428Y-16086429D01*
X16552143Y-16057857D01*
X16552143Y-15943571D01*
X16566428Y-15915000D01*
X16595000Y-15900714D01*
X16652143Y-15900714D01*
X16680714Y-15915000D01*
X16695000Y-15943571D01*
X16695000Y-15972143D01*
X16552143Y-16000714D01*
X16809286Y-16086429D02*
X16837857Y-16100714D01*
X16895000Y-16100714D01*
X16923571Y-16086429D01*
X16937857Y-16057857D01*
X16937857Y-16043571D01*
X16923571Y-16015000D01*
X16895000Y-16000714D01*
X16852143Y-16000714D01*
X16823571Y-15986429D01*
X16809286Y-15957857D01*
X16809286Y-15943571D01*
X16823571Y-15915000D01*
X16852143Y-15900714D01*
X16895000Y-15900714D01*
X16923571Y-15915000D01*
X17037857Y-16215000D02*
X17052143Y-16200714D01*
X17080714Y-16157857D01*
X17095000Y-16129286D01*
X17109286Y-16086429D01*
X17123571Y-16015000D01*
X17123571Y-15957857D01*
X17109286Y-15886429D01*
X17095000Y-15843571D01*
X17080714Y-15815000D01*
X17052143Y-15772143D01*
X17037857Y-15757857D01*
X9995000Y-16361000D02*
G75*
G03X9995000Y-16361000I-40640J0D01*
G01*
X10323571Y-16196714D02*
X10352143Y-16196714D01*
X10380714Y-16211000D01*
X10395000Y-16225286D01*
X10409286Y-16253857D01*
X10423571Y-16311000D01*
X10423571Y-16382429D01*
X10409286Y-16439571D01*
X10395000Y-16468143D01*
X10380714Y-16482429D01*
X10352143Y-16496714D01*
X10323571Y-16496714D01*
X10295000Y-16482429D01*
X10280714Y-16468143D01*
X10266429Y-16439571D01*
X10252143Y-16382429D01*
X10252143Y-16311000D01*
X10266429Y-16253857D01*
X10280714Y-16225286D01*
X10295000Y-16211000D01*
X10323571Y-16196714D01*
X10552143Y-16468143D02*
X10566429Y-16482429D01*
X10552143Y-16496714D01*
X10537857Y-16482429D01*
X10552143Y-16468143D01*
X10552143Y-16496714D01*
X10737857Y-16325286D02*
X10709286Y-16311000D01*
X10695000Y-16296714D01*
X10680714Y-16268143D01*
X10680714Y-16253857D01*
X10695000Y-16225286D01*
X10709286Y-16211000D01*
X10737857Y-16196714D01*
X10795000Y-16196714D01*
X10823571Y-16211000D01*
X10837857Y-16225286D01*
X10852143Y-16253857D01*
X10852143Y-16268143D01*
X10837857Y-16296714D01*
X10823571Y-16311000D01*
X10795000Y-16325286D01*
X10737857Y-16325286D01*
X10709286Y-16339571D01*
X10695000Y-16353857D01*
X10680714Y-16382429D01*
X10680714Y-16439571D01*
X10695000Y-16468143D01*
X10709286Y-16482429D01*
X10737857Y-16496714D01*
X10795000Y-16496714D01*
X10823571Y-16482429D01*
X10837857Y-16468143D01*
X10852143Y-16439571D01*
X10852143Y-16382429D01*
X10837857Y-16353857D01*
X10823571Y-16339571D01*
X10795000Y-16325286D01*
X11137857Y-16496714D02*
X10966429Y-16496714D01*
X11052143Y-16496714D02*
X11052143Y-16196714D01*
X11023571Y-16239571D01*
X10995000Y-16268143D01*
X10966429Y-16282429D01*
X11266428Y-16496714D02*
X11266428Y-16296714D01*
X11266428Y-16325286D02*
X11280714Y-16311000D01*
X11309286Y-16296714D01*
X11352143Y-16296714D01*
X11380714Y-16311000D01*
X11395000Y-16339571D01*
X11395000Y-16496714D01*
X11395000Y-16339571D02*
X11409286Y-16311000D01*
X11437857Y-16296714D01*
X11480714Y-16296714D01*
X11509286Y-16311000D01*
X11523571Y-16339571D01*
X11523571Y-16496714D01*
X11666428Y-16496714D02*
X11666428Y-16296714D01*
X11666428Y-16325286D02*
X11680714Y-16311000D01*
X11709286Y-16296714D01*
X11752143Y-16296714D01*
X11780714Y-16311000D01*
X11795000Y-16339571D01*
X11795000Y-16496714D01*
X11795000Y-16339571D02*
X11809286Y-16311000D01*
X11837857Y-16296714D01*
X11880714Y-16296714D01*
X11909286Y-16311000D01*
X11923571Y-16339571D01*
X11923571Y-16496714D01*
X12509286Y-16182429D02*
X12252143Y-16568143D01*
X12895000Y-16196714D02*
X12923571Y-16196714D01*
X12952143Y-16211000D01*
X12966428Y-16225286D01*
X12980714Y-16253857D01*
X12995000Y-16311000D01*
X12995000Y-16382429D01*
X12980714Y-16439571D01*
X12966428Y-16468143D01*
X12952143Y-16482429D01*
X12923571Y-16496714D01*
X12895000Y-16496714D01*
X12866428Y-16482429D01*
X12852143Y-16468143D01*
X12837857Y-16439571D01*
X12823571Y-16382429D01*
X12823571Y-16311000D01*
X12837857Y-16253857D01*
X12852143Y-16225286D01*
X12866428Y-16211000D01*
X12895000Y-16196714D01*
X13123571Y-16468143D02*
X13137857Y-16482429D01*
X13123571Y-16496714D01*
X13109286Y-16482429D01*
X13123571Y-16468143D01*
X13123571Y-16496714D01*
X13323571Y-16196714D02*
X13352143Y-16196714D01*
X13380714Y-16211000D01*
X13395000Y-16225286D01*
X13409285Y-16253857D01*
X13423571Y-16311000D01*
X13423571Y-16382429D01*
X13409285Y-16439571D01*
X13395000Y-16468143D01*
X13380714Y-16482429D01*
X13352143Y-16496714D01*
X13323571Y-16496714D01*
X13295000Y-16482429D01*
X13280714Y-16468143D01*
X13266428Y-16439571D01*
X13252143Y-16382429D01*
X13252143Y-16311000D01*
X13266428Y-16253857D01*
X13280714Y-16225286D01*
X13295000Y-16211000D01*
X13323571Y-16196714D01*
X13523571Y-16196714D02*
X13709285Y-16196714D01*
X13609285Y-16311000D01*
X13652143Y-16311000D01*
X13680714Y-16325286D01*
X13695000Y-16339571D01*
X13709285Y-16368143D01*
X13709285Y-16439571D01*
X13695000Y-16468143D01*
X13680714Y-16482429D01*
X13652143Y-16496714D01*
X13566428Y-16496714D01*
X13537857Y-16482429D01*
X13523571Y-16468143D01*
X13823571Y-16225286D02*
X13837857Y-16211000D01*
X13866428Y-16196714D01*
X13937857Y-16196714D01*
X13966428Y-16211000D01*
X13980714Y-16225286D01*
X13995000Y-16253857D01*
X13995000Y-16282429D01*
X13980714Y-16325286D01*
X13809285Y-16496714D01*
X13995000Y-16496714D01*
X14109286Y-16196714D02*
X14109286Y-16253857D01*
X14223571Y-16196714D02*
X14223571Y-16253857D01*
X14666428Y-16611000D02*
X14652143Y-16596714D01*
X14623571Y-16553857D01*
X14609285Y-16525286D01*
X14595000Y-16482429D01*
X14580714Y-16411000D01*
X14580714Y-16353857D01*
X14595000Y-16282429D01*
X14609285Y-16239571D01*
X14623571Y-16211000D01*
X14652143Y-16168143D01*
X14666428Y-16153857D01*
X14752143Y-16196714D02*
X14952143Y-16196714D01*
X14823571Y-16496714D01*
X15037857Y-16196714D02*
X15223571Y-16196714D01*
X15123571Y-16311000D01*
X15166428Y-16311000D01*
X15195000Y-16325286D01*
X15209285Y-16339571D01*
X15223571Y-16368143D01*
X15223571Y-16439571D01*
X15209285Y-16468143D01*
X15195000Y-16482429D01*
X15166428Y-16496714D01*
X15080714Y-16496714D01*
X15052143Y-16482429D01*
X15037857Y-16468143D01*
X15580714Y-16496714D02*
X15580714Y-16196714D01*
X15709285Y-16496714D02*
X15709285Y-16339571D01*
X15695000Y-16311000D01*
X15666428Y-16296714D01*
X15623571Y-16296714D01*
X15595000Y-16311000D01*
X15580714Y-16325286D01*
X15895000Y-16496714D02*
X15866428Y-16482429D01*
X15852143Y-16468143D01*
X15837857Y-16439571D01*
X15837857Y-16353857D01*
X15852143Y-16325286D01*
X15866428Y-16311000D01*
X15895000Y-16296714D01*
X15937857Y-16296714D01*
X15966428Y-16311000D01*
X15980714Y-16325286D01*
X15995000Y-16353857D01*
X15995000Y-16439571D01*
X15980714Y-16468143D01*
X15966428Y-16482429D01*
X15937857Y-16496714D01*
X15895000Y-16496714D01*
X16166428Y-16496714D02*
X16137857Y-16482429D01*
X16123571Y-16453857D01*
X16123571Y-16196714D01*
X16395000Y-16482429D02*
X16366428Y-16496714D01*
X16309286Y-16496714D01*
X16280714Y-16482429D01*
X16266428Y-16453857D01*
X16266428Y-16339571D01*
X16280714Y-16311000D01*
X16309286Y-16296714D01*
X16366428Y-16296714D01*
X16395000Y-16311000D01*
X16409286Y-16339571D01*
X16409286Y-16368143D01*
X16266428Y-16396714D01*
X16523571Y-16482429D02*
X16552143Y-16496714D01*
X16609286Y-16496714D01*
X16637857Y-16482429D01*
X16652143Y-16453857D01*
X16652143Y-16439571D01*
X16637857Y-16411000D01*
X16609286Y-16396714D01*
X16566428Y-16396714D01*
X16537857Y-16382429D01*
X16523571Y-16353857D01*
X16523571Y-16339571D01*
X16537857Y-16311000D01*
X16566428Y-16296714D01*
X16609286Y-16296714D01*
X16637857Y-16311000D01*
X16752143Y-16611000D02*
X16766428Y-16596714D01*
X16795000Y-16553857D01*
X16809286Y-16525286D01*
X16823571Y-16482429D01*
X16837857Y-16411000D01*
X16837857Y-16353857D01*
X16823571Y-16282429D01*
X16809286Y-16239571D01*
X16795000Y-16211000D01*
X16766428Y-16168143D01*
X16752143Y-16153857D01*
X9950000Y-16712000D02*
X9950000Y-16802000D01*
X9905000Y-16757000D02*
X9995000Y-16757000D01*
X10323571Y-16592714D02*
X10352143Y-16592714D01*
X10380714Y-16607000D01*
X10395000Y-16621286D01*
X10409286Y-16649857D01*
X10423571Y-16707000D01*
X10423571Y-16778429D01*
X10409286Y-16835572D01*
X10395000Y-16864143D01*
X10380714Y-16878429D01*
X10352143Y-16892714D01*
X10323571Y-16892714D01*
X10295000Y-16878429D01*
X10280714Y-16864143D01*
X10266429Y-16835572D01*
X10252143Y-16778429D01*
X10252143Y-16707000D01*
X10266429Y-16649857D01*
X10280714Y-16621286D01*
X10295000Y-16607000D01*
X10323571Y-16592714D01*
X10552143Y-16864143D02*
X10566429Y-16878429D01*
X10552143Y-16892714D01*
X10537857Y-16878429D01*
X10552143Y-16864143D01*
X10552143Y-16892714D01*
X10709286Y-16892714D02*
X10766428Y-16892714D01*
X10795000Y-16878429D01*
X10809286Y-16864143D01*
X10837857Y-16821286D01*
X10852143Y-16764143D01*
X10852143Y-16649857D01*
X10837857Y-16621286D01*
X10823571Y-16607000D01*
X10795000Y-16592714D01*
X10737857Y-16592714D01*
X10709286Y-16607000D01*
X10695000Y-16621286D01*
X10680714Y-16649857D01*
X10680714Y-16721286D01*
X10695000Y-16749857D01*
X10709286Y-16764143D01*
X10737857Y-16778429D01*
X10795000Y-16778429D01*
X10823571Y-16764143D01*
X10837857Y-16749857D01*
X10852143Y-16721286D01*
X11037857Y-16592714D02*
X11066429Y-16592714D01*
X11095000Y-16607000D01*
X11109286Y-16621286D01*
X11123571Y-16649857D01*
X11137857Y-16707000D01*
X11137857Y-16778429D01*
X11123571Y-16835572D01*
X11109286Y-16864143D01*
X11095000Y-16878429D01*
X11066429Y-16892714D01*
X11037857Y-16892714D01*
X11009286Y-16878429D01*
X10995000Y-16864143D01*
X10980714Y-16835572D01*
X10966429Y-16778429D01*
X10966429Y-16707000D01*
X10980714Y-16649857D01*
X10995000Y-16621286D01*
X11009286Y-16607000D01*
X11037857Y-16592714D01*
X11266428Y-16892714D02*
X11266428Y-16692714D01*
X11266428Y-16721286D02*
X11280714Y-16707000D01*
X11309286Y-16692714D01*
X11352143Y-16692714D01*
X11380714Y-16707000D01*
X11395000Y-16735571D01*
X11395000Y-16892714D01*
X11395000Y-16735571D02*
X11409286Y-16707000D01*
X11437857Y-16692714D01*
X11480714Y-16692714D01*
X11509286Y-16707000D01*
X11523571Y-16735571D01*
X11523571Y-16892714D01*
X11666428Y-16892714D02*
X11666428Y-16692714D01*
X11666428Y-16721286D02*
X11680714Y-16707000D01*
X11709286Y-16692714D01*
X11752143Y-16692714D01*
X11780714Y-16707000D01*
X11795000Y-16735571D01*
X11795000Y-16892714D01*
X11795000Y-16735571D02*
X11809286Y-16707000D01*
X11837857Y-16692714D01*
X11880714Y-16692714D01*
X11909286Y-16707000D01*
X11923571Y-16735571D01*
X11923571Y-16892714D01*
X12509286Y-16578429D02*
X12252143Y-16964143D01*
X12895000Y-16592714D02*
X12923571Y-16592714D01*
X12952143Y-16607000D01*
X12966428Y-16621286D01*
X12980714Y-16649857D01*
X12995000Y-16707000D01*
X12995000Y-16778429D01*
X12980714Y-16835572D01*
X12966428Y-16864143D01*
X12952143Y-16878429D01*
X12923571Y-16892714D01*
X12895000Y-16892714D01*
X12866428Y-16878429D01*
X12852143Y-16864143D01*
X12837857Y-16835572D01*
X12823571Y-16778429D01*
X12823571Y-16707000D01*
X12837857Y-16649857D01*
X12852143Y-16621286D01*
X12866428Y-16607000D01*
X12895000Y-16592714D01*
X13123571Y-16864143D02*
X13137857Y-16878429D01*
X13123571Y-16892714D01*
X13109286Y-16878429D01*
X13123571Y-16864143D01*
X13123571Y-16892714D01*
X13323571Y-16592714D02*
X13352143Y-16592714D01*
X13380714Y-16607000D01*
X13395000Y-16621286D01*
X13409285Y-16649857D01*
X13423571Y-16707000D01*
X13423571Y-16778429D01*
X13409285Y-16835572D01*
X13395000Y-16864143D01*
X13380714Y-16878429D01*
X13352143Y-16892714D01*
X13323571Y-16892714D01*
X13295000Y-16878429D01*
X13280714Y-16864143D01*
X13266428Y-16835572D01*
X13252143Y-16778429D01*
X13252143Y-16707000D01*
X13266428Y-16649857D01*
X13280714Y-16621286D01*
X13295000Y-16607000D01*
X13323571Y-16592714D01*
X13523571Y-16592714D02*
X13709285Y-16592714D01*
X13609285Y-16707000D01*
X13652143Y-16707000D01*
X13680714Y-16721286D01*
X13695000Y-16735571D01*
X13709285Y-16764143D01*
X13709285Y-16835572D01*
X13695000Y-16864143D01*
X13680714Y-16878429D01*
X13652143Y-16892714D01*
X13566428Y-16892714D01*
X13537857Y-16878429D01*
X13523571Y-16864143D01*
X13980714Y-16592714D02*
X13837857Y-16592714D01*
X13823571Y-16735571D01*
X13837857Y-16721286D01*
X13866428Y-16707000D01*
X13937857Y-16707000D01*
X13966428Y-16721286D01*
X13980714Y-16735571D01*
X13995000Y-16764143D01*
X13995000Y-16835572D01*
X13980714Y-16864143D01*
X13966428Y-16878429D01*
X13937857Y-16892714D01*
X13866428Y-16892714D01*
X13837857Y-16878429D01*
X13823571Y-16864143D01*
X14109286Y-16592714D02*
X14109286Y-16649857D01*
X14223571Y-16592714D02*
X14223571Y-16649857D01*
X14666428Y-17007000D02*
X14652143Y-16992714D01*
X14623571Y-16949857D01*
X14609285Y-16921286D01*
X14595000Y-16878429D01*
X14580714Y-16807000D01*
X14580714Y-16749857D01*
X14595000Y-16678429D01*
X14609285Y-16635571D01*
X14623571Y-16607000D01*
X14652143Y-16564143D01*
X14666428Y-16549857D01*
X14937857Y-16892714D02*
X14766428Y-16892714D01*
X14852143Y-16892714D02*
X14852143Y-16592714D01*
X14823571Y-16635571D01*
X14795000Y-16664143D01*
X14766428Y-16678429D01*
X15052143Y-16621286D02*
X15066428Y-16607000D01*
X15095000Y-16592714D01*
X15166428Y-16592714D01*
X15195000Y-16607000D01*
X15209285Y-16621286D01*
X15223571Y-16649857D01*
X15223571Y-16678429D01*
X15209285Y-16721286D01*
X15037857Y-16892714D01*
X15223571Y-16892714D01*
X15580714Y-16892714D02*
X15580714Y-16592714D01*
X15709285Y-16892714D02*
X15709285Y-16735571D01*
X15695000Y-16707000D01*
X15666428Y-16692714D01*
X15623571Y-16692714D01*
X15595000Y-16707000D01*
X15580714Y-16721286D01*
X15895000Y-16892714D02*
X15866428Y-16878429D01*
X15852143Y-16864143D01*
X15837857Y-16835572D01*
X15837857Y-16749857D01*
X15852143Y-16721286D01*
X15866428Y-16707000D01*
X15895000Y-16692714D01*
X15937857Y-16692714D01*
X15966428Y-16707000D01*
X15980714Y-16721286D01*
X15995000Y-16749857D01*
X15995000Y-16835572D01*
X15980714Y-16864143D01*
X15966428Y-16878429D01*
X15937857Y-16892714D01*
X15895000Y-16892714D01*
X16166428Y-16892714D02*
X16137857Y-16878429D01*
X16123571Y-16849857D01*
X16123571Y-16592714D01*
X16395000Y-16878429D02*
X16366428Y-16892714D01*
X16309286Y-16892714D01*
X16280714Y-16878429D01*
X16266428Y-16849857D01*
X16266428Y-16735571D01*
X16280714Y-16707000D01*
X16309286Y-16692714D01*
X16366428Y-16692714D01*
X16395000Y-16707000D01*
X16409286Y-16735571D01*
X16409286Y-16764143D01*
X16266428Y-16792714D01*
X16523571Y-16878429D02*
X16552143Y-16892714D01*
X16609286Y-16892714D01*
X16637857Y-16878429D01*
X16652143Y-16849857D01*
X16652143Y-16835572D01*
X16637857Y-16807000D01*
X16609286Y-16792714D01*
X16566428Y-16792714D01*
X16537857Y-16778429D01*
X16523571Y-16749857D01*
X16523571Y-16735571D01*
X16537857Y-16707000D01*
X16566428Y-16692714D01*
X16609286Y-16692714D01*
X16637857Y-16707000D01*
X16752143Y-17007000D02*
X16766428Y-16992714D01*
X16795000Y-16949857D01*
X16809286Y-16921286D01*
X16823571Y-16878429D01*
X16837857Y-16807000D01*
X16837857Y-16749857D01*
X16823571Y-16678429D01*
X16809286Y-16635571D01*
X16795000Y-16607000D01*
X16766428Y-16564143D01*
X16752143Y-16549857D01*
X9980344Y-17188383D02*
X9980344Y-17117618D01*
X9909579Y-17117618D01*
X9909579Y-17188383D01*
X9980344Y-17188383D01*
X10423571Y-17288714D02*
X10252143Y-17288714D01*
X10337857Y-17288714D02*
X10337857Y-16988714D01*
X10309286Y-17031572D01*
X10280714Y-17060143D01*
X10252143Y-17074429D01*
X10552143Y-17260143D02*
X10566429Y-17274429D01*
X10552143Y-17288714D01*
X10537857Y-17274429D01*
X10552143Y-17260143D01*
X10552143Y-17288714D01*
X10752143Y-16988714D02*
X10780714Y-16988714D01*
X10809286Y-17003000D01*
X10823571Y-17017286D01*
X10837857Y-17045857D01*
X10852143Y-17103000D01*
X10852143Y-17174429D01*
X10837857Y-17231572D01*
X10823571Y-17260143D01*
X10809286Y-17274429D01*
X10780714Y-17288714D01*
X10752143Y-17288714D01*
X10723571Y-17274429D01*
X10709286Y-17260143D01*
X10695000Y-17231572D01*
X10680714Y-17174429D01*
X10680714Y-17103000D01*
X10695000Y-17045857D01*
X10709286Y-17017286D01*
X10723571Y-17003000D01*
X10752143Y-16988714D01*
X11037857Y-16988714D02*
X11066429Y-16988714D01*
X11095000Y-17003000D01*
X11109286Y-17017286D01*
X11123571Y-17045857D01*
X11137857Y-17103000D01*
X11137857Y-17174429D01*
X11123571Y-17231572D01*
X11109286Y-17260143D01*
X11095000Y-17274429D01*
X11066429Y-17288714D01*
X11037857Y-17288714D01*
X11009286Y-17274429D01*
X10995000Y-17260143D01*
X10980714Y-17231572D01*
X10966429Y-17174429D01*
X10966429Y-17103000D01*
X10980714Y-17045857D01*
X10995000Y-17017286D01*
X11009286Y-17003000D01*
X11037857Y-16988714D01*
X11266428Y-17288714D02*
X11266428Y-17088714D01*
X11266428Y-17117286D02*
X11280714Y-17103000D01*
X11309286Y-17088714D01*
X11352143Y-17088714D01*
X11380714Y-17103000D01*
X11395000Y-17131572D01*
X11395000Y-17288714D01*
X11395000Y-17131572D02*
X11409286Y-17103000D01*
X11437857Y-17088714D01*
X11480714Y-17088714D01*
X11509286Y-17103000D01*
X11523571Y-17131572D01*
X11523571Y-17288714D01*
X11666428Y-17288714D02*
X11666428Y-17088714D01*
X11666428Y-17117286D02*
X11680714Y-17103000D01*
X11709286Y-17088714D01*
X11752143Y-17088714D01*
X11780714Y-17103000D01*
X11795000Y-17131572D01*
X11795000Y-17288714D01*
X11795000Y-17131572D02*
X11809286Y-17103000D01*
X11837857Y-17088714D01*
X11880714Y-17088714D01*
X11909286Y-17103000D01*
X11923571Y-17131572D01*
X11923571Y-17288714D01*
X12509286Y-16974429D02*
X12252143Y-17360143D01*
X12895000Y-16988714D02*
X12923571Y-16988714D01*
X12952143Y-17003000D01*
X12966428Y-17017286D01*
X12980714Y-17045857D01*
X12995000Y-17103000D01*
X12995000Y-17174429D01*
X12980714Y-17231572D01*
X12966428Y-17260143D01*
X12952143Y-17274429D01*
X12923571Y-17288714D01*
X12895000Y-17288714D01*
X12866428Y-17274429D01*
X12852143Y-17260143D01*
X12837857Y-17231572D01*
X12823571Y-17174429D01*
X12823571Y-17103000D01*
X12837857Y-17045857D01*
X12852143Y-17017286D01*
X12866428Y-17003000D01*
X12895000Y-16988714D01*
X13123571Y-17260143D02*
X13137857Y-17274429D01*
X13123571Y-17288714D01*
X13109286Y-17274429D01*
X13123571Y-17260143D01*
X13123571Y-17288714D01*
X13323571Y-16988714D02*
X13352143Y-16988714D01*
X13380714Y-17003000D01*
X13395000Y-17017286D01*
X13409285Y-17045857D01*
X13423571Y-17103000D01*
X13423571Y-17174429D01*
X13409285Y-17231572D01*
X13395000Y-17260143D01*
X13380714Y-17274429D01*
X13352143Y-17288714D01*
X13323571Y-17288714D01*
X13295000Y-17274429D01*
X13280714Y-17260143D01*
X13266428Y-17231572D01*
X13252143Y-17174429D01*
X13252143Y-17103000D01*
X13266428Y-17045857D01*
X13280714Y-17017286D01*
X13295000Y-17003000D01*
X13323571Y-16988714D01*
X13523571Y-16988714D02*
X13709285Y-16988714D01*
X13609285Y-17103000D01*
X13652143Y-17103000D01*
X13680714Y-17117286D01*
X13695000Y-17131572D01*
X13709285Y-17160143D01*
X13709285Y-17231572D01*
X13695000Y-17260143D01*
X13680714Y-17274429D01*
X13652143Y-17288714D01*
X13566428Y-17288714D01*
X13537857Y-17274429D01*
X13523571Y-17260143D01*
X13852143Y-17288714D02*
X13909285Y-17288714D01*
X13937857Y-17274429D01*
X13952143Y-17260143D01*
X13980714Y-17217286D01*
X13995000Y-17160143D01*
X13995000Y-17045857D01*
X13980714Y-17017286D01*
X13966428Y-17003000D01*
X13937857Y-16988714D01*
X13880714Y-16988714D01*
X13852143Y-17003000D01*
X13837857Y-17017286D01*
X13823571Y-17045857D01*
X13823571Y-17117286D01*
X13837857Y-17145857D01*
X13852143Y-17160143D01*
X13880714Y-17174429D01*
X13937857Y-17174429D01*
X13966428Y-17160143D01*
X13980714Y-17145857D01*
X13995000Y-17117286D01*
X14109286Y-16988714D02*
X14109286Y-17045857D01*
X14223571Y-16988714D02*
X14223571Y-17045857D01*
X14666428Y-17403000D02*
X14652143Y-17388714D01*
X14623571Y-17345857D01*
X14609285Y-17317286D01*
X14595000Y-17274429D01*
X14580714Y-17203000D01*
X14580714Y-17145857D01*
X14595000Y-17074429D01*
X14609285Y-17031572D01*
X14623571Y-17003000D01*
X14652143Y-16960143D01*
X14666428Y-16945857D01*
X14752143Y-16988714D02*
X14937857Y-16988714D01*
X14837857Y-17103000D01*
X14880714Y-17103000D01*
X14909285Y-17117286D01*
X14923571Y-17131572D01*
X14937857Y-17160143D01*
X14937857Y-17231572D01*
X14923571Y-17260143D01*
X14909285Y-17274429D01*
X14880714Y-17288714D01*
X14795000Y-17288714D01*
X14766428Y-17274429D01*
X14752143Y-17260143D01*
X15037857Y-16988714D02*
X15223571Y-16988714D01*
X15123571Y-17103000D01*
X15166428Y-17103000D01*
X15195000Y-17117286D01*
X15209285Y-17131572D01*
X15223571Y-17160143D01*
X15223571Y-17231572D01*
X15209285Y-17260143D01*
X15195000Y-17274429D01*
X15166428Y-17288714D01*
X15080714Y-17288714D01*
X15052143Y-17274429D01*
X15037857Y-17260143D01*
X15580714Y-17288714D02*
X15580714Y-16988714D01*
X15709285Y-17288714D02*
X15709285Y-17131572D01*
X15695000Y-17103000D01*
X15666428Y-17088714D01*
X15623571Y-17088714D01*
X15595000Y-17103000D01*
X15580714Y-17117286D01*
X15895000Y-17288714D02*
X15866428Y-17274429D01*
X15852143Y-17260143D01*
X15837857Y-17231572D01*
X15837857Y-17145857D01*
X15852143Y-17117286D01*
X15866428Y-17103000D01*
X15895000Y-17088714D01*
X15937857Y-17088714D01*
X15966428Y-17103000D01*
X15980714Y-17117286D01*
X15995000Y-17145857D01*
X15995000Y-17231572D01*
X15980714Y-17260143D01*
X15966428Y-17274429D01*
X15937857Y-17288714D01*
X15895000Y-17288714D01*
X16166428Y-17288714D02*
X16137857Y-17274429D01*
X16123571Y-17245857D01*
X16123571Y-16988714D01*
X16395000Y-17274429D02*
X16366428Y-17288714D01*
X16309286Y-17288714D01*
X16280714Y-17274429D01*
X16266428Y-17245857D01*
X16266428Y-17131572D01*
X16280714Y-17103000D01*
X16309286Y-17088714D01*
X16366428Y-17088714D01*
X16395000Y-17103000D01*
X16409286Y-17131572D01*
X16409286Y-17160143D01*
X16266428Y-17188714D01*
X16523571Y-17274429D02*
X16552143Y-17288714D01*
X16609286Y-17288714D01*
X16637857Y-17274429D01*
X16652143Y-17245857D01*
X16652143Y-17231572D01*
X16637857Y-17203000D01*
X16609286Y-17188714D01*
X16566428Y-17188714D01*
X16537857Y-17174429D01*
X16523571Y-17145857D01*
X16523571Y-17131572D01*
X16537857Y-17103000D01*
X16566428Y-17088714D01*
X16609286Y-17088714D01*
X16637857Y-17103000D01*
X16752143Y-17403000D02*
X16766428Y-17388714D01*
X16795000Y-17345857D01*
X16809286Y-17317286D01*
X16823571Y-17274429D01*
X16837857Y-17203000D01*
X16837857Y-17145857D01*
X16823571Y-17074429D01*
X16809286Y-17031572D01*
X16795000Y-17003000D01*
X16766428Y-16960143D01*
X16752143Y-16945857D01*
X9944200Y-17599800D02*
X9995000Y-17549000D01*
X9944200Y-17498200D01*
X9893400Y-17549000D01*
X9944200Y-17599800D01*
X10423571Y-17684714D02*
X10252143Y-17684714D01*
X10337857Y-17684714D02*
X10337857Y-17384714D01*
X10309286Y-17427572D01*
X10280714Y-17456143D01*
X10252143Y-17470429D01*
X10552143Y-17656143D02*
X10566429Y-17670429D01*
X10552143Y-17684714D01*
X10537857Y-17670429D01*
X10552143Y-17656143D01*
X10552143Y-17684714D01*
X10752143Y-17384714D02*
X10780714Y-17384714D01*
X10809286Y-17399000D01*
X10823571Y-17413286D01*
X10837857Y-17441857D01*
X10852143Y-17499000D01*
X10852143Y-17570429D01*
X10837857Y-17627572D01*
X10823571Y-17656143D01*
X10809286Y-17670429D01*
X10780714Y-17684714D01*
X10752143Y-17684714D01*
X10723571Y-17670429D01*
X10709286Y-17656143D01*
X10695000Y-17627572D01*
X10680714Y-17570429D01*
X10680714Y-17499000D01*
X10695000Y-17441857D01*
X10709286Y-17413286D01*
X10723571Y-17399000D01*
X10752143Y-17384714D01*
X10966429Y-17413286D02*
X10980714Y-17399000D01*
X11009286Y-17384714D01*
X11080714Y-17384714D01*
X11109286Y-17399000D01*
X11123571Y-17413286D01*
X11137857Y-17441857D01*
X11137857Y-17470429D01*
X11123571Y-17513286D01*
X10952143Y-17684714D01*
X11137857Y-17684714D01*
X11266428Y-17684714D02*
X11266428Y-17484714D01*
X11266428Y-17513286D02*
X11280714Y-17499000D01*
X11309286Y-17484714D01*
X11352143Y-17484714D01*
X11380714Y-17499000D01*
X11395000Y-17527572D01*
X11395000Y-17684714D01*
X11395000Y-17527572D02*
X11409286Y-17499000D01*
X11437857Y-17484714D01*
X11480714Y-17484714D01*
X11509286Y-17499000D01*
X11523571Y-17527572D01*
X11523571Y-17684714D01*
X11666428Y-17684714D02*
X11666428Y-17484714D01*
X11666428Y-17513286D02*
X11680714Y-17499000D01*
X11709286Y-17484714D01*
X11752143Y-17484714D01*
X11780714Y-17499000D01*
X11795000Y-17527572D01*
X11795000Y-17684714D01*
X11795000Y-17527572D02*
X11809286Y-17499000D01*
X11837857Y-17484714D01*
X11880714Y-17484714D01*
X11909286Y-17499000D01*
X11923571Y-17527572D01*
X11923571Y-17684714D01*
X12509286Y-17370429D02*
X12252143Y-17756143D01*
X12895000Y-17384714D02*
X12923571Y-17384714D01*
X12952143Y-17399000D01*
X12966428Y-17413286D01*
X12980714Y-17441857D01*
X12995000Y-17499000D01*
X12995000Y-17570429D01*
X12980714Y-17627572D01*
X12966428Y-17656143D01*
X12952143Y-17670429D01*
X12923571Y-17684714D01*
X12895000Y-17684714D01*
X12866428Y-17670429D01*
X12852143Y-17656143D01*
X12837857Y-17627572D01*
X12823571Y-17570429D01*
X12823571Y-17499000D01*
X12837857Y-17441857D01*
X12852143Y-17413286D01*
X12866428Y-17399000D01*
X12895000Y-17384714D01*
X13123571Y-17656143D02*
X13137857Y-17670429D01*
X13123571Y-17684714D01*
X13109286Y-17670429D01*
X13123571Y-17656143D01*
X13123571Y-17684714D01*
X13323571Y-17384714D02*
X13352143Y-17384714D01*
X13380714Y-17399000D01*
X13395000Y-17413286D01*
X13409285Y-17441857D01*
X13423571Y-17499000D01*
X13423571Y-17570429D01*
X13409285Y-17627572D01*
X13395000Y-17656143D01*
X13380714Y-17670429D01*
X13352143Y-17684714D01*
X13323571Y-17684714D01*
X13295000Y-17670429D01*
X13280714Y-17656143D01*
X13266428Y-17627572D01*
X13252143Y-17570429D01*
X13252143Y-17499000D01*
X13266428Y-17441857D01*
X13280714Y-17413286D01*
X13295000Y-17399000D01*
X13323571Y-17384714D01*
X13680714Y-17484714D02*
X13680714Y-17684714D01*
X13609285Y-17370429D02*
X13537857Y-17584714D01*
X13723571Y-17584714D01*
X13895000Y-17384714D02*
X13923571Y-17384714D01*
X13952143Y-17399000D01*
X13966428Y-17413286D01*
X13980714Y-17441857D01*
X13995000Y-17499000D01*
X13995000Y-17570429D01*
X13980714Y-17627572D01*
X13966428Y-17656143D01*
X13952143Y-17670429D01*
X13923571Y-17684714D01*
X13895000Y-17684714D01*
X13866428Y-17670429D01*
X13852143Y-17656143D01*
X13837857Y-17627572D01*
X13823571Y-17570429D01*
X13823571Y-17499000D01*
X13837857Y-17441857D01*
X13852143Y-17413286D01*
X13866428Y-17399000D01*
X13895000Y-17384714D01*
X14109286Y-17384714D02*
X14109286Y-17441857D01*
X14223571Y-17384714D02*
X14223571Y-17441857D01*
X14666428Y-17799000D02*
X14652143Y-17784714D01*
X14623571Y-17741857D01*
X14609285Y-17713286D01*
X14595000Y-17670429D01*
X14580714Y-17599000D01*
X14580714Y-17541857D01*
X14595000Y-17470429D01*
X14609285Y-17427572D01*
X14623571Y-17399000D01*
X14652143Y-17356143D01*
X14666428Y-17341857D01*
X14937857Y-17684714D02*
X14766428Y-17684714D01*
X14852143Y-17684714D02*
X14852143Y-17384714D01*
X14823571Y-17427572D01*
X14795000Y-17456143D01*
X14766428Y-17470429D01*
X15195000Y-17384714D02*
X15137857Y-17384714D01*
X15109285Y-17399000D01*
X15095000Y-17413286D01*
X15066428Y-17456143D01*
X15052143Y-17513286D01*
X15052143Y-17627572D01*
X15066428Y-17656143D01*
X15080714Y-17670429D01*
X15109285Y-17684714D01*
X15166428Y-17684714D01*
X15195000Y-17670429D01*
X15209285Y-17656143D01*
X15223571Y-17627572D01*
X15223571Y-17556143D01*
X15209285Y-17527572D01*
X15195000Y-17513286D01*
X15166428Y-17499000D01*
X15109285Y-17499000D01*
X15080714Y-17513286D01*
X15066428Y-17527572D01*
X15052143Y-17556143D01*
X15580714Y-17684714D02*
X15580714Y-17384714D01*
X15709285Y-17684714D02*
X15709285Y-17527572D01*
X15695000Y-17499000D01*
X15666428Y-17484714D01*
X15623571Y-17484714D01*
X15595000Y-17499000D01*
X15580714Y-17513286D01*
X15895000Y-17684714D02*
X15866428Y-17670429D01*
X15852143Y-17656143D01*
X15837857Y-17627572D01*
X15837857Y-17541857D01*
X15852143Y-17513286D01*
X15866428Y-17499000D01*
X15895000Y-17484714D01*
X15937857Y-17484714D01*
X15966428Y-17499000D01*
X15980714Y-17513286D01*
X15995000Y-17541857D01*
X15995000Y-17627572D01*
X15980714Y-17656143D01*
X15966428Y-17670429D01*
X15937857Y-17684714D01*
X15895000Y-17684714D01*
X16166428Y-17684714D02*
X16137857Y-17670429D01*
X16123571Y-17641857D01*
X16123571Y-17384714D01*
X16395000Y-17670429D02*
X16366428Y-17684714D01*
X16309286Y-17684714D01*
X16280714Y-17670429D01*
X16266428Y-17641857D01*
X16266428Y-17527572D01*
X16280714Y-17499000D01*
X16309286Y-17484714D01*
X16366428Y-17484714D01*
X16395000Y-17499000D01*
X16409286Y-17527572D01*
X16409286Y-17556143D01*
X16266428Y-17584714D01*
X16523571Y-17670429D02*
X16552143Y-17684714D01*
X16609286Y-17684714D01*
X16637857Y-17670429D01*
X16652143Y-17641857D01*
X16652143Y-17627572D01*
X16637857Y-17599000D01*
X16609286Y-17584714D01*
X16566428Y-17584714D01*
X16537857Y-17570429D01*
X16523571Y-17541857D01*
X16523571Y-17527572D01*
X16537857Y-17499000D01*
X16566428Y-17484714D01*
X16609286Y-17484714D01*
X16637857Y-17499000D01*
X16752143Y-17799000D02*
X16766428Y-17784714D01*
X16795000Y-17741857D01*
X16809286Y-17713286D01*
X16823571Y-17670429D01*
X16837857Y-17599000D01*
X16837857Y-17541857D01*
X16823571Y-17470429D01*
X16809286Y-17427572D01*
X16795000Y-17399000D01*
X16766428Y-17356143D01*
X16752143Y-17341857D01*
X9862920Y-17878960D02*
X9995000Y-18011040D01*
X9995000Y-17878960D02*
X9862920Y-18011040D01*
X9995000Y-17945000D02*
G75*
G03X9995000Y-17945000I-66040J0D01*
G01*
X10423571Y-18080714D02*
X10252143Y-18080714D01*
X10337857Y-18080714D02*
X10337857Y-17780714D01*
X10309286Y-17823572D01*
X10280714Y-17852143D01*
X10252143Y-17866429D01*
X10552143Y-18052143D02*
X10566429Y-18066429D01*
X10552143Y-18080714D01*
X10537857Y-18066429D01*
X10552143Y-18052143D01*
X10552143Y-18080714D01*
X10666428Y-17780714D02*
X10852143Y-17780714D01*
X10752143Y-17895000D01*
X10795000Y-17895000D01*
X10823571Y-17909286D01*
X10837857Y-17923572D01*
X10852143Y-17952143D01*
X10852143Y-18023572D01*
X10837857Y-18052143D01*
X10823571Y-18066429D01*
X10795000Y-18080714D01*
X10709286Y-18080714D01*
X10680714Y-18066429D01*
X10666428Y-18052143D01*
X10966429Y-17809286D02*
X10980714Y-17795000D01*
X11009286Y-17780714D01*
X11080714Y-17780714D01*
X11109286Y-17795000D01*
X11123571Y-17809286D01*
X11137857Y-17837857D01*
X11137857Y-17866429D01*
X11123571Y-17909286D01*
X10952143Y-18080714D01*
X11137857Y-18080714D01*
X11266428Y-18080714D02*
X11266428Y-17880714D01*
X11266428Y-17909286D02*
X11280714Y-17895000D01*
X11309286Y-17880714D01*
X11352143Y-17880714D01*
X11380714Y-17895000D01*
X11395000Y-17923572D01*
X11395000Y-18080714D01*
X11395000Y-17923572D02*
X11409286Y-17895000D01*
X11437857Y-17880714D01*
X11480714Y-17880714D01*
X11509286Y-17895000D01*
X11523571Y-17923572D01*
X11523571Y-18080714D01*
X11666428Y-18080714D02*
X11666428Y-17880714D01*
X11666428Y-17909286D02*
X11680714Y-17895000D01*
X11709286Y-17880714D01*
X11752143Y-17880714D01*
X11780714Y-17895000D01*
X11795000Y-17923572D01*
X11795000Y-18080714D01*
X11795000Y-17923572D02*
X11809286Y-17895000D01*
X11837857Y-17880714D01*
X11880714Y-17880714D01*
X11909286Y-17895000D01*
X11923571Y-17923572D01*
X11923571Y-18080714D01*
X12509286Y-17766429D02*
X12252143Y-18152143D01*
X12895000Y-17780714D02*
X12923571Y-17780714D01*
X12952143Y-17795000D01*
X12966428Y-17809286D01*
X12980714Y-17837857D01*
X12995000Y-17895000D01*
X12995000Y-17966429D01*
X12980714Y-18023572D01*
X12966428Y-18052143D01*
X12952143Y-18066429D01*
X12923571Y-18080714D01*
X12895000Y-18080714D01*
X12866428Y-18066429D01*
X12852143Y-18052143D01*
X12837857Y-18023572D01*
X12823571Y-17966429D01*
X12823571Y-17895000D01*
X12837857Y-17837857D01*
X12852143Y-17809286D01*
X12866428Y-17795000D01*
X12895000Y-17780714D01*
X13123571Y-18052143D02*
X13137857Y-18066429D01*
X13123571Y-18080714D01*
X13109286Y-18066429D01*
X13123571Y-18052143D01*
X13123571Y-18080714D01*
X13323571Y-17780714D02*
X13352143Y-17780714D01*
X13380714Y-17795000D01*
X13395000Y-17809286D01*
X13409285Y-17837857D01*
X13423571Y-17895000D01*
X13423571Y-17966429D01*
X13409285Y-18023572D01*
X13395000Y-18052143D01*
X13380714Y-18066429D01*
X13352143Y-18080714D01*
X13323571Y-18080714D01*
X13295000Y-18066429D01*
X13280714Y-18052143D01*
X13266428Y-18023572D01*
X13252143Y-17966429D01*
X13252143Y-17895000D01*
X13266428Y-17837857D01*
X13280714Y-17809286D01*
X13295000Y-17795000D01*
X13323571Y-17780714D01*
X13695000Y-17780714D02*
X13552143Y-17780714D01*
X13537857Y-17923572D01*
X13552143Y-17909286D01*
X13580714Y-17895000D01*
X13652143Y-17895000D01*
X13680714Y-17909286D01*
X13695000Y-17923572D01*
X13709285Y-17952143D01*
X13709285Y-18023572D01*
X13695000Y-18052143D01*
X13680714Y-18066429D01*
X13652143Y-18080714D01*
X13580714Y-18080714D01*
X13552143Y-18066429D01*
X13537857Y-18052143D01*
X13823571Y-17809286D02*
X13837857Y-17795000D01*
X13866428Y-17780714D01*
X13937857Y-17780714D01*
X13966428Y-17795000D01*
X13980714Y-17809286D01*
X13995000Y-17837857D01*
X13995000Y-17866429D01*
X13980714Y-17909286D01*
X13809285Y-18080714D01*
X13995000Y-18080714D01*
X14109286Y-17780714D02*
X14109286Y-17837857D01*
X14223571Y-17780714D02*
X14223571Y-17837857D01*
X14666428Y-18195000D02*
X14652143Y-18180714D01*
X14623571Y-18137857D01*
X14609285Y-18109286D01*
X14595000Y-18066429D01*
X14580714Y-17995000D01*
X14580714Y-17937857D01*
X14595000Y-17866429D01*
X14609285Y-17823572D01*
X14623571Y-17795000D01*
X14652143Y-17752143D01*
X14666428Y-17737857D01*
X14766428Y-17809286D02*
X14780714Y-17795000D01*
X14809285Y-17780714D01*
X14880714Y-17780714D01*
X14909285Y-17795000D01*
X14923571Y-17809286D01*
X14937857Y-17837857D01*
X14937857Y-17866429D01*
X14923571Y-17909286D01*
X14752143Y-18080714D01*
X14937857Y-18080714D01*
X15295000Y-18080714D02*
X15295000Y-17780714D01*
X15423571Y-18080714D02*
X15423571Y-17923572D01*
X15409285Y-17895000D01*
X15380714Y-17880714D01*
X15337857Y-17880714D01*
X15309285Y-17895000D01*
X15295000Y-17909286D01*
X15609285Y-18080714D02*
X15580714Y-18066429D01*
X15566428Y-18052143D01*
X15552143Y-18023572D01*
X15552143Y-17937857D01*
X15566428Y-17909286D01*
X15580714Y-17895000D01*
X15609285Y-17880714D01*
X15652143Y-17880714D01*
X15680714Y-17895000D01*
X15695000Y-17909286D01*
X15709285Y-17937857D01*
X15709285Y-18023572D01*
X15695000Y-18052143D01*
X15680714Y-18066429D01*
X15652143Y-18080714D01*
X15609285Y-18080714D01*
X15880714Y-18080714D02*
X15852143Y-18066429D01*
X15837857Y-18037857D01*
X15837857Y-17780714D01*
X16109286Y-18066429D02*
X16080714Y-18080714D01*
X16023571Y-18080714D01*
X15995000Y-18066429D01*
X15980714Y-18037857D01*
X15980714Y-17923572D01*
X15995000Y-17895000D01*
X16023571Y-17880714D01*
X16080714Y-17880714D01*
X16109286Y-17895000D01*
X16123571Y-17923572D01*
X16123571Y-17952143D01*
X15980714Y-17980714D01*
X16237857Y-18066429D02*
X16266428Y-18080714D01*
X16323571Y-18080714D01*
X16352143Y-18066429D01*
X16366428Y-18037857D01*
X16366428Y-18023572D01*
X16352143Y-17995000D01*
X16323571Y-17980714D01*
X16280714Y-17980714D01*
X16252143Y-17966429D01*
X16237857Y-17937857D01*
X16237857Y-17923572D01*
X16252143Y-17895000D01*
X16280714Y-17880714D01*
X16323571Y-17880714D01*
X16352143Y-17895000D01*
X16466428Y-18195000D02*
X16480714Y-18180714D01*
X16509286Y-18137857D01*
X16523571Y-18109286D01*
X16537857Y-18066429D01*
X16552143Y-17995000D01*
X16552143Y-17937857D01*
X16537857Y-17866429D01*
X16523571Y-17823572D01*
X16509286Y-17795000D01*
X16480714Y-17752143D01*
X16466428Y-17737857D01*
X9845000Y-18266000D02*
X9995000Y-18416000D01*
X9995000Y-18266000D02*
X9845000Y-18416000D01*
X9920000Y-18266000D02*
X9920000Y-18416000D01*
X9845000Y-18341000D02*
X9995000Y-18341000D01*
X10423571Y-18476714D02*
X10252143Y-18476714D01*
X10337857Y-18476714D02*
X10337857Y-18176714D01*
X10309286Y-18219572D01*
X10280714Y-18248143D01*
X10252143Y-18262429D01*
X10552143Y-18448143D02*
X10566429Y-18462429D01*
X10552143Y-18476714D01*
X10537857Y-18462429D01*
X10552143Y-18448143D01*
X10552143Y-18476714D01*
X10837857Y-18176714D02*
X10695000Y-18176714D01*
X10680714Y-18319572D01*
X10695000Y-18305286D01*
X10723571Y-18291000D01*
X10795000Y-18291000D01*
X10823571Y-18305286D01*
X10837857Y-18319572D01*
X10852143Y-18348143D01*
X10852143Y-18419572D01*
X10837857Y-18448143D01*
X10823571Y-18462429D01*
X10795000Y-18476714D01*
X10723571Y-18476714D01*
X10695000Y-18462429D01*
X10680714Y-18448143D01*
X11037857Y-18176714D02*
X11066429Y-18176714D01*
X11095000Y-18191000D01*
X11109286Y-18205286D01*
X11123571Y-18233857D01*
X11137857Y-18291000D01*
X11137857Y-18362429D01*
X11123571Y-18419572D01*
X11109286Y-18448143D01*
X11095000Y-18462429D01*
X11066429Y-18476714D01*
X11037857Y-18476714D01*
X11009286Y-18462429D01*
X10995000Y-18448143D01*
X10980714Y-18419572D01*
X10966429Y-18362429D01*
X10966429Y-18291000D01*
X10980714Y-18233857D01*
X10995000Y-18205286D01*
X11009286Y-18191000D01*
X11037857Y-18176714D01*
X11266428Y-18476714D02*
X11266428Y-18276714D01*
X11266428Y-18305286D02*
X11280714Y-18291000D01*
X11309286Y-18276714D01*
X11352143Y-18276714D01*
X11380714Y-18291000D01*
X11395000Y-18319572D01*
X11395000Y-18476714D01*
X11395000Y-18319572D02*
X11409286Y-18291000D01*
X11437857Y-18276714D01*
X11480714Y-18276714D01*
X11509286Y-18291000D01*
X11523571Y-18319572D01*
X11523571Y-18476714D01*
X11666428Y-18476714D02*
X11666428Y-18276714D01*
X11666428Y-18305286D02*
X11680714Y-18291000D01*
X11709286Y-18276714D01*
X11752143Y-18276714D01*
X11780714Y-18291000D01*
X11795000Y-18319572D01*
X11795000Y-18476714D01*
X11795000Y-18319572D02*
X11809286Y-18291000D01*
X11837857Y-18276714D01*
X11880714Y-18276714D01*
X11909286Y-18291000D01*
X11923571Y-18319572D01*
X11923571Y-18476714D01*
X12509286Y-18162429D02*
X12252143Y-18548143D01*
X12895000Y-18176714D02*
X12923571Y-18176714D01*
X12952143Y-18191000D01*
X12966428Y-18205286D01*
X12980714Y-18233857D01*
X12995000Y-18291000D01*
X12995000Y-18362429D01*
X12980714Y-18419572D01*
X12966428Y-18448143D01*
X12952143Y-18462429D01*
X12923571Y-18476714D01*
X12895000Y-18476714D01*
X12866428Y-18462429D01*
X12852143Y-18448143D01*
X12837857Y-18419572D01*
X12823571Y-18362429D01*
X12823571Y-18291000D01*
X12837857Y-18233857D01*
X12852143Y-18205286D01*
X12866428Y-18191000D01*
X12895000Y-18176714D01*
X13123571Y-18448143D02*
X13137857Y-18462429D01*
X13123571Y-18476714D01*
X13109286Y-18462429D01*
X13123571Y-18448143D01*
X13123571Y-18476714D01*
X13323571Y-18176714D02*
X13352143Y-18176714D01*
X13380714Y-18191000D01*
X13395000Y-18205286D01*
X13409285Y-18233857D01*
X13423571Y-18291000D01*
X13423571Y-18362429D01*
X13409285Y-18419572D01*
X13395000Y-18448143D01*
X13380714Y-18462429D01*
X13352143Y-18476714D01*
X13323571Y-18476714D01*
X13295000Y-18462429D01*
X13280714Y-18448143D01*
X13266428Y-18419572D01*
X13252143Y-18362429D01*
X13252143Y-18291000D01*
X13266428Y-18233857D01*
X13280714Y-18205286D01*
X13295000Y-18191000D01*
X13323571Y-18176714D01*
X13695000Y-18176714D02*
X13552143Y-18176714D01*
X13537857Y-18319572D01*
X13552143Y-18305286D01*
X13580714Y-18291000D01*
X13652143Y-18291000D01*
X13680714Y-18305286D01*
X13695000Y-18319572D01*
X13709285Y-18348143D01*
X13709285Y-18419572D01*
X13695000Y-18448143D01*
X13680714Y-18462429D01*
X13652143Y-18476714D01*
X13580714Y-18476714D01*
X13552143Y-18462429D01*
X13537857Y-18448143D01*
X13852143Y-18476714D02*
X13909285Y-18476714D01*
X13937857Y-18462429D01*
X13952143Y-18448143D01*
X13980714Y-18405286D01*
X13995000Y-18348143D01*
X13995000Y-18233857D01*
X13980714Y-18205286D01*
X13966428Y-18191000D01*
X13937857Y-18176714D01*
X13880714Y-18176714D01*
X13852143Y-18191000D01*
X13837857Y-18205286D01*
X13823571Y-18233857D01*
X13823571Y-18305286D01*
X13837857Y-18333857D01*
X13852143Y-18348143D01*
X13880714Y-18362429D01*
X13937857Y-18362429D01*
X13966428Y-18348143D01*
X13980714Y-18333857D01*
X13995000Y-18305286D01*
X14109286Y-18176714D02*
X14109286Y-18233857D01*
X14223571Y-18176714D02*
X14223571Y-18233857D01*
X14666428Y-18591000D02*
X14652143Y-18576714D01*
X14623571Y-18533857D01*
X14609285Y-18505286D01*
X14595000Y-18462429D01*
X14580714Y-18391000D01*
X14580714Y-18333857D01*
X14595000Y-18262429D01*
X14609285Y-18219572D01*
X14623571Y-18191000D01*
X14652143Y-18148143D01*
X14666428Y-18133857D01*
X14766428Y-18205286D02*
X14780714Y-18191000D01*
X14809285Y-18176714D01*
X14880714Y-18176714D01*
X14909285Y-18191000D01*
X14923571Y-18205286D01*
X14937857Y-18233857D01*
X14937857Y-18262429D01*
X14923571Y-18305286D01*
X14752143Y-18476714D01*
X14937857Y-18476714D01*
X15295000Y-18476714D02*
X15295000Y-18176714D01*
X15423571Y-18476714D02*
X15423571Y-18319572D01*
X15409285Y-18291000D01*
X15380714Y-18276714D01*
X15337857Y-18276714D01*
X15309285Y-18291000D01*
X15295000Y-18305286D01*
X15609285Y-18476714D02*
X15580714Y-18462429D01*
X15566428Y-18448143D01*
X15552143Y-18419572D01*
X15552143Y-18333857D01*
X15566428Y-18305286D01*
X15580714Y-18291000D01*
X15609285Y-18276714D01*
X15652143Y-18276714D01*
X15680714Y-18291000D01*
X15695000Y-18305286D01*
X15709285Y-18333857D01*
X15709285Y-18419572D01*
X15695000Y-18448143D01*
X15680714Y-18462429D01*
X15652143Y-18476714D01*
X15609285Y-18476714D01*
X15880714Y-18476714D02*
X15852143Y-18462429D01*
X15837857Y-18433857D01*
X15837857Y-18176714D01*
X16109286Y-18462429D02*
X16080714Y-18476714D01*
X16023571Y-18476714D01*
X15995000Y-18462429D01*
X15980714Y-18433857D01*
X15980714Y-18319572D01*
X15995000Y-18291000D01*
X16023571Y-18276714D01*
X16080714Y-18276714D01*
X16109286Y-18291000D01*
X16123571Y-18319572D01*
X16123571Y-18348143D01*
X15980714Y-18376714D01*
X16237857Y-18462429D02*
X16266428Y-18476714D01*
X16323571Y-18476714D01*
X16352143Y-18462429D01*
X16366428Y-18433857D01*
X16366428Y-18419572D01*
X16352143Y-18391000D01*
X16323571Y-18376714D01*
X16280714Y-18376714D01*
X16252143Y-18362429D01*
X16237857Y-18333857D01*
X16237857Y-18319572D01*
X16252143Y-18291000D01*
X16280714Y-18276714D01*
X16323571Y-18276714D01*
X16352143Y-18291000D01*
X16466428Y-18591000D02*
X16480714Y-18576714D01*
X16509286Y-18533857D01*
X16523571Y-18505286D01*
X16537857Y-18462429D01*
X16552143Y-18391000D01*
X16552143Y-18333857D01*
X16537857Y-18262429D01*
X16523571Y-18219572D01*
X16509286Y-18191000D01*
X16480714Y-18148143D01*
X16466428Y-18133857D01*
X9594950Y-18536975D02*
X9995000Y-18937025D01*
X9995000Y-18536975D02*
X9594950Y-18937025D01*
X9936415Y-18878441D02*
X9936415Y-18595560D01*
X9653535Y-18595560D01*
X9653535Y-18878441D01*
X9936415Y-18878441D01*
X10395000Y-18672714D02*
X10395000Y-18872714D01*
X10323571Y-18558429D02*
X10252143Y-18772714D01*
X10437857Y-18772714D01*
X10552143Y-18844143D02*
X10566429Y-18858429D01*
X10552143Y-18872714D01*
X10537857Y-18858429D01*
X10552143Y-18844143D01*
X10552143Y-18872714D01*
X10752143Y-18572714D02*
X10780714Y-18572714D01*
X10809286Y-18587000D01*
X10823571Y-18601286D01*
X10837857Y-18629857D01*
X10852143Y-18687000D01*
X10852143Y-18758429D01*
X10837857Y-18815572D01*
X10823571Y-18844143D01*
X10809286Y-18858429D01*
X10780714Y-18872714D01*
X10752143Y-18872714D01*
X10723571Y-18858429D01*
X10709286Y-18844143D01*
X10695000Y-18815572D01*
X10680714Y-18758429D01*
X10680714Y-18687000D01*
X10695000Y-18629857D01*
X10709286Y-18601286D01*
X10723571Y-18587000D01*
X10752143Y-18572714D01*
X11037857Y-18572714D02*
X11066429Y-18572714D01*
X11095000Y-18587000D01*
X11109286Y-18601286D01*
X11123571Y-18629857D01*
X11137857Y-18687000D01*
X11137857Y-18758429D01*
X11123571Y-18815572D01*
X11109286Y-18844143D01*
X11095000Y-18858429D01*
X11066429Y-18872714D01*
X11037857Y-18872714D01*
X11009286Y-18858429D01*
X10995000Y-18844143D01*
X10980714Y-18815572D01*
X10966429Y-18758429D01*
X10966429Y-18687000D01*
X10980714Y-18629857D01*
X10995000Y-18601286D01*
X11009286Y-18587000D01*
X11037857Y-18572714D01*
X11266428Y-18872714D02*
X11266428Y-18672714D01*
X11266428Y-18701286D02*
X11280714Y-18687000D01*
X11309286Y-18672714D01*
X11352143Y-18672714D01*
X11380714Y-18687000D01*
X11395000Y-18715572D01*
X11395000Y-18872714D01*
X11395000Y-18715572D02*
X11409286Y-18687000D01*
X11437857Y-18672714D01*
X11480714Y-18672714D01*
X11509286Y-18687000D01*
X11523571Y-18715572D01*
X11523571Y-18872714D01*
X11666428Y-18872714D02*
X11666428Y-18672714D01*
X11666428Y-18701286D02*
X11680714Y-18687000D01*
X11709286Y-18672714D01*
X11752143Y-18672714D01*
X11780714Y-18687000D01*
X11795000Y-18715572D01*
X11795000Y-18872714D01*
X11795000Y-18715572D02*
X11809286Y-18687000D01*
X11837857Y-18672714D01*
X11880714Y-18672714D01*
X11909286Y-18687000D01*
X11923571Y-18715572D01*
X11923571Y-18872714D01*
X12509286Y-18558429D02*
X12252143Y-18944143D01*
X12895000Y-18572714D02*
X12923571Y-18572714D01*
X12952143Y-18587000D01*
X12966428Y-18601286D01*
X12980714Y-18629857D01*
X12995000Y-18687000D01*
X12995000Y-18758429D01*
X12980714Y-18815572D01*
X12966428Y-18844143D01*
X12952143Y-18858429D01*
X12923571Y-18872714D01*
X12895000Y-18872714D01*
X12866428Y-18858429D01*
X12852143Y-18844143D01*
X12837857Y-18815572D01*
X12823571Y-18758429D01*
X12823571Y-18687000D01*
X12837857Y-18629857D01*
X12852143Y-18601286D01*
X12866428Y-18587000D01*
X12895000Y-18572714D01*
X13123571Y-18844143D02*
X13137857Y-18858429D01*
X13123571Y-18872714D01*
X13109286Y-18858429D01*
X13123571Y-18844143D01*
X13123571Y-18872714D01*
X13423571Y-18872714D02*
X13252143Y-18872714D01*
X13337857Y-18872714D02*
X13337857Y-18572714D01*
X13309285Y-18615572D01*
X13280714Y-18644143D01*
X13252143Y-18658429D01*
X13695000Y-18572714D02*
X13552143Y-18572714D01*
X13537857Y-18715572D01*
X13552143Y-18701286D01*
X13580714Y-18687000D01*
X13652143Y-18687000D01*
X13680714Y-18701286D01*
X13695000Y-18715572D01*
X13709285Y-18744143D01*
X13709285Y-18815572D01*
X13695000Y-18844143D01*
X13680714Y-18858429D01*
X13652143Y-18872714D01*
X13580714Y-18872714D01*
X13552143Y-18858429D01*
X13537857Y-18844143D01*
X13880714Y-18701286D02*
X13852143Y-18687000D01*
X13837857Y-18672714D01*
X13823571Y-18644143D01*
X13823571Y-18629857D01*
X13837857Y-18601286D01*
X13852143Y-18587000D01*
X13880714Y-18572714D01*
X13937857Y-18572714D01*
X13966428Y-18587000D01*
X13980714Y-18601286D01*
X13995000Y-18629857D01*
X13995000Y-18644143D01*
X13980714Y-18672714D01*
X13966428Y-18687000D01*
X13937857Y-18701286D01*
X13880714Y-18701286D01*
X13852143Y-18715572D01*
X13837857Y-18729857D01*
X13823571Y-18758429D01*
X13823571Y-18815572D01*
X13837857Y-18844143D01*
X13852143Y-18858429D01*
X13880714Y-18872714D01*
X13937857Y-18872714D01*
X13966428Y-18858429D01*
X13980714Y-18844143D01*
X13995000Y-18815572D01*
X13995000Y-18758429D01*
X13980714Y-18729857D01*
X13966428Y-18715572D01*
X13937857Y-18701286D01*
X14109286Y-18572714D02*
X14109286Y-18629857D01*
X14223571Y-18572714D02*
X14223571Y-18629857D01*
X14666428Y-18987000D02*
X14652143Y-18972714D01*
X14623571Y-18929857D01*
X14609285Y-18901286D01*
X14595000Y-18858429D01*
X14580714Y-18787000D01*
X14580714Y-18729857D01*
X14595000Y-18658429D01*
X14609285Y-18615572D01*
X14623571Y-18587000D01*
X14652143Y-18544143D01*
X14666428Y-18529857D01*
X14752143Y-18572714D02*
X14952143Y-18572714D01*
X14823571Y-18872714D01*
X15295000Y-18872714D02*
X15295000Y-18572714D01*
X15423571Y-18872714D02*
X15423571Y-18715572D01*
X15409285Y-18687000D01*
X15380714Y-18672714D01*
X15337857Y-18672714D01*
X15309285Y-18687000D01*
X15295000Y-18701286D01*
X15609285Y-18872714D02*
X15580714Y-18858429D01*
X15566428Y-18844143D01*
X15552143Y-18815572D01*
X15552143Y-18729857D01*
X15566428Y-18701286D01*
X15580714Y-18687000D01*
X15609285Y-18672714D01*
X15652143Y-18672714D01*
X15680714Y-18687000D01*
X15695000Y-18701286D01*
X15709285Y-18729857D01*
X15709285Y-18815572D01*
X15695000Y-18844143D01*
X15680714Y-18858429D01*
X15652143Y-18872714D01*
X15609285Y-18872714D01*
X15880714Y-18872714D02*
X15852143Y-18858429D01*
X15837857Y-18829857D01*
X15837857Y-18572714D01*
X16109286Y-18858429D02*
X16080714Y-18872714D01*
X16023571Y-18872714D01*
X15995000Y-18858429D01*
X15980714Y-18829857D01*
X15980714Y-18715572D01*
X15995000Y-18687000D01*
X16023571Y-18672714D01*
X16080714Y-18672714D01*
X16109286Y-18687000D01*
X16123571Y-18715572D01*
X16123571Y-18744143D01*
X15980714Y-18772714D01*
X16237857Y-18858429D02*
X16266428Y-18872714D01*
X16323571Y-18872714D01*
X16352143Y-18858429D01*
X16366428Y-18829857D01*
X16366428Y-18815572D01*
X16352143Y-18787000D01*
X16323571Y-18772714D01*
X16280714Y-18772714D01*
X16252143Y-18758429D01*
X16237857Y-18729857D01*
X16237857Y-18715572D01*
X16252143Y-18687000D01*
X16280714Y-18672714D01*
X16323571Y-18672714D01*
X16352143Y-18687000D01*
X16466428Y-18987000D02*
X16480714Y-18972714D01*
X16509286Y-18929857D01*
X16523571Y-18901286D01*
X16537857Y-18858429D01*
X16552143Y-18787000D01*
X16552143Y-18729857D01*
X16537857Y-18658429D01*
X16523571Y-18615572D01*
X16509286Y-18587000D01*
X16480714Y-18544143D01*
X16466428Y-18529857D01*
X9395052Y-18967076D02*
X9995000Y-19567024D01*
X9995000Y-18967076D02*
X9395052Y-19567024D01*
X9695026Y-19567024D02*
X9995000Y-19267050D01*
X9695026Y-18967076D01*
X9395052Y-19267050D01*
X9695026Y-19567024D01*
X10395000Y-19102764D02*
X10337857Y-19102764D01*
X10309286Y-19117050D01*
X10295000Y-19131336D01*
X10266429Y-19174193D01*
X10252143Y-19231336D01*
X10252143Y-19345622D01*
X10266429Y-19374193D01*
X10280714Y-19388479D01*
X10309286Y-19402764D01*
X10366429Y-19402764D01*
X10395000Y-19388479D01*
X10409286Y-19374193D01*
X10423571Y-19345622D01*
X10423571Y-19274193D01*
X10409286Y-19245622D01*
X10395000Y-19231336D01*
X10366429Y-19217050D01*
X10309286Y-19217050D01*
X10280714Y-19231336D01*
X10266429Y-19245622D01*
X10252143Y-19274193D01*
X10552143Y-19374193D02*
X10566429Y-19388479D01*
X10552143Y-19402764D01*
X10537857Y-19388479D01*
X10552143Y-19374193D01*
X10552143Y-19402764D01*
X10752143Y-19102764D02*
X10780714Y-19102764D01*
X10809286Y-19117050D01*
X10823571Y-19131336D01*
X10837857Y-19159907D01*
X10852143Y-19217050D01*
X10852143Y-19288479D01*
X10837857Y-19345622D01*
X10823571Y-19374193D01*
X10809286Y-19388479D01*
X10780714Y-19402764D01*
X10752143Y-19402764D01*
X10723571Y-19388479D01*
X10709286Y-19374193D01*
X10695000Y-19345622D01*
X10680714Y-19288479D01*
X10680714Y-19217050D01*
X10695000Y-19159907D01*
X10709286Y-19131336D01*
X10723571Y-19117050D01*
X10752143Y-19102764D01*
X11037857Y-19102764D02*
X11066429Y-19102764D01*
X11095000Y-19117050D01*
X11109286Y-19131336D01*
X11123571Y-19159907D01*
X11137857Y-19217050D01*
X11137857Y-19288479D01*
X11123571Y-19345622D01*
X11109286Y-19374193D01*
X11095000Y-19388479D01*
X11066429Y-19402764D01*
X11037857Y-19402764D01*
X11009286Y-19388479D01*
X10995000Y-19374193D01*
X10980714Y-19345622D01*
X10966429Y-19288479D01*
X10966429Y-19217050D01*
X10980714Y-19159907D01*
X10995000Y-19131336D01*
X11009286Y-19117050D01*
X11037857Y-19102764D01*
X11266428Y-19402764D02*
X11266428Y-19202764D01*
X11266428Y-19231336D02*
X11280714Y-19217050D01*
X11309286Y-19202764D01*
X11352143Y-19202764D01*
X11380714Y-19217050D01*
X11395000Y-19245622D01*
X11395000Y-19402764D01*
X11395000Y-19245622D02*
X11409286Y-19217050D01*
X11437857Y-19202764D01*
X11480714Y-19202764D01*
X11509286Y-19217050D01*
X11523571Y-19245622D01*
X11523571Y-19402764D01*
X11666428Y-19402764D02*
X11666428Y-19202764D01*
X11666428Y-19231336D02*
X11680714Y-19217050D01*
X11709286Y-19202764D01*
X11752143Y-19202764D01*
X11780714Y-19217050D01*
X11795000Y-19245622D01*
X11795000Y-19402764D01*
X11795000Y-19245622D02*
X11809286Y-19217050D01*
X11837857Y-19202764D01*
X11880714Y-19202764D01*
X11909286Y-19217050D01*
X11923571Y-19245622D01*
X11923571Y-19402764D01*
X12509286Y-19088479D02*
X12252143Y-19474193D01*
X12895000Y-19102764D02*
X12923571Y-19102764D01*
X12952143Y-19117050D01*
X12966428Y-19131336D01*
X12980714Y-19159907D01*
X12995000Y-19217050D01*
X12995000Y-19288479D01*
X12980714Y-19345622D01*
X12966428Y-19374193D01*
X12952143Y-19388479D01*
X12923571Y-19402764D01*
X12895000Y-19402764D01*
X12866428Y-19388479D01*
X12852143Y-19374193D01*
X12837857Y-19345622D01*
X12823571Y-19288479D01*
X12823571Y-19217050D01*
X12837857Y-19159907D01*
X12852143Y-19131336D01*
X12866428Y-19117050D01*
X12895000Y-19102764D01*
X13123571Y-19374193D02*
X13137857Y-19388479D01*
X13123571Y-19402764D01*
X13109286Y-19388479D01*
X13123571Y-19374193D01*
X13123571Y-19402764D01*
X13252143Y-19131336D02*
X13266428Y-19117050D01*
X13295000Y-19102764D01*
X13366428Y-19102764D01*
X13395000Y-19117050D01*
X13409285Y-19131336D01*
X13423571Y-19159907D01*
X13423571Y-19188479D01*
X13409285Y-19231336D01*
X13237857Y-19402764D01*
X13423571Y-19402764D01*
X13523571Y-19102764D02*
X13709285Y-19102764D01*
X13609285Y-19217050D01*
X13652143Y-19217050D01*
X13680714Y-19231336D01*
X13695000Y-19245622D01*
X13709285Y-19274193D01*
X13709285Y-19345622D01*
X13695000Y-19374193D01*
X13680714Y-19388479D01*
X13652143Y-19402764D01*
X13566428Y-19402764D01*
X13537857Y-19388479D01*
X13523571Y-19374193D01*
X13966428Y-19102764D02*
X13909285Y-19102764D01*
X13880714Y-19117050D01*
X13866428Y-19131336D01*
X13837857Y-19174193D01*
X13823571Y-19231336D01*
X13823571Y-19345622D01*
X13837857Y-19374193D01*
X13852143Y-19388479D01*
X13880714Y-19402764D01*
X13937857Y-19402764D01*
X13966428Y-19388479D01*
X13980714Y-19374193D01*
X13995000Y-19345622D01*
X13995000Y-19274193D01*
X13980714Y-19245622D01*
X13966428Y-19231336D01*
X13937857Y-19217050D01*
X13880714Y-19217050D01*
X13852143Y-19231336D01*
X13837857Y-19245622D01*
X13823571Y-19274193D01*
X14109286Y-19102764D02*
X14109286Y-19159907D01*
X14223571Y-19102764D02*
X14223571Y-19159907D01*
X14666428Y-19517050D02*
X14652143Y-19502764D01*
X14623571Y-19459907D01*
X14609285Y-19431336D01*
X14595000Y-19388479D01*
X14580714Y-19317050D01*
X14580714Y-19259907D01*
X14595000Y-19188479D01*
X14609285Y-19145622D01*
X14623571Y-19117050D01*
X14652143Y-19074193D01*
X14666428Y-19059907D01*
X14937857Y-19402764D02*
X14766428Y-19402764D01*
X14852143Y-19402764D02*
X14852143Y-19102764D01*
X14823571Y-19145622D01*
X14795000Y-19174193D01*
X14766428Y-19188479D01*
X15295000Y-19402764D02*
X15295000Y-19102764D01*
X15423571Y-19402764D02*
X15423571Y-19245622D01*
X15409285Y-19217050D01*
X15380714Y-19202764D01*
X15337857Y-19202764D01*
X15309285Y-19217050D01*
X15295000Y-19231336D01*
X15609285Y-19402764D02*
X15580714Y-19388479D01*
X15566428Y-19374193D01*
X15552143Y-19345622D01*
X15552143Y-19259907D01*
X15566428Y-19231336D01*
X15580714Y-19217050D01*
X15609285Y-19202764D01*
X15652143Y-19202764D01*
X15680714Y-19217050D01*
X15695000Y-19231336D01*
X15709285Y-19259907D01*
X15709285Y-19345622D01*
X15695000Y-19374193D01*
X15680714Y-19388479D01*
X15652143Y-19402764D01*
X15609285Y-19402764D01*
X15880714Y-19402764D02*
X15852143Y-19388479D01*
X15837857Y-19359907D01*
X15837857Y-19102764D01*
X16109286Y-19388479D02*
X16080714Y-19402764D01*
X16023571Y-19402764D01*
X15995000Y-19388479D01*
X15980714Y-19359907D01*
X15980714Y-19245622D01*
X15995000Y-19217050D01*
X16023571Y-19202764D01*
X16080714Y-19202764D01*
X16109286Y-19217050D01*
X16123571Y-19245622D01*
X16123571Y-19274193D01*
X15980714Y-19302764D01*
X16223571Y-19517050D02*
X16237857Y-19502764D01*
X16266428Y-19459907D01*
X16280714Y-19431336D01*
X16295000Y-19388479D01*
X16309286Y-19317050D01*
X16309286Y-19259907D01*
X16295000Y-19188479D01*
X16280714Y-19145622D01*
X16266428Y-19117050D01*
X16237857Y-19074193D01*
X16223571Y-19059907D01*
M02*
