%FSLAX46Y46*%
G04 Gerber Fmt 4.6, Leading zero omitted, Abs format (unit mm)*
G04 Created by KiCad (PCBNEW (2014-10-27 BZR 5228)-product) date 23/02/2015 12:19:06*
%MOMM*%
G01*
G04 APERTURE LIST*
%ADD10C,0.100000*%
%ADD11C,1.998980*%
%ADD12R,2.032000X2.032000*%
%ADD13O,2.032000X2.032000*%
%ADD14O,1.699260X3.500120*%
%ADD15R,1.727200X1.727200*%
%ADD16O,1.727200X1.727200*%
%ADD17C,1.524000*%
%ADD18C,2.540000*%
%ADD19C,1.727200*%
%ADD20R,1.397000X1.397000*%
%ADD21C,1.397000*%
%ADD22R,1.000000X1.250000*%
%ADD23R,1.250000X1.000000*%
%ADD24R,2.700020X2.550160*%
%ADD25R,2.499360X1.950720*%
%ADD26R,1.800000X1.800000*%
%ADD27C,1.800000*%
%ADD28R,1.550000X0.600000*%
%ADD29C,0.254000*%
G04 APERTURE END LIST*
D10*
D11*
X160375600Y-64919860D03*
X160375600Y-54759860D03*
X142392400Y-77228700D03*
X142392400Y-71640700D03*
X156197300Y-77292200D03*
X156197300Y-71704200D03*
X196092000Y-64396000D03*
X190504000Y-64396000D03*
X196292000Y-79396000D03*
X190704000Y-79396000D03*
X195892000Y-96996000D03*
X190304000Y-96996000D03*
X181308000Y-127804000D03*
X186896000Y-127804000D03*
X195992000Y-112896000D03*
X190404000Y-112896000D03*
X185892000Y-64396000D03*
X180304000Y-64396000D03*
X185892000Y-79396000D03*
X180304000Y-79396000D03*
X185692000Y-96796000D03*
X180104000Y-96796000D03*
X196092000Y-127896000D03*
X190504000Y-127896000D03*
X185792000Y-112796000D03*
X180204000Y-112796000D03*
D12*
X130644900Y-81788000D03*
D13*
X130644900Y-79248000D03*
D12*
X123630000Y-78900000D03*
D13*
X126170000Y-78900000D03*
D12*
X104930000Y-62400000D03*
D13*
X107470000Y-62400000D03*
D12*
X104730000Y-82700000D03*
D13*
X107270000Y-82700000D03*
D14*
X130200000Y-55900000D03*
X132740000Y-55900000D03*
X127660000Y-55900000D03*
D11*
X110500000Y-98900640D03*
X110500000Y-103901900D03*
X142900000Y-102399360D03*
X142900000Y-97398100D03*
D15*
X135902700Y-81140300D03*
D16*
X135902700Y-83680300D03*
X138442700Y-81140300D03*
X138442700Y-83680300D03*
D17*
X117170200Y-64668400D03*
X117170200Y-62128400D03*
X117170200Y-67208400D03*
D18*
X138582400Y-55976000D03*
D19*
X138582400Y-59976000D03*
D18*
X138582400Y-63976000D03*
D19*
X138582400Y-67976000D03*
D20*
X152603200Y-82207100D03*
D21*
X152603200Y-84747100D03*
X152603200Y-87287100D03*
X152603200Y-89827100D03*
X152603200Y-92367100D03*
X160223200Y-92367100D03*
X160223200Y-89827100D03*
X160223200Y-87287100D03*
X160223200Y-84747100D03*
X160223200Y-82207100D03*
D20*
X168590000Y-59520000D03*
D21*
X168590000Y-62060000D03*
X168590000Y-64600000D03*
X168590000Y-67140000D03*
X168590000Y-69680000D03*
X176210000Y-69680000D03*
X176210000Y-67140000D03*
X176210000Y-64600000D03*
X176210000Y-62060000D03*
X176210000Y-59520000D03*
D20*
X168590000Y-74920000D03*
D21*
X168590000Y-77460000D03*
X168590000Y-80000000D03*
X168590000Y-82540000D03*
X168590000Y-85080000D03*
X176210000Y-85080000D03*
X176210000Y-82540000D03*
X176210000Y-80000000D03*
X176210000Y-77460000D03*
X176210000Y-74920000D03*
D20*
X168690000Y-91320000D03*
D21*
X168690000Y-93860000D03*
X168690000Y-96400000D03*
X168690000Y-98940000D03*
X168690000Y-101480000D03*
X176310000Y-101480000D03*
X176310000Y-98940000D03*
X176310000Y-96400000D03*
X176310000Y-93860000D03*
X176310000Y-91320000D03*
D20*
X168790000Y-107920000D03*
D21*
X168790000Y-110460000D03*
X168790000Y-113000000D03*
X168790000Y-115540000D03*
X168790000Y-118080000D03*
X176410000Y-118080000D03*
X176410000Y-115540000D03*
X176410000Y-113000000D03*
X176410000Y-110460000D03*
X176410000Y-107920000D03*
D20*
X168790000Y-123420000D03*
D21*
X168790000Y-125960000D03*
X168790000Y-128500000D03*
X168790000Y-131040000D03*
X168790000Y-133580000D03*
X176410000Y-133580000D03*
X176410000Y-131040000D03*
X176410000Y-128500000D03*
X176410000Y-125960000D03*
X176410000Y-123420000D03*
D22*
X119853200Y-67132200D03*
X121853200Y-67132200D03*
D23*
X117200000Y-74000000D03*
X117200000Y-76000000D03*
X146989800Y-63979300D03*
X146989800Y-61979300D03*
X151561800Y-63979300D03*
X151561800Y-61979300D03*
X149313900Y-63979300D03*
X149313900Y-61979300D03*
X153809700Y-64055500D03*
X153809700Y-62055500D03*
D22*
X139700000Y-72700000D03*
X137700000Y-72700000D03*
X138731500Y-76428600D03*
X136731500Y-76428600D03*
X153222200Y-74561700D03*
X151222200Y-74561700D03*
D23*
X196400000Y-67000000D03*
X196400000Y-69000000D03*
X194200000Y-83600000D03*
X194200000Y-85600000D03*
X194600000Y-93200000D03*
X194600000Y-91200000D03*
X195700000Y-108900000D03*
X195700000Y-106900000D03*
X192000000Y-109000000D03*
X192000000Y-107000000D03*
D22*
X181700000Y-121500000D03*
X183700000Y-121500000D03*
X194400000Y-61600000D03*
X192400000Y-61600000D03*
D23*
X183200000Y-83600000D03*
X183200000Y-81600000D03*
D22*
X194000000Y-99800000D03*
X192000000Y-99800000D03*
X185100000Y-125500000D03*
X183100000Y-125500000D03*
X194200000Y-115400000D03*
X192200000Y-115400000D03*
X186500000Y-121500000D03*
X188500000Y-121500000D03*
D23*
X188200000Y-61800000D03*
X188200000Y-59800000D03*
X194400000Y-76200000D03*
X194400000Y-74200000D03*
X188400000Y-93000000D03*
X188400000Y-91000000D03*
X195900000Y-124100000D03*
X195900000Y-122100000D03*
X188000000Y-109000000D03*
X188000000Y-107000000D03*
D22*
X184200000Y-67600000D03*
X182200000Y-67600000D03*
D23*
X190200000Y-74200000D03*
X190200000Y-76200000D03*
D22*
X184000000Y-99600000D03*
X182000000Y-99600000D03*
X192306700Y-131660900D03*
X194306700Y-131660900D03*
X184300000Y-115600000D03*
X182300000Y-115600000D03*
D23*
X191700000Y-124000000D03*
X191700000Y-122000000D03*
X183200000Y-61800000D03*
X183200000Y-59800000D03*
X182800000Y-76200000D03*
X182800000Y-74200000D03*
X182800000Y-93000000D03*
X182800000Y-91000000D03*
X180600000Y-109100000D03*
X180600000Y-107100000D03*
X184500000Y-109200000D03*
X184500000Y-107200000D03*
X190600000Y-83600000D03*
X190600000Y-85600000D03*
X186800000Y-76200000D03*
X186800000Y-74200000D03*
D24*
X111200000Y-77275000D03*
X111200000Y-70925000D03*
D25*
X143675100Y-65290700D03*
X143675100Y-62191900D03*
D20*
X177620000Y-144910000D03*
D21*
X180160000Y-144910000D03*
X182700000Y-144910000D03*
X185240000Y-144910000D03*
X187780000Y-144910000D03*
X187780000Y-137290000D03*
X185240000Y-137290000D03*
X182700000Y-137290000D03*
X180160000Y-137290000D03*
X177620000Y-137290000D03*
D26*
X161300000Y-139800000D03*
D27*
X158760000Y-139800000D03*
X156220000Y-139800000D03*
X153680000Y-139800000D03*
X151140000Y-139800000D03*
X148600000Y-139800000D03*
X161300000Y-142340000D03*
X158760000Y-142340000D03*
X156220000Y-142340000D03*
X153680000Y-142340000D03*
X151140000Y-142340000D03*
X148600000Y-142340000D03*
D23*
X175100000Y-141900000D03*
X175100000Y-139900000D03*
X146700000Y-77400000D03*
X146700000Y-75400000D03*
D22*
X164500000Y-145600000D03*
X166500000Y-145600000D03*
X162800000Y-120200000D03*
X160800000Y-120200000D03*
D12*
X169830000Y-145700000D03*
D13*
X172370000Y-145700000D03*
D28*
X166600000Y-143105000D03*
X166600000Y-141835000D03*
X166600000Y-140565000D03*
X166600000Y-139295000D03*
X172000000Y-139295000D03*
X172000000Y-140565000D03*
X172000000Y-141835000D03*
X172000000Y-143105000D03*
D29*
G36*
X199673000Y-149773000D02*
X100227000Y-149773000D01*
X100227000Y-147627000D01*
X199673000Y-147627000D01*
X199673000Y-149773000D01*
X199673000Y-149773000D01*
G37*
X199673000Y-149773000D02*
X100227000Y-149773000D01*
X100227000Y-147627000D01*
X199673000Y-147627000D01*
X199673000Y-149773000D01*
G36*
X199673000Y-52373000D02*
X100327000Y-52373000D01*
X100327000Y-50327000D01*
X199673000Y-50327000D01*
X199673000Y-52373000D01*
X199673000Y-52373000D01*
G37*
X199673000Y-52373000D02*
X100327000Y-52373000D01*
X100327000Y-50327000D01*
X199673000Y-50327000D01*
X199673000Y-52373000D01*
M02*
