%FSLAX46Y46*%
G04 Gerber Fmt 4.6, Leading zero omitted, Abs format (unit mm)*
G04 Created by KiCad (PCBNEW (2014-10-27 BZR 5228)-product) date 15/05/2015 07:51:36*
%MOMM*%
G01*
G04 APERTURE LIST*
%ADD10C,0.100000*%
%ADD11R,1.250000X1.500000*%
%ADD12R,2.032000X2.032000*%
%ADD13O,2.032000X2.032000*%
%ADD14R,1.300000X1.500000*%
%ADD15R,1.500000X1.300000*%
%ADD16C,6.350000*%
%ADD17R,0.910000X1.220000*%
%ADD18R,1.220000X0.910000*%
%ADD19R,1.249680X0.899160*%
%ADD20R,1.998980X0.500380*%
%ADD21R,1.800860X3.500120*%
%ADD22R,1.500000X1.250000*%
%ADD23R,2.032000X1.727200*%
%ADD24O,2.032000X1.727200*%
%ADD25C,3.500000*%
%ADD26C,2.000000*%
%ADD27C,1.998980*%
%ADD28C,1.524000*%
%ADD29R,1.550000X0.600000*%
%ADD30C,0.889000*%
%ADD31C,0.500000*%
%ADD32C,0.350000*%
G04 APERTURE END LIST*
D10*
D11*
X125800000Y-133400000D03*
X125800000Y-135900000D03*
D12*
X160250000Y-126400000D03*
D13*
X160250000Y-128940000D03*
D14*
X128400000Y-133350000D03*
X128400000Y-136050000D03*
D15*
X132150000Y-136150000D03*
X134850000Y-136150000D03*
X138100000Y-142600000D03*
X135400000Y-142600000D03*
X139900000Y-134500000D03*
X137200000Y-134500000D03*
X142300000Y-142600000D03*
X145000000Y-142600000D03*
X150050000Y-141950000D03*
X152750000Y-141950000D03*
X148250000Y-132150000D03*
X150950000Y-132150000D03*
X134700000Y-132150000D03*
X137400000Y-132150000D03*
D16*
X126100000Y-141000000D03*
X159900000Y-141050000D03*
D17*
X134865000Y-138750000D03*
X138135000Y-138750000D03*
D18*
X149800000Y-135715000D03*
X149800000Y-138985000D03*
D15*
X156350000Y-126350000D03*
X153650000Y-126350000D03*
D19*
X132450000Y-124101120D03*
X132450000Y-126498880D03*
D20*
X132450000Y-125300000D03*
D21*
X155150000Y-137399740D03*
X155150000Y-131400260D03*
D11*
X131200000Y-140200000D03*
X131200000Y-142700000D03*
X151000000Y-125400000D03*
X151000000Y-122900000D03*
D22*
X148300000Y-128750000D03*
X150800000Y-128750000D03*
X134850000Y-128850000D03*
X137350000Y-128850000D03*
D18*
X144650000Y-128615000D03*
X144650000Y-131885000D03*
X140650000Y-128565000D03*
X140650000Y-131835000D03*
D23*
X126250000Y-130050000D03*
D24*
X126250000Y-127510000D03*
X126250000Y-124970000D03*
D25*
X124400000Y-111650000D03*
X124400000Y-119250000D03*
D26*
X132200000Y-115450000D03*
D25*
X161450000Y-118850000D03*
X161450000Y-111250000D03*
D26*
X153650000Y-115050000D03*
D27*
X145542000Y-120696000D03*
X139954000Y-120696000D03*
D28*
X140650000Y-118300000D03*
X144850000Y-123100000D03*
D27*
X140008000Y-107754000D03*
X145596000Y-107754000D03*
D28*
X144900000Y-110150000D03*
X140700000Y-105350000D03*
D29*
X140850000Y-136795000D03*
X140850000Y-138065000D03*
X140850000Y-139335000D03*
X140850000Y-140605000D03*
X146250000Y-140605000D03*
X146250000Y-139335000D03*
X146250000Y-138065000D03*
X146250000Y-136795000D03*
D19*
X130100000Y-129051120D03*
X130100000Y-131448880D03*
D20*
X130100000Y-130250000D03*
D16*
X159950000Y-103900000D03*
X126050000Y-103900000D03*
D30*
X124100000Y-135850000D03*
X155150000Y-140650000D03*
X133150000Y-142700000D03*
X134700000Y-130550000D03*
X150950000Y-130450000D03*
X139200000Y-140600000D03*
X147200000Y-142550000D03*
X148000000Y-135650000D03*
D31*
X130600000Y-124100000D02*
X132448880Y-124100000D01*
X132448880Y-124100000D02*
X132450000Y-124101120D01*
D32*
X130751120Y-124100000D02*
X130600000Y-124100000D01*
D31*
X130600000Y-124100000D02*
X127120000Y-124100000D01*
X127120000Y-124100000D02*
X126250000Y-124970000D01*
X125800000Y-135900000D02*
X124150000Y-135900000D01*
X124150000Y-135900000D02*
X124100000Y-135850000D01*
X128400000Y-136050000D02*
X125950000Y-136050000D01*
X125950000Y-136050000D02*
X125800000Y-135900000D01*
X132450000Y-125300000D02*
X134250000Y-125300000D01*
X134800000Y-125850000D02*
X134800000Y-128800000D01*
X134250000Y-125300000D02*
X134800000Y-125850000D01*
X134800000Y-128800000D02*
X134850000Y-128850000D01*
X130100000Y-130250000D02*
X131800000Y-130250000D01*
X130600000Y-125300000D02*
X132450000Y-125300000D01*
X130050000Y-125850000D02*
X130600000Y-125300000D01*
X130050000Y-126300000D02*
X130050000Y-125850000D01*
X131900000Y-128150000D02*
X130050000Y-126300000D01*
X131900000Y-130150000D02*
X131900000Y-128150000D01*
X131800000Y-130250000D02*
X131900000Y-130150000D01*
X130100000Y-130250000D02*
X126450000Y-130250000D01*
X126450000Y-130250000D02*
X126250000Y-130050000D01*
X152750000Y-141950000D02*
X153850000Y-141950000D01*
X155150000Y-140650000D02*
X155150000Y-137399740D01*
X153850000Y-141950000D02*
X155150000Y-140650000D01*
X131200000Y-142700000D02*
X133150000Y-142700000D01*
X133150000Y-142700000D02*
X135300000Y-142700000D01*
X135300000Y-142700000D02*
X135400000Y-142600000D01*
X150950000Y-132150000D02*
X150950000Y-130450000D01*
X150950000Y-130450000D02*
X150950000Y-128900000D01*
X150950000Y-128900000D02*
X150800000Y-128750000D01*
X134700000Y-132150000D02*
X134700000Y-130550000D01*
X134700000Y-130550000D02*
X134700000Y-129000000D01*
X134700000Y-129000000D02*
X134850000Y-128850000D01*
X137200000Y-134500000D02*
X135550000Y-134500000D01*
X134700000Y-133650000D02*
X134700000Y-132150000D01*
X135550000Y-134500000D02*
X134700000Y-133650000D01*
X140850000Y-140605000D02*
X139205000Y-140605000D01*
X139205000Y-140605000D02*
X139200000Y-140600000D01*
X144850000Y-123100000D02*
X150800000Y-123100000D01*
X150800000Y-123100000D02*
X151000000Y-122900000D01*
X144650000Y-131885000D02*
X144650000Y-134150000D01*
X144655000Y-140605000D02*
X146250000Y-140605000D01*
X144100000Y-140050000D02*
X144655000Y-140605000D01*
X144100000Y-134700000D02*
X144100000Y-140050000D01*
X144650000Y-134150000D02*
X144100000Y-134700000D01*
X148250000Y-132150000D02*
X148250000Y-128800000D01*
X148250000Y-128800000D02*
X148300000Y-128750000D01*
X144650000Y-131885000D02*
X147985000Y-131885000D01*
X147985000Y-131885000D02*
X148250000Y-132150000D01*
X140850000Y-139335000D02*
X142865000Y-139335000D01*
X141685000Y-131835000D02*
X140650000Y-131835000D01*
X143250000Y-133400000D02*
X141685000Y-131835000D01*
X143250000Y-138950000D02*
X143250000Y-133400000D01*
X142865000Y-139335000D02*
X143250000Y-138950000D01*
X137400000Y-132150000D02*
X137400000Y-128900000D01*
X137400000Y-128900000D02*
X137350000Y-128850000D01*
X140650000Y-131835000D02*
X137715000Y-131835000D01*
X137715000Y-131835000D02*
X137400000Y-132150000D01*
X153650000Y-126350000D02*
X153650000Y-128350000D01*
X146250000Y-134700000D02*
X146250000Y-136795000D01*
X146600000Y-134350000D02*
X146250000Y-134700000D01*
X151650000Y-134350000D02*
X146600000Y-134350000D01*
X152950000Y-133050000D02*
X151650000Y-134350000D01*
X152950000Y-129050000D02*
X152950000Y-133050000D01*
X153650000Y-128350000D02*
X152950000Y-129050000D01*
X151000000Y-125400000D02*
X152700000Y-125400000D01*
X152700000Y-125400000D02*
X153650000Y-126350000D01*
X130100000Y-129051120D02*
X130100000Y-127900000D01*
X130100000Y-127900000D02*
X129700000Y-127500000D01*
X129700000Y-127500000D02*
X126260000Y-127500000D01*
D32*
X126260000Y-127500000D02*
X126250000Y-127510000D01*
D31*
X134865000Y-138750000D02*
X134865000Y-136165000D01*
X134865000Y-136165000D02*
X134850000Y-136150000D01*
X140850000Y-136795000D02*
X138445000Y-136795000D01*
X137800000Y-136150000D02*
X134850000Y-136150000D01*
X138445000Y-136795000D02*
X137800000Y-136150000D01*
X149800000Y-135715000D02*
X148065000Y-135715000D01*
X147150000Y-142600000D02*
X145000000Y-142600000D01*
X147200000Y-142550000D02*
X147150000Y-142600000D01*
X148065000Y-135715000D02*
X148000000Y-135650000D01*
X146250000Y-138065000D02*
X147485000Y-138065000D01*
X148400000Y-137115000D02*
X149800000Y-135715000D01*
X148400000Y-137150000D02*
X148400000Y-137115000D01*
X147485000Y-138065000D02*
X148400000Y-137150000D01*
X149800000Y-138985000D02*
X149800000Y-141700000D01*
X149800000Y-141700000D02*
X150050000Y-141950000D01*
X146250000Y-139335000D02*
X149450000Y-139335000D01*
X149450000Y-139335000D02*
X149800000Y-138985000D01*
X138100000Y-142600000D02*
X138100000Y-141600000D01*
X138100000Y-141600000D02*
X136700000Y-140200000D01*
X136700000Y-140200000D02*
X131200000Y-140200000D01*
X133500000Y-134300000D02*
X133500000Y-137950000D01*
X133500000Y-134300000D02*
X133050000Y-133850000D01*
X133050000Y-133850000D02*
X133050000Y-127098880D01*
X132450000Y-126498880D02*
X133050000Y-127098880D01*
X133500000Y-137950000D02*
X131250000Y-140200000D01*
X131200000Y-140200000D02*
X131250000Y-140200000D01*
X142300000Y-142600000D02*
X138100000Y-142600000D01*
X132150000Y-136150000D02*
X132150000Y-133498880D01*
X132150000Y-133498880D02*
X130100000Y-131448880D01*
X128400000Y-133350000D02*
X128400000Y-133148880D01*
X128400000Y-133148880D02*
X130100000Y-131448880D01*
X125800000Y-133400000D02*
X128350000Y-133400000D01*
X128350000Y-133400000D02*
X128400000Y-133350000D01*
X158150000Y-128940000D02*
X157610260Y-128940000D01*
X157610260Y-128940000D02*
X155150000Y-131400260D01*
X156350000Y-126350000D02*
X156350000Y-127150000D01*
X158140000Y-128940000D02*
X158150000Y-128940000D01*
X158150000Y-128940000D02*
X160250000Y-128940000D01*
X156350000Y-127150000D02*
X158140000Y-128940000D01*
X140850000Y-138065000D02*
X141885000Y-138065000D01*
X141300000Y-134500000D02*
X139900000Y-134500000D01*
X142300000Y-135500000D02*
X141300000Y-134500000D01*
X142300000Y-137650000D02*
X142300000Y-135500000D01*
X141885000Y-138065000D02*
X142300000Y-137650000D01*
X138135000Y-138750000D02*
X138500000Y-138750000D01*
X138500000Y-138750000D02*
X139185000Y-138065000D01*
X139185000Y-138065000D02*
X140850000Y-138065000D01*
X144650000Y-128615000D02*
X144650000Y-125500000D01*
X144304000Y-120696000D02*
X145542000Y-120696000D01*
X142900000Y-122100000D02*
X144304000Y-120696000D01*
X142900000Y-123750000D02*
X142900000Y-122100000D01*
X144650000Y-125500000D02*
X142900000Y-123750000D01*
X140650000Y-128565000D02*
X140650000Y-121392000D01*
X140650000Y-121392000D02*
X139954000Y-120696000D01*
M02*
