M48
;DRILL file {kicad (2014-10-27 BZR 5228)-product} date 15/05/2015 07:51:39
;FORMAT={3:3/ absolute / metric / keep zeros}
FMAT,2
METRIC,TZ
T1C0.635
T2C0.762
T3C0.920
T4C1.001
T5C1.016
T6C1.800
T7C3.900
%
G90
G05
M71
T1
X124100Y-135850
X133150Y-142700
X134700Y-130550
X139200Y-140600
X147200Y-142550
X148000Y-135650
X150950Y-130450
X155150Y-140650
T2
X140650Y-118300
X140700Y-105350
X144850Y-123100
X144900Y-110150
T3
X132200Y-115450
X153650Y-115050
T4
X139954Y-120696
X140008Y-107754
X145542Y-120696
X145596Y-107754
T5
X126250Y-124970
X126250Y-127510
X126250Y-130050
X160250Y-126400
X160250Y-128940
T6
X124400Y-111650
X124400Y-119250
X161450Y-111250
X161450Y-118850
T7
X126050Y-103900
X126100Y-141000
X159900Y-141050
X159950Y-103900
T0
M30
