%FSLAX46Y46*%
G04 Gerber Fmt 4.6, Leading zero omitted, Abs format (unit mm)*
G04 Created by KiCad (PCBNEW (2014-10-27 BZR 5228)-product) date 15/05/2015 07:51:36*
%MOMM*%
G01*
G04 APERTURE LIST*
%ADD10C,0.100000*%
%ADD11C,0.150000*%
G04 APERTURE END LIST*
D10*
D11*
X152911905Y-102427381D02*
X152911905Y-101427381D01*
X152911905Y-101903571D02*
X152340476Y-101903571D01*
X152340476Y-102427381D02*
X152340476Y-101427381D01*
X151483333Y-102379762D02*
X151578571Y-102427381D01*
X151769048Y-102427381D01*
X151864286Y-102379762D01*
X151911905Y-102284524D01*
X151911905Y-101903571D01*
X151864286Y-101808333D01*
X151769048Y-101760714D01*
X151578571Y-101760714D01*
X151483333Y-101808333D01*
X151435714Y-101903571D01*
X151435714Y-101998810D01*
X151911905Y-102094048D01*
X151007143Y-102427381D02*
X151007143Y-101760714D01*
X151007143Y-101951190D02*
X150959524Y-101855952D01*
X150911905Y-101808333D01*
X150816667Y-101760714D01*
X150721428Y-101760714D01*
X150388095Y-102427381D02*
X150388095Y-101760714D01*
X150388095Y-101855952D02*
X150340476Y-101808333D01*
X150245238Y-101760714D01*
X150102380Y-101760714D01*
X150007142Y-101808333D01*
X149959523Y-101903571D01*
X149959523Y-102427381D01*
X149959523Y-101903571D02*
X149911904Y-101808333D01*
X149816666Y-101760714D01*
X149673809Y-101760714D01*
X149578571Y-101808333D01*
X149530952Y-101903571D01*
X149530952Y-102427381D01*
X148673809Y-102379762D02*
X148769047Y-102427381D01*
X148959524Y-102427381D01*
X149054762Y-102379762D01*
X149102381Y-102284524D01*
X149102381Y-101903571D01*
X149054762Y-101808333D01*
X148959524Y-101760714D01*
X148769047Y-101760714D01*
X148673809Y-101808333D01*
X148626190Y-101903571D01*
X148626190Y-101998810D01*
X149102381Y-102094048D01*
X148245238Y-102379762D02*
X148150000Y-102427381D01*
X147959524Y-102427381D01*
X147864285Y-102379762D01*
X147816666Y-102284524D01*
X147816666Y-102236905D01*
X147864285Y-102141667D01*
X147959524Y-102094048D01*
X148102381Y-102094048D01*
X148197619Y-102046429D01*
X148245238Y-101951190D01*
X148245238Y-101903571D01*
X148197619Y-101808333D01*
X148102381Y-101760714D01*
X147959524Y-101760714D01*
X147864285Y-101808333D01*
X146149999Y-102427381D02*
X146626190Y-102427381D01*
X146626190Y-101427381D01*
X145816666Y-102427381D02*
X145816666Y-101760714D01*
X145816666Y-101427381D02*
X145864285Y-101475000D01*
X145816666Y-101522619D01*
X145769047Y-101475000D01*
X145816666Y-101427381D01*
X145816666Y-101522619D01*
X145483333Y-101760714D02*
X145102381Y-101760714D01*
X145340476Y-101427381D02*
X145340476Y-102284524D01*
X145292857Y-102379762D01*
X145197619Y-102427381D01*
X145102381Y-102427381D01*
X144388094Y-102379762D02*
X144483332Y-102427381D01*
X144673809Y-102427381D01*
X144769047Y-102379762D01*
X144816666Y-102284524D01*
X144816666Y-101903571D01*
X144769047Y-101808333D01*
X144673809Y-101760714D01*
X144483332Y-101760714D01*
X144388094Y-101808333D01*
X144340475Y-101903571D01*
X144340475Y-101998810D01*
X144816666Y-102094048D01*
X142816665Y-101903571D02*
X143149999Y-101903571D01*
X143149999Y-102427381D02*
X143149999Y-101427381D01*
X142673808Y-101427381D01*
X142388094Y-101760714D02*
X142197618Y-102427381D01*
X142007141Y-101951190D01*
X141816665Y-102427381D01*
X141626189Y-101760714D01*
X140816665Y-102427381D02*
X140816665Y-101427381D01*
X140816665Y-102379762D02*
X140911903Y-102427381D01*
X141102380Y-102427381D01*
X141197618Y-102379762D01*
X141245237Y-102332143D01*
X141292856Y-102236905D01*
X141292856Y-101951190D01*
X141245237Y-101855952D01*
X141197618Y-101808333D01*
X141102380Y-101760714D01*
X140911903Y-101760714D01*
X140816665Y-101808333D01*
X140340475Y-102046429D02*
X139578570Y-102046429D01*
X138530951Y-102427381D02*
X138864285Y-101951190D01*
X139102380Y-102427381D02*
X139102380Y-101427381D01*
X138721427Y-101427381D01*
X138626189Y-101475000D01*
X138578570Y-101522619D01*
X138530951Y-101617857D01*
X138530951Y-101760714D01*
X138578570Y-101855952D01*
X138626189Y-101903571D01*
X138721427Y-101951190D01*
X139102380Y-101951190D01*
X137721427Y-102379762D02*
X137816665Y-102427381D01*
X138007142Y-102427381D01*
X138102380Y-102379762D01*
X138149999Y-102284524D01*
X138149999Y-101903571D01*
X138102380Y-101808333D01*
X138007142Y-101760714D01*
X137816665Y-101760714D01*
X137721427Y-101808333D01*
X137673808Y-101903571D01*
X137673808Y-101998810D01*
X138149999Y-102094048D01*
X137340475Y-101760714D02*
X137102380Y-102427381D01*
X136864284Y-101760714D01*
X135769046Y-102379762D02*
X135626189Y-102427381D01*
X135388093Y-102427381D01*
X135292855Y-102379762D01*
X135245236Y-102332143D01*
X135197617Y-102236905D01*
X135197617Y-102141667D01*
X135245236Y-102046429D01*
X135292855Y-101998810D01*
X135388093Y-101951190D01*
X135578570Y-101903571D01*
X135673808Y-101855952D01*
X135721427Y-101808333D01*
X135769046Y-101713095D01*
X135769046Y-101617857D01*
X135721427Y-101522619D01*
X135673808Y-101475000D01*
X135578570Y-101427381D01*
X135340474Y-101427381D01*
X135197617Y-101475000D01*
X134388093Y-102379762D02*
X134483331Y-102427381D01*
X134673808Y-102427381D01*
X134769046Y-102379762D01*
X134816665Y-102284524D01*
X134816665Y-101903571D01*
X134769046Y-101808333D01*
X134673808Y-101760714D01*
X134483331Y-101760714D01*
X134388093Y-101808333D01*
X134340474Y-101903571D01*
X134340474Y-101998810D01*
X134816665Y-102094048D01*
X133911903Y-101760714D02*
X133911903Y-102427381D01*
X133911903Y-101855952D02*
X133864284Y-101808333D01*
X133769046Y-101760714D01*
X133626188Y-101760714D01*
X133530950Y-101808333D01*
X133483331Y-101903571D01*
X133483331Y-102427381D01*
X133054760Y-102379762D02*
X132959522Y-102427381D01*
X132769046Y-102427381D01*
X132673807Y-102379762D01*
X132626188Y-102284524D01*
X132626188Y-102236905D01*
X132673807Y-102141667D01*
X132769046Y-102094048D01*
X132911903Y-102094048D01*
X133007141Y-102046429D01*
X133054760Y-101951190D01*
X133054760Y-101903571D01*
X133007141Y-101808333D01*
X132911903Y-101760714D01*
X132769046Y-101760714D01*
X132673807Y-101808333D01*
X131816664Y-102379762D02*
X131911902Y-102427381D01*
X132102379Y-102427381D01*
X132197617Y-102379762D01*
X132245236Y-102284524D01*
X132245236Y-101903571D01*
X132197617Y-101808333D01*
X132102379Y-101760714D01*
X131911902Y-101760714D01*
X131816664Y-101808333D01*
X131769045Y-101903571D01*
X131769045Y-101998810D01*
X132245236Y-102094048D01*
X150578571Y-103215476D02*
X150673809Y-103167857D01*
X150864285Y-103167857D01*
X150959523Y-103215476D01*
X151054761Y-103310714D01*
X151102380Y-103405952D01*
X151102380Y-103596429D01*
X151054761Y-103691667D01*
X150959523Y-103786905D01*
X150864285Y-103834524D01*
X150673809Y-103834524D01*
X150578571Y-103786905D01*
X150769047Y-102834524D02*
X151007142Y-102882143D01*
X151245238Y-103025000D01*
X151388095Y-103263095D01*
X151435714Y-103501190D01*
X151388095Y-103739286D01*
X151245238Y-103977381D01*
X151007142Y-104120238D01*
X150769047Y-104167857D01*
X150530952Y-104120238D01*
X150292857Y-103977381D01*
X150150000Y-103739286D01*
X150102380Y-103501190D01*
X150150000Y-103263095D01*
X150292857Y-103025000D01*
X150530952Y-102882143D01*
X150769047Y-102834524D01*
X148959523Y-103072619D02*
X148911904Y-103025000D01*
X148816666Y-102977381D01*
X148578570Y-102977381D01*
X148483332Y-103025000D01*
X148435713Y-103072619D01*
X148388094Y-103167857D01*
X148388094Y-103263095D01*
X148435713Y-103405952D01*
X149007142Y-103977381D01*
X148388094Y-103977381D01*
X147769047Y-102977381D02*
X147673808Y-102977381D01*
X147578570Y-103025000D01*
X147530951Y-103072619D01*
X147483332Y-103167857D01*
X147435713Y-103358333D01*
X147435713Y-103596429D01*
X147483332Y-103786905D01*
X147530951Y-103882143D01*
X147578570Y-103929762D01*
X147673808Y-103977381D01*
X147769047Y-103977381D01*
X147864285Y-103929762D01*
X147911904Y-103882143D01*
X147959523Y-103786905D01*
X148007142Y-103596429D01*
X148007142Y-103358333D01*
X147959523Y-103167857D01*
X147911904Y-103072619D01*
X147864285Y-103025000D01*
X147769047Y-102977381D01*
X146483332Y-103977381D02*
X147054761Y-103977381D01*
X146769047Y-103977381D02*
X146769047Y-102977381D01*
X146864285Y-103120238D01*
X146959523Y-103215476D01*
X147054761Y-103263095D01*
X145578570Y-102977381D02*
X146054761Y-102977381D01*
X146102380Y-103453571D01*
X146054761Y-103405952D01*
X145959523Y-103358333D01*
X145721427Y-103358333D01*
X145626189Y-103405952D01*
X145578570Y-103453571D01*
X145530951Y-103548810D01*
X145530951Y-103786905D01*
X145578570Y-103882143D01*
X145626189Y-103929762D01*
X145721427Y-103977381D01*
X145959523Y-103977381D01*
X146054761Y-103929762D01*
X146102380Y-103882143D01*
X144435713Y-102977381D02*
X144197618Y-103977381D01*
X144007141Y-103263095D01*
X143816665Y-103977381D01*
X143578570Y-102977381D01*
X143149999Y-103977381D02*
X142959523Y-103977381D01*
X142864284Y-103929762D01*
X142816665Y-103882143D01*
X142721427Y-103739286D01*
X142673808Y-103548810D01*
X142673808Y-103167857D01*
X142721427Y-103072619D01*
X142769046Y-103025000D01*
X142864284Y-102977381D01*
X143054761Y-102977381D01*
X143149999Y-103025000D01*
X143197618Y-103072619D01*
X143245237Y-103167857D01*
X143245237Y-103405952D01*
X143197618Y-103501190D01*
X143149999Y-103548810D01*
X143054761Y-103596429D01*
X142864284Y-103596429D01*
X142769046Y-103548810D01*
X142721427Y-103501190D01*
X142673808Y-103405952D01*
X141959522Y-102977381D02*
X141959522Y-103691667D01*
X142007142Y-103834524D01*
X142102380Y-103929762D01*
X142245237Y-103977381D01*
X142340475Y-103977381D01*
X141530951Y-103929762D02*
X141388094Y-103977381D01*
X141149998Y-103977381D01*
X141054760Y-103929762D01*
X141007141Y-103882143D01*
X140959522Y-103786905D01*
X140959522Y-103691667D01*
X141007141Y-103596429D01*
X141054760Y-103548810D01*
X141149998Y-103501190D01*
X141340475Y-103453571D01*
X141435713Y-103405952D01*
X141483332Y-103358333D01*
X141530951Y-103263095D01*
X141530951Y-103167857D01*
X141483332Y-103072619D01*
X141435713Y-103025000D01*
X141340475Y-102977381D01*
X141102379Y-102977381D01*
X140959522Y-103025000D01*
X140626189Y-102977381D02*
X140388094Y-103977381D01*
X140197617Y-103263095D01*
X140007141Y-103977381D01*
X139769046Y-102977381D01*
X138721427Y-103310714D02*
X138483332Y-103977381D01*
X138245236Y-103310714D01*
X137483331Y-103929762D02*
X137578569Y-103977381D01*
X137769046Y-103977381D01*
X137864284Y-103929762D01*
X137911903Y-103834524D01*
X137911903Y-103453571D01*
X137864284Y-103358333D01*
X137769046Y-103310714D01*
X137578569Y-103310714D01*
X137483331Y-103358333D01*
X137435712Y-103453571D01*
X137435712Y-103548810D01*
X137911903Y-103644048D01*
X137007141Y-103977381D02*
X137007141Y-103310714D01*
X137007141Y-103501190D02*
X136959522Y-103405952D01*
X136911903Y-103358333D01*
X136816665Y-103310714D01*
X136721426Y-103310714D01*
X135102378Y-103977381D02*
X135673807Y-103977381D01*
X135388093Y-103977381D02*
X135388093Y-102977381D01*
X135483331Y-103120238D01*
X135578569Y-103215476D01*
X135673807Y-103263095D01*
X134673807Y-103882143D02*
X134626188Y-103929762D01*
X134673807Y-103977381D01*
X134721426Y-103929762D01*
X134673807Y-103882143D01*
X134673807Y-103977381D01*
X134007141Y-102977381D02*
X133911902Y-102977381D01*
X133816664Y-103025000D01*
X133769045Y-103072619D01*
X133721426Y-103167857D01*
X133673807Y-103358333D01*
X133673807Y-103596429D01*
X133721426Y-103786905D01*
X133769045Y-103882143D01*
X133816664Y-103929762D01*
X133911902Y-103977381D01*
X134007141Y-103977381D01*
X134102379Y-103929762D01*
X134149998Y-103882143D01*
X134197617Y-103786905D01*
X134245236Y-103596429D01*
X134245236Y-103358333D01*
X134197617Y-103167857D01*
X134149998Y-103072619D01*
X134102379Y-103025000D01*
X134007141Y-102977381D01*
X146400000Y-124825000D02*
X145200000Y-124825000D01*
X145200000Y-126575000D02*
X146400000Y-126575000D01*
X139350000Y-124825000D02*
X138150000Y-124825000D01*
X138150000Y-126575000D02*
X139350000Y-126575000D01*
X145966666Y-128252381D02*
X146300000Y-127776190D01*
X146538095Y-128252381D02*
X146538095Y-127252381D01*
X146157142Y-127252381D01*
X146061904Y-127300000D01*
X146014285Y-127347619D01*
X145966666Y-127442857D01*
X145966666Y-127585714D01*
X146014285Y-127680952D01*
X146061904Y-127728571D01*
X146157142Y-127776190D01*
X146538095Y-127776190D01*
X145490476Y-128252381D02*
X145300000Y-128252381D01*
X145204761Y-128204762D01*
X145157142Y-128157143D01*
X145061904Y-128014286D01*
X145014285Y-127823810D01*
X145014285Y-127442857D01*
X145061904Y-127347619D01*
X145109523Y-127300000D01*
X145204761Y-127252381D01*
X145395238Y-127252381D01*
X145490476Y-127300000D01*
X145538095Y-127347619D01*
X145585714Y-127442857D01*
X145585714Y-127680952D01*
X145538095Y-127776190D01*
X145490476Y-127823810D01*
X145395238Y-127871429D01*
X145204761Y-127871429D01*
X145109523Y-127823810D01*
X145061904Y-127776190D01*
X145014285Y-127680952D01*
X139392857Y-128252381D02*
X139726191Y-127776190D01*
X139964286Y-128252381D02*
X139964286Y-127252381D01*
X139583333Y-127252381D01*
X139488095Y-127300000D01*
X139440476Y-127347619D01*
X139392857Y-127442857D01*
X139392857Y-127585714D01*
X139440476Y-127680952D01*
X139488095Y-127728571D01*
X139583333Y-127776190D01*
X139964286Y-127776190D01*
X138440476Y-128252381D02*
X139011905Y-128252381D01*
X138726191Y-128252381D02*
X138726191Y-127252381D01*
X138821429Y-127395238D01*
X138916667Y-127490476D01*
X139011905Y-127538095D01*
X137821429Y-127252381D02*
X137726190Y-127252381D01*
X137630952Y-127300000D01*
X137583333Y-127347619D01*
X137535714Y-127442857D01*
X137488095Y-127633333D01*
X137488095Y-127871429D01*
X137535714Y-128061905D01*
X137583333Y-128157143D01*
X137630952Y-128204762D01*
X137726190Y-128252381D01*
X137821429Y-128252381D01*
X137916667Y-128204762D01*
X137964286Y-128157143D01*
X138011905Y-128061905D01*
X138059524Y-127871429D01*
X138059524Y-127633333D01*
X138011905Y-127442857D01*
X137964286Y-127347619D01*
X137916667Y-127300000D01*
X137821429Y-127252381D01*
M02*
