%FSLAX45Y45*%
G04 Gerber Fmt 4.5, Leading zero omitted, Abs format (unit mm)*
G04 Created by KiCad (PCBNEW (2014-10-27 BZR 5228)-product) date 15/05/2015 07:51:40*
%MOMM*%
G01*
G04 APERTURE LIST*
%ADD10C,0.127000*%
%ADD11C,0.100000*%
%ADD12C,0.200000*%
%ADD13C,0.300000*%
G04 APERTURE END LIST*
D10*
D11*
X12200000Y-10000000D02*
X16400000Y-10000000D01*
X16400000Y-14500000D02*
X12200000Y-14500000D01*
X12200000Y-14500000D02*
X12200000Y-10000000D01*
X16400000Y-10000000D02*
X16400000Y-14500000D01*
D12*
X12378250Y-13553250D02*
X12441750Y-13616750D01*
X12441750Y-13553250D02*
X12378250Y-13616750D01*
X13283250Y-14238250D02*
X13346750Y-14301750D01*
X13346750Y-14238250D02*
X13283250Y-14301750D01*
X13438250Y-13023250D02*
X13501750Y-13086750D01*
X13501750Y-13023250D02*
X13438250Y-13086750D01*
X13888250Y-14028250D02*
X13951750Y-14091750D01*
X13951750Y-14028250D02*
X13888250Y-14091750D01*
X14688250Y-14223250D02*
X14751750Y-14286750D01*
X14751750Y-14223250D02*
X14688250Y-14286750D01*
X14768250Y-13533250D02*
X14831750Y-13596750D01*
X14831750Y-13533250D02*
X14768250Y-13596750D01*
X15063250Y-13013250D02*
X15126750Y-13076750D01*
X15126750Y-13013250D02*
X15063250Y-13076750D01*
X15483250Y-14033250D02*
X15546750Y-14096750D01*
X15546750Y-14033250D02*
X15483250Y-14096750D01*
X14103100Y-11830000D02*
G75*
G03X14103100Y-11830000I-38100J0D01*
G01*
X14108100Y-10535000D02*
G75*
G03X14108100Y-10535000I-38100J0D01*
G01*
X14523100Y-12310000D02*
G75*
G03X14523100Y-12310000I-38100J0D01*
G01*
X14528100Y-11015000D02*
G75*
G03X14528100Y-11015000I-38100J0D01*
G01*
X13220000Y-11499000D02*
X13220000Y-11591000D01*
X13174000Y-11545000D02*
X13266000Y-11545000D01*
X15365000Y-11459000D02*
X15365000Y-11551000D01*
X15319000Y-11505000D02*
X15411000Y-11505000D01*
X14030782Y-12104982D02*
X14030782Y-12034217D01*
X13960017Y-12034217D01*
X13960017Y-12104982D01*
X14030782Y-12104982D01*
X14036182Y-10810783D02*
X14036182Y-10740018D01*
X13965417Y-10740018D01*
X13965417Y-10810783D01*
X14036182Y-10810783D01*
X14589582Y-12104982D02*
X14589582Y-12034217D01*
X14518817Y-12034217D01*
X14518817Y-12104982D01*
X14589582Y-12104982D01*
X14594982Y-10810783D02*
X14594982Y-10740018D01*
X14524217Y-10740018D01*
X14524217Y-10810783D01*
X14594982Y-10810783D01*
X12625000Y-12547800D02*
X12675800Y-12497000D01*
X12625000Y-12446200D01*
X12574200Y-12497000D01*
X12625000Y-12547800D01*
X12625000Y-12801800D02*
X12675800Y-12751000D01*
X12625000Y-12700200D01*
X12574200Y-12751000D01*
X12625000Y-12801800D01*
X12625000Y-13055800D02*
X12675800Y-13005000D01*
X12625000Y-12954200D01*
X12574200Y-13005000D01*
X12625000Y-13055800D01*
X16025000Y-12690800D02*
X16075800Y-12640000D01*
X16025000Y-12589200D01*
X15974200Y-12640000D01*
X16025000Y-12690800D01*
X16025000Y-12944800D02*
X16075800Y-12894000D01*
X16025000Y-12843200D01*
X15974200Y-12894000D01*
X16025000Y-12944800D01*
X12350000Y-11075000D02*
X12530000Y-11255000D01*
X12530000Y-11075000D02*
X12350000Y-11255000D01*
X12530000Y-11165000D02*
G75*
G03X12530000Y-11165000I-90000J0D01*
G01*
X12350000Y-11835000D02*
X12530000Y-12015000D01*
X12530000Y-11835000D02*
X12350000Y-12015000D01*
X12530000Y-11925000D02*
G75*
G03X12530000Y-11925000I-90000J0D01*
G01*
X16055000Y-11035000D02*
X16235000Y-11215000D01*
X16235000Y-11035000D02*
X16055000Y-11215000D01*
X16235000Y-11125000D02*
G75*
G03X16235000Y-11125000I-90000J0D01*
G01*
X16055000Y-11795000D02*
X16235000Y-11975000D01*
X16235000Y-11795000D02*
X16055000Y-11975000D01*
X16235000Y-11885000D02*
G75*
G03X16235000Y-11885000I-90000J0D01*
G01*
X12410000Y-10195000D02*
X12800000Y-10585000D01*
X12800000Y-10195000D02*
X12410000Y-10585000D01*
X12605000Y-10195000D02*
X12605000Y-10585000D01*
X12410000Y-10390000D02*
X12800000Y-10390000D01*
X12415000Y-13905000D02*
X12805000Y-14295000D01*
X12805000Y-13905000D02*
X12415000Y-14295000D01*
X12610000Y-13905000D02*
X12610000Y-14295000D01*
X12415000Y-14100000D02*
X12805000Y-14100000D01*
X15795000Y-13910000D02*
X16185000Y-14300000D01*
X16185000Y-13910000D02*
X15795000Y-14300000D01*
X15990000Y-13910000D02*
X15990000Y-14300000D01*
X15795000Y-14105000D02*
X16185000Y-14105000D01*
X15800000Y-10195000D02*
X16190000Y-10585000D01*
X16190000Y-10195000D02*
X15800000Y-10585000D01*
X15995000Y-10195000D02*
X15995000Y-10585000D01*
X15800000Y-10390000D02*
X16190000Y-10390000D01*
D13*
X12466428Y-14970714D02*
X12466428Y-14670714D01*
X12537857Y-14670714D01*
X12580714Y-14685000D01*
X12609286Y-14713571D01*
X12623571Y-14742143D01*
X12637857Y-14799286D01*
X12637857Y-14842143D01*
X12623571Y-14899286D01*
X12609286Y-14927857D01*
X12580714Y-14956429D01*
X12537857Y-14970714D01*
X12466428Y-14970714D01*
X12766428Y-14970714D02*
X12766428Y-14770714D01*
X12766428Y-14827857D02*
X12780714Y-14799286D01*
X12795000Y-14785000D01*
X12823571Y-14770714D01*
X12852143Y-14770714D01*
X12952143Y-14970714D02*
X12952143Y-14770714D01*
X12952143Y-14670714D02*
X12937857Y-14685000D01*
X12952143Y-14699286D01*
X12966428Y-14685000D01*
X12952143Y-14670714D01*
X12952143Y-14699286D01*
X13137857Y-14970714D02*
X13109286Y-14956429D01*
X13095000Y-14927857D01*
X13095000Y-14670714D01*
X13295000Y-14970714D02*
X13266428Y-14956429D01*
X13252143Y-14927857D01*
X13252143Y-14670714D01*
X13637857Y-14970714D02*
X13637857Y-14670714D01*
X13737857Y-14885000D01*
X13837857Y-14670714D01*
X13837857Y-14970714D01*
X14109286Y-14970714D02*
X14109286Y-14813571D01*
X14095000Y-14785000D01*
X14066428Y-14770714D01*
X14009286Y-14770714D01*
X13980714Y-14785000D01*
X14109286Y-14956429D02*
X14080714Y-14970714D01*
X14009286Y-14970714D01*
X13980714Y-14956429D01*
X13966428Y-14927857D01*
X13966428Y-14899286D01*
X13980714Y-14870714D01*
X14009286Y-14856429D01*
X14080714Y-14856429D01*
X14109286Y-14842143D01*
X14252143Y-14770714D02*
X14252143Y-15070714D01*
X14252143Y-14785000D02*
X14280714Y-14770714D01*
X14337857Y-14770714D01*
X14366428Y-14785000D01*
X14380714Y-14799286D01*
X14395000Y-14827857D01*
X14395000Y-14913571D01*
X14380714Y-14942143D01*
X14366428Y-14956429D01*
X14337857Y-14970714D01*
X14280714Y-14970714D01*
X14252143Y-14956429D01*
X14523571Y-14942143D02*
X14537857Y-14956429D01*
X14523571Y-14970714D01*
X14509286Y-14956429D01*
X14523571Y-14942143D01*
X14523571Y-14970714D01*
X14523571Y-14785000D02*
X14537857Y-14799286D01*
X14523571Y-14813571D01*
X14509286Y-14799286D01*
X14523571Y-14785000D01*
X14523571Y-14813571D01*
X12131500Y-15433250D02*
X12195000Y-15496750D01*
X12195000Y-15433250D02*
X12131500Y-15496750D01*
X12523571Y-15300714D02*
X12552143Y-15300714D01*
X12580714Y-15315000D01*
X12595000Y-15329286D01*
X12609286Y-15357857D01*
X12623571Y-15415000D01*
X12623571Y-15486429D01*
X12609286Y-15543571D01*
X12595000Y-15572143D01*
X12580714Y-15586429D01*
X12552143Y-15600714D01*
X12523571Y-15600714D01*
X12495000Y-15586429D01*
X12480714Y-15572143D01*
X12466428Y-15543571D01*
X12452143Y-15486429D01*
X12452143Y-15415000D01*
X12466428Y-15357857D01*
X12480714Y-15329286D01*
X12495000Y-15315000D01*
X12523571Y-15300714D01*
X12752143Y-15572143D02*
X12766428Y-15586429D01*
X12752143Y-15600714D01*
X12737857Y-15586429D01*
X12752143Y-15572143D01*
X12752143Y-15600714D01*
X13023571Y-15300714D02*
X12966428Y-15300714D01*
X12937857Y-15315000D01*
X12923571Y-15329286D01*
X12895000Y-15372143D01*
X12880714Y-15429286D01*
X12880714Y-15543571D01*
X12895000Y-15572143D01*
X12909286Y-15586429D01*
X12937857Y-15600714D01*
X12995000Y-15600714D01*
X13023571Y-15586429D01*
X13037857Y-15572143D01*
X13052143Y-15543571D01*
X13052143Y-15472143D01*
X13037857Y-15443571D01*
X13023571Y-15429286D01*
X12995000Y-15415000D01*
X12937857Y-15415000D01*
X12909286Y-15429286D01*
X12895000Y-15443571D01*
X12880714Y-15472143D01*
X13309286Y-15400714D02*
X13309286Y-15600714D01*
X13237857Y-15286429D02*
X13166428Y-15500714D01*
X13352143Y-15500714D01*
X13466428Y-15600714D02*
X13466428Y-15400714D01*
X13466428Y-15429286D02*
X13480714Y-15415000D01*
X13509286Y-15400714D01*
X13552143Y-15400714D01*
X13580714Y-15415000D01*
X13595000Y-15443571D01*
X13595000Y-15600714D01*
X13595000Y-15443571D02*
X13609286Y-15415000D01*
X13637857Y-15400714D01*
X13680714Y-15400714D01*
X13709286Y-15415000D01*
X13723571Y-15443571D01*
X13723571Y-15600714D01*
X13866428Y-15600714D02*
X13866428Y-15400714D01*
X13866428Y-15429286D02*
X13880714Y-15415000D01*
X13909286Y-15400714D01*
X13952143Y-15400714D01*
X13980714Y-15415000D01*
X13995000Y-15443571D01*
X13995000Y-15600714D01*
X13995000Y-15443571D02*
X14009286Y-15415000D01*
X14037857Y-15400714D01*
X14080714Y-15400714D01*
X14109286Y-15415000D01*
X14123571Y-15443571D01*
X14123571Y-15600714D01*
X14709286Y-15286429D02*
X14452143Y-15672143D01*
X15095000Y-15300714D02*
X15123571Y-15300714D01*
X15152143Y-15315000D01*
X15166428Y-15329286D01*
X15180714Y-15357857D01*
X15195000Y-15415000D01*
X15195000Y-15486429D01*
X15180714Y-15543571D01*
X15166428Y-15572143D01*
X15152143Y-15586429D01*
X15123571Y-15600714D01*
X15095000Y-15600714D01*
X15066428Y-15586429D01*
X15052143Y-15572143D01*
X15037857Y-15543571D01*
X15023571Y-15486429D01*
X15023571Y-15415000D01*
X15037857Y-15357857D01*
X15052143Y-15329286D01*
X15066428Y-15315000D01*
X15095000Y-15300714D01*
X15323571Y-15572143D02*
X15337857Y-15586429D01*
X15323571Y-15600714D01*
X15309286Y-15586429D01*
X15323571Y-15572143D01*
X15323571Y-15600714D01*
X15523571Y-15300714D02*
X15552143Y-15300714D01*
X15580714Y-15315000D01*
X15595000Y-15329286D01*
X15609285Y-15357857D01*
X15623571Y-15415000D01*
X15623571Y-15486429D01*
X15609285Y-15543571D01*
X15595000Y-15572143D01*
X15580714Y-15586429D01*
X15552143Y-15600714D01*
X15523571Y-15600714D01*
X15495000Y-15586429D01*
X15480714Y-15572143D01*
X15466428Y-15543571D01*
X15452143Y-15486429D01*
X15452143Y-15415000D01*
X15466428Y-15357857D01*
X15480714Y-15329286D01*
X15495000Y-15315000D01*
X15523571Y-15300714D01*
X15737857Y-15329286D02*
X15752143Y-15315000D01*
X15780714Y-15300714D01*
X15852143Y-15300714D01*
X15880714Y-15315000D01*
X15895000Y-15329286D01*
X15909285Y-15357857D01*
X15909285Y-15386429D01*
X15895000Y-15429286D01*
X15723571Y-15600714D01*
X15909285Y-15600714D01*
X16180714Y-15300714D02*
X16037857Y-15300714D01*
X16023571Y-15443571D01*
X16037857Y-15429286D01*
X16066428Y-15415000D01*
X16137857Y-15415000D01*
X16166428Y-15429286D01*
X16180714Y-15443571D01*
X16195000Y-15472143D01*
X16195000Y-15543571D01*
X16180714Y-15572143D01*
X16166428Y-15586429D01*
X16137857Y-15600714D01*
X16066428Y-15600714D01*
X16037857Y-15586429D01*
X16023571Y-15572143D01*
X16309286Y-15300714D02*
X16309286Y-15357857D01*
X16423571Y-15300714D02*
X16423571Y-15357857D01*
X16866428Y-15715000D02*
X16852143Y-15700714D01*
X16823571Y-15657857D01*
X16809286Y-15629286D01*
X16795000Y-15586429D01*
X16780714Y-15515000D01*
X16780714Y-15457857D01*
X16795000Y-15386429D01*
X16809286Y-15343571D01*
X16823571Y-15315000D01*
X16852143Y-15272143D01*
X16866428Y-15257857D01*
X17023571Y-15429286D02*
X16995000Y-15415000D01*
X16980714Y-15400714D01*
X16966428Y-15372143D01*
X16966428Y-15357857D01*
X16980714Y-15329286D01*
X16995000Y-15315000D01*
X17023571Y-15300714D01*
X17080714Y-15300714D01*
X17109286Y-15315000D01*
X17123571Y-15329286D01*
X17137857Y-15357857D01*
X17137857Y-15372143D01*
X17123571Y-15400714D01*
X17109286Y-15415000D01*
X17080714Y-15429286D01*
X17023571Y-15429286D01*
X16995000Y-15443571D01*
X16980714Y-15457857D01*
X16966428Y-15486429D01*
X16966428Y-15543571D01*
X16980714Y-15572143D01*
X16995000Y-15586429D01*
X17023571Y-15600714D01*
X17080714Y-15600714D01*
X17109286Y-15586429D01*
X17123571Y-15572143D01*
X17137857Y-15543571D01*
X17137857Y-15486429D01*
X17123571Y-15457857D01*
X17109286Y-15443571D01*
X17080714Y-15429286D01*
X17495000Y-15600714D02*
X17495000Y-15300714D01*
X17623571Y-15600714D02*
X17623571Y-15443571D01*
X17609286Y-15415000D01*
X17580714Y-15400714D01*
X17537857Y-15400714D01*
X17509286Y-15415000D01*
X17495000Y-15429286D01*
X17809286Y-15600714D02*
X17780714Y-15586429D01*
X17766428Y-15572143D01*
X17752143Y-15543571D01*
X17752143Y-15457857D01*
X17766428Y-15429286D01*
X17780714Y-15415000D01*
X17809286Y-15400714D01*
X17852143Y-15400714D01*
X17880714Y-15415000D01*
X17895000Y-15429286D01*
X17909286Y-15457857D01*
X17909286Y-15543571D01*
X17895000Y-15572143D01*
X17880714Y-15586429D01*
X17852143Y-15600714D01*
X17809286Y-15600714D01*
X18080714Y-15600714D02*
X18052143Y-15586429D01*
X18037857Y-15557857D01*
X18037857Y-15300714D01*
X18309286Y-15586429D02*
X18280714Y-15600714D01*
X18223571Y-15600714D01*
X18195000Y-15586429D01*
X18180714Y-15557857D01*
X18180714Y-15443571D01*
X18195000Y-15415000D01*
X18223571Y-15400714D01*
X18280714Y-15400714D01*
X18309286Y-15415000D01*
X18323571Y-15443571D01*
X18323571Y-15472143D01*
X18180714Y-15500714D01*
X18437857Y-15586429D02*
X18466429Y-15600714D01*
X18523571Y-15600714D01*
X18552143Y-15586429D01*
X18566429Y-15557857D01*
X18566429Y-15543571D01*
X18552143Y-15515000D01*
X18523571Y-15500714D01*
X18480714Y-15500714D01*
X18452143Y-15486429D01*
X18437857Y-15457857D01*
X18437857Y-15443571D01*
X18452143Y-15415000D01*
X18480714Y-15400714D01*
X18523571Y-15400714D01*
X18552143Y-15415000D01*
X18666428Y-15715000D02*
X18680714Y-15700714D01*
X18709286Y-15657857D01*
X18723571Y-15629286D01*
X18737857Y-15586429D01*
X18752143Y-15515000D01*
X18752143Y-15457857D01*
X18737857Y-15386429D01*
X18723571Y-15343571D01*
X18709286Y-15315000D01*
X18680714Y-15272143D01*
X18666428Y-15257857D01*
X12195000Y-15861000D02*
G75*
G03X12195000Y-15861000I-38100J0D01*
G01*
X12523571Y-15696714D02*
X12552143Y-15696714D01*
X12580714Y-15711000D01*
X12595000Y-15725286D01*
X12609286Y-15753857D01*
X12623571Y-15811000D01*
X12623571Y-15882429D01*
X12609286Y-15939571D01*
X12595000Y-15968143D01*
X12580714Y-15982429D01*
X12552143Y-15996714D01*
X12523571Y-15996714D01*
X12495000Y-15982429D01*
X12480714Y-15968143D01*
X12466428Y-15939571D01*
X12452143Y-15882429D01*
X12452143Y-15811000D01*
X12466428Y-15753857D01*
X12480714Y-15725286D01*
X12495000Y-15711000D01*
X12523571Y-15696714D01*
X12752143Y-15968143D02*
X12766428Y-15982429D01*
X12752143Y-15996714D01*
X12737857Y-15982429D01*
X12752143Y-15968143D01*
X12752143Y-15996714D01*
X12866428Y-15696714D02*
X13066428Y-15696714D01*
X12937857Y-15996714D01*
X13309286Y-15696714D02*
X13252143Y-15696714D01*
X13223571Y-15711000D01*
X13209286Y-15725286D01*
X13180714Y-15768143D01*
X13166428Y-15825286D01*
X13166428Y-15939571D01*
X13180714Y-15968143D01*
X13195000Y-15982429D01*
X13223571Y-15996714D01*
X13280714Y-15996714D01*
X13309286Y-15982429D01*
X13323571Y-15968143D01*
X13337857Y-15939571D01*
X13337857Y-15868143D01*
X13323571Y-15839571D01*
X13309286Y-15825286D01*
X13280714Y-15811000D01*
X13223571Y-15811000D01*
X13195000Y-15825286D01*
X13180714Y-15839571D01*
X13166428Y-15868143D01*
X13466428Y-15996714D02*
X13466428Y-15796714D01*
X13466428Y-15825286D02*
X13480714Y-15811000D01*
X13509286Y-15796714D01*
X13552143Y-15796714D01*
X13580714Y-15811000D01*
X13595000Y-15839571D01*
X13595000Y-15996714D01*
X13595000Y-15839571D02*
X13609286Y-15811000D01*
X13637857Y-15796714D01*
X13680714Y-15796714D01*
X13709286Y-15811000D01*
X13723571Y-15839571D01*
X13723571Y-15996714D01*
X13866428Y-15996714D02*
X13866428Y-15796714D01*
X13866428Y-15825286D02*
X13880714Y-15811000D01*
X13909286Y-15796714D01*
X13952143Y-15796714D01*
X13980714Y-15811000D01*
X13995000Y-15839571D01*
X13995000Y-15996714D01*
X13995000Y-15839571D02*
X14009286Y-15811000D01*
X14037857Y-15796714D01*
X14080714Y-15796714D01*
X14109286Y-15811000D01*
X14123571Y-15839571D01*
X14123571Y-15996714D01*
X14709286Y-15682429D02*
X14452143Y-16068143D01*
X15095000Y-15696714D02*
X15123571Y-15696714D01*
X15152143Y-15711000D01*
X15166428Y-15725286D01*
X15180714Y-15753857D01*
X15195000Y-15811000D01*
X15195000Y-15882429D01*
X15180714Y-15939571D01*
X15166428Y-15968143D01*
X15152143Y-15982429D01*
X15123571Y-15996714D01*
X15095000Y-15996714D01*
X15066428Y-15982429D01*
X15052143Y-15968143D01*
X15037857Y-15939571D01*
X15023571Y-15882429D01*
X15023571Y-15811000D01*
X15037857Y-15753857D01*
X15052143Y-15725286D01*
X15066428Y-15711000D01*
X15095000Y-15696714D01*
X15323571Y-15968143D02*
X15337857Y-15982429D01*
X15323571Y-15996714D01*
X15309286Y-15982429D01*
X15323571Y-15968143D01*
X15323571Y-15996714D01*
X15523571Y-15696714D02*
X15552143Y-15696714D01*
X15580714Y-15711000D01*
X15595000Y-15725286D01*
X15609285Y-15753857D01*
X15623571Y-15811000D01*
X15623571Y-15882429D01*
X15609285Y-15939571D01*
X15595000Y-15968143D01*
X15580714Y-15982429D01*
X15552143Y-15996714D01*
X15523571Y-15996714D01*
X15495000Y-15982429D01*
X15480714Y-15968143D01*
X15466428Y-15939571D01*
X15452143Y-15882429D01*
X15452143Y-15811000D01*
X15466428Y-15753857D01*
X15480714Y-15725286D01*
X15495000Y-15711000D01*
X15523571Y-15696714D01*
X15723571Y-15696714D02*
X15909285Y-15696714D01*
X15809285Y-15811000D01*
X15852143Y-15811000D01*
X15880714Y-15825286D01*
X15895000Y-15839571D01*
X15909285Y-15868143D01*
X15909285Y-15939571D01*
X15895000Y-15968143D01*
X15880714Y-15982429D01*
X15852143Y-15996714D01*
X15766428Y-15996714D01*
X15737857Y-15982429D01*
X15723571Y-15968143D01*
X16095000Y-15696714D02*
X16123571Y-15696714D01*
X16152143Y-15711000D01*
X16166428Y-15725286D01*
X16180714Y-15753857D01*
X16195000Y-15811000D01*
X16195000Y-15882429D01*
X16180714Y-15939571D01*
X16166428Y-15968143D01*
X16152143Y-15982429D01*
X16123571Y-15996714D01*
X16095000Y-15996714D01*
X16066428Y-15982429D01*
X16052143Y-15968143D01*
X16037857Y-15939571D01*
X16023571Y-15882429D01*
X16023571Y-15811000D01*
X16037857Y-15753857D01*
X16052143Y-15725286D01*
X16066428Y-15711000D01*
X16095000Y-15696714D01*
X16309286Y-15696714D02*
X16309286Y-15753857D01*
X16423571Y-15696714D02*
X16423571Y-15753857D01*
X16866428Y-16111000D02*
X16852143Y-16096714D01*
X16823571Y-16053857D01*
X16809286Y-16025286D01*
X16795000Y-15982429D01*
X16780714Y-15911000D01*
X16780714Y-15853857D01*
X16795000Y-15782429D01*
X16809286Y-15739571D01*
X16823571Y-15711000D01*
X16852143Y-15668143D01*
X16866428Y-15653857D01*
X17109286Y-15796714D02*
X17109286Y-15996714D01*
X17037857Y-15682429D02*
X16966428Y-15896714D01*
X17152143Y-15896714D01*
X17495000Y-15996714D02*
X17495000Y-15696714D01*
X17623571Y-15996714D02*
X17623571Y-15839571D01*
X17609286Y-15811000D01*
X17580714Y-15796714D01*
X17537857Y-15796714D01*
X17509286Y-15811000D01*
X17495000Y-15825286D01*
X17809286Y-15996714D02*
X17780714Y-15982429D01*
X17766428Y-15968143D01*
X17752143Y-15939571D01*
X17752143Y-15853857D01*
X17766428Y-15825286D01*
X17780714Y-15811000D01*
X17809286Y-15796714D01*
X17852143Y-15796714D01*
X17880714Y-15811000D01*
X17895000Y-15825286D01*
X17909286Y-15853857D01*
X17909286Y-15939571D01*
X17895000Y-15968143D01*
X17880714Y-15982429D01*
X17852143Y-15996714D01*
X17809286Y-15996714D01*
X18080714Y-15996714D02*
X18052143Y-15982429D01*
X18037857Y-15953857D01*
X18037857Y-15696714D01*
X18309286Y-15982429D02*
X18280714Y-15996714D01*
X18223571Y-15996714D01*
X18195000Y-15982429D01*
X18180714Y-15953857D01*
X18180714Y-15839571D01*
X18195000Y-15811000D01*
X18223571Y-15796714D01*
X18280714Y-15796714D01*
X18309286Y-15811000D01*
X18323571Y-15839571D01*
X18323571Y-15868143D01*
X18180714Y-15896714D01*
X18437857Y-15982429D02*
X18466429Y-15996714D01*
X18523571Y-15996714D01*
X18552143Y-15982429D01*
X18566429Y-15953857D01*
X18566429Y-15939571D01*
X18552143Y-15911000D01*
X18523571Y-15896714D01*
X18480714Y-15896714D01*
X18452143Y-15882429D01*
X18437857Y-15853857D01*
X18437857Y-15839571D01*
X18452143Y-15811000D01*
X18480714Y-15796714D01*
X18523571Y-15796714D01*
X18552143Y-15811000D01*
X18666428Y-16111000D02*
X18680714Y-16096714D01*
X18709286Y-16053857D01*
X18723571Y-16025286D01*
X18737857Y-15982429D01*
X18752143Y-15911000D01*
X18752143Y-15853857D01*
X18737857Y-15782429D01*
X18723571Y-15739571D01*
X18709286Y-15711000D01*
X18680714Y-15668143D01*
X18666428Y-15653857D01*
X12149000Y-16211000D02*
X12149000Y-16303000D01*
X12103000Y-16257000D02*
X12195000Y-16257000D01*
X12523571Y-16092714D02*
X12552143Y-16092714D01*
X12580714Y-16107000D01*
X12595000Y-16121286D01*
X12609286Y-16149857D01*
X12623571Y-16207000D01*
X12623571Y-16278429D01*
X12609286Y-16335571D01*
X12595000Y-16364143D01*
X12580714Y-16378429D01*
X12552143Y-16392714D01*
X12523571Y-16392714D01*
X12495000Y-16378429D01*
X12480714Y-16364143D01*
X12466428Y-16335571D01*
X12452143Y-16278429D01*
X12452143Y-16207000D01*
X12466428Y-16149857D01*
X12480714Y-16121286D01*
X12495000Y-16107000D01*
X12523571Y-16092714D01*
X12752143Y-16364143D02*
X12766428Y-16378429D01*
X12752143Y-16392714D01*
X12737857Y-16378429D01*
X12752143Y-16364143D01*
X12752143Y-16392714D01*
X12909286Y-16392714D02*
X12966428Y-16392714D01*
X12995000Y-16378429D01*
X13009286Y-16364143D01*
X13037857Y-16321286D01*
X13052143Y-16264143D01*
X13052143Y-16149857D01*
X13037857Y-16121286D01*
X13023571Y-16107000D01*
X12995000Y-16092714D01*
X12937857Y-16092714D01*
X12909286Y-16107000D01*
X12895000Y-16121286D01*
X12880714Y-16149857D01*
X12880714Y-16221286D01*
X12895000Y-16249857D01*
X12909286Y-16264143D01*
X12937857Y-16278429D01*
X12995000Y-16278429D01*
X13023571Y-16264143D01*
X13037857Y-16249857D01*
X13052143Y-16221286D01*
X13166428Y-16121286D02*
X13180714Y-16107000D01*
X13209286Y-16092714D01*
X13280714Y-16092714D01*
X13309286Y-16107000D01*
X13323571Y-16121286D01*
X13337857Y-16149857D01*
X13337857Y-16178429D01*
X13323571Y-16221286D01*
X13152143Y-16392714D01*
X13337857Y-16392714D01*
X13466428Y-16392714D02*
X13466428Y-16192714D01*
X13466428Y-16221286D02*
X13480714Y-16207000D01*
X13509286Y-16192714D01*
X13552143Y-16192714D01*
X13580714Y-16207000D01*
X13595000Y-16235571D01*
X13595000Y-16392714D01*
X13595000Y-16235571D02*
X13609286Y-16207000D01*
X13637857Y-16192714D01*
X13680714Y-16192714D01*
X13709286Y-16207000D01*
X13723571Y-16235571D01*
X13723571Y-16392714D01*
X13866428Y-16392714D02*
X13866428Y-16192714D01*
X13866428Y-16221286D02*
X13880714Y-16207000D01*
X13909286Y-16192714D01*
X13952143Y-16192714D01*
X13980714Y-16207000D01*
X13995000Y-16235571D01*
X13995000Y-16392714D01*
X13995000Y-16235571D02*
X14009286Y-16207000D01*
X14037857Y-16192714D01*
X14080714Y-16192714D01*
X14109286Y-16207000D01*
X14123571Y-16235571D01*
X14123571Y-16392714D01*
X14709286Y-16078429D02*
X14452143Y-16464143D01*
X15095000Y-16092714D02*
X15123571Y-16092714D01*
X15152143Y-16107000D01*
X15166428Y-16121286D01*
X15180714Y-16149857D01*
X15195000Y-16207000D01*
X15195000Y-16278429D01*
X15180714Y-16335571D01*
X15166428Y-16364143D01*
X15152143Y-16378429D01*
X15123571Y-16392714D01*
X15095000Y-16392714D01*
X15066428Y-16378429D01*
X15052143Y-16364143D01*
X15037857Y-16335571D01*
X15023571Y-16278429D01*
X15023571Y-16207000D01*
X15037857Y-16149857D01*
X15052143Y-16121286D01*
X15066428Y-16107000D01*
X15095000Y-16092714D01*
X15323571Y-16364143D02*
X15337857Y-16378429D01*
X15323571Y-16392714D01*
X15309286Y-16378429D01*
X15323571Y-16364143D01*
X15323571Y-16392714D01*
X15523571Y-16092714D02*
X15552143Y-16092714D01*
X15580714Y-16107000D01*
X15595000Y-16121286D01*
X15609285Y-16149857D01*
X15623571Y-16207000D01*
X15623571Y-16278429D01*
X15609285Y-16335571D01*
X15595000Y-16364143D01*
X15580714Y-16378429D01*
X15552143Y-16392714D01*
X15523571Y-16392714D01*
X15495000Y-16378429D01*
X15480714Y-16364143D01*
X15466428Y-16335571D01*
X15452143Y-16278429D01*
X15452143Y-16207000D01*
X15466428Y-16149857D01*
X15480714Y-16121286D01*
X15495000Y-16107000D01*
X15523571Y-16092714D01*
X15723571Y-16092714D02*
X15909285Y-16092714D01*
X15809285Y-16207000D01*
X15852143Y-16207000D01*
X15880714Y-16221286D01*
X15895000Y-16235571D01*
X15909285Y-16264143D01*
X15909285Y-16335571D01*
X15895000Y-16364143D01*
X15880714Y-16378429D01*
X15852143Y-16392714D01*
X15766428Y-16392714D01*
X15737857Y-16378429D01*
X15723571Y-16364143D01*
X16166428Y-16092714D02*
X16109285Y-16092714D01*
X16080714Y-16107000D01*
X16066428Y-16121286D01*
X16037857Y-16164143D01*
X16023571Y-16221286D01*
X16023571Y-16335571D01*
X16037857Y-16364143D01*
X16052143Y-16378429D01*
X16080714Y-16392714D01*
X16137857Y-16392714D01*
X16166428Y-16378429D01*
X16180714Y-16364143D01*
X16195000Y-16335571D01*
X16195000Y-16264143D01*
X16180714Y-16235571D01*
X16166428Y-16221286D01*
X16137857Y-16207000D01*
X16080714Y-16207000D01*
X16052143Y-16221286D01*
X16037857Y-16235571D01*
X16023571Y-16264143D01*
X16309286Y-16092714D02*
X16309286Y-16149857D01*
X16423571Y-16092714D02*
X16423571Y-16149857D01*
X16866428Y-16507000D02*
X16852143Y-16492714D01*
X16823571Y-16449857D01*
X16809286Y-16421286D01*
X16795000Y-16378429D01*
X16780714Y-16307000D01*
X16780714Y-16249857D01*
X16795000Y-16178429D01*
X16809286Y-16135571D01*
X16823571Y-16107000D01*
X16852143Y-16064143D01*
X16866428Y-16049857D01*
X16966428Y-16121286D02*
X16980714Y-16107000D01*
X17009286Y-16092714D01*
X17080714Y-16092714D01*
X17109286Y-16107000D01*
X17123571Y-16121286D01*
X17137857Y-16149857D01*
X17137857Y-16178429D01*
X17123571Y-16221286D01*
X16952143Y-16392714D01*
X17137857Y-16392714D01*
X17495000Y-16392714D02*
X17495000Y-16092714D01*
X17623571Y-16392714D02*
X17623571Y-16235571D01*
X17609286Y-16207000D01*
X17580714Y-16192714D01*
X17537857Y-16192714D01*
X17509286Y-16207000D01*
X17495000Y-16221286D01*
X17809286Y-16392714D02*
X17780714Y-16378429D01*
X17766428Y-16364143D01*
X17752143Y-16335571D01*
X17752143Y-16249857D01*
X17766428Y-16221286D01*
X17780714Y-16207000D01*
X17809286Y-16192714D01*
X17852143Y-16192714D01*
X17880714Y-16207000D01*
X17895000Y-16221286D01*
X17909286Y-16249857D01*
X17909286Y-16335571D01*
X17895000Y-16364143D01*
X17880714Y-16378429D01*
X17852143Y-16392714D01*
X17809286Y-16392714D01*
X18080714Y-16392714D02*
X18052143Y-16378429D01*
X18037857Y-16349857D01*
X18037857Y-16092714D01*
X18309286Y-16378429D02*
X18280714Y-16392714D01*
X18223571Y-16392714D01*
X18195000Y-16378429D01*
X18180714Y-16349857D01*
X18180714Y-16235571D01*
X18195000Y-16207000D01*
X18223571Y-16192714D01*
X18280714Y-16192714D01*
X18309286Y-16207000D01*
X18323571Y-16235571D01*
X18323571Y-16264143D01*
X18180714Y-16292714D01*
X18437857Y-16378429D02*
X18466429Y-16392714D01*
X18523571Y-16392714D01*
X18552143Y-16378429D01*
X18566429Y-16349857D01*
X18566429Y-16335571D01*
X18552143Y-16307000D01*
X18523571Y-16292714D01*
X18480714Y-16292714D01*
X18452143Y-16278429D01*
X18437857Y-16249857D01*
X18437857Y-16235571D01*
X18452143Y-16207000D01*
X18480714Y-16192714D01*
X18523571Y-16192714D01*
X18552143Y-16207000D01*
X18666428Y-16507000D02*
X18680714Y-16492714D01*
X18709286Y-16449857D01*
X18723571Y-16421286D01*
X18737857Y-16378429D01*
X18752143Y-16307000D01*
X18752143Y-16249857D01*
X18737857Y-16178429D01*
X18723571Y-16135571D01*
X18709286Y-16107000D01*
X18680714Y-16064143D01*
X18666428Y-16049857D01*
X12180344Y-16688383D02*
X12180344Y-16617618D01*
X12109579Y-16617618D01*
X12109579Y-16688383D01*
X12180344Y-16688383D01*
X12623571Y-16788714D02*
X12452143Y-16788714D01*
X12537857Y-16788714D02*
X12537857Y-16488714D01*
X12509286Y-16531571D01*
X12480714Y-16560143D01*
X12452143Y-16574429D01*
X12752143Y-16760143D02*
X12766428Y-16774429D01*
X12752143Y-16788714D01*
X12737857Y-16774429D01*
X12752143Y-16760143D01*
X12752143Y-16788714D01*
X12952143Y-16488714D02*
X12980714Y-16488714D01*
X13009286Y-16503000D01*
X13023571Y-16517286D01*
X13037857Y-16545857D01*
X13052143Y-16603000D01*
X13052143Y-16674429D01*
X13037857Y-16731571D01*
X13023571Y-16760143D01*
X13009286Y-16774429D01*
X12980714Y-16788714D01*
X12952143Y-16788714D01*
X12923571Y-16774429D01*
X12909286Y-16760143D01*
X12895000Y-16731571D01*
X12880714Y-16674429D01*
X12880714Y-16603000D01*
X12895000Y-16545857D01*
X12909286Y-16517286D01*
X12923571Y-16503000D01*
X12952143Y-16488714D01*
X13237857Y-16488714D02*
X13266428Y-16488714D01*
X13295000Y-16503000D01*
X13309286Y-16517286D01*
X13323571Y-16545857D01*
X13337857Y-16603000D01*
X13337857Y-16674429D01*
X13323571Y-16731571D01*
X13309286Y-16760143D01*
X13295000Y-16774429D01*
X13266428Y-16788714D01*
X13237857Y-16788714D01*
X13209286Y-16774429D01*
X13195000Y-16760143D01*
X13180714Y-16731571D01*
X13166428Y-16674429D01*
X13166428Y-16603000D01*
X13180714Y-16545857D01*
X13195000Y-16517286D01*
X13209286Y-16503000D01*
X13237857Y-16488714D01*
X13466428Y-16788714D02*
X13466428Y-16588714D01*
X13466428Y-16617286D02*
X13480714Y-16603000D01*
X13509286Y-16588714D01*
X13552143Y-16588714D01*
X13580714Y-16603000D01*
X13595000Y-16631571D01*
X13595000Y-16788714D01*
X13595000Y-16631571D02*
X13609286Y-16603000D01*
X13637857Y-16588714D01*
X13680714Y-16588714D01*
X13709286Y-16603000D01*
X13723571Y-16631571D01*
X13723571Y-16788714D01*
X13866428Y-16788714D02*
X13866428Y-16588714D01*
X13866428Y-16617286D02*
X13880714Y-16603000D01*
X13909286Y-16588714D01*
X13952143Y-16588714D01*
X13980714Y-16603000D01*
X13995000Y-16631571D01*
X13995000Y-16788714D01*
X13995000Y-16631571D02*
X14009286Y-16603000D01*
X14037857Y-16588714D01*
X14080714Y-16588714D01*
X14109286Y-16603000D01*
X14123571Y-16631571D01*
X14123571Y-16788714D01*
X14709286Y-16474429D02*
X14452143Y-16860143D01*
X15095000Y-16488714D02*
X15123571Y-16488714D01*
X15152143Y-16503000D01*
X15166428Y-16517286D01*
X15180714Y-16545857D01*
X15195000Y-16603000D01*
X15195000Y-16674429D01*
X15180714Y-16731571D01*
X15166428Y-16760143D01*
X15152143Y-16774429D01*
X15123571Y-16788714D01*
X15095000Y-16788714D01*
X15066428Y-16774429D01*
X15052143Y-16760143D01*
X15037857Y-16731571D01*
X15023571Y-16674429D01*
X15023571Y-16603000D01*
X15037857Y-16545857D01*
X15052143Y-16517286D01*
X15066428Y-16503000D01*
X15095000Y-16488714D01*
X15323571Y-16760143D02*
X15337857Y-16774429D01*
X15323571Y-16788714D01*
X15309286Y-16774429D01*
X15323571Y-16760143D01*
X15323571Y-16788714D01*
X15523571Y-16488714D02*
X15552143Y-16488714D01*
X15580714Y-16503000D01*
X15595000Y-16517286D01*
X15609285Y-16545857D01*
X15623571Y-16603000D01*
X15623571Y-16674429D01*
X15609285Y-16731571D01*
X15595000Y-16760143D01*
X15580714Y-16774429D01*
X15552143Y-16788714D01*
X15523571Y-16788714D01*
X15495000Y-16774429D01*
X15480714Y-16760143D01*
X15466428Y-16731571D01*
X15452143Y-16674429D01*
X15452143Y-16603000D01*
X15466428Y-16545857D01*
X15480714Y-16517286D01*
X15495000Y-16503000D01*
X15523571Y-16488714D01*
X15723571Y-16488714D02*
X15909285Y-16488714D01*
X15809285Y-16603000D01*
X15852143Y-16603000D01*
X15880714Y-16617286D01*
X15895000Y-16631571D01*
X15909285Y-16660143D01*
X15909285Y-16731571D01*
X15895000Y-16760143D01*
X15880714Y-16774429D01*
X15852143Y-16788714D01*
X15766428Y-16788714D01*
X15737857Y-16774429D01*
X15723571Y-16760143D01*
X16052143Y-16788714D02*
X16109285Y-16788714D01*
X16137857Y-16774429D01*
X16152143Y-16760143D01*
X16180714Y-16717286D01*
X16195000Y-16660143D01*
X16195000Y-16545857D01*
X16180714Y-16517286D01*
X16166428Y-16503000D01*
X16137857Y-16488714D01*
X16080714Y-16488714D01*
X16052143Y-16503000D01*
X16037857Y-16517286D01*
X16023571Y-16545857D01*
X16023571Y-16617286D01*
X16037857Y-16645857D01*
X16052143Y-16660143D01*
X16080714Y-16674429D01*
X16137857Y-16674429D01*
X16166428Y-16660143D01*
X16180714Y-16645857D01*
X16195000Y-16617286D01*
X16309286Y-16488714D02*
X16309286Y-16545857D01*
X16423571Y-16488714D02*
X16423571Y-16545857D01*
X16866428Y-16903000D02*
X16852143Y-16888714D01*
X16823571Y-16845857D01*
X16809286Y-16817286D01*
X16795000Y-16774429D01*
X16780714Y-16703000D01*
X16780714Y-16645857D01*
X16795000Y-16574429D01*
X16809286Y-16531571D01*
X16823571Y-16503000D01*
X16852143Y-16460143D01*
X16866428Y-16445857D01*
X17109286Y-16588714D02*
X17109286Y-16788714D01*
X17037857Y-16474429D02*
X16966428Y-16688714D01*
X17152143Y-16688714D01*
X17495000Y-16788714D02*
X17495000Y-16488714D01*
X17623571Y-16788714D02*
X17623571Y-16631571D01*
X17609286Y-16603000D01*
X17580714Y-16588714D01*
X17537857Y-16588714D01*
X17509286Y-16603000D01*
X17495000Y-16617286D01*
X17809286Y-16788714D02*
X17780714Y-16774429D01*
X17766428Y-16760143D01*
X17752143Y-16731571D01*
X17752143Y-16645857D01*
X17766428Y-16617286D01*
X17780714Y-16603000D01*
X17809286Y-16588714D01*
X17852143Y-16588714D01*
X17880714Y-16603000D01*
X17895000Y-16617286D01*
X17909286Y-16645857D01*
X17909286Y-16731571D01*
X17895000Y-16760143D01*
X17880714Y-16774429D01*
X17852143Y-16788714D01*
X17809286Y-16788714D01*
X18080714Y-16788714D02*
X18052143Y-16774429D01*
X18037857Y-16745857D01*
X18037857Y-16488714D01*
X18309286Y-16774429D02*
X18280714Y-16788714D01*
X18223571Y-16788714D01*
X18195000Y-16774429D01*
X18180714Y-16745857D01*
X18180714Y-16631571D01*
X18195000Y-16603000D01*
X18223571Y-16588714D01*
X18280714Y-16588714D01*
X18309286Y-16603000D01*
X18323571Y-16631571D01*
X18323571Y-16660143D01*
X18180714Y-16688714D01*
X18437857Y-16774429D02*
X18466429Y-16788714D01*
X18523571Y-16788714D01*
X18552143Y-16774429D01*
X18566429Y-16745857D01*
X18566429Y-16731571D01*
X18552143Y-16703000D01*
X18523571Y-16688714D01*
X18480714Y-16688714D01*
X18452143Y-16674429D01*
X18437857Y-16645857D01*
X18437857Y-16631571D01*
X18452143Y-16603000D01*
X18480714Y-16588714D01*
X18523571Y-16588714D01*
X18552143Y-16603000D01*
X18666428Y-16903000D02*
X18680714Y-16888714D01*
X18709286Y-16845857D01*
X18723571Y-16817286D01*
X18737857Y-16774429D01*
X18752143Y-16703000D01*
X18752143Y-16645857D01*
X18737857Y-16574429D01*
X18723571Y-16531571D01*
X18709286Y-16503000D01*
X18680714Y-16460143D01*
X18666428Y-16445857D01*
X12144200Y-17099800D02*
X12195000Y-17049000D01*
X12144200Y-16998200D01*
X12093400Y-17049000D01*
X12144200Y-17099800D01*
X12623571Y-17184714D02*
X12452143Y-17184714D01*
X12537857Y-17184714D02*
X12537857Y-16884714D01*
X12509286Y-16927572D01*
X12480714Y-16956143D01*
X12452143Y-16970429D01*
X12752143Y-17156143D02*
X12766428Y-17170429D01*
X12752143Y-17184714D01*
X12737857Y-17170429D01*
X12752143Y-17156143D01*
X12752143Y-17184714D01*
X12952143Y-16884714D02*
X12980714Y-16884714D01*
X13009286Y-16899000D01*
X13023571Y-16913286D01*
X13037857Y-16941857D01*
X13052143Y-16999000D01*
X13052143Y-17070429D01*
X13037857Y-17127572D01*
X13023571Y-17156143D01*
X13009286Y-17170429D01*
X12980714Y-17184714D01*
X12952143Y-17184714D01*
X12923571Y-17170429D01*
X12909286Y-17156143D01*
X12895000Y-17127572D01*
X12880714Y-17070429D01*
X12880714Y-16999000D01*
X12895000Y-16941857D01*
X12909286Y-16913286D01*
X12923571Y-16899000D01*
X12952143Y-16884714D01*
X13166428Y-16913286D02*
X13180714Y-16899000D01*
X13209286Y-16884714D01*
X13280714Y-16884714D01*
X13309286Y-16899000D01*
X13323571Y-16913286D01*
X13337857Y-16941857D01*
X13337857Y-16970429D01*
X13323571Y-17013286D01*
X13152143Y-17184714D01*
X13337857Y-17184714D01*
X13466428Y-17184714D02*
X13466428Y-16984714D01*
X13466428Y-17013286D02*
X13480714Y-16999000D01*
X13509286Y-16984714D01*
X13552143Y-16984714D01*
X13580714Y-16999000D01*
X13595000Y-17027572D01*
X13595000Y-17184714D01*
X13595000Y-17027572D02*
X13609286Y-16999000D01*
X13637857Y-16984714D01*
X13680714Y-16984714D01*
X13709286Y-16999000D01*
X13723571Y-17027572D01*
X13723571Y-17184714D01*
X13866428Y-17184714D02*
X13866428Y-16984714D01*
X13866428Y-17013286D02*
X13880714Y-16999000D01*
X13909286Y-16984714D01*
X13952143Y-16984714D01*
X13980714Y-16999000D01*
X13995000Y-17027572D01*
X13995000Y-17184714D01*
X13995000Y-17027572D02*
X14009286Y-16999000D01*
X14037857Y-16984714D01*
X14080714Y-16984714D01*
X14109286Y-16999000D01*
X14123571Y-17027572D01*
X14123571Y-17184714D01*
X14709286Y-16870429D02*
X14452143Y-17256143D01*
X15095000Y-16884714D02*
X15123571Y-16884714D01*
X15152143Y-16899000D01*
X15166428Y-16913286D01*
X15180714Y-16941857D01*
X15195000Y-16999000D01*
X15195000Y-17070429D01*
X15180714Y-17127572D01*
X15166428Y-17156143D01*
X15152143Y-17170429D01*
X15123571Y-17184714D01*
X15095000Y-17184714D01*
X15066428Y-17170429D01*
X15052143Y-17156143D01*
X15037857Y-17127572D01*
X15023571Y-17070429D01*
X15023571Y-16999000D01*
X15037857Y-16941857D01*
X15052143Y-16913286D01*
X15066428Y-16899000D01*
X15095000Y-16884714D01*
X15323571Y-17156143D02*
X15337857Y-17170429D01*
X15323571Y-17184714D01*
X15309286Y-17170429D01*
X15323571Y-17156143D01*
X15323571Y-17184714D01*
X15523571Y-16884714D02*
X15552143Y-16884714D01*
X15580714Y-16899000D01*
X15595000Y-16913286D01*
X15609285Y-16941857D01*
X15623571Y-16999000D01*
X15623571Y-17070429D01*
X15609285Y-17127572D01*
X15595000Y-17156143D01*
X15580714Y-17170429D01*
X15552143Y-17184714D01*
X15523571Y-17184714D01*
X15495000Y-17170429D01*
X15480714Y-17156143D01*
X15466428Y-17127572D01*
X15452143Y-17070429D01*
X15452143Y-16999000D01*
X15466428Y-16941857D01*
X15480714Y-16913286D01*
X15495000Y-16899000D01*
X15523571Y-16884714D01*
X15880714Y-16984714D02*
X15880714Y-17184714D01*
X15809285Y-16870429D02*
X15737857Y-17084714D01*
X15923571Y-17084714D01*
X16095000Y-16884714D02*
X16123571Y-16884714D01*
X16152143Y-16899000D01*
X16166428Y-16913286D01*
X16180714Y-16941857D01*
X16195000Y-16999000D01*
X16195000Y-17070429D01*
X16180714Y-17127572D01*
X16166428Y-17156143D01*
X16152143Y-17170429D01*
X16123571Y-17184714D01*
X16095000Y-17184714D01*
X16066428Y-17170429D01*
X16052143Y-17156143D01*
X16037857Y-17127572D01*
X16023571Y-17070429D01*
X16023571Y-16999000D01*
X16037857Y-16941857D01*
X16052143Y-16913286D01*
X16066428Y-16899000D01*
X16095000Y-16884714D01*
X16309286Y-16884714D02*
X16309286Y-16941857D01*
X16423571Y-16884714D02*
X16423571Y-16941857D01*
X16866428Y-17299000D02*
X16852143Y-17284714D01*
X16823571Y-17241857D01*
X16809286Y-17213286D01*
X16795000Y-17170429D01*
X16780714Y-17099000D01*
X16780714Y-17041857D01*
X16795000Y-16970429D01*
X16809286Y-16927572D01*
X16823571Y-16899000D01*
X16852143Y-16856143D01*
X16866428Y-16841857D01*
X17123571Y-16884714D02*
X16980714Y-16884714D01*
X16966428Y-17027572D01*
X16980714Y-17013286D01*
X17009286Y-16999000D01*
X17080714Y-16999000D01*
X17109286Y-17013286D01*
X17123571Y-17027572D01*
X17137857Y-17056143D01*
X17137857Y-17127572D01*
X17123571Y-17156143D01*
X17109286Y-17170429D01*
X17080714Y-17184714D01*
X17009286Y-17184714D01*
X16980714Y-17170429D01*
X16966428Y-17156143D01*
X17495000Y-17184714D02*
X17495000Y-16884714D01*
X17623571Y-17184714D02*
X17623571Y-17027572D01*
X17609286Y-16999000D01*
X17580714Y-16984714D01*
X17537857Y-16984714D01*
X17509286Y-16999000D01*
X17495000Y-17013286D01*
X17809286Y-17184714D02*
X17780714Y-17170429D01*
X17766428Y-17156143D01*
X17752143Y-17127572D01*
X17752143Y-17041857D01*
X17766428Y-17013286D01*
X17780714Y-16999000D01*
X17809286Y-16984714D01*
X17852143Y-16984714D01*
X17880714Y-16999000D01*
X17895000Y-17013286D01*
X17909286Y-17041857D01*
X17909286Y-17127572D01*
X17895000Y-17156143D01*
X17880714Y-17170429D01*
X17852143Y-17184714D01*
X17809286Y-17184714D01*
X18080714Y-17184714D02*
X18052143Y-17170429D01*
X18037857Y-17141857D01*
X18037857Y-16884714D01*
X18309286Y-17170429D02*
X18280714Y-17184714D01*
X18223571Y-17184714D01*
X18195000Y-17170429D01*
X18180714Y-17141857D01*
X18180714Y-17027572D01*
X18195000Y-16999000D01*
X18223571Y-16984714D01*
X18280714Y-16984714D01*
X18309286Y-16999000D01*
X18323571Y-17027572D01*
X18323571Y-17056143D01*
X18180714Y-17084714D01*
X18437857Y-17170429D02*
X18466429Y-17184714D01*
X18523571Y-17184714D01*
X18552143Y-17170429D01*
X18566429Y-17141857D01*
X18566429Y-17127572D01*
X18552143Y-17099000D01*
X18523571Y-17084714D01*
X18480714Y-17084714D01*
X18452143Y-17070429D01*
X18437857Y-17041857D01*
X18437857Y-17027572D01*
X18452143Y-16999000D01*
X18480714Y-16984714D01*
X18523571Y-16984714D01*
X18552143Y-16999000D01*
X18666428Y-17299000D02*
X18680714Y-17284714D01*
X18709286Y-17241857D01*
X18723571Y-17213286D01*
X18737857Y-17170429D01*
X18752143Y-17099000D01*
X18752143Y-17041857D01*
X18737857Y-16970429D01*
X18723571Y-16927572D01*
X18709286Y-16899000D01*
X18680714Y-16856143D01*
X18666428Y-16841857D01*
X12015000Y-17355000D02*
X12195000Y-17535000D01*
X12195000Y-17355000D02*
X12015000Y-17535000D01*
X12195000Y-17445000D02*
G75*
G03X12195000Y-17445000I-90000J0D01*
G01*
X12623571Y-17580714D02*
X12452143Y-17580714D01*
X12537857Y-17580714D02*
X12537857Y-17280714D01*
X12509286Y-17323572D01*
X12480714Y-17352143D01*
X12452143Y-17366429D01*
X12752143Y-17552143D02*
X12766428Y-17566429D01*
X12752143Y-17580714D01*
X12737857Y-17566429D01*
X12752143Y-17552143D01*
X12752143Y-17580714D01*
X12937857Y-17409286D02*
X12909286Y-17395000D01*
X12895000Y-17380714D01*
X12880714Y-17352143D01*
X12880714Y-17337857D01*
X12895000Y-17309286D01*
X12909286Y-17295000D01*
X12937857Y-17280714D01*
X12995000Y-17280714D01*
X13023571Y-17295000D01*
X13037857Y-17309286D01*
X13052143Y-17337857D01*
X13052143Y-17352143D01*
X13037857Y-17380714D01*
X13023571Y-17395000D01*
X12995000Y-17409286D01*
X12937857Y-17409286D01*
X12909286Y-17423572D01*
X12895000Y-17437857D01*
X12880714Y-17466429D01*
X12880714Y-17523572D01*
X12895000Y-17552143D01*
X12909286Y-17566429D01*
X12937857Y-17580714D01*
X12995000Y-17580714D01*
X13023571Y-17566429D01*
X13037857Y-17552143D01*
X13052143Y-17523572D01*
X13052143Y-17466429D01*
X13037857Y-17437857D01*
X13023571Y-17423572D01*
X12995000Y-17409286D01*
X13237857Y-17280714D02*
X13266428Y-17280714D01*
X13295000Y-17295000D01*
X13309286Y-17309286D01*
X13323571Y-17337857D01*
X13337857Y-17395000D01*
X13337857Y-17466429D01*
X13323571Y-17523572D01*
X13309286Y-17552143D01*
X13295000Y-17566429D01*
X13266428Y-17580714D01*
X13237857Y-17580714D01*
X13209286Y-17566429D01*
X13195000Y-17552143D01*
X13180714Y-17523572D01*
X13166428Y-17466429D01*
X13166428Y-17395000D01*
X13180714Y-17337857D01*
X13195000Y-17309286D01*
X13209286Y-17295000D01*
X13237857Y-17280714D01*
X13466428Y-17580714D02*
X13466428Y-17380714D01*
X13466428Y-17409286D02*
X13480714Y-17395000D01*
X13509286Y-17380714D01*
X13552143Y-17380714D01*
X13580714Y-17395000D01*
X13595000Y-17423572D01*
X13595000Y-17580714D01*
X13595000Y-17423572D02*
X13609286Y-17395000D01*
X13637857Y-17380714D01*
X13680714Y-17380714D01*
X13709286Y-17395000D01*
X13723571Y-17423572D01*
X13723571Y-17580714D01*
X13866428Y-17580714D02*
X13866428Y-17380714D01*
X13866428Y-17409286D02*
X13880714Y-17395000D01*
X13909286Y-17380714D01*
X13952143Y-17380714D01*
X13980714Y-17395000D01*
X13995000Y-17423572D01*
X13995000Y-17580714D01*
X13995000Y-17423572D02*
X14009286Y-17395000D01*
X14037857Y-17380714D01*
X14080714Y-17380714D01*
X14109286Y-17395000D01*
X14123571Y-17423572D01*
X14123571Y-17580714D01*
X14709286Y-17266429D02*
X14452143Y-17652143D01*
X15095000Y-17280714D02*
X15123571Y-17280714D01*
X15152143Y-17295000D01*
X15166428Y-17309286D01*
X15180714Y-17337857D01*
X15195000Y-17395000D01*
X15195000Y-17466429D01*
X15180714Y-17523572D01*
X15166428Y-17552143D01*
X15152143Y-17566429D01*
X15123571Y-17580714D01*
X15095000Y-17580714D01*
X15066428Y-17566429D01*
X15052143Y-17552143D01*
X15037857Y-17523572D01*
X15023571Y-17466429D01*
X15023571Y-17395000D01*
X15037857Y-17337857D01*
X15052143Y-17309286D01*
X15066428Y-17295000D01*
X15095000Y-17280714D01*
X15323571Y-17552143D02*
X15337857Y-17566429D01*
X15323571Y-17580714D01*
X15309286Y-17566429D01*
X15323571Y-17552143D01*
X15323571Y-17580714D01*
X15523571Y-17280714D02*
X15552143Y-17280714D01*
X15580714Y-17295000D01*
X15595000Y-17309286D01*
X15609285Y-17337857D01*
X15623571Y-17395000D01*
X15623571Y-17466429D01*
X15609285Y-17523572D01*
X15595000Y-17552143D01*
X15580714Y-17566429D01*
X15552143Y-17580714D01*
X15523571Y-17580714D01*
X15495000Y-17566429D01*
X15480714Y-17552143D01*
X15466428Y-17523572D01*
X15452143Y-17466429D01*
X15452143Y-17395000D01*
X15466428Y-17337857D01*
X15480714Y-17309286D01*
X15495000Y-17295000D01*
X15523571Y-17280714D01*
X15723571Y-17280714D02*
X15923571Y-17280714D01*
X15795000Y-17580714D01*
X16195000Y-17580714D02*
X16023571Y-17580714D01*
X16109285Y-17580714D02*
X16109285Y-17280714D01*
X16080714Y-17323572D01*
X16052143Y-17352143D01*
X16023571Y-17366429D01*
X16309286Y-17280714D02*
X16309286Y-17337857D01*
X16423571Y-17280714D02*
X16423571Y-17337857D01*
X16866428Y-17695000D02*
X16852143Y-17680714D01*
X16823571Y-17637857D01*
X16809286Y-17609286D01*
X16795000Y-17566429D01*
X16780714Y-17495000D01*
X16780714Y-17437857D01*
X16795000Y-17366429D01*
X16809286Y-17323572D01*
X16823571Y-17295000D01*
X16852143Y-17252143D01*
X16866428Y-17237857D01*
X17109286Y-17380714D02*
X17109286Y-17580714D01*
X17037857Y-17266429D02*
X16966428Y-17480714D01*
X17152143Y-17480714D01*
X17495000Y-17580714D02*
X17495000Y-17280714D01*
X17623571Y-17580714D02*
X17623571Y-17423572D01*
X17609286Y-17395000D01*
X17580714Y-17380714D01*
X17537857Y-17380714D01*
X17509286Y-17395000D01*
X17495000Y-17409286D01*
X17809286Y-17580714D02*
X17780714Y-17566429D01*
X17766428Y-17552143D01*
X17752143Y-17523572D01*
X17752143Y-17437857D01*
X17766428Y-17409286D01*
X17780714Y-17395000D01*
X17809286Y-17380714D01*
X17852143Y-17380714D01*
X17880714Y-17395000D01*
X17895000Y-17409286D01*
X17909286Y-17437857D01*
X17909286Y-17523572D01*
X17895000Y-17552143D01*
X17880714Y-17566429D01*
X17852143Y-17580714D01*
X17809286Y-17580714D01*
X18080714Y-17580714D02*
X18052143Y-17566429D01*
X18037857Y-17537857D01*
X18037857Y-17280714D01*
X18309286Y-17566429D02*
X18280714Y-17580714D01*
X18223571Y-17580714D01*
X18195000Y-17566429D01*
X18180714Y-17537857D01*
X18180714Y-17423572D01*
X18195000Y-17395000D01*
X18223571Y-17380714D01*
X18280714Y-17380714D01*
X18309286Y-17395000D01*
X18323571Y-17423572D01*
X18323571Y-17452143D01*
X18180714Y-17480714D01*
X18437857Y-17566429D02*
X18466429Y-17580714D01*
X18523571Y-17580714D01*
X18552143Y-17566429D01*
X18566429Y-17537857D01*
X18566429Y-17523572D01*
X18552143Y-17495000D01*
X18523571Y-17480714D01*
X18480714Y-17480714D01*
X18452143Y-17466429D01*
X18437857Y-17437857D01*
X18437857Y-17423572D01*
X18452143Y-17395000D01*
X18480714Y-17380714D01*
X18523571Y-17380714D01*
X18552143Y-17395000D01*
X18666428Y-17695000D02*
X18680714Y-17680714D01*
X18709286Y-17637857D01*
X18723571Y-17609286D01*
X18737857Y-17566429D01*
X18752143Y-17495000D01*
X18752143Y-17437857D01*
X18737857Y-17366429D01*
X18723571Y-17323572D01*
X18709286Y-17295000D01*
X18680714Y-17252143D01*
X18666428Y-17237857D01*
X11805000Y-17646000D02*
X12195000Y-18036000D01*
X12195000Y-17646000D02*
X11805000Y-18036000D01*
X12000000Y-17646000D02*
X12000000Y-18036000D01*
X11805000Y-17841000D02*
X12195000Y-17841000D01*
X12437857Y-17676714D02*
X12623571Y-17676714D01*
X12523571Y-17791000D01*
X12566428Y-17791000D01*
X12595000Y-17805286D01*
X12609286Y-17819572D01*
X12623571Y-17848143D01*
X12623571Y-17919572D01*
X12609286Y-17948143D01*
X12595000Y-17962429D01*
X12566428Y-17976714D01*
X12480714Y-17976714D01*
X12452143Y-17962429D01*
X12437857Y-17948143D01*
X12752143Y-17948143D02*
X12766428Y-17962429D01*
X12752143Y-17976714D01*
X12737857Y-17962429D01*
X12752143Y-17948143D01*
X12752143Y-17976714D01*
X12909286Y-17976714D02*
X12966428Y-17976714D01*
X12995000Y-17962429D01*
X13009286Y-17948143D01*
X13037857Y-17905286D01*
X13052143Y-17848143D01*
X13052143Y-17733857D01*
X13037857Y-17705286D01*
X13023571Y-17691000D01*
X12995000Y-17676714D01*
X12937857Y-17676714D01*
X12909286Y-17691000D01*
X12895000Y-17705286D01*
X12880714Y-17733857D01*
X12880714Y-17805286D01*
X12895000Y-17833857D01*
X12909286Y-17848143D01*
X12937857Y-17862429D01*
X12995000Y-17862429D01*
X13023571Y-17848143D01*
X13037857Y-17833857D01*
X13052143Y-17805286D01*
X13237857Y-17676714D02*
X13266428Y-17676714D01*
X13295000Y-17691000D01*
X13309286Y-17705286D01*
X13323571Y-17733857D01*
X13337857Y-17791000D01*
X13337857Y-17862429D01*
X13323571Y-17919572D01*
X13309286Y-17948143D01*
X13295000Y-17962429D01*
X13266428Y-17976714D01*
X13237857Y-17976714D01*
X13209286Y-17962429D01*
X13195000Y-17948143D01*
X13180714Y-17919572D01*
X13166428Y-17862429D01*
X13166428Y-17791000D01*
X13180714Y-17733857D01*
X13195000Y-17705286D01*
X13209286Y-17691000D01*
X13237857Y-17676714D01*
X13466428Y-17976714D02*
X13466428Y-17776714D01*
X13466428Y-17805286D02*
X13480714Y-17791000D01*
X13509286Y-17776714D01*
X13552143Y-17776714D01*
X13580714Y-17791000D01*
X13595000Y-17819572D01*
X13595000Y-17976714D01*
X13595000Y-17819572D02*
X13609286Y-17791000D01*
X13637857Y-17776714D01*
X13680714Y-17776714D01*
X13709286Y-17791000D01*
X13723571Y-17819572D01*
X13723571Y-17976714D01*
X13866428Y-17976714D02*
X13866428Y-17776714D01*
X13866428Y-17805286D02*
X13880714Y-17791000D01*
X13909286Y-17776714D01*
X13952143Y-17776714D01*
X13980714Y-17791000D01*
X13995000Y-17819572D01*
X13995000Y-17976714D01*
X13995000Y-17819572D02*
X14009286Y-17791000D01*
X14037857Y-17776714D01*
X14080714Y-17776714D01*
X14109286Y-17791000D01*
X14123571Y-17819572D01*
X14123571Y-17976714D01*
X14709286Y-17662429D02*
X14452143Y-18048143D01*
X15095000Y-17676714D02*
X15123571Y-17676714D01*
X15152143Y-17691000D01*
X15166428Y-17705286D01*
X15180714Y-17733857D01*
X15195000Y-17791000D01*
X15195000Y-17862429D01*
X15180714Y-17919572D01*
X15166428Y-17948143D01*
X15152143Y-17962429D01*
X15123571Y-17976714D01*
X15095000Y-17976714D01*
X15066428Y-17962429D01*
X15052143Y-17948143D01*
X15037857Y-17919572D01*
X15023571Y-17862429D01*
X15023571Y-17791000D01*
X15037857Y-17733857D01*
X15052143Y-17705286D01*
X15066428Y-17691000D01*
X15095000Y-17676714D01*
X15323571Y-17948143D02*
X15337857Y-17962429D01*
X15323571Y-17976714D01*
X15309286Y-17962429D01*
X15323571Y-17948143D01*
X15323571Y-17976714D01*
X15623571Y-17976714D02*
X15452143Y-17976714D01*
X15537857Y-17976714D02*
X15537857Y-17676714D01*
X15509285Y-17719572D01*
X15480714Y-17748143D01*
X15452143Y-17762429D01*
X15895000Y-17676714D02*
X15752143Y-17676714D01*
X15737857Y-17819572D01*
X15752143Y-17805286D01*
X15780714Y-17791000D01*
X15852143Y-17791000D01*
X15880714Y-17805286D01*
X15895000Y-17819572D01*
X15909285Y-17848143D01*
X15909285Y-17919572D01*
X15895000Y-17948143D01*
X15880714Y-17962429D01*
X15852143Y-17976714D01*
X15780714Y-17976714D01*
X15752143Y-17962429D01*
X15737857Y-17948143D01*
X16166428Y-17776714D02*
X16166428Y-17976714D01*
X16095000Y-17662429D02*
X16023571Y-17876714D01*
X16209285Y-17876714D01*
X16309286Y-17676714D02*
X16309286Y-17733857D01*
X16423571Y-17676714D02*
X16423571Y-17733857D01*
X16866428Y-18091000D02*
X16852143Y-18076714D01*
X16823571Y-18033857D01*
X16809286Y-18005286D01*
X16795000Y-17962429D01*
X16780714Y-17891000D01*
X16780714Y-17833857D01*
X16795000Y-17762429D01*
X16809286Y-17719572D01*
X16823571Y-17691000D01*
X16852143Y-17648143D01*
X16866428Y-17633857D01*
X17109286Y-17776714D02*
X17109286Y-17976714D01*
X17037857Y-17662429D02*
X16966428Y-17876714D01*
X17152143Y-17876714D01*
X17495000Y-17976714D02*
X17495000Y-17676714D01*
X17623571Y-17976714D02*
X17623571Y-17819572D01*
X17609286Y-17791000D01*
X17580714Y-17776714D01*
X17537857Y-17776714D01*
X17509286Y-17791000D01*
X17495000Y-17805286D01*
X17809286Y-17976714D02*
X17780714Y-17962429D01*
X17766428Y-17948143D01*
X17752143Y-17919572D01*
X17752143Y-17833857D01*
X17766428Y-17805286D01*
X17780714Y-17791000D01*
X17809286Y-17776714D01*
X17852143Y-17776714D01*
X17880714Y-17791000D01*
X17895000Y-17805286D01*
X17909286Y-17833857D01*
X17909286Y-17919572D01*
X17895000Y-17948143D01*
X17880714Y-17962429D01*
X17852143Y-17976714D01*
X17809286Y-17976714D01*
X18080714Y-17976714D02*
X18052143Y-17962429D01*
X18037857Y-17933857D01*
X18037857Y-17676714D01*
X18309286Y-17962429D02*
X18280714Y-17976714D01*
X18223571Y-17976714D01*
X18195000Y-17962429D01*
X18180714Y-17933857D01*
X18180714Y-17819572D01*
X18195000Y-17791000D01*
X18223571Y-17776714D01*
X18280714Y-17776714D01*
X18309286Y-17791000D01*
X18323571Y-17819572D01*
X18323571Y-17848143D01*
X18180714Y-17876714D01*
X18437857Y-17962429D02*
X18466429Y-17976714D01*
X18523571Y-17976714D01*
X18552143Y-17962429D01*
X18566429Y-17933857D01*
X18566429Y-17919572D01*
X18552143Y-17891000D01*
X18523571Y-17876714D01*
X18480714Y-17876714D01*
X18452143Y-17862429D01*
X18437857Y-17833857D01*
X18437857Y-17819572D01*
X18452143Y-17791000D01*
X18480714Y-17776714D01*
X18523571Y-17776714D01*
X18552143Y-17791000D01*
X18666428Y-18091000D02*
X18680714Y-18076714D01*
X18709286Y-18033857D01*
X18723571Y-18005286D01*
X18737857Y-17962429D01*
X18752143Y-17891000D01*
X18752143Y-17833857D01*
X18737857Y-17762429D01*
X18723571Y-17719572D01*
X18709286Y-17691000D01*
X18680714Y-17648143D01*
X18666428Y-17633857D01*
M02*
