G04 #@! TF.FileFunction,Copper,L1,Top,Signal*
%FSLAX46Y46*%
G04 Gerber Fmt 4.6, Leading zero omitted, Abs format (unit mm)*
G04 Created by KiCad (PCBNEW 4.0.1-stable) date 15/01/2016 09:54:40*
%MOMM*%
G01*
G04 APERTURE LIST*
%ADD10C,0.100000*%
%ADD11O,1.600000X7.600000*%
%ADD12R,1.600000X1.500000*%
%ADD13C,1.600000*%
%ADD14C,1.000000*%
%ADD15C,0.400000*%
%ADD16C,0.250000*%
G04 APERTURE END LIST*
D10*
D11*
X10617500Y-13737000D03*
X13157500Y-13737000D03*
X15697500Y-13737000D03*
X18237500Y-13737000D03*
X20777500Y-13737000D03*
X23317500Y-13737000D03*
X25857500Y-13737000D03*
D12*
X1600000Y-14100000D03*
D13*
X4140000Y-14100000D03*
X1600000Y-11560000D03*
X4140000Y-11560000D03*
X1600000Y-9020000D03*
X4140000Y-9020000D03*
X1600000Y-6480000D03*
X4140000Y-6480000D03*
X1600000Y-3940000D03*
X4140000Y-3940000D03*
X1600000Y-1400000D03*
X4140000Y-1400000D03*
D14*
X8268000Y-13864000D02*
X6299500Y-15832500D01*
X2553000Y-15832500D02*
X6299500Y-15832500D01*
X1600000Y-14879500D02*
X2553000Y-15832500D01*
X1600000Y-14879500D02*
X1600000Y-14100000D01*
X8268000Y-13864000D02*
X10490500Y-13864000D01*
D15*
X10490500Y-13864000D02*
X10617500Y-13737000D01*
D16*
X8268000Y-13864000D02*
X8458500Y-13864000D01*
D14*
X4140000Y-14100000D02*
X6127000Y-14100000D01*
X12019002Y-8915502D02*
X13157500Y-10054000D01*
X8834998Y-8915502D02*
X12019002Y-8915502D01*
X8522000Y-9228500D02*
X8834998Y-8915502D01*
X8522000Y-11705000D02*
X8522000Y-9228500D01*
X6127000Y-14100000D02*
X8522000Y-11705000D01*
X13157500Y-10054000D02*
X13157500Y-13737000D01*
D16*
X7855250Y-8688750D02*
X8458500Y-8085500D01*
X14935500Y-8657000D02*
X15697500Y-9419000D01*
X15697500Y-9419000D02*
X15697500Y-13737000D01*
X14364000Y-8085500D02*
X14935500Y-8657000D01*
X8458500Y-8085500D02*
X14364000Y-8085500D01*
X4140000Y-11560000D02*
X6508000Y-11560000D01*
X7125000Y-9419000D02*
X7855250Y-8688750D01*
X7855250Y-8688750D02*
X7887000Y-8657000D01*
X7125000Y-10943000D02*
X7125000Y-9419000D01*
X6508000Y-11560000D02*
X7125000Y-10943000D01*
X7252000Y-8212500D02*
X8141000Y-7323500D01*
X17031000Y-8149000D02*
X18237500Y-9355500D01*
X18237500Y-9355500D02*
X18237500Y-13737000D01*
X16205500Y-7323500D02*
X17031000Y-8149000D01*
X8141000Y-7323500D02*
X16205500Y-7323500D01*
X4140000Y-9020000D02*
X6444500Y-9020000D01*
X6444500Y-9020000D02*
X7252000Y-8212500D01*
X7252000Y-8212500D02*
X7315500Y-8149000D01*
X5791500Y-6480000D02*
X19108500Y-6480000D01*
X20269500Y-7641000D02*
X20777500Y-8149000D01*
X20777500Y-8149000D02*
X20777500Y-13737000D01*
X19108500Y-6480000D02*
X20269500Y-7641000D01*
X4140000Y-6480000D02*
X5791500Y-6480000D01*
X7887000Y-5228000D02*
X20523500Y-5228000D01*
X23317500Y-8022000D02*
X23317500Y-13737000D01*
X20523500Y-5228000D02*
X23317500Y-8022000D01*
X4140000Y-3940000D02*
X5773500Y-3940000D01*
X7061500Y-5228000D02*
X7887000Y-5228000D01*
X7887000Y-5228000D02*
X7950500Y-5228000D01*
X5773500Y-3940000D02*
X7061500Y-5228000D01*
M02*
