%FSLAX46Y46*%
G04 Gerber Fmt 4.6, Leading zero omitted, Abs format (unit mm)*
G04 Created by KiCad (PCBNEW (2014-10-27 BZR 5228)-product) date 21/11/2015 15:14:05*
%MOMM*%
G01*
G04 APERTURE LIST*
%ADD10C,0.100000*%
%ADD11O,1.600000X7.600000*%
%ADD12R,1.600000X1.500000*%
%ADD13C,1.600000*%
%ADD14C,1.000000*%
%ADD15C,0.400000*%
%ADD16C,0.250000*%
G04 APERTURE END LIST*
D10*
D11*
X23889000Y-3958000D03*
X21349000Y-3958000D03*
X18809000Y-3958000D03*
X16269000Y-3958000D03*
X13729000Y-3958000D03*
X11189000Y-3958000D03*
X8649000Y-3958000D03*
D12*
X1600000Y-14100000D03*
D13*
X4140000Y-14100000D03*
X1600000Y-11560000D03*
X4140000Y-11560000D03*
X1600000Y-9020000D03*
X4140000Y-9020000D03*
X1600000Y-6480000D03*
X4140000Y-6480000D03*
X1600000Y-3940000D03*
X4140000Y-3940000D03*
X1600000Y-1400000D03*
X4140000Y-1400000D03*
D14*
X10000000Y-16600000D02*
X17089000Y-16600000D01*
X1600000Y-15000000D02*
X3200000Y-16600000D01*
X3200000Y-16600000D02*
X10000000Y-16600000D01*
X1600000Y-14100000D02*
X1600000Y-15000000D01*
X23889000Y-9800000D02*
X23889000Y-3958000D01*
X17089000Y-16600000D02*
X23889000Y-9800000D01*
X9960000Y-14100000D02*
X16668000Y-14100000D01*
X16668000Y-14100000D02*
X21349000Y-9419000D01*
X21349000Y-9419000D02*
X21349000Y-3958000D01*
X21349000Y-9419000D02*
X21349000Y-3958000D01*
X16668000Y-14100000D02*
X21349000Y-9419000D01*
X4140000Y-14100000D02*
X9960000Y-14100000D01*
D15*
X9960000Y-14100000D02*
X10000000Y-14060000D01*
D16*
X9919000Y-11560000D02*
X16287000Y-11560000D01*
X18809000Y-9038000D02*
X18809000Y-3958000D01*
X16287000Y-11560000D02*
X18809000Y-9038000D01*
X4140000Y-11560000D02*
X9919000Y-11560000D01*
X9919000Y-11560000D02*
X9960000Y-11560000D01*
X5855000Y-9020000D02*
X5855000Y-9038000D01*
X7125000Y-10308000D02*
X8268000Y-10308000D01*
X5855000Y-9038000D02*
X7125000Y-10308000D01*
X16269000Y-8784000D02*
X16269000Y-3958000D01*
X8268000Y-10308000D02*
X14745000Y-10308000D01*
X14745000Y-10308000D02*
X16269000Y-8784000D01*
X4140000Y-9020000D02*
X5855000Y-9020000D01*
X5605235Y-7001765D02*
X5605235Y-7645235D01*
X7379000Y-9419000D02*
X13348000Y-9419000D01*
X5605235Y-7645235D02*
X7379000Y-9419000D01*
X5093000Y-6480000D02*
X5093000Y-6489530D01*
X13729000Y-9038000D02*
X13729000Y-3958000D01*
X13348000Y-9419000D02*
X13729000Y-9038000D01*
X5093000Y-6489530D02*
X5605235Y-7001765D01*
X4140000Y-6480000D02*
X5093000Y-6480000D01*
X8141000Y-8657000D02*
X10300000Y-8657000D01*
X5601000Y-3940000D02*
X5601000Y-6117000D01*
X11189000Y-7768000D02*
X11189000Y-3958000D01*
X10300000Y-8657000D02*
X11189000Y-7768000D01*
X5601000Y-6117000D02*
X8141000Y-8657000D01*
X4140000Y-3940000D02*
X5601000Y-3940000D01*
M02*
