%FSLAX45Y45*%
G04 Gerber Fmt 4.5, Leading zero omitted, Abs format (unit mm)*
G04 Created by KiCad (PCBNEW (2014-10-27 BZR 5228)-product) date 21/11/2015 15:14:10*
%MOMM*%
G01*
G04 APERTURE LIST*
%ADD10C,0.127000*%
%ADD11C,0.020000*%
%ADD12C,0.200000*%
%ADD13C,0.300000*%
G04 APERTURE END LIST*
D10*
D11*
X0Y-1790000D02*
X0Y0D01*
X2515900Y0D02*
X0Y0D01*
X2515900Y-1790000D02*
X2515900Y0D01*
X0Y-1790000D02*
X2515900Y-1790000D01*
D12*
X120000Y-100000D02*
X200000Y-180000D01*
X200000Y-100000D02*
X120000Y-180000D01*
X120000Y-354000D02*
X200000Y-434000D01*
X200000Y-354000D02*
X120000Y-434000D01*
X120000Y-608000D02*
X200000Y-688000D01*
X200000Y-608000D02*
X120000Y-688000D01*
X120000Y-862000D02*
X200000Y-942000D01*
X200000Y-862000D02*
X120000Y-942000D01*
X120000Y-1116000D02*
X200000Y-1196000D01*
X200000Y-1116000D02*
X120000Y-1196000D01*
X374000Y-100000D02*
X454000Y-180000D01*
X454000Y-100000D02*
X374000Y-180000D01*
X374000Y-354000D02*
X454000Y-434000D01*
X454000Y-354000D02*
X374000Y-434000D01*
X374000Y-608000D02*
X454000Y-688000D01*
X454000Y-608000D02*
X374000Y-688000D01*
X374000Y-862000D02*
X454000Y-942000D01*
X454000Y-862000D02*
X374000Y-942000D01*
X374000Y-1116000D02*
X454000Y-1196000D01*
X454000Y-1116000D02*
X374000Y-1196000D01*
X374000Y-1370000D02*
X454000Y-1450000D01*
X454000Y-1370000D02*
X374000Y-1450000D01*
X205000Y-1410000D02*
G75*
G03X205000Y-1410000I-45000J0D01*
G01*
D13*
X270429Y-2256714D02*
X270429Y-1956714D01*
X341857Y-1956714D01*
X384714Y-1971000D01*
X413286Y-1999571D01*
X427571Y-2028143D01*
X441857Y-2085286D01*
X441857Y-2128143D01*
X427571Y-2185286D01*
X413286Y-2213857D01*
X384714Y-2242429D01*
X341857Y-2256714D01*
X270429Y-2256714D01*
X570429Y-2256714D02*
X570429Y-2056714D01*
X570429Y-2113857D02*
X584714Y-2085286D01*
X599000Y-2071000D01*
X627571Y-2056714D01*
X656143Y-2056714D01*
X756143Y-2256714D02*
X756143Y-2056714D01*
X756143Y-1956714D02*
X741857Y-1971000D01*
X756143Y-1985286D01*
X770428Y-1971000D01*
X756143Y-1956714D01*
X756143Y-1985286D01*
X941857Y-2256714D02*
X913286Y-2242429D01*
X899000Y-2213857D01*
X899000Y-1956714D01*
X1099000Y-2256714D02*
X1070429Y-2242429D01*
X1056143Y-2213857D01*
X1056143Y-1956714D01*
X1441857Y-2256714D02*
X1441857Y-1956714D01*
X1541857Y-2171000D01*
X1641857Y-1956714D01*
X1641857Y-2256714D01*
X1913286Y-2256714D02*
X1913286Y-2099572D01*
X1899000Y-2071000D01*
X1870428Y-2056714D01*
X1813286Y-2056714D01*
X1784714Y-2071000D01*
X1913286Y-2242429D02*
X1884714Y-2256714D01*
X1813286Y-2256714D01*
X1784714Y-2242429D01*
X1770428Y-2213857D01*
X1770428Y-2185286D01*
X1784714Y-2156714D01*
X1813286Y-2142429D01*
X1884714Y-2142429D01*
X1913286Y-2128143D01*
X2056143Y-2056714D02*
X2056143Y-2356714D01*
X2056143Y-2071000D02*
X2084714Y-2056714D01*
X2141857Y-2056714D01*
X2170429Y-2071000D01*
X2184714Y-2085286D01*
X2199000Y-2113857D01*
X2199000Y-2199572D01*
X2184714Y-2228143D01*
X2170429Y-2242429D01*
X2141857Y-2256714D01*
X2084714Y-2256714D01*
X2056143Y-2242429D01*
X2327571Y-2228143D02*
X2341857Y-2242429D01*
X2327571Y-2256714D01*
X2313286Y-2242429D01*
X2327571Y-2228143D01*
X2327571Y-2256714D01*
X2327571Y-2071000D02*
X2341857Y-2085286D01*
X2327571Y-2099572D01*
X2313286Y-2085286D01*
X2327571Y-2071000D01*
X2327571Y-2099572D01*
X-81000Y-2711000D02*
X-1000Y-2791000D01*
X-1000Y-2711000D02*
X-81000Y-2791000D01*
X327571Y-2586714D02*
X356143Y-2586714D01*
X384714Y-2601000D01*
X399000Y-2615286D01*
X413286Y-2643857D01*
X427571Y-2701000D01*
X427571Y-2772429D01*
X413286Y-2829571D01*
X399000Y-2858143D01*
X384714Y-2872429D01*
X356143Y-2886714D01*
X327571Y-2886714D01*
X299000Y-2872429D01*
X284714Y-2858143D01*
X270429Y-2829571D01*
X256143Y-2772429D01*
X256143Y-2701000D01*
X270429Y-2643857D01*
X284714Y-2615286D01*
X299000Y-2601000D01*
X327571Y-2586714D01*
X556143Y-2858143D02*
X570429Y-2872429D01*
X556143Y-2886714D01*
X541857Y-2872429D01*
X556143Y-2858143D01*
X556143Y-2886714D01*
X741857Y-2715286D02*
X713286Y-2701000D01*
X699000Y-2686714D01*
X684714Y-2658143D01*
X684714Y-2643857D01*
X699000Y-2615286D01*
X713286Y-2601000D01*
X741857Y-2586714D01*
X799000Y-2586714D01*
X827571Y-2601000D01*
X841857Y-2615286D01*
X856143Y-2643857D01*
X856143Y-2658143D01*
X841857Y-2686714D01*
X827571Y-2701000D01*
X799000Y-2715286D01*
X741857Y-2715286D01*
X713286Y-2729572D01*
X699000Y-2743857D01*
X684714Y-2772429D01*
X684714Y-2829571D01*
X699000Y-2858143D01*
X713286Y-2872429D01*
X741857Y-2886714D01*
X799000Y-2886714D01*
X827571Y-2872429D01*
X841857Y-2858143D01*
X856143Y-2829571D01*
X856143Y-2772429D01*
X841857Y-2743857D01*
X827571Y-2729572D01*
X799000Y-2715286D01*
X1041857Y-2586714D02*
X1070429Y-2586714D01*
X1099000Y-2601000D01*
X1113286Y-2615286D01*
X1127571Y-2643857D01*
X1141857Y-2701000D01*
X1141857Y-2772429D01*
X1127571Y-2829571D01*
X1113286Y-2858143D01*
X1099000Y-2872429D01*
X1070429Y-2886714D01*
X1041857Y-2886714D01*
X1013286Y-2872429D01*
X999000Y-2858143D01*
X984714Y-2829571D01*
X970428Y-2772429D01*
X970428Y-2701000D01*
X984714Y-2643857D01*
X999000Y-2615286D01*
X1013286Y-2601000D01*
X1041857Y-2586714D01*
X1270429Y-2886714D02*
X1270429Y-2686714D01*
X1270429Y-2715286D02*
X1284714Y-2701000D01*
X1313286Y-2686714D01*
X1356143Y-2686714D01*
X1384714Y-2701000D01*
X1399000Y-2729572D01*
X1399000Y-2886714D01*
X1399000Y-2729572D02*
X1413286Y-2701000D01*
X1441857Y-2686714D01*
X1484714Y-2686714D01*
X1513286Y-2701000D01*
X1527571Y-2729572D01*
X1527571Y-2886714D01*
X1670428Y-2886714D02*
X1670428Y-2686714D01*
X1670428Y-2715286D02*
X1684714Y-2701000D01*
X1713286Y-2686714D01*
X1756143Y-2686714D01*
X1784714Y-2701000D01*
X1799000Y-2729572D01*
X1799000Y-2886714D01*
X1799000Y-2729572D02*
X1813286Y-2701000D01*
X1841857Y-2686714D01*
X1884714Y-2686714D01*
X1913286Y-2701000D01*
X1927571Y-2729572D01*
X1927571Y-2886714D01*
X2513286Y-2572429D02*
X2256143Y-2958143D01*
X2899000Y-2586714D02*
X2927571Y-2586714D01*
X2956143Y-2601000D01*
X2970428Y-2615286D01*
X2984714Y-2643857D01*
X2999000Y-2701000D01*
X2999000Y-2772429D01*
X2984714Y-2829571D01*
X2970428Y-2858143D01*
X2956143Y-2872429D01*
X2927571Y-2886714D01*
X2899000Y-2886714D01*
X2870428Y-2872429D01*
X2856143Y-2858143D01*
X2841857Y-2829571D01*
X2827571Y-2772429D01*
X2827571Y-2701000D01*
X2841857Y-2643857D01*
X2856143Y-2615286D01*
X2870428Y-2601000D01*
X2899000Y-2586714D01*
X3127571Y-2858143D02*
X3141857Y-2872429D01*
X3127571Y-2886714D01*
X3113286Y-2872429D01*
X3127571Y-2858143D01*
X3127571Y-2886714D01*
X3327571Y-2586714D02*
X3356143Y-2586714D01*
X3384714Y-2601000D01*
X3399000Y-2615286D01*
X3413285Y-2643857D01*
X3427571Y-2701000D01*
X3427571Y-2772429D01*
X3413285Y-2829571D01*
X3399000Y-2858143D01*
X3384714Y-2872429D01*
X3356143Y-2886714D01*
X3327571Y-2886714D01*
X3299000Y-2872429D01*
X3284714Y-2858143D01*
X3270428Y-2829571D01*
X3256143Y-2772429D01*
X3256143Y-2701000D01*
X3270428Y-2643857D01*
X3284714Y-2615286D01*
X3299000Y-2601000D01*
X3327571Y-2586714D01*
X3527571Y-2586714D02*
X3713285Y-2586714D01*
X3613285Y-2701000D01*
X3656143Y-2701000D01*
X3684714Y-2715286D01*
X3699000Y-2729572D01*
X3713285Y-2758143D01*
X3713285Y-2829571D01*
X3699000Y-2858143D01*
X3684714Y-2872429D01*
X3656143Y-2886714D01*
X3570428Y-2886714D01*
X3541857Y-2872429D01*
X3527571Y-2858143D01*
X3999000Y-2886714D02*
X3827571Y-2886714D01*
X3913285Y-2886714D02*
X3913285Y-2586714D01*
X3884714Y-2629572D01*
X3856143Y-2658143D01*
X3827571Y-2672429D01*
X4113286Y-2586714D02*
X4113286Y-2643857D01*
X4227571Y-2586714D02*
X4227571Y-2643857D01*
X4670428Y-3001000D02*
X4656143Y-2986714D01*
X4627571Y-2943857D01*
X4613286Y-2915286D01*
X4599000Y-2872429D01*
X4584714Y-2801000D01*
X4584714Y-2743857D01*
X4599000Y-2672429D01*
X4613286Y-2629572D01*
X4627571Y-2601000D01*
X4656143Y-2558143D01*
X4670428Y-2543857D01*
X4941857Y-2886714D02*
X4770428Y-2886714D01*
X4856143Y-2886714D02*
X4856143Y-2586714D01*
X4827571Y-2629572D01*
X4799000Y-2658143D01*
X4770428Y-2672429D01*
X5227571Y-2886714D02*
X5056143Y-2886714D01*
X5141857Y-2886714D02*
X5141857Y-2586714D01*
X5113286Y-2629572D01*
X5084714Y-2658143D01*
X5056143Y-2672429D01*
X5584714Y-2886714D02*
X5584714Y-2586714D01*
X5713285Y-2886714D02*
X5713285Y-2729572D01*
X5699000Y-2701000D01*
X5670428Y-2686714D01*
X5627571Y-2686714D01*
X5599000Y-2701000D01*
X5584714Y-2715286D01*
X5899000Y-2886714D02*
X5870428Y-2872429D01*
X5856143Y-2858143D01*
X5841857Y-2829571D01*
X5841857Y-2743857D01*
X5856143Y-2715286D01*
X5870428Y-2701000D01*
X5899000Y-2686714D01*
X5941857Y-2686714D01*
X5970428Y-2701000D01*
X5984714Y-2715286D01*
X5999000Y-2743857D01*
X5999000Y-2829571D01*
X5984714Y-2858143D01*
X5970428Y-2872429D01*
X5941857Y-2886714D01*
X5899000Y-2886714D01*
X6170428Y-2886714D02*
X6141857Y-2872429D01*
X6127571Y-2843857D01*
X6127571Y-2586714D01*
X6399000Y-2872429D02*
X6370428Y-2886714D01*
X6313286Y-2886714D01*
X6284714Y-2872429D01*
X6270428Y-2843857D01*
X6270428Y-2729572D01*
X6284714Y-2701000D01*
X6313286Y-2686714D01*
X6370428Y-2686714D01*
X6399000Y-2701000D01*
X6413286Y-2729572D01*
X6413286Y-2758143D01*
X6270428Y-2786714D01*
X6527571Y-2872429D02*
X6556143Y-2886714D01*
X6613286Y-2886714D01*
X6641857Y-2872429D01*
X6656143Y-2843857D01*
X6656143Y-2829571D01*
X6641857Y-2801000D01*
X6613286Y-2786714D01*
X6570428Y-2786714D01*
X6541857Y-2772429D01*
X6527571Y-2743857D01*
X6527571Y-2729572D01*
X6541857Y-2701000D01*
X6570428Y-2686714D01*
X6613286Y-2686714D01*
X6641857Y-2701000D01*
X6756143Y-3001000D02*
X6770428Y-2986714D01*
X6799000Y-2943857D01*
X6813286Y-2915286D01*
X6827571Y-2872429D01*
X6841857Y-2801000D01*
X6841857Y-2743857D01*
X6827571Y-2672429D01*
X6813286Y-2629572D01*
X6799000Y-2601000D01*
X6770428Y-2558143D01*
X6756143Y-2543857D01*
X-1000Y-3147000D02*
G75*
G03X-1000Y-3147000I-45000J0D01*
G01*
X327571Y-2982714D02*
X356143Y-2982714D01*
X384714Y-2997000D01*
X399000Y-3011286D01*
X413286Y-3039857D01*
X427571Y-3097000D01*
X427571Y-3168429D01*
X413286Y-3225571D01*
X399000Y-3254143D01*
X384714Y-3268429D01*
X356143Y-3282714D01*
X327571Y-3282714D01*
X299000Y-3268429D01*
X284714Y-3254143D01*
X270429Y-3225571D01*
X256143Y-3168429D01*
X256143Y-3097000D01*
X270429Y-3039857D01*
X284714Y-3011286D01*
X299000Y-2997000D01*
X327571Y-2982714D01*
X556143Y-3254143D02*
X570429Y-3268429D01*
X556143Y-3282714D01*
X541857Y-3268429D01*
X556143Y-3254143D01*
X556143Y-3282714D01*
X713286Y-3282714D02*
X770428Y-3282714D01*
X799000Y-3268429D01*
X813286Y-3254143D01*
X841857Y-3211286D01*
X856143Y-3154143D01*
X856143Y-3039857D01*
X841857Y-3011286D01*
X827571Y-2997000D01*
X799000Y-2982714D01*
X741857Y-2982714D01*
X713286Y-2997000D01*
X699000Y-3011286D01*
X684714Y-3039857D01*
X684714Y-3111286D01*
X699000Y-3139857D01*
X713286Y-3154143D01*
X741857Y-3168429D01*
X799000Y-3168429D01*
X827571Y-3154143D01*
X841857Y-3139857D01*
X856143Y-3111286D01*
X1041857Y-2982714D02*
X1070429Y-2982714D01*
X1099000Y-2997000D01*
X1113286Y-3011286D01*
X1127571Y-3039857D01*
X1141857Y-3097000D01*
X1141857Y-3168429D01*
X1127571Y-3225571D01*
X1113286Y-3254143D01*
X1099000Y-3268429D01*
X1070429Y-3282714D01*
X1041857Y-3282714D01*
X1013286Y-3268429D01*
X999000Y-3254143D01*
X984714Y-3225571D01*
X970428Y-3168429D01*
X970428Y-3097000D01*
X984714Y-3039857D01*
X999000Y-3011286D01*
X1013286Y-2997000D01*
X1041857Y-2982714D01*
X1270429Y-3282714D02*
X1270429Y-3082714D01*
X1270429Y-3111286D02*
X1284714Y-3097000D01*
X1313286Y-3082714D01*
X1356143Y-3082714D01*
X1384714Y-3097000D01*
X1399000Y-3125571D01*
X1399000Y-3282714D01*
X1399000Y-3125571D02*
X1413286Y-3097000D01*
X1441857Y-3082714D01*
X1484714Y-3082714D01*
X1513286Y-3097000D01*
X1527571Y-3125571D01*
X1527571Y-3282714D01*
X1670428Y-3282714D02*
X1670428Y-3082714D01*
X1670428Y-3111286D02*
X1684714Y-3097000D01*
X1713286Y-3082714D01*
X1756143Y-3082714D01*
X1784714Y-3097000D01*
X1799000Y-3125571D01*
X1799000Y-3282714D01*
X1799000Y-3125571D02*
X1813286Y-3097000D01*
X1841857Y-3082714D01*
X1884714Y-3082714D01*
X1913286Y-3097000D01*
X1927571Y-3125571D01*
X1927571Y-3282714D01*
X2513286Y-2968429D02*
X2256143Y-3354143D01*
X2899000Y-2982714D02*
X2927571Y-2982714D01*
X2956143Y-2997000D01*
X2970428Y-3011286D01*
X2984714Y-3039857D01*
X2999000Y-3097000D01*
X2999000Y-3168429D01*
X2984714Y-3225571D01*
X2970428Y-3254143D01*
X2956143Y-3268429D01*
X2927571Y-3282714D01*
X2899000Y-3282714D01*
X2870428Y-3268429D01*
X2856143Y-3254143D01*
X2841857Y-3225571D01*
X2827571Y-3168429D01*
X2827571Y-3097000D01*
X2841857Y-3039857D01*
X2856143Y-3011286D01*
X2870428Y-2997000D01*
X2899000Y-2982714D01*
X3127571Y-3254143D02*
X3141857Y-3268429D01*
X3127571Y-3282714D01*
X3113286Y-3268429D01*
X3127571Y-3254143D01*
X3127571Y-3282714D01*
X3327571Y-2982714D02*
X3356143Y-2982714D01*
X3384714Y-2997000D01*
X3399000Y-3011286D01*
X3413285Y-3039857D01*
X3427571Y-3097000D01*
X3427571Y-3168429D01*
X3413285Y-3225571D01*
X3399000Y-3254143D01*
X3384714Y-3268429D01*
X3356143Y-3282714D01*
X3327571Y-3282714D01*
X3299000Y-3268429D01*
X3284714Y-3254143D01*
X3270428Y-3225571D01*
X3256143Y-3168429D01*
X3256143Y-3097000D01*
X3270428Y-3039857D01*
X3284714Y-3011286D01*
X3299000Y-2997000D01*
X3327571Y-2982714D01*
X3527571Y-2982714D02*
X3713285Y-2982714D01*
X3613285Y-3097000D01*
X3656143Y-3097000D01*
X3684714Y-3111286D01*
X3699000Y-3125571D01*
X3713285Y-3154143D01*
X3713285Y-3225571D01*
X3699000Y-3254143D01*
X3684714Y-3268429D01*
X3656143Y-3282714D01*
X3570428Y-3282714D01*
X3541857Y-3268429D01*
X3527571Y-3254143D01*
X3984714Y-2982714D02*
X3841857Y-2982714D01*
X3827571Y-3125571D01*
X3841857Y-3111286D01*
X3870428Y-3097000D01*
X3941857Y-3097000D01*
X3970428Y-3111286D01*
X3984714Y-3125571D01*
X3999000Y-3154143D01*
X3999000Y-3225571D01*
X3984714Y-3254143D01*
X3970428Y-3268429D01*
X3941857Y-3282714D01*
X3870428Y-3282714D01*
X3841857Y-3268429D01*
X3827571Y-3254143D01*
X4113286Y-2982714D02*
X4113286Y-3039857D01*
X4227571Y-2982714D02*
X4227571Y-3039857D01*
X4670428Y-3397000D02*
X4656143Y-3382714D01*
X4627571Y-3339857D01*
X4613286Y-3311286D01*
X4599000Y-3268429D01*
X4584714Y-3197000D01*
X4584714Y-3139857D01*
X4599000Y-3068429D01*
X4613286Y-3025571D01*
X4627571Y-2997000D01*
X4656143Y-2954143D01*
X4670428Y-2939857D01*
X4941857Y-3282714D02*
X4770428Y-3282714D01*
X4856143Y-3282714D02*
X4856143Y-2982714D01*
X4827571Y-3025571D01*
X4799000Y-3054143D01*
X4770428Y-3068429D01*
X5299000Y-3282714D02*
X5299000Y-2982714D01*
X5427571Y-3282714D02*
X5427571Y-3125571D01*
X5413286Y-3097000D01*
X5384714Y-3082714D01*
X5341857Y-3082714D01*
X5313286Y-3097000D01*
X5299000Y-3111286D01*
X5613285Y-3282714D02*
X5584714Y-3268429D01*
X5570428Y-3254143D01*
X5556143Y-3225571D01*
X5556143Y-3139857D01*
X5570428Y-3111286D01*
X5584714Y-3097000D01*
X5613285Y-3082714D01*
X5656143Y-3082714D01*
X5684714Y-3097000D01*
X5699000Y-3111286D01*
X5713285Y-3139857D01*
X5713285Y-3225571D01*
X5699000Y-3254143D01*
X5684714Y-3268429D01*
X5656143Y-3282714D01*
X5613285Y-3282714D01*
X5884714Y-3282714D02*
X5856143Y-3268429D01*
X5841857Y-3239857D01*
X5841857Y-2982714D01*
X6113286Y-3268429D02*
X6084714Y-3282714D01*
X6027571Y-3282714D01*
X5999000Y-3268429D01*
X5984714Y-3239857D01*
X5984714Y-3125571D01*
X5999000Y-3097000D01*
X6027571Y-3082714D01*
X6084714Y-3082714D01*
X6113286Y-3097000D01*
X6127571Y-3125571D01*
X6127571Y-3154143D01*
X5984714Y-3182714D01*
X6227571Y-3397000D02*
X6241857Y-3382714D01*
X6270428Y-3339857D01*
X6284714Y-3311286D01*
X6299000Y-3268429D01*
X6313286Y-3197000D01*
X6313286Y-3139857D01*
X6299000Y-3068429D01*
X6284714Y-3025571D01*
X6270428Y-2997000D01*
X6241857Y-2954143D01*
X6227571Y-2939857D01*
M02*
